<svg width="576" height="227" fill="none" xmlns="http://www.w3.org/2000/svg"><path d="M16.21 35.42c-2.613 0-4.877-.537-6.79-1.61a11.248 11.248 0 01-4.445-4.48c-1.027-1.937-1.54-4.165-1.54-6.685 0-2.543.513-4.772 1.54-6.685a11.018 11.018 0 014.445-4.445c1.913-1.073 4.177-1.61 6.79-1.61 2.637 0 4.912.537 6.825 1.61a11.018 11.018 0 014.445 4.445c1.05 1.913 1.575 4.142 1.575 6.685 0 2.543-.525 4.772-1.575 6.685a11.248 11.248 0 01-4.445 4.48c-1.913 1.073-4.188 1.61-6.825 1.61zm0-6.265c1.68 0 2.917-.572 3.71-1.715.817-1.167 1.225-2.765 1.225-4.795s-.408-3.617-1.225-4.76c-.793-1.143-2.03-1.715-3.71-1.715-1.68 0-2.917.572-3.71 1.715-.77 1.12-1.155 2.707-1.155 4.76s.385 3.652 1.155 4.795c.793 1.143 2.03 1.715 3.71 1.715zM32.536 35V10.325H52.03v5.67H39.71v3.57h5.985c2.776 0 4.97.677 6.58 2.03 1.61 1.33 2.415 3.22 2.415 5.67 0 2.473-.805 4.387-2.415 5.74-1.61 1.33-3.804 1.995-6.58 1.995h-13.16zm7.175-5.565h4.935c1.073 0 1.831-.175 2.275-.525.467-.373.7-.922.7-1.645s-.233-1.26-.7-1.61c-.444-.35-1.202-.525-2.275-.525H39.71v4.305zM62.738 35V16.345h-6.895v-6.02h14.385v9.24h5.635c2.776 0 4.97.677 6.58 2.03 1.633 1.33 2.45 3.22 2.45 5.67 0 2.473-.817 4.387-2.45 5.74-1.61 1.33-3.803 1.995-6.58 1.995H62.738zm7.49-5.565h4.62c1.073 0 1.832-.175 2.275-.525.443-.373.665-.922.665-1.645s-.222-1.26-.665-1.61c-.444-.373-1.202-.56-2.275-.56h-4.62v4.34zM87.668 35V10.325h18.305v5.74H94.878V19.6h10.255v5.74H94.878v3.92h11.095V35H87.668zm19.579 6.3V29.33h2.59c1.913-2.38 2.87-6.51 2.87-12.39v-6.615h19.88V29.33h3.605V41.3h-6.44V35h-16.065v6.3h-6.44zm9.975-11.97h7.875V15.995h-5.53v1.785c0 5.18-.782 9.03-2.345 11.55zM139.006 35V10.325h7v12.81l10.43-12.81h5.495V35h-7V22.19L144.501 35h-5.495zm27.002 0V10.325h7.56v9.1h8.435v-9.1h7.56V35h-7.56v-9.415h-8.435V35h-7.56zm26.077 0l3.815-6.685c.816-1.377 1.878-2.263 3.185-2.66-1.82-.49-3.209-1.377-4.165-2.66-.957-1.307-1.435-2.905-1.435-4.795 0-2.45.793-4.375 2.38-5.775 1.586-1.4 3.826-2.1 6.72-2.1h12.81V35h-7.49v-8.82h-1.12c-.957 0-1.645.35-2.065 1.05L200.31 35h-8.225zm11.83-14.035h3.99v-4.97h-3.99c-2.217 0-3.325.828-3.325 2.485s1.108 2.485 3.325 2.485zM219.465 35V10.325h18.305v5.74h-11.095V19.6h10.255v5.74h-10.255v3.92h11.095V35h-18.305zm21.399 0V10.325h6.58l6.895 15.435 6.895-15.435h6.58V35h-6.825v-9.765L256.369 35h-4.165l-4.515-9.555V35h-6.825zm47.055 0V16.415h-7.14v-6.09h21.84v6.09h-7.14V35h-7.56zm10.801 0l11.725-24.675h6.125L328.365 35h-7.56l-2.03-4.585h-10.5L306.245 35h-7.525zm14.77-16.975l-2.8 6.685h5.775l-2.8-6.685h-.175zM331.246 35.7l-3.78-5.25c1.33-.793 2.391-1.727 3.185-2.8.816-1.073 1.4-2.392 1.75-3.955.35-1.563.525-3.442.525-5.635v-7.735h19.915V35h-7.49V16.345h-5.53v3.57c0 3.943-.77 7.245-2.31 9.905-1.517 2.66-3.605 4.62-6.265 5.88zm22.435-.7l11.725-24.675h6.125L383.326 35h-7.56l-2.03-4.585h-10.5L361.206 35h-7.525zm14.77-16.975l-2.8 6.685h5.775l-2.8-6.685h-.175zM384.176 35V10.325h7.56v9.1h8.435v-9.1h7.56V35h-7.56v-9.415h-8.435V35h-7.56zm33.148 0V16.415h-7.14v-6.09h21.84v6.09h-7.14V35h-7.56zm18.853.7l-3.78-5.25c1.33-.793 2.392-1.727 3.185-2.8.817-1.073 1.4-2.392 1.75-3.955.35-1.563.525-3.442.525-5.635v-7.735h19.915V35h-7.49V16.345h-5.53v3.57c0 3.943-.77 7.245-2.31 9.905-1.516 2.66-3.605 4.62-6.265 5.88zm25.656-.7V10.325h7v12.81l10.43-12.81h5.495V35h-7V22.19L467.328 35h-5.495zm27.002 0V10.325h12.635c2.776 0 4.911.583 6.405 1.75 1.516 1.143 2.275 2.683 2.275 4.62 0 1.26-.327 2.368-.98 3.325-.63.933-1.517 1.633-2.66 2.1 1.423.443 2.508 1.167 3.255 2.17.746.98 1.12 2.193 1.12 3.64 0 2.147-.817 3.862-2.45 5.145-1.634 1.283-3.839 1.925-6.615 1.925h-12.985zm7.21-15.26h3.99c1.026 0 1.761-.152 2.205-.455.466-.327.7-.84.7-1.54 0-.7-.234-1.202-.7-1.505-.444-.303-1.179-.455-2.205-.455h-3.99v3.955zm0 9.8h4.76c1.96 0 2.94-.723 2.94-2.17s-.98-2.17-2.94-2.17h-4.76v4.34zm19.8 5.46l3.955-7.63-10.57-17.045h7.91l6.23 10.36 5.32-10.36h7.735L523.615 35h-7.77zm44.869.42c-2.193 0-4.165-.408-5.915-1.225-1.75-.817-3.197-1.96-4.34-3.43-1.12-1.493-1.878-3.243-2.275-5.25h-3.29V35h-7.49V10.325h7.49v9.17h3.325c.42-1.96 1.202-3.652 2.345-5.075 1.143-1.447 2.578-2.555 4.305-3.325 1.727-.793 3.675-1.19 5.845-1.19 2.59 0 4.853.537 6.79 1.61a11.185 11.185 0 014.515 4.445c1.073 1.913 1.61 4.142 1.61 6.685 0 2.543-.548 4.783-1.645 6.72a11.418 11.418 0 01-4.515 4.48c-1.937 1.05-4.188 1.575-6.755 1.575zm.035-6.195c1.587 0 2.835-.583 3.745-1.75.91-1.167 1.365-2.777 1.365-4.83s-.455-3.652-1.365-4.795c-.91-1.167-2.158-1.75-3.745-1.75-1.587 0-2.835.572-3.745 1.715-.887 1.143-1.33 2.753-1.33 4.83 0 2.053.443 3.663 1.33 4.83.91 1.167 2.158 1.75 3.745 1.75z" fill="#fff"/><mask id="a" maskUnits="userSpaceOnUse" x="4" y="62" width="568" height="62" fill="#000"><path fill="#fff" d="M4 62h568v62H4z"/><path d="M5.263 113V75.282h10.058l10.54 23.594 10.54-23.594h10.057V113H36.026V98.073L28.964 113h-6.366l-6.902-14.606V113H5.263zm66.159.642c-3.995 0-7.455-.82-10.38-2.461-2.924-1.641-5.189-3.923-6.794-6.848-1.57-2.96-2.354-6.367-2.354-10.218 0-3.888.785-7.294 2.354-10.219 1.605-2.925 3.87-5.19 6.795-6.794 2.924-1.641 6.384-2.462 10.379-2.462 4.03 0 7.508.82 10.432 2.462 2.925 1.605 5.19 3.87 6.795 6.794 1.605 2.925 2.407 6.33 2.407 10.219 0 3.887-.802 7.293-2.407 10.218s-3.87 5.207-6.795 6.848c-2.924 1.641-6.402 2.461-10.432 2.461zm0-9.577c2.568 0 4.458-.873 5.67-2.621 1.249-1.783 1.873-4.227 1.873-7.33 0-3.103-.624-5.528-1.872-7.276-1.213-1.747-3.103-2.621-5.671-2.621s-4.459.874-5.671 2.621c-1.177 1.713-1.766 4.138-1.766 7.277 0 3.138.589 5.581 1.766 7.329 1.212 1.748 3.103 2.621 5.67 2.621zm27.797 10.005l-5.778-8.025c2.033-1.213 3.656-2.639 4.868-4.28 1.249-1.641 2.14-3.656 2.675-6.046.535-2.39.803-5.26.803-8.613V75.283h30.441V113h-11.449V84.484h-8.453v5.458c0 6.027-1.177 11.074-3.531 15.14-2.318 4.066-5.51 7.062-9.576 8.988zm57.834-.428c-3.995 0-7.454-.82-10.379-2.461s-5.189-3.923-6.794-6.848c-1.57-2.96-2.354-6.367-2.354-10.218 0-3.888.784-7.294 2.354-10.219 1.605-2.925 3.869-5.19 6.794-6.794 2.925-1.641 6.384-2.462 10.379-2.462 4.03 0 7.508.82 10.433 2.462 2.924 1.605 5.189 3.87 6.794 6.794 1.605 2.925 2.408 6.33 2.408 10.219 0 3.887-.803 7.293-2.408 10.218s-3.87 5.207-6.794 6.848c-2.925 1.641-6.403 2.461-10.433 2.461zm0-9.577c2.568 0 4.458-.873 5.671-2.621 1.248-1.783 1.873-4.227 1.873-7.33 0-3.103-.625-5.528-1.873-7.276-1.213-1.747-3.103-2.621-5.671-2.621s-4.458.874-5.671 2.621c-1.177 1.713-1.765 4.138-1.765 7.277 0 3.138.588 5.581 1.765 7.329 1.213 1.748 3.103 2.621 5.671 2.621zm21.289 18.565v-18.297h3.959c2.925-3.638 4.387-9.951 4.387-18.939V75.282h30.388v29.051h5.51v18.297h-9.844V113h-24.556v9.63h-9.844zm15.247-18.297h12.038V83.95h-8.453v2.728c0 7.918-1.195 13.803-3.585 17.655zM226.888 113V75.282h27.98v8.775h-16.959v5.403h15.675v8.774h-15.675v5.992h16.959V113h-27.98zm16.638-40.66v-9.042h8.988v9.042h-8.988zm-11.556 0v-9.042h8.988v9.042h-8.988zM255.852 113l7.009-14.017c.785-1.57 1.641-2.907 2.568-4.013a13.174 13.174 0 013.263-2.728l-10.967-16.96h12.465l8.828 14.606h1.872V75.282h10.968v14.606h1.926l8.72-14.606h12.466l-10.968 16.96a11.568 11.568 0 013.264 2.782c.963 1.106 1.837 2.425 2.621 3.959L316.842 113h-12.358l-4.869-10.433c-.57-1.248-1.301-2.14-2.193-2.674-.892-.535-2.122-.803-3.692-.803h-1.872V113H280.89V99.09h-1.872c-1.534 0-2.746.267-3.638.802-.892.535-1.641 1.427-2.247 2.675L268.211 113h-12.359zm99.292.642c-4.208 0-7.864-.802-10.967-2.407-3.068-1.641-5.457-3.924-7.169-6.849-1.677-2.924-2.515-6.348-2.515-10.271 0-3.924.838-7.33 2.515-10.219 1.712-2.925 4.101-5.19 7.169-6.794 3.103-1.641 6.759-2.462 10.967-2.462 2.568 0 4.922.34 7.062 1.017 2.176.642 3.977 1.57 5.404 2.782l-3.371 9.042c-1.605-1.07-3.049-1.802-4.333-2.194-1.284-.428-2.729-.642-4.334-.642-2.889 0-5.118.82-6.687 2.461-1.534 1.605-2.301 3.941-2.301 7.009 0 3.103.767 5.474 2.301 7.115 1.569 1.605 3.798 2.407 6.687 2.407 1.605 0 3.05-.196 4.334-.588 1.284-.428 2.728-1.177 4.333-2.247l3.371 9.041c-1.427 1.213-3.228 2.158-5.404 2.836-2.14.642-4.494.963-7.062.963zm24.814-.642V84.591h-10.914v-9.308h33.384v9.308h-10.914V113h-11.556zm26.238 0V75.282h19.474c4.459 0 7.811 1.106 10.058 3.318 2.247 2.175 3.371 5.118 3.371 8.827 0 3.674-1.124 6.616-3.371 8.827-2.247 2.212-5.599 3.317-10.058 3.317h-7.918V113h-11.556zm11.556-22.203h6.367c2.639 0 3.959-1.123 3.959-3.37s-1.32-3.37-3.959-3.37h-6.367v6.74zM434.398 113l17.923-37.718h9.362L479.713 113h-11.556l-3.103-7.009h-16.05L445.901 113h-11.503zm22.577-25.948l-4.28 10.219h8.828l-4.28-10.219h-.268zM481.013 113V75.282h11.556v13.91h12.893v-13.91h11.556V113h-11.556V98.609h-12.893V113h-11.556zm42.215 0V75.282h11.449v14.124h7.008c4.244 0 7.597 1.035 10.058 3.103 2.461 2.034 3.692 4.922 3.692 8.667 0 3.781-1.231 6.706-3.692 8.774-2.461 2.033-5.814 3.05-10.058 3.05h-18.457zm36.166 0V75.282h11.449V113h-11.449zm-24.717-8.507h5.403c1.641 0 2.8-.267 3.478-.802.713-.571 1.07-1.409 1.07-2.515 0-1.105-.357-1.925-1.07-2.46-.678-.571-1.837-.856-3.478-.856h-5.403v6.633z"/></mask><path d="M5.263 113h-1v1h1v-1zm0-37.718v-1h-1v1h1zm10.058 0l.914-.407-.265-.593h-.649v1zm10.54 23.594l-.913.408.913 2.044.913-2.044-.913-.408zm10.54-23.594v-1h-.649l-.265.593.913.407zm10.057 0h1v-1h-1v1zm0 37.718v1h1v-1h-1zm-10.432 0h-1v1h1v-1zm0-14.927h1l-1.904-.427.904.427zM28.964 113v1h.633l.27-.572-.903-.428zm-6.366 0l-.905.427.271.573h.634v-1zm-6.902-14.606l.904-.427-1.904.427h1zm0 14.606v1h1v-1h-1zm-9.433 0V75.282h-2V113h2zm-1-36.718h10.058v-2H5.264v2zm9.145-.592l10.54 23.594 1.826-.816-10.54-23.593-1.826.815zm12.366 23.594l10.54-23.594-1.827-.815-10.539 23.593 1.826.816zm9.627-23.002h10.057v-2H36.401v2zm9.057-1V113h2V75.282h-2zm1 36.718H36.026v2h10.432v-2zm-9.432 1V98.073h-2V113h2zm-1.904-15.354l-7.062 14.926 1.808.856 7.062-14.927-1.808-.855zM28.964 112h-6.366v2h6.366v-2zm-5.462.573L16.6 97.967l-1.808.855 6.901 14.605 1.809-.854zm-8.806-14.178V113h2V98.394h-2zm1 13.605H5.263v2h10.433v-2zm45.347-.819l.489-.872-.49.872zm-6.795-6.848l-.883.468.003.007.003.006.877-.481zm0-20.437l-.877-.481-.004.008.881.473zm6.795-6.794l.48.876.009-.004-.49-.873zm20.811 0l-.49.872.01.004.48-.876zm6.795 27.231l.876.481-.876-.481zm-6.795 6.848l-.49-.872.49.872zm-4.761-9.737l-.82-.573-.002.003.822.57zm0-14.606l-.822.57.008.012.814-.582zm-11.342 0l-.822-.57-.002.004.824.566zm0 14.606l-.83.559.008.011.822-.57zm5.67 11.198c-3.855 0-7.14-.791-9.89-2.333l-.978 1.744c3.1 1.739 6.736 2.589 10.869 2.589v-2zm-9.89-2.333c-2.761-1.55-4.892-3.697-6.406-6.457l-1.754.962c1.696 3.09 4.096 5.507 7.182 7.239l.979-1.744zm-6.4-6.444c-1.481-2.796-2.237-6.037-2.237-9.75h-2c0 3.99.814 7.561 2.47 10.686l1.768-.936zm-2.237-9.75c0-3.751.756-6.99 2.235-9.746l-1.762-.946c-1.66 3.093-2.473 6.667-2.473 10.692h2zm2.23-9.738c1.514-2.758 3.642-4.885 6.4-6.399l-.962-1.753c-3.092 1.696-5.494 4.098-7.19 7.19l1.753.962zm6.408-6.403c2.749-1.543 6.034-2.334 9.89-2.334v-2c-4.133 0-7.768.85-10.869 2.59l.979 1.744zm9.89-2.334c3.893 0 7.195.792 9.943 2.334l.978-1.745c-3.101-1.74-6.754-2.588-10.921-2.588v2zm9.951 2.338c2.758 1.514 4.886 3.641 6.399 6.4l1.753-.963c-1.696-3.092-4.098-5.494-7.19-7.19l-.962 1.753zm6.399 6.4c1.512 2.754 2.284 5.99 2.284 9.737h2c0-4.028-.832-7.605-2.53-10.7l-1.754.962zm2.284 9.737c0 3.747-.772 6.982-2.284 9.737l1.753.962c1.699-3.095 2.531-6.672 2.531-10.7h-2zm-2.284 9.737c-1.515 2.76-3.645 4.907-6.407 6.457l.978 1.744c3.087-1.732 5.487-4.149 7.182-7.239l-1.753-.962zm-6.407 6.457c-2.748 1.541-6.05 2.333-9.943 2.333v2c4.167 0 7.82-.849 10.921-2.589l-.978-1.744zm-9.943-5.244c2.818 0 5.053-.976 6.492-3.051l-1.643-1.14c-.986 1.42-2.532 2.191-4.85 2.191v2zm6.49-3.048c1.406-2.009 2.053-4.678 2.053-7.902h-2c0 2.981-.601 5.198-1.692 6.756l1.639 1.146zm2.053-7.902c0-3.223-.646-5.88-2.059-7.858L76.28 87.42c1.084 1.517 1.686 3.711 1.686 6.695h2zm-2.05-7.847c-1.44-2.074-3.675-3.051-6.493-3.051v2c2.317 0 3.863.771 4.85 2.192l1.642-1.14zm-6.493-3.051c-2.819 0-5.053.977-6.493 3.051l1.643 1.14c.986-1.42 2.532-2.191 4.85-2.191v-2zm-6.495 3.055c-1.337 1.944-1.942 4.599-1.942 7.843h2c0-3.034.572-5.23 1.59-6.71l-1.648-1.133zm-1.942 7.843c0 3.245.606 5.912 1.936 7.888l1.66-1.118c-1.025-1.52-1.596-3.74-1.596-6.77h-2zm1.944 7.899c1.44 2.075 3.674 3.051 6.493 3.051v-2c-2.318 0-3.864-.771-4.85-2.191l-1.643 1.14zm34.29 12.056l-.812.584.487.676.753-.356-.428-.904zm-5.778-8.025l-.513-.859-.936.559.637.884.812-.584zm4.868-4.28l-.796-.606-.008.012.804.594zm3.478-26.483v-1h-1v1h1zm30.441 0h1v-1h-1v1zm0 37.718v1h1v-1h-1zm-11.449 0h-1v1h1v-1zm0-28.516h1v-1h-1v1zm-8.453 0v-1h-1v1h1zm-3.531 20.598l-.865-.501-.004.006.869.495zm-8.765 8.404l-5.778-8.025-1.623 1.168 5.778 8.025 1.623-1.168zm-6.077-6.582c2.129-1.27 3.857-2.782 5.16-4.545l-1.608-1.188c-1.122 1.518-2.64 2.86-4.577 4.015l1.025 1.718zm5.152-4.533c1.35-1.775 2.294-3.929 2.855-6.433l-1.952-.437c-.509 2.275-1.348 4.152-2.495 5.658l1.592 1.212zm2.855-6.433c.556-2.482.827-5.43.827-8.832h-2c0 3.304-.264 6.098-.779 8.395l1.952.437zm.827-8.832V75.283h-2v11.823h2zm-1-10.823h30.441v-2h-30.441v2zm29.441-1V113h2V75.282h-2zm1 36.717h-11.449v2h11.449v-2zm-10.449 1V84.484h-2V113h2zm-1-29.516h-8.453v2h8.453v-2zm-9.453 1v5.458h2v-5.457h-2zm0 5.458c0 5.9-1.152 10.763-3.396 14.639l1.731 1.002c2.463-4.256 3.665-9.487 3.665-15.641h-2zm-3.4 14.645c-2.221 3.895-5.262 6.745-9.135 8.579l.856 1.808c4.259-2.018 7.601-5.16 10.017-9.397l-1.738-.99zm38.748 6.594l.489-.872-.489.872zm-6.794-6.848l-.884.468.003.007.004.006.877-.481zm0-20.437l-.877-.481-.005.008.882.473zm6.794-6.794l.481.876.008-.004-.489-.873zm20.812 0l-.49.872.008.004.482-.876zm6.794 27.231l.877.481-.877-.481zm-6.794 6.848l-.49-.872.49.872zm-4.762-9.737l-.819-.573-.003.003.822.57zm0-14.606l-.822.57.008.012.814-.582zm-11.342 0l-.822-.57-.002.004.824.566zm0 14.606l-.829.559.007.011.822-.57zm5.671 11.198c-3.856 0-7.141-.791-9.89-2.333l-.978 1.744c3.1 1.739 6.735 2.589 10.868 2.589v-2zm-9.89-2.333c-2.762-1.55-4.892-3.697-6.407-6.457l-1.753.962c1.695 3.09 4.095 5.507 7.182 7.239l.978-1.744zm-6.4-6.444c-1.482-2.796-2.237-6.037-2.237-9.75h-2c0 3.99.813 7.561 2.47 10.686l1.767-.936zm-2.237-9.75c0-3.751.756-6.99 2.235-9.746l-1.763-.946c-1.659 3.093-2.472 6.667-2.472 10.692h2zm2.23-9.738c1.514-2.758 3.641-4.885 6.399-6.399l-.962-1.753c-3.092 1.696-5.494 4.098-7.19 7.19l1.753.962zm6.407-6.403c2.749-1.543 6.034-2.334 9.89-2.334v-2c-4.133 0-7.768.85-10.868 2.59l.978 1.744zm9.89-2.334c3.894 0 7.196.792 9.943 2.334l.979-1.745c-3.102-1.74-6.755-2.588-10.922-2.588v2zm9.951 2.338c2.758 1.514 4.886 3.641 6.399 6.4l1.754-.963c-1.697-3.092-4.099-5.494-7.19-7.19l-.963 1.753zm6.399 6.4c1.512 2.754 2.285 5.99 2.285 9.737h2c0-4.028-.833-7.605-2.531-10.7l-1.754.962zm2.285 9.737c0 3.747-.773 6.982-2.285 9.737l1.754.962c1.698-3.095 2.531-6.672 2.531-10.7h-2zm-2.285 9.737c-1.514 2.76-3.644 4.907-6.407 6.457l.979 1.744c3.087-1.732 5.486-4.149 7.182-7.239l-1.754-.962zm-6.407 6.457c-2.747 1.541-6.049 2.333-9.943 2.333v2c4.167 0 7.82-.849 10.922-2.589l-.979-1.744zm-9.943-5.244c2.818 0 5.053-.976 6.493-3.051l-1.644-1.14c-.985 1.42-2.531 2.191-4.849 2.191v2zm6.49-3.048c1.407-2.009 2.054-4.678 2.054-7.902h-2c0 2.981-.602 5.198-1.692 6.756l1.638 1.146zm2.054-7.902c0-3.223-.647-5.88-2.059-7.858l-1.628 1.163c1.084 1.517 1.687 3.711 1.687 6.695h2zm-2.051-7.847c-1.44-2.074-3.675-3.051-6.493-3.051v2c2.318 0 3.864.771 4.849 2.192l1.644-1.14zm-6.493-3.051c-2.818 0-5.053.977-6.493 3.051l1.644 1.14c.985-1.42 2.531-2.191 4.849-2.191v-2zm-6.495 3.055c-1.336 1.944-1.941 4.599-1.941 7.843h2c0-3.034.571-5.23 1.589-6.71l-1.648-1.133zm-1.941 7.843c0 3.245.605 5.912 1.936 7.888l1.658-1.118c-1.023-1.52-1.594-3.74-1.594-6.77h-2zm1.943 7.899c1.44 2.075 3.675 3.051 6.493 3.051v-2c-2.318 0-3.864-.771-4.849-2.191l-1.644 1.14zm27.782 20.616h-1v1h1v-1zm0-18.297v-1h-1v1h1zm3.959 0v1h.479l.3-.373-.779-.627zm4.387-29.05v-1h-1v1h1zm30.388 0h1v-1h-1v1zm0 29.05h-1v1h1v-1zm5.51 0h1v-1h-1v1zm0 18.297v1h1v-1h-1zm-9.844 0h-1v1h1v-1zm0-9.63h1v-1h-1v1zm-24.556 0v-1h-1v1h1zm0 9.63v1h1v-1h-1zm5.403-18.297l-.849-.527-.948 1.527h1.797v-1zm12.038 0v1h1v-1h-1zm0-20.383h1v-1h-1v1zm-8.453 0v-1h-1v1h1zm-17.832 38.68v-18.297h-2v18.297h2zm-1-17.297h3.959v-2h-3.959v2zm4.738-.373c3.15-3.919 4.608-10.531 4.608-19.566h-2c0 8.941-1.467 14.955-4.167 18.312l1.559 1.254zm4.608-19.566V75.282h-2v10.112h2zm-1-9.112h30.388v-2h-30.388v2zm29.388-1v29.051h2v-29.05h-2zm1 30.051h5.51v-2h-5.51v2zm4.51-1v18.297h2v-18.297h-2zm1 17.297h-9.844v2h9.844v-2zm-8.844 1V113h-2v9.63h2zm-1-10.63h-24.556v2h24.556v-2zm-25.556 1v9.63h2V113h-2zm1 8.63h-9.844v2h9.844v-2zm5.403-16.297h12.038v-2h-12.038v2zm13.038-1V83.95h-2v20.383h2zm-1-21.383h-8.453v2h8.453v-2zm-9.453 1v2.728h2V83.95h-2zm0 2.728c0 7.853-1.192 13.513-3.434 17.128l1.699 1.054c2.537-4.089 3.735-10.2 3.735-18.182h-2zM226.888 113h-1v1h1v-1zm0-37.718v-1h-1v1h1zm27.98 0h1v-1h-1v1zm0 8.775v1h1v-1h-1zm-16.959 0v-1h-1v1h1zm0 5.403h-1v1h1v-1zm15.675 0h1v-1h-1v1zm0 8.774v1h1v-1h-1zm-15.675 0v-1h-1v1h1zm0 5.992h-1v1h1v-1zm16.959 0h1v-1h-1v1zm0 8.774v1h1v-1h-1zm-11.342-40.66h-1v1h1v-1zm0-9.042v-1h-1v1h1zm8.988 0h1v-1h-1v1zm0 9.042v1h1v-1h-1zm-20.544 0h-1v1h1v-1zm0-9.042v-1h-1v1h1zm8.988 0h1v-1h-1v1zm0 9.042v1h1v-1h-1zM227.888 113V75.282h-2V113h2zm-1-36.718h27.98v-2h-27.98v2zm26.98-1v8.775h2v-8.775h-2zm1 7.775h-16.959v2h16.959v-2zm-17.959 1v5.403h2v-5.403h-2zm1 6.403h15.675v-2h-15.675v2zm14.675-1v8.774h2V89.46h-2zm1 7.774h-15.675v2h15.675v-2zm-16.675 1v5.992h2v-5.992h-2zm1 6.992h16.959v-2h-16.959v2zm15.959-1V113h2v-8.774h-2zm1 7.774h-27.98v2h27.98v-2zm-10.342-39.66v-9.042h-2v9.042h2zm-1-8.041h8.988v-2h-8.988v2zm7.988-1v9.041h2v-9.042h-2zm1 8.041h-8.988v2h8.988v-2zm-19.544 1v-9.042h-2v9.042h2zm-1-8.041h8.988v-2h-8.988v2zm7.988-1v9.041h2v-9.042h-2zm1 8.041h-8.988v2h8.988v-2zM255.852 113l-.894-.447-.724 1.447h1.618v-1zm7.009-14.017l-.894-.447.894.447zm2.568-4.013l-.754-.656-.006.007-.006.007.766.642zm3.263-2.728l.507.862.9-.529-.567-.876-.84.543zm-10.967-16.96v-1h-1.838l.998 1.544.84-.543zm12.465 0l.856-.517-.291-.483h-.565v1zm8.828 14.606l-.856.517.292.483h.564v-1zm1.872 0v1h1v-1h-1zm0-14.606v-1h-1v1h1zm10.968 0h1v-1h-1v1zm0 14.606h-1v1h1v-1zm1.926 0v1h.568l.291-.487-.859-.513zm8.72-14.606v-1h-.567l-.291.488.858.513zm12.466 0l.84.544.998-1.543h-1.838v1zm-10.968 16.96l-.839-.543-.574.887.917.524.496-.868zm3.264 2.782l-.776.63.011.014.011.013.754-.657zm2.621 3.959l.896-.445-.005-.01-.891.455zM316.842 113v1h1.613l-.717-1.444-.896.444zm-12.358 0l-.906.423.269.577h.637v-1zm-4.869-10.432l-.909.415.003.007.906-.422zm-2.193-2.675l-.514.857.514-.858zm-5.564-.803v-1h-1v1h1zm0 13.91v1h1v-1h-1zm-10.968 0h-1v1h1v-1zm0-13.91h1v-1h-1v1zm-5.51.802l-.515-.857.515.858zm-2.247 2.676l-.9-.437-.004.01.904.427zM268.211 113v1h.634l.27-.573-.904-.427zm-11.464.447l7.008-14.017-1.788-.894-7.009 14.017 1.789.894zm7.008-14.017c.757-1.514 1.572-2.782 2.44-3.817l-1.532-1.285c-.987 1.177-1.884 2.583-2.696 4.208l1.788.894zm2.428-3.803a12.177 12.177 0 013.016-2.523l-1.014-1.724a14.174 14.174 0 00-3.51 2.934l1.508 1.313zm3.349-3.928l-10.967-16.96-1.68 1.087 10.968 16.959 1.679-1.086zm-11.807-15.416h12.465v-2h-12.465v2zm11.61-.483l8.827 14.605 1.712-1.034-8.828-14.606-1.711 1.035zm9.683 15.088h1.872v-2h-1.872v2zm2.872-1V75.282h-2v14.606h2zm-1-13.606h10.968v-2H280.89v2zm9.968-1v14.606h2V75.282h-2zm1 15.606h1.926v-2h-1.926v2zm2.785-.487l8.72-14.606-1.717-1.025-8.721 14.605 1.718 1.026zm7.861-14.118h12.466v-2h-12.466v2zm11.626-1.543l-10.967 16.959 1.679 1.086 10.968-16.96-1.68-1.085zm-10.624 18.37a10.573 10.573 0 012.984 2.545l1.552-1.262a12.573 12.573 0 00-3.543-3.02l-.993 1.737zm3.006 2.57c.901 1.036 1.731 2.285 2.485 3.758l1.781-.91c-.816-1.594-1.733-2.984-2.758-4.16l-1.508 1.313zm2.48 3.747l6.955 14.017 1.791-.888-6.955-14.017-1.791.888zm7.85 12.573h-12.358v2h12.358v-2zm-11.452.577l-4.868-10.432-1.813.845 4.869 10.433 1.812-.846zm-4.865-10.425c-.628-1.374-1.476-2.45-2.589-3.117l-1.028 1.715c.67.402 1.285 1.111 1.798 2.233l1.819-.831zm-2.589-3.117c-1.106-.664-2.54-.945-4.206-.945v2c1.474 0 2.501.254 3.178.66l1.028-1.715zm-4.206-.945h-1.872v2h1.872v-2zm-2.872 1V113h2V99.09h-2zm1 12.91H280.89v2h10.968v-2zm-9.968 1V99.09h-2V113h2zm-1-14.91h-1.872v2h1.872v-2zm-1.872 0c-1.634 0-3.048.283-4.153.945l1.029 1.715c.68-.408 1.691-.66 3.124-.66v-2zm-4.153.945c-1.105.663-1.968 1.73-2.632 3.096l1.8.873c.549-1.13 1.183-1.847 1.861-2.254l-1.029-1.715zm-2.636 3.106l-4.922 10.432 1.808.854 4.922-10.433-1.808-.853zM268.211 112h-12.359v2h12.359v-2zm75.966-.765l-.472.881.012.007.46-.888zm-7.169-6.849l-.868.498.005.008.863-.506zm0-20.49l-.863-.505-.002.003.865.502zm7.169-6.794l.463.885.004-.001-.467-.885zm18.029-1.445l-.302.953.01.003.009.003.283-.959zm5.404 2.782l.937.35.245-.658-.535-.454-.647.762zm-3.371 9.042l-.554.832 1.05.7.441-1.183-.937-.35zm-4.333-2.194l-.316.949.012.004.012.003.292-.956zm-11.021 1.819l-.723-.691.723.691zm0 14.124l-.731.683.008.008.008.008.715-.699zm11.021 1.819l.292.956.012-.003.012-.004-.316-.949zm4.333-2.247l.937-.349-.441-1.184-1.05.7.554.833zm3.371 9.041l.647.762.535-.454-.245-.657-.937.349zm-5.404 2.836l.288.958.01-.003-.298-.955zm-7.062-.037c-4.081 0-7.573-.778-10.508-2.296l-.919 1.777c3.272 1.692 7.091 2.519 11.427 2.519v-2zm-10.496-2.289c-2.909-1.556-5.161-3.711-6.777-6.472l-1.726 1.011c1.808 3.088 4.335 5.499 7.56 7.224l.943-1.763zm-6.773-6.464c-1.576-2.75-2.382-5.997-2.382-9.774h-2c0 4.068.871 7.67 2.647 10.769l1.735-.995zm-2.382-9.774c0-3.779.806-7.005 2.38-9.717l-1.73-1.004c-1.779 3.066-2.65 6.652-2.65 10.72h2zm2.378-9.714c1.615-2.759 3.865-4.894 6.769-6.413l-.927-1.772c-3.23 1.69-5.759 4.085-7.568 7.175l1.726 1.01zm6.773-6.415c2.933-1.551 6.422-2.346 10.5-2.346v-2c-4.339 0-8.162.847-11.435 2.578l.935 1.767zm10.5-2.346c2.48 0 4.731.328 6.76.97l.604-1.906c-2.25-.713-4.708-1.063-7.364-1.063v2zm6.779.976c2.07.61 3.739 1.48 5.039 2.585l1.295-1.524c-1.553-1.32-3.486-2.306-5.768-2.98l-.566 1.92zm4.75 1.474l-3.371 9.041 1.874.699 3.371-9.042-1.874-.698zm-1.879 8.558c-1.654-1.102-3.188-1.887-4.596-2.317l-.584 1.912c1.16.355 2.514 1.032 4.071 2.07l1.109-1.665zm-4.572-2.31c-1.403-.467-2.957-.693-4.65-.693v2c1.517 0 2.852.202 4.018.59l.632-1.897zm-4.65-.693c-3.083 0-5.604.882-7.41 2.77l1.445 1.382c1.333-1.393 3.271-2.152 5.965-2.152v-2zm-7.41 2.77c-1.77 1.852-2.578 4.474-2.578 7.7h2c0-2.91.726-4.96 2.024-6.318l-1.446-1.382zm-2.578 7.7c0 3.258.807 5.911 2.57 7.798l1.461-1.366c-1.303-1.394-2.031-3.485-2.031-6.432h-2zm2.586 7.814c1.807 1.849 4.325 2.709 7.402 2.709v-2c-2.701 0-4.641-.746-5.972-2.107l-1.43 1.398zm7.402 2.709c1.686 0 3.231-.206 4.626-.633l-.584-1.912c-1.173.358-2.517.545-4.042.545v2zm4.65-.64c1.396-.466 2.922-1.264 4.572-2.364l-1.109-1.664c-1.56 1.04-2.923 1.74-4.095 2.13l.632 1.898zm3.08-2.847l3.371 9.042 1.874-.699-3.371-9.041-1.874.698zm3.66 7.931c-1.304 1.108-2.979 1.996-5.053 2.642l.595 1.91c2.277-.709 4.205-1.712 5.753-3.029l-1.295-1.523zm-5.043 2.639c-2.034.61-4.29.921-6.775.921v2c2.651 0 5.104-.331 7.35-1.005l-.575-1.916zM379.958 113h-1v1h1v-1zm0-28.409h1v-1h-1v1zm-10.914 0h-1v1h1v-1zm0-9.308v-1h-1v1h1zm33.384 0h1v-1h-1v1zm0 9.308v1h1v-1h-1zm-10.914 0v-1h-1v1h1zm0 28.409v1h1v-1h-1zm-10.556 0V84.591h-2V113h2zm-1-29.409h-10.914v2h10.914v-2zm-9.914 1v-9.308h-2v9.308h2zm-1-8.308h33.384v-2h-33.384v2zm32.384-1v9.308h2v-9.308h-2zm1 8.308h-10.914v2h10.914v-2zm-11.914 1V113h2V84.591h-2zm1 27.409h-11.556v2h11.556v-2zm14.682 1h-1v1h1v-1zm0-37.718v-1h-1v1h1zm29.532 3.318l-.701.712.006.006.695-.718zm0 17.654l-.701-.712.701.712zm-17.976 3.317v-1h-1v1h1zm0 13.429v1h1v-1h-1zm0-22.203h-1v1h1v-1zm0-6.74v-1h-1v1h1zM407.196 113V75.282h-2V113h2zm-1-36.718h19.474v-2h-19.474v2zm19.474 0c4.306 0 7.363 1.068 9.357 3.03l1.403-1.425c-2.5-2.46-6.149-3.605-10.76-3.605v2zm9.363 3.036c2.016 1.953 3.066 4.616 3.066 8.109h2c0-3.926-1.198-7.147-3.675-9.546l-1.391 1.437zm3.066 8.109c0 3.454-1.048 6.123-3.072 8.115l1.403 1.425c2.469-2.43 3.669-5.646 3.669-9.54h-2zm-3.072 8.115c-1.994 1.962-5.051 3.03-9.357 3.03v1.999c4.611 0 8.26-1.144 10.76-3.604l-1.403-1.425zm-9.357 3.03h-7.918v1.999h7.918v-2zm-8.918 1V113h2V99.572h-2zm1 12.428h-11.556v2h11.556v-2zm0-20.203h6.367v-2h-6.367v2zm6.367 0c1.438 0 2.703-.302 3.617-1.08.946-.805 1.342-1.966 1.342-3.29h-2c0 .923-.264 1.448-.638 1.766-.405.345-1.12.605-2.321.605v2zm4.959-4.37c0-1.324-.396-2.485-1.342-3.29-.914-.778-2.179-1.08-3.617-1.08v2c1.201 0 1.916.259 2.321.604.374.318.638.843.638 1.766h2zm-4.959-4.37h-6.367v2h6.367v-2zm-7.367 1v6.74h2v-6.74h-2zM434.398 113l-.903-.429-.679 1.429h1.582v-1zm17.923-37.718v-1h-.632l-.271.571.903.43zm9.362 0l.903-.43-.272-.57h-.631v1zM479.713 113v1h1.586l-.684-1.431-.902.431zm-11.556 0l-.915.405.264.595h.651v-1zm-3.103-7.008l.914-.405-.263-.595h-.651v1zm-16.05 0v-1h-.651l-.264.595.915.405zM445.901 113v1h.651l.263-.595-.914-.405zm11.074-25.948v-1h-.665l-.257.614.922.386zm-4.28 10.219l-.922-.386-.581 1.386h1.503v-1zm8.828 0v1h1.503l-.581-1.386-.922.386zm-4.28-10.219l.922-.386-.257-.614h-.665v1zm-21.941 26.377l17.922-37.717-1.806-.859-17.923 37.718 1.807.858zm17.019-37.147h9.362v-2h-9.362v2zm8.46-.568l18.03 37.717 1.804-.862-18.029-37.718-1.805.863zM479.713 112h-11.556v2h11.556v-2zm-10.642.595l-3.103-7.008-1.829.809 3.103 7.009 1.829-.81zm-4.017-7.603h-16.05v2h16.05v-2zm-16.965.595l-3.103 7.008 1.829.81 3.103-7.009-1.829-.809zM445.901 112h-11.503v2h11.503v-2zm10.152-25.334l-4.28 10.219 1.845.772 4.28-10.218-1.845-.773zm-3.358 11.605h8.828v-2h-8.828v2zm9.75-1.386l-4.28-10.219-1.845.773 4.28 10.218 1.845-.772zm-5.202-10.833h-.268v2h.268v-2zM481.013 113h-1v1h1v-1zm0-37.718v-1h-1v1h1zm11.556 0h1v-1h-1v1zm0 13.91h-1v1h1v-1zm12.893 0v1h1v-1h-1zm0-13.91v-1h-1v1h1zm11.556 0h1v-1h-1v1zm0 37.718v1h1v-1h-1zm-11.556 0h-1v1h1v-1zm0-14.391h1v-1h-1v1zm-12.893 0v-1h-1v1h1zm0 14.391v1h1v-1h-1zm-10.556 0V75.282h-2V113h2zm-1-36.718h11.556v-2h-11.556v2zm10.556-1v13.91h2v-13.91h-2zm1 14.91h12.893v-2h-12.893v2zm13.893-1v-13.91h-2v13.91h2zm-1-12.91h11.556v-2h-11.556v2zm10.556-1V113h2V75.282h-2zm1 36.718h-11.556v2h11.556v-2zm-10.556 1V98.609h-2V113h2zm-1-15.391h-12.893v2h12.893v-2zm-13.893 1V113h2V98.609h-2zm1 13.391h-11.556v2h11.556v-2zm30.659 1h-1v1h1v-1zm0-37.718v-1h-1v1h1zm11.449 0h1v-1h-1v1zm0 14.124h-1v1h1v-1zm17.066 3.103l-.643.766.006.005.637-.77zm0 17.442l.637.77.006-.005-.643-.765zm7.65 3.049h-1v1h1v-1zm0-37.718v-1h-1v1h1zm11.45 0h1v-1h-1v1zm0 37.718v1h1v-1h-1zm-36.166-8.507h-1v1h1v-1zm8.88-.802l.62.785.005-.004-.625-.781zm0-4.975l-.644.764.022.019.023.017.599-.8zm-8.88-.856v-1h-1v1h1zM524.228 113V75.282h-2V113h2zm-1-36.718h11.449v-2h-11.449v2zm10.449-1v14.124h2V75.282h-2zm1 15.124h7.008v-2h-7.008v2zm7.008 0c4.085 0 7.185.994 9.415 2.869l1.286-1.531c-2.692-2.263-6.297-3.338-10.701-3.338v2zm9.421 2.874c2.19 1.81 3.329 4.392 3.329 7.896h2c0-3.985-1.323-7.18-4.055-9.438l-1.274 1.543zm3.329 7.896c0 3.543-1.141 6.165-3.335 8.009l1.286 1.531c2.728-2.293 4.049-5.521 4.049-9.54h-2zm-3.329 8.004c-2.23 1.842-5.332 2.82-9.421 2.82v2c4.4 0 8.003-1.055 10.695-3.279l-1.274-1.541zm-9.421 2.82h-18.457v2h18.457v-2zm18.708 1V75.282h-2V113h2zm-1-36.718h11.45v-2h-11.45v2zm10.45-1V113h2V75.282h-2zm1 36.718h-11.45v2h11.45v-2zm-36.166-6.507h5.403v-2h-5.403v2zm5.403 0c1.691 0 3.143-.264 4.097-1.017l-1.239-1.57c-.401.317-1.268.587-2.858.587v2zm4.102-1.021c1.001-.801 1.446-1.957 1.446-3.296h-2c0 .873-.269 1.393-.695 1.734l1.249 1.562zm1.446-3.296c0-1.336-.445-2.491-1.47-3.26l-1.2 1.6c.401.3.67.786.67 1.66h2zm-1.426-3.225c-.958-.807-2.422-1.091-4.122-1.091v2c1.582 0 2.436.286 2.833.62l1.289-1.53zm-4.122-1.091h-5.403v2h5.403v-2zm-6.403 1v6.633h2V97.86h-2z" fill="#fff" mask="url(#a)"/><path d="M7.32 176l3.955-7.63-10.57-17.045h7.91l6.23 10.36 5.32-10.36H27.9L15.09 176H7.32zm21.559 0v-24.675h7.56v9.1h8.435v-9.1h7.56V176h-7.56v-9.415h-8.435V176h-7.56zm27.617 0v-24.675h7v12.81l10.43-12.81h5.495V176h-7v-12.81L61.99 176h-5.495zm27.002 0v-24.675h7.49v9.555h2.03l5.74-9.555h8.155l-7.175 11.095a7.872 7.872 0 012.135 1.785c.63.723 1.201 1.598 1.715 2.625l4.55 9.17h-8.12l-3.15-6.825c-.374-.817-.864-1.4-1.47-1.75-.584-.35-1.389-.525-2.415-.525h-1.995v9.1h-7.49zm22.791 0l11.725-24.675h6.125L135.934 176h-7.56l-2.03-4.585h-10.5l-2.03 4.585h-7.525zm14.77-16.975l-2.8 6.685h5.775l-2.8-6.685h-.175zm17.755 17.675l-3.78-5.25c1.33-.793 2.392-1.727 3.185-2.8.817-1.073 1.4-2.392 1.75-3.955.35-1.563.525-3.442.525-5.635v-7.735h19.915V176h-7.49v-18.655h-5.53v3.57c0 3.943-.77 7.245-2.31 9.905-1.517 2.66-3.605 4.62-6.265 5.88zm25.655-.7v-24.675h7.49v9.24h5.67c2.777 0 4.97.677 6.58 2.03 1.61 1.33 2.415 3.22 2.415 5.67 0 2.473-.805 4.387-2.415 5.74-1.61 1.33-3.803 1.995-6.58 1.995h-13.16zm7.49-5.565h4.62c1.074 0 1.832-.175 2.275-.525.467-.373.7-.922.7-1.645s-.233-1.26-.7-1.61c-.443-.35-1.201-.525-2.275-.525h-4.62v4.305zM189.386 176v-24.675h7.56v9.1h8.435v-9.1h7.56V176h-7.56v-9.415h-8.435V176h-7.56zm27.618 0v-24.675h7.49v9.24h4.585c2.776 0 4.97.677 6.58 2.03 1.61 1.33 2.415 3.22 2.415 5.67 0 2.473-.805 4.387-2.415 5.74-1.61 1.33-3.804 1.995-6.58 1.995h-12.075zm23.66 0v-24.675h7.49V176h-7.49zm-16.17-5.565h3.535c1.073 0 1.831-.175 2.275-.525.466-.373.7-.922.7-1.645s-.234-1.26-.7-1.61c-.444-.373-1.202-.56-2.275-.56h-3.535v4.34zM252.209 176v-24.675h18.305v5.74h-11.095v3.535h10.255v5.74h-10.255v3.92h11.095V176h-18.305zm31.718 0v-24.675h7.49v9.555h2.03l5.74-9.555h8.155l-7.175 11.095a7.844 7.844 0 012.135 1.785c.63.723 1.202 1.598 1.715 2.625l4.55 9.17h-8.12l-3.15-6.825c-.373-.817-.863-1.4-1.47-1.75-.583-.35-1.388-.525-2.415-.525h-1.995v9.1h-7.49zm37.644.42c-2.613 0-4.876-.537-6.79-1.61a11.25 11.25 0 01-4.445-4.48c-1.026-1.937-1.54-4.165-1.54-6.685 0-2.543.514-4.772 1.54-6.685a11.021 11.021 0 014.445-4.445c1.914-1.073 4.177-1.61 6.79-1.61 2.637 0 4.912.537 6.825 1.61a11.015 11.015 0 014.445 4.445c1.05 1.913 1.575 4.142 1.575 6.685 0 2.543-.525 4.772-1.575 6.685a11.244 11.244 0 01-4.445 4.48c-1.913 1.073-4.188 1.61-6.825 1.61zm0-6.265c1.68 0 2.917-.572 3.71-1.715.817-1.167 1.225-2.765 1.225-4.795s-.408-3.617-1.225-4.76c-.793-1.143-2.03-1.715-3.71-1.715-1.68 0-2.916.572-3.71 1.715-.77 1.12-1.155 2.707-1.155 4.76s.385 3.652 1.155 4.795c.794 1.143 2.03 1.715 3.71 1.715zM338.002 176v-24.675h6.58l6.895 15.435 6.895-15.435h6.58V176h-6.825v-9.765l-4.62 9.765h-4.165l-4.515-9.555V176h-6.825zm31.101 0v-24.675h23.415V176h-7.49v-18.655h-8.435V176h-7.49zm27.481 0v-24.675h18.305v5.74h-11.095v3.535h10.255v5.74h-10.255v3.92h11.095V176h-18.305zm27.165 0v-18.585h-7.14v-6.09h21.84v6.09h-7.14V176h-7.56zm17.166 0v-24.675h18.305v5.74h-11.095v3.535h10.255v5.74h-10.255v3.92h11.095V176h-18.305zm21.294 0v-24.675h7.56v9.1h8.435v-9.1h7.56V176h-7.56v-9.415h-8.435V176h-7.56zm48.162 6.3V176h-20.545v-24.675h7.49v18.655h8.435v-18.655h7.49v18.655h3.605v12.32h-6.475zm9.26-6.3v-24.675h7v12.81l10.43-12.81h5.495V176h-7v-12.81L525.126 176h-5.495zm27.002 0v-24.675h7v12.81l10.43-12.81h5.495V176h-7v-12.81L552.128 176h-5.495z" fill="#fff"/><mask id="b" maskUnits="userSpaceOnUse" x="2" y="200" width="568" height="27" fill="#000"><path fill="#fff" d="M2 200h568v27H2z"/><path d="M3.247 222v-15.158h14.384V222H13.03v-11.46H7.848V222H3.247zm16.88 0v-15.158h7.827c1.791 0 3.139.445 4.042 1.333.903.875 1.354 2.057 1.354 3.548 0 1.476-.451 2.659-1.354 3.547-.903.889-2.25 1.333-4.042 1.333h-3.182V222h-4.644zm4.645-8.923h2.558c1.061 0 1.591-.451 1.591-1.354s-.53-1.355-1.59-1.355h-2.56v2.709zM35.056 222v-15.158h11.245v3.526h-6.816v2.172h6.3v3.526h-6.3v2.408h6.816V222H35.056zm12.027 3.87v-7.353h1.591c1.175-1.462 1.763-3.999 1.763-7.611v-4.064H62.65v11.675h2.215v7.353h-3.956V222H51.04v3.87h-3.956zm6.128-7.353h4.837v-8.192h-3.397v1.097c0 3.182-.48 5.547-1.44 7.095zm21.315 3.741c-1.692 0-3.16-.322-4.408-.967-1.233-.66-2.193-1.577-2.88-2.753-.674-1.175-1.011-2.551-1.011-4.128 0-1.576.337-2.945 1.01-4.106a7.06 7.06 0 012.881-2.731c1.247-.659 2.716-.989 4.408-.989 1.032 0 1.978.137 2.838.409.874.258 1.598.631 2.171 1.118l-1.354 3.633c-.645-.43-1.226-.723-1.742-.881a5.49 5.49 0 00-1.741-.258c-1.161 0-2.057.33-2.688.989-.616.645-.924 1.584-.924 2.816 0 1.247.308 2.201.924 2.86.63.645 1.527.967 2.688.967a5.94 5.94 0 001.741-.236c.516-.172 1.097-.473 1.742-.903l1.354 3.633c-.573.488-1.297.868-2.171 1.14-.86.258-1.806.387-2.838.387zm9.972-.258v-11.417h-4.386v-3.741h13.416v3.741H89.14V222h-4.644zm6.634 0l7.203-15.158h3.762L109.343 222h-4.644l-1.247-2.817h-6.45L95.755 222h-4.623zm9.073-10.428l-1.72 4.107h3.548l-1.72-4.107h-.108zm9.66 10.428v-15.158h7.762c1.705 0 3.017.359 3.934 1.075.932.703 1.398 1.649 1.398 2.838 0 .774-.201 1.455-.602 2.043-.387.573-.932 1.003-1.634 1.29.874.272 1.54.717 1.999 1.333.459.602.688 1.347.688 2.236 0 1.319-.502 2.372-1.505 3.16-1.003.789-2.358 1.183-4.063 1.183h-7.977zm4.429-9.374h2.451c.631 0 1.082-.093 1.355-.28.286-.2.43-.516.43-.946 0-.43-.144-.738-.43-.924-.273-.186-.724-.28-1.355-.28h-2.451v2.43zm0 6.02h2.924c1.204 0 1.806-.444 1.806-1.333s-.602-1.333-1.806-1.333h-2.924v2.666zM125.087 222v-15.158h4.3v7.869l6.407-7.869h3.376V222h-4.3v-7.869L128.463 222h-3.376zm19.984 0v-11.417h-4.386v-3.741h13.416v3.741h-4.386V222h-4.644zm10.545 0v-15.158h11.244v3.526h-6.815v2.172h6.299v3.526h-6.299v2.408h6.815V222h-11.244zm14.327.43l-2.322-3.225c.817-.487 1.469-1.061 1.957-1.72.501-.659.86-1.469 1.075-2.43.215-.96.322-2.114.322-3.461v-4.752h12.234V222h-4.601v-11.46h-3.397v2.193c0 2.423-.473 4.451-1.419 6.085-.932 1.634-2.215 2.838-3.849 3.612zm15.76-.43v-15.158h11.245v3.526h-6.816v2.172h6.3v3.526h-6.3v2.408h6.816V222h-11.245zm13.081 0v-15.158h4.3v7.869l6.407-7.869h3.375V222h-4.3v-7.869L202.159 222h-3.375zm7.009-16.34c-1.018 0-1.864-.151-2.537-.452-.674-.315-1.19-.723-1.548-1.225a4 4 0 01-.645-1.656l2.042-.645c.244.645.573 1.104.989 1.376.43.273 1.011.409 1.742.409.745 0 1.325-.158 1.741-.473.43-.315.724-.745.882-1.29l1.978.623c-.172.961-.66 1.756-1.462 2.387-.789.631-1.849.946-3.182.946zM221.774 222v-15.158h4.601v5.87h1.247l3.526-5.87h5.01l-4.408 6.816c.502.287.939.652 1.312 1.096.387.445.738.982 1.053 1.613L236.91 222h-4.988l-1.935-4.193c-.229-.501-.53-.86-.903-1.075-.358-.215-.852-.322-1.483-.322h-1.226V222h-4.601zm16.188 0v-15.158h7.826c1.792 0 3.139.445 4.042 1.333.903.875 1.355 2.057 1.355 3.548 0 1.476-.452 2.659-1.355 3.547-.903.889-2.25 1.333-4.042 1.333h-3.182V222h-4.644zm4.644-8.923h2.559c1.06 0 1.591-.451 1.591-1.354s-.531-1.355-1.591-1.355h-2.559v2.709zM254.912 222l2.429-4.687-6.493-10.471h4.859l3.827 6.364 3.268-6.364h4.752L259.685 222h-4.773zm13.243 0v-15.158h14.383V222h-4.601v-11.46h-5.181V222h-4.601zm16.881 0v-15.158h4.644v5.59h5.181v-5.59h4.644V222h-4.644v-5.784h-5.181V222h-4.644zM302 222v-15.158h11.245v3.526h-6.816v2.172h6.3v3.526h-6.3v2.408h6.816V222H302zm13.081 0v-15.158h4.3v7.869l6.407-7.869h3.375V222h-4.3v-7.869L318.456 222h-3.375zm7.009-16.34c-1.018 0-1.863-.151-2.537-.452-.674-.315-1.19-.723-1.548-1.225a4 4 0 01-.645-1.656l2.042-.645c.244.645.574 1.104.989 1.376.43.273 1.011.409 1.742.409.745 0 1.326-.158 1.741-.473.43-.315.724-.745.882-1.29l1.978.623c-.172.961-.659 1.756-1.462 2.387-.788.631-1.849.946-3.182.946zm9.578 16.34v-15.158h4.536v11.46h4.085v-11.46h4.515v11.46h4.085v-11.46h4.515V222h-21.736zm24.229 0v-15.158h4.3v7.869l6.407-7.869h3.376V222h-4.3v-7.869L359.273 222h-3.376zm14.48 0l5.784-7.633-5.698-7.525h5.418l2.903 4.171 2.945-4.171h5.418l-5.697 7.525 5.805 7.633h-5.44l-3.01-4.257-3.031 4.257h-5.397zm23.67 0v-15.158h7.762c1.705 0 3.017.359 3.934 1.075.932.703 1.398 1.649 1.398 2.838 0 .774-.201 1.455-.602 2.043-.387.573-.932 1.003-1.634 1.29.874.272 1.541.717 1.999 1.333.459.602.688 1.347.688 2.236 0 1.319-.501 2.372-1.505 3.16-1.003.789-2.358 1.183-4.063 1.183h-7.977zm4.429-9.374h2.451c.631 0 1.082-.093 1.355-.28.286-.2.43-.516.43-.946 0-.43-.144-.738-.43-.924-.273-.186-.724-.28-1.355-.28h-2.451v2.43zm0 6.02h2.924c1.204 0 1.806-.444 1.806-1.333s-.602-1.333-1.806-1.333h-2.924v2.666zM410.64 222l2.429-4.687-6.493-10.471h4.859l3.827 6.364 3.268-6.364h4.752L415.413 222h-4.773zm18.36.258c-1.276 0-2.415-.136-3.419-.409a11.044 11.044 0 01-2.687-1.161l1.29-3.311c.544.359 1.197.645 1.956.86a9.805 9.805 0 002.473.301c.888 0 1.541-.107 1.956-.322.43-.229.645-.588.645-1.075a.902.902 0 00-.451-.817c-.287-.186-.753-.28-1.398-.28h-3.762v-3.483h3.332c.645 0 1.111-.078 1.398-.236.286-.172.43-.452.43-.839 0-.329-.165-.609-.495-.838-.315-.229-.853-.344-1.612-.344-.76 0-1.512.107-2.258.322-.745.201-1.383.481-1.913.839l-1.29-3.311c.688-.473 1.548-.853 2.58-1.14 1.046-.286 2.186-.43 3.418-.43 2.021 0 3.526.395 4.515 1.183 1.004.788 1.505 1.784 1.505 2.988 0 .789-.2 1.47-.602 2.043-.387.573-.931 1.01-1.634 1.311.86.273 1.52.71 1.978 1.312.459.602.688 1.354.688 2.257 0 .889-.243 1.677-.731 2.365-.487.688-1.225 1.233-2.214 1.634-.975.387-2.208.581-3.698.581zm15.802 0c-1.605 0-2.995-.33-4.171-.989a6.91 6.91 0 01-2.73-2.752c-.631-1.19-.946-2.559-.946-4.107 0-1.562.315-2.931.946-4.106a6.772 6.772 0 012.73-2.731c1.176-.659 2.566-.989 4.171-.989 1.62 0 3.017.33 4.193.989a6.772 6.772 0 012.73 2.731c.645 1.175.968 2.544.968 4.106 0 1.563-.323 2.932-.968 4.107a6.91 6.91 0 01-2.73 2.752c-1.176.659-2.573.989-4.193.989zm0-3.849c1.032 0 1.792-.351 2.279-1.053.502-.717.753-1.699.753-2.946s-.251-2.221-.753-2.924c-.487-.702-1.247-1.053-2.279-1.053-1.032 0-1.791.351-2.279 1.053-.473.688-.709 1.663-.709 2.924 0 1.262.236 2.244.709 2.946.488.702 1.247 1.053 2.279 1.053zM454.831 222v-15.158h7.761c1.706 0 3.018.359 3.935 1.075.932.703 1.397 1.649 1.397 2.838 0 .774-.2 1.455-.602 2.043-.387.573-.931 1.003-1.634 1.29.875.272 1.541.717 2 1.333.459.602.688 1.347.688 2.236 0 1.319-.502 2.372-1.505 3.16-1.003.789-2.358 1.183-4.064 1.183h-7.976zm4.429-9.374h2.451c.631 0 1.082-.093 1.354-.28.287-.2.43-.516.43-.946 0-.43-.143-.738-.43-.924-.272-.186-.723-.28-1.354-.28h-2.451v2.43zm0 6.02h2.924c1.204 0 1.806-.444 1.806-1.333s-.602-1.333-1.806-1.333h-2.924v2.666zM476.457 222v-15.158h7.826c1.792 0 3.139.445 4.042 1.333.903.875 1.354 2.057 1.354 3.548 0 1.476-.451 2.659-1.354 3.547-.903.889-2.25 1.333-4.042 1.333h-3.182V222h-4.644zm4.644-8.923h2.558c1.061 0 1.591-.451 1.591-1.354s-.53-1.355-1.591-1.355h-2.558v2.709zm17.556 9.181c-1.605 0-2.995-.33-4.171-.989a6.91 6.91 0 01-2.73-2.752c-.631-1.19-.946-2.559-.946-4.107 0-1.562.315-2.931.946-4.106a6.772 6.772 0 012.73-2.731c1.176-.659 2.566-.989 4.171-.989 1.62 0 3.017.33 4.193.989a6.772 6.772 0 012.73 2.731c.645 1.175.968 2.544.968 4.106 0 1.563-.323 2.932-.968 4.107a6.91 6.91 0 01-2.73 2.752c-1.176.659-2.573.989-4.193.989zm0-3.849c1.032 0 1.792-.351 2.279-1.053.502-.717.753-1.699.753-2.946s-.251-2.221-.753-2.924c-.487-.702-1.247-1.053-2.279-1.053-1.032 0-1.791.351-2.279 1.053-.473.688-.709 1.663-.709 2.924 0 1.262.236 2.244.709 2.946.488.702 1.247 1.053 2.279 1.053zm17.962 3.849c-1.691 0-3.16-.322-4.407-.967-1.233-.66-2.193-1.577-2.881-2.753-.674-1.175-1.011-2.551-1.011-4.128 0-1.576.337-2.945 1.011-4.106a7.058 7.058 0 012.881-2.731c1.247-.659 2.716-.989 4.407-.989 1.032 0 1.978.137 2.838.409.875.258 1.599.631 2.172 1.118l-1.355 3.633c-.645-.43-1.225-.723-1.741-.881a5.493 5.493 0 00-1.742-.258c-1.161 0-2.056.33-2.687.989-.616.645-.925 1.584-.925 2.816 0 1.247.309 2.201.925 2.86.631.645 1.526.967 2.687.967.645 0 1.226-.078 1.742-.236.516-.172 1.096-.473 1.741-.903l1.355 3.633c-.573.488-1.297.868-2.172 1.14-.86.258-1.806.387-2.838.387zm14.404 0c-1.692 0-3.161-.322-4.408-.967-1.232-.66-2.193-1.577-2.881-2.753-.673-1.175-1.01-2.551-1.01-4.128 0-1.576.337-2.945 1.01-4.106a7.064 7.064 0 012.881-2.731c1.247-.659 2.716-.989 4.408-.989 1.032 0 1.978.137 2.838.409.874.258 1.598.631 2.171 1.118l-1.354 3.633c-.645-.43-1.226-.723-1.742-.881a5.487 5.487 0 00-1.741-.258c-1.161 0-2.057.33-2.688.989-.616.645-.924 1.584-.924 2.816 0 1.247.308 2.201.924 2.86.631.645 1.527.967 2.688.967.645 0 1.225-.078 1.741-.236.516-.172 1.097-.473 1.742-.903l1.354 3.633c-.573.488-1.297.868-2.171 1.14-.86.258-1.806.387-2.838.387zm6.785-.258v-15.158h4.3v7.869l6.407-7.869h3.375V222h-4.3v-7.869L541.183 222h-3.375zm16.586 0v-15.158h4.3v7.869l6.407-7.869h3.376V222h-4.3v-7.869L557.77 222h-3.376z"/></mask><path d="M3.247 222h-1v1h1v-1zm0-15.158v-1h-1v1h1zm14.384 0h1v-1h-1v1zm0 15.158v1h1v-1h-1zm-4.601 0h-1v1h1v-1zm0-11.46h1v-1h-1v1zm-5.182 0v-1h-1v1h1zm0 11.46v1h1v-1h-1zm-3.601 0v-15.158h-2V222h2zm-1-14.158h14.384v-2H3.247v2zm13.384-1V222h2v-15.158h-2zm1 14.158H13.03v2h4.6v-2zm-3.601 1v-11.46h-2V222h2zm-1-12.46H7.848v2h5.182v-2zm-6.182 1V222h2v-11.46h-2zm1 10.46H3.247v2h4.601v-2zm12.28 1h-1v1h1v-1zm0-15.158v-1h-1v1h1zm11.868 1.333l-.702.713.006.006.696-.719zm0 7.095l-.702-.712.702.712zm-7.224 1.334v-1.001h-1v1.001h1zm0 5.396v1h1v-1h-1zm0-8.923h-1v1h1v-1zm0-2.709v-1h-1v1h1zM21.128 222v-15.158h-2V222h2zm-1-14.158h7.826v-2h-7.826v2zm7.826 0c1.639 0 2.69.406 3.34 1.046l1.403-1.425c-1.156-1.138-2.799-1.621-4.743-1.621v2zm3.346 1.052c.673.651 1.05 1.555 1.05 2.829h2c0-1.707-.525-3.168-1.659-4.266l-1.39 1.437zm1.05 2.829c0 1.256-.375 2.165-1.056 2.835l1.403 1.425c1.126-1.108 1.653-2.564 1.653-4.26h-2zm-1.056 2.835c-.65.64-1.701 1.045-3.34 1.045v2.001c1.944 0 3.587-.483 4.743-1.621l-1.403-1.425zm-3.34 1.045h-3.182v2.001h3.182v-2.001zm-4.182 1.001V222h2v-5.396h-2zm1 4.396h-4.644v2h4.644v-2zm0-6.923h2.558v-2h-2.558v2zm2.558 0c.649 0 1.322-.134 1.842-.577.55-.468.75-1.125.75-1.777h-2a.65.65 0 01-.031.228c-.01.023-.014.025-.016.026-.01.009-.133.1-.545.1v2zm2.591-2.354c0-.652-.198-1.309-.75-1.777-.519-.443-1.192-.578-1.84-.578v2c.411 0 .534.092.544.101.002.001.007.003.016.026a.65.65 0 01.03.228h2zm-2.59-2.355h-2.56v2h2.56v-2zm-3.56 1v2.709h2v-2.709h-2zM35.057 222h-1v1h1v-1zm0-15.158v-1h-1v1h1zm11.245 0h1v-1h-1v1zm0 3.526v1h1v-1h-1zm-6.816 0v-1h-1v1h1zm0 2.172h-1v1h1v-1zm6.3 0h1v-1h-1v1zm0 3.526v1h1v-1h-1zm-6.3 0v-1h-1v1h1zm0 2.408h-1v1h1v-1zm6.816 0h1v-1h-1v1zm0 3.526v1h1v-1h-1zm-10.245 0v-15.158h-2V222h2zm-1-14.158h11.245v-2H35.056v2zm10.245-1v3.526h2v-3.526h-2zm1 2.526h-6.816v2h6.816v-2zm-7.816 1v2.172h2v-2.172h-2zm1 3.172h6.3v-2h-6.3v2zm5.3-1v3.526h2v-3.526h-2zm1 2.526h-6.3v2h6.3v-2zm-7.3 1v2.408h2v-2.408h-2zm1 3.408h6.816v-2h-6.816v2zm5.816-1V222h2v-3.526h-2zm1 2.526H35.056v2h11.245v-2zm.782 4.87h-1v1h1v-1zm0-7.353v-1h-1v1h1zm1.591 0v1h.48l.3-.373-.78-.627zm1.763-11.675v-1h-1v1h1zm12.212 0h1v-1h-1v1zm0 11.675h-1v1h1v-1zm2.215 0h1v-1h-1v1zm0 7.353v1h1v-1h-1zm-3.956 0h-1v1h1v-1zm0-3.87h1v-1h-1v1zm-9.869 0v-1h-1v1h1zm0 3.87v1h1v-1h-1zm2.172-7.353l-.85-.527-.947 1.527h1.797v-1zm4.837 0v1h1v-1h-1zm0-8.192h1v-1h-1v1zm-3.397 0v-1h-1v1h1zm-6.568 15.545v-7.353h-2v7.353h2zm-1-6.353h1.591v-2h-1.59v2zm2.37-.373c1.401-1.743 1.984-4.579 1.984-8.238h-2c0 3.565-.592 5.803-1.542 6.984l1.558 1.254zm1.984-8.238v-4.064h-2v4.064h2zm-1-3.064H62.65v-2H50.437v2zm11.212-1v11.675h2v-11.675h-2zm1 12.675h2.215v-2H62.65v2zm1.215-1v7.353h2v-7.353h-2zm1 6.353h-3.956v2h3.956v-2zm-2.956 1V222h-2v3.87h2zm-1-4.87H51.04v2h9.869v-2zm-10.869 1v3.87h2V222h-2zm1 2.87h-3.956v2h3.956v-2zm2.172-5.353h4.837v-2h-4.837v2zm5.837-1v-8.192h-2v8.192h2zm-1-9.192h-3.397v2h3.397v-2zm-4.397 1v1.097h2v-1.097h-2zm0 1.097c0 3.117-.477 5.257-1.29 6.568l1.7 1.054c1.107-1.785 1.59-4.375 1.59-7.622h-2zm16.467 9.869l-.471.881.012.007.46-.888zm-2.88-2.753l-.868.498.004.008.863-.506zm0-8.234l-.864-.505-.002.003.865.502zm2.88-2.731l.464.887.004-.002-.468-.885zm7.246-.58l-.302.953.01.003.009.003.283-.959zm2.171 1.118l.937.349.245-.657-.534-.454-.648.762zm-1.354 3.633l-.555.833 1.05.7.442-1.183-.937-.35zm-1.742-.881l-.316.949.012.004.012.003.292-.956zm-4.429.731l-.722-.691.722.691zm0 5.676l-.73.683.007.008.008.008.715-.699zm4.43.731l.291.956.013-.003.011-.004-.316-.949zm1.74-.903l.938-.349-.441-1.183-1.051.7.555.832zm1.355 3.634l.648.761.534-.454-.245-.657-.937.35zm-2.171 1.139l.287.958.01-.003-.297-.955zm-2.838-.613c-1.564 0-2.87-.298-3.948-.856l-.92 1.777c1.416.732 3.049 1.079 4.868 1.079v-2zm-3.936-.849c-1.075-.575-1.898-1.364-2.49-2.376l-1.726 1.011c.784 1.339 1.882 2.384 3.273 3.128l.943-1.763zm-2.485-2.368c-.574-1.001-.878-2.199-.878-3.631h-2c0 1.723.369 3.276 1.143 4.626l1.735-.995zm-.878-3.631c0-1.431.304-2.62.875-3.604l-1.73-1.004c-.776 1.338-1.145 2.887-1.145 4.608h2zm.873-3.601a6.054 6.054 0 012.482-2.349l-.927-1.773a8.057 8.057 0 00-3.28 3.112l1.725 1.01zm2.486-2.351c1.077-.57 2.38-.874 3.94-.874v-2c-1.822 0-3.458.356-4.875 1.105l.935 1.769zm3.94-.874c.944 0 1.786.125 2.536.362l.604-1.906c-.97-.308-2.02-.456-3.14-.456v2zm2.555.368c.768.227 1.36.541 1.807.921l1.295-1.524c-.7-.595-1.556-1.026-2.536-1.315l-.566 1.918zm1.517-.19l-1.354 3.633 1.874.699 1.354-3.634-1.874-.698zm.137 3.15c-.693-.462-1.364-.81-2.004-1.005l-.584 1.912c.392.12.883.36 1.479.758l1.11-1.665zm-1.98-.998a6.503 6.503 0 00-2.057-.309v2c.557 0 1.028.074 1.425.207l.632-1.898zm-2.057-.309c-1.356 0-2.543.391-3.41 1.298l1.445 1.382c.394-.411.998-.68 1.965-.68v-2zm-3.41 1.298c-.853.892-1.202 2.117-1.202 3.507h2c0-1.074.267-1.727.647-2.125l-1.446-1.382zm-1.202 3.507c0 1.403.347 2.638 1.194 3.543l1.46-1.366c-.386-.413-.654-1.085-.654-2.177h-2zm1.21 3.559c.868.889 2.053 1.268 3.402 1.268v-2c-.973 0-1.58-.265-1.973-.666l-1.43 1.398zm3.402 1.268a6.93 6.93 0 002.033-.28l-.584-1.912a4.985 4.985 0 01-1.45.192v2zm2.057-.287c.628-.21 1.29-.56 1.98-1.02l-1.109-1.664c-.6.4-1.099.652-1.503.786l.632 1.898zm.489-1.503l1.354 3.634 1.874-.699-1.354-3.633-1.874.698zm1.644 2.523c-.452.383-1.049.705-1.822.946l.595 1.91c.976-.304 1.826-.741 2.522-1.333l-1.295-1.523zm-1.812.943c-.754.226-1.601.345-2.55.345v2c1.115 0 2.16-.139 3.125-.429l-.575-1.916zM84.498 222h-1v1h1v-1zm0-11.417h1v-1h-1v1zm-4.386 0h-1v1h1v-1zm0-3.741v-1h-1v1h1zm13.416 0h1v-1h-1v1zm0 3.741v1h1v-1h-1zm-4.387 0v-1h-1v1h1zm0 11.417v1h1v-1h-1zm-3.644 0v-11.417h-2V222h2zm-1-12.417h-4.385v2h4.386v-2zm-3.385 1v-3.741h-2v3.741h2zm-1-2.741h13.416v-2H80.112v2zm12.416-1v3.741h2v-3.741h-2zm1 2.741H89.14v2h4.386v-2zm-5.387 1V222h2v-11.417h-2zm1 10.417h-4.644v2h4.644v-2zm1.991 1l-.903-.429-.68 1.429h1.583v-1zm7.203-15.158v-1h-.632l-.271.571.903.429zm3.762 0l.903-.431-.272-.569h-.631v1zM109.343 222v1h1.586l-.684-1.431-.902.431zm-4.644 0l-.915.405.264.595h.651v-1zm-1.247-2.816l.914-.405-.263-.595h-.651v1zm-6.45 0v-1h-.651l-.264.595.915.405zM95.755 222v1h.65l.264-.595-.914-.405zm4.45-10.428v-1h-.665l-.257.614.922.386zm-1.72 4.107l-.922-.386-.58 1.386h1.502v-1zm3.548 0v1h1.503l-.581-1.386-.922.386zm-1.72-4.107l.922-.386-.257-.614h-.665v1zm-8.278 10.857l7.203-15.157-1.806-.859-7.203 15.158 1.806.858zm6.3-14.587h3.762v-2h-3.762v2zm2.86-.568l7.246 15.157 1.804-.862L103 206.411l-1.805.863zM109.343 221h-4.644v2h4.644v-2zm-3.73.595l-1.247-2.816-1.829.809 1.247 2.817 1.829-.81zm-2.161-3.411h-6.45v2h6.45v-2zm-7.365.595l-1.247 2.816 1.83.81 1.246-2.817-1.829-.809zM95.755 221h-4.623v2h4.623v-2zm3.528-9.814l-1.72 4.107 1.845.772 1.72-4.106-1.845-.773zm-.798 5.493h3.548v-2h-3.548v2zm4.47-1.386l-1.72-4.107-1.845.773 1.72 4.106 1.845-.772zm-2.642-4.721h-.108v2h.108v-2zM109.865 222h-1v1h1v-1zm0-15.158v-1h-1v1h1zm11.696 1.075l-.615.789.006.005.007.005.602-.799zm.796 4.881l-.826-.564-.003.005.829.559zm-1.634 1.29l-.378-.926-2.579 1.053 2.659.828.298-.955zm1.999 1.333l-.802.597.007.009.795-.606zm-8.428-2.795h-1v1h1v-1zm3.806-.28l.564.826.009-.006-.573-.82zm0-1.87l-.565.825.01.007.01.006.545-.838zm-3.806-.28v-1h-1v1h1zm0 8.45h-1v1h1v-1zm0-2.666v-1h-1v1h1zm-3.429 6.02v-15.158h-2V222h2zm-1-14.158h7.762v-2h-7.762v2zm7.762 0c1.582 0 2.642.335 3.319.864l1.231-1.577c-1.159-.905-2.722-1.287-4.55-1.287v2zm3.332.874c.675.509 1 1.156 1 2.039h2c0-1.496-.608-2.74-1.796-3.636l-1.204 1.597zm1 2.039c0 .592-.15 1.072-.428 1.479l1.651 1.128c.525-.769.777-1.65.777-2.607h-2zm-.431 1.484c-.266.393-.646.704-1.183.923l.756 1.852c.867-.354 1.576-.903 2.085-1.657l-1.658-1.118zm-1.103 2.804c.713.222 1.185.559 1.495.975l1.604-1.194c-.607-.817-1.468-1.368-2.504-1.691l-.595 1.91zm1.502.984c.304.399.483.921.483 1.63h2c0-1.068-.279-2.037-.892-2.842l-1.591 1.212zm.483 1.63c0 1.024-.37 1.783-1.123 2.374l1.236 1.573c1.254-.985 1.887-2.333 1.887-3.947h-2zm-1.123 2.374c-.776.61-1.888.969-3.445.969v2c1.854 0 3.45-.429 4.681-1.396l-1.236-1.573zm-3.445.969h-7.977v2h7.977v-2zm-3.548-7.374h2.451v-2h-2.451v2zm2.451 0c.677 0 1.387-.09 1.919-.454l-1.129-1.651c.008-.005-.036.026-.18.056-.14.029-.339.049-.61.049v2zm1.928-.46c.616-.432.857-1.094.857-1.766h-2c0 .106-.018.145-.018.146l.002-.004a.033.033 0 01.006-.008l.006-.007 1.147 1.639zm.857-1.766c0-.669-.241-1.343-.885-1.762l-1.09 1.676a.086.086 0 01-.022-.019c-.01-.012-.015-.022-.018-.026-.003-.009.015.025.015.131h2zm-.866-1.749c-.532-.365-1.242-.455-1.919-.455v2c.271 0 .47.021.61.05.144.029.188.06.18.055l1.129-1.65zm-1.919-.455h-2.451v2h2.451v-2zm-3.451 1v2.43h2v-2.43h-2zm1 9.45h2.924v-2h-2.924v2zm2.924 0c.696 0 1.399-.123 1.949-.529.606-.447.857-1.11.857-1.804h-2c0 .11-.018.159-.024.172-.003.006-.005.011-.021.023-.053.039-.253.138-.761.138v2zm2.806-2.333c0-.694-.251-1.357-.857-1.804-.55-.406-1.253-.529-1.949-.529v2c.508 0 .708.099.761.138.016.012.018.017.021.023a.437.437 0 01.024.172h2zm-2.806-2.333h-2.924v2h2.924v-2zm-3.924 1v2.666h2v-2.666h-2zm11.793 6.02h-1v1h1v-1zm0-15.158v-1h-1v1h1zm4.3 0h1v-1h-1v1zm0 7.869h-1v2.812l1.776-2.18-.776-.632zm6.407-7.869v-1h-.475l-.3.369.775.631zm3.376 0h1v-1h-1v1zm0 15.158v1h1v-1h-1zm-4.3 0h-1v1h1v-1zm0-7.869h1v-2.812l-1.776 2.181.776.631zM128.463 222v1h.475l.3-.369-.775-.631zm-2.376 0v-15.158h-2V222h2zm-1-14.158h4.3v-2h-4.3v2zm3.3-1v7.869h2v-7.869h-2zm1.776 8.501l6.407-7.869-1.551-1.263-6.407 7.869 1.551 1.263zm5.631-7.501h3.376v-2h-3.376v2zm2.376-1V222h2v-15.158h-2zm1 14.158h-4.3v2h4.3v-2zm-3.3 1v-7.869h-2V222h2zm-1.776-8.5l-6.407 7.869 1.551 1.262 6.407-7.869-1.551-1.262zm-5.631 7.5h-3.376v2h3.376v-2zm16.608 1h-1v1h1v-1zm0-11.417h1v-1h-1v1zm-4.386 0h-1v1h1v-1zm0-3.741v-1h-1v1h1zm13.416 0h1v-1h-1v1zm0 3.741v1h1v-1h-1zm-4.386 0v-1h-1v1h1zm0 11.417v1h1v-1h-1zm-3.644 0v-11.417h-2V222h2zm-1-12.417h-4.386v2h4.386v-2zm-3.386 1v-3.741h-2v3.741h2zm-1-2.741h13.416v-2h-13.416v2zm12.416-1v3.741h2v-3.741h-2zm1 2.741h-4.386v2h4.386v-2zm-5.386 1V222h2v-11.417h-2zm1 10.417h-4.644v2h4.644v-2zm5.901 1h-1v1h1v-1zm0-15.158v-1h-1v1h1zm11.244 0h1v-1h-1v1zm0 3.526v1h1v-1h-1zm-6.815 0v-1h-1v1h1zm0 2.172h-1v1h1v-1zm6.299 0h1v-1h-1v1zm0 3.526v1h1v-1h-1zm-6.299 0v-1h-1v1h1zm0 2.408h-1v1h1v-1zm6.815 0h1v-1h-1v1zm0 3.526v1h1v-1h-1zm-10.244 0v-15.158h-2V222h2zm-1-14.158h11.244v-2h-11.244v2zm10.244-1v3.526h2v-3.526h-2zm1 2.526h-6.815v2h6.815v-2zm-7.815 1v2.172h2v-2.172h-2zm1 3.172h6.299v-2h-6.299v2zm5.299-1v3.526h2v-3.526h-2zm1 2.526h-6.299v2h6.299v-2zm-7.299 1v2.408h2v-2.408h-2zm1 3.408h6.815v-2h-6.815v2zm5.815-1V222h2v-3.526h-2zm1 2.526h-11.244v2h11.244v-2zm3.083 1.43l-.811.584.486.676.753-.356-.428-.904zm-2.322-3.225l-.512-.859-.936.559.637.884.811-.584zm1.957-1.72l-.796-.606-.008.012.804.594zm1.397-10.643v-1h-1v1h1zm12.234 0h1v-1h-1v1zm0 15.158v1h1v-1h-1zm-4.601 0h-1v1h1v-1zm0-11.46h1v-1h-1v1zm-3.397 0v-1h-1v1h1zm-1.419 8.278l-.866-.501-.003.006.869.495zm-3.037 3.028l-2.322-3.225-1.623 1.168 2.322 3.225 1.623-1.168zm-2.622-1.782c.913-.545 1.671-1.203 2.249-1.985l-1.608-1.188c-.397.537-.944 1.025-1.665 1.455l1.024 1.718zm2.241-1.973c.603-.794 1.014-1.742 1.255-2.817l-1.952-.437c-.19.846-.495 1.517-.895 2.042l1.592 1.212zm1.255-2.817c.235-1.053.346-2.284.346-3.68h-2c0 1.299-.104 2.375-.298 3.243l1.952.437zm.346-3.68v-4.752h-2v4.752h2zm-1-3.752h12.234v-2h-12.234v2zm11.234-1V222h2v-15.158h-2zm1 14.158h-4.601v2h4.601v-2zm-3.601 1v-11.46h-2V222h2zm-1-12.46h-3.397v2h3.397v-2zm-4.397 1v2.193h2v-2.193h-2zm0 2.193c0 2.296-.448 4.14-1.285 5.584l1.731 1.002c1.056-1.824 1.554-4.036 1.554-6.586h-2zm-1.288 5.59c-.834 1.463-1.967 2.521-3.408 3.203l.856 1.808c1.827-.866 3.261-2.216 4.289-4.021l-1.737-.99zm12.78 3.677h-1v1h1v-1zm0-15.158v-1h-1v1h1zm11.245 0h1v-1h-1v1zm0 3.526v1h1v-1h-1zm-6.816 0v-1h-1v1h1zm0 2.172h-1v1h1v-1zm6.3 0h1v-1h-1v1zm0 3.526v1h1v-1h-1zm-6.3 0v-1h-1v1h1zm0 2.408h-1v1h1v-1zm6.816 0h1v-1h-1v1zm0 3.526v1h1v-1h-1zm-10.245 0v-15.158h-2V222h2zm-1-14.158h11.245v-2h-11.245v2zm10.245-1v3.526h2v-3.526h-2zm1 2.526h-6.816v2h6.816v-2zm-7.816 1v2.172h2v-2.172h-2zm1 3.172h6.3v-2h-6.3v2zm5.3-1v3.526h2v-3.526h-2zm1 2.526h-6.3v2h6.3v-2zm-7.3 1v2.408h2v-2.408h-2zm1 3.408h6.816v-2h-6.816v2zm5.816-1V222h2v-3.526h-2zm1 2.526h-11.245v2h11.245v-2zm1.836 1h-1v1h1v-1zm0-15.158v-1h-1v1h1zm4.3 0h1v-1h-1v1zm0 7.869h-1v2.812l1.775-2.18-.775-.632zm6.407-7.869v-1h-.476l-.3.369.776.631zm3.375 0h1v-1h-1v1zm0 15.158v1h1v-1h-1zm-4.3 0h-1v1h1v-1zm0-7.869h1v-2.812l-1.775 2.181.775.631zM202.159 222v1h.475l.301-.369-.776-.631zm1.097-16.792l-.424.906.008.004.008.004.408-.914zm-1.548-1.225l-.832.555.009.013.009.013.814-.581zm-.645-1.656l-.302-.953-.811.256.123.842.99-.145zm2.042-.645l.936-.353-.335-.885-.902.285.301.953zm.989 1.376l-.548.837.007.004.006.004.535-.845zm3.483-.064l-.591-.806-.007.004-.006.005.604.797zm.882-1.29l.3-.954-.976-.308-.285.984.961.278zm1.978.623l.984.177.155-.866-.839-.264-.3.953zm-1.462 2.387l-.618-.786-.007.005.625.781zM199.784 222v-15.158h-2V222h2zm-1-14.158h4.3v-2h-4.3v2zm3.3-1v7.869h2v-7.869h-2zm1.775 8.501l6.407-7.869-1.551-1.263-6.407 7.869 1.551 1.263zm5.632-7.501h3.375v-2h-3.375v2zm2.375-1V222h2v-15.158h-2zm1 14.158h-4.3v2h4.3v-2zm-3.3 1v-7.869h-2V222h2zm-1.775-8.5l-6.407 7.869 1.551 1.262 6.407-7.869-1.551-1.262zm-5.632 7.5h-3.375v2h3.375v-2zm3.634-16.34c-.927 0-1.623-.138-2.129-.365l-.816 1.827c.841.375 1.836.538 2.945.538v-2zm-2.113-.357c-.55-.258-.919-.566-1.159-.901l-1.627 1.162c.477.668 1.14 1.177 1.938 1.55l.848-1.811zm-1.14-.875a2.999 2.999 0 01-.488-1.245l-1.979.289c.109.741.38 1.432.803 2.066l1.664-1.11zm-1.176-.147l2.042-.645-.602-1.907-2.043.645.603 1.907zm.806-1.245c.29.768.727 1.433 1.376 1.859l1.096-1.673c-.182-.119-.404-.371-.601-.893l-1.871.707zm1.389 1.867c.645.409 1.435.564 2.277.564v-2c-.62 0-.992-.117-1.207-.253l-1.07 1.689zm2.277.564c.872 0 1.695-.183 2.346-.676l-1.209-1.594c-.181.138-.52.27-1.137.27v2zm2.332-.667a3.36 3.36 0 001.251-1.818l-1.921-.556c-.1.347-.272.585-.512.762l1.182 1.612zm-.01-1.142l1.978.623.601-1.907-1.978-.624-.601 1.908zm1.294-.507c-.126.707-.476 1.29-1.095 1.777l1.235 1.572c.986-.774 1.612-1.783 1.829-2.996l-1.969-.353zm-1.102 1.782c-.561.449-1.378.727-2.557.727v2c1.487 0 2.791-.353 3.806-1.165l-1.249-1.562zM221.774 222h-1v1h1v-1zm0-15.158v-1h-1v1h1zm4.601 0h1v-1h-1v1zm0 5.87h-1v1h1v-1zm1.247 0v1h.566l.292-.485-.858-.515zm3.526-5.87v-1h-.565l-.292.486.857.514zm5.01 0l.84.544.997-1.544h-1.837v1zm-4.408 6.816l-.839-.543-.574.887.917.524.496-.868zm1.312 1.096l-.766.643.006.007.006.007.754-.657zm1.053 1.613l.896-.444-.001-.003-.895.447zM236.91 222v1h1.613l-.717-1.444-.896.444zm-4.988 0l-.908.419.269.581h.639v-1zm-1.935-4.193l-.909.416.001.004.908-.42zm-.903-1.074l-.514.857.007.004.008.005.499-.866zm-2.709-.323v-1h-1v1h1zm0 5.59v1h1v-1h-1zm-3.601 0v-15.158h-2V222h2zm-1-14.158h4.601v-2h-4.601v2zm3.601-1v5.87h2v-5.87h-2zm1 6.87h1.247v-2h-1.247v2zm2.105-.485l3.526-5.87-1.715-1.029-3.526 5.869 1.715 1.03zm2.668-5.385h5.01v-2h-5.01v2zm4.17-1.543l-4.407 6.816 1.679 1.086 4.408-6.815-1.68-1.087zm-4.064 8.227c.399.228.745.517 1.042.871l1.532-1.285a5.795 5.795 0 00-1.582-1.322l-.992 1.736zm1.054.885c.322.37.628.834.913 1.403l1.789-.894a8.648 8.648 0 00-1.194-1.822l-1.508 1.313zm.912 1.4l2.795 5.633 1.791-.888-2.795-5.633-1.791.888zm3.69 4.189h-4.988v2h4.988v-2zm-4.08.581l-1.935-4.193-1.816.839 1.935 4.192 1.816-.838zm-1.933-4.189c-.292-.638-.715-1.181-1.313-1.526l-.999 1.733c.147.085.326.258.493.624l1.819-.831zm-1.298-1.517c-.574-.344-1.272-.465-1.998-.465v2c.535 0 .826.094.969.18l1.029-1.715zm-1.998-.465h-1.226v2h1.226v-2zm-2.226 1V222h2v-5.59h-2zm1 4.59h-4.601v2h4.601v-2zm11.587 1h-1v1h1v-1zm0-15.158v-1h-1v1h1zm11.868 1.333l-.701.713.006.006.695-.719zm0 7.095l-.701-.712.701.712zm-7.224 1.334v-1.001h-1v1.001h1zm0 5.396v1h1v-1h-1zm0-8.923h-1v1h1v-1zm0-2.709v-1h-1v1h1zM238.962 222v-15.158h-2V222h2zm-1-14.158h7.826v-2h-7.826v2zm7.826 0c1.639 0 2.691.406 3.341 1.046l1.403-1.425c-1.156-1.138-2.799-1.621-4.744-1.621v2zm3.347 1.052c.672.651 1.05 1.555 1.05 2.829h2c0-1.707-.526-3.168-1.659-4.266l-1.391 1.437zm1.05 2.829c0 1.256-.376 2.165-1.056 2.835l1.403 1.425c1.125-1.108 1.653-2.564 1.653-4.26h-2zm-1.056 2.835c-.65.64-1.702 1.045-3.341 1.045v2.001c1.945 0 3.588-.483 4.744-1.621l-1.403-1.425zm-3.341 1.045h-3.182v2.001h3.182v-2.001zm-4.182 1.001V222h2v-5.396h-2zm1 4.396h-4.644v2h4.644v-2zm0-6.923h2.559v-2h-2.559v2zm2.559 0c.648 0 1.322-.134 1.841-.577.551-.468.75-1.125.75-1.777h-2c0 .13-.019.199-.031.228-.009.023-.014.025-.015.026-.011.009-.133.1-.545.1v2zm2.591-2.354c0-.652-.199-1.309-.75-1.777-.519-.443-1.193-.578-1.841-.578v2c.412 0 .534.092.545.101.001.001.006.003.015.026a.627.627 0 01.031.228h2zm-2.591-2.355h-2.559v2h2.559v-2zm-3.559 1v2.709h2v-2.709h-2zM254.912 222l-.888-.46-.757 1.46h1.645v-1zm2.429-4.687l.888.46.261-.504-.299-.483-.85.527zm-6.493-10.471v-1h-1.797l.947 1.528.85-.528zm4.859 0l.857-.515-.291-.485h-.566v1zm3.827 6.365l-.857.515.926 1.539.821-1.598-.89-.456zm3.268-6.365v-1h-.611l-.279.544.89.456zm4.752 0l.887.461.758-1.461h-1.645v1zM259.685 222v1h.607l.28-.539-.887-.461zm-3.886.46l2.43-4.687-1.776-.92-2.429 4.687 1.775.92zm2.392-5.674l-6.493-10.471-1.7 1.055 6.493 10.47 1.7-1.054zm-7.343-8.944h4.859v-2h-4.859v2zm4.002-.484l3.827 6.364 1.714-1.031-3.827-6.364-1.714 1.031zm5.574 6.305l3.268-6.364-1.78-.913-3.267 6.364 1.779.913zm2.378-5.821h4.752v-2h-4.752v2zm3.864-1.46l-7.869 15.157 1.775.922 7.869-15.158-1.775-.921zM259.685 221h-4.773v2h4.773v-2zm8.47 1h-1v1h1v-1zm0-15.158v-1h-1v1h1zm14.383 0h1v-1h-1v1zm0 15.158v1h1v-1h-1zm-4.601 0h-1v1h1v-1zm0-11.46h1v-1h-1v1zm-5.181 0v-1h-1v1h1zm0 11.46v1h1v-1h-1zm-3.601 0v-15.158h-2V222h2zm-1-14.158h14.383v-2h-14.383v2zm13.383-1V222h2v-15.158h-2zm1 14.158h-4.601v2h4.601v-2zm-3.601 1v-11.46h-2V222h2zm-1-12.46h-5.181v2h5.181v-2zm-6.181 1V222h2v-11.46h-2zm1 10.46h-4.601v2h4.601v-2zm12.28 1h-1v1h1v-1zm0-15.158v-1h-1v1h1zm4.644 0h1v-1h-1v1zm0 5.59h-1v1h1v-1zm5.181 0v1h1v-1h-1zm0-5.59v-1h-1v1h1zm4.644 0h1v-1h-1v1zm0 15.158v1h1v-1h-1zm-4.644 0h-1v1h1v-1zm0-5.784h1v-1h-1v1zm-5.181 0v-1h-1v1h1zm0 5.784v1h1v-1h-1zm-3.644 0v-15.158h-2V222h2zm-1-14.158h4.644v-2h-4.644v2zm3.644-1v5.59h2v-5.59h-2zm1 6.59h5.181v-2h-5.181v2zm6.181-1v-5.59h-2v5.59h2zm-1-4.59h4.644v-2h-4.644v2zm3.644-1V222h2v-15.158h-2zm1 14.158h-4.644v2h4.644v-2zm-3.644 1v-5.784h-2V222h2zm-1-6.784h-5.181v2h5.181v-2zm-6.181 1V222h2v-5.784h-2zm1 4.784h-4.644v2h4.644v-2zm12.32 1h-1v1h1v-1zm0-15.158v-1h-1v1h1zm11.245 0h1v-1h-1v1zm0 3.526v1h1v-1h-1zm-6.816 0v-1h-1v1h1zm0 2.172h-1v1h1v-1zm6.3 0h1v-1h-1v1zm0 3.526v1h1v-1h-1zm-6.3 0v-1h-1v1h1zm0 2.408h-1v1h1v-1zm6.816 0h1v-1h-1v1zm0 3.526v1h1v-1h-1zM303 222v-15.158h-2V222h2zm-1-14.158h11.245v-2H302v2zm10.245-1v3.526h2v-3.526h-2zm1 2.526h-6.816v2h6.816v-2zm-7.816 1v2.172h2v-2.172h-2zm1 3.172h6.3v-2h-6.3v2zm5.3-1v3.526h2v-3.526h-2zm1 2.526h-6.3v2h6.3v-2zm-7.3 1v2.408h2v-2.408h-2zm1 3.408h6.816v-2h-6.816v2zm5.816-1V222h2v-3.526h-2zm1 2.526H302v2h11.245v-2zm1.836 1h-1v1h1v-1zm0-15.158v-1h-1v1h1zm4.3 0h1v-1h-1v1zm0 7.869h-1v2.812l1.775-2.18-.775-.632zm6.407-7.869v-1h-.475l-.3.369.775.631zm3.375 0h1v-1h-1v1zm0 15.158v1h1v-1h-1zm-4.3 0h-1v1h1v-1zm0-7.869h1v-2.812l-1.775 2.181.775.631zM318.456 222v1h.476l.3-.369-.776-.631zm1.097-16.792l-.424.906.008.004.008.004.408-.914zm-1.548-1.225l-.832.555.009.013.009.013.814-.581zm-.645-1.656l-.301-.953-.812.256.124.842.989-.145zm2.042-.645l.936-.353-.334-.885-.903.285.301.953zm.989 1.376l-.548.837.007.004.006.004.535-.845zm3.483-.064l-.591-.806-.006.004-.007.005.604.797zm.882-1.29l.301-.954-.977-.308-.285.984.961.278zm1.978.623l.984.177.155-.866-.838-.264-.301.953zm-1.462 2.387l-.618-.786-.007.005.625.781zM316.081 222v-15.158h-2V222h2zm-1-14.158h4.3v-2h-4.3v2zm3.3-1v7.869h2v-7.869h-2zm1.775 8.501l6.407-7.869-1.55-1.263-6.407 7.869 1.55 1.263zm5.632-7.501h3.375v-2h-3.375v2zm2.375-1V222h2v-15.158h-2zm1 14.158h-4.3v2h4.3v-2zm-3.3 1v-7.869h-2V222h2zm-1.775-8.5l-6.407 7.869 1.551 1.262 6.407-7.869-1.551-1.262zm-5.632 7.5h-3.375v2h3.375v-2zm3.634-16.34c-.927 0-1.623-.138-2.129-.365l-.816 1.827c.841.375 1.837.538 2.945.538v-2zm-2.113-.357c-.55-.258-.919-.566-1.158-.901l-1.628 1.162c.477.668 1.141 1.177 1.938 1.55l.848-1.811zm-1.14-.875a3.012 3.012 0 01-.488-1.245l-1.978.289c.108.741.379 1.432.802 2.066l1.664-1.11zm-1.176-.147l2.043-.645-.603-1.907-2.042.645.602 1.907zm.806-1.245c.29.768.727 1.433 1.376 1.859l1.097-1.673c-.182-.119-.405-.371-.602-.893l-1.871.707zm1.389 1.867c.646.409 1.435.564 2.277.564v-2c-.62 0-.992-.117-1.206-.253l-1.071 1.689zm2.277.564c.873 0 1.696-.183 2.346-.676l-1.209-1.594c-.181.138-.519.27-1.137.27v2zm2.333-.667a3.36 3.36 0 001.251-1.818l-1.922-.556c-.1.347-.272.585-.512.762l1.183 1.612zm-.011-1.142l1.978.623.602-1.907-1.978-.624-.602 1.908zm1.295-.507c-.127.707-.476 1.29-1.096 1.777l1.236 1.572c.986-.774 1.611-1.783 1.828-2.996l-1.968-.353zm-1.103 1.782c-.561.449-1.378.727-2.557.727v2c1.487 0 2.791-.353 3.807-1.165l-1.25-1.562zM331.668 222h-1v1h1v-1zm0-15.158v-1h-1v1h1zm4.536 0h1v-1h-1v1zm0 11.46h-1v1h1v-1zm4.085 0v1h1v-1h-1zm0-11.46v-1h-1v1h1zm4.515 0h1v-1h-1v1zm0 11.46h-1v1h1v-1zm4.085 0v1h1v-1h-1zm0-11.46v-1h-1v1h1zm4.515 0h1v-1h-1v1zm0 15.158v1h1v-1h-1zm-20.736 0v-15.158h-2V222h2zm-1-14.158h4.536v-2h-4.536v2zm3.536-1v11.46h2v-11.46h-2zm1 12.46h4.085v-2h-4.085v2zm5.085-1v-11.46h-2v11.46h2zm-1-10.46h4.515v-2h-4.515v2zm3.515-1v11.46h2v-11.46h-2zm1 12.46h4.085v-2h-4.085v2zm5.085-1v-11.46h-2v11.46h2zm-1-10.46h4.515v-2h-4.515v2zm3.515-1V222h2v-15.158h-2zm1 14.158h-21.736v2h21.736v-2zm2.493 1h-1v1h1v-1zm0-15.158v-1h-1v1h1zm4.3 0h1v-1h-1v1zm0 7.869h-1v2.812l1.776-2.18-.776-.632zm6.407-7.869v-1h-.475l-.3.369.775.631zm3.376 0h1v-1h-1v1zm0 15.158v1h1v-1h-1zm-4.3 0h-1v1h1v-1zm0-7.869h1v-2.812l-1.776 2.181.776.631zM359.273 222v1h.475l.3-.369-.775-.631zm-2.376 0v-15.158h-2V222h2zm-1-14.158h4.3v-2h-4.3v2zm3.3-1v7.869h2v-7.869h-2zm1.776 8.501l6.407-7.869-1.551-1.263-6.407 7.869 1.551 1.263zm5.631-7.501h3.376v-2h-3.376v2zm2.376-1V222h2v-15.158h-2zm1 14.158h-4.3v2h4.3v-2zm-3.3 1v-7.869h-2V222h2zm-1.776-8.5l-6.407 7.869 1.551 1.262 6.407-7.869-1.551-1.262zm-5.631 7.5h-3.376v2h3.376v-2zm11.104 1l-.797-.604-1.215 1.604h2.012v-1zm5.784-7.633l.797.604.457-.603-.457-.604-.797.603zm-5.698-7.525v-1h-2.011l1.214 1.604.797-.604zm5.418 0l.821-.571-.298-.429h-.523v1zm2.903 4.171l-.821.572.815 1.171.823-1.166-.817-.577zm2.945-4.171v-1h-.518l-.299.424.817.576zm5.418 0l.798.604 1.214-1.604h-2.012v1zm-5.697 7.525l-.797-.603-.459.605.46.604.796-.606zm5.805 7.633v1h2.017l-1.221-1.605-.796.605zm-5.44 0l-.816.577.299.423h.517v-1zm-3.01-4.257l.817-.577-.814-1.151-.817 1.148.814.58zM375.774 222v1h.515l.299-.42-.814-.58zm-4.6.604l5.784-7.633-1.594-1.207-5.784 7.632 1.594 1.208zm5.784-8.84l-5.697-7.525-1.595 1.207 5.698 7.525 1.594-1.207zm-6.495-5.922h5.418v-2h-5.418v2zm4.597-.428l2.903 4.171 1.642-1.143-2.903-4.171-1.642 1.143zm4.541 4.176l2.945-4.171-1.634-1.153-2.945 4.171 1.634 1.153zm2.128-3.748h5.418v-2h-5.418v2zm4.621-1.603l-5.697 7.525 1.594 1.207 5.698-7.525-1.595-1.207zm-5.696 8.734l5.805 7.632 1.592-1.21-5.805-7.633-1.592 1.211zm6.601 6.027h-5.44v2h5.44v-2zm-4.623.423l-3.01-4.257-1.633 1.154 3.01 4.257 1.633-1.154zm-4.641-4.26l-3.032 4.257 1.629 1.16 3.032-4.257-1.629-1.16zM375.774 221h-5.397v2h5.397v-2zm18.273 1h-1v1h1v-1zm0-15.158v-1h-1v1h1zm11.696 1.075l-.615.789.006.005.007.005.602-.799zm.796 4.881l-.826-.564-.003.005.829.559zm-1.634 1.29l-.378-.926-2.579 1.053 2.659.828.298-.955zm1.999 1.333l-.802.597.007.009.795-.606zm-8.428-2.795h-1v1h1v-1zm3.806-.28l.564.826.009-.006-.573-.82zm0-1.87l-.565.825.01.007.01.006.545-.838zm-3.806-.28v-1h-1v1h1zm0 8.45h-1v1h1v-1zm0-2.666v-1h-1v1h1zm-3.429 6.02v-15.158h-2V222h2zm-1-14.158h7.762v-2h-7.762v2zm7.762 0c1.582 0 2.642.335 3.319.864l1.231-1.577c-1.158-.905-2.721-1.287-4.55-1.287v2zm3.332.874c.676.509 1 1.156 1 2.039h2c0-1.496-.608-2.74-1.796-3.636l-1.204 1.597zm1 2.039c0 .592-.15 1.072-.428 1.479l1.652 1.128c.524-.769.776-1.65.776-2.607h-2zm-.431 1.484c-.266.393-.646.704-1.183.923l.756 1.852c.867-.354 1.576-.903 2.085-1.657l-1.658-1.118zm-1.103 2.804c.713.222 1.185.559 1.495.975l1.605-1.194c-.608-.817-1.468-1.368-2.505-1.691l-.595 1.91zm1.502.984c.304.399.483.921.483 1.63h2c0-1.068-.279-2.037-.892-2.842l-1.591 1.212zm.483 1.63c0 1.024-.37 1.783-1.123 2.374l1.236 1.573c1.254-.985 1.887-2.333 1.887-3.947h-2zm-1.123 2.374c-.775.61-1.888.969-3.445.969v2c1.854 0 3.45-.429 4.681-1.396l-1.236-1.573zm-3.445.969h-7.977v2h7.977v-2zm-3.548-7.374h2.451v-2h-2.451v2zm2.451 0c.677 0 1.387-.09 1.919-.454l-1.129-1.651c.008-.005-.036.026-.18.056-.14.029-.339.049-.61.049v2zm1.928-.46c.617-.432.857-1.094.857-1.766h-2c0 .106-.018.145-.018.146l.002-.004a.033.033 0 01.006-.008l.006-.007 1.147 1.639zm.857-1.766c0-.669-.241-1.343-.885-1.762l-1.09 1.676a.086.086 0 01-.022-.019.13.13 0 01-.017-.026c-.004-.009.014.025.014.131h2zm-.866-1.749c-.532-.365-1.242-.455-1.919-.455v2c.271 0 .47.021.61.05.144.029.188.06.18.055l1.129-1.65zm-1.919-.455h-2.451v2h2.451v-2zm-3.451 1v2.43h2v-2.43h-2zm1 9.45h2.924v-2h-2.924v2zm2.924 0c.696 0 1.399-.123 1.949-.529.606-.447.857-1.11.857-1.804h-2c0 .11-.018.159-.024.172-.003.006-.005.011-.021.023-.053.039-.252.138-.761.138v2zm2.806-2.333c0-.694-.251-1.357-.857-1.804-.55-.406-1.253-.529-1.949-.529v2c.509 0 .708.099.761.138.016.012.018.017.021.023a.437.437 0 01.024.172h2zm-2.806-2.333h-2.924v2h2.924v-2zm-3.924 1v2.666h2v-2.666h-2zM410.64 222l-.888-.46-.757 1.46h1.645v-1zm2.429-4.687l.888.46.261-.504-.299-.483-.85.527zm-6.493-10.471v-1h-1.797l.947 1.528.85-.528zm4.859 0l.857-.515-.291-.485h-.566v1zm3.827 6.365l-.857.515.926 1.539.821-1.598-.89-.456zm3.268-6.365v-1h-.611l-.278.544.889.456zm4.752 0l.887.461.758-1.461h-1.645v1zM415.413 222v1h.607l.28-.539-.887-.461zm-3.886.46l2.43-4.687-1.776-.92-2.429 4.687 1.775.92zm2.392-5.674l-6.493-10.471-1.7 1.055 6.493 10.47 1.7-1.054zm-7.343-8.944h4.859v-2h-4.859v2zm4.002-.484l3.827 6.364 1.714-1.031-3.827-6.364-1.714 1.031zm5.574 6.305l3.268-6.364-1.779-.913-3.268 6.364 1.779.913zm2.378-5.821h4.752v-2h-4.752v2zm3.864-1.46l-7.869 15.157 1.775.922 7.869-15.158-1.775-.921zM415.413 221h-4.773v2h4.773v-2zm10.168.85l-.278.96.008.002.008.003.262-.965zm-2.687-1.162l-.932-.363-.305.783.718.435.519-.855zm1.29-3.31l.549-.836-1.032-.679-.449 1.151.932.364zm1.956.859l-.272.963.011.003.01.002.251-.968zm4.429-.021l.46.888.011-.006-.471-.882zm.194-1.892l-.545.838.009.006.009.006.527-.85zm-5.16-.279h-1v1h1v-1zm0-3.484v-1h-1v1h1zm4.73-.236l.482.876.016-.009.016-.01-.514-.857zm-.065-1.677l-.588.809.009.006.008.006.571-.821zm-3.87-.022l.26.966.009-.002.008-.003-.277-.961zm-1.913.839l-.932.363.454 1.166 1.038-.7-.56-.829zm-1.29-3.311l-.567-.824-.653.449.288.738.932-.363zm2.58-1.14l-.265-.964-.003.001.268.963zm7.933.753l-.623.782.005.004.618-.786zm.903 5.031l-.819-.573-.005.006-.005.008.829.559zm-1.634 1.311l-.394-.919-2.473 1.06 2.565.813.302-.954zm1.978 1.312l.796-.606-.796.606zm-.043 4.622l.816.579-.816-.579zm-2.214 1.634l.369.93.007-.003-.376-.927zm-3.698-.419c-1.207 0-2.256-.129-3.157-.374l-.524 1.931c1.106.3 2.336.443 3.681.443v-2zm-3.14-.369a10.095 10.095 0 01-2.447-1.055l-1.038 1.709a12.1 12.1 0 002.928 1.267l.557-1.921zm-2.034.163l1.29-3.311-1.864-.727-1.29 3.311 1.864.727zm-.192-2.839c.646.425 1.396.75 2.234.987l.545-1.925c-.682-.193-1.236-.441-1.68-.733l-1.099 1.671zm2.255.992c.863.224 1.773.333 2.724.333v-2a8.85 8.85 0 01-2.222-.268l-.502 1.935zm2.724.333c.929 0 1.78-.105 2.416-.434l-.919-1.776c-.196.101-.649.21-1.497.21v2zm2.427-.44c.348-.185.655-.449.87-.808.216-.359.304-.755.304-1.149h-2a.416.416 0 01-.009.095.083.083 0 01-.027.045.46.46 0 01-.079.053l.941 1.764zm1.174-1.957a1.9 1.9 0 00-.925-1.667l-1.053 1.7c.015.009.016.012.012.007a.112.112 0 01-.022-.029c-.008-.015-.011-.026-.013-.032l.001.021h2zm-.906-1.655c-.539-.35-1.25-.442-1.943-.442v2.001c.279 0 .487.02.637.05.074.015.127.031.164.044a.468.468 0 01.052.023l1.09-1.676zm-1.943-.442h-3.762v2.001h3.762v-2.001zm-2.762 1.001v-3.484h-2v3.484h2zm-1-2.484h3.332v-2h-3.332v2zm3.332 0c.68 0 1.361-.074 1.88-.36l-.964-1.752c-.055.03-.305.112-.916.112v2zm1.912-.379c.64-.384.916-1.023.916-1.696h-2c0 .072-.013.075.002.044a.214.214 0 01.032-.044c.012-.013.021-.019.021-.018l1.029 1.714zm.916-1.696c0-.73-.392-1.289-.924-1.659l-1.142 1.642c.074.051.087.079.081.069-.003-.006-.008-.015-.011-.028-.004-.013-.004-.022-.004-.024h2zm-.907-1.647c-.585-.425-1.398-.535-2.2-.535v2c.717 0 .979.12 1.024.153l1.176-1.618zm-2.2-.535c-.856 0-1.701.121-2.535.362l.554 1.921a7.137 7.137 0 011.981-.283v-2zm-2.518.357c-.831.224-1.574.544-2.213.975l1.12 1.658c.422-.286.953-.524 1.613-.702l-.52-1.931zm-.721 1.441l-1.29-3.311-1.864.726 1.29 3.311 1.864-.726zm-1.656-2.124c.575-.395 1.327-.735 2.281-1l-.535-1.927c-1.11.308-2.078.728-2.879 1.279l1.133 1.648zm2.278-.999c.949-.26 1.999-.395 3.154-.395v-2c-1.31 0-2.539.153-3.683.466l.529 1.929zm3.154-.395c1.921 0 3.158.38 3.892.965l1.247-1.564c-1.245-.992-3.018-1.401-5.139-1.401v2zm3.897.969c.779.612 1.123 1.326 1.123 2.202h2c0-1.531-.659-2.81-1.887-3.774l-1.236 1.572zm1.123 2.202c0 .611-.152 1.085-.421 1.47l1.638 1.146c.534-.762.783-1.649.783-2.616h-2zm-.431 1.484c-.268.397-.654.718-1.199.951l.788 1.839c.86-.369 1.564-.923 2.069-1.672l-1.658-1.118zm-1.107 2.824c.703.222 1.173.555 1.485.964l1.591-1.212c-.606-.795-1.454-1.337-2.472-1.659l-.604 1.907zm1.485.964c.302.396.483.924.483 1.651h2c0-1.078-.277-2.055-.892-2.863l-1.591 1.212zm.483 1.651c0 .694-.186 1.278-.547 1.787l1.632 1.157c.614-.867.915-1.86.915-2.944h-2zm-.547 1.787c-.351.496-.915.937-1.774 1.286l.752 1.853c1.119-.454 2.031-1.102 2.654-1.982l-1.632-1.157zm-1.767 1.283c-.819.325-1.916.51-3.329.51v2c1.568 0 2.936-.202 4.067-.651l-.738-1.859zm8.302.521l.489-.872-.489.872zm-2.73-2.752l-.884.468.004.007.003.006.877-.481zm0-8.213l-.877-.481-.004.008.881.473zm2.73-2.731l.481.877.008-.004-.489-.873zm8.364 0l-.49.873.009.004.481-.877zm2.73 10.944l.877.481-.877-.481zm-2.73 2.752l-.49-.872.49.872zm-1.914-3.913l-.819-.573-.002.003.821.57zm0-5.87l-.821.571.008.011.813-.582zm-4.558 0l-.821-.57-.003.004.824.566zm0 5.87l-.829.559.008.011.821-.57zm2.279 3.902c-1.467 0-2.682-.3-3.682-.861l-.978 1.744c1.351.758 2.916 1.117 4.66 1.117v-2zm-3.682-.861a5.914 5.914 0 01-2.343-2.361l-1.753.962a7.91 7.91 0 003.118 3.143l.978-1.744zm-2.336-2.348c-.543-1.025-.829-2.229-.829-3.639h-2c0 1.687.344 3.221 1.062 4.575l1.767-.936zm-.829-3.639c0-1.425.287-2.626.827-3.633l-1.762-.946c-.721 1.344-1.065 2.881-1.065 4.579h2zm.822-3.625a5.782 5.782 0 012.335-2.335l-.962-1.753a7.768 7.768 0 00-3.126 3.126l1.753.962zm2.343-2.339c1-.561 2.215-.862 3.682-.862v-2c-1.744 0-3.309.359-4.66 1.117l.978 1.745zm3.682-.862c1.483 0 2.705.302 3.703.862l.979-1.745c-1.352-.758-2.925-1.117-4.682-1.117v2zm3.712.866a5.782 5.782 0 012.335 2.335l1.753-.962a7.768 7.768 0 00-3.126-3.126l-.962 1.753zm2.335 2.335c.551 1.005.844 2.203.844 3.625h2c0-1.702-.353-3.242-1.091-4.587l-1.753.962zm.844 3.625c0 1.423-.293 2.621-.844 3.626l1.753.962c.738-1.345 1.091-2.885 1.091-4.588h-2zm-.844 3.626a5.91 5.91 0 01-2.344 2.361l.979 1.744a7.91 7.91 0 003.118-3.143l-1.753-.962zm-2.344 2.361c-.998.56-2.22.861-3.703.861v2c1.757 0 3.33-.358 4.682-1.117l-.979-1.744zm-3.703-.987c1.283 0 2.387-.454 3.101-1.484l-1.643-1.14c-.261.375-.676.624-1.458.624v2zm3.098-1.481c.66-.942.934-2.15.934-3.519h-2c0 1.126-.228 1.882-.572 2.373l1.638 1.146zm.934-3.519c0-1.366-.273-2.573-.939-3.505l-1.627 1.163c.337.472.566 1.215.566 2.342h2zm-.931-3.494c-.714-1.029-1.818-1.483-3.101-1.483v2c.782 0 1.197.248 1.458.624l1.643-1.141zm-3.101-1.483c-1.282 0-2.386.454-3.1 1.483l1.643 1.141c.26-.376.676-.624 1.457-.624v-2zm-3.103 1.487c-.632.92-.885 2.124-.885 3.49h2c0-1.156.22-1.901.533-2.357l-1.648-1.133zm-.885 3.49c0 1.369.254 2.575.88 3.505l1.659-1.118c-.32-.474-.539-1.232-.539-2.387h-2zm.888 3.516c.714 1.03 1.818 1.484 3.1 1.484v-2c-.781 0-1.197-.249-1.457-.624l-1.643 1.14zM454.831 222h-1v1h1v-1zm0-15.158v-1h-1v1h1zm11.696 1.075l-.616.789.007.005.007.005.602-.799zm.795 4.881l-.825-.564-.003.005.828.559zm-1.634 1.29l-.377-.926-2.579 1.053 2.659.828.297-.955zm2 1.333l-.802.597.007.009.795-.606zm-8.428-2.795h-1v1h1v-1zm3.805-.28l.565.826.009-.006-.574-.82zm0-1.87l-.564.825.01.007.01.006.544-.838zm-3.805-.28v-1h-1v1h1zm0 8.45h-1v1h1v-1zm0-2.666v-1h-1v1h1zm-3.429 6.02v-15.158h-2V222h2zm-1-14.158h7.761v-2h-7.761v2zm7.761 0c1.583 0 2.643.335 3.319.864l1.232-1.577c-1.159-.905-2.722-1.287-4.551-1.287v2zm3.333.874c.675.509.999 1.156.999 2.039h2c0-1.496-.607-2.74-1.795-3.636l-1.204 1.597zm.999 2.039c0 .592-.149 1.072-.427 1.479l1.651 1.128c.525-.769.776-1.65.776-2.607h-2zm-.43 1.484c-.266.393-.646.704-1.183.923l.755 1.852c.868-.354 1.577-.903 2.085-1.657l-1.657-1.118zm-1.103 2.804c.712.222 1.185.559 1.495.975l1.604-1.194c-.607-.817-1.468-1.368-2.504-1.691l-.595 1.91zm1.502.984c.303.399.483.921.483 1.63h2c0-1.068-.279-2.037-.893-2.842l-1.59 1.212zm.483 1.63c0 1.024-.37 1.783-1.123 2.374l1.236 1.573c1.254-.985 1.887-2.333 1.887-3.947h-2zm-1.123 2.374c-.776.61-1.889.969-3.446.969v2c1.855 0 3.451-.429 4.682-1.396l-1.236-1.573zm-3.446.969h-7.976v2h7.976v-2zm-3.547-7.374h2.451v-2h-2.451v2zm2.451 0c.677 0 1.387-.09 1.919-.454l-1.129-1.651c.007-.005-.037.026-.18.056-.141.029-.34.049-.61.049v2zm1.928-.46c.616-.432.856-1.094.856-1.766h-2c0 .106-.017.145-.017.146l.002-.004.005-.008.007-.007 1.147 1.639zm.856-1.766c0-.669-.24-1.343-.885-1.762l-1.089 1.676a.086.086 0 01-.022-.019.154.154 0 01-.018-.026c-.004-.009.014.025.014.131h2zm-.865-1.749c-.532-.365-1.242-.455-1.919-.455v2c.27 0 .469.021.61.05.143.029.187.06.18.055l1.129-1.65zm-1.919-.455h-2.451v2h2.451v-2zm-3.451 1v2.43h2v-2.43h-2zm1 9.45h2.924v-2h-2.924v2zm2.924 0c.696 0 1.399-.123 1.948-.529.607-.447.858-1.11.858-1.804h-2c0 .11-.019.159-.024.172-.003.006-.005.011-.021.023-.053.039-.253.138-.761.138v2zm2.806-2.333c0-.694-.251-1.357-.858-1.804-.549-.406-1.252-.529-1.948-.529v2c.508 0 .708.099.761.138.016.012.018.017.021.023.005.013.024.062.024.172h2zm-2.806-2.333h-2.924v2h2.924v-2zm-3.924 1v2.666h2v-2.666h-2zm18.197 6.02h-1v1h1v-1zm0-15.158v-1h-1v1h1zm11.868 1.333l-.701.713.005.006.696-.719zm0 7.095l-.701-.712.701.712zm-7.224 1.334v-1.001h-1v1.001h1zm0 5.396v1h1v-1h-1zm0-8.923h-1v1h1v-1zm0-2.709v-1h-1v1h1zM477.457 222v-15.158h-2V222h2zm-1-14.158h7.826v-2h-7.826v2zm7.826 0c1.639 0 2.69.406 3.341 1.046l1.402-1.425c-1.155-1.138-2.799-1.621-4.743-1.621v2zm3.346 1.052c.673.651 1.05 1.555 1.05 2.829h2c0-1.707-.525-3.168-1.658-4.266l-1.392 1.437zm1.05 2.829c0 1.256-.375 2.165-1.055 2.835l1.402 1.425c1.126-1.108 1.653-2.564 1.653-4.26h-2zm-1.055 2.835c-.651.64-1.702 1.045-3.341 1.045v2.001c1.944 0 3.588-.483 4.743-1.621l-1.402-1.425zm-3.341 1.045h-3.182v2.001h3.182v-2.001zm-4.182 1.001V222h2v-5.396h-2zm1 4.396h-4.644v2h4.644v-2zm0-6.923h2.558v-2h-2.558v2zm2.558 0c.649 0 1.322-.134 1.842-.577.551-.468.749-1.125.749-1.777h-2c0 .13-.019.199-.03.228-.009.023-.014.025-.016.026-.01.009-.133.1-.545.1v2zm2.591-2.354c0-.652-.198-1.309-.749-1.777-.52-.443-1.193-.578-1.842-.578v2c.412 0 .535.092.545.101.002.001.007.003.016.026.011.029.03.098.03.228h2zm-2.591-2.355h-2.558v2h2.558v-2zm-3.558 1v2.709h2v-2.709h-2zm14.385 10.901l.489-.872-.489.872zm-2.73-2.752l-.884.468.004.007.003.006.877-.481zm0-8.213l-.877-.481-.004.008.881.473zm2.73-2.731l.481.877.008-.004-.489-.873zm8.364 0l-.49.873.009.004.481-.877zm2.73 10.944l.877.481-.877-.481zm-2.73 2.752l-.49-.872.49.872zm-1.914-3.913l-.819-.573-.002.003.821.57zm0-5.87l-.821.571.007.011.814-.582zm-4.558 0l-.821-.57-.003.004.824.566zm0 5.87l-.829.559.008.011.821-.57zm2.279 3.902c-1.467 0-2.682-.3-3.682-.861l-.978 1.744c1.351.758 2.916 1.117 4.66 1.117v-2zm-3.682-.861a5.914 5.914 0 01-2.343-2.361l-1.753.962a7.91 7.91 0 003.118 3.143l.978-1.744zm-2.336-2.348c-.543-1.025-.829-2.229-.829-3.639h-2c0 1.687.344 3.221 1.062 4.575l1.767-.936zm-.829-3.639c0-1.425.287-2.626.827-3.633l-1.762-.946c-.721 1.344-1.065 2.881-1.065 4.579h2zm.822-3.625a5.782 5.782 0 012.335-2.335l-.962-1.753a7.768 7.768 0 00-3.126 3.126l1.753.962zm2.343-2.339c1-.561 2.215-.862 3.682-.862v-2c-1.744 0-3.309.359-4.66 1.117l.978 1.745zm3.682-.862c1.483 0 2.705.302 3.703.862l.979-1.745c-1.352-.758-2.925-1.117-4.682-1.117v2zm3.712.866a5.782 5.782 0 012.335 2.335l1.753-.962a7.768 7.768 0 00-3.126-3.126l-.962 1.753zm2.335 2.335c.551 1.005.844 2.203.844 3.625h2c0-1.702-.353-3.242-1.091-4.587l-1.753.962zm.844 3.625c0 1.423-.293 2.621-.844 3.626l1.753.962c.738-1.345 1.091-2.885 1.091-4.588h-2zm-.844 3.626a5.91 5.91 0 01-2.344 2.361l.979 1.744a7.91 7.91 0 003.118-3.143l-1.753-.962zm-2.344 2.361c-.998.56-2.22.861-3.703.861v2c1.757 0 3.33-.358 4.682-1.117l-.979-1.744zm-3.703-.987c1.283 0 2.386-.454 3.101-1.484l-1.643-1.14c-.261.375-.676.624-1.458.624v2zm3.098-1.481c.66-.942.934-2.15.934-3.519h-2c0 1.126-.228 1.882-.572 2.373l1.638 1.146zm.934-3.519c0-1.366-.273-2.573-.939-3.505l-1.628 1.163c.338.472.567 1.215.567 2.342h2zm-.931-3.494c-.715-1.029-1.818-1.483-3.101-1.483v2c.782 0 1.197.248 1.458.624l1.643-1.141zm-3.101-1.483c-1.282 0-2.386.454-3.1 1.483l1.643 1.141c.26-.376.676-.624 1.457-.624v-2zm-3.103 1.487c-.632.92-.885 2.124-.885 3.49h2c0-1.156.22-1.901.533-2.357l-1.648-1.133zm-.885 3.49c0 1.369.254 2.575.88 3.505l1.659-1.118c-.32-.474-.539-1.232-.539-2.387h-2zm.888 3.516c.714 1.03 1.818 1.484 3.1 1.484v-2c-.781 0-1.197-.249-1.457-.624l-1.643 1.14zm16.655 3.365l-.472.881.013.007.459-.888zm-2.881-2.753l-.868.498.005.008.863-.506zm0-8.234l-.863-.505-.002.003.865.502zm2.881-2.731l.464.887.003-.002-.467-.885zm7.245-.58l-.301.953.009.003.009.003.283-.959zm2.172 1.118l.937.349.245-.657-.534-.454-.648.762zm-1.355 3.633l-.554.833 1.05.7.441-1.183-.937-.35zm-1.741-.881l-.316.949.012.004.012.003.292-.956zm-4.429.731l-.723-.691.723.691zm0 5.676l-.731.683.008.008.008.008.715-.699zm4.429.731l.292.956.012-.003.012-.004-.316-.949zm1.741-.903l.937-.349-.441-1.183-1.05.7.554.832zm1.355 3.634l.648.761.534-.454-.245-.657-.937.35zm-2.172 1.139l.288.958.01-.003-.298-.955zm-2.838-.613c-1.563 0-2.869-.298-3.948-.856l-.918 1.777c1.415.732 3.048 1.079 4.866 1.079v-2zm-3.935-.849c-1.075-.575-1.898-1.364-2.49-2.376l-1.726 1.011a8.199 8.199 0 003.272 3.128l.944-1.763zm-2.485-2.368c-.574-1.001-.879-2.199-.879-3.631h-2c0 1.723.37 3.276 1.143 4.626l1.736-.995zm-.879-3.631c0-1.431.305-2.62.876-3.604l-1.73-1.004c-.776 1.338-1.146 2.887-1.146 4.608h2zm.874-3.601a6.05 6.05 0 012.482-2.349l-.928-1.773a8.057 8.057 0 00-3.28 3.112l1.726 1.01zm2.485-2.351c1.077-.57 2.38-.874 3.94-.874v-2c-1.822 0-3.457.356-4.874 1.105l.934 1.769zm3.94-.874c.945 0 1.787.125 2.537.362l.603-1.906c-.97-.308-2.02-.456-3.14-.456v2zm2.555.368c.769.227 1.36.541 1.807.921l1.296-1.524c-.7-.595-1.556-1.026-2.537-1.315l-.566 1.918zm1.518-.19l-1.355 3.633 1.874.699 1.355-3.634-1.874-.698zm.137 3.15c-.694-.462-1.364-.81-2.004-1.005l-.584 1.912c.392.12.883.36 1.479.758l1.109-1.665zm-1.98-.998a6.501 6.501 0 00-2.058-.309v2c.557 0 1.029.074 1.426.207l.632-1.898zm-2.058-.309c-1.355 0-2.542.391-3.41 1.298l1.446 1.382c.393-.411.998-.68 1.964-.68v-2zm-3.41 1.298c-.853.892-1.202 2.117-1.202 3.507h2c0-1.074.268-1.727.648-2.125l-1.446-1.382zm-1.202 3.507c0 1.403.348 2.638 1.194 3.543l1.461-1.366c-.386-.413-.655-1.085-.655-2.177h-2zm1.21 3.559c.869.889 2.053 1.268 3.402 1.268v-2c-.973 0-1.58-.265-1.972-.666l-1.43 1.398zm3.402 1.268c.726 0 1.407-.088 2.034-.28l-.584-1.912a4.99 4.99 0 01-1.45.192v2zm2.058-.287c.628-.21 1.29-.56 1.98-1.02l-1.109-1.664c-.6.4-1.099.652-1.503.786l.632 1.898zm.488-1.503l1.355 3.634 1.874-.699-1.355-3.633-1.874.698zm1.644 2.523c-.451.383-1.048.705-1.821.946l.595 1.91c.976-.304 1.826-.741 2.522-1.333l-1.296-1.523zm-1.811.943c-.754.226-1.602.345-2.551.345v2c1.116 0 2.16-.139 3.126-.429l-.575-1.916zm7.445.378l-.471.881.012.007.459-.888zm-2.881-2.753l-.867.498.004.008.863-.506zm0-8.234l-.863-.505-.002.003.865.502zm2.881-2.731l.464.887.004-.002-.468-.885zm7.246-.58l-.302.953.009.003.01.003.283-.959zm2.171 1.118l.937.349.245-.657-.534-.454-.648.762zm-1.354 3.633l-.555.833 1.051.7.441-1.183-.937-.35zm-1.742-.881l-.316.949.012.004.012.003.292-.956zm-4.429.731l-.722-.691h-.001l.723.691zm0 5.676l-.73.683.007.008.008.008.715-.699zm4.429.731l.293.956.012-.003.012-.004-.317-.949zm1.742-.903l.937-.349-.441-1.183-1.051.7.555.832zm1.354 3.634l.648.761.534-.454-.245-.657-.937.35zm-2.171 1.139l.287.958.01-.003-.297-.955zm-2.838-.613c-1.564 0-2.87-.298-3.948-.856l-.919 1.777c1.415.732 3.048 1.079 4.867 1.079v-2zm-3.936-.849a6.206 6.206 0 01-2.49-2.376l-1.726 1.011c.784 1.339 1.882 2.384 3.273 3.128l.943-1.763zm-2.485-2.368c-.574-1.001-.878-2.199-.878-3.631h-2c0 1.723.369 3.276 1.143 4.626l1.735-.995zm-.878-3.631c0-1.431.304-2.62.875-3.604l-1.73-1.004c-.776 1.338-1.145 2.887-1.145 4.608h2zm.873-3.601a6.056 6.056 0 012.482-2.349l-.927-1.773a8.06 8.06 0 00-3.281 3.112l1.726 1.01zm2.486-2.351c1.077-.57 2.379-.874 3.94-.874v-2c-1.822 0-3.458.356-4.875 1.105l.935 1.769zm3.94-.874c.944 0 1.786.125 2.536.362l.604-1.906c-.971-.308-2.02-.456-3.14-.456v2zm2.555.368c.768.227 1.36.541 1.807.921l1.295-1.524c-.7-.595-1.556-1.026-2.536-1.315l-.566 1.918zm1.517-.19l-1.354 3.633 1.874.699 1.354-3.634-1.874-.698zm.137 3.15c-.693-.462-1.364-.81-2.003-1.005l-.585 1.912c.392.12.883.36 1.479.758l1.109-1.665zm-1.979-.998a6.506 6.506 0 00-2.058-.309v2c.557 0 1.028.074 1.425.207l.633-1.898zm-2.058-.309c-1.356 0-2.543.391-3.41 1.298l1.445 1.382c.394-.411.998-.68 1.965-.68v-2zm-3.411 1.298c-.852.892-1.201 2.117-1.201 3.507h2c0-1.074.267-1.727.647-2.125l-1.446-1.382zm-1.201 3.507c0 1.403.347 2.638 1.194 3.543l1.461-1.366c-.387-.413-.655-1.085-.655-2.177h-2zm1.209 3.559c.869.889 2.054 1.268 3.403 1.268v-2c-.973 0-1.58-.265-1.973-.666l-1.43 1.398zm3.403 1.268c.725 0 1.406-.088 2.034-.28l-.585-1.912a4.987 4.987 0 01-1.449.192v2zm2.058-.287c.627-.21 1.289-.56 1.979-1.02l-1.109-1.664c-.6.4-1.099.652-1.503.786l.633 1.898zm.488-1.503l1.354 3.634 1.874-.699-1.354-3.633-1.874.698zm1.644 2.523c-.451.383-1.049.705-1.822.946l.595 1.91c.976-.304 1.826-.741 2.522-1.333l-1.295-1.523zm-1.812.943c-.754.226-1.601.345-2.55.345v2c1.115 0 2.159-.139 3.125-.429l-.575-1.916zm4.235 1.087h-1v1h1v-1zm0-15.158v-1h-1v1h1zm4.3 0h1v-1h-1v1zm0 7.869h-1v2.812l1.775-2.18-.775-.632zm6.407-7.869v-1h-.476l-.3.369.776.631zm3.375 0h1v-1h-1v1zm0 15.158v1h1v-1h-1zm-4.3 0h-1v1h1v-1zm0-7.869h1v-2.812l-1.775 2.181.775.631zM541.183 222v1h.475l.3-.369-.775-.631zm-2.375 0v-15.158h-2V222h2zm-1-14.158h4.3v-2h-4.3v2zm3.3-1v7.869h2v-7.869h-2zm1.775 8.501l6.407-7.869-1.551-1.263-6.407 7.869 1.551 1.263zm5.632-7.501h3.375v-2h-3.375v2zm2.375-1V222h2v-15.158h-2zm1 14.158h-4.3v2h4.3v-2zm-3.3 1v-7.869h-2V222h2zm-1.775-8.5l-6.407 7.869 1.55 1.262 6.408-7.869-1.551-1.262zm-5.632 7.5h-3.375v2h3.375v-2zm13.211 1h-1v1h1v-1zm0-15.158v-1h-1v1h1zm4.3 0h1v-1h-1v1zm0 7.869h-1v2.812l1.776-2.18-.776-.632zm6.407-7.869v-1h-.475l-.3.369.775.631zm3.376 0h1v-1h-1v1zm0 15.158v1h1v-1h-1zm-4.3 0h-1v1h1v-1zm0-7.869h1v-2.812l-1.776 2.181.776.631zM557.77 222v1h.475l.3-.369-.775-.631zm-2.376 0v-15.158h-2V222h2zm-1-14.158h4.3v-2h-4.3v2zm3.3-1v7.869h2v-7.869h-2zm1.776 8.501l6.407-7.869-1.551-1.263-6.407 7.869 1.551 1.263zm5.631-7.501h3.376v-2h-3.376v2zm2.376-1V222h2v-15.158h-2zm1 14.158h-4.3v2h4.3v-2zm-3.3 1v-7.869h-2V222h2zm-1.776-8.5l-6.406 7.869 1.55 1.262 6.407-7.869-1.551-1.262zm-5.631 7.5h-3.376v2h3.376v-2z" fill="#fff" mask="url(#b)"/></svg>