<svg width="360" height="278" fill="none" xmlns="http://www.w3.org/2000/svg"><g opacity=".1" stroke="#fff" stroke-miterlimit="10"><path d="M-498 48.102s24.32 0 66.372.062c21.18-.493 42.298-1.108 63.293-2.217 237.536-43.586 469.961-9.357 706.08 2.155h210.814c72.713 2.155 154.724 2.155 229.593 0H1057m-1555 81.817s15.577-.001 43.16.061c24.197-1.847 48.332-4.063 72.221-7.572 231.317-78.984 477.41-51.65 719.379 7.141 20.318.308 39.712.37 58.922.37h661.198"/><path d="M-498 211.735s15.577 0 43.037.061c20.995 2.709 41.252 2.524 60.892-.492 78.686-17.546 140.194-72.213 222.266-92.713 177.752-41 328.166 54.667 499.699 79.231 23.581 4.063 45.93 8.68 67.849 13.913h661.197"/><path d="M-498 293.612h43.407c14.284.678 28.876 1.601 43.283 1.97 95.925 14.406 136.931-88.095 219.003-115.429 68.342-27.333 143.58-13.667 211.922 6.834 102.575 34.167 198.254 75.167 308.71 89.511 23.273 4.987 45.376 10.466 67.234 16.253 19.394.8 38.542.8 57.506.861h603.815"/><path d="M-498 375.429h43.53c13.976 0 31.092 0 50.733-.062 40.451-10.712 95.125 9.85 122.462-24.379 170.917-198.23 410.176-20.5 611.324 4.187a1143.82 1143.82 0 0165.51 19.269c19.332.861 38.481.861 57.506.923h603.815"/><path d="M74.537 613.428c-4.803-24.194-9.667-48.265-15.208-72.212C-21.45 330.488-83.02 98.091 73.305-98.108c1.232-19.454 1.54-38.907 1.54-58.361v-285.464c-.616-82.001-.616-164.063 0-249.019v-242.925"/><path d="M156.547 615.521c-2.77-21.67-5.356-43.34-7.819-65.071-3.509-21.608-6.834-43.278-10.959-64.887C53.788 289.488 94.793 91.257 156.055-98.17c.677-25.486.677-51.035.677-76.522V-301.51a3567.27 3567.27 0 001.847-63.039c.431-21.055.678-42.171.739-63.533-2.955-130.081-2.955-253.143-2.586-379.654v-126.202m81.827 1553.153c-.678-22.039-1.293-44.079-1.724-66.056-.555-22.163-.986-44.264-1.478-66.549-44.884-169.789-17.547-347.519 2.709-526.85.493-19.269.493-38.6.493-57.991v-101.947a1215.504 1215.504 0 005.725-45.002 1367.819 1367.819 0 003.879-44.017c17.548-207.403-9.789-405.634-9.604-611.005v-33.613m81.82 1554.692V413.105c0-22.778-.184-45.495-.677-68.088-6.157-110.135.677-219.531.739-327.819v-142.393c8.558-20.808 15.577-41.74 21.303-62.855 40.205-246.988-28.137-499.886-21.303-745.765"/></g></svg>