<svg width="321" height="218" fill="none" xmlns="http://www.w3.org/2000/svg"><path d="M8.917 19.234c-1.456 0-2.717-.299-3.783-.897a6.267 6.267 0 01-2.477-2.496c-.571-1.079-.857-2.32-.857-3.724 0-1.418.286-2.659.858-3.725a6.138 6.138 0 012.476-2.476c1.066-.599 2.327-.897 3.783-.897 1.469 0 2.736.298 3.803.896a6.138 6.138 0 012.476 2.477c.585 1.066.877 2.308.877 3.725 0 1.416-.292 2.658-.877 3.724a6.267 6.267 0 01-2.476 2.496c-1.067.598-2.334.897-3.803.897zm0-3.49c.936 0 1.625-.319 2.067-.956.455-.65.682-1.54.682-2.671 0-1.132-.227-2.016-.682-2.653-.442-.636-1.131-.955-2.067-.955-.936 0-1.625.319-2.067.955-.429.624-.643 1.508-.643 2.652 0 1.145.214 2.035.643 2.672.442.637 1.131.955 2.067.955zM18.013 19V5.253h10.861v3.159H22.01V10.4h3.335c1.547 0 2.769.377 3.666 1.131.897.742 1.345 1.794 1.345 3.16 0 1.377-.448 2.443-1.345 3.197-.897.741-2.12 1.112-3.666 1.112h-7.332zm3.997-3.1h2.75c.598 0 1.02-.098 1.267-.293.26-.208.39-.513.39-.916 0-.404-.13-.703-.39-.898-.247-.194-.67-.292-1.267-.292h-2.75V15.9zM34.84 19V8.607h-3.842V5.253h8.015V10.4h3.14c1.546 0 2.768.377 3.665 1.131.91.742 1.365 1.794 1.365 3.16 0 1.377-.455 2.443-1.365 3.197C44.921 18.63 43.7 19 42.152 19H34.84zm4.173-3.1h2.574c.598 0 1.02-.098 1.267-.293.247-.208.37-.513.37-.916 0-.404-.123-.703-.37-.898-.247-.207-.67-.311-1.267-.311h-2.574V15.9zm9.716 3.1V5.253h10.199V8.45h-6.182v1.97h5.714v3.198h-5.714v2.184h6.182V19H48.729zm10.908 3.51v-6.669h1.443c1.066-1.326 1.6-3.627 1.6-6.903V5.252h11.075v10.589h2.009v6.669h-3.588V19h-8.95v3.51h-3.589zm5.558-6.669h4.387v-7.43h-3.08v.995c0 2.886-.436 5.031-1.307 6.435zM77.332 19V5.253h3.9v7.136l5.81-7.136h3.062V19h-3.9v-7.137L80.394 19h-3.062zm15.044 0V5.253h4.212v5.07h4.699v-5.07h4.212V19h-4.212v-5.245h-4.7V19h-4.211zm14.528 0l2.126-3.725c.455-.767 1.046-1.26 1.774-1.482-1.014-.272-1.787-.766-2.32-1.481-.533-.728-.8-1.619-.8-2.672 0-1.365.442-2.438 1.326-3.218.884-.78 2.132-1.17 3.744-1.17h7.137V19h-4.173v-4.914h-.624c-.533 0-.916.195-1.15.585L111.487 19h-4.583zm6.591-7.82h2.223V8.413h-2.223c-1.235 0-1.852.461-1.852 1.384 0 .923.617 1.385 1.852 1.385zm8.664 7.82V5.253h10.198V8.45h-6.181v1.97h5.713v3.198h-5.713v2.184h6.181V19h-10.198zm11.922 0V5.253h3.666l3.842 8.599 3.841-8.6h3.666V19h-3.802v-5.44L142.72 19h-2.321l-2.515-5.323V19h-3.803zm26.217 0V8.646h-3.978V5.252h12.168v3.394h-3.978V19h-4.212zm6.018 0l6.532-13.747h3.413L182.832 19h-4.212l-1.131-2.555h-5.85L170.508 19h-4.192zm8.229-9.457l-1.56 3.724h3.217l-1.56-3.724h-.097zm9.892 9.847l-2.106-2.925c.741-.442 1.332-.962 1.774-1.56.455-.598.78-1.332.975-2.204.195-.87.293-1.917.293-3.139v-4.31h11.095V19h-4.173V8.607h-3.081v1.989c0 2.197-.429 4.036-1.287 5.518-.845 1.482-2.008 2.574-3.49 3.276zm12.5-.39l6.532-13.747h3.413L213.453 19h-4.212l-1.131-2.555h-5.85L201.129 19h-4.192zm8.229-9.457l-1.56 3.724h3.217l-1.56-3.724h-.097zM213.927 19V5.253h4.212v5.07h4.699v-5.07h4.212V19h-4.212v-5.245h-4.699V19h-4.212zm18.468 0V8.646h-3.978V5.252h12.168v3.394h-3.978V19h-4.212zm10.504.39l-2.106-2.925c.741-.442 1.332-.962 1.774-1.56.455-.598.78-1.332.975-2.204.195-.87.293-1.917.293-3.139v-4.31h11.095V19h-4.173V8.607h-3.081v1.989c0 2.197-.429 4.036-1.287 5.518-.845 1.482-2.008 2.574-3.49 3.276zm14.294-.39V5.253h3.9v7.136l5.811-7.136h3.061V19h-3.9v-7.137L260.254 19h-3.061zm15.043 0V5.253h7.04c1.547 0 2.736.324 3.568.974.845.637 1.268 1.495 1.268 2.575 0 .702-.182 1.319-.546 1.852-.351.52-.845.91-1.482 1.17.793.247 1.397.65 1.813 1.209.416.546.624 1.222.624 2.028 0 1.196-.455 2.151-1.365 2.866-.91.715-2.138 1.073-3.685 1.073h-7.235zm4.017-8.502h2.223c.572 0 .982-.084 1.229-.253.26-.182.39-.468.39-.858 0-.39-.13-.67-.39-.839-.247-.169-.657-.254-1.229-.254h-2.223v2.204zm0 5.46h2.652c1.092 0 1.638-.403 1.638-1.209s-.546-1.209-1.638-1.209h-2.652v2.418zM287.285 19l2.204-4.251-5.889-9.497h4.407l3.471 5.772 2.964-5.771h4.309L291.614 19h-4.329zm24.999.234c-1.222 0-2.321-.228-3.296-.683a6.487 6.487 0 01-2.418-1.91c-.624-.832-1.046-1.807-1.267-2.925h-1.833V19h-4.173V5.253h4.173v5.108h1.852c.234-1.091.67-2.034 1.307-2.827a6.25 6.25 0 012.398-1.853c.962-.442 2.048-.662 3.257-.662 1.443 0 2.704.298 3.783.896a6.233 6.233 0 012.515 2.477c.598 1.066.897 2.308.897 3.725 0 1.416-.305 2.664-.916 3.743a6.365 6.365 0 01-2.516 2.497c-1.079.585-2.333.877-3.763.877zm.019-3.452c.884 0 1.58-.325 2.087-.975.507-.65.76-1.546.76-2.69 0-1.145-.253-2.035-.76-2.672-.507-.65-1.203-.975-2.087-.975-.884 0-1.579.319-2.086.955-.494.637-.741 1.534-.741 2.691 0 1.145.247 2.042.741 2.691.507.65 1.202.976 2.086.976z" fill="#fff"/><mask id="a" maskUnits="userSpaceOnUse" x="1" y="40" width="319" height="36" fill="#000"><path fill="#fff" d="M1 40h319v36H1z"/><path d="M2.824 69V47.92h5.621l5.89 13.186 5.89-13.186h5.622V69h-5.83v-8.342L16.07 69h-3.56l-3.857-8.163V69h-5.83zm36.974.359c-2.232 0-4.166-.459-5.8-1.376a9.61 9.61 0 01-3.798-3.827c-.877-1.654-1.315-3.558-1.315-5.71 0-2.173.438-4.077 1.315-5.712a9.412 9.412 0 013.798-3.797c1.634-.917 3.568-1.375 5.8-1.375 2.253 0 4.196.458 5.83 1.375a9.412 9.412 0 013.798 3.797c.897 1.635 1.346 3.539 1.346 5.711 0 2.173-.449 4.077-1.346 5.711a9.61 9.61 0 01-3.797 3.827c-1.635.917-3.578 1.376-5.83 1.376zm0-5.352c1.435 0 2.492-.489 3.17-1.465.697-.997 1.046-2.363 1.046-4.097 0-1.734-.349-3.09-1.046-4.066-.678-.977-1.735-1.465-3.17-1.465-1.435 0-2.491.488-3.17 1.465-.657.957-.986 2.312-.986 4.066s.33 3.12.987 4.097c.678.976 1.734 1.465 3.17 1.465zm15.535 5.591l-3.229-4.485c1.136-.678 2.043-1.475 2.721-2.392.698-.917 1.196-2.043 1.495-3.379.3-1.335.449-2.94.449-4.814V47.92h17.013V69h-6.399V53.063H62.66v3.05c0 3.369-.658 6.19-1.974 8.462-1.295 2.272-3.08 3.947-5.352 5.023zm32.323-.24c-2.233 0-4.166-.458-5.8-1.375a9.61 9.61 0 01-3.798-3.827c-.877-1.654-1.316-3.558-1.316-5.71 0-2.173.439-4.077 1.316-5.712a9.412 9.412 0 013.797-3.797c1.635-.917 3.568-1.375 5.8-1.375 2.253 0 4.197.458 5.831 1.375a9.412 9.412 0 013.798 3.797c.897 1.635 1.345 3.539 1.345 5.711 0 2.173-.448 4.077-1.345 5.711a9.61 9.61 0 01-3.798 3.827c-1.634.917-3.578 1.376-5.83 1.376zm0-5.351c1.435 0 2.491-.489 3.17-1.465.697-.997 1.046-2.363 1.046-4.097 0-1.734-.35-3.09-1.047-4.066-.678-.977-1.734-1.465-3.17-1.465-1.434 0-2.49.488-3.169 1.465-.657.957-.986 2.312-.986 4.066s.329 3.12.986 4.097c.678.976 1.735 1.465 3.17 1.465zm11.898 10.375V64.156h2.212c1.635-2.033 2.452-5.561 2.452-10.584V47.92h16.983v16.236h3.08v10.226h-5.502V69h-13.724v5.382h-5.501zm8.521-10.226h6.728V52.764h-4.725v1.525c0 4.425-.667 7.714-2.003 9.867zM126.685 69V47.92h15.638v4.904h-9.479v3.02h8.761v4.904h-8.761v3.348h9.479V69h-15.638zm9.299-22.724v-5.053h5.023v5.053h-5.023zm-6.459 0v-5.053h5.024v5.053h-5.024zM142.873 69l3.917-7.834c.438-.877.917-1.624 1.435-2.242a7.351 7.351 0 011.824-1.525l-6.13-9.479h6.967l4.933 8.163h1.047V47.92h6.129v8.163h1.077l4.874-8.163h6.966l-6.129 9.479a6.492 6.492 0 011.824 1.555c.538.617 1.026 1.355 1.465 2.212L176.959 69h-6.907l-2.721-5.83c-.319-.698-.728-1.197-1.226-1.495-.498-.3-1.186-.449-2.063-.449h-1.047V69h-6.129v-7.774h-1.047c-.857 0-1.534.15-2.033.449-.498.299-.917.797-1.256 1.495L149.78 69h-6.907zm55.492.359c-2.352 0-4.396-.449-6.13-1.346-1.714-.917-3.05-2.192-4.006-3.827-.937-1.634-1.406-3.548-1.406-5.74 0-2.193.469-4.097 1.406-5.712.956-1.634 2.292-2.9 4.006-3.797 1.734-.917 3.778-1.375 6.13-1.375 1.435 0 2.751.19 3.947.568 1.215.359 2.222.877 3.019 1.555l-1.883 5.053c-.897-.598-1.705-1.007-2.422-1.226-.718-.24-1.525-.359-2.422-.359-1.615 0-2.86.459-3.738 1.375-.857.897-1.285 2.203-1.285 3.917 0 1.734.428 3.06 1.285 3.977.878.897 2.123 1.346 3.738 1.346.897 0 1.704-.11 2.422-.33.717-.239 1.525-.657 2.422-1.255l1.883 5.053c-.797.678-1.804 1.206-3.019 1.585-1.196.358-2.512.538-3.947.538zM212.233 69V53.123h-6.1V47.92h18.658v5.203h-6.1V69h-6.458zm14.664 0V47.92h10.883c2.492 0 4.366.618 5.621 1.854 1.256 1.216 1.884 2.86 1.884 4.934 0 2.053-.628 3.697-1.884 4.933-1.255 1.236-3.129 1.854-5.621 1.854h-4.425V69h-6.458zm6.458-12.408h3.558c1.475 0 2.213-.628 2.213-1.884 0-1.256-.738-1.884-2.213-1.884h-3.558v3.768zM242.658 69l10.017-21.08h5.232L267.983 69h-6.458l-1.734-3.917h-8.97L249.087 69h-6.429zm12.618-14.502l-2.392 5.711h4.933l-2.392-5.71h-.149zM268.71 69V47.92h6.458v7.774h7.206V47.92h6.459V69h-6.459v-8.043h-7.206V69h-6.458zm23.593 0V47.92h6.398v7.894h3.917c2.372 0 4.246.578 5.622 1.734 1.375 1.136 2.063 2.751 2.063 4.844 0 2.113-.688 3.748-2.063 4.904-1.376 1.136-3.25 1.704-5.622 1.704h-10.315zm20.212 0V47.92h6.399V69h-6.399zm-13.814-4.754h3.02c.917 0 1.565-.15 1.944-.449.399-.319.598-.787.598-1.405s-.199-1.076-.598-1.375c-.379-.32-1.027-.479-1.944-.479h-3.02v3.708z"/></mask><path d="M2.824 69h-1v1h1v-1zm0-21.08v-1h-1v1h1zm5.621 0l.913-.407-.264-.593h-.649v1zm5.89 13.186l-.913.408.913 2.044.913-2.044-.913-.408zm5.89-13.186v-1h-.648l-.264.593.913.407zm5.622 0h1v-1h-1v1zm0 21.08v1h1v-1h-1zm-5.83 0h-1v1h1v-1zm0-8.342h1l-1.904-.428.903.428zM16.07 69v1h.633l.27-.572L16.07 69zm-3.559 0l-.904.427.271.573h.633v-1zm-3.857-8.163l.905-.427-1.905.427h1zm0 8.163v1h1v-1h-1zm-4.83 0V47.92h-2V69h2zm-1-20.08h5.621v-2H2.824v2zm4.708-.592l5.89 13.186 1.826-.816-5.89-13.185-1.826.815zm7.716 13.186l5.89-13.186-1.825-.815-5.89 13.186 1.825.815zm4.978-12.594h5.62v-2h-5.62v2zm4.62-1V69h2V47.92h-2zm1 20.08h-5.83v2h5.83v-2zm-4.83 1v-8.342h-2V69h2zm-1.903-8.77l-3.947 8.342 1.808.856 3.946-8.342-1.808-.856zM16.07 68h-3.56v2h3.559v-2zm-2.654.573L9.559 60.41l-1.809.855 3.857 8.162 1.809-.854zm-5.762-7.736V69h2v-8.163h-2zm1 7.163h-5.83v2h5.83v-2zm25.344-.017l.489-.872-.49.872zM30.2 64.156l-.883.469.003.006.004.006.876-.48zm0-11.422l-.876-.48-.005.008.881.472zm3.798-3.797l.48.877.009-.005-.49-.872zm11.63 0l-.489.872.009.005.48-.877zm3.798 3.797l.877-.48-.877.48zm0 11.422l.877.481-.877-.48zm-3.797 3.827l-.49-.872.49.872zm-2.661-5.441l-.82-.574-.002.003.822.57zm0-8.163l-.822.57.008.011.814-.581zm-6.34 0l-.82-.57-.003.003.824.567zm0 8.163l-.829.558.008.012.822-.57zm3.17 5.817c-2.094 0-3.852-.43-5.311-1.248l-.979 1.745c1.81 1.015 3.92 1.503 6.29 1.503v-2zm-5.311-1.248a8.61 8.61 0 01-3.41-3.436l-1.753.962c.987 1.8 2.388 3.21 4.184 4.219l.979-1.745zm-3.403-3.423c-.79-1.49-1.2-3.229-1.2-5.243h-2c0 2.292.469 4.36 1.433 6.18l1.767-.937zm-1.2-5.243c0-2.036.41-3.772 1.197-5.238l-1.762-.945c-.967 1.803-1.434 3.874-1.434 6.183h2zm1.193-5.23a8.412 8.412 0 013.402-3.401l-.962-1.754a10.413 10.413 0 00-4.193 4.193l1.753.962zm3.41-3.406c1.459-.818 3.217-1.247 5.311-1.247v-2c-2.37 0-4.48.488-6.29 1.503l.979 1.744zm5.311-1.247c2.116 0 3.884.43 5.341 1.247l.979-1.744c-1.811-1.016-3.93-1.503-6.32-1.503v2zm5.35 1.252a8.412 8.412 0 013.401 3.401l1.754-.962a10.413 10.413 0 00-4.193-4.193l-.962 1.754zm3.401 3.401c.804 1.465 1.223 3.198 1.223 5.23h2c0-2.313-.479-4.387-1.47-6.192l-1.753.962zm1.223 5.23c0 2.033-.419 3.766-1.223 5.23l1.754.962c.99-1.804 1.469-3.879 1.469-6.192h-2zm-1.223 5.23a8.61 8.61 0 01-3.41 3.436l.979 1.745a10.608 10.608 0 004.185-4.219l-1.754-.962zm-3.41 3.436c-1.457.818-3.225 1.248-5.34 1.248v2c2.389 0 4.508-.487 6.319-1.503l-.979-1.745zm-5.34-2.104c1.685 0 3.086-.592 3.99-1.895l-1.643-1.14c-.45.65-1.163 1.035-2.348 1.035v2zm3.988-1.892c.856-1.222 1.227-2.814 1.227-4.67h-2c0 1.613-.326 2.752-.866 3.523l1.639 1.147zm1.227-4.67c0-1.853-.37-3.44-1.233-4.647l-1.627 1.162c.533.747.86 1.87.86 3.485h2zM43.79 53.81c-.904-1.304-2.305-1.895-3.99-1.895v2c1.184 0 1.896.385 2.347 1.035l1.643-1.14zm-3.99-1.895c-1.686 0-3.087.591-3.992 1.895l1.643 1.14c.451-.65 1.163-1.035 2.348-1.035v-2zm-3.994 1.898c-.817 1.189-1.163 2.774-1.163 4.633h2c0-1.648.313-2.775.81-3.5l-1.647-1.133zm-1.163 4.633c0 1.862.346 3.45 1.157 4.655l1.66-1.117c-.505-.75-.817-1.89-.817-3.538h-2zm1.165 4.667c.905 1.303 2.306 1.895 3.991 1.895v-2c-1.184 0-1.897-.386-2.348-1.035l-1.643 1.14zm19.526 6.486l-.811.584.487.676.752-.356-.428-.904zm-3.229-4.485l-.512-.859-.936.559.637.884.811-.584zm2.721-2.392l-.796-.606-.008.012.804.594zm1.944-14.8v-1h-1v1h1zm17.013 0h1v-1h-1v1zm0 21.079v1h1v-1h-1zm-6.399 0h-1v1h1v-1zm0-15.937h1v-1h-1v1zm-4.724 0v-1h-1v1h1zm-1.974 11.512l-.865-.501-.003.005.868.496zm-4.54 4.439l-3.23-4.485-1.622 1.168 3.229 4.485 1.623-1.168zm-3.529-3.042c1.233-.735 2.245-1.617 3.013-2.657l-1.608-1.188c-.587.794-1.389 1.507-2.429 2.127l1.025 1.718zm3.005-2.645c.8-1.051 1.35-2.316 1.675-3.766l-1.952-.437c-.273 1.22-.719 2.209-1.315 2.991l1.592 1.212zm1.675-3.766c.32-1.428.473-3.11.473-5.033h-2c0 1.825-.146 3.353-.425 4.596l1.952.437zm.473-5.033V47.92h-2v6.608h2zm-1-5.608h17.013v-2H56.769v2zm16.013-1V69h2V47.92h-2zm1 20.08h-6.399v2h6.399v-2zm-5.399 1V53.063h-2V69h2zm-1-16.937H62.66v2h4.724v-2zm-5.724 1v3.05h2v-3.05h-2zm0 3.05c0 3.242-.633 5.878-1.839 7.96l1.731 1.003c1.425-2.462 2.108-5.467 2.108-8.963h-2zm-1.842 7.966c-1.199 2.102-2.832 3.63-4.912 4.615l.856 1.808c2.466-1.168 4.4-2.989 5.793-5.432l-1.737-.99zm22.038 3.904l.49-.872-.49.872zm-3.797-3.827l-.884.469.004.006.003.006.877-.48zm0-11.422l-.877-.48-.004.008.88.472zm3.797-3.797l.481.877.008-.005-.489-.872zm11.631 0l-.489.872.008.005.481-.877zm3.798 3.797l.876-.48-.876.48zm0 11.422l.876.481-.876-.48zm-3.798 3.827l-.489-.872.49.872zm-2.66-5.441l-.82-.574-.002.003.821.57zm0-8.163l-.822.57.007.011.814-.581zm-6.34 0l-.821-.57-.003.003.824.567zm0 8.163l-.83.558.009.012.821-.57zm3.17 5.817c-2.094 0-3.853-.43-5.312-1.248l-.978 1.745c1.81 1.015 3.919 1.503 6.29 1.503v-2zm-5.312-1.248a8.61 8.61 0 01-3.41-3.436l-1.753.962c.988 1.8 2.388 3.21 4.185 4.219l.978-1.745zm-3.403-3.423c-.79-1.49-1.199-3.229-1.199-5.243h-2c0 2.292.468 4.36 1.432 6.18l1.767-.937zm-1.199-5.243c0-2.036.41-3.772 1.197-5.238l-1.762-.945c-.968 1.803-1.435 3.874-1.435 6.183h2zm1.193-5.23a8.412 8.412 0 013.401-3.401l-.962-1.754a10.413 10.413 0 00-4.193 4.193l1.754.962zm3.41-3.406c1.458-.818 3.217-1.247 5.31-1.247v-2c-2.37 0-4.479.488-6.289 1.503l.978 1.744zm5.31-1.247c2.116 0 3.884.43 5.342 1.247l.979-1.744c-1.812-1.016-3.93-1.503-6.32-1.503v2zm5.35 1.252a8.412 8.412 0 013.402 3.401l1.753-.962a10.413 10.413 0 00-4.193-4.193l-.962 1.754zm3.402 3.401c.804 1.465 1.222 3.198 1.222 5.23h2c0-2.313-.478-4.387-1.469-6.192l-1.753.962zm1.222 5.23c0 2.033-.418 3.766-1.222 5.23l1.753.962c.99-1.804 1.47-3.879 1.47-6.192h-2zm-1.222 5.23a8.61 8.61 0 01-3.41 3.436l.979 1.745a10.608 10.608 0 004.184-4.219l-1.753-.962zm-3.41 3.436c-1.458.818-3.226 1.248-5.341 1.248v2c2.39 0 4.508-.487 6.32-1.503l-.979-1.745zm-5.341-2.104c1.685 0 3.086-.592 3.99-1.895l-1.642-1.14c-.451.65-1.163 1.035-2.348 1.035v2zm3.988-1.892c.856-1.222 1.228-2.814 1.228-4.67h-2c0 1.613-.326 2.752-.866 3.523l1.638 1.147zm1.228-4.67c0-1.853-.371-3.44-1.233-4.647l-1.627 1.162c.533.747.86 1.87.86 3.485h2zm-1.225-4.636c-.905-1.304-2.306-1.895-3.991-1.895v2c1.184 0 1.897.385 2.348 1.035l1.643-1.14zm-3.991-1.895c-1.686 0-3.087.591-3.991 1.895l1.643 1.14c.45-.65 1.163-1.035 2.348-1.035v-2zm-3.994 1.898c-.817 1.189-1.162 2.774-1.162 4.633h2c0-1.648.312-2.775.81-3.5l-1.648-1.133zM82.5 58.445c0 1.862.346 3.45 1.157 4.655l1.659-1.117c-.505-.75-.816-1.89-.816-3.538h-2zm1.165 4.667c.904 1.303 2.305 1.895 3.99 1.895v-2c-1.184 0-1.896-.386-2.347-1.035l-1.643 1.14zm15.889 11.27h-1v1h1v-1zm0-10.226v-1h-1v1h1zm2.212 0v1h.479l.301-.373-.78-.627zm2.452-16.236v-1h-1v1h1zm16.983 0h1v-1h-1v1zm0 16.236h-1v1h1v-1zm3.08 0h1v-1h-1v1zm0 10.226v1h1v-1h-1zm-5.502 0h-1v1h1v-1zm0-5.382h1v-1h-1v1zm-13.724 0v-1h-1v1h1zm0 5.382v1h1v-1h-1zm3.02-10.226l-.85-.527-.947 1.527h1.797v-1zm6.728 0v1h1v-1h-1zm0-11.392h1v-1h-1v1zm-4.725 0v-1h-1v1h1zm-9.524 21.618V64.156h-2v10.226h2zm-1-9.226h2.212v-2h-2.212v2zm2.992-.373c1.86-2.314 2.672-6.142 2.672-11.211h-2c0 4.976-.822 8.205-2.231 9.958l1.559 1.253zm2.672-11.211V47.92h-2v5.652h2zm-1-4.652h16.983v-2h-16.983v2zm15.983-1v16.236h2V47.92h-2zm1 17.236h3.08v-2h-3.08v2zm2.08-1v10.226h2V64.156h-2zm1 9.226h-5.502v2h5.502v-2zm-4.502 1V69h-2v5.382h2zm-1-6.382h-13.724v2h13.724v-2zm-14.724 1v5.382h2V69h-2zm1 4.382h-5.501v2h5.501v-2zm3.02-8.226h6.728v-2h-6.728v2zm7.728-1V52.764h-2v11.392h2zm-1-12.392h-4.725v2h4.725v-2zm-5.725 1v1.525h2v-1.525h-2zm0 1.525c0 4.36-.664 7.424-1.853 9.34l1.7 1.054c1.482-2.39 2.153-5.904 2.153-10.394h-2zM126.685 69h-1v1h1v-1zm0-21.08v-1h-1v1h1zm15.638 0h1v-1h-1v1zm0 4.904v1h1v-1h-1zm-9.479 0v-1h-1v1h1zm0 3.02h-1v1h1v-1zm8.761 0h1v-1h-1v1zm0 4.904v1h1v-1h-1zm-8.761 0v-1h-1v1h1zm0 3.348h-1v1h1v-1zm9.479 0h1v-1h-1v1zm0 4.904v1h1v-1h-1zm-6.339-22.724h-1v1h1v-1zm0-5.053v-1h-1v1h1zm5.023 0h1v-1h-1v1zm0 5.053v1h1v-1h-1zm-11.482 0h-1v1h1v-1zm0-5.053v-1h-1v1h1zm5.024 0h1v-1h-1v1zm0 5.053v1h1v-1h-1zM127.685 69V47.92h-2V69h2zm-1-20.08h15.638v-2h-15.638v2zm14.638-1v4.904h2V47.92h-2zm1 3.904h-9.479v2h9.479v-2zm-10.479 1v3.02h2v-3.02h-2zm1 4.02h8.761v-2h-8.761v2zm7.761-1v4.904h2v-4.904h-2zm1 3.904h-8.761v2h8.761v-2zm-9.761 1v3.348h2v-3.348h-2zm1 4.348h9.479v-2h-9.479v2zm8.479-1V69h2v-4.904h-2zm1 3.904h-15.638v2h15.638v-2zm-5.339-21.724v-5.053h-2v5.053h2zm-1-4.053h5.023v-2h-5.023v2zm4.023-1v5.053h2v-5.053h-2zm1 4.053h-5.023v2h5.023v-2zm-10.482 1v-5.053h-2v5.053h2zm-1-4.053h5.024v-2h-5.024v2zm4.024-1v5.053h2v-5.053h-2zm1 4.053h-5.024v2h5.024v-2zM142.873 69l-.895-.447-.723 1.447h1.618v-1zm3.917-7.834l-.895-.447.895.447zm1.435-2.242l-.754-.657-.006.007-.006.007.766.643zm1.824-1.525l.507.862.899-.53-.567-.875-.839.543zm-6.13-9.479v-1h-1.837l.997 1.544.84-.544zm6.967 0l.856-.517-.292-.483h-.564v1zm4.933 8.163l-.855.517.291.483h.564v-1zm1.047 0v1h1v-1h-1zm0-8.163v-1h-1v1h1zm6.129 0h1v-1h-1v1zm0 8.163h-1v1h1v-1zm1.077 0v1h.567l.291-.487-.858-.513zm4.873-8.163v-1h-.567l-.291.488.858.512zm6.967 0l.84.544.998-1.544h-1.838v1zm-6.129 9.479l-.84-.543-.574.887.918.524.496-.868zm1.824 1.555l-.777.63.011.013.012.013.754-.656zm1.465 2.212l.896-.444-.006-.011-.89.455zM176.959 69v1h1.612l-.717-1.445-.895.445zm-6.907 0l-.906.423.269.577h.637v-1zm-2.721-5.83l-.91.415.004.007.906-.422zm-1.226-1.495l-.515.857.515-.857zm-3.11-.449v-1h-1v1h1zm0 7.774v1h1v-1h-1zm-6.129 0h-1v1h1v-1zm0-7.774h1v-1h-1v1zm-3.08.449l-.514-.858.514.858zm-1.256 1.495l-.899-.437-.005.01.904.426zM149.78 69v1h.634l.27-.573-.904-.427zm-6.013.447l3.917-7.834-1.789-.894-3.917 7.834 1.789.894zm3.917-7.834c.411-.821.848-1.5 1.307-2.047l-1.532-1.285c-.578.69-1.098 1.505-1.564 2.438l1.789.894zm1.295-2.032a6.35 6.35 0 011.577-1.32l-1.014-1.724a8.348 8.348 0 00-2.071 1.73l1.508 1.313zm1.909-2.725l-6.129-9.479-1.68 1.087 6.13 9.478 1.679-1.086zm-6.969-7.936h6.967v-2h-6.967v2zm6.111-.482l4.934 8.162 1.711-1.034-4.933-8.163-1.712 1.035zm5.789 8.645h1.047v-2h-1.047v2zm2.047-1V47.92h-2v8.163h2zm-1-7.163h6.129v-2h-6.129v2zm5.129-1v8.163h2V47.92h-2zm1 9.163h1.077v-2h-1.077v2zm1.935-.487l4.874-8.163-1.717-1.025-4.874 8.163 1.717 1.025zm4.015-7.675h6.967v-2h-6.967v2zm6.127-1.544l-6.129 9.479 1.679 1.086 6.13-9.478-1.68-1.087zm-5.785 10.89a5.465 5.465 0 011.543 1.317l1.553-1.261a7.485 7.485 0 00-2.104-1.792l-.992 1.736zm1.566 1.343a9.922 9.922 0 011.328 2.012l1.781-.911c-.469-.917-1.001-1.725-1.601-2.414l-1.508 1.313zm1.323 2l3.887 7.835 1.791-.89-3.887-7.833-1.791.889zm4.783 6.39h-6.907v2h6.907v-2zm-6.001.577l-2.721-5.83-1.812.845 2.721 5.83 1.812-.845zm-2.718-5.823c-.376-.824-.901-1.505-1.621-1.937l-1.029 1.715c.278.166.57.481.831 1.053l1.819-.831zm-1.621-1.937c-.713-.428-1.604-.591-2.577-.591v2c.781 0 1.265.136 1.548.306l1.029-1.715zm-2.577-.591h-1.047v2h1.047v-2zm-2.047 1V69h2v-7.774h-2zm1 6.774h-6.129v2h6.129v-2zm-5.129 1v-7.774h-2V69h2zm-1-8.774h-1.047v2h1.047v-2zm-1.047 0c-.958 0-1.837.165-2.547.591l1.029 1.715c.286-.172.762-.306 1.518-.306v-2zm-2.547.591c-.712.427-1.245 1.1-1.641 1.916l1.799.873c.282-.58.586-.903.871-1.074l-1.029-1.715zm-1.646 1.926l-2.751 5.83 1.809.854 2.751-5.83-1.809-.854zM149.78 68h-6.907v2h6.907v-2zm42.455.013l-.471.882.012.007.459-.889zm-4.006-3.827l-.868.497.005.008.863-.505zm0-11.452l-.863-.505-.002.004.865.501zm4.006-3.797l.464.886.004-.002-.468-.884zm10.077-.807l-.302.953.009.003.01.003.283-.96zm3.019 1.555l.937.349.245-.657-.534-.454-.648.762zm-1.883 5.053l-.555.832 1.051.7.441-1.183-.937-.35zm-2.422-1.226l-.316.949.012.004.012.003.292-.956zm-6.16 1.016l-.722-.69h-.001l.723.69zm0 7.894l-.73.683.008.008.007.008.715-.699zm6.16 1.017l.292.956.012-.004.012-.004-.316-.948zm2.422-1.256l.937-.35-.441-1.183-1.051.7.555.833zm1.883 5.053l.648.762.534-.454-.245-.657-.937.349zm-3.019 1.585l.287.957.01-.003-.297-.954zm-3.947-.462c-2.225 0-4.104-.424-5.67-1.234l-.919 1.776c1.902.984 4.109 1.458 6.589 1.458v-2zm-5.658-1.227c-1.556-.833-2.754-1.98-3.615-3.451l-1.726 1.01c1.052 1.798 2.525 3.203 4.398 4.204l.943-1.763zm-3.611-3.443c-.837-1.46-1.273-3.197-1.273-5.244h-2c0 2.339.501 4.43 1.538 6.238l1.735-.994zm-1.273-5.244c0-2.047.437-3.771 1.271-5.209l-1.73-1.003c-1.04 1.791-1.541 3.874-1.541 6.212h2zm1.269-5.205c.86-1.47 2.055-2.605 3.607-3.417l-.927-1.772c-1.877.982-3.353 2.378-4.406 4.178l1.726 1.01zm3.611-3.419c1.564-.827 3.44-1.26 5.662-1.26v-2c-2.483 0-4.693.485-6.597 1.492l.935 1.768zm5.662-1.26c1.347 0 2.559.178 3.645.522l.603-1.907c-1.306-.413-2.725-.614-4.248-.614v2zm3.664.528c1.109.327 1.984.787 2.655 1.358l1.295-1.524c-.924-.786-2.062-1.362-3.384-1.752l-.566 1.918zm2.365.246l-1.883 5.053 1.874.699 1.883-5.053-1.874-.699zm-.392 4.57c-.945-.63-1.842-1.092-2.684-1.35l-.584 1.913c.593.182 1.311.536 2.159 1.102l1.109-1.664zm-2.66-1.342c-.836-.279-1.753-.41-2.738-.41v2c.809 0 1.507.108 2.106.308l.632-1.898zm-2.738-.41c-1.809 0-3.346.52-4.46 1.684l1.445 1.383c.64-.67 1.595-1.067 3.015-1.067v-2zm-4.461 1.684c-1.093 1.145-1.562 2.736-1.562 4.608h2c0-1.556.388-2.576 1.008-3.226l-1.446-1.382zm-1.562 4.608c0 1.89.468 3.497 1.555 4.66l1.461-1.366c-.627-.67-1.016-1.715-1.016-3.294h-2zm1.57 4.676c1.116 1.14 2.65 1.646 4.453 1.646v-2c-1.427 0-2.384-.39-3.023-1.044l-1.43 1.398zm4.453 1.646c.977 0 1.885-.119 2.714-.372l-.584-1.913c-.607.186-1.313.285-2.13.285v2zm2.738-.38c.829-.276 1.718-.744 2.66-1.372l-1.109-1.664c-.852.568-1.577.937-2.183 1.139l.632 1.897zm1.169-1.855l1.883 5.053 1.874-.698-1.883-5.053-1.874.698zm2.173 3.942c-.675.574-1.555 1.045-2.67 1.392l.595 1.91c1.317-.41 2.45-.996 3.37-1.778l-1.295-1.524zm-2.66 1.389c-1.09.327-2.307.496-3.659.496v2c1.518 0 2.932-.19 4.234-.58l-.575-1.916zM212.233 69h-1v1h1v-1zm0-15.877h1v-1h-1v1zm-6.1 0h-1v1h1v-1zm0-5.203v-1h-1v1h1zm18.658 0h1v-1h-1v1zm0 5.203v1h1v-1h-1zm-6.1 0v-1h-1v1h1zm0 15.877v1h1v-1h-1zm-5.458 0V53.123h-2V69h2zm-1-16.877h-6.1v2h6.1v-2zm-5.1 1V47.92h-2v5.203h2zm-1-4.203h18.658v-2h-18.658v2zm17.658-1v5.203h2V47.92h-2zm1 4.203h-6.1v2h6.1v-2zm-7.1 1V69h2V53.123h-2zm1 14.877h-6.458v2h6.458v-2zm8.206 1h-1v1h1v-1zm0-21.08v-1h-1v1h1zm16.504 1.854l-.701.713.006.006.695-.719zm0 9.867l-.701-.712.701.712zm-10.046 1.854v-1h-1v1h1zm0 7.505v1h1v-1h-1zm0-12.408h-1v1h1v-1zm0-3.768v-1h-1v1h1zM227.897 69V47.92h-2V69h2zm-1-20.08h10.883v-2h-10.883v2zm10.883 0c2.339 0 3.917.58 4.92 1.567l1.403-1.425c-1.509-1.485-3.678-2.142-6.323-2.142v2zm4.926 1.573c1.025.992 1.579 2.358 1.579 4.215h2c0-2.29-.702-4.213-2.188-5.652l-1.391 1.437zm1.579 4.215c0 1.833-.552 3.204-1.585 4.22l1.403 1.426c1.478-1.455 2.182-3.373 2.182-5.646h-2zm-1.585 4.22c-1.003.988-2.581 1.567-4.92 1.567v2c2.645 0 4.814-.656 6.323-2.141l-1.403-1.425zm-4.92 1.567h-4.425v2h4.425v-2zm-5.425 1V69h2v-7.505h-2zm1 6.505h-6.458v2h6.458v-2zm0-10.408h3.558v-2h-3.558v2zm3.558 0c.856 0 1.684-.18 2.308-.71.654-.557.905-1.346.905-2.174h-2c0 .428-.118.58-.202.651-.114.097-.392.233-1.011.233v2zm3.213-2.884c0-.828-.251-1.617-.905-2.174-.624-.531-1.452-.71-2.308-.71v2c.619 0 .897.135 1.011.233.084.07.202.223.202.65h2zm-3.213-2.884h-3.558v2h3.558v-2zm-4.558 1v3.768h2v-3.768h-2zM242.658 69l-.903-.43-.679 1.43h1.582v-1zm10.017-21.08v-1h-.632l-.272.571.904.43zm5.232 0l.902-.43-.272-.57h-.63v1zM267.983 69v1h1.587l-.684-1.431-.903.431zm-6.458 0l-.914.405.263.595h.651v-1zm-1.734-3.917l.914-.405-.263-.595h-.651v1zm-8.97 0v-1h-.651l-.264.595.915.405zM249.087 69v1h.65l.264-.595-.914-.405zm6.189-14.502v-1h-.665l-.257.614.922.386zm-2.392 5.711l-.922-.386-.581 1.386h1.503v-1zm4.933 0v1h1.503l-.58-1.386-.923.386zm-2.392-5.71l.923-.387-.257-.614h-.666v1zm-11.864 14.93l10.017-21.08-1.807-.858-10.016 21.08 1.806.858zm9.114-20.509h5.232v-2h-5.232v2zm4.33-.568l10.076 21.08 1.805-.863-10.077-21.08-1.804.863zM267.983 68h-6.458v2h6.458v-2zm-5.544.595l-1.734-3.917-1.829.81 1.735 3.917 1.828-.81zm-2.648-4.512h-8.97v2h8.97v-2zm-9.885.595l-1.734 3.917 1.829.81 1.734-3.917-1.829-.81zM249.087 68h-6.429v2h6.429v-2zm5.267-13.888l-2.392 5.711 1.844.773 2.392-5.711-1.844-.773zm-1.47 7.097h4.933v-2h-4.933v2zm5.856-1.386l-2.392-5.71-1.845.772 2.392 5.71 1.845-.772zm-3.315-6.325h-.149v2h.149v-2zM268.71 69h-1v1h1v-1zm0-21.08v-1h-1v1h1zm6.458 0h1v-1h-1v1zm0 7.774h-1v1h1v-1zm7.206 0v1h1v-1h-1zm0-7.774v-1h-1v1h1zm6.459 0h1v-1h-1v1zm0 21.08v1h1v-1h-1zm-6.459 0h-1v1h1v-1zm0-8.043h1v-1h-1v1zm-7.206 0v-1h-1v1h1zm0 8.043v1h1v-1h-1zm-5.458 0V47.92h-2V69h2zm-1-20.08h6.458v-2h-6.458v2zm5.458-1v7.774h2V47.92h-2zm1 8.774h7.206v-2h-7.206v2zm8.206-1V47.92h-2v7.774h2zm-1-6.774h6.459v-2h-6.459v2zm5.459-1V69h2V47.92h-2zm1 20.08h-6.459v2h6.459v-2zm-5.459 1v-8.043h-2V69h2zm-1-9.043h-7.206v2h7.206v-2zm-8.206 1V69h2v-8.043h-2zm1 7.043h-6.458v2h6.458v-2zm17.135 1h-1v1h1v-1zm0-21.08v-1h-1v1h1zm6.398 0h1v-1h-1v1zm0 7.894h-1v1h1v-1zm9.539 1.734l-.644.766.007.005.637-.77zm0 9.748l.636.77.007-.005-.643-.765zM312.515 69h-1v1h1v-1zm0-21.08v-1h-1v1h1zm6.399 0h1v-1h-1v1zm0 21.08v1h1v-1h-1zm-20.213-4.754h-1v1h1v-1zm4.964-.449l.619.785.006-.004-.625-.78zm0-2.78l-.644.765.021.018.023.017.6-.8zm-4.964-.479v-1h-1v1h1zM293.303 69V47.92h-2V69h2zm-1-20.08h6.398v-2h-6.398v2zm5.398-1v7.894h2V47.92h-2zm1 8.894h3.917v-2h-3.917v2zm3.917 0c2.213 0 3.834.538 4.978 1.5l1.287-1.531c-1.606-1.35-3.733-1.969-6.265-1.969v2zm4.985 1.505c1.104.913 1.7 2.22 1.7 4.073h2c0-2.334-.78-4.255-2.427-5.615l-1.273 1.542zm1.7 4.073c0 1.875-.598 3.206-1.707 4.138l1.287 1.531c1.642-1.38 2.42-3.318 2.42-5.669h-2zm-1.7 4.133c-1.145.945-2.768 1.475-4.985 1.475v2c2.528 0 4.652-.606 6.258-1.933l-1.273-1.542zM302.618 68h-10.315v2h10.315v-2zm10.897 1V47.92h-2V69h2zm-1-20.08h6.399v-2h-6.399v2zm5.399-1V69h2V47.92h-2zm1 20.08h-6.399v2h6.399v-2zm-20.213-2.754h3.02v-2h-3.02v2zm3.02 0c.968 0 1.908-.146 2.563-.664l-1.239-1.57c-.102.081-.457.234-1.324.234v2zm2.569-.668c.686-.549.973-1.335.973-2.186h-2c0 .385-.112.536-.223.624l1.25 1.562zm.973-2.186c0-.849-.287-1.642-.998-2.175l-1.2 1.6c.086.065.198.188.198.575h2zm-.954-2.14c-.659-.555-1.612-.714-2.588-.714v2c.858 0 1.201.16 1.3.244l1.288-1.53zm-2.588-.714h-3.02v2h3.02v-2zm-4.02 1v3.708h2v-3.708h-2z" fill="#fff" mask="url(#a)"/><path d="M3.987 112l2.22-4.284-5.934-9.57h4.44l3.499 5.817 2.986-5.816h4.343L8.349 112H3.987zm12.103 0V98.147h4.245v5.109h4.735v-5.11h4.245V112H25.07v-5.286h-4.735V112H16.09zm15.506 0V98.147h3.93v7.192l5.855-7.192h3.085V112h-3.93v-7.192L34.681 112h-3.085zm15.16 0V98.147h4.204v5.364h1.14l3.223-5.364H59.9l-4.028 6.229c.458.262.858.596 1.198 1.002.354.406.675.897.963 1.474L60.59 112h-4.56l-1.769-3.832c-.21-.458-.484-.786-.825-.982-.327-.197-.78-.295-1.356-.295h-1.12V112h-4.205zm12.795 0l6.582-13.853h3.44L76.193 112H71.95l-1.14-2.574h-5.895L63.775 112h-4.224zm8.292-9.53l-1.572 3.753h3.242l-1.572-3.753h-.098zm9.968 9.923l-2.122-2.948c.747-.445 1.343-.969 1.788-1.572.459-.602.786-1.342.983-2.22.196-.878.294-1.932.294-3.164v-4.342h11.181V112H85.73v-10.473h-3.105v2.004c0 2.214-.432 4.067-1.296 5.561-.852 1.493-2.024 2.594-3.518 3.301zM92.215 112V98.147h4.205v5.187h3.183c1.559 0 2.791.38 3.695 1.14.903.747 1.355 1.808 1.355 3.183 0 1.389-.452 2.463-1.355 3.223-.904.747-2.136 1.12-3.695 1.12h-7.388zm4.205-3.124h2.594c.603 0 1.028-.099 1.277-.295.262-.21.393-.518.393-.924s-.131-.707-.393-.904c-.249-.196-.674-.294-1.277-.294H96.42v2.417zm9.784 3.124V98.147h4.244v5.109h4.736v-5.11h4.245V112h-4.245v-5.286h-4.736V112h-4.244zm15.505 0V98.147h4.205v5.187h2.574c1.559 0 2.791.38 3.695 1.14.904.747 1.355 1.808 1.355 3.183 0 1.389-.451 2.463-1.355 3.223-.904.747-2.136 1.12-3.695 1.12h-6.779zm13.284 0V98.147h4.205V112h-4.205zm-9.079-3.124h1.985c.603 0 1.028-.099 1.277-.295.262-.21.393-.518.393-.924s-.131-.707-.393-.904c-.249-.209-.674-.314-1.277-.314h-1.985v2.437zm15.56 3.124V98.147h10.277v3.222h-6.229v1.985h5.758v3.223h-5.758v2.2h6.229V112h-10.277zm17.808 0V98.147h4.205v5.364h1.14l3.223-5.364h4.578l-4.028 6.229c.458.262.858.596 1.198 1.002.354.406.675.897.963 1.474l2.555 5.148h-4.559l-1.769-3.832c-.209-.458-.484-.786-.825-.982-.327-.197-.779-.295-1.356-.295h-1.12V112h-4.205zm21.134.236c-1.467 0-2.737-.302-3.812-.904a6.315 6.315 0 01-2.495-2.515c-.577-1.088-.865-2.339-.865-3.753 0-1.428.288-2.679.865-3.754a6.182 6.182 0 012.495-2.495c1.075-.603 2.345-.904 3.812-.904 1.481 0 2.758.301 3.832.904a6.19 6.19 0 012.496 2.495c.589 1.075.884 2.326.884 3.754 0 1.427-.295 2.678-.884 3.753a6.324 6.324 0 01-2.496 2.515c-1.074.602-2.351.904-3.832.904zm0-3.518c.944 0 1.638-.321 2.083-.962.459-.655.688-1.553.688-2.692 0-1.14-.229-2.031-.688-2.673-.445-.642-1.139-.963-2.083-.963-.943 0-1.637.321-2.082.963-.433.629-.649 1.52-.649 2.673 0 1.152.216 2.05.649 2.692.445.641 1.139.962 2.082.962zm9.225 3.282V98.147h3.694l3.871 8.665 3.872-8.665h3.694V112h-3.832v-5.482L198.346 112h-2.338l-2.535-5.364V112h-3.832zm17.461 0V98.147h13.146V112h-4.205v-10.473h-4.736V112h-4.205zm15.429 0V98.147h10.277v3.222h-6.23v1.985h5.758v3.223h-5.758v2.2h6.23V112h-10.277zm15.251 0v-10.434h-4.008v-3.42h12.261v3.42h-4.008V112h-4.245zm9.637 0V98.147h10.277v3.222h-6.229v1.985h5.758v3.223h-5.758v2.2h6.229V112h-10.277zm11.955 0V98.147h4.245v5.109h4.735v-5.11h4.245V112h-4.245v-5.286h-4.735V112h-4.245zm27.04 3.537V112h-11.535V98.147h4.205v10.473h4.736V98.147h4.205v10.473h2.024v6.917h-3.635zm5.199-3.537V98.147h3.93v7.192l5.855-7.192h3.085V112h-3.93v-7.192L294.698 112h-3.085zm15.159 0V98.147h3.93v7.192l5.856-7.192h3.085V112h-3.93v-7.192L309.857 112h-3.085z" fill="#fff"/><mask id="b" maskUnits="userSpaceOnUse" x="1" y="131" width="322" height="24" fill="#000"><path fill="#fff" d="M1 131h322v24H1z"/><path d="M2.035 150v-12.584h11.942V150h-3.82v-9.514H5.855V150h-3.82zm14.015 0v-12.584h6.498c1.487 0 2.606.369 3.356 1.106.75.726 1.124 1.708 1.124 2.946 0 1.225-.375 2.207-1.124 2.945-.75.738-1.869 1.107-3.356 1.107h-2.642V150H16.05zm3.856-7.408h2.124c.88 0 1.321-.375 1.321-1.124 0-.75-.44-1.125-1.32-1.125h-2.125v2.249zM28.444 150v-12.584h9.336v2.927h-5.66v1.803h5.23v2.927h-5.23v2h5.659V150h-9.336zm9.985 3.213v-6.105h1.321c.976-1.214 1.464-3.32 1.464-6.319v-3.373h10.139v9.692h1.838v6.105h-3.284V150h-8.193v3.213h-3.285zm5.088-6.105h4.016v-6.801h-2.82v.911c0 2.642-.399 4.605-1.196 5.89zm17.696 3.106c-1.404 0-2.624-.268-3.659-.803a5.975 5.975 0 01-2.392-2.285c-.56-.976-.839-2.118-.839-3.427 0-1.309.28-2.446.84-3.409a5.854 5.854 0 012.391-2.267c1.035-.548 2.255-.821 3.66-.821.856 0 1.641.113 2.355.339.726.214 1.327.523 1.803.928l-1.124 3.017c-.536-.357-1.018-.601-1.446-.732a4.552 4.552 0 00-1.446-.215c-.964 0-1.708.274-2.231.822-.512.535-.768 1.315-.768 2.338 0 1.035.256 1.827.768 2.374.523.535 1.267.803 2.231.803.535 0 1.017-.065 1.446-.196.428-.143.91-.393 1.446-.75l1.124 3.017c-.476.404-1.077.72-1.803.946a8.18 8.18 0 01-2.356.321zm8.28-.214v-9.478H65.85v-3.106h11.138v3.106h-3.641V150h-3.856zM75 150l5.98-12.584h3.123L90.12 150h-3.856l-1.035-2.338h-5.355L78.838 150h-3.837zm7.532-8.657l-1.428 3.409h2.945l-1.427-3.409h-.09zm8.02 8.657v-12.584h6.444c1.416 0 2.505.297 3.267.892.773.583 1.16 1.369 1.16 2.356 0 .643-.167 1.208-.5 1.696-.321.476-.773.833-1.357 1.071.726.226 1.28.595 1.66 1.107.381.5.572 1.118.572 1.856 0 1.095-.417 1.97-1.25 2.624-.833.655-1.957.982-3.374.982h-6.622zm3.677-7.783h2.035c.524 0 .899-.077 1.125-.232.238-.166.357-.428.357-.785 0-.357-.12-.613-.357-.768-.226-.154-.601-.232-1.125-.232H94.23v2.017zm0 4.998h2.428c1 0 1.5-.369 1.5-1.106 0-.738-.5-1.107-1.5-1.107H94.23v2.213zM103.19 150v-12.584h3.57v6.533l5.319-6.533h2.803V150h-3.57v-6.533L105.994 150h-2.803zm16.591 0v-9.478h-3.641v-3.106h11.138v3.106h-3.641V150h-3.856zm8.755 0v-12.584h9.335v2.927h-5.658v1.803h5.23v2.927h-5.23v2h5.658V150h-9.335zm11.895.357l-1.928-2.678c.678-.404 1.22-.88 1.624-1.428.417-.547.714-1.219.893-2.017.178-.797.268-1.755.268-2.873v-3.945h10.156V150h-3.82v-9.514h-2.82v1.821c0 2.011-.393 3.695-1.178 5.051-.773 1.357-1.838 2.356-3.195 2.999zm13.084-.357v-12.584h9.336v2.927h-5.659v1.803h5.23v2.927h-5.23v2h5.659V150h-9.336zm10.86 0v-12.584h3.57v6.533l5.319-6.533h2.803V150h-3.57v-6.533L167.179 150h-2.803zm5.819-13.566c-.845 0-1.547-.125-2.106-.375-.559-.262-.988-.601-1.285-1.017a3.329 3.329 0 01-.536-1.375l1.696-.535c.202.535.476.916.821 1.142.357.226.839.339 1.446.339.619 0 1.101-.131 1.446-.392.357-.262.601-.619.732-1.071l1.642.517c-.143.798-.548 1.458-1.214 1.982-.654.523-1.535.785-2.642.785zM183.464 150v-12.584h3.82v4.873h1.035l2.927-4.873h4.159l-3.659 5.658c.417.238.78.542 1.089.911.321.368.613.815.875 1.338l2.32 4.677h-4.141l-1.606-3.481c-.191-.416-.441-.714-.75-.892-.298-.179-.708-.268-1.232-.268h-1.017V150h-3.82zm13.44 0v-12.584h6.497c1.488 0 2.606.369 3.356 1.106.75.726 1.124 1.708 1.124 2.946 0 1.225-.374 2.207-1.124 2.945-.75.738-1.868 1.107-3.356 1.107h-2.642V150h-3.855zm3.855-7.408h2.124c.881 0 1.321-.375 1.321-1.124 0-.75-.44-1.125-1.321-1.125h-2.124v2.249zM210.975 150l2.017-3.891-5.39-8.693h4.034l3.177 5.283 2.713-5.283h3.945L214.938 150h-3.963zm10.995 0v-12.584h11.942V150h-3.82v-9.514h-4.302V150h-3.82zm14.015 0v-12.584h3.856v4.641h4.302v-4.641h3.855V150h-3.855v-4.802h-4.302V150h-3.856zm14.085 0v-12.584h9.336v2.927h-5.659v1.803h5.23v2.927h-5.23v2h5.659V150h-9.336zm10.86 0v-12.584h3.57v6.533l5.319-6.533h2.803V150h-3.57v-6.533l-5.32 6.533h-2.802zm5.819-13.566c-.845 0-1.547-.125-2.106-.375-.559-.262-.988-.601-1.285-1.017a3.329 3.329 0 01-.536-1.375l1.696-.535c.202.535.476.916.821 1.142.357.226.839.339 1.446.339.619 0 1.101-.131 1.446-.392.357-.262.601-.619.732-1.071l1.642.517c-.143.798-.548 1.458-1.214 1.982-.655.523-1.535.785-2.642.785zM274.701 150v-12.584h3.766v9.514h3.392v-9.514h3.748v9.514h3.392v-9.514h3.748V150h-18.046zm20.116 0v-12.584h3.57v6.533l5.319-6.533h2.803V150h-3.57v-6.533L297.62 150h-2.803zm12.022 0l4.801-6.337-4.73-6.247h4.498l2.41 3.463 2.446-3.463h4.498l-4.73 6.247 4.819 6.337h-4.516l-2.499-3.534-2.517 3.534h-4.48z"/></mask><path d="M2.035 150h-1v1h1v-1zm0-12.584v-1h-1v1h1zm11.942 0h1v-1h-1v1zm0 12.584v1h1v-1h-1zm-3.82 0h-1v1h1v-1zm0-9.514h1v-1h-1v1zm-4.302 0v-1h-1v1h1zm0 9.514v1h1v-1h-1zm-2.82 0v-12.584h-2V150h2zm-1-11.584h11.942v-2H2.035v2zm10.942-1V150h2v-12.584h-2zm1 11.584h-3.82v2h3.82v-2zm-2.82 1v-9.514h-2V150h2zm-1-10.514H5.855v2h4.302v-2zm-5.302 1V150h2v-9.514h-2zm1 8.514h-3.82v2h3.82v-2zm10.195 1h-1v1h1v-1zm0-12.584v-1h-1v1h1zm9.854 1.106l-.702.713.006.006.696-.719zm0 5.891l-.702-.713.701.713zm-5.998 1.107v-1h-1v1h1zm0 4.48v1h1v-1h-1zm0-7.408h-1v1h1v-1zm0-2.249v-1h-1v1h1zM17.05 150v-12.584h-2V150h2zm-1-11.584h6.498v-2H16.05v2zm6.498 0c1.334 0 2.157.33 2.654.819l1.403-1.425c-1.003-.987-2.417-1.394-4.057-1.394v2zm2.66.825c.52.503.82 1.206.82 2.227h2c0-1.454-.449-2.715-1.429-3.664l-1.391 1.437zm.82 2.227c0 1.005-.299 1.714-.826 2.232l1.403 1.426c.972-.957 1.423-2.213 1.423-3.658h-2zm-.826 2.232c-.497.489-1.32.82-2.654.82v2c1.64 0 3.054-.408 4.057-1.394l-1.403-1.426zm-2.654.82h-2.642v2h2.642v-2zm-3.642 1V150h2v-4.48h-2zm1 3.48H16.05v2h3.856v-2zm0-5.408h2.124v-2h-2.124v2zm2.124 0c.559 0 1.164-.115 1.639-.519.506-.431.682-1.03.682-1.605h-2c0 .091-.014.127-.014.127v-.001l.003-.004a.139.139 0 01.033-.04c.017-.015.015-.005-.038.01a1.143 1.143 0 01-.305.032v2zm2.321-2.124c0-.575-.176-1.175-.682-1.605-.475-.404-1.08-.52-1.639-.52v2c.153 0 .25.017.305.032.053.015.055.026.037.011a.147.147 0 01-.032-.04l-.002-.004v-.002s.013.036.013.128h2zm-2.32-2.125h-2.125v2h2.124v-2zm-3.125 1v2.249h2v-2.249h-2zM28.444 150h-1v1h1v-1zm0-12.584v-1h-1v1h1zm9.336 0h1v-1h-1v1zm0 2.927v1h1v-1h-1zm-5.659 0v-1h-1v1h1zm0 1.803h-1v1h1v-1zm5.23 0h1v-1h-1v1zm0 2.927v1h1v-1h-1zm-5.23 0v-1h-1v1h1zm0 2h-1v1h1v-1zm5.659 0h1v-1h-1v1zm0 2.927v1h1v-1h-1zm-8.336 0v-12.584h-2V150h2zm-1-11.584h9.336v-2h-9.336v2zm8.336-1v2.927h2v-2.927h-2zm1 1.927h-5.66v2h5.659v-2zm-6.659 1v1.803h2v-1.803h-2zm1 2.803h5.23v-2h-5.23v2zm4.23-1v2.927h2v-2.927h-2zm1 1.927h-5.23v2h5.23v-2zm-6.23 1v2h2v-2h-2zm1 3h5.659v-2h-5.66v2zm4.659-1V150h2v-2.927h-2zm1 1.927h-9.336v2h9.336v-2zm.65 4.213h-1v1h1v-1zm0-6.105v-1h-1v1h1zm1.32 0v1h.48l.3-.373-.78-.627zm1.464-9.692v-1h-1v1h1zm10.139 0h1v-1h-1v1zm0 9.692h-1v1h1v-1zm1.838 0h1v-1h-1v1zm0 6.105v1h1v-1h-1zm-3.284 0h-1v1h1v-1zm0-3.213h1v-1h-1v1zm-8.193 0v-1h-1v1h1zm0 3.213v1h1v-1h-1zm1.803-6.105l-.85-.527-.947 1.527h1.797v-1zm4.016 0v1h1v-1h-1zm0-6.801h1v-1h-1v1zm-2.82 0v-1h-1v1h1zm-5.284 12.906v-6.105h-2v6.105h2zm-1-5.105h1.321v-2h-1.32v2zm2.1-.373c1.202-1.494 1.685-3.9 1.685-6.946h-2c0 2.952-.493 4.759-1.243 5.693l1.559 1.253zm1.685-6.946v-3.373h-2v3.373h2zm-1-2.373h10.139v-2H41.214v2zm9.139-1v9.692h2v-9.692h-2zm1 10.692h1.838v-2h-1.838v2zm.838-1v6.105h2v-6.105h-2zm1 5.105h-3.284v2h3.284v-2zm-2.284 1V150h-2v3.213h2zm-1-4.213h-8.193v2h8.193v-2zm-9.193 1v3.213h2V150h-2zm1 2.213h-3.285v2h3.285v-2zm1.803-4.105h4.016v-2h-4.016v2zm5.016-1v-6.801h-2v6.801h2zm-1-7.801h-2.82v2h2.82v-2zm-3.82 1v.911h2v-.911h-2zm0 .911c0 2.577-.396 4.315-1.046 5.363l1.7 1.054c.944-1.522 1.346-3.711 1.346-6.417h-2zm13.841 8.193l-.472.882.012.006.46-.888zm-2.392-2.285l-.868.497.005.008.863-.505zm0-6.836l-.863-.506-.002.004.865.502zm2.392-2.267l.464.886.003-.002-.467-.884zm6.015-.482l-.302.953.01.003.01.003.282-.959zm1.803.928l.937.349.245-.657-.534-.454-.648.762zm-1.124 3.017l-.555.832 1.05.7.442-1.183-.937-.349zm-1.446-.732l-.316.948.012.004.012.004.292-.956zm-3.677.607l-.723-.692v.001l.723.691zm0 4.712l-.73.683.007.008.008.008.715-.699zm3.677.607l.292.956.012-.003.012-.004-.316-.949zm1.446-.75l.937-.349-.441-1.183-1.051.7.555.832zm1.124 3.017l.648.762.534-.454-.245-.657-.937.349zm-1.803.946l.288.958.01-.003-.298-.955zm-2.356-.679c-1.276 0-2.333-.243-3.2-.691l-.919 1.776c1.204.623 2.588.915 4.12.915v-2zm-3.187-.685a4.981 4.981 0 01-2-1.908l-1.727 1.01a6.976 6.976 0 002.783 2.662l.944-1.764zm-1.996-1.9c-.46-.801-.707-1.767-.707-2.93h-2c0 1.455.312 2.774.971 3.924l1.736-.994zm-.707-2.93c0-1.164.248-2.121.704-2.908l-1.73-1.003c-.662 1.141-.974 2.457-.974 3.911h2zm.702-2.904a4.857 4.857 0 011.993-1.886l-.928-1.772a6.856 6.856 0 00-2.791 2.647l1.726 1.011zm1.996-1.888c.866-.458 1.919-.705 3.192-.705v-2c-1.535 0-2.921.299-4.127.937l.935 1.768zm3.192-.705c.77 0 1.451.101 2.054.292l.604-1.907c-.824-.261-1.713-.385-2.658-.385v2zm2.073.298c.62.183 1.09.434 1.439.731l1.295-1.524c-.603-.512-1.335-.88-2.168-1.125l-.566 1.918zm1.15-.38l-1.125 3.016 1.874.699 1.124-3.017-1.874-.698zm.366 2.533c-.584-.389-1.156-.687-1.708-.856l-.584 1.913c.304.093.696.283 1.183.608l1.11-1.665zm-1.684-.848a5.566 5.566 0 00-1.762-.266v2c.447 0 .82.06 1.13.163l.632-1.897zm-1.762-.266c-1.158 0-2.193.335-2.954 1.13l1.445 1.383c.287-.3.74-.513 1.509-.513v-2zm-2.954 1.131c-.748.783-1.045 1.848-1.045 3.029h2c0-.866.215-1.359.49-1.648l-1.445-1.381zm-1.045 3.029c0 1.191.296 2.263 1.037 3.057l1.461-1.366c-.281-.301-.498-.812-.498-1.691h-2zm1.053 3.073c.762.779 1.794 1.104 2.946 1.104v-2c-.776 0-1.23-.21-1.516-.502l-1.43 1.398zm2.946 1.104c.616 0 1.199-.075 1.738-.24l-.584-1.912a3.949 3.949 0 01-1.154.152v2zm1.762-.247c.54-.18 1.104-.479 1.684-.867l-1.109-1.664c-.49.327-.89.528-1.207.633l.632 1.898zm.193-1.349l1.124 3.016 1.874-.698-1.124-3.017-1.874.699zm1.414 1.905c-.354.301-.828.559-1.453.753l.595 1.91c.827-.258 1.555-.631 2.153-1.139l-1.295-1.524zm-1.443.75a7.194 7.194 0 01-2.069.279v2c.94 0 1.824-.117 2.644-.363l-.575-1.916zm6.21 1.065h-1v1h1v-1zm0-9.478h1v-1h-1v1zm-3.641 0h-1v1h1v-1zm0-3.106v-1h-1v1h1zm11.138 0h1v-1h-1v1zm0 3.106v1h1v-1h-1zm-3.641 0v-1h-1v1h1zm0 9.478v1h1v-1h-1zm-2.856 0v-9.478h-2V150h2zm-1-10.478h-3.641v2h3.641v-2zm-2.641 1v-3.106h-2v3.106h2zm-1-2.106h11.138v-2H65.851v2zm10.138-1v3.106h2v-3.106h-2zm1 2.106h-3.641v2h3.641v-2zm-4.641 1V150h2v-9.478h-2zm1 8.478h-3.856v2h3.856v-2zM75 150l-.904-.429-.679 1.429H75v-1zm5.98-12.584v-1h-.633l-.27.571.902.429zm3.123 0l.902-.432-.272-.568h-.63v1zM90.12 150v1h1.586l-.684-1.431-.903.431zm-3.856 0l-.914.405.263.595h.65v-1zm-1.035-2.338l.914-.405-.264-.595h-.65v1zm-5.355 0v-1h-.651l-.264.595.915.405zM78.838 150v1h.651l.264-.595-.915-.405zm3.695-8.657v-1h-.665l-.257.613.922.387zm-1.428 3.409l-.922-.386-.58 1.386h1.502v-1zm2.945 0v1h1.504l-.581-1.386-.922.386zm-1.427-3.409l.922-.387-.257-.613h-.665v1zm-6.72 9.086l5.98-12.584-1.806-.858-5.98 12.584 1.807.858zm5.077-12.013h3.124v-2H80.98v2zm2.222-.569l6.015 12.584 1.805-.862-6.016-12.585-1.804.863zM90.12 149h-3.856v2h3.856v-2zm-2.942.595l-1.035-2.338-1.829.809 1.036 2.339 1.828-.81zm-1.95-2.933h-5.354v2h5.355v-2zm-6.269.595l-1.035 2.338 1.829.81 1.035-2.339-1.829-.809zM78.84 149H75v2h3.837v-2zm2.772-8.044l-1.428 3.41 1.845.772 1.428-3.409-1.845-.773zm-.506 4.796h2.945v-2h-2.945v2zm3.868-1.386l-1.428-3.41-1.845.773 1.428 3.409 1.845-.772zm-2.35-4.023h-.09v2h.09v-2zm7.93 9.657h-1v1h1v-1zm0-12.584v-1h-1v1h1zm9.711.892l-.616.788.007.006.007.005.602-.799zm.66 4.052l-.826-.564-.003.005.829.559zm-1.357 1.071l-.377-.926-2.579 1.053 2.659.828.297-.955zm1.66 1.107l-.802.597.007.009.795-.606zm-6.997-2.321h-1v1h1v-1zm3.16-.232l.564.826.01-.006-.574-.82zm0-1.553l-.565.826.01.006.01.007.545-.839zm-3.16-.232v-1h-1v1h1zm0 7.015h-1v1h1v-1zm0-2.213v-1h-1v1h1zM91.553 150v-12.584h-2V150h2zm-1-11.584h6.444v-2h-6.444v2zm6.444 0c1.293 0 2.13.274 2.65.68l1.232-1.576c-1.003-.783-2.343-1.104-3.882-1.104v2zm2.665.691c.517.39.762.876.762 1.557h2c0-1.294-.529-2.378-1.558-3.154l-1.204 1.597zm.762 1.557c0 .46-.116.825-.326 1.132l1.652 1.128c.457-.669.674-1.434.674-2.26h-2zm-.329 1.137c-.2.296-.487.534-.906.704l.756 1.852c.748-.305 1.365-.781 1.808-1.437l-1.658-1.119zm-.825 2.585c.564.176.923.437 1.155.749l1.605-1.194c-.53-.712-1.277-1.188-2.165-1.465l-.595 1.91zm1.162.758c.226.297.367.692.367 1.25h2c0-.917-.24-1.759-.776-2.462l-1.591 1.212zm.367 1.25c0 .8-.285 1.38-.868 1.838l1.236 1.573c1.084-.852 1.632-2.021 1.632-3.411h-2zm-.868 1.838c-.605.476-1.488.768-2.755.768v2c1.564 0 2.931-.362 3.991-1.195l-1.236-1.573zm-2.755.768h-6.623v2h6.623v-2zm-2.946-5.783h2.035v-2H94.23v2zm2.035 0c.57 0 1.203-.074 1.69-.406l-1.13-1.651c.03-.021.017-.002-.088.02a2.419 2.419 0 01-.472.037v2zm1.698-.412c.568-.398.784-1.006.784-1.605h-2c0 .069-.012.077 0 .05a.212.212 0 01.07-.084l1.146 1.639zm.784-1.605c0-.596-.216-1.219-.812-1.606l-1.09 1.677a.262.262 0 01-.094-.109c-.016-.034-.004-.032-.004.038h2zm-.793-1.593c-.486-.333-1.12-.407-1.689-.407v2c.217 0 .37.017.472.038.105.022.119.041.088.02l1.13-1.651zm-1.689-.407H94.23v2h2.035v-2zm-3.035 1v2.017h2V140.2h-2zm1 8.015h2.428v-2H94.23v2zm2.428 0c.593 0 1.22-.104 1.718-.472.555-.409.781-1.015.781-1.634h-2c0 .072-.012.088-.005.072a.139.139 0 01.037-.047c.003-.003-.025.019-.114.041-.09.022-.225.04-.417.04v2zm2.5-2.106c0-.619-.227-1.225-.782-1.635-.498-.368-1.125-.472-1.718-.472v2c.192 0 .327.018.417.04.09.022.117.044.114.041a.13.13 0 01-.037-.047c-.007-.016.005 0 .005.073h2zm-2.5-2.107H94.23v2h2.428v-2zm-3.428 1v2.213h2v-2.213h-2zm9.961 4.998h-1v1h1v-1zm0-12.584v-1h-1v1h1zm3.57 0h1v-1h-1v1zm0 6.533h-1v2.812l1.776-2.181-.776-.631zm5.319-6.533v-1h-.475l-.3.368.775.632zm2.803 0h1v-1h-1v1zm0 12.584v1h1v-1h-1zm-3.57 0h-1v1h1v-1zm0-6.533h1v-2.812l-1.776 2.181.776.631zM105.994 150v1h.475l.3-.369-.775-.631zm-1.803 0v-12.584h-2V150h2zm-1-11.584h3.57v-2h-3.57v2zm2.57-1v6.533h2v-6.533h-2zm1.776 7.164l5.319-6.533-1.551-1.263-5.319 6.533 1.551 1.263zm4.543-6.164h2.803v-2h-2.803v2zm1.803-1V150h2v-12.584h-2zm1 11.584h-3.57v2h3.57v-2zm-2.57 1v-6.533h-2V150h2zm-1.776-7.164l-5.319 6.533 1.551 1.262 5.319-6.533-1.551-1.262zM105.994 149h-2.803v2h2.803v-2zm13.788 1h-1v1h1v-1zm0-9.478h1v-1h-1v1zm-3.641 0h-1v1h1v-1zm0-3.106v-1h-1v1h1zm11.138 0h1v-1h-1v1zm0 3.106v1h1v-1h-1zm-3.641 0v-1h-1v1h1zm0 9.478v1h1v-1h-1zm-2.856 0v-9.478h-2V150h2zm-1-10.478h-3.641v2h3.641v-2zm-2.641 1v-3.106h-2v3.106h2zm-1-2.106h11.138v-2h-11.138v2zm10.138-1v3.106h2v-3.106h-2zm1 2.106h-3.641v2h3.641v-2zm-4.641 1V150h2v-9.478h-2zm1 8.478h-3.856v2h3.856v-2zm4.899 1h-1v1h1v-1zm0-12.584v-1h-1v1h1zm9.335 0h1v-1h-1v1zm0 2.927v1h1v-1h-1zm-5.658 0v-1h-1v1h1zm0 1.803h-1v1h1v-1zm5.23 0h1v-1h-1v1zm0 2.927v1h1v-1h-1zm-5.23 0v-1h-1v1h1zm0 2h-1v1h1v-1zm5.658 0h1v-1h-1v1zm0 2.927v1h1v-1h-1zm-8.335 0v-12.584h-2V150h2zm-1-11.584h9.335v-2h-9.335v2zm8.335-1v2.927h2v-2.927h-2zm1 1.927h-5.658v2h5.658v-2zm-6.658 1v1.803h2v-1.803h-2zm1 2.803h5.23v-2h-5.23v2zm4.23-1v2.927h2v-2.927h-2zm1 1.927h-5.23v2h5.23v-2zm-6.23 1v2h2v-2h-2zm1 3h5.658v-2h-5.658v2zm4.658-1V150h2v-2.927h-2zm1 1.927h-9.335v2h9.335v-2zm2.56 1.357l-.812.584.487.676.753-.356-.428-.904zm-1.928-2.678l-.512-.858-.936.558.637.885.811-.585zm1.624-1.427l-.795-.606-.009.011.804.595zm1.161-8.836v-1h-1v1h1zm10.156 0h1v-1h-1v1zm0 12.584v1h1v-1h-1zm-3.82 0h-1v1h1v-1zm0-9.514h1v-1h-1v1zm-2.82 0v-1h-1v1h1zm-1.178 6.872l-.865-.501-.004.006.869.495zm-2.384 2.415l-1.927-2.678-1.623 1.169 1.927 2.677 1.623-1.168zm-2.227-1.235c.775-.461 1.422-1.022 1.917-1.692l-1.609-1.189c-.314.425-.75.816-1.332 1.164l1.024 1.717zm1.908-1.681c.519-.681.869-1.492 1.073-2.404l-1.952-.437c-.153.683-.398 1.217-.712 1.63l1.591 1.211zm1.073-2.404c.199-.89.292-1.925.292-3.092h-2c0 1.07-.086 1.95-.244 2.655l1.952.437zm.292-3.092v-3.945h-2v3.945h2zm-1-2.945h10.156v-2h-10.156v2zm9.156-1V150h2v-12.584h-2zm1 11.584h-3.82v2h3.82v-2zm-2.82 1v-9.514h-2V150h2zm-1-10.514h-2.82v2h2.82v-2zm-3.82 1v1.821h2v-1.821h-2zm0 1.821c0 1.884-.368 3.383-1.043 4.55l1.731 1.002c.895-1.546 1.312-3.414 1.312-5.552h-2zm-1.047 4.556c-.676 1.186-1.591 2.039-2.754 2.59l.856 1.808c1.55-.734 2.765-1.88 3.636-3.407l-1.738-.991zM153.516 150h-1v1h1v-1zm0-12.584v-1h-1v1h1zm9.336 0h1v-1h-1v1zm0 2.927v1h1v-1h-1zm-5.659 0v-1h-1v1h1zm0 1.803h-1v1h1v-1zm5.23 0h1v-1h-1v1zm0 2.927v1h1v-1h-1zm-5.23 0v-1h-1v1h1zm0 2h-1v1h1v-1zm5.659 0h1v-1h-1v1zm0 2.927v1h1v-1h-1zm-8.336 0v-12.584h-2V150h2zm-1-11.584h9.336v-2h-9.336v2zm8.336-1v2.927h2v-2.927h-2zm1 1.927h-5.659v2h5.659v-2zm-6.659 1v1.803h2v-1.803h-2zm1 2.803h5.23v-2h-5.23v2zm4.23-1v2.927h2v-2.927h-2zm1 1.927h-5.23v2h5.23v-2zm-6.23 1v2h2v-2h-2zm1 3h5.659v-2h-5.659v2zm4.659-1V150h2v-2.927h-2zm1 1.927h-9.336v2h9.336v-2zm1.524 1h-1v1h1v-1zm0-12.584v-1h-1v1h1zm3.57 0h1v-1h-1v1zm0 6.533h-1v2.812l1.776-2.181-.776-.631zm5.319-6.533v-1h-.475l-.3.368.775.632zm2.803 0h1v-1h-1v1zm0 12.584v1h1v-1h-1zm-3.57 0h-1v1h1v-1zm0-6.533h1v-2.812l-1.776 2.181.776.631zM167.179 150v1h.475l.3-.369-.775-.631zm.91-13.941l-.424.906.008.004.008.003.408-.913zm-1.285-1.017l-.832.554.009.014.009.013.814-.581zm-.536-1.375l-.301-.953-.811.256.123.842.989-.145zm1.696-.535l.935-.354-.334-.885-.902.285.301.954zm.821 1.142l-.548.837.007.004.006.004.535-.845zm2.892-.053l-.592-.807-.006.005-.007.005.605.797zm.732-1.071l.3-.954-.976-.308-.285.984.961.278zm1.642.517l.984.177.155-.866-.838-.264-.301.953zm-1.214 1.982l-.618-.787-.007.006.625.781zM165.376 150v-12.584h-2V150h2zm-1-11.584h3.57v-2h-3.57v2zm2.57-1v6.533h2v-6.533h-2zm1.776 7.164l5.319-6.533-1.551-1.263-5.319 6.533 1.551 1.263zm4.543-6.164h2.803v-2h-2.803v2zm1.803-1V150h2v-12.584h-2zm1 11.584h-3.57v2h3.57v-2zm-2.57 1v-6.533h-2V150h2zm-1.776-7.164l-5.319 6.533 1.551 1.262 5.319-6.533-1.551-1.262zM167.179 149h-2.803v2h2.803v-2zm3.016-13.566c-.754 0-1.306-.113-1.698-.288l-.816 1.826c.727.325 1.579.462 2.514.462v-2zm-1.682-.281c-.436-.203-.717-.442-.896-.693l-1.627 1.163c.416.583.992 1.022 1.675 1.342l.848-1.812zm-.877-.666a2.325 2.325 0 01-.378-.965l-1.979.29c.094.641.329 1.238.693 1.784l1.664-1.109zm-1.067.134l1.696-.536-.602-1.907-1.696.536.602 1.907zm.46-1.136c.248.659.629 1.246 1.208 1.626l1.096-1.673c-.111-.073-.278-.247-.434-.66l-1.87.707zm1.221 1.634c.572.363 1.263.494 1.981.494v-2c-.496 0-.769-.094-.911-.184l-1.07 1.69zm1.981.494c.746 0 1.471-.156 2.05-.596l-1.209-1.593c-.11.084-.35.189-.841.189v2zm2.037-.586a2.957 2.957 0 001.101-1.599l-1.921-.556a.96.96 0 01-.363.542l1.183 1.613zm-.16-.924l1.642.518.602-1.907-1.643-.518-.601 1.907zm.959-.612c-.098.544-.364.992-.848 1.371l1.236 1.573c.849-.668 1.392-1.541 1.58-2.591l-1.968-.353zm-.855 1.377c-.427.342-1.064.566-2.017.566v2c1.261 0 2.385-.299 3.267-1.005l-1.25-1.561zM183.464 150h-1v1h1v-1zm0-12.584v-1h-1v1h1zm3.82 0h1v-1h-1v1zm0 4.873h-1v1h1v-1zm1.035 0v1h.566l.291-.485-.857-.515zm2.927-4.873v-1h-.565l-.292.485.857.515zm4.159 0l.84.543.998-1.543h-1.838v1zm-3.659 5.658l-.84-.543-.573.887.917.524.496-.868zm1.089.911l-.766.642.006.007.006.007.754-.656zm.875 1.338l.896-.444-.002-.003-.894.447zm2.32 4.677v1h1.613l-.717-1.444-.896.444zm-4.141 0l-.908.419.268.581h.64v-1zm-1.606-3.481l-.91.416.002.003.908-.419zm-.75-.892l-.515.857.008.005.007.004.5-.866zm-2.249-.268v-1h-1v1h1zm0 4.641v1h1v-1h-1zm-2.82 0v-12.584h-2V150h2zm-1-11.584h3.82v-2h-3.82v2zm2.82-1v4.873h2v-4.873h-2zm1 5.873h1.035v-2h-1.035v2zm1.892-.485l2.928-4.873-1.715-1.03-2.927 4.873 1.714 1.03zm2.07-4.388h4.159v-2h-4.159v2zm3.32-1.543l-3.66 5.658 1.68 1.086 3.659-5.658-1.679-1.086zm-3.316 7.069c.314.18.585.407.819.685l1.532-1.285a4.999 4.999 0 00-1.359-1.136l-.992 1.736zm.831.699c.256.295.503.667.734 1.13l1.789-.895a7.324 7.324 0 00-1.015-1.548l-1.508 1.313zm.733 1.127l2.32 4.676 1.792-.888-2.321-4.677-1.791.889zM196.03 149h-4.141v2h4.141v-2zm-3.233.581l-1.607-3.481-1.815.838 1.606 3.481 1.816-.838zm-1.605-3.478c-.252-.552-.625-1.034-1.159-1.342l-1 1.732c.084.049.212.161.34.442l1.819-.832zm-1.145-1.334c-.512-.307-1.127-.41-1.746-.41v2c.428 0 .635.076.717.125l1.029-1.715zm-1.746-.41h-1.017v2h1.017v-2zm-2.017 1V150h2v-4.641h-2zm1 3.641h-3.82v2h3.82v-2zm9.62 1h-1v1h1v-1zm0-12.584v-1h-1v1h1zm9.853 1.106l-.702.713.006.006.696-.719zm0 5.891l-.702-.713.702.713zm-5.998 1.107v-1h-1v1h1zm0 4.48v1h1v-1h-1zm0-7.408h-1v1h1v-1zm0-2.249v-1h-1v1h1zM197.904 150v-12.584h-2V150h2zm-1-11.584h6.497v-2h-6.497v2zm6.497 0c1.335 0 2.158.33 2.654.819l1.403-1.425c-1.002-.987-2.417-1.394-4.057-1.394v2zm2.66.825c.519.503.82 1.206.82 2.227h2c0-1.454-.448-2.715-1.429-3.664l-1.391 1.437zm.82 2.227c0 1.005-.299 1.714-.826 2.232l1.403 1.426c.973-.957 1.423-2.213 1.423-3.658h-2zm-.826 2.232c-.496.489-1.319.82-2.654.82v2c1.64 0 3.055-.408 4.057-1.394l-1.403-1.426zm-2.654.82h-2.642v2h2.642v-2zm-3.642 1V150h2v-4.48h-2zm1 3.48h-3.855v2h3.855v-2zm0-5.408h2.124v-2h-2.124v2zm2.124 0c.559 0 1.164-.115 1.639-.519.506-.431.682-1.03.682-1.605h-2a.424.424 0 01-.013.127v-.001l.002-.004.008-.013a.131.131 0 01.025-.027c.017-.015.015-.005-.038.01a1.139 1.139 0 01-.305.032v2zm2.321-2.124c0-.575-.176-1.175-.682-1.605-.475-.404-1.08-.52-1.639-.52v2c.153 0 .25.017.305.032.053.015.055.026.038.011a.138.138 0 01-.025-.028l-.008-.012-.002-.004v-.002s.013.036.013.128h2zm-2.321-2.125h-2.124v2h2.124v-2zm-3.124 1v2.249h2v-2.249h-2zM210.975 150l-.887-.46-.757 1.46h1.644v-1zm2.017-3.891l.888.46.262-.504-.3-.483-.85.527zm-5.39-8.693v-1h-1.797l.947 1.527.85-.527zm4.034 0l.857-.516-.292-.484h-.565v1zm3.177 5.283l-.857.516.926 1.539.821-1.598-.89-.457zm2.713-5.283v-1h-.61l-.279.543.889.457zm3.945 0l.888.461.758-1.461h-1.646v1zM214.938 150v1h.608l.28-.539-.888-.461zm-3.075.46l2.017-3.891-1.775-.92-2.017 3.891 1.775.92zm1.979-4.878l-5.39-8.693-1.7 1.054 5.391 8.693 1.699-1.054zm-6.24-7.166h4.034v-2h-4.034v2zm3.177-.485l3.177 5.284 1.714-1.031-3.177-5.284-1.714 1.031zm4.924 5.225l2.713-5.283-1.779-.914-2.713 5.284 1.779.913zm1.823-4.74h3.945v-2h-3.945v2zm3.058-1.461l-6.533 12.584 1.775.922 6.533-12.584-1.775-.922zM214.938 149h-3.963v2h3.963v-2zm7.032 1h-1v1h1v-1zm0-12.584v-1h-1v1h1zm11.942 0h1v-1h-1v1zm0 12.584v1h1v-1h-1zm-3.82 0h-1v1h1v-1zm0-9.514h1v-1h-1v1zm-4.302 0v-1h-1v1h1zm0 9.514v1h1v-1h-1zm-2.82 0v-12.584h-2V150h2zm-1-11.584h11.942v-2H221.97v2zm10.942-1V150h2v-12.584h-2zm1 11.584h-3.82v2h3.82v-2zm-2.82 1v-9.514h-2V150h2zm-1-10.514h-4.302v2h4.302v-2zm-5.302 1V150h2v-9.514h-2zm1 8.514h-3.82v2h3.82v-2zm10.195 1h-1v1h1v-1zm0-12.584v-1h-1v1h1zm3.856 0h1v-1h-1v1zm0 4.641h-1v1h1v-1zm4.302 0v1h1v-1h-1zm0-4.641v-1h-1v1h1zm3.855 0h1v-1h-1v1zm0 12.584v1h1v-1h-1zm-3.855 0h-1v1h1v-1zm0-4.802h1v-1h-1v1zm-4.302 0v-1h-1v1h1zm0 4.802v1h1v-1h-1zm-2.856 0v-12.584h-2V150h2zm-1-11.584h3.856v-2h-3.856v2zm2.856-1v4.641h2v-4.641h-2zm1 5.641h4.302v-2h-4.302v2zm5.302-1v-4.641h-2v4.641h2zm-1-3.641h3.855v-2h-3.855v2zm2.855-1V150h2v-12.584h-2zm1 11.584h-3.855v2h3.855v-2zm-2.855 1v-4.802h-2V150h2zm-1-5.802h-4.302v2h4.302v-2zm-5.302 1V150h2v-4.802h-2zm1 3.802h-3.856v2h3.856v-2zm10.229 1h-1v1h1v-1zm0-12.584v-1h-1v1h1zm9.336 0h1v-1h-1v1zm0 2.927v1h1v-1h-1zm-5.659 0v-1h-1v1h1zm0 1.803h-1v1h1v-1zm5.23 0h1v-1h-1v1zm0 2.927v1h1v-1h-1zm-5.23 0v-1h-1v1h1zm0 2h-1v1h1v-1zm5.659 0h1v-1h-1v1zm0 2.927v1h1v-1h-1zm-8.336 0v-12.584h-2V150h2zm-1-11.584h9.336v-2h-9.336v2zm8.336-1v2.927h2v-2.927h-2zm1 1.927h-5.659v2h5.659v-2zm-6.659 1v1.803h2v-1.803h-2zm1 2.803h5.23v-2h-5.23v2zm4.23-1v2.927h2v-2.927h-2zm1 1.927h-5.23v2h5.23v-2zm-6.23 1v2h2v-2h-2zm1 3h5.659v-2h-5.659v2zm4.659-1V150h2v-2.927h-2zm1 1.927h-9.336v2h9.336v-2zm1.524 1h-1v1h1v-1zm0-12.584v-1h-1v1h1zm3.57 0h1v-1h-1v1zm0 6.533h-1v2.812l1.776-2.181-.776-.631zm5.319-6.533v-1h-.475l-.3.368.775.632zm2.803 0h1v-1h-1v1zm0 12.584v1h1v-1h-1zm-3.57 0h-1v1h1v-1zm0-6.533h1v-2.812l-1.776 2.181.776.631zm-5.32 6.533v1h.476l.3-.369-.776-.631zm.911-13.941l-.424.906.008.004.008.003.408-.913zm-1.285-1.017l-.832.554.009.014.009.013.814-.581zm-.536-1.375l-.301-.953-.812.256.124.842.989-.145zm1.696-.535l.935-.354-.334-.885-.902.285.301.954zm.821 1.142l-.548.837.006.004.007.004.535-.845zm2.892-.053l-.592-.807-.006.005-.007.005.605.797zm.732-1.071l.3-.954-.976-.308-.285.984.961.278zm1.642.517l.984.177.155-.866-.839-.264-.3.953zm-1.214 1.982l-.618-.787-.007.006.625.781zM261.93 150v-12.584h-2V150h2zm-1-11.584h3.57v-2h-3.57v2zm2.57-1v6.533h2v-6.533h-2zm1.776 7.164l5.319-6.533-1.551-1.263-5.319 6.533 1.551 1.263zm4.543-6.164h2.803v-2h-2.803v2zm1.803-1V150h2v-12.584h-2zm1 11.584h-3.57v2h3.57v-2zm-2.57 1v-6.533h-2V150h2zm-1.776-7.164l-5.319 6.533 1.551 1.262 5.319-6.533-1.551-1.262zM263.732 149h-2.802v2h2.802v-2zm3.017-13.566c-.754 0-1.306-.113-1.698-.288l-.816 1.826c.726.325 1.579.462 2.514.462v-2zm-1.682-.281c-.436-.203-.717-.442-.896-.693l-1.627 1.163c.416.583.992 1.022 1.675 1.342l.848-1.812zm-.877-.666a2.325 2.325 0 01-.378-.965l-1.979.29c.093.641.329 1.238.693 1.784l1.664-1.109zm-1.067.134l1.696-.536-.602-1.907-1.696.536.602 1.907zm.459-1.136c.249.659.63 1.246 1.209 1.626l1.096-1.673c-.111-.073-.278-.247-.434-.66l-1.871.707zm1.222 1.634c.572.363 1.263.494 1.981.494v-2c-.496 0-.769-.094-.911-.184l-1.07 1.69zm1.981.494c.746 0 1.471-.156 2.05-.596l-1.209-1.593c-.11.084-.35.189-.841.189v2zm2.037-.586a2.957 2.957 0 001.101-1.599l-1.921-.556a.96.96 0 01-.363.542l1.183 1.613zm-.16-.924l1.642.518.601-1.907-1.642-.518-.601 1.907zm.958-.612c-.097.544-.364.992-.847 1.371l1.236 1.573c.849-.668 1.392-1.541 1.58-2.591l-1.969-.353zm-.854 1.377c-.427.342-1.064.566-2.017.566v2c1.261 0 2.385-.299 3.267-1.005l-1.25-1.561zM274.701 150h-1v1h1v-1zm0-12.584v-1h-1v1h1zm3.766 0h1v-1h-1v1zm0 9.514h-1v1h1v-1zm3.392 0v1h1v-1h-1zm0-9.514v-1h-1v1h1zm3.748 0h1v-1h-1v1zm0 9.514h-1v1h1v-1zm3.392 0v1h1v-1h-1zm0-9.514v-1h-1v1h1zm3.748 0h1v-1h-1v1zm0 12.584v1h1v-1h-1zm-17.046 0v-12.584h-2V150h2zm-1-11.584h3.766v-2h-3.766v2zm2.766-1v9.514h2v-9.514h-2zm1 10.514h3.392v-2h-3.392v2zm4.392-1v-9.514h-2v9.514h2zm-1-8.514h3.748v-2h-3.748v2zm2.748-1v9.514h2v-9.514h-2zm1 10.514h3.392v-2h-3.392v2zm4.392-1v-9.514h-2v9.514h2zm-1-8.514h3.748v-2h-3.748v2zm2.748-1V150h2v-12.584h-2zm1 11.584h-18.046v2h18.046v-2zm2.07 1h-1v1h1v-1zm0-12.584v-1h-1v1h1zm3.57 0h1v-1h-1v1zm0 6.533h-1v2.812l1.776-2.181-.776-.631zm5.319-6.533v-1h-.475l-.3.368.775.632zm2.803 0h1v-1h-1v1zm0 12.584v1h1v-1h-1zm-3.57 0h-1v1h1v-1zm0-6.533h1v-2.812l-1.776 2.181.776.631zM297.62 150v1h.475l.3-.369-.775-.631zm-1.803 0v-12.584h-2V150h2zm-1-11.584h3.57v-2h-3.57v2zm2.57-1v6.533h2v-6.533h-2zm1.776 7.164l5.319-6.533-1.551-1.263-5.319 6.533 1.551 1.263zm4.543-6.164h2.803v-2h-2.803v2zm1.803-1V150h2v-12.584h-2zm1 11.584h-3.57v2h3.57v-2zm-2.57 1v-6.533h-2V150h2zm-1.776-7.164l-5.319 6.533 1.551 1.262 5.319-6.533-1.551-1.262zM297.62 149h-2.803v2h2.803v-2zm9.219 1l-.797-.604-1.216 1.604h2.013v-1zm4.801-6.337l.798.604.457-.604-.457-.603-.798.603zm-4.73-6.247v-1h-2.011l1.214 1.603.797-.603zm4.498 0l.821-.571-.298-.429h-.523v1zm2.41 3.463l-.821.571.815 1.171.823-1.166-.817-.576zm2.446-3.463v-1h-.518l-.299.423.817.577zm4.498 0l.797.603 1.214-1.603h-2.011v1zm-4.73 6.247l-.798-.603-.458.605.46.604.796-.606zm4.819 6.337v1h2.017l-1.221-1.605-.796.605zm-4.516 0l-.816.577.298.423h.518v-1zm-2.499-3.534l.817-.578-.814-1.15-.818 1.148.815.58zM311.319 150v1h.516l.299-.42-.815-.58zm-3.683.604l4.802-6.337-1.595-1.208-4.801 6.337 1.594 1.208zm4.802-7.544l-4.731-6.248-1.594 1.207 4.73 6.248 1.595-1.207zm-5.528-4.644h4.498v-2h-4.498v2zm3.678-.429l2.409 3.463 1.642-1.143-2.41-3.462-1.641 1.142zm4.047 3.468l2.445-3.462-1.633-1.154-2.446 3.463 1.634 1.153zm1.629-3.039h4.498v-2h-4.498v2zm3.701-1.604l-4.731 6.248 1.595 1.207 4.73-6.248-1.594-1.207zm-4.729 7.457l4.819 6.336 1.592-1.21-4.819-6.337-1.592 1.211zm5.615 4.731h-4.516v2h4.516v-2zm-3.699.423l-2.499-3.535-1.633 1.155 2.499 3.534 1.633-1.154zm-4.131-3.537l-2.516 3.534 1.629 1.16 2.517-3.534-1.63-1.16zM311.319 149h-4.48v2h4.48v-2z" fill="#fff" mask="url(#b)"/><path d="M3.25 208v-27.354h14.007c3.078 0 5.445.647 7.1 1.94 1.682 1.267 2.523 2.975 2.523 5.122 0 1.396-.363 2.625-1.087 3.686-.698 1.034-1.681 1.81-2.949 2.328 1.578.491 2.781 1.293 3.609 2.405.828 1.087 1.241 2.432 1.241 4.035 0 2.38-.905 4.281-2.716 5.704-1.81 1.423-4.255 2.134-7.333 2.134H3.25zm7.993-16.917h4.423c1.139 0 1.953-.168 2.445-.504.517-.362.776-.931.776-1.707s-.259-1.333-.776-1.669c-.492-.336-1.306-.504-2.445-.504h-4.423v4.384zm0 10.864h5.277c2.173 0 3.26-.802 3.26-2.405 0-1.604-1.087-2.406-3.26-2.406h-5.277v4.811zM33.193 208l4.385-8.458-11.718-18.896h8.77l6.906 11.485 5.897-11.485h8.575L41.808 208h-8.614zm33.134.466c-2.302 0-4.358-.246-6.169-.738-1.785-.517-3.401-1.215-4.85-2.095l2.328-5.975c.983.647 2.16 1.164 3.531 1.552 1.397.362 2.884.543 4.462.543 1.604 0 2.78-.194 3.53-.582.777-.414 1.165-1.06 1.165-1.94 0-.646-.272-1.138-.815-1.474-.517-.336-1.358-.505-2.522-.505h-6.79v-6.285h6.014c1.164 0 2.005-.142 2.522-.427.517-.31.776-.815.776-1.513 0-.595-.297-1.1-.892-1.513-.57-.414-1.54-.621-2.91-.621a14.63 14.63 0 00-4.074.582c-1.346.362-2.497.866-3.454 1.513l-2.328-5.975c1.242-.854 2.794-1.539 4.656-2.057 1.889-.517 3.945-.776 6.17-.776 3.647 0 6.363.712 8.148 2.134 1.81 1.423 2.716 3.221 2.716 5.394 0 1.422-.363 2.651-1.087 3.686-.698 1.034-1.681 1.823-2.949 2.366 1.552.492 2.742 1.281 3.57 2.367.828 1.087 1.242 2.445 1.242 4.074 0 1.604-.44 3.027-1.32 4.268-.88 1.242-2.211 2.225-3.996 2.949-1.759.698-3.984 1.048-6.674 1.048zm28.518 0c-2.897 0-5.406-.595-7.527-1.785a12.472 12.472 0 01-4.927-4.967c-1.139-2.147-1.708-4.617-1.708-7.41 0-2.82.57-5.29 1.708-7.411a12.215 12.215 0 014.927-4.928c2.121-1.19 4.63-1.785 7.527-1.785 2.923 0 5.445.595 7.566 1.785a12.216 12.216 0 014.928 4.928c1.164 2.121 1.746 4.591 1.746 7.411 0 2.819-.582 5.289-1.746 7.41a12.473 12.473 0 01-4.928 4.967c-2.121 1.19-4.643 1.785-7.566 1.785zm0-6.946c1.863 0 3.234-.633 4.113-1.901.906-1.293 1.358-3.065 1.358-5.315 0-2.251-.453-4.01-1.358-5.277-.88-1.268-2.25-1.901-4.113-1.901-1.862 0-3.233.633-4.112 1.901-.854 1.241-1.28 3-1.28 5.277 0 2.276.426 4.048 1.28 5.315.879 1.268 2.25 1.901 4.112 1.901zm18.099 6.48v-27.354h14.007c3.078 0 5.444.647 7.1 1.94 1.681 1.267 2.522 2.975 2.522 5.122 0 1.396-.362 2.625-1.086 3.686-.699 1.034-1.682 1.81-2.949 2.328 1.578.491 2.78 1.293 3.608 2.405.828 1.087 1.242 2.432 1.242 4.035 0 2.38-.906 4.281-2.716 5.704-1.811 1.423-4.255 2.134-7.333 2.134h-14.395zm7.993-16.917h4.423c1.138 0 1.953-.168 2.444-.504.517-.362.776-.931.776-1.707s-.259-1.333-.776-1.669c-.491-.336-1.306-.504-2.444-.504h-4.423v4.384zm0 10.864h5.276c2.173 0 3.26-.802 3.26-2.405 0-1.604-1.087-2.406-3.26-2.406h-5.276v4.811zM151.971 208v-27.354h14.123c3.234 0 5.665.802 7.295 2.406 1.629 1.577 2.444 3.711 2.444 6.402 0 2.664-.815 4.798-2.444 6.402-1.63 1.603-4.061 2.405-7.295 2.405h-5.742V208h-8.381zm8.381-16.102h4.617c1.914 0 2.871-.815 2.871-2.444 0-1.63-.957-2.445-2.871-2.445h-4.617v4.889zm31.683 16.568c-2.897 0-5.406-.595-7.527-1.785a12.473 12.473 0 01-4.928-4.967c-1.138-2.147-1.707-4.617-1.707-7.41 0-2.82.569-5.29 1.707-7.411a12.216 12.216 0 014.928-4.928c2.121-1.19 4.63-1.785 7.527-1.785 2.923 0 5.445.595 7.566 1.785a12.214 12.214 0 014.927 4.928c1.164 2.121 1.746 4.591 1.746 7.411 0 2.819-.582 5.289-1.746 7.41a12.47 12.47 0 01-4.927 4.967c-2.121 1.19-4.643 1.785-7.566 1.785zm0-6.946c1.862 0 3.233-.633 4.113-1.901.905-1.293 1.358-3.065 1.358-5.315 0-2.251-.453-4.01-1.358-5.277-.88-1.268-2.251-1.901-4.113-1.901-1.863 0-3.234.633-4.113 1.901-.854 1.241-1.28 3-1.28 5.277 0 2.276.426 4.048 1.28 5.315.879 1.268 2.25 1.901 4.113 1.901zm32.415 6.946c-3.052 0-5.703-.582-7.954-1.746-2.224-1.19-3.957-2.846-5.199-4.967-1.216-2.121-1.823-4.604-1.823-7.449 0-2.846.607-5.316 1.823-7.411 1.242-2.121 2.975-3.764 5.199-4.928 2.251-1.19 4.902-1.785 7.954-1.785 1.863 0 3.57.246 5.122.738 1.578.465 2.884 1.138 3.919 2.017l-2.445 6.557c-1.164-.776-2.211-1.306-3.142-1.59-.932-.311-1.979-.466-3.143-.466-2.095 0-3.712.595-4.85 1.785-1.112 1.164-1.669 2.858-1.669 5.083 0 2.25.557 3.97 1.669 5.16 1.138 1.164 2.755 1.746 4.85 1.746 1.164 0 2.211-.142 3.143-.427.931-.31 1.978-.853 3.142-1.629l2.445 6.557c-1.035.879-2.341 1.565-3.919 2.056-1.552.466-3.259.699-5.122.699zm25.993 0c-3.052 0-5.703-.582-7.954-1.746-2.224-1.19-3.957-2.846-5.199-4.967-1.216-2.121-1.823-4.604-1.823-7.449 0-2.846.607-5.316 1.823-7.411 1.242-2.121 2.975-3.764 5.199-4.928 2.251-1.19 4.902-1.785 7.954-1.785 1.863 0 3.57.246 5.122.738 1.578.465 2.884 1.138 3.919 2.017l-2.445 6.557c-1.164-.776-2.211-1.306-3.142-1.59-.932-.311-1.979-.466-3.143-.466-2.095 0-3.712.595-4.85 1.785-1.112 1.164-1.669 2.858-1.669 5.083 0 2.25.557 3.97 1.669 5.16 1.138 1.164 2.755 1.746 4.85 1.746 1.164 0 2.211-.142 3.143-.427.931-.31 1.978-.853 3.142-1.629l2.445 6.557c-1.035.879-2.341 1.565-3.919 2.056-1.552.466-3.259.699-5.122.699zm12.245-.466v-27.354h7.76v14.201l11.562-14.201h6.092V208h-7.76v-14.201L268.779 208h-6.091zm29.933 0v-27.354h7.76v14.201l11.562-14.201h6.092V208h-7.76v-14.201L298.713 208h-6.092z" fill="#fff"/></svg>