<svg width="1339" height="327" fill="none" xmlns="http://www.w3.org/2000/svg"><g opacity=".1" stroke="#fff" stroke-miterlimit="10"><path d="M-8 15.286h94.448c23.827.246 47.593.37 71.236.37 208.289-12.067 406.543 1.6 611.754-.37h72.776c24.196 0 48.332 0 72.344.062 141.922 1.908 292.272 1.908 436.282.123 29.68-.185 56.83-.185 80.84-.185h115.2M-8 97.102s24.32 0 66.372.062c21.18-.493 42.298-1.108 63.293-2.217 237.536-43.586 469.961-9.357 706.08 2.155h210.815c72.71 2.155 154.72 2.155 229.59 0H1547M-8 178.919s15.577-.001 43.16.061c24.197-1.847 48.332-4.063 72.221-7.572 231.317-78.984 477.41-51.651 719.379 7.141 20.318.308 39.712.37 58.922.37h661.198"/><path d="M-8 260.735s15.577 0 43.037.061c20.995 2.709 41.252 2.524 60.892-.492 78.686-17.546 140.194-72.213 222.266-92.713 177.752-41.001 328.166 54.667 499.699 79.231 23.581 4.063 45.93 8.68 67.849 13.913h661.197"/><path d="M-8 342.612h43.407c14.284.678 28.876 1.601 43.283 1.97 95.925 14.406 136.931-88.095 219.003-115.429 68.342-27.333 143.58-13.667 211.922 6.834 102.575 34.167 198.254 75.167 308.71 89.511 23.273 4.987 45.376 10.466 67.234 16.253 19.394.8 38.542.8 57.506.861h603.815"/><path d="M-8 424.429h43.53c13.976 0 31.092 0 50.733-.062 40.451-10.712 95.125 9.85 122.462-24.379 170.917-198.23 410.176-20.5 611.324 4.187a1143.82 1143.82 0 0165.51 19.269c19.332.861 38.481.861 57.506.923h603.815"/><path d="M73.827 669.877V508.215c0-24.871 0-52.082-.062-81.201-.554-40.877-.985-81.077-1.17-120.97-.184-39.953-.184-79.538 0-119.369.185-39.83.555-79.846 1.109-120.477.123-19.023.184-38.168.184-57.376v-893.576m81.765 1554.631V508.03c-8.373-142.209-8.373-278.938-6.033-420.162a37236.1 37236.1 0 016.033-137.1v-835.583m81.884 1554.692v-24.932c0-16.191 0-39.77-.062-69.75-35.526-188.873-42.36-393.937-8.312-583.734 2.648-21.423 5.357-43.462 8.251-65.563.184-16.684.184-33.367.184-49.989v-760.724m81.77 1554.692c-3.51-21.916-6.957-43.709-10.221-65.44-38.85-211.282-73.021-430.013-5.787-638.77 4.864-20.5 10.036-41.862 15.823-63.41.123-17.852.123-35.644.123-53.435v-733.637"/><path d="M401.193 668.215c.739-19.023 0-37.676-2.032-56.022-19.456-143.809-122.031-273.644-101.528-430.874C311.301 78.757 407.042 10.423 401.131-100.143c.062-16.991.062-34.044.062-50.974v-733.637"/><path d="M482.831 664.337c-.123-23.579-2.463-46.603-6.957-69.504-75.669-201.678-191.851-413.575-14.1-611.806 20.503-13.666 27.337-47.833 21.303-83.232v-50.973c-.061-373.56-.061-733.637-.061-733.637"/><path d="M564.537 662.428c-4.803-24.194-9.667-48.265-15.208-72.212C468.55 379.488 406.98 147.091 563.305-49.108c1.232-19.454 1.54-38.907 1.54-58.361v-285.464c-.616-82.001-.616-164.063 0-249.019v-242.925"/><path d="M646.547 664.521c-2.77-21.67-5.356-43.34-7.819-65.071-3.509-21.608-6.834-43.278-10.959-64.887-83.981-196.075-42.976-394.306 18.286-583.733.677-25.486.677-51.035.677-76.522V-252.51a3567.27 3567.27 0 001.847-63.039c.431-21.055.678-42.171.739-63.533-2.955-130.081-2.955-253.143-2.586-379.654v-126.202m81.827 1553.153c-.678-22.039-1.293-44.079-1.724-66.056-.555-22.163-.986-44.264-1.478-66.549-44.884-169.789-17.547-347.519 2.709-526.85.493-19.269.493-38.6.493-57.991v-101.947a1215.504 1215.504 0 005.725-45.002 1367.819 1367.819 0 003.879-44.017c17.548-207.403-9.789-405.634-9.604-611.005v-33.613m81.82 1554.692V462.105c0-22.778-.184-45.495-.677-68.088-6.157-110.135.677-219.531.739-327.819V-76.195c8.558-20.809 15.577-41.74 21.303-62.855 40.205-246.988-28.137-499.886-21.303-745.765M892.21 669.877V508.153c.185-73.998.185-149.165 0-224.209V5.128c.061-31.581 1.847-62.732 8.681-91.112 6.834-28.38 18.84-54.051 39.22-74.613 27.46-34.106 47.963-75.106 47.963-122.94-13.669-205.064-123.078-389.627-95.926-601.34"/><path d="M974.034 669.877V66.136c-10.036-51.773 3.694-98.191 24.258-141.9 6.838-14.59 14.468-28.812 22.168-42.909 49.62-69.135 70.12-151.197 56.46-240.031-41.01-184.564-129.915-341.794-102.948-526.173"/><path d="M1055.86 669.877V114.216c-13.3-91.974 27.89-168.25 62.86-247.357 8.74-19.761 17.06-39.707 23.95-60.146 16.32-42.416 23.15-90.312 16.32-131.312-54.68-191.397-129.91-362.294-103.13-560.278"/><path d="M1137.75 669.877v-555.66c-10.72-97.946 30.23-185.426 56.03-279.124 5.17-18.715 9.72-37.737 13.11-57.068 6.83-191.397-88.85-375.96-69.27-568.773.13-29.365.13-52.944.13-69.135v-24.932m81.82 1554.692V111.385c14.16-125.71 28.08-250.066 31.53-374.976.55-24.933.74-49.927.3-75.044-3.44-129.466-30.78-252.528-31.89-384.579.06-24.81.06-47.342.06-67.226v-94.437m81.83 1554.754v-555.66c0-17.792 0-35.707.06-53.744 10.34-145.102 13.48-285.772 9.3-427.057-.62-20.193-1.36-40.385-2.28-60.578-5.91-54.544-5.91-116.106-7.08-169.542v-288.05"/></g></svg>