<svg width="1500" height="48" fill="none" xmlns="http://www.w3.org/2000/svg"><path d="M875.415 48H1500V0H875.415v48z" fill="#D32B32"/><path d="M875.415 48H1500V0H875.415v48z" fill="url(#paint0_linear_456_3047)"/><path d="M464.433 48h239.894V0H464.433v48z" fill="url(#paint1_linear_456_3047)"/><path d="M199.893 48H370.16V0H199.893v48z" fill="#D32B32"/><path d="M199.893 48H370.16V0H199.893v48z" fill="url(#paint2_linear_456_3047)"/><path d="M-40 48h85.03V0H-40v48z" fill="#D32B32"/><path d="M-40 48h85.03V0H-40v48z" fill="url(#paint3_linear_456_3047)"/><defs><linearGradient id="paint0_linear_456_3047" x1="1300.81" y1="84.095" x2="1304.46" y2="-2.483" gradientUnits="userSpaceOnUse"><stop stop-color="#E52A31"/><stop offset="1" stop-color="#A42E32"/></linearGradient><linearGradient id="paint1_linear_456_3047" x1="627.821" y1="84.095" x2="637.235" y2="-1.603" gradientUnits="userSpaceOnUse"><stop stop-color="#E52A31"/><stop offset="1" stop-color="#A42E32"/></linearGradient><linearGradient id="paint2_linear_456_3047" x1="315.86" y1="84.095" x2="328.969" y2="-.608" gradientUnits="userSpaceOnUse"><stop stop-color="#E52A31"/><stop offset="1" stop-color="#A42E32"/></linearGradient><linearGradient id="paint3_linear_456_3047" x1="17.913" y1="84.095" x2="42.438" y2="4.964" gradientUnits="userSpaceOnUse"><stop stop-color="#E52A31"/><stop offset="1" stop-color="#A42E32"/></linearGradient></defs></svg>