<svg width="321" height="218" fill="none" xmlns="http://www.w3.org/2000/svg"><path d="M8.917 19.234c-1.456 0-2.717-.299-3.783-.897a6.267 6.267 0 01-2.477-2.496c-.571-1.079-.857-2.32-.857-3.724 0-1.418.286-2.659.858-3.725a6.138 6.138 0 012.476-2.476c1.066-.599 2.327-.897 3.783-.897 1.469 0 2.736.298 3.803.896a6.138 6.138 0 012.476 2.477c.585 1.066.877 2.308.877 3.725 0 1.416-.292 2.658-.877 3.724a6.267 6.267 0 01-2.476 2.496c-1.067.598-2.334.897-3.803.897zm0-3.49c.936 0 1.625-.319 2.067-.956.455-.65.682-1.54.682-2.671 0-1.132-.227-2.016-.682-2.653-.442-.636-1.131-.955-2.067-.955-.936 0-1.625.319-2.067.955-.429.624-.643 1.508-.643 2.652 0 1.145.214 2.035.643 2.672.442.637 1.131.955 2.067.955zM18.013 19V5.253h10.861v3.159H22.01V10.4h3.335c1.547 0 2.769.377 3.666 1.131.897.742 1.345 1.794 1.345 3.16 0 1.377-.448 2.443-1.345 3.197-.897.741-2.12 1.112-3.666 1.112h-7.332zm3.997-3.1h2.75c.598 0 1.02-.098 1.267-.293.26-.208.39-.513.39-.916 0-.404-.13-.703-.39-.898-.247-.194-.67-.292-1.267-.292h-2.75V15.9zM34.84 19V8.607h-3.842V5.253h8.015V10.4h3.14c1.546 0 2.768.377 3.665 1.131.91.742 1.365 1.794 1.365 3.16 0 1.377-.455 2.443-1.365 3.197C44.921 18.63 43.7 19 42.152 19H34.84zm4.173-3.1h2.574c.598 0 1.02-.098 1.267-.293.247-.208.37-.513.37-.916 0-.404-.123-.703-.37-.898-.247-.207-.67-.311-1.267-.311h-2.574V15.9zm9.716 3.1V5.253h10.199V8.45h-6.182v1.97h5.714v3.198h-5.714v2.184h6.182V19H48.729zm10.908 3.51v-6.669h1.443c1.066-1.326 1.6-3.627 1.6-6.903V5.252h11.075v10.589h2.009v6.669h-3.588V19h-8.95v3.51h-3.589zm5.558-6.669h4.387v-7.43h-3.08v.995c0 2.886-.436 5.031-1.307 6.435zM77.332 19V5.253h3.9v7.136l5.81-7.136h3.062V19h-3.9v-7.137L80.394 19h-3.062zm15.044 0V5.253h4.212v5.07h4.699v-5.07h4.212V19h-4.212v-5.245h-4.7V19h-4.211zm14.528 0l2.126-3.725c.455-.767 1.046-1.26 1.774-1.482-1.014-.272-1.787-.766-2.32-1.481-.533-.728-.8-1.619-.8-2.672 0-1.365.442-2.438 1.326-3.218.884-.78 2.132-1.17 3.744-1.17h7.137V19h-4.173v-4.914h-.624c-.533 0-.916.195-1.15.585L111.487 19h-4.583zm6.591-7.82h2.223V8.413h-2.223c-1.235 0-1.852.461-1.852 1.384 0 .923.617 1.385 1.852 1.385zm8.664 7.82V5.253h10.198V8.45h-6.181v1.97h5.713v3.198h-5.713v2.184h6.181V19h-10.198zm11.922 0V5.253h3.666l3.842 8.599 3.841-8.6h3.666V19h-3.802v-5.44L142.72 19h-2.321l-2.515-5.323V19h-3.803zm26.217 0V8.646h-3.978V5.252h12.168v3.394h-3.978V19h-4.212zm6.018 0l6.532-13.747h3.413L182.832 19h-4.212l-1.131-2.555h-5.85L170.508 19h-4.192zm8.229-9.457l-1.56 3.724h3.217l-1.56-3.724h-.097zm9.892 9.847l-2.106-2.925c.741-.442 1.332-.962 1.774-1.56.455-.598.78-1.332.975-2.204.195-.87.293-1.917.293-3.139v-4.31h11.095V19h-4.173V8.607h-3.081v1.989c0 2.197-.429 4.036-1.287 5.518-.845 1.482-2.008 2.574-3.49 3.276zm12.5-.39l6.532-13.747h3.413L213.453 19h-4.212l-1.131-2.555h-5.85L201.129 19h-4.192zm8.229-9.457l-1.56 3.724h3.217l-1.56-3.724h-.097zM213.927 19V5.253h4.212v5.07h4.699v-5.07h4.212V19h-4.212v-5.245h-4.699V19h-4.212zm18.468 0V8.646h-3.978V5.252h12.168v3.394h-3.978V19h-4.212zm10.504.39l-2.106-2.925c.741-.442 1.332-.962 1.774-1.56.455-.598.78-1.332.975-2.204.195-.87.293-1.917.293-3.139v-4.31h11.095V19h-4.173V8.607h-3.081v1.989c0 2.197-.429 4.036-1.287 5.518-.845 1.482-2.008 2.574-3.49 3.276zm14.294-.39V5.253h3.9v7.136l5.811-7.136h3.061V19h-3.9v-7.137L260.254 19h-3.061zm15.043 0V5.253h7.04c1.547 0 2.736.324 3.568.974.845.637 1.268 1.495 1.268 2.575 0 .702-.182 1.319-.546 1.852-.351.52-.845.91-1.482 1.17.793.247 1.397.65 1.813 1.209.416.546.624 1.222.624 2.028 0 1.196-.455 2.151-1.365 2.866-.91.715-2.138 1.073-3.685 1.073h-7.235zm4.017-8.502h2.223c.572 0 .982-.084 1.229-.253.26-.182.39-.468.39-.858 0-.39-.13-.67-.39-.839-.247-.169-.657-.254-1.229-.254h-2.223v2.204zm0 5.46h2.652c1.092 0 1.638-.403 1.638-1.209s-.546-1.209-1.638-1.209h-2.652v2.418zM287.285 19l2.204-4.251-5.889-9.497h4.407l3.471 5.772 2.964-5.771h4.309L291.614 19h-4.329zm24.999.234c-1.222 0-2.321-.228-3.296-.683a6.487 6.487 0 01-2.418-1.91c-.624-.832-1.046-1.807-1.267-2.925h-1.833V19h-4.173V5.253h4.173v5.108h1.852c.234-1.091.67-2.034 1.307-2.827a6.25 6.25 0 012.398-1.853c.962-.442 2.048-.662 3.257-.662 1.443 0 2.704.298 3.783.896a6.233 6.233 0 012.515 2.477c.598 1.066.897 2.308.897 3.725 0 1.416-.305 2.664-.916 3.743a6.365 6.365 0 01-2.516 2.497c-1.079.585-2.333.877-3.763.877zm.019-3.452c.884 0 1.58-.325 2.087-.975.507-.65.76-1.546.76-2.69 0-1.145-.253-2.035-.76-2.672-.507-.65-1.203-.975-2.087-.975-.884 0-1.579.319-2.086.955-.494.637-.741 1.534-.741 2.691 0 1.145.247 2.042.741 2.691.507.65 1.202.976 2.086.976z" fill="#fff"/><mask id="a" maskUnits="userSpaceOnUse" x="1" y="39" width="319" height="35" fill="#000"><path fill="#fff" d="M1 39h319v35H1z"/><path d="M2.708 67V47.26h5.264l5.516 12.348 5.516-12.348h5.264V67h-5.46v-7.812L15.112 67H11.78l-3.612-7.644V67h-5.46zm34.625.336c-2.09 0-3.901-.43-5.432-1.288a8.999 8.999 0 01-3.556-3.584c-.822-1.55-1.232-3.332-1.232-5.348 0-2.035.41-3.817 1.232-5.348a8.814 8.814 0 013.556-3.556c1.53-.859 3.341-1.288 5.432-1.288 2.11 0 3.93.43 5.46 1.288a8.813 8.813 0 013.556 3.556c.84 1.53 1.26 3.313 1.26 5.348 0 2.035-.42 3.817-1.26 5.348a8.998 8.998 0 01-3.556 3.584c-1.53.859-3.35 1.288-5.46 1.288zm0-5.012c1.344 0 2.333-.457 2.968-1.372.653-.933.98-2.212.98-3.836 0-1.624-.327-2.893-.98-3.808-.635-.915-1.624-1.372-2.968-1.372-1.344 0-2.334.457-2.968 1.372-.616.896-.924 2.165-.924 3.808 0 1.643.308 2.921.924 3.836.634.915 1.624 1.372 2.968 1.372zM51.88 67.56l-3.024-4.2c1.064-.635 1.913-1.381 2.548-2.24.653-.859 1.12-1.913 1.4-3.164.28-1.25.42-2.753.42-4.508V47.26h15.932V67h-5.992V52.076H58.74v2.856c0 3.155-.616 5.796-1.848 7.924-1.214 2.128-2.884 3.696-5.012 4.704zm30.268-.224c-2.09 0-3.901-.43-5.432-1.288a8.998 8.998 0 01-3.556-3.584c-.821-1.55-1.232-3.332-1.232-5.348 0-2.035.41-3.817 1.232-5.348a8.813 8.813 0 013.556-3.556c1.53-.859 3.342-1.288 5.432-1.288 2.11 0 3.93.43 5.46 1.288a8.814 8.814 0 013.556 3.556c.84 1.53 1.26 3.313 1.26 5.348 0 2.035-.42 3.817-1.26 5.348a8.999 8.999 0 01-3.556 3.584c-1.53.859-3.35 1.288-5.46 1.288zm0-5.012c1.344 0 2.334-.457 2.968-1.372.654-.933.98-2.212.98-3.836 0-1.624-.326-2.893-.98-3.808-.634-.915-1.624-1.372-2.968-1.372-1.344 0-2.333.457-2.968 1.372-.616.896-.924 2.165-.924 3.808 0 1.643.308 2.921.924 3.836.635.915 1.624 1.372 2.968 1.372zM93.29 72.04v-9.576h2.072c1.53-1.904 2.296-5.208 2.296-9.912V47.26h15.904v15.204h2.884v9.576h-5.152V67H98.443v5.04h-5.152zm7.98-9.576h6.3V51.796h-4.424v1.428c0 4.144-.625 7.224-1.876 9.24zM118.698 67V47.26h14.644v4.592h-8.876v2.828h8.204v4.592h-8.204v3.136h8.876V67h-14.644zm8.708-21.28v-4.732h4.704v4.732h-4.704zm-6.048 0v-4.732h4.704v4.732h-4.704zM133.857 67l3.668-7.336c.411-.821.859-1.521 1.344-2.1a6.9 6.9 0 011.708-1.428l-5.74-8.876h6.524l4.62 7.644h.98V47.26h5.74v7.644h1.008l4.564-7.644h6.524l-5.74 8.876a6.047 6.047 0 011.708 1.456c.504.579.962 1.27 1.372 2.072l3.64 7.336h-6.468l-2.548-5.46c-.298-.653-.681-1.12-1.148-1.4-.466-.28-1.11-.42-1.932-.42h-.98V67h-5.74v-7.28h-.98c-.802 0-1.437.14-1.904.42-.466.28-.858.747-1.176 1.4L140.325 67h-6.468zm33.294 0V47.26h5.992v7.392h4.536c2.222 0 3.976.541 5.264 1.624 1.288 1.064 1.932 2.576 1.932 4.536 0 1.979-.644 3.51-1.932 4.592-1.288 1.064-3.042 1.596-5.264 1.596h-10.528zm5.992-4.452h3.696c.859 0 1.466-.14 1.82-.42.374-.299.56-.737.56-1.316 0-.579-.186-1.008-.56-1.288-.354-.28-.961-.42-1.82-.42h-3.696v3.444zm32.614 4.788c-2.203 0-4.116-.42-5.74-1.26-1.606-.859-2.856-2.053-3.752-3.584-.878-1.53-1.316-3.323-1.316-5.376 0-2.053.438-3.836 1.316-5.348.896-1.53 2.146-2.716 3.752-3.556 1.624-.859 3.537-1.288 5.74-1.288 1.344 0 2.576.177 3.696.532 1.138.336 2.081.821 2.828 1.456l-1.764 4.732c-.84-.56-1.596-.943-2.268-1.148-.672-.224-1.428-.336-2.268-.336-1.512 0-2.679.43-3.5 1.288-.803.84-1.204 2.063-1.204 3.668 0 1.624.401 2.865 1.204 3.724.821.84 1.988 1.26 3.5 1.26.84 0 1.596-.103 2.268-.308.672-.224 1.428-.616 2.268-1.176l1.764 4.732c-.747.635-1.69 1.13-2.828 1.484-1.12.336-2.352.504-3.696.504zM218.743 67V52.132h-5.712V47.26h17.472v4.872h-5.712V67h-6.048zm13.733 0V47.26h10.192c2.333 0 4.088.579 5.264 1.736 1.176 1.139 1.764 2.679 1.764 4.62 0 1.923-.588 3.463-1.764 4.62-1.176 1.157-2.931 1.736-5.264 1.736h-4.144V67h-6.048zm6.048-11.62h3.332c1.381 0 2.072-.588 2.072-1.764 0-1.176-.691-1.764-2.072-1.764h-3.332v3.528zM247.235 67l9.381-19.74h4.9L270.952 67h-6.048l-1.624-3.668h-8.4L253.256 67h-6.021zm11.817-13.58l-2.24 5.348h4.62l-2.24-5.348h-.14zM271.632 67V47.26h6.048v7.28h6.748v-7.28h6.048V67h-6.048v-7.532h-6.748V67h-6.048zm22.094 0V47.26h5.992v7.392h3.668c2.221 0 3.976.541 5.264 1.624 1.288 1.064 1.932 2.576 1.932 4.536 0 1.979-.644 3.51-1.932 4.592-1.288 1.064-3.043 1.596-5.264 1.596h-9.66zm18.928 0V47.26h5.992V67h-5.992zm-12.936-4.452h2.828c.858 0 1.465-.14 1.82-.42.373-.299.56-.737.56-1.316 0-.579-.187-1.008-.56-1.288-.355-.299-.962-.448-1.82-.448h-2.828v3.472z"/></mask><path d="M2.708 67h-1v1h1v-1zm0-19.74v-1h-1v1h1zm5.264 0l.913-.408-.264-.592h-.649v1zm5.516 12.348l-.913.408.913 2.044.913-2.044-.913-.408zm5.516-12.348v-1h-.649l-.264.592.913.408zm5.264 0h1v-1h-1v1zm0 19.74v1h1v-1h-1zm-5.46 0h-1v1h1v-1zm0-7.812h1l-1.904-.428.904.428zM15.112 67v1h.633l.27-.572-.903-.428zm-3.332 0l-.904.427.27.573h.634v-1zm-3.612-7.644l.904-.427-1.904.427h1zm0 7.644v1h1v-1h-1zm-4.46 0V47.26h-2V67h2zm-1-18.74h5.264v-2H2.708v2zm4.351-.592l5.516 12.348 1.826-.816-5.516-12.348-1.826.816zm7.342 12.348l5.516-12.348-1.826-.816L12.575 59.2l1.826.816zm4.603-11.756h5.264v-2h-5.264v2zm4.264-1V67h2V47.26h-2zm1 18.74h-5.46v2h5.46v-2zm-4.46 1v-7.812h-2V67h2zm-1.904-8.24l-3.696 7.812 1.808.856 3.696-7.812-1.808-.856zM15.112 66H11.78v2h3.332v-2zm-2.428.573l-3.612-7.644-1.808.854 3.612 7.644 1.808-.854zm-5.516-7.217V67h2v-7.644h-2zm1 6.644h-5.46v2h5.46v-2zm23.733.048l.49-.872-.49.872zm-3.556-3.584l-.884.468.004.007.003.006.877-.481zm0-10.696l-.877-.481-.004.008.88.473zm3.556-3.556l.481.877.008-.005-.49-.872zm10.892 0l-.49.872.009.005.48-.877zm3.556 3.556l.877-.481-.877.481zm0 10.696l.877.481-.877-.481zm-3.556 3.584l-.49-.872.49.872zM40.3 60.952l-.82-.573-.002.003.822.57zm0-7.644l-.822.57.008.011.814-.581zm-5.936 0l-.822-.57-.002.004.824.566zm0 7.644l-.83.559.008.011.822-.57zm2.968 5.384c-1.952 0-3.588-.4-4.943-1.16l-.978 1.744c1.706.957 3.692 1.416 5.92 1.416v-2zm-4.943-1.16a8 8 0 01-3.169-3.193l-1.753.962a9.997 9.997 0 003.944 3.975l.978-1.744zm-3.162-3.18c-.734-1.385-1.115-3.003-1.115-4.88h-2c0 2.155.44 4.102 1.348 5.816l1.767-.936zm-1.115-4.88c0-1.898.382-3.513 1.113-4.875l-1.762-.946c-.912 1.7-1.351 3.65-1.351 5.821h2zm1.108-4.867a7.814 7.814 0 013.16-3.16l-.961-1.754a9.814 9.814 0 00-3.952 3.952l1.753.962zm3.17-3.165c1.354-.76 2.99-1.16 4.942-1.16v-2c-2.23 0-4.215.459-5.921 1.416l.978 1.744zm4.942-1.16c1.972 0 3.617.4 4.97 1.16l.98-1.744c-1.709-.958-3.704-1.416-5.95-1.416v2zm4.979 1.165a7.814 7.814 0 013.16 3.16l1.753-.962a9.813 9.813 0 00-3.951-3.952l-.962 1.754zm3.16 3.16c.747 1.36 1.137 2.973 1.137 4.867h2c0-2.175-.45-4.128-1.384-5.83l-1.753.963zm1.137 4.867c0 1.894-.39 3.506-1.137 4.867l1.753.962c.934-1.7 1.384-3.654 1.384-5.829h-2zm-1.137 4.867a8 8 0 01-3.168 3.193l.978 1.744a9.998 9.998 0 003.944-3.975l-1.754-.962zm-3.168 3.193c-1.354.76-2.999 1.16-4.971 1.16v2c2.246 0 4.242-.458 5.95-1.416l-.98-1.744zm-4.971-1.852c1.594 0 2.928-.56 3.79-1.802l-1.644-1.14c-.407.587-1.053.942-2.146.942v2zm3.787-1.798c.812-1.16 1.16-2.665 1.16-4.41h-2c0 1.503-.303 2.555-.798 3.263l1.638 1.147zm1.16-4.41c0-1.743-.348-3.245-1.165-4.39l-1.628 1.163c.49.685.794 1.722.794 3.227h2zm-1.158-4.378c-.861-1.242-2.195-1.802-3.79-1.802v2c1.094 0 1.74.355 2.147.942l1.643-1.14zm-3.79-1.802c-1.594 0-2.927.56-3.789 1.802l1.643 1.14c.408-.587 1.053-.942 2.147-.942v-2zm-3.791 1.806c-.776 1.127-1.1 2.626-1.1 4.374h2c0-1.537.291-2.577.748-3.242l-1.648-1.133zm-1.1 4.374c0 1.75.325 3.252 1.094 4.395l1.66-1.118c-.464-.687-.754-1.742-.754-3.277h-2zm1.102 4.406c.862 1.242 2.195 1.802 3.79 1.802v-2c-1.094 0-1.739-.355-2.147-.942l-1.643 1.14zM51.88 67.56l-.812.584.487.676.753-.356-.428-.904zm-3.024-4.2l-.513-.859-.936.559.637.884.812-.584zm2.548-2.24l-.796-.606-.008.012.804.594zm1.82-13.86v-1h-1v1h1zm15.932 0h1v-1h-1v1zm0 19.74v1h1v-1h-1zm-5.992 0h-1v1h1v-1zm0-14.924h1v-1h-1v1zm-4.424 0v-1h-1v1h1zm-1.848 10.78l-.866-.501-.003.006.869.495zm-4.2 4.12l-3.025-4.2-1.623 1.168 3.024 4.2 1.623-1.168zm-3.324-2.757c1.16-.692 2.115-1.524 2.84-2.505L50.6 60.526c-.545.736-1.288 1.398-2.257 1.975l1.025 1.718zm2.832-2.493c.755-.993 1.274-2.186 1.58-3.551l-1.952-.438c-.254 1.137-.669 2.053-1.22 2.777l1.592 1.211zm1.58-3.551c.3-1.344.444-2.924.444-4.727h-2c0 1.706-.137 3.131-.396 4.29l1.952.437zm.444-4.727V47.26h-2v6.188h2zm-1-5.188h15.932v-2H53.225v2zm14.932-1V67h2V47.26h-2zm1 18.74h-5.992v2h5.992v-2zm-4.992 1V52.076h-2V67h2zm-1-15.924H58.74v2h4.424v-2zm-5.424 1v2.856h2v-2.856h-2zm0 2.856c0 3.027-.591 5.484-1.714 7.423l1.731 1.002c1.342-2.318 1.983-5.143 1.983-8.425h-2zm-1.717 7.429c-1.116 1.957-2.636 3.379-4.571 4.295l.856 1.808c2.321-1.1 4.142-2.814 5.453-5.113l-1.738-.99zm20.693 3.687l.49-.872-.49.872zm-3.556-3.584l-.883.468.003.007.004.006.876-.481zm0-10.696l-.877-.481-.004.008.881.473zm3.556-3.556l.481.877.009-.005-.49-.872zm10.892 0l-.489.872.008.005.481-.877zm3.556 3.556l.877-.481-.877.481zm0 10.696l.877.481-.877-.481zm-3.556 3.584l-.489-.872.49.872zm-2.492-5.096l-.819-.573-.002.003.821.57zm0-7.644l-.821.57.007.011.814-.581zm-5.936 0l-.821-.57-.003.004.824.566zm0 7.644l-.83.559.009.011.821-.57zm2.968 5.384c-1.952 0-3.588-.4-4.942-1.16l-.979 1.744c1.706.957 3.692 1.416 5.921 1.416v-2zm-4.942-1.16a8 8 0 01-3.17-3.193l-1.752.962a9.997 9.997 0 003.943 3.975l.979-1.744zm-3.162-3.18c-.734-1.385-1.116-3.003-1.116-4.88h-2c0 2.155.44 4.102 1.349 5.816l1.767-.936zm-1.116-4.88c0-1.898.382-3.513 1.113-4.875l-1.762-.946c-.912 1.7-1.35 3.65-1.35 5.821h2zm1.109-4.867a7.814 7.814 0 013.16-3.16l-.962-1.754a9.813 9.813 0 00-3.951 3.952l1.753.962zm3.169-3.165c1.355-.76 2.99-1.16 4.942-1.16v-2c-2.229 0-4.215.459-5.921 1.416l.979 1.744zm4.942-1.16c1.973 0 3.617.4 4.971 1.16l.978-1.744c-1.707-.958-3.703-1.416-5.949-1.416v2zm4.98 1.165a7.814 7.814 0 013.16 3.16l1.753-.962a9.813 9.813 0 00-3.952-3.952l-.962 1.754zm3.16 3.16c.746 1.36 1.136 2.973 1.136 4.867h2c0-2.175-.45-4.128-1.383-5.83l-1.753.963zm1.136 4.867c0 1.894-.39 3.506-1.136 4.867l1.753.962c.933-1.7 1.383-3.654 1.383-5.829h-2zm-1.136 4.867a8 8 0 01-3.169 3.193l.978 1.744a9.997 9.997 0 003.944-3.975l-1.753-.962zm-3.169 3.193c-1.354.76-2.998 1.16-4.97 1.16v2c2.245 0 4.24-.458 5.948-1.416l-.978-1.744zm-4.97-1.852c1.594 0 2.927-.56 3.789-1.802l-1.643-1.14c-.408.587-1.053.942-2.147.942v2zm3.786-1.798c.812-1.16 1.161-2.665 1.161-4.41h-2c0 1.503-.304 2.555-.799 3.263l1.638 1.147zm1.161-4.41c0-1.743-.348-3.245-1.166-4.39l-1.627 1.163c.489.685.793 1.722.793 3.227h2zm-1.158-4.378c-.862-1.242-2.195-1.802-3.79-1.802v2c1.094 0 1.739.355 2.147.942l1.643-1.14zm-3.79-1.802c-1.594 0-2.928.56-3.79 1.802l1.644 1.14c.407-.587 1.053-.942 2.146-.942v-2zm-3.792 1.806c-.775 1.127-1.1 2.626-1.1 4.374h2c0-1.537.292-2.577.748-3.242l-1.648-1.133zm-1.1 4.374c0 1.75.325 3.252 1.095 4.395l1.659-1.118c-.463-.687-.754-1.742-.754-3.277h-2zm1.103 4.406c.861 1.242 2.195 1.802 3.79 1.802v-2c-1.094 0-1.74-.355-2.147-.942l-1.643 1.14zM93.29 72.04h-1v1h1v-1zm0-9.576v-1h-1v1h1zm2.072 0v1h.48l.3-.373-.78-.627zM97.66 47.26v-1h-1v1h1zm15.904 0h1v-1h-1v1zm0 15.204h-1v1h1v-1zm2.884 0h1v-1h-1v1zm0 9.576v1h1v-1h-1zm-5.152 0h-1v1h1v-1zm0-5.04h1v-1h-1v1zm-12.852 0v-1h-1v1h1zm0 5.04v1h1v-1h-1zm2.828-9.576l-.85-.527-.947 1.527h1.797v-1zm6.3 0v1h1v-1h-1zm0-10.668h1v-1h-1v1zm-4.424 0v-1h-1v1h1zM94.291 72.04v-9.576h-2v9.576h2zm-1-8.576h2.072v-2h-2.072v2zm2.851-.373c1.757-2.185 2.517-5.788 2.517-10.539h-2c0 4.657-.77 7.662-2.075 9.285l1.558 1.254zm2.517-10.539V47.26h-2v5.292h2zm-1-4.292h15.904v-2H97.659v2zm14.904-1v15.204h2V47.26h-2zm1 16.204h2.884v-2h-2.884v2zm1.884-1v9.576h2v-9.576h-2zm1 8.576h-5.152v2h5.152v-2zm-4.152 1V67h-2v5.04h2zm-1-6.04H98.443v2h12.852v-2zm-13.852 1v5.04h2V67h-2zm1 4.04h-5.152v2h5.152v-2zm2.828-7.576h6.3v-2h-6.3v2zm7.3-1V51.796h-2v10.668h2zm-1-11.668h-4.424v2h4.424v-2zm-5.424 1v1.428h2v-1.428h-2zm0 1.428c0 4.08-.622 6.934-1.726 8.713l1.7 1.054c1.397-2.253 2.026-5.558 2.026-9.767h-2zM118.698 67h-1v1h1v-1zm0-19.74v-1h-1v1h1zm14.644 0h1v-1h-1v1zm0 4.592v1h1v-1h-1zm-8.876 0v-1h-1v1h1zm0 2.828h-1v1h1v-1zm8.204 0h1v-1h-1v1zm0 4.592v1h1v-1h-1zm-8.204 0v-1h-1v1h1zm0 3.136h-1v1h1v-1zm8.876 0h1v-1h-1v1zm0 4.592v1h1v-1h-1zm-5.936-21.28h-1v1h1v-1zm0-4.732v-1h-1v1h1zm4.704 0h1v-1h-1v1zm0 4.732v1h1v-1h-1zm-10.752 0h-1v1h1v-1zm0-4.732v-1h-1v1h1zm4.704 0h1v-1h-1v1zm0 4.732v1h1v-1h-1zM119.698 67V47.26h-2V67h2zm-1-18.74h14.644v-2h-14.644v2zm13.644-1v4.592h2V47.26h-2zm1 3.592h-8.876v2h8.876v-2zm-9.876 1v2.828h2v-2.828h-2zm1 3.828h8.204v-2h-8.204v2zm7.204-1v4.592h2V54.68h-2zm1 3.592h-8.204v2h8.204v-2zm-9.204 1v3.136h2v-3.136h-2zm1 4.136h8.876v-2h-8.876v2zm7.876-1V67h2v-4.592h-2zm1 3.592h-14.644v2h14.644v-2zm-4.936-20.28v-4.732h-2v4.732h2zm-1-3.732h4.704v-2h-4.704v2zm3.704-1v4.732h2v-4.732h-2zm1 3.732h-4.704v2h4.704v-2zm-9.752 1v-4.732h-2v4.732h2zm-1-3.732h4.704v-2h-4.704v2zm3.704-1v4.732h2v-4.732h-2zm1 3.732h-4.704v2h4.704v-2zM133.857 67l-.894-.447-.724 1.447h1.618v-1zm3.668-7.336l-.894-.447.894.447zm1.344-2.1l-.754-.657-.006.007-.006.007.766.643zm1.708-1.428l.507.862.9-.529-.567-.876-.84.543zm-5.74-8.876v-1H133l.998 1.543.839-.543zm6.524 0l.856-.517-.292-.483h-.564v1zm4.62 7.644l-.855.517.291.483h.564v-1zm.98 0v1h1v-1h-1zm0-7.644v-1h-1v1h1zm5.74 0h1v-1h-1v1zm0 7.644h-1v1h1v-1zm1.008 0v1h.568l.291-.487-.859-.513zm4.564-7.644v-1h-.567l-.291.487.858.513zm6.524 0l.84.543.998-1.543h-1.838v1zm-5.74 8.876l-.839-.543-.574.887.917.524.496-.868zm1.708 1.456l-.776.63.011.014.011.013.754-.657zm1.372 2.072l.896-.445-.005-.01-.891.455zm3.64 7.336v1h1.613l-.717-1.445-.896.445zm-6.468 0l-.906.423.27.577h.636v-1zm-2.548-5.46l-.909.416.003.007.906-.423zm-1.148-1.4l-.514.858.514-.858zm-2.912-.42v-1h-1v1h1zm0 7.28v1h1v-1h-1zm-5.74 0h-1v1h1v-1zm0-7.28h1v-1h-1v1zm-2.884.42l-.514-.858.514.858zm-1.176 1.4l-.899-.437-.005.01.904.427zM140.325 67v1h.634l.271-.573-.905-.427zm-5.573.447l3.668-7.336-1.789-.894-3.668 7.336 1.789.894zm3.668-7.336c.383-.766.79-1.397 1.216-1.904l-1.533-1.286c-.545.65-1.034 1.419-1.472 2.296l1.789.894zm1.203-1.89a5.892 5.892 0 011.461-1.223l-1.014-1.724a7.902 7.902 0 00-1.955 1.633l1.508 1.314zm1.794-2.628l-5.74-8.876-1.679 1.086 5.74 8.876 1.679-1.086zm-6.58-7.333h6.524v-2h-6.524v2zm5.669-.483l4.62 7.644 1.711-1.034-4.62-7.644-1.711 1.034zm5.475 8.127h.98v-2h-.98v2zm1.98-1V47.26h-2v7.644h2zm-1-6.644h5.74v-2h-5.74v2zm4.74-1v7.644h2V47.26h-2zm1 8.644h1.008v-2h-1.008v2zm1.867-.487l4.564-7.644-1.717-1.026-4.564 7.644 1.717 1.026zm3.705-7.157h6.524v-2h-6.524v2zm5.685-1.543l-5.74 8.876 1.679 1.086 5.74-8.876-1.679-1.086zm-5.397 10.287a5.04 5.04 0 011.428 1.219l1.552-1.262a7.051 7.051 0 00-1.987-1.693l-.993 1.736zm1.45 1.245a9.215 9.215 0 011.236 1.87l1.781-.91a11.25 11.25 0 00-1.509-2.274l-1.508 1.314zm1.231 1.86l3.64 7.336 1.791-.89-3.64-7.336-1.791.89zM165.777 66h-6.468v2h6.468v-2zm-5.561.577l-2.548-5.46-1.813.846 2.548 5.46 1.813-.846zm-2.545-5.453c-.356-.779-.856-1.429-1.543-1.842l-1.029 1.716c.246.147.512.43.753.958l1.819-.832zm-1.543-1.842c-.682-.409-1.53-.562-2.447-.562v2c.726 0 1.166.127 1.418.278l1.029-1.715zm-2.447-.562h-.98v2h.98v-2zm-1.98 1V67h2v-7.28h-2zm1 6.28h-5.74v2h5.74v-2zm-4.74 1v-7.28h-2V67h2zm-1-8.28h-.98v2h.98v-2zm-.98 0c-.903 0-1.739.155-2.418.563l1.029 1.715c.254-.153.687-.278 1.389-.278v-2zm-2.418.563c-.68.408-1.187 1.05-1.561 1.82l1.799.874c.26-.536.538-.828.791-.98l-1.029-1.715zm-1.566 1.83l-2.576 5.46 1.809.854 2.576-5.46-1.809-.854zM140.325 66h-6.468v2h6.468v-2zm26.826 1h-1v1h1v-1zm0-19.74v-1h-1v1h1zm5.992 0h1v-1h-1v1zm0 7.392h-1v1h1v-1zm9.8 1.624l-.643.765.006.006.637-.771zm0 9.128l.637.771.007-.005-.644-.766zm-9.8-2.856h-1v1h1v-1zm5.516-.42l.62.785.005-.004-.625-.781zm0-2.604l-.619.785.009.008.01.007.6-.8zm-5.516-.42v-1h-1v1h1zM168.151 67V47.26h-2V67h2zm-1-18.74h5.992v-2h-5.992v2zm4.992-1v7.392h2V47.26h-2zm1 8.392h4.536v-2h-4.536v2zm4.536 0c2.062 0 3.564.501 4.621 1.39l1.287-1.532c-1.519-1.276-3.527-1.858-5.908-1.858v2zm4.627 1.395c1.018.84 1.569 2.046 1.569 3.765h2c0-2.2-.736-4.02-2.295-5.307l-1.274 1.542zm1.569 3.765c0 1.741-.554 2.968-1.575 3.826l1.287 1.531c1.555-1.306 2.288-3.14 2.288-5.357h-2zm-1.569 3.821c-1.057.873-2.561 1.367-4.627 1.367v2c2.377 0 4.382-.57 5.901-1.825l-1.274-1.542zM177.679 66h-10.528v2h10.528v-2zm-4.536-2.452h3.696v-2h-3.696v2zm3.696 0c.909 0 1.809-.137 2.44-.635l-1.239-1.57c-.078.062-.392.205-1.201.205v2zm2.445-.64c.661-.528.935-1.284.935-2.096h-2c0 .346-.099.467-.184.535l1.249 1.562zm.935-2.096c0-.81-.274-1.574-.96-2.088l-1.2 1.6c.061.046.16.14.16.488h2zm-.94-2.073c-.631-.498-1.531-.635-2.44-.635v2c.809 0 1.123.143 1.201.205l1.239-1.57zm-2.44-.635h-3.696v2h3.696v-2zm-4.696 1v3.444h2v-3.444h-2zm27.874 6.972l-.472.882.012.006.46-.888zm-3.752-3.584l-.868.497.005.008.863-.505zm0-10.724l-.863-.505-.002.003.865.502zm3.752-3.556l.463.886.004-.002-.467-.884zm9.436-.756l-.302.953.009.003.01.003.283-.959zm2.828 1.456l.937.35.245-.658-.535-.454-.647.762zm-1.764 4.732l-.555.832 1.051.7.441-1.183-.937-.349zm-2.268-1.148l-.316.949.012.004.012.003.292-.956zm-5.768.952l-.723-.691.723.691zm0 7.392l-.731.683.008.008.008.008.715-.699zm5.768.952l.292.956.012-.003.012-.004-.316-.949zm2.268-1.176l.937-.35-.441-1.182-1.051.7.555.832zm1.764 4.732l.647.762.535-.454-.245-.657-.937.349zm-2.828 1.484l.287.958.01-.003-.297-.955zm-3.696-.496c-2.075 0-3.825-.395-5.281-1.148l-.919 1.776c1.793.927 3.87 1.372 6.2 1.372v-2zm-5.269-1.142c-1.447-.774-2.56-1.84-3.36-3.207l-1.726 1.01c.992 1.695 2.38 3.017 4.143 3.96l.943-1.763zm-3.356-3.2c-.777-1.355-1.183-2.97-1.183-4.878h-2c0 2.199.471 4.168 1.448 5.873l1.735-.994zm-1.183-4.878c0-1.908.406-3.511 1.181-4.846l-1.73-1.004c-.98 1.69-1.451 3.651-1.451 5.85h2zm1.179-4.843c.799-1.365 1.91-2.42 3.352-3.175l-.927-1.772c-1.768.925-3.158 2.24-4.151 3.937l1.726 1.01zm3.356-3.177c1.454-.769 3.201-1.172 5.273-1.172v-2c-2.334 0-4.414.455-6.208 1.404l.935 1.768zm5.273-1.172c1.256 0 2.384.166 3.394.485l.604-1.906c-1.231-.39-2.566-.579-3.998-.579v2zm3.413.491c1.032.305 1.843.732 2.463 1.259l1.295-1.524c-.873-.742-1.947-1.286-3.192-1.653l-.566 1.918zm2.174.148l-1.764 4.732 1.874.698 1.764-4.732-1.874-.698zm-.273 4.249c-.888-.593-1.734-1.03-2.53-1.272l-.584 1.912c.548.168 1.214.497 2.005 1.024l1.109-1.664zm-2.506-1.265c-.791-.263-1.656-.387-2.584-.387v2c.752 0 1.398.1 1.952.285l.632-1.898zm-2.584-.387c-1.707 0-3.165.49-4.223 1.597l1.445 1.382c.585-.61 1.46-.979 2.778-.979v-2zm-4.223 1.597c-1.039 1.087-1.481 2.596-1.481 4.359h2c0-1.447.36-2.385.927-2.977l-1.446-1.382zm-1.481 4.359c0 1.78.441 3.302 1.473 4.407l1.461-1.366c-.572-.612-.934-1.573-.934-3.041h-2zm1.489 4.423c1.059 1.084 2.515 1.561 4.215 1.561v-2c-1.324 0-2.202-.363-2.785-.96l-1.43 1.4zm4.215 1.561c.92 0 1.777-.112 2.56-.352l-.584-1.912c-.561.171-1.217.264-1.976.264v2zm2.584-.36c.784-.26 1.621-.702 2.506-1.292l-1.109-1.664c-.795.53-1.469.873-2.029 1.06l.632 1.897zm1.015-1.775l1.764 4.732 1.874-.698-1.764-4.732-1.874.698zm2.053 3.621c-.624.53-1.44.968-2.478 1.291l.595 1.91c1.24-.387 2.309-.939 3.178-1.677l-1.295-1.524zm-2.468 1.288c-1.014.304-2.147.462-3.408.462v2c1.427 0 2.757-.178 3.983-.546l-.575-1.916zM218.743 67h-1v1h1v-1zm0-14.868h1v-1h-1v1zm-5.712 0h-1v1h1v-1zm0-4.872v-1h-1v1h1zm17.472 0h1v-1h-1v1zm0 4.872v1h1v-1h-1zm-5.712 0v-1h-1v1h1zm0 14.868v1h1v-1h-1zm-5.048 0V52.132h-2V67h2zm-1-15.868h-5.712v2h5.712v-2zm-4.712 1V47.26h-2v4.872h2zm-1-3.872h17.472v-2h-17.472v2zm16.472-1v4.872h2V47.26h-2zm1 3.872h-5.712v2h5.712v-2zm-6.712 1V67h2V52.132h-2zm1 13.868h-6.048v2h6.048v-2zm7.685 1h-1v1h1v-1zm0-19.74v-1h-1v1h1zm15.456 1.736l-.702.713.006.005.696-.718zm0 9.24l-.702-.713.702.713zm-9.408 1.736v-1h-1v1h1zm0 7.028v1h1v-1h-1zm0-11.62h-1v1h1v-1zm0-3.528v-1h-1v1h1zM233.476 67V47.26h-2V67h2zm-1-18.74h10.192v-2h-10.192v2zm10.192 0c2.18 0 3.639.54 4.562 1.449l1.403-1.426c-1.429-1.406-3.479-2.023-5.965-2.023v2zm4.568 1.454c.946.916 1.46 2.177 1.46 3.902h2c0-2.158-.662-3.977-2.069-5.338l-1.391 1.436zm1.46 3.902c0 1.703-.513 2.97-1.466 3.907l1.403 1.426c1.399-1.377 2.063-3.19 2.063-5.333h-2zm-1.466 3.907c-.923.909-2.382 1.449-4.562 1.449v2c2.486 0 4.536-.617 5.965-2.023l-1.403-1.426zm-4.562 1.449h-4.144v2h4.144v-2zm-5.144 1V67h2v-7.028h-2zm1 6.028h-6.048v2h6.048v-2zm0-9.62h3.332v-2h-3.332v2zm3.332 0c.809 0 1.602-.169 2.202-.68.631-.537.87-1.296.87-2.084h-2c0 .388-.107.51-.167.562-.09.077-.333.202-.905.202v2zm3.072-2.764c0-.788-.239-1.547-.87-2.084-.6-.511-1.393-.68-2.202-.68v2c.572 0 .815.125.905.202.06.051.167.174.167.562h2zm-3.072-2.764h-3.332v2h3.332v-2zm-4.332 1v3.528h2v-3.528h-2zM247.236 67l-.904-.43-.679 1.43h1.583v-1zm9.379-19.74v-1h-.631l-.272.57.903.43zm4.901 0l.902-.431-.272-.569h-.63v1zM270.952 67v1h1.586l-.684-1.431-.902.431zm-6.048 0l-.915.405.264.595h.651v-1zm-1.624-3.668l.914-.405-.264-.595h-.65v1zm-8.4 0v-1h-.651l-.264.595.915.405zM253.255 67v1h.651l.264-.595-.915-.405zm5.797-13.58v-1h-.666l-.257.614.923.386zm-2.24 5.348l-.923-.386-.581 1.386h1.504v-1zm4.619 0v1h1.504l-.581-1.386-.923.386zm-2.24-5.348l.923-.386-.257-.614h-.666v1zm-11.052 14.01l9.38-19.74-1.807-.86-9.38 19.74 1.807.86zm8.476-19.17h4.901v-2h-4.901v2zm3.998-.569l9.436 19.74 1.805-.862-9.436-19.74-1.805.862zM270.952 66h-6.048v2h6.048v-2zm-5.134.595l-1.624-3.668-1.829.81 1.624 3.668 1.829-.81zm-2.538-4.263h-8.4v2h8.4v-2zm-9.315.595l-1.624 3.668 1.829.81 1.624-3.668-1.829-.81zm-.71 3.073h-6.019v2h6.019v-2zm4.874-12.966l-2.24 5.348 1.845.772 2.24-5.348-1.845-.772zm-1.317 6.734h4.619v-2h-4.619v2zm5.542-1.386l-2.24-5.348-1.845.772 2.24 5.348 1.845-.772zm-3.163-5.962h-.139v2h.139v-2zM271.632 67h-1v1h1v-1zm0-19.74v-1h-1v1h1zm6.048 0h1v-1h-1v1zm0 7.28h-1v1h1v-1zm6.748 0v1h1v-1h-1zm0-7.28v-1h-1v1h1zm6.048 0h1v-1h-1v1zm0 19.74v1h1v-1h-1zm-6.048 0h-1v1h1v-1zm0-7.532h1v-1h-1v1zm-6.748 0v-1h-1v1h1zm0 7.532v1h1v-1h-1zm-5.048 0V47.26h-2V67h2zm-1-18.74h6.048v-2h-6.048v2zm5.048-1v7.28h2v-7.28h-2zm1 8.28h6.748v-2h-6.748v2zm7.748-1v-7.28h-2v7.28h2zm-1-6.28h6.048v-2h-6.048v2zm5.048-1V67h2V47.26h-2zm1 18.74h-6.048v2h6.048v-2zm-5.048 1v-7.532h-2V67h2zm-1-8.532h-6.748v2h6.748v-2zm-7.748 1V67h2v-7.532h-2zm1 6.532h-6.048v2h6.048v-2zm16.046 1h-1v1h1v-1zm0-19.74v-1h-1v1h1zm5.992 0h1v-1h-1v1zm0 7.392h-1v1h1v-1zm8.932 1.624l-.644.765.007.006.637-.771zm0 9.128l.636.771.007-.005-.643-.766zM312.654 67h-1v1h1v-1zm0-19.74v-1h-1v1h1zm5.992 0h1v-1h-1v1zm0 19.74v1h1v-1h-1zm-18.928-4.452h-1v1h1v-1zm4.648-.42l.619.785.005-.004-.624-.781zm0-2.604l-.645.765.022.018.023.017.6-.8zm-4.648-.448v-1h-1v1h1zM294.726 67V47.26h-2V67h2zm-1-18.74h5.992v-2h-5.992v2zm4.992-1v7.392h2V47.26h-2zm1 8.392h3.668v-2h-3.668v2zm3.668 0c2.062 0 3.563.501 4.62 1.39l1.287-1.532c-1.519-1.276-3.527-1.858-5.907-1.858v2zm4.627 1.395c1.017.84 1.569 2.046 1.569 3.765h2c0-2.2-.737-4.02-2.296-5.307l-1.273 1.542zm1.569 3.765c0 1.741-.555 2.968-1.576 3.826l1.287 1.531c1.555-1.306 2.289-3.14 2.289-5.357h-2zm-1.569 3.821c-1.057.873-2.561 1.367-4.627 1.367v2c2.376 0 4.382-.57 5.9-1.825l-1.273-1.542zM303.386 66h-9.66v2h9.66v-2zm10.268 1V47.26h-2V67h2zm-1-18.74h5.992v-2h-5.992v2zm4.992-1V67h2V47.26h-2zm1 18.74h-5.992v2h5.992v-2zm-18.928-2.452h2.828v-2h-2.828v2zm2.828 0c.908 0 1.808-.137 2.439-.635l-1.239-1.57c-.078.062-.392.205-1.2.205v2zm2.444-.64c.661-.528.936-1.284.936-2.096h-2c0 .346-.099.467-.185.535l1.249 1.562zm.936-2.096c0-.81-.275-1.574-.96-2.088l-1.2 1.6c.061.046.16.14.16.488h2zm-.916-2.053c-.635-.535-1.547-.683-2.464-.683v2c.799 0 1.101.15 1.175.213l1.289-1.53zm-2.464-.683h-2.828v2h2.828v-2zm-3.828 1v3.472h2v-3.472h-2z" fill="#fff" mask="url(#a)"/><path d="M3.987 112l2.22-4.284-5.934-9.57h4.44l3.499 5.817 2.986-5.816h4.343L8.349 112H3.987zm12.103 0V98.147h4.245v5.109h4.735v-5.11h4.245V112H25.07v-5.286h-4.735V112H16.09zm15.506 0V98.147h3.93v7.192l5.855-7.192h3.085V112h-3.93v-7.192L34.681 112h-3.085zm15.16 0V98.147h4.204v5.364h1.14l3.223-5.364H59.9l-4.028 6.229c.458.262.858.596 1.198 1.002.354.406.675.897.963 1.474L60.59 112h-4.56l-1.769-3.832c-.21-.458-.484-.786-.825-.982-.327-.197-.78-.295-1.356-.295h-1.12V112h-4.205zm12.795 0l6.582-13.853h3.44L76.193 112H71.95l-1.14-2.574h-5.895L63.775 112h-4.224zm8.292-9.53l-1.572 3.753h3.242l-1.572-3.753h-.098zm9.968 9.923l-2.122-2.948c.747-.445 1.343-.969 1.788-1.572.459-.602.786-1.342.983-2.22.196-.878.294-1.932.294-3.164v-4.342h11.181V112H85.73v-10.473h-3.105v2.004c0 2.214-.432 4.067-1.296 5.561-.852 1.493-2.024 2.594-3.518 3.301zM92.215 112V98.147h4.205v5.187h3.183c1.559 0 2.791.38 3.695 1.14.903.747 1.355 1.808 1.355 3.183 0 1.389-.452 2.463-1.355 3.223-.904.747-2.136 1.12-3.695 1.12h-7.388zm4.205-3.124h2.594c.603 0 1.028-.099 1.277-.295.262-.21.393-.518.393-.924s-.131-.707-.393-.904c-.249-.196-.674-.294-1.277-.294H96.42v2.417zm9.784 3.124V98.147h4.244v5.109h4.736v-5.11h4.245V112h-4.245v-5.286h-4.736V112h-4.244zm15.505 0V98.147h4.205v5.187h2.574c1.559 0 2.791.38 3.695 1.14.904.747 1.355 1.808 1.355 3.183 0 1.389-.451 2.463-1.355 3.223-.904.747-2.136 1.12-3.695 1.12h-6.779zm13.284 0V98.147h4.205V112h-4.205zm-9.079-3.124h1.985c.603 0 1.028-.099 1.277-.295.262-.21.393-.518.393-.924s-.131-.707-.393-.904c-.249-.209-.674-.314-1.277-.314h-1.985v2.437zm15.56 3.124V98.147h10.277v3.222h-6.229v1.985h5.758v3.223h-5.758v2.2h6.229V112h-10.277zm17.808 0V98.147h4.205v5.364h1.14l3.223-5.364h4.578l-4.028 6.229c.458.262.858.596 1.198 1.002.354.406.675.897.963 1.474l2.555 5.148h-4.559l-1.769-3.832c-.209-.458-.484-.786-.825-.982-.327-.197-.779-.295-1.356-.295h-1.12V112h-4.205zm21.134.236c-1.467 0-2.737-.302-3.812-.904a6.315 6.315 0 01-2.495-2.515c-.577-1.088-.865-2.339-.865-3.753 0-1.428.288-2.679.865-3.754a6.182 6.182 0 012.495-2.495c1.075-.603 2.345-.904 3.812-.904 1.481 0 2.758.301 3.832.904a6.19 6.19 0 012.496 2.495c.589 1.075.884 2.326.884 3.754 0 1.427-.295 2.678-.884 3.753a6.324 6.324 0 01-2.496 2.515c-1.074.602-2.351.904-3.832.904zm0-3.518c.944 0 1.638-.321 2.083-.962.459-.655.688-1.553.688-2.692 0-1.14-.229-2.031-.688-2.673-.445-.642-1.139-.963-2.083-.963-.943 0-1.637.321-2.082.963-.433.629-.649 1.52-.649 2.673 0 1.152.216 2.05.649 2.692.445.641 1.139.962 2.082.962zm9.225 3.282V98.147h3.694l3.871 8.665 3.872-8.665h3.694V112h-3.832v-5.482L198.346 112h-2.338l-2.535-5.364V112h-3.832zm17.461 0V98.147h13.146V112h-4.205v-10.473h-4.736V112h-4.205zm15.429 0V98.147h10.277v3.222h-6.23v1.985h5.758v3.223h-5.758v2.2h6.23V112h-10.277zm15.251 0v-10.434h-4.008v-3.42h12.261v3.42h-4.008V112h-4.245zm9.637 0V98.147h10.277v3.222h-6.229v1.985h5.758v3.223h-5.758v2.2h6.229V112h-10.277zm11.955 0V98.147h4.245v5.109h4.735v-5.11h4.245V112h-4.245v-5.286h-4.735V112h-4.245zm27.04 3.537V112h-11.535V98.147h4.205v10.473h4.736V98.147h4.205v10.473h2.024v6.917h-3.635zm5.199-3.537V98.147h3.93v7.192l5.855-7.192h3.085V112h-3.93v-7.192L294.698 112h-3.085zm15.159 0V98.147h3.93v7.192l5.856-7.192h3.085V112h-3.93v-7.192L309.857 112h-3.085z" fill="#fff"/><mask id="b" maskUnits="userSpaceOnUse" x="1" y="131" width="322" height="24" fill="#000"><path fill="#fff" d="M1 131h322v24H1z"/><path d="M2.035 150v-12.584h11.942V150h-3.82v-9.514H5.855V150h-3.82zm14.015 0v-12.584h6.498c1.487 0 2.606.369 3.356 1.106.75.726 1.124 1.708 1.124 2.946 0 1.225-.375 2.207-1.124 2.945-.75.738-1.869 1.107-3.356 1.107h-2.642V150H16.05zm3.856-7.408h2.124c.88 0 1.321-.375 1.321-1.124 0-.75-.44-1.125-1.32-1.125h-2.125v2.249zM28.444 150v-12.584h9.336v2.927h-5.66v1.803h5.23v2.927h-5.23v2h5.659V150h-9.336zm9.985 3.213v-6.105h1.321c.976-1.214 1.464-3.32 1.464-6.319v-3.373h10.139v9.692h1.838v6.105h-3.284V150h-8.193v3.213h-3.285zm5.088-6.105h4.016v-6.801h-2.82v.911c0 2.642-.399 4.605-1.196 5.89zm17.696 3.106c-1.404 0-2.624-.268-3.659-.803a5.975 5.975 0 01-2.392-2.285c-.56-.976-.839-2.118-.839-3.427 0-1.309.28-2.446.84-3.409a5.854 5.854 0 012.391-2.267c1.035-.548 2.255-.821 3.66-.821.856 0 1.641.113 2.355.339.726.214 1.327.523 1.803.928l-1.124 3.017c-.536-.357-1.018-.601-1.446-.732a4.552 4.552 0 00-1.446-.215c-.964 0-1.708.274-2.231.822-.512.535-.768 1.315-.768 2.338 0 1.035.256 1.827.768 2.374.523.535 1.267.803 2.231.803.535 0 1.017-.065 1.446-.196.428-.143.91-.393 1.446-.75l1.124 3.017c-.476.404-1.077.72-1.803.946a8.18 8.18 0 01-2.356.321zm8.28-.214v-9.478H65.85v-3.106h11.138v3.106h-3.641V150h-3.856zM75 150l5.98-12.584h3.123L90.12 150h-3.856l-1.035-2.338h-5.355L78.838 150h-3.837zm7.532-8.657l-1.428 3.409h2.945l-1.427-3.409h-.09zm8.02 8.657v-12.584h6.444c1.416 0 2.505.297 3.267.892.773.583 1.16 1.369 1.16 2.356 0 .643-.167 1.208-.5 1.696-.321.476-.773.833-1.357 1.071.726.226 1.28.595 1.66 1.107.381.5.572 1.118.572 1.856 0 1.095-.417 1.97-1.25 2.624-.833.655-1.957.982-3.374.982h-6.622zm3.677-7.783h2.035c.524 0 .899-.077 1.125-.232.238-.166.357-.428.357-.785 0-.357-.12-.613-.357-.768-.226-.154-.601-.232-1.125-.232H94.23v2.017zm0 4.998h2.428c1 0 1.5-.369 1.5-1.106 0-.738-.5-1.107-1.5-1.107H94.23v2.213zM103.19 150v-12.584h3.57v6.533l5.319-6.533h2.803V150h-3.57v-6.533L105.994 150h-2.803zm16.591 0v-9.478h-3.641v-3.106h11.138v3.106h-3.641V150h-3.856zm8.755 0v-12.584h9.335v2.927h-5.658v1.803h5.23v2.927h-5.23v2h5.658V150h-9.335zm11.895.357l-1.928-2.678c.678-.404 1.22-.88 1.624-1.428.417-.547.714-1.219.893-2.017.178-.797.268-1.755.268-2.873v-3.945h10.156V150h-3.82v-9.514h-2.82v1.821c0 2.011-.393 3.695-1.178 5.051-.773 1.357-1.838 2.356-3.195 2.999zm13.084-.357v-12.584h9.336v2.927h-5.659v1.803h5.23v2.927h-5.23v2h5.659V150h-9.336zm10.86 0v-12.584h3.57v6.533l5.319-6.533h2.803V150h-3.57v-6.533L167.179 150h-2.803zm5.819-13.566c-.845 0-1.547-.125-2.106-.375-.559-.262-.988-.601-1.285-1.017a3.329 3.329 0 01-.536-1.375l1.696-.535c.202.535.476.916.821 1.142.357.226.839.339 1.446.339.619 0 1.101-.131 1.446-.392.357-.262.601-.619.732-1.071l1.642.517c-.143.798-.548 1.458-1.214 1.982-.654.523-1.535.785-2.642.785zM183.464 150v-12.584h3.82v4.873h1.035l2.927-4.873h4.159l-3.659 5.658c.417.238.78.542 1.089.911.321.368.613.815.875 1.338l2.32 4.677h-4.141l-1.606-3.481c-.191-.416-.441-.714-.75-.892-.298-.179-.708-.268-1.232-.268h-1.017V150h-3.82zm13.44 0v-12.584h6.497c1.488 0 2.606.369 3.356 1.106.75.726 1.124 1.708 1.124 2.946 0 1.225-.374 2.207-1.124 2.945-.75.738-1.868 1.107-3.356 1.107h-2.642V150h-3.855zm3.855-7.408h2.124c.881 0 1.321-.375 1.321-1.124 0-.75-.44-1.125-1.321-1.125h-2.124v2.249zM210.975 150l2.017-3.891-5.39-8.693h4.034l3.177 5.283 2.713-5.283h3.945L214.938 150h-3.963zm10.995 0v-12.584h11.942V150h-3.82v-9.514h-4.302V150h-3.82zm14.015 0v-12.584h3.856v4.641h4.302v-4.641h3.855V150h-3.855v-4.802h-4.302V150h-3.856zm14.085 0v-12.584h9.336v2.927h-5.659v1.803h5.23v2.927h-5.23v2h5.659V150h-9.336zm10.86 0v-12.584h3.57v6.533l5.319-6.533h2.803V150h-3.57v-6.533l-5.32 6.533h-2.802zm5.819-13.566c-.845 0-1.547-.125-2.106-.375-.559-.262-.988-.601-1.285-1.017a3.329 3.329 0 01-.536-1.375l1.696-.535c.202.535.476.916.821 1.142.357.226.839.339 1.446.339.619 0 1.101-.131 1.446-.392.357-.262.601-.619.732-1.071l1.642.517c-.143.798-.548 1.458-1.214 1.982-.655.523-1.535.785-2.642.785zM274.701 150v-12.584h3.766v9.514h3.392v-9.514h3.748v9.514h3.392v-9.514h3.748V150h-18.046zm20.116 0v-12.584h3.57v6.533l5.319-6.533h2.803V150h-3.57v-6.533L297.62 150h-2.803zm12.022 0l4.801-6.337-4.73-6.247h4.498l2.41 3.463 2.446-3.463h4.498l-4.73 6.247 4.819 6.337h-4.516l-2.499-3.534-2.517 3.534h-4.48z"/></mask><path d="M2.035 150h-1v1h1v-1zm0-12.584v-1h-1v1h1zm11.942 0h1v-1h-1v1zm0 12.584v1h1v-1h-1zm-3.82 0h-1v1h1v-1zm0-9.514h1v-1h-1v1zm-4.302 0v-1h-1v1h1zm0 9.514v1h1v-1h-1zm-2.82 0v-12.584h-2V150h2zm-1-11.584h11.942v-2H2.035v2zm10.942-1V150h2v-12.584h-2zm1 11.584h-3.82v2h3.82v-2zm-2.82 1v-9.514h-2V150h2zm-1-10.514H5.855v2h4.302v-2zm-5.302 1V150h2v-9.514h-2zm1 8.514h-3.82v2h3.82v-2zm10.195 1h-1v1h1v-1zm0-12.584v-1h-1v1h1zm9.854 1.106l-.702.713.006.006.696-.719zm0 5.891l-.702-.713.701.713zm-5.998 1.107v-1h-1v1h1zm0 4.48v1h1v-1h-1zm0-7.408h-1v1h1v-1zm0-2.249v-1h-1v1h1zM17.05 150v-12.584h-2V150h2zm-1-11.584h6.498v-2H16.05v2zm6.498 0c1.334 0 2.157.33 2.654.819l1.403-1.425c-1.003-.987-2.417-1.394-4.057-1.394v2zm2.66.825c.52.503.82 1.206.82 2.227h2c0-1.454-.449-2.715-1.429-3.664l-1.391 1.437zm.82 2.227c0 1.005-.299 1.714-.826 2.232l1.403 1.426c.972-.957 1.423-2.213 1.423-3.658h-2zm-.826 2.232c-.497.489-1.32.82-2.654.82v2c1.64 0 3.054-.408 4.057-1.394l-1.403-1.426zm-2.654.82h-2.642v2h2.642v-2zm-3.642 1V150h2v-4.48h-2zm1 3.48H16.05v2h3.856v-2zm0-5.408h2.124v-2h-2.124v2zm2.124 0c.559 0 1.164-.115 1.639-.519.506-.431.682-1.03.682-1.605h-2c0 .091-.014.127-.014.127v-.001l.003-.004a.139.139 0 01.033-.04c.017-.015.015-.005-.038.01a1.143 1.143 0 01-.305.032v2zm2.321-2.124c0-.575-.176-1.175-.682-1.605-.475-.404-1.08-.52-1.639-.52v2c.153 0 .25.017.305.032.053.015.055.026.037.011a.147.147 0 01-.032-.04l-.002-.004v-.002s.013.036.013.128h2zm-2.32-2.125h-2.125v2h2.124v-2zm-3.125 1v2.249h2v-2.249h-2zM28.444 150h-1v1h1v-1zm0-12.584v-1h-1v1h1zm9.336 0h1v-1h-1v1zm0 2.927v1h1v-1h-1zm-5.659 0v-1h-1v1h1zm0 1.803h-1v1h1v-1zm5.23 0h1v-1h-1v1zm0 2.927v1h1v-1h-1zm-5.23 0v-1h-1v1h1zm0 2h-1v1h1v-1zm5.659 0h1v-1h-1v1zm0 2.927v1h1v-1h-1zm-8.336 0v-12.584h-2V150h2zm-1-11.584h9.336v-2h-9.336v2zm8.336-1v2.927h2v-2.927h-2zm1 1.927h-5.66v2h5.659v-2zm-6.659 1v1.803h2v-1.803h-2zm1 2.803h5.23v-2h-5.23v2zm4.23-1v2.927h2v-2.927h-2zm1 1.927h-5.23v2h5.23v-2zm-6.23 1v2h2v-2h-2zm1 3h5.659v-2h-5.66v2zm4.659-1V150h2v-2.927h-2zm1 1.927h-9.336v2h9.336v-2zm.65 4.213h-1v1h1v-1zm0-6.105v-1h-1v1h1zm1.32 0v1h.48l.3-.373-.78-.627zm1.464-9.692v-1h-1v1h1zm10.139 0h1v-1h-1v1zm0 9.692h-1v1h1v-1zm1.838 0h1v-1h-1v1zm0 6.105v1h1v-1h-1zm-3.284 0h-1v1h1v-1zm0-3.213h1v-1h-1v1zm-8.193 0v-1h-1v1h1zm0 3.213v1h1v-1h-1zm1.803-6.105l-.85-.527-.947 1.527h1.797v-1zm4.016 0v1h1v-1h-1zm0-6.801h1v-1h-1v1zm-2.82 0v-1h-1v1h1zm-5.284 12.906v-6.105h-2v6.105h2zm-1-5.105h1.321v-2h-1.32v2zm2.1-.373c1.202-1.494 1.685-3.9 1.685-6.946h-2c0 2.952-.493 4.759-1.243 5.693l1.559 1.253zm1.685-6.946v-3.373h-2v3.373h2zm-1-2.373h10.139v-2H41.214v2zm9.139-1v9.692h2v-9.692h-2zm1 10.692h1.838v-2h-1.838v2zm.838-1v6.105h2v-6.105h-2zm1 5.105h-3.284v2h3.284v-2zm-2.284 1V150h-2v3.213h2zm-1-4.213h-8.193v2h8.193v-2zm-9.193 1v3.213h2V150h-2zm1 2.213h-3.285v2h3.285v-2zm1.803-4.105h4.016v-2h-4.016v2zm5.016-1v-6.801h-2v6.801h2zm-1-7.801h-2.82v2h2.82v-2zm-3.82 1v.911h2v-.911h-2zm0 .911c0 2.577-.396 4.315-1.046 5.363l1.7 1.054c.944-1.522 1.346-3.711 1.346-6.417h-2zm13.841 8.193l-.472.882.012.006.46-.888zm-2.392-2.285l-.868.497.005.008.863-.505zm0-6.836l-.863-.506-.002.004.865.502zm2.392-2.267l.464.886.003-.002-.467-.884zm6.015-.482l-.302.953.01.003.01.003.282-.959zm1.803.928l.937.349.245-.657-.534-.454-.648.762zm-1.124 3.017l-.555.832 1.05.7.442-1.183-.937-.349zm-1.446-.732l-.316.948.012.004.012.004.292-.956zm-3.677.607l-.723-.692v.001l.723.691zm0 4.712l-.73.683.007.008.008.008.715-.699zm3.677.607l.292.956.012-.003.012-.004-.316-.949zm1.446-.75l.937-.349-.441-1.183-1.051.7.555.832zm1.124 3.017l.648.762.534-.454-.245-.657-.937.349zm-1.803.946l.288.958.01-.003-.298-.955zm-2.356-.679c-1.276 0-2.333-.243-3.2-.691l-.919 1.776c1.204.623 2.588.915 4.12.915v-2zm-3.187-.685a4.981 4.981 0 01-2-1.908l-1.727 1.01a6.976 6.976 0 002.783 2.662l.944-1.764zm-1.996-1.9c-.46-.801-.707-1.767-.707-2.93h-2c0 1.455.312 2.774.971 3.924l1.736-.994zm-.707-2.93c0-1.164.248-2.121.704-2.908l-1.73-1.003c-.662 1.141-.974 2.457-.974 3.911h2zm.702-2.904a4.857 4.857 0 011.993-1.886l-.928-1.772a6.856 6.856 0 00-2.791 2.647l1.726 1.011zm1.996-1.888c.866-.458 1.919-.705 3.192-.705v-2c-1.535 0-2.921.299-4.127.937l.935 1.768zm3.192-.705c.77 0 1.451.101 2.054.292l.604-1.907c-.824-.261-1.713-.385-2.658-.385v2zm2.073.298c.62.183 1.09.434 1.439.731l1.295-1.524c-.603-.512-1.335-.88-2.168-1.125l-.566 1.918zm1.15-.38l-1.125 3.016 1.874.699 1.124-3.017-1.874-.698zm.366 2.533c-.584-.389-1.156-.687-1.708-.856l-.584 1.913c.304.093.696.283 1.183.608l1.11-1.665zm-1.684-.848a5.566 5.566 0 00-1.762-.266v2c.447 0 .82.06 1.13.163l.632-1.897zm-1.762-.266c-1.158 0-2.193.335-2.954 1.13l1.445 1.383c.287-.3.74-.513 1.509-.513v-2zm-2.954 1.131c-.748.783-1.045 1.848-1.045 3.029h2c0-.866.215-1.359.49-1.648l-1.445-1.381zm-1.045 3.029c0 1.191.296 2.263 1.037 3.057l1.461-1.366c-.281-.301-.498-.812-.498-1.691h-2zm1.053 3.073c.762.779 1.794 1.104 2.946 1.104v-2c-.776 0-1.23-.21-1.516-.502l-1.43 1.398zm2.946 1.104c.616 0 1.199-.075 1.738-.24l-.584-1.912a3.949 3.949 0 01-1.154.152v2zm1.762-.247c.54-.18 1.104-.479 1.684-.867l-1.109-1.664c-.49.327-.89.528-1.207.633l.632 1.898zm.193-1.349l1.124 3.016 1.874-.698-1.124-3.017-1.874.699zm1.414 1.905c-.354.301-.828.559-1.453.753l.595 1.91c.827-.258 1.555-.631 2.153-1.139l-1.295-1.524zm-1.443.75a7.194 7.194 0 01-2.069.279v2c.94 0 1.824-.117 2.644-.363l-.575-1.916zm6.21 1.065h-1v1h1v-1zm0-9.478h1v-1h-1v1zm-3.641 0h-1v1h1v-1zm0-3.106v-1h-1v1h1zm11.138 0h1v-1h-1v1zm0 3.106v1h1v-1h-1zm-3.641 0v-1h-1v1h1zm0 9.478v1h1v-1h-1zm-2.856 0v-9.478h-2V150h2zm-1-10.478h-3.641v2h3.641v-2zm-2.641 1v-3.106h-2v3.106h2zm-1-2.106h11.138v-2H65.851v2zm10.138-1v3.106h2v-3.106h-2zm1 2.106h-3.641v2h3.641v-2zm-4.641 1V150h2v-9.478h-2zm1 8.478h-3.856v2h3.856v-2zM75 150l-.904-.429-.679 1.429H75v-1zm5.98-12.584v-1h-.633l-.27.571.902.429zm3.123 0l.902-.432-.272-.568h-.63v1zM90.12 150v1h1.586l-.684-1.431-.903.431zm-3.856 0l-.914.405.263.595h.65v-1zm-1.035-2.338l.914-.405-.264-.595h-.65v1zm-5.355 0v-1h-.651l-.264.595.915.405zM78.838 150v1h.651l.264-.595-.915-.405zm3.695-8.657v-1h-.665l-.257.613.922.387zm-1.428 3.409l-.922-.386-.58 1.386h1.502v-1zm2.945 0v1h1.504l-.581-1.386-.922.386zm-1.427-3.409l.922-.387-.257-.613h-.665v1zm-6.72 9.086l5.98-12.584-1.806-.858-5.98 12.584 1.807.858zm5.077-12.013h3.124v-2H80.98v2zm2.222-.569l6.015 12.584 1.805-.862-6.016-12.585-1.804.863zM90.12 149h-3.856v2h3.856v-2zm-2.942.595l-1.035-2.338-1.829.809 1.036 2.339 1.828-.81zm-1.95-2.933h-5.354v2h5.355v-2zm-6.269.595l-1.035 2.338 1.829.81 1.035-2.339-1.829-.809zM78.84 149H75v2h3.837v-2zm2.772-8.044l-1.428 3.41 1.845.772 1.428-3.409-1.845-.773zm-.506 4.796h2.945v-2h-2.945v2zm3.868-1.386l-1.428-3.41-1.845.773 1.428 3.409 1.845-.772zm-2.35-4.023h-.09v2h.09v-2zm7.93 9.657h-1v1h1v-1zm0-12.584v-1h-1v1h1zm9.711.892l-.616.788.007.006.007.005.602-.799zm.66 4.052l-.826-.564-.003.005.829.559zm-1.357 1.071l-.377-.926-2.579 1.053 2.659.828.297-.955zm1.66 1.107l-.802.597.007.009.795-.606zm-6.997-2.321h-1v1h1v-1zm3.16-.232l.564.826.01-.006-.574-.82zm0-1.553l-.565.826.01.006.01.007.545-.839zm-3.16-.232v-1h-1v1h1zm0 7.015h-1v1h1v-1zm0-2.213v-1h-1v1h1zM91.553 150v-12.584h-2V150h2zm-1-11.584h6.444v-2h-6.444v2zm6.444 0c1.293 0 2.13.274 2.65.68l1.232-1.576c-1.003-.783-2.343-1.104-3.882-1.104v2zm2.665.691c.517.39.762.876.762 1.557h2c0-1.294-.529-2.378-1.558-3.154l-1.204 1.597zm.762 1.557c0 .46-.116.825-.326 1.132l1.652 1.128c.457-.669.674-1.434.674-2.26h-2zm-.329 1.137c-.2.296-.487.534-.906.704l.756 1.852c.748-.305 1.365-.781 1.808-1.437l-1.658-1.119zm-.825 2.585c.564.176.923.437 1.155.749l1.605-1.194c-.53-.712-1.277-1.188-2.165-1.465l-.595 1.91zm1.162.758c.226.297.367.692.367 1.25h2c0-.917-.24-1.759-.776-2.462l-1.591 1.212zm.367 1.25c0 .8-.285 1.38-.868 1.838l1.236 1.573c1.084-.852 1.632-2.021 1.632-3.411h-2zm-.868 1.838c-.605.476-1.488.768-2.755.768v2c1.564 0 2.931-.362 3.991-1.195l-1.236-1.573zm-2.755.768h-6.623v2h6.623v-2zm-2.946-5.783h2.035v-2H94.23v2zm2.035 0c.57 0 1.203-.074 1.69-.406l-1.13-1.651c.03-.021.017-.002-.088.02a2.419 2.419 0 01-.472.037v2zm1.698-.412c.568-.398.784-1.006.784-1.605h-2c0 .069-.012.077 0 .05a.212.212 0 01.07-.084l1.146 1.639zm.784-1.605c0-.596-.216-1.219-.812-1.606l-1.09 1.677a.262.262 0 01-.094-.109c-.016-.034-.004-.032-.004.038h2zm-.793-1.593c-.486-.333-1.12-.407-1.689-.407v2c.217 0 .37.017.472.038.105.022.119.041.088.02l1.13-1.651zm-1.689-.407H94.23v2h2.035v-2zm-3.035 1v2.017h2V140.2h-2zm1 8.015h2.428v-2H94.23v2zm2.428 0c.593 0 1.22-.104 1.718-.472.555-.409.781-1.015.781-1.634h-2c0 .072-.012.088-.005.072a.139.139 0 01.037-.047c.003-.003-.025.019-.114.041-.09.022-.225.04-.417.04v2zm2.5-2.106c0-.619-.227-1.225-.782-1.635-.498-.368-1.125-.472-1.718-.472v2c.192 0 .327.018.417.04.09.022.117.044.114.041a.13.13 0 01-.037-.047c-.007-.016.005 0 .005.073h2zm-2.5-2.107H94.23v2h2.428v-2zm-3.428 1v2.213h2v-2.213h-2zm9.961 4.998h-1v1h1v-1zm0-12.584v-1h-1v1h1zm3.57 0h1v-1h-1v1zm0 6.533h-1v2.812l1.776-2.181-.776-.631zm5.319-6.533v-1h-.475l-.3.368.775.632zm2.803 0h1v-1h-1v1zm0 12.584v1h1v-1h-1zm-3.57 0h-1v1h1v-1zm0-6.533h1v-2.812l-1.776 2.181.776.631zM105.994 150v1h.475l.3-.369-.775-.631zm-1.803 0v-12.584h-2V150h2zm-1-11.584h3.57v-2h-3.57v2zm2.57-1v6.533h2v-6.533h-2zm1.776 7.164l5.319-6.533-1.551-1.263-5.319 6.533 1.551 1.263zm4.543-6.164h2.803v-2h-2.803v2zm1.803-1V150h2v-12.584h-2zm1 11.584h-3.57v2h3.57v-2zm-2.57 1v-6.533h-2V150h2zm-1.776-7.164l-5.319 6.533 1.551 1.262 5.319-6.533-1.551-1.262zM105.994 149h-2.803v2h2.803v-2zm13.788 1h-1v1h1v-1zm0-9.478h1v-1h-1v1zm-3.641 0h-1v1h1v-1zm0-3.106v-1h-1v1h1zm11.138 0h1v-1h-1v1zm0 3.106v1h1v-1h-1zm-3.641 0v-1h-1v1h1zm0 9.478v1h1v-1h-1zm-2.856 0v-9.478h-2V150h2zm-1-10.478h-3.641v2h3.641v-2zm-2.641 1v-3.106h-2v3.106h2zm-1-2.106h11.138v-2h-11.138v2zm10.138-1v3.106h2v-3.106h-2zm1 2.106h-3.641v2h3.641v-2zm-4.641 1V150h2v-9.478h-2zm1 8.478h-3.856v2h3.856v-2zm4.899 1h-1v1h1v-1zm0-12.584v-1h-1v1h1zm9.335 0h1v-1h-1v1zm0 2.927v1h1v-1h-1zm-5.658 0v-1h-1v1h1zm0 1.803h-1v1h1v-1zm5.23 0h1v-1h-1v1zm0 2.927v1h1v-1h-1zm-5.23 0v-1h-1v1h1zm0 2h-1v1h1v-1zm5.658 0h1v-1h-1v1zm0 2.927v1h1v-1h-1zm-8.335 0v-12.584h-2V150h2zm-1-11.584h9.335v-2h-9.335v2zm8.335-1v2.927h2v-2.927h-2zm1 1.927h-5.658v2h5.658v-2zm-6.658 1v1.803h2v-1.803h-2zm1 2.803h5.23v-2h-5.23v2zm4.23-1v2.927h2v-2.927h-2zm1 1.927h-5.23v2h5.23v-2zm-6.23 1v2h2v-2h-2zm1 3h5.658v-2h-5.658v2zm4.658-1V150h2v-2.927h-2zm1 1.927h-9.335v2h9.335v-2zm2.56 1.357l-.812.584.487.676.753-.356-.428-.904zm-1.928-2.678l-.512-.858-.936.558.637.885.811-.585zm1.624-1.427l-.795-.606-.009.011.804.595zm1.161-8.836v-1h-1v1h1zm10.156 0h1v-1h-1v1zm0 12.584v1h1v-1h-1zm-3.82 0h-1v1h1v-1zm0-9.514h1v-1h-1v1zm-2.82 0v-1h-1v1h1zm-1.178 6.872l-.865-.501-.004.006.869.495zm-2.384 2.415l-1.927-2.678-1.623 1.169 1.927 2.677 1.623-1.168zm-2.227-1.235c.775-.461 1.422-1.022 1.917-1.692l-1.609-1.189c-.314.425-.75.816-1.332 1.164l1.024 1.717zm1.908-1.681c.519-.681.869-1.492 1.073-2.404l-1.952-.437c-.153.683-.398 1.217-.712 1.63l1.591 1.211zm1.073-2.404c.199-.89.292-1.925.292-3.092h-2c0 1.07-.086 1.95-.244 2.655l1.952.437zm.292-3.092v-3.945h-2v3.945h2zm-1-2.945h10.156v-2h-10.156v2zm9.156-1V150h2v-12.584h-2zm1 11.584h-3.82v2h3.82v-2zm-2.82 1v-9.514h-2V150h2zm-1-10.514h-2.82v2h2.82v-2zm-3.82 1v1.821h2v-1.821h-2zm0 1.821c0 1.884-.368 3.383-1.043 4.55l1.731 1.002c.895-1.546 1.312-3.414 1.312-5.552h-2zm-1.047 4.556c-.676 1.186-1.591 2.039-2.754 2.59l.856 1.808c1.55-.734 2.765-1.88 3.636-3.407l-1.738-.991zM153.516 150h-1v1h1v-1zm0-12.584v-1h-1v1h1zm9.336 0h1v-1h-1v1zm0 2.927v1h1v-1h-1zm-5.659 0v-1h-1v1h1zm0 1.803h-1v1h1v-1zm5.23 0h1v-1h-1v1zm0 2.927v1h1v-1h-1zm-5.23 0v-1h-1v1h1zm0 2h-1v1h1v-1zm5.659 0h1v-1h-1v1zm0 2.927v1h1v-1h-1zm-8.336 0v-12.584h-2V150h2zm-1-11.584h9.336v-2h-9.336v2zm8.336-1v2.927h2v-2.927h-2zm1 1.927h-5.659v2h5.659v-2zm-6.659 1v1.803h2v-1.803h-2zm1 2.803h5.23v-2h-5.23v2zm4.23-1v2.927h2v-2.927h-2zm1 1.927h-5.23v2h5.23v-2zm-6.23 1v2h2v-2h-2zm1 3h5.659v-2h-5.659v2zm4.659-1V150h2v-2.927h-2zm1 1.927h-9.336v2h9.336v-2zm1.524 1h-1v1h1v-1zm0-12.584v-1h-1v1h1zm3.57 0h1v-1h-1v1zm0 6.533h-1v2.812l1.776-2.181-.776-.631zm5.319-6.533v-1h-.475l-.3.368.775.632zm2.803 0h1v-1h-1v1zm0 12.584v1h1v-1h-1zm-3.57 0h-1v1h1v-1zm0-6.533h1v-2.812l-1.776 2.181.776.631zM167.179 150v1h.475l.3-.369-.775-.631zm.91-13.941l-.424.906.008.004.008.003.408-.913zm-1.285-1.017l-.832.554.009.014.009.013.814-.581zm-.536-1.375l-.301-.953-.811.256.123.842.989-.145zm1.696-.535l.935-.354-.334-.885-.902.285.301.954zm.821 1.142l-.548.837.007.004.006.004.535-.845zm2.892-.053l-.592-.807-.006.005-.007.005.605.797zm.732-1.071l.3-.954-.976-.308-.285.984.961.278zm1.642.517l.984.177.155-.866-.838-.264-.301.953zm-1.214 1.982l-.618-.787-.007.006.625.781zM165.376 150v-12.584h-2V150h2zm-1-11.584h3.57v-2h-3.57v2zm2.57-1v6.533h2v-6.533h-2zm1.776 7.164l5.319-6.533-1.551-1.263-5.319 6.533 1.551 1.263zm4.543-6.164h2.803v-2h-2.803v2zm1.803-1V150h2v-12.584h-2zm1 11.584h-3.57v2h3.57v-2zm-2.57 1v-6.533h-2V150h2zm-1.776-7.164l-5.319 6.533 1.551 1.262 5.319-6.533-1.551-1.262zM167.179 149h-2.803v2h2.803v-2zm3.016-13.566c-.754 0-1.306-.113-1.698-.288l-.816 1.826c.727.325 1.579.462 2.514.462v-2zm-1.682-.281c-.436-.203-.717-.442-.896-.693l-1.627 1.163c.416.583.992 1.022 1.675 1.342l.848-1.812zm-.877-.666a2.325 2.325 0 01-.378-.965l-1.979.29c.094.641.329 1.238.693 1.784l1.664-1.109zm-1.067.134l1.696-.536-.602-1.907-1.696.536.602 1.907zm.46-1.136c.248.659.629 1.246 1.208 1.626l1.096-1.673c-.111-.073-.278-.247-.434-.66l-1.87.707zm1.221 1.634c.572.363 1.263.494 1.981.494v-2c-.496 0-.769-.094-.911-.184l-1.07 1.69zm1.981.494c.746 0 1.471-.156 2.05-.596l-1.209-1.593c-.11.084-.35.189-.841.189v2zm2.037-.586a2.957 2.957 0 001.101-1.599l-1.921-.556a.96.96 0 01-.363.542l1.183 1.613zm-.16-.924l1.642.518.602-1.907-1.643-.518-.601 1.907zm.959-.612c-.098.544-.364.992-.848 1.371l1.236 1.573c.849-.668 1.392-1.541 1.58-2.591l-1.968-.353zm-.855 1.377c-.427.342-1.064.566-2.017.566v2c1.261 0 2.385-.299 3.267-1.005l-1.25-1.561zM183.464 150h-1v1h1v-1zm0-12.584v-1h-1v1h1zm3.82 0h1v-1h-1v1zm0 4.873h-1v1h1v-1zm1.035 0v1h.566l.291-.485-.857-.515zm2.927-4.873v-1h-.565l-.292.485.857.515zm4.159 0l.84.543.998-1.543h-1.838v1zm-3.659 5.658l-.84-.543-.573.887.917.524.496-.868zm1.089.911l-.766.642.006.007.006.007.754-.656zm.875 1.338l.896-.444-.002-.003-.894.447zm2.32 4.677v1h1.613l-.717-1.444-.896.444zm-4.141 0l-.908.419.268.581h.64v-1zm-1.606-3.481l-.91.416.002.003.908-.419zm-.75-.892l-.515.857.008.005.007.004.5-.866zm-2.249-.268v-1h-1v1h1zm0 4.641v1h1v-1h-1zm-2.82 0v-12.584h-2V150h2zm-1-11.584h3.82v-2h-3.82v2zm2.82-1v4.873h2v-4.873h-2zm1 5.873h1.035v-2h-1.035v2zm1.892-.485l2.928-4.873-1.715-1.03-2.927 4.873 1.714 1.03zm2.07-4.388h4.159v-2h-4.159v2zm3.32-1.543l-3.66 5.658 1.68 1.086 3.659-5.658-1.679-1.086zm-3.316 7.069c.314.18.585.407.819.685l1.532-1.285a4.999 4.999 0 00-1.359-1.136l-.992 1.736zm.831.699c.256.295.503.667.734 1.13l1.789-.895a7.324 7.324 0 00-1.015-1.548l-1.508 1.313zm.733 1.127l2.32 4.676 1.792-.888-2.321-4.677-1.791.889zM196.03 149h-4.141v2h4.141v-2zm-3.233.581l-1.607-3.481-1.815.838 1.606 3.481 1.816-.838zm-1.605-3.478c-.252-.552-.625-1.034-1.159-1.342l-1 1.732c.084.049.212.161.34.442l1.819-.832zm-1.145-1.334c-.512-.307-1.127-.41-1.746-.41v2c.428 0 .635.076.717.125l1.029-1.715zm-1.746-.41h-1.017v2h1.017v-2zm-2.017 1V150h2v-4.641h-2zm1 3.641h-3.82v2h3.82v-2zm9.62 1h-1v1h1v-1zm0-12.584v-1h-1v1h1zm9.853 1.106l-.702.713.006.006.696-.719zm0 5.891l-.702-.713.702.713zm-5.998 1.107v-1h-1v1h1zm0 4.48v1h1v-1h-1zm0-7.408h-1v1h1v-1zm0-2.249v-1h-1v1h1zM197.904 150v-12.584h-2V150h2zm-1-11.584h6.497v-2h-6.497v2zm6.497 0c1.335 0 2.158.33 2.654.819l1.403-1.425c-1.002-.987-2.417-1.394-4.057-1.394v2zm2.66.825c.519.503.82 1.206.82 2.227h2c0-1.454-.448-2.715-1.429-3.664l-1.391 1.437zm.82 2.227c0 1.005-.299 1.714-.826 2.232l1.403 1.426c.973-.957 1.423-2.213 1.423-3.658h-2zm-.826 2.232c-.496.489-1.319.82-2.654.82v2c1.64 0 3.055-.408 4.057-1.394l-1.403-1.426zm-2.654.82h-2.642v2h2.642v-2zm-3.642 1V150h2v-4.48h-2zm1 3.48h-3.855v2h3.855v-2zm0-5.408h2.124v-2h-2.124v2zm2.124 0c.559 0 1.164-.115 1.639-.519.506-.431.682-1.03.682-1.605h-2a.424.424 0 01-.013.127v-.001l.002-.004.008-.013a.131.131 0 01.025-.027c.017-.015.015-.005-.038.01a1.139 1.139 0 01-.305.032v2zm2.321-2.124c0-.575-.176-1.175-.682-1.605-.475-.404-1.08-.52-1.639-.52v2c.153 0 .25.017.305.032.053.015.055.026.038.011a.138.138 0 01-.025-.028l-.008-.012-.002-.004v-.002s.013.036.013.128h2zm-2.321-2.125h-2.124v2h2.124v-2zm-3.124 1v2.249h2v-2.249h-2zM210.975 150l-.887-.46-.757 1.46h1.644v-1zm2.017-3.891l.888.46.262-.504-.3-.483-.85.527zm-5.39-8.693v-1h-1.797l.947 1.527.85-.527zm4.034 0l.857-.516-.292-.484h-.565v1zm3.177 5.283l-.857.516.926 1.539.821-1.598-.89-.457zm2.713-5.283v-1h-.61l-.279.543.889.457zm3.945 0l.888.461.758-1.461h-1.646v1zM214.938 150v1h.608l.28-.539-.888-.461zm-3.075.46l2.017-3.891-1.775-.92-2.017 3.891 1.775.92zm1.979-4.878l-5.39-8.693-1.7 1.054 5.391 8.693 1.699-1.054zm-6.24-7.166h4.034v-2h-4.034v2zm3.177-.485l3.177 5.284 1.714-1.031-3.177-5.284-1.714 1.031zm4.924 5.225l2.713-5.283-1.779-.914-2.713 5.284 1.779.913zm1.823-4.74h3.945v-2h-3.945v2zm3.058-1.461l-6.533 12.584 1.775.922 6.533-12.584-1.775-.922zM214.938 149h-3.963v2h3.963v-2zm7.032 1h-1v1h1v-1zm0-12.584v-1h-1v1h1zm11.942 0h1v-1h-1v1zm0 12.584v1h1v-1h-1zm-3.82 0h-1v1h1v-1zm0-9.514h1v-1h-1v1zm-4.302 0v-1h-1v1h1zm0 9.514v1h1v-1h-1zm-2.82 0v-12.584h-2V150h2zm-1-11.584h11.942v-2H221.97v2zm10.942-1V150h2v-12.584h-2zm1 11.584h-3.82v2h3.82v-2zm-2.82 1v-9.514h-2V150h2zm-1-10.514h-4.302v2h4.302v-2zm-5.302 1V150h2v-9.514h-2zm1 8.514h-3.82v2h3.82v-2zm10.195 1h-1v1h1v-1zm0-12.584v-1h-1v1h1zm3.856 0h1v-1h-1v1zm0 4.641h-1v1h1v-1zm4.302 0v1h1v-1h-1zm0-4.641v-1h-1v1h1zm3.855 0h1v-1h-1v1zm0 12.584v1h1v-1h-1zm-3.855 0h-1v1h1v-1zm0-4.802h1v-1h-1v1zm-4.302 0v-1h-1v1h1zm0 4.802v1h1v-1h-1zm-2.856 0v-12.584h-2V150h2zm-1-11.584h3.856v-2h-3.856v2zm2.856-1v4.641h2v-4.641h-2zm1 5.641h4.302v-2h-4.302v2zm5.302-1v-4.641h-2v4.641h2zm-1-3.641h3.855v-2h-3.855v2zm2.855-1V150h2v-12.584h-2zm1 11.584h-3.855v2h3.855v-2zm-2.855 1v-4.802h-2V150h2zm-1-5.802h-4.302v2h4.302v-2zm-5.302 1V150h2v-4.802h-2zm1 3.802h-3.856v2h3.856v-2zm10.229 1h-1v1h1v-1zm0-12.584v-1h-1v1h1zm9.336 0h1v-1h-1v1zm0 2.927v1h1v-1h-1zm-5.659 0v-1h-1v1h1zm0 1.803h-1v1h1v-1zm5.23 0h1v-1h-1v1zm0 2.927v1h1v-1h-1zm-5.23 0v-1h-1v1h1zm0 2h-1v1h1v-1zm5.659 0h1v-1h-1v1zm0 2.927v1h1v-1h-1zm-8.336 0v-12.584h-2V150h2zm-1-11.584h9.336v-2h-9.336v2zm8.336-1v2.927h2v-2.927h-2zm1 1.927h-5.659v2h5.659v-2zm-6.659 1v1.803h2v-1.803h-2zm1 2.803h5.23v-2h-5.23v2zm4.23-1v2.927h2v-2.927h-2zm1 1.927h-5.23v2h5.23v-2zm-6.23 1v2h2v-2h-2zm1 3h5.659v-2h-5.659v2zm4.659-1V150h2v-2.927h-2zm1 1.927h-9.336v2h9.336v-2zm1.524 1h-1v1h1v-1zm0-12.584v-1h-1v1h1zm3.57 0h1v-1h-1v1zm0 6.533h-1v2.812l1.776-2.181-.776-.631zm5.319-6.533v-1h-.475l-.3.368.775.632zm2.803 0h1v-1h-1v1zm0 12.584v1h1v-1h-1zm-3.57 0h-1v1h1v-1zm0-6.533h1v-2.812l-1.776 2.181.776.631zm-5.32 6.533v1h.476l.3-.369-.776-.631zm.911-13.941l-.424.906.008.004.008.003.408-.913zm-1.285-1.017l-.832.554.009.014.009.013.814-.581zm-.536-1.375l-.301-.953-.812.256.124.842.989-.145zm1.696-.535l.935-.354-.334-.885-.902.285.301.954zm.821 1.142l-.548.837.006.004.007.004.535-.845zm2.892-.053l-.592-.807-.006.005-.007.005.605.797zm.732-1.071l.3-.954-.976-.308-.285.984.961.278zm1.642.517l.984.177.155-.866-.839-.264-.3.953zm-1.214 1.982l-.618-.787-.007.006.625.781zM261.93 150v-12.584h-2V150h2zm-1-11.584h3.57v-2h-3.57v2zm2.57-1v6.533h2v-6.533h-2zm1.776 7.164l5.319-6.533-1.551-1.263-5.319 6.533 1.551 1.263zm4.543-6.164h2.803v-2h-2.803v2zm1.803-1V150h2v-12.584h-2zm1 11.584h-3.57v2h3.57v-2zm-2.57 1v-6.533h-2V150h2zm-1.776-7.164l-5.319 6.533 1.551 1.262 5.319-6.533-1.551-1.262zM263.732 149h-2.802v2h2.802v-2zm3.017-13.566c-.754 0-1.306-.113-1.698-.288l-.816 1.826c.726.325 1.579.462 2.514.462v-2zm-1.682-.281c-.436-.203-.717-.442-.896-.693l-1.627 1.163c.416.583.992 1.022 1.675 1.342l.848-1.812zm-.877-.666a2.325 2.325 0 01-.378-.965l-1.979.29c.093.641.329 1.238.693 1.784l1.664-1.109zm-1.067.134l1.696-.536-.602-1.907-1.696.536.602 1.907zm.459-1.136c.249.659.63 1.246 1.209 1.626l1.096-1.673c-.111-.073-.278-.247-.434-.66l-1.871.707zm1.222 1.634c.572.363 1.263.494 1.981.494v-2c-.496 0-.769-.094-.911-.184l-1.07 1.69zm1.981.494c.746 0 1.471-.156 2.05-.596l-1.209-1.593c-.11.084-.35.189-.841.189v2zm2.037-.586a2.957 2.957 0 001.101-1.599l-1.921-.556a.96.96 0 01-.363.542l1.183 1.613zm-.16-.924l1.642.518.601-1.907-1.642-.518-.601 1.907zm.958-.612c-.097.544-.364.992-.847 1.371l1.236 1.573c.849-.668 1.392-1.541 1.58-2.591l-1.969-.353zm-.854 1.377c-.427.342-1.064.566-2.017.566v2c1.261 0 2.385-.299 3.267-1.005l-1.25-1.561zM274.701 150h-1v1h1v-1zm0-12.584v-1h-1v1h1zm3.766 0h1v-1h-1v1zm0 9.514h-1v1h1v-1zm3.392 0v1h1v-1h-1zm0-9.514v-1h-1v1h1zm3.748 0h1v-1h-1v1zm0 9.514h-1v1h1v-1zm3.392 0v1h1v-1h-1zm0-9.514v-1h-1v1h1zm3.748 0h1v-1h-1v1zm0 12.584v1h1v-1h-1zm-17.046 0v-12.584h-2V150h2zm-1-11.584h3.766v-2h-3.766v2zm2.766-1v9.514h2v-9.514h-2zm1 10.514h3.392v-2h-3.392v2zm4.392-1v-9.514h-2v9.514h2zm-1-8.514h3.748v-2h-3.748v2zm2.748-1v9.514h2v-9.514h-2zm1 10.514h3.392v-2h-3.392v2zm4.392-1v-9.514h-2v9.514h2zm-1-8.514h3.748v-2h-3.748v2zm2.748-1V150h2v-12.584h-2zm1 11.584h-18.046v2h18.046v-2zm2.07 1h-1v1h1v-1zm0-12.584v-1h-1v1h1zm3.57 0h1v-1h-1v1zm0 6.533h-1v2.812l1.776-2.181-.776-.631zm5.319-6.533v-1h-.475l-.3.368.775.632zm2.803 0h1v-1h-1v1zm0 12.584v1h1v-1h-1zm-3.57 0h-1v1h1v-1zm0-6.533h1v-2.812l-1.776 2.181.776.631zM297.62 150v1h.475l.3-.369-.775-.631zm-1.803 0v-12.584h-2V150h2zm-1-11.584h3.57v-2h-3.57v2zm2.57-1v6.533h2v-6.533h-2zm1.776 7.164l5.319-6.533-1.551-1.263-5.319 6.533 1.551 1.263zm4.543-6.164h2.803v-2h-2.803v2zm1.803-1V150h2v-12.584h-2zm1 11.584h-3.57v2h3.57v-2zm-2.57 1v-6.533h-2V150h2zm-1.776-7.164l-5.319 6.533 1.551 1.262 5.319-6.533-1.551-1.262zM297.62 149h-2.803v2h2.803v-2zm9.219 1l-.797-.604-1.216 1.604h2.013v-1zm4.801-6.337l.798.604.457-.604-.457-.603-.798.603zm-4.73-6.247v-1h-2.011l1.214 1.603.797-.603zm4.498 0l.821-.571-.298-.429h-.523v1zm2.41 3.463l-.821.571.815 1.171.823-1.166-.817-.576zm2.446-3.463v-1h-.518l-.299.423.817.577zm4.498 0l.797.603 1.214-1.603h-2.011v1zm-4.73 6.247l-.798-.603-.458.605.46.604.796-.606zm4.819 6.337v1h2.017l-1.221-1.605-.796.605zm-4.516 0l-.816.577.298.423h.518v-1zm-2.499-3.534l.817-.578-.814-1.15-.818 1.148.815.58zM311.319 150v1h.516l.299-.42-.815-.58zm-3.683.604l4.802-6.337-1.595-1.208-4.801 6.337 1.594 1.208zm4.802-7.544l-4.731-6.248-1.594 1.207 4.73 6.248 1.595-1.207zm-5.528-4.644h4.498v-2h-4.498v2zm3.678-.429l2.409 3.463 1.642-1.143-2.41-3.462-1.641 1.142zm4.047 3.468l2.445-3.462-1.633-1.154-2.446 3.463 1.634 1.153zm1.629-3.039h4.498v-2h-4.498v2zm3.701-1.604l-4.731 6.248 1.595 1.207 4.73-6.248-1.594-1.207zm-4.729 7.457l4.819 6.336 1.592-1.21-4.819-6.337-1.592 1.211zm5.615 4.731h-4.516v2h4.516v-2zm-3.699.423l-2.499-3.535-1.633 1.155 2.499 3.534 1.633-1.154zm-4.131-3.537l-2.516 3.534 1.629 1.16 2.517-3.534-1.63-1.16zM311.319 149h-4.48v2h4.48v-2z" fill="#fff" mask="url(#b)"/><path d="M3.25 208v-27.354h14.007c3.078 0 5.445.647 7.1 1.94 1.682 1.267 2.523 2.975 2.523 5.122 0 1.396-.363 2.625-1.087 3.686-.698 1.034-1.681 1.81-2.949 2.328 1.578.491 2.781 1.293 3.609 2.405.828 1.087 1.241 2.432 1.241 4.035 0 2.38-.905 4.281-2.716 5.704-1.81 1.423-4.255 2.134-7.333 2.134H3.25zm7.993-16.917h4.423c1.139 0 1.953-.168 2.445-.504.517-.362.776-.931.776-1.707s-.259-1.333-.776-1.669c-.492-.336-1.306-.504-2.445-.504h-4.423v4.384zm0 10.864h5.277c2.173 0 3.26-.802 3.26-2.405 0-1.604-1.087-2.406-3.26-2.406h-5.277v4.811zM33.193 208l4.385-8.458-11.718-18.896h8.77l6.906 11.485 5.897-11.485h8.575L41.808 208h-8.614zm33.134.466c-2.302 0-4.358-.246-6.169-.738-1.785-.517-3.401-1.215-4.85-2.095l2.328-5.975c.983.647 2.16 1.164 3.531 1.552 1.397.362 2.884.543 4.462.543 1.604 0 2.78-.194 3.53-.582.777-.414 1.165-1.06 1.165-1.94 0-.646-.272-1.138-.815-1.474-.517-.336-1.358-.505-2.522-.505h-6.79v-6.285h6.014c1.164 0 2.005-.142 2.522-.427.517-.31.776-.815.776-1.513 0-.595-.297-1.1-.892-1.513-.57-.414-1.54-.621-2.91-.621a14.63 14.63 0 00-4.074.582c-1.346.362-2.497.866-3.454 1.513l-2.328-5.975c1.242-.854 2.794-1.539 4.656-2.057 1.889-.517 3.945-.776 6.17-.776 3.647 0 6.363.712 8.148 2.134 1.81 1.423 2.716 3.221 2.716 5.394 0 1.422-.363 2.651-1.087 3.686-.698 1.034-1.681 1.823-2.949 2.366 1.552.492 2.742 1.281 3.57 2.367.828 1.087 1.242 2.445 1.242 4.074 0 1.604-.44 3.027-1.32 4.268-.88 1.242-2.211 2.225-3.996 2.949-1.759.698-3.984 1.048-6.674 1.048zm28.518 0c-2.897 0-5.406-.595-7.527-1.785a12.472 12.472 0 01-4.927-4.967c-1.139-2.147-1.708-4.617-1.708-7.41 0-2.82.57-5.29 1.708-7.411a12.215 12.215 0 014.927-4.928c2.121-1.19 4.63-1.785 7.527-1.785 2.923 0 5.445.595 7.566 1.785a12.216 12.216 0 014.928 4.928c1.164 2.121 1.746 4.591 1.746 7.411 0 2.819-.582 5.289-1.746 7.41a12.473 12.473 0 01-4.928 4.967c-2.121 1.19-4.643 1.785-7.566 1.785zm0-6.946c1.863 0 3.234-.633 4.113-1.901.906-1.293 1.358-3.065 1.358-5.315 0-2.251-.453-4.01-1.358-5.277-.88-1.268-2.25-1.901-4.113-1.901-1.862 0-3.233.633-4.112 1.901-.854 1.241-1.28 3-1.28 5.277 0 2.276.426 4.048 1.28 5.315.879 1.268 2.25 1.901 4.112 1.901zm18.099 6.48v-27.354h14.007c3.078 0 5.444.647 7.1 1.94 1.681 1.267 2.522 2.975 2.522 5.122 0 1.396-.362 2.625-1.086 3.686-.699 1.034-1.682 1.81-2.949 2.328 1.578.491 2.78 1.293 3.608 2.405.828 1.087 1.242 2.432 1.242 4.035 0 2.38-.906 4.281-2.716 5.704-1.811 1.423-4.255 2.134-7.333 2.134h-14.395zm7.993-16.917h4.423c1.138 0 1.953-.168 2.444-.504.517-.362.776-.931.776-1.707s-.259-1.333-.776-1.669c-.491-.336-1.306-.504-2.444-.504h-4.423v4.384zm0 10.864h5.276c2.173 0 3.26-.802 3.26-2.405 0-1.604-1.087-2.406-3.26-2.406h-5.276v4.811zM151.971 208v-27.354h14.123c3.234 0 5.665.802 7.295 2.406 1.629 1.577 2.444 3.711 2.444 6.402 0 2.664-.815 4.798-2.444 6.402-1.63 1.603-4.061 2.405-7.295 2.405h-5.742V208h-8.381zm8.381-16.102h4.617c1.914 0 2.871-.815 2.871-2.444 0-1.63-.957-2.445-2.871-2.445h-4.617v4.889zm31.683 16.568c-2.897 0-5.406-.595-7.527-1.785a12.473 12.473 0 01-4.928-4.967c-1.138-2.147-1.707-4.617-1.707-7.41 0-2.82.569-5.29 1.707-7.411a12.216 12.216 0 014.928-4.928c2.121-1.19 4.63-1.785 7.527-1.785 2.923 0 5.445.595 7.566 1.785a12.214 12.214 0 014.927 4.928c1.164 2.121 1.746 4.591 1.746 7.411 0 2.819-.582 5.289-1.746 7.41a12.47 12.47 0 01-4.927 4.967c-2.121 1.19-4.643 1.785-7.566 1.785zm0-6.946c1.862 0 3.233-.633 4.113-1.901.905-1.293 1.358-3.065 1.358-5.315 0-2.251-.453-4.01-1.358-5.277-.88-1.268-2.251-1.901-4.113-1.901-1.863 0-3.234.633-4.113 1.901-.854 1.241-1.28 3-1.28 5.277 0 2.276.426 4.048 1.28 5.315.879 1.268 2.25 1.901 4.113 1.901zm32.415 6.946c-3.052 0-5.703-.582-7.954-1.746-2.224-1.19-3.957-2.846-5.199-4.967-1.216-2.121-1.823-4.604-1.823-7.449 0-2.846.607-5.316 1.823-7.411 1.242-2.121 2.975-3.764 5.199-4.928 2.251-1.19 4.902-1.785 7.954-1.785 1.863 0 3.57.246 5.122.738 1.578.465 2.884 1.138 3.919 2.017l-2.445 6.557c-1.164-.776-2.211-1.306-3.142-1.59-.932-.311-1.979-.466-3.143-.466-2.095 0-3.712.595-4.85 1.785-1.112 1.164-1.669 2.858-1.669 5.083 0 2.25.557 3.97 1.669 5.16 1.138 1.164 2.755 1.746 4.85 1.746 1.164 0 2.211-.142 3.143-.427.931-.31 1.978-.853 3.142-1.629l2.445 6.557c-1.035.879-2.341 1.565-3.919 2.056-1.552.466-3.259.699-5.122.699zm25.993 0c-3.052 0-5.703-.582-7.954-1.746-2.224-1.19-3.957-2.846-5.199-4.967-1.216-2.121-1.823-4.604-1.823-7.449 0-2.846.607-5.316 1.823-7.411 1.242-2.121 2.975-3.764 5.199-4.928 2.251-1.19 4.902-1.785 7.954-1.785 1.863 0 3.57.246 5.122.738 1.578.465 2.884 1.138 3.919 2.017l-2.445 6.557c-1.164-.776-2.211-1.306-3.142-1.59-.932-.311-1.979-.466-3.143-.466-2.095 0-3.712.595-4.85 1.785-1.112 1.164-1.669 2.858-1.669 5.083 0 2.25.557 3.97 1.669 5.16 1.138 1.164 2.755 1.746 4.85 1.746 1.164 0 2.211-.142 3.143-.427.931-.31 1.978-.853 3.142-1.629l2.445 6.557c-1.035.879-2.341 1.565-3.919 2.056-1.552.466-3.259.699-5.122.699zm12.245-.466v-27.354h7.76v14.201l11.562-14.201h6.092V208h-7.76v-14.201L268.779 208h-6.091zm29.933 0v-27.354h7.76v14.201l11.562-14.201h6.092V208h-7.76v-14.201L298.713 208h-6.092z" fill="#fff"/></svg>