<svg width="1594" height="483" fill="none" xmlns="http://www.w3.org/2000/svg"><path opacity=".125" d="M-1512.27 286.096c350.79-4.971 379.08-50.556 607.117-27.611 228.033 22.945 436.361 94.993 689.084 43.749 252.723-51.244 399.174-215.148 565.1-145.319 165.926 69.83 160.175 169.182 304.096 158.015 143.92-11.166 304.632-120.308 418.343-121.303 97.91-.841 8.28 98.205 277.34 92.239" stroke="url(#paint0_linear_456_2957)" stroke-width=".281" stroke-miterlimit="10"/><path opacity=".25" d="M-1499.62 295.58c350.79-4.972 369.58-96.676 597.688-73.73 228.11 23.021 439.352 156.791 692.075 105.547C42.866 276.153 181.035 67.735 346.885 137.565c165.926 69.829 109.263 203.37 253.106 192.203 143.921-11.167 311.61-142.107 441.119-140.118 97.83 1.53 73.61 136.6 342.58 111.284" stroke="url(#paint1_linear_456_2957)" stroke-width=".313" stroke-miterlimit="10"/><path opacity=".375" d="M-1486.97 305.064c350.79-4.972 360.15-142.795 588.257-119.774 228.11 23.022 442.342 218.59 695.065 167.346C49.075 301.392 178.887 48.461 344.813 118.291c165.927 69.829 58.274 237.481 202.194 226.315 143.921-11.167 318.588-162.834 463.893-158.933 97.83 2.677 138.86 175.071 407.76 130.328" stroke="url(#paint2_linear_456_2957)" stroke-width=".344" stroke-miterlimit="10"/><path opacity=".5" d="M-1474.24 314.471c350.79-4.971 350.71-188.914 578.824-165.893 228.11 23.022 445.332 280.389 698.055 229.145C55.286 326.479 176.893 29.034 342.82 98.863c165.926 69.83 7.36 271.671 151.281 260.504 143.92-11.167 325.565-183.79 486.737-177.748 97.842 3.671 204.192 213.542 473.012 149.373" stroke="url(#paint3_linear_456_2957)" stroke-width=".375" stroke-miterlimit="10"/><path opacity=".625" d="M-1461.59 323.955c350.79-4.971 341.29-235.034 569.396-212.012 228.11 23.021 448.323 342.187 700.969 290.943C61.498 351.642 174.748 9.684 340.598 79.514c165.926 69.829-43.552 305.781 100.292 294.614 143.92-11.166 332.542-204.899 509.51-196.562 97.76 4.589 269.44 251.937 538.26 168.416" stroke="url(#paint4_linear_456_2957)" stroke-width=".406" stroke-miterlimit="10"/><path opacity=".75" d="M-1448.86 333.439c350.79-4.971 331.78-281.154 559.886-258.132 228.11 23.022 451.313 403.986 703.959 352.742C67.708 376.805 172.6-9.666 338.527 60.163c165.926 69.83-94.542 339.893 49.379 328.803 143.92-11.166 339.52-226.162 532.283-215.301 97.761 5.507 334.761 290.408 603.511 187.461" stroke="url(#paint5_linear_456_2957)" stroke-width=".438" stroke-miterlimit="10"/><path opacity=".875" d="M-1436.21 342.923c350.79-5.048 322.34-327.273 550.455-304.252 228.11 23.022 454.303 465.785 706.95 414.541C73.841 401.968 170.529-29.017 336.455 40.889c165.927 69.83-145.453 374.082-1.533 362.915 143.92-11.167 346.574-247.654 555.055-234.116 97.762 6.348 400.013 328.879 668.763 206.505" stroke="url(#paint6_linear_456_2957)" stroke-width=".469" stroke-miterlimit="10"/><path d="M-1423.56 352.407c350.87-5.048 312.99-373.393 541.026-350.371 228.11 23.021 457.294 527.584 709.94 476.34C80.053 427.132 168.383-48.367 334.309 21.539c165.927 69.83-196.443 408.193-52.523 397.103 143.921-11.167 353.629-269.222 577.905-252.931 97.762 7.113 465.349 367.274 734.019 225.55" stroke="url(#paint7_linear_456_2957)" stroke-width=".5" stroke-miterlimit="10"/><defs><linearGradient id="paint0_linear_456_2957" x1="-81.733" y1="139.864" x2="-81.733" y2="320.245" gradientUnits="userSpaceOnUse"><stop stop-color="#fff"/><stop offset="1" stop-color="#fff" stop-opacity="0"/></linearGradient><linearGradient id="paint1_linear_456_2957" x1="-57.963" y1="123.402" x2="-57.963" y2="338.997" gradientUnits="userSpaceOnUse"><stop stop-color="#fff"/><stop offset="1" stop-color="#fff" stop-opacity="0"/></linearGradient><linearGradient id="paint2_linear_456_2957" x1="-34.156" y1="106.189" x2="-34.156" y2="361.161" gradientUnits="userSpaceOnUse"><stop stop-color="#fff"/><stop offset="1" stop-color="#fff" stop-opacity="0"/></linearGradient><linearGradient id="paint3_linear_456_2957" x1="-10.195" y1="88.304" x2="-10.195" y2="384.456" gradientUnits="userSpaceOnUse"><stop stop-color="#fff"/><stop offset="1" stop-color="#fff" stop-opacity="0"/></linearGradient><linearGradient id="paint4_linear_456_2957" x1="13.538" y1="70.15" x2="13.538" y2="408.447" gradientUnits="userSpaceOnUse"><stop stop-color="#fff"/><stop offset="1" stop-color="#fff" stop-opacity="0"/></linearGradient><linearGradient id="paint5_linear_456_2957" x1="37.421" y1="51.753" x2="37.421" y2="432.786" gradientUnits="userSpaceOnUse"><stop stop-color="#fff"/><stop offset="1" stop-color="#fff" stop-opacity="0"/></linearGradient><linearGradient id="paint6_linear_456_2957" x1="61.266" y1="33.241" x2="61.266" y2="457.337" gradientUnits="userSpaceOnUse"><stop stop-color="#fff"/><stop offset="1" stop-color="#fff" stop-opacity="0"/></linearGradient><linearGradient id="paint7_linear_456_2957" x1="85.075" y1="1" x2="85.075" y2="482.028" gradientUnits="userSpaceOnUse"><stop stop-color="#fff"/><stop offset="1" stop-color="#fff" stop-opacity="0"/></linearGradient></defs></svg>