<svg width="576" height="227" fill="none" xmlns="http://www.w3.org/2000/svg"><path d="M16.21 35.42c-2.613 0-4.877-.537-6.79-1.61a11.248 11.248 0 01-4.445-4.48c-1.027-1.937-1.54-4.165-1.54-6.685 0-2.543.513-4.772 1.54-6.685a11.018 11.018 0 014.445-4.445c1.913-1.073 4.177-1.61 6.79-1.61 2.637 0 4.912.537 6.825 1.61a11.018 11.018 0 014.445 4.445c1.05 1.913 1.575 4.142 1.575 6.685 0 2.543-.525 4.772-1.575 6.685a11.248 11.248 0 01-4.445 4.48c-1.913 1.073-4.188 1.61-6.825 1.61zm0-6.265c1.68 0 2.917-.572 3.71-1.715.817-1.167 1.225-2.765 1.225-4.795s-.408-3.617-1.225-4.76c-.793-1.143-2.03-1.715-3.71-1.715-1.68 0-2.917.572-3.71 1.715-.77 1.12-1.155 2.707-1.155 4.76s.385 3.652 1.155 4.795c.793 1.143 2.03 1.715 3.71 1.715zM32.536 35V10.325H52.03v5.67H39.71v3.57h5.985c2.776 0 4.97.677 6.58 2.03 1.61 1.33 2.415 3.22 2.415 5.67 0 2.473-.805 4.387-2.415 5.74-1.61 1.33-3.804 1.995-6.58 1.995h-13.16zm7.175-5.565h4.935c1.073 0 1.831-.175 2.275-.525.467-.373.7-.922.7-1.645s-.233-1.26-.7-1.61c-.444-.35-1.202-.525-2.275-.525H39.71v4.305zM62.738 35V16.345h-6.895v-6.02h14.385v9.24h5.635c2.776 0 4.97.677 6.58 2.03 1.633 1.33 2.45 3.22 2.45 5.67 0 2.473-.817 4.387-2.45 5.74-1.61 1.33-3.803 1.995-6.58 1.995H62.738zm7.49-5.565h4.62c1.073 0 1.832-.175 2.275-.525.443-.373.665-.922.665-1.645s-.222-1.26-.665-1.61c-.444-.373-1.202-.56-2.275-.56h-4.62v4.34zM87.668 35V10.325h18.305v5.74H94.878V19.6h10.255v5.74H94.878v3.92h11.095V35H87.668zm19.579 6.3V29.33h2.59c1.913-2.38 2.87-6.51 2.87-12.39v-6.615h19.88V29.33h3.605V41.3h-6.44V35h-16.065v6.3h-6.44zm9.975-11.97h7.875V15.995h-5.53v1.785c0 5.18-.782 9.03-2.345 11.55zM139.006 35V10.325h7v12.81l10.43-12.81h5.495V35h-7V22.19L144.501 35h-5.495zm27.002 0V10.325h7.56v9.1h8.435v-9.1h7.56V35h-7.56v-9.415h-8.435V35h-7.56zm26.077 0l3.815-6.685c.816-1.377 1.878-2.263 3.185-2.66-1.82-.49-3.209-1.377-4.165-2.66-.957-1.307-1.435-2.905-1.435-4.795 0-2.45.793-4.375 2.38-5.775 1.586-1.4 3.826-2.1 6.72-2.1h12.81V35h-7.49v-8.82h-1.12c-.957 0-1.645.35-2.065 1.05L200.31 35h-8.225zm11.83-14.035h3.99v-4.97h-3.99c-2.217 0-3.325.828-3.325 2.485s1.108 2.485 3.325 2.485zM219.465 35V10.325h18.305v5.74h-11.095V19.6h10.255v5.74h-10.255v3.92h11.095V35h-18.305zm21.399 0V10.325h6.58l6.895 15.435 6.895-15.435h6.58V35h-6.825v-9.765L256.369 35h-4.165l-4.515-9.555V35h-6.825zm47.055 0V16.415h-7.14v-6.09h21.84v6.09h-7.14V35h-7.56zm10.801 0l11.725-24.675h6.125L328.365 35h-7.56l-2.03-4.585h-10.5L306.245 35h-7.525zm14.77-16.975l-2.8 6.685h5.775l-2.8-6.685h-.175zM331.246 35.7l-3.78-5.25c1.33-.793 2.391-1.727 3.185-2.8.816-1.073 1.4-2.392 1.75-3.955.35-1.563.525-3.442.525-5.635v-7.735h19.915V35h-7.49V16.345h-5.53v3.57c0 3.943-.77 7.245-2.31 9.905-1.517 2.66-3.605 4.62-6.265 5.88zm22.435-.7l11.725-24.675h6.125L383.326 35h-7.56l-2.03-4.585h-10.5L361.206 35h-7.525zm14.77-16.975l-2.8 6.685h5.775l-2.8-6.685h-.175zM384.176 35V10.325h7.56v9.1h8.435v-9.1h7.56V35h-7.56v-9.415h-8.435V35h-7.56zm33.148 0V16.415h-7.14v-6.09h21.84v6.09h-7.14V35h-7.56zm18.853.7l-3.78-5.25c1.33-.793 2.392-1.727 3.185-2.8.817-1.073 1.4-2.392 1.75-3.955.35-1.563.525-3.442.525-5.635v-7.735h19.915V35h-7.49V16.345h-5.53v3.57c0 3.943-.77 7.245-2.31 9.905-1.516 2.66-3.605 4.62-6.265 5.88zm25.656-.7V10.325h7v12.81l10.43-12.81h5.495V35h-7V22.19L467.328 35h-5.495zm27.002 0V10.325h12.635c2.776 0 4.911.583 6.405 1.75 1.516 1.143 2.275 2.683 2.275 4.62 0 1.26-.327 2.368-.98 3.325-.63.933-1.517 1.633-2.66 2.1 1.423.443 2.508 1.167 3.255 2.17.746.98 1.12 2.193 1.12 3.64 0 2.147-.817 3.862-2.45 5.145-1.634 1.283-3.839 1.925-6.615 1.925h-12.985zm7.21-15.26h3.99c1.026 0 1.761-.152 2.205-.455.466-.327.7-.84.7-1.54 0-.7-.234-1.202-.7-1.505-.444-.303-1.179-.455-2.205-.455h-3.99v3.955zm0 9.8h4.76c1.96 0 2.94-.723 2.94-2.17s-.98-2.17-2.94-2.17h-4.76v4.34zm19.8 5.46l3.955-7.63-10.57-17.045h7.91l6.23 10.36 5.32-10.36h7.735L523.615 35h-7.77zm44.869.42c-2.193 0-4.165-.408-5.915-1.225-1.75-.817-3.197-1.96-4.34-3.43-1.12-1.493-1.878-3.243-2.275-5.25h-3.29V35h-7.49V10.325h7.49v9.17h3.325c.42-1.96 1.202-3.652 2.345-5.075 1.143-1.447 2.578-2.555 4.305-3.325 1.727-.793 3.675-1.19 5.845-1.19 2.59 0 4.853.537 6.79 1.61a11.185 11.185 0 014.515 4.445c1.073 1.913 1.61 4.142 1.61 6.685 0 2.543-.548 4.783-1.645 6.72a11.418 11.418 0 01-4.515 4.48c-1.937 1.05-4.188 1.575-6.755 1.575zm.035-6.195c1.587 0 2.835-.583 3.745-1.75.91-1.167 1.365-2.777 1.365-4.83s-.455-3.652-1.365-4.795c-.91-1.167-2.158-1.75-3.745-1.75-1.587 0-2.835.572-3.745 1.715-.887 1.143-1.33 2.753-1.33 4.83 0 2.053.443 3.663 1.33 4.83.91 1.167 2.158 1.75 3.745 1.75z" fill="#fff"/><mask id="a" maskUnits="userSpaceOnUse" x="4" y="61" width="567" height="58" fill="#000"><path fill="#fff" d="M4 61h567v58H4z"/><path d="M5.05 109V73.75h9.4L24.3 95.8l9.85-22.05h9.4V109H33.8V95.05L27.2 109h-5.95L14.8 95.35V109H5.05zm61.83.6c-3.733 0-6.967-.767-9.7-2.3-2.733-1.533-4.85-3.667-6.35-6.4-1.467-2.767-2.2-5.95-2.2-9.55 0-3.633.733-6.817 2.2-9.55 1.5-2.733 3.617-4.85 6.35-6.35 2.733-1.533 5.967-2.3 9.7-2.3 3.767 0 7.017.767 9.75 2.3 2.733 1.5 4.85 3.617 6.35 6.35 1.5 2.733 2.25 5.917 2.25 9.55 0 3.633-.75 6.817-2.25 9.55-1.5 2.733-3.617 4.867-6.35 6.4-2.733 1.533-5.983 2.3-9.75 2.3zm0-8.95c2.4 0 4.167-.817 5.3-2.45 1.167-1.667 1.75-3.95 1.75-6.85 0-2.9-.583-5.167-1.75-6.8-1.133-1.633-2.9-2.45-5.3-2.45s-4.167.817-5.3 2.45c-1.1 1.6-1.65 3.867-1.65 6.8s.55 5.217 1.65 6.85c1.133 1.633 2.9 2.45 5.3 2.45zM92.86 110l-5.4-7.5c1.9-1.133 3.416-2.467 4.55-4 1.166-1.533 2-3.417 2.5-5.65.5-2.233.75-4.917.75-8.05V73.75h28.45V109h-10.7V82.35h-7.9v5.1c0 5.633-1.1 10.35-3.3 14.15-2.167 3.8-5.15 6.6-8.95 8.4zm54.05-.4c-3.733 0-6.966-.767-9.7-2.3-2.733-1.533-4.85-3.667-6.35-6.4-1.466-2.767-2.2-5.95-2.2-9.55 0-3.633.734-6.817 2.2-9.55 1.5-2.733 3.617-4.85 6.35-6.35 2.734-1.533 5.967-2.3 9.7-2.3 3.767 0 7.017.767 9.75 2.3 2.734 1.5 4.85 3.617 6.35 6.35 1.5 2.733 2.25 5.917 2.25 9.55 0 3.633-.75 6.817-2.25 9.55-1.5 2.733-3.616 4.867-6.35 6.4-2.733 1.533-5.983 2.3-9.75 2.3zm0-8.95c2.4 0 4.167-.817 5.3-2.45 1.167-1.667 1.75-3.95 1.75-6.85 0-2.9-.583-5.167-1.75-6.8-1.133-1.633-2.9-2.45-5.3-2.45s-4.166.817-5.3 2.45c-1.1 1.6-1.65 3.867-1.65 6.8s.55 5.217 1.65 6.85c1.134 1.633 2.9 2.45 5.3 2.45zM166.805 118v-17.1h3.7c2.734-3.4 4.1-9.3 4.1-17.7v-9.45h28.4v27.15h5.15V118h-9.2v-9h-22.95v9h-9.2zm14.25-17.1h11.25V81.85h-7.9v2.55c0 7.4-1.116 12.9-3.35 16.5zm31.12 8.1V73.75h26.15v8.2h-15.85V87h14.65v8.2h-14.65v5.6h15.85v8.2h-26.15zm15.55-38v-8.45h8.4V71h-8.4zm-10.8 0v-8.45h8.4V71h-8.4zm22.32 38l6.55-13.1c.734-1.467 1.534-2.717 2.4-3.75a12.311 12.311 0 013.05-2.55l-10.25-15.85h11.65l8.25 13.65h1.75V73.75h10.25V87.4h1.8l8.15-13.65h11.65l-10.25 15.85a10.809 10.809 0 013.05 2.6c.9 1.033 1.717 2.267 2.45 3.7l6.5 13.1h-11.55l-4.55-9.75c-.533-1.167-1.216-2-2.05-2.5-.833-.5-1.983-.75-3.45-.75h-1.75v13h-10.25V96h-1.75c-1.433 0-2.566.25-3.4.75-.833.5-1.533 1.333-2.1 2.5l-4.6 9.75h-11.55zm59.454 0V73.75h10.7v13.2h8.1c3.966 0 7.1.967 9.4 2.9 2.3 1.9 3.45 4.6 3.45 8.1 0 3.533-1.15 6.267-3.45 8.2-2.3 1.9-5.434 2.85-9.4 2.85h-18.8zm10.7-7.95h6.6c1.533 0 2.616-.25 3.25-.75.666-.533 1-1.317 1-2.35 0-1.033-.334-1.8-1-2.3-.634-.5-1.717-.75-3.25-.75h-6.6v6.15zm58.238 8.55c-3.933 0-7.35-.75-10.25-2.25-2.867-1.533-5.1-3.667-6.7-6.4-1.567-2.733-2.35-5.933-2.35-9.6s.783-6.85 2.35-9.55c1.6-2.733 3.833-4.85 6.7-6.35 2.9-1.533 6.317-2.3 10.25-2.3 2.4 0 4.6.317 6.6.95 2.033.6 3.717 1.467 5.05 2.6l-3.15 8.45c-1.5-1-2.85-1.683-4.05-2.05-1.2-.4-2.55-.6-4.05-.6-2.7 0-4.783.767-6.25 2.3-1.433 1.5-2.15 3.683-2.15 6.55 0 2.9.717 5.117 2.15 6.65 1.467 1.5 3.55 2.25 6.25 2.25 1.5 0 2.85-.183 4.05-.55 1.2-.4 2.55-1.1 4.05-2.1l3.15 8.45c-1.333 1.133-3.017 2.017-5.05 2.65-2 .6-4.2.9-6.6.9zm23.19-.6V82.45h-10.2v-8.7h31.2v8.7h-10.2V109h-10.8zm24.522 0V73.75h18.2c4.167 0 7.3 1.033 9.4 3.1 2.1 2.033 3.15 4.783 3.15 8.25 0 3.433-1.05 6.183-3.15 8.25-2.1 2.067-5.233 3.1-9.4 3.1h-7.4V109h-10.8zm10.8-20.75h5.95c2.467 0 3.7-1.05 3.7-3.15 0-2.1-1.233-3.15-3.7-3.15h-5.95v6.3zM441.706 109l16.75-35.25h8.75l16.85 35.25h-10.8l-2.9-6.55h-15l-2.9 6.55h-10.75zm21.1-24.25l-4 9.55h8.25l-4-9.55h-.25zM485.271 109V73.75h10.8v13h12.05v-13h10.8V109h-10.8V95.55h-12.05V109h-10.8zm39.453 0V73.75h10.7v13.2h6.55c3.967 0 7.1.967 9.4 2.9 2.3 1.9 3.45 4.6 3.45 8.1 0 3.533-1.15 6.267-3.45 8.2-2.3 1.9-5.433 2.85-9.4 2.85h-17.25zm33.8 0V73.75h10.7V109h-10.7zm-23.1-7.95h5.05c1.534 0 2.617-.25 3.25-.75.667-.533 1-1.317 1-2.35 0-1.033-.333-1.8-1-2.3-.633-.533-1.716-.8-3.25-.8h-5.05v6.2z"/></mask><path d="M5.05 109h-1v1h1v-1zm0-35.25v-1h-1v1h1zm9.4 0l.913-.408-.264-.592h-.649v1zM24.3 95.8l-.913.408.913 2.044.913-2.044-.913-.408zm9.85-22.05v-1h-.648l-.265.592.913.408zm9.4 0h1v-1h-1v1zm0 35.25v1h1v-1h-1zm-9.75 0h-1v1h1v-1zm0-13.95h1l-1.904-.428.904.428zM27.2 109v1h.633l.27-.572L27.2 109zm-5.95 0l-.904.427.27.573h.634v-1zM14.8 95.35l.904-.427-1.904.427h1zm0 13.65v1h1v-1h-1zm-8.75 0V73.75h-2V109h2zm-1-34.25h9.4v-2h-9.4v2zm8.487-.592l9.85 22.05 1.826-.816-9.85-22.05-1.826.816zm11.676 22.05l9.85-22.05-1.826-.816-9.85 22.05 1.826.816zM34.15 74.75h9.4v-2h-9.4v2zm8.4-1V109h2V73.75h-2zm1 34.25H33.8v2h9.75v-2zm-8.75 1V95.05h-2V109h2zm-1.904-14.378l-6.6 13.95 1.808.856 6.6-13.95-1.808-.856zM27.2 108h-5.95v2h5.95v-2zm-5.046.573l-6.45-13.65-1.808.854 6.45 13.65 1.808-.854zM13.8 95.35V109h2V95.35h-2zm1 12.65H5.05v2h9.75v-2zm42.38-.7l.49-.872-.49.872zm-6.35-6.4l-.883.468.003.007.003.006.877-.481zm0-19.1l-.877-.481-.004.008.881.473zm6.35-6.35l.481.877.008-.005-.489-.872zm19.45 0l-.49.872.009.005.481-.877zm6.35 25.45l.877.481-.877-.481zm-6.35 6.4l-.49-.872.49.872zm-4.45-9.1l-.82-.574-.001.004.821.57zm0-13.65l-.822.57.008.011.814-.581zm-10.6 0l-.822-.57-.002.004.824.566zm0 13.65l-.83.559.008.011.822-.57zm5.3 10.4c-3.595 0-6.653-.737-9.21-2.172l-.98 1.744c2.91 1.632 6.318 2.428 10.19 2.428v-2zm-9.21-2.172c-2.572-1.442-4.554-3.441-5.963-6.009l-1.754.962c1.59 2.898 3.842 5.167 6.738 6.791l.978-1.744zm-5.956-5.996c-1.38-2.603-2.084-5.62-2.084-9.082h-2c0 3.739.763 7.087 2.316 10.018l1.768-.936zM49.63 91.35c0-3.497.705-6.512 2.081-9.077l-1.762-.946C48.392 84.23 47.63 87.58 47.63 91.35h2zm2.077-9.069c1.408-2.566 3.388-4.546 5.954-5.954l-.962-1.754c-2.9 1.592-5.154 3.846-6.746 6.746l1.754.962zm5.962-5.959c2.558-1.435 5.616-2.172 9.211-2.172v-2c-3.872 0-7.28.796-10.19 2.428l.98 1.744zm9.211-2.172c3.63 0 6.704.738 9.26 2.172l.98-1.744c-2.91-1.633-6.336-2.428-10.24-2.428v2zm9.269 2.177c2.567 1.408 4.546 3.388 5.954 5.954l1.754-.962c-1.592-2.9-3.846-5.154-6.746-6.746l-.962 1.754zm5.954 5.954c1.407 2.563 2.127 5.576 2.127 9.069h2c0-3.774-.78-7.128-2.373-10.031l-1.754.962zm2.127 9.069c0 3.493-.72 6.506-2.127 9.069l1.754.962c1.593-2.903 2.373-6.257 2.373-10.031h-2zm-2.127 9.069c-1.41 2.568-3.391 4.567-5.962 6.009l.978 1.744c2.896-1.624 5.147-3.893 6.738-6.791l-1.754-.962zm-5.962 6.009c-2.557 1.434-5.631 2.172-9.26 2.172v2c3.903 0 7.328-.795 10.238-2.428l-.978-1.744zm-9.26-4.778c2.65 0 4.76-.919 6.12-2.88l-1.642-1.14c-.907 1.306-2.33 2.02-4.479 2.02v2zm6.118-2.877c1.325-1.892 1.931-4.402 1.931-7.423h-2c0 2.779-.56 4.836-1.57 6.276L73 98.773zm1.931-7.423c0-3.02-.605-5.518-1.936-7.381l-1.628 1.162c1.003 1.404 1.564 3.439 1.564 6.219h2zm-1.928-7.37c-1.36-1.96-3.471-2.88-6.122-2.88v2c2.15 0 3.572.714 4.479 2.02l1.643-1.14zM66.88 81.1c-2.65 0-4.761.92-6.121 2.88l1.643 1.14c.906-1.306 2.329-2.02 4.478-2.02v-2zm-6.124 2.884c-1.26 1.831-1.826 4.327-1.826 7.366h2c0-2.828.534-4.865 1.474-6.233l-1.648-1.133zM58.93 91.35c0 3.04.567 5.548 1.82 7.409l1.66-1.118c-.947-1.405-1.48-3.465-1.48-6.291h-2zm1.828 7.42c1.36 1.961 3.472 2.88 6.122 2.88v-2c-2.15 0-3.572-.714-4.478-2.02l-1.644 1.14zm32.1 11.23l-.81.584.486.676.753-.356-.428-.904zm-5.4-7.5l-.512-.859-.936.559.637.884.812-.584zm4.55-4l-.795-.606-.009.012.805.594zm3.25-24.75v-1h-1v1h1zm28.451 0h1v-1h-1v1zm0 35.25v1h1v-1h-1zm-10.7 0h-1v1h1v-1zm0-26.65h1v-1h-1v1zm-7.9 0v-1h-1v1h1zm-3.3 19.25l-.866-.501-.003.006.869.495zm-8.139 7.816l-5.4-7.5-1.623 1.168 5.4 7.5 1.623-1.168zm-5.7-6.057c1.997-1.191 3.619-2.609 4.843-4.265l-1.609-1.188c-1.042 1.41-2.453 2.659-4.258 3.735l1.025 1.718zm4.834-4.253c1.27-1.668 2.155-3.69 2.68-6.037l-1.951-.438c-.475 2.12-1.256 3.864-2.32 5.263l1.591 1.212zm2.68-6.037c.521-2.326.775-5.087.775-8.269h-2c0 3.085-.247 5.69-.726 7.832l1.951.436zm.775-8.269V73.75h-2V84.8h2zm-1-10.05h28.45v-2h-28.45v2zm27.45-1V109h2V73.75h-2zm1 34.25h-10.7v2h10.7v-2zm-9.7 1V82.35h-2V109h2zm-1-27.65h-7.9v2h7.9v-2zm-8.9 1v5.1h2v-5.1h-2zm0 5.1c0 5.506-1.076 10.038-3.166 13.649l1.731 1.002c2.31-3.99 3.435-8.89 3.435-14.651h-2zm-3.169 13.655c-2.07 3.629-4.903 6.283-8.51 7.991l.857 1.808c3.993-1.892 7.126-4.838 9.39-8.809l-1.737-.99zm36.269 6.195l.49-.872-.49.872zm-6.35-6.4l-.883.468.003.007.004.006.876-.481zm0-19.1l-.876-.481-.005.008.881.473zm6.35-6.35l.481.877.009-.005-.49-.872zm19.45 0l-.489.872.008.005.481-.877zm6.35 25.45l.877.481-.877-.481zm-6.35 6.4l-.489-.872.489.872zm-4.45-9.1l-.819-.574-.002.004.821.57zm0-13.65l-.821.57.008.011.813-.581zm-10.6 0l-.821-.57-.003.004.824.566zm0 13.65l-.829.559.008.011.821-.57zm5.3 10.4c-3.594 0-6.653-.737-9.21-2.172l-.979 1.744c2.909 1.632 6.317 2.428 10.189 2.428v-2zm-9.21-2.172c-2.571-1.442-4.553-3.441-5.963-6.009l-1.753.962c1.59 2.898 3.842 5.167 6.737 6.791l.979-1.744zm-5.956-5.996c-1.38-2.603-2.084-5.62-2.084-9.082h-2c0 3.739.763 7.087 2.317 10.018l1.767-.936zm-2.084-9.082c0-3.497.705-6.512 2.082-9.077l-1.763-.946c-1.557 2.902-2.319 6.253-2.319 10.023h2zm2.077-9.069c1.409-2.566 3.388-4.546 5.954-5.954l-.962-1.754c-2.9 1.592-5.154 3.846-6.745 6.746l1.753.962zm5.963-5.959c2.557-1.435 5.616-2.172 9.21-2.172v-2c-3.872 0-7.28.796-10.189 2.428l.979 1.744zm9.21-2.172c3.63 0 6.705.738 9.261 2.172l.979-1.744c-2.911-1.633-6.336-2.428-10.24-2.428v2zm9.269 2.177c2.567 1.408 4.546 3.388 5.955 5.954l1.753-.962c-1.591-2.9-3.845-5.154-6.746-6.746l-.962 1.754zm5.955 5.954c1.406 2.563 2.126 5.576 2.126 9.069h2c0-3.774-.78-7.128-2.373-10.031l-1.753.962zm2.126 9.069c0 3.493-.72 6.506-2.126 9.069l1.753.962c1.593-2.903 2.373-6.257 2.373-10.031h-2zm-2.126 9.069c-1.41 2.568-3.392 4.567-5.963 6.009l.979 1.744c2.895-1.624 5.147-3.893 6.737-6.791l-1.753-.962zm-5.963 6.009c-2.556 1.434-5.631 2.172-9.261 2.172v2c3.904 0 7.329-.795 10.24-2.428l-.979-1.744zm-9.261-4.778c2.651 0 4.762-.919 6.122-2.88l-1.643-1.14c-.907 1.306-2.329 2.02-4.479 2.02v2zm6.12-2.877c1.324-1.892 1.93-4.402 1.93-7.423h-2c0 2.779-.56 4.836-1.569 6.276l1.639 1.147zm1.93-7.423c0-3.02-.605-5.518-1.936-7.381l-1.627 1.162c1.002 1.404 1.563 3.439 1.563 6.219h2zm-1.928-7.37c-1.36-1.96-3.471-2.88-6.122-2.88v2c2.15 0 3.572.714 4.479 2.02l1.643-1.14zm-6.122-2.88c-2.65 0-4.761.92-6.121 2.88l1.643 1.14c.906-1.306 2.329-2.02 4.478-2.02v-2zm-6.124 2.884c-1.259 1.831-1.826 4.327-1.826 7.366h2c0-2.828.534-4.865 1.474-6.233l-1.648-1.133zm-1.826 7.366c0 3.04.568 5.548 1.821 7.409l1.659-1.118c-.947-1.405-1.48-3.465-1.48-6.291h-2zm1.829 7.42c1.36 1.961 3.471 2.88 6.121 2.88v-2c-2.149 0-3.572-.714-4.478-2.02l-1.643 1.14zM166.805 118h-1v1h1v-1zm0-17.1v-1h-1v1h1zm3.7 0v1h.48l.3-.373-.78-.627zm4.1-27.15v-1h-1v1h1zm28.4 0h1v-1h-1v1zm0 27.15h-1v1h1v-1zm5.15 0h1v-1h-1v1zm0 17.1v1h1v-1h-1zm-9.2 0h-1v1h1v-1zm0-9h1v-1h-1v1zm-22.95 0v-1h-1v1h1zm0 9v1h1v-1h-1zm5.05-17.1l-.849-.527-.948 1.527h1.797v-1zm11.25 0v1h1v-1h-1zm0-19.05h1v-1h-1v1zm-7.9 0v-1h-1v1h1zm-16.6 36.15v-17.1h-2V118h2zm-1-16.1h3.7v-2h-3.7v2zm4.48-.373c2.959-3.68 4.32-9.88 4.32-18.327h-2c0 8.353-1.371 13.954-3.879 17.073l1.559 1.254zm4.32-18.327v-9.45h-2v9.45h2zm-1-8.45h28.4v-2h-28.4v2zm27.4-1v27.15h2V73.75h-2zm1 28.15h5.15v-2h-5.15v2zm4.15-1V118h2v-17.1h-2zm1 16.1h-9.2v2h9.2v-2zm-8.2 1v-9h-2v9h2zm-1-10h-22.95v2h22.95v-2zm-23.95 1v9h2v-9h-2zm1 8h-9.2v2h9.2v-2zm5.05-15.1h11.25v-2h-11.25v2zm12.25-1V81.85h-2v19.05h2zm-1-20.05h-7.9v2h7.9v-2zm-8.9 1v2.55h2v-2.55h-2zm0 2.55c0 7.335-1.113 12.61-3.199 15.973l1.699 1.054c2.381-3.837 3.5-9.562 3.5-17.027h-2zm28.77 24.6h-1v1h1v-1zm0-35.25v-1h-1v1h1zm26.15 0h1v-1h-1v1zm0 8.2v1h1v-1h-1zm-15.85 0v-1h-1v1h1zm0 5.05h-1v1h1v-1zm14.65 0h1v-1h-1v1zm0 8.2v1h1v-1h-1zm-14.65 0v-1h-1v1h1zm0 5.6h-1v1h1v-1zm15.85 0h1v-1h-1v1zm0 8.2v1h1v-1h-1zm-10.6-38h-1v1h1v-1zm0-8.45v-1h-1v1h1zm8.4 0h1v-1h-1v1zm0 8.45v1h1v-1h-1zm-19.2 0h-1v1h1v-1zm0-8.45v-1h-1v1h1zm8.4 0h1v-1h-1v1zm0 8.45v1h1v-1h-1zm-12.15 38V73.75h-2V109h2zm-1-34.25h26.15v-2h-26.15v2zm25.15-1v8.2h2v-8.2h-2zm1 7.2h-15.85v2h15.85v-2zm-16.85 1V87h2v-5.05h-2zm1 6.05h14.65v-2h-14.65v2zm13.65-1v8.2h2V87h-2zm1 7.2h-14.65v2h14.65v-2zm-15.65 1v5.6h2v-5.6h-2zm1 6.6h15.85v-2h-15.85v2zm14.85-1v8.2h2v-8.2h-2zm1 7.2h-26.15v2h26.15v-2zm-9.6-37v-8.45h-2V71h2zm-1-7.45h8.4v-2h-8.4v2zm7.4-1V71h2v-8.45h-2zm1 7.45h-8.4v2h8.4v-2zm-18.2 1v-8.45h-2V71h2zm-1-7.45h8.4v-2h-8.4v2zm7.4-1V71h2v-8.45h-2zm1 7.45h-8.4v2h8.4v-2zm13.92 39l-.894-.447-.724 1.447h1.618v-1zm6.55-13.1l-.894-.447.894.447zm2.4-3.75l-.754-.657-.006.007-.006.007.766.643zm3.05-2.55l.507.862.9-.529-.567-.876-.84.543zm-10.25-15.85v-1h-1.837l.998 1.543.839-.543zm11.65 0l.856-.517-.292-.483h-.564v1zm8.25 13.65l-.856.517.292.483h.564v-1zm1.75 0v1h1v-1h-1zm0-13.65v-1h-1v1h1zm10.25 0h1v-1h-1v1zm0 13.65h-1v1h1v-1zm1.8 0v1h.568l.291-.487-.859-.513zm8.15-13.65v-1h-.567l-.291.487.858.513zm11.65 0l.84.543.998-1.543h-1.838v1zm-10.25 15.85l-.839-.543-.574.887.917.524.496-.868zm3.05 2.6l-.776.63.011.014.011.013.754-.657zm2.45 3.7l.896-.445-.005-.01-.891.455zm6.5 13.1v1h1.613l-.717-1.444-.896.444zm-11.55 0l-.906.423.269.577h.637v-1zm-4.55-9.75l-.909.416.003.007.906-.423zm-2.05-2.5l-.514.858.514-.858zm-5.2-.75v-1h-1v1h1zm0 13v1h1v-1h-1zm-10.25 0h-1v1h1v-1zm0-13h1v-1h-1v1zm-5.15.75l-.514-.858.514.858zm-2.1 2.5l-.899-.437-.005.01.904.427zm-4.6 9.75v1h.634l.271-.573-.905-.427zm-10.655.447l6.55-13.1-1.789-.894-6.55 13.1 1.789.894zm6.55-13.1c.705-1.411 1.464-2.592 2.272-3.554l-1.533-1.286c-.926 1.105-1.767 2.424-2.528 3.946l1.789.894zm2.259-3.54a11.329 11.329 0 012.803-2.345l-1.014-1.724a13.308 13.308 0 00-3.297 2.755l1.508 1.314zm3.136-3.75l-10.25-15.85-1.679 1.086 10.25 15.85 1.679-1.086zm-11.09-14.307h11.65v-2h-11.65v2zm10.794-.483l8.25 13.65 1.712-1.034-8.25-13.65-1.712 1.034zm9.106 14.133h1.75v-2h-1.75v2zm2.75-1V73.75h-2V87.4h2zm-1-12.65h10.25v-2h-10.25v2zm9.25-1V87.4h2V73.75h-2zm1 14.65h1.8v-2h-1.8v2zm2.659-.487l8.15-13.65-1.717-1.026-8.15 13.65 1.717 1.026zm7.291-13.163h11.65v-2h-11.65v2zm10.811-1.543l-10.25 15.85 1.679 1.086 10.25-15.85-1.679-1.086zm-9.907 17.261a9.814 9.814 0 012.77 2.363l1.552-1.262a11.802 11.802 0 00-3.33-2.837l-.992 1.736zm2.792 2.389c.838.962 1.611 2.125 2.314 3.499l1.781-.911c-.765-1.494-1.625-2.798-2.587-3.902l-1.508 1.314zm2.309 3.487l6.5 13.1 1.791-.888-6.5-13.1-1.791.888zM296.245 108h-11.55v2h11.55v-2zm-10.643.577l-4.551-9.75-1.812.846 4.55 9.75 1.813-.846zm-4.547-9.743c-.591-1.292-1.391-2.309-2.445-2.942l-1.029 1.716c.612.367 1.179 1.017 1.655 2.058l1.819-.832zm-2.445-2.942c-1.049-.629-2.402-.892-3.965-.892v2c1.371 0 2.318.237 2.936.608l1.029-1.716zM274.645 95h-1.75v2h1.75v-2zm-2.75 1v13h2V96h-2zm1 12h-10.25v2h10.25v-2zm-9.25 1V96h-2v13h2zm-1-14h-1.75v2h1.75v-2zm-1.75 0c-1.534 0-2.869.265-3.914.892l1.029 1.716c.621-.373 1.553-.608 2.885-.608v-2zm-3.914.892c-1.047.629-1.861 1.637-2.485 2.921l1.799.874c.509-1.05 1.095-1.708 1.715-2.08l-1.029-1.715zm-2.49 2.931l-4.6 9.75 1.809.854 4.6-9.75-1.809-.854zM250.795 108h-11.55v2h11.55v-2zm47.904 1h-1v1h1v-1zm0-35.25v-1h-1v1h1zm10.7 0h1v-1h-1v1zm0 13.2h-1v1h1v-1zm17.5 2.9l-.644.766.007.005.637-.771zm0 16.3l.637.771.006-.006-.643-.765zm-17.5-5.1h-1v1h1v-1zm9.85-.75l.619.785.006-.004-.625-.781zm0-4.65l-.62.785.01.008.01.007.6-.8zm-9.85-.75v-1h-1v1h1zm-9.7 14.1V73.75h-2V109h2zm-1-34.25h10.7v-2h-10.7v2zm9.7-1v13.2h2v-13.2h-2zm1 14.2h8.1v-2h-8.1v2zm8.1 0c3.807 0 6.687.926 8.756 2.665l1.287-1.53c-2.531-2.128-5.917-3.135-10.043-3.135v2zm8.763 2.671c2.029 1.676 3.087 4.07 3.087 7.329h2c0-3.74-1.242-6.747-3.813-8.871l-1.274 1.542zm3.087 7.329c0 3.296-1.06 5.725-3.094 7.435l1.287 1.53c2.567-2.157 3.807-5.194 3.807-8.965h-2zm-3.087 7.429c-2.069 1.709-4.952 2.621-8.763 2.621v2c4.122 0 7.506-.988 10.037-3.079l-1.274-1.542zM317.499 108h-18.8v2h18.8v-2zm-8.1-5.95h6.6v-2h-6.6v2zm6.6 0c1.583 0 2.959-.247 3.869-.965l-1.239-1.57c-.356.282-1.147.535-2.63.535v2zm3.875-.969c.954-.763 1.375-1.865 1.375-3.131h-2c0 .8-.246 1.266-.625 1.57l1.25 1.561zm1.375-3.131c0-1.264-.421-2.366-1.4-3.1l-1.2 1.6c.354.266.6.697.6 1.5h2zm-1.381-3.085c-.91-.718-2.286-.965-3.869-.965v2c1.483 0 2.274.253 2.63.535l1.239-1.57zm-3.869-.965h-6.6v2h6.6v-2zm-7.6 1v6.15h2V94.9h-2zm48.988 12.45l-.472.882.013.006.459-.888zm-6.7-6.4l-.868.497.005.008.863-.505zm0-19.15l-.863-.505-.002.003.865.502zm6.7-6.35l.464.886.004-.002-.468-.884zm16.85-1.35l-.302.953.01.003.009.003.283-.959zm5.05 2.6l.937.35.245-.658-.534-.454-.648.762zm-3.15 8.45l-.555.832 1.051.7.441-1.183-.937-.349zm-4.05-2.05l-.316.949.012.004.012.003.292-.956zm-10.3 1.7l-.723-.691.723.691zm0 13.2l-.73.683.007.008.008.008.715-.699zm10.3 1.7l.292.956.012-.003.012-.004-.316-.949zm4.05-2.1l.937-.35-.441-1.183-1.051.7.555.833zm3.15 8.45l.648.762.534-.454-.245-.657-.937.349zm-5.05 2.65l.287.958.01-.003-.297-.955zm-6.6-.1c-3.806 0-7.059-.725-9.79-2.138l-.919 1.776c3.068 1.587 6.648 2.362 10.709 2.362v-2zm-9.778-2.132c-2.709-1.449-4.805-3.453-6.309-6.023l-1.726 1.01c1.696 2.897 4.067 5.159 7.091 6.777l.944-1.764zm-6.304-6.015c-1.467-2.559-2.218-5.582-2.218-9.103h-2c0 3.812.816 7.19 2.483 10.097l1.735-.994zm-2.218-9.103c0-3.521.751-6.525 2.215-9.048l-1.73-1.004c-1.669 2.877-2.485 6.24-2.485 10.052h2zm2.213-9.045c1.503-2.568 3.597-4.554 6.301-5.969l-.928-1.772c-3.029 1.585-5.402 3.832-7.099 6.73l1.726 1.011zm6.305-5.971c2.729-1.443 5.979-2.184 9.782-2.184v-2c-4.064 0-7.647.793-10.717 2.416l.935 1.768zm9.782-2.184c2.312 0 4.409.305 6.298.903l.604-1.906c-2.111-.669-4.414-.997-6.902-.997v2zm6.317.91c1.927.568 3.479 1.376 4.685 2.402l1.296-1.524c-1.46-1.24-3.275-2.166-5.415-2.797l-.566 1.918zm4.396 1.29l-3.15 8.45 1.874.7 3.15-8.45-1.874-.7zm-1.658 7.968c-1.549-1.033-2.989-1.77-4.313-2.174l-.584 1.912c1.076.33 2.336.959 3.787 1.926l1.11-1.664zm-4.289-2.167c-1.319-.44-2.778-.651-4.366-.651v2c1.412 0 2.653.188 3.734.549l.632-1.898zm-4.366-.651c-2.894 0-5.269.828-6.973 2.609l1.446 1.382c1.23-1.285 3.021-1.991 5.527-1.991v-2zm-6.973 2.61c-1.67 1.746-2.427 4.216-2.427 7.24h2c0-2.709.676-4.606 1.873-5.86l-1.446-1.38zm-2.427 7.24c0 3.056.756 5.553 2.42 7.333l1.461-1.366c-1.204-1.287-1.881-3.223-1.881-5.967h-2zm2.435 7.35c1.705 1.743 4.077 2.55 6.965 2.55v-2c-2.512 0-4.306-.693-5.535-1.95l-1.43 1.4zm6.965 2.55c1.58 0 3.031-.193 4.342-.594l-.584-1.912c-1.089.332-2.338.506-3.758.506v2zm4.366-.601c1.312-.438 2.743-1.187 4.289-2.217l-1.11-1.664c-1.454.97-2.723 1.62-3.811 1.983l.632 1.898zm2.797-2.7l3.15 8.45 1.874-.698-3.15-8.45-1.874.698zm3.439 7.339c-1.211 1.029-2.767 1.855-4.699 2.457l.594 1.91c2.135-.665 3.945-1.606 5.401-2.843l-1.296-1.524zm-4.689 2.454c-1.894.568-3.996.858-6.313.858v2c2.483 0 4.782-.31 6.887-.942l-.574-1.916zM390.827 109h-1v1h1v-1zm0-26.55h1v-1h-1v1zm-10.2 0h-1v1h1v-1zm0-8.7v-1h-1v1h1zm31.2 0h1v-1h-1v1zm0 8.7v1h1v-1h-1zm-10.2 0v-1h-1v1h1zm0 26.55v1h1v-1h-1zm-9.8 0V82.45h-2V109h2zm-1-27.55h-10.2v2h10.2v-2zm-9.2 1v-8.7h-2v8.7h2zm-1-7.7h31.2v-2h-31.2v2zm30.2-1v8.7h2v-8.7h-2zm1 7.7h-10.2v2h10.2v-2zm-11.2 1V109h2V82.45h-2zm1 25.55h-10.8v2h10.8v-2zm13.722 1h-1v1h1v-1zm0-35.25v-1h-1v1h1zm27.6 3.1l-.701.713.006.005.695-.718zm0 16.5l-.701-.713.701.713zm-16.8 3.1v-1h-1v1h1zm0 12.55v1h1v-1h-1zm0-20.75h-1v1h1v-1zm0-6.3v-1h-1v1h1zm-9.8 27.05V73.75h-2V109h2zm-1-34.25h18.2v-2h-18.2v2zm18.2 0c4.014 0 6.852.995 8.699 2.813l1.403-1.426c-2.353-2.315-5.782-3.387-10.102-3.387v2zm8.705 2.818c1.869 1.81 2.845 4.282 2.845 7.532h2c0-3.683-1.124-6.712-3.454-8.968l-1.391 1.436zm2.845 7.532c0 3.213-.974 5.69-2.851 7.537l1.403 1.426c2.322-2.286 3.448-5.31 3.448-8.963h-2zm-2.851 7.537c-1.847 1.818-4.685 2.813-8.699 2.813v2c4.32 0 7.749-1.072 10.102-3.387l-1.403-1.426zm-8.699 2.813h-7.4v2h7.4v-2zm-8.4 1V109h2V96.45h-2zm1 11.55h-10.8v2h10.8v-2zm0-18.75h5.95v-2h-5.95v2zm5.95 0c1.352 0 2.552-.284 3.423-1.026.903-.768 1.277-1.874 1.277-3.124h-2c0 .85-.242 1.32-.573 1.601-.362.308-1.012.549-2.127.549v2zm4.7-4.15c0-1.25-.374-2.356-1.277-3.124-.871-.742-2.071-1.026-3.423-1.026v2c1.115 0 1.765.24 2.127.549.331.282.573.751.573 1.601h2zm-4.7-4.15h-5.95v2h5.95v-2zm-6.95 1v6.3h2v-6.3h-2zM441.706 109l-.903-.429-.679 1.429h1.582v-1zm16.75-35.25v-1h-.632l-.271.57.903.43zm8.75 0l.902-.431-.271-.569h-.631v1zm16.85 35.25v1h1.587l-.685-1.431-.902.431zm-10.8 0l-.914.405.263.595h.651v-1zm-2.9-6.55l.915-.405-.264-.595h-.651v1zm-15 0v-1h-.651l-.263.595.914.405zm-2.9 6.55v1h.651l.264-.595-.915-.405zm10.35-24.25v-1h-.665l-.257.614.922.386zm-4 9.55l-.922-.386-.581 1.386h1.503v-1zm8.25 0v1h1.503l-.58-1.386-.923.386zm-4-9.55l.923-.386-.257-.614h-.666v1zm-20.447 24.679l16.75-35.25-1.806-.858-16.75 35.25 1.806.858zm15.847-34.679h8.75v-2h-8.75v2zm7.848-.569l16.85 35.25 1.804-.862-16.85-35.25-1.804.862zM484.056 108h-10.8v2h10.8v-2zm-9.885.595l-2.9-6.55-1.829.81 2.9 6.55 1.829-.81zm-3.815-7.145h-15v2h15v-2zm-15.914.595l-2.9 6.55 1.829.81 2.9-6.55-1.829-.81zM452.456 108h-10.75v2h10.75v-2zm9.428-23.636l-4 9.55 1.845.772 4-9.55-1.845-.772zM458.806 95.3h8.25v-2h-8.25v2zm9.173-1.386l-4-9.55-1.845.772 4 9.55 1.845-.772zm-4.923-10.164h-.25v2h.25v-2zM485.271 109h-1v1h1v-1zm0-35.25v-1h-1v1h1zm10.8 0h1v-1h-1v1zm0 13h-1v1h1v-1zm12.05 0v1h1v-1h-1zm0-13v-1h-1v1h1zm10.8 0h1v-1h-1v1zm0 35.25v1h1v-1h-1zm-10.8 0h-1v1h1v-1zm0-13.45h1v-1h-1v1zm-12.05 0v-1h-1v1h1zm0 13.45v1h1v-1h-1zm-9.8 0V73.75h-2V109h2zm-1-34.25h10.8v-2h-10.8v2zm9.8-1v13h2v-13h-2zm1 14h12.05v-2h-12.05v2zm13.05-1v-13h-2v13h2zm-1-12h10.8v-2h-10.8v2zm9.8-1V109h2V73.75h-2zm1 34.25h-10.8v2h10.8v-2zm-9.8 1V95.55h-2V109h2zm-1-14.45h-12.05v2h12.05v-2zm-13.05 1V109h2V95.55h-2zm1 12.45h-10.8v2h10.8v-2zm28.653 1h-1v1h1v-1zm0-35.25v-1h-1v1h1zm10.7 0h1v-1h-1v1zm0 13.2h-1v1h1v-1zm15.95 2.9l-.643.766.006.005.637-.771zm0 16.3l.637.771.007-.006-.644-.765zm7.15 2.85h-1v1h1v-1zm0-35.25v-1h-1v1h1zm10.7 0h1v-1h-1v1zm0 35.25v1h1v-1h-1zm-33.8-7.95h-1v1h1v-1zm8.3-.75l.62.785.005-.004-.625-.781zm0-4.65l-.644.765.022.018.022.017.6-.8zm-8.3-.8v-1h-1v1h1zm-9.7 14.15V73.75h-2V109h2zm-1-34.25h10.7v-2h-10.7v2zm9.7-1v13.2h2v-13.2h-2zm1 14.2h6.55v-2h-6.55v2zm6.55 0c3.808 0 6.688.926 8.757 2.665l1.287-1.53c-2.531-2.128-5.918-3.135-10.044-3.135v2zm8.763 2.671c2.029 1.676 3.087 4.07 3.087 7.329h2c0-3.74-1.242-6.747-3.813-8.871l-1.274 1.542zm3.087 7.329c0 3.296-1.06 5.725-3.093 7.435l1.287 1.53c2.566-2.157 3.806-5.194 3.806-8.965h-2zm-3.087 7.429c-2.069 1.709-4.951 2.621-8.763 2.621v2c4.122 0 7.506-.988 10.037-3.079l-1.274-1.542zM541.974 108h-17.25v2h17.25v-2zm17.55 1V73.75h-2V109h2zm-1-34.25h10.7v-2h-10.7v2zm9.7-1V109h2V73.75h-2zm1 34.25h-10.7v2h10.7v-2zm-33.8-5.95h5.05v-2h-5.05v2zm5.05 0c1.584 0 2.96-.247 3.87-.965l-1.239-1.57c-.357.282-1.148.535-2.631.535v2zm3.875-.969c.954-.763 1.375-1.865 1.375-3.131h-2c0 .8-.245 1.266-.624 1.57l1.249 1.561zm1.375-3.131c0-1.264-.421-2.366-1.4-3.1l-1.2 1.6c.355.266.6.697.6 1.5h2zm-1.356-3.065c-.913-.77-2.301-1.035-3.894-1.035v2c1.475 0 2.253.268 2.606.565l1.288-1.53zm-3.894-1.035h-5.05v2h5.05v-2zm-6.05 1v6.2h2v-6.2h-2z" fill="#fff" mask="url(#a)"/><path d="M7.32 176l3.955-7.63-10.57-17.045h7.91l6.23 10.36 5.32-10.36H27.9L15.09 176H7.32zm21.559 0v-24.675h7.56v9.1h8.435v-9.1h7.56V176h-7.56v-9.415h-8.435V176h-7.56zm27.617 0v-24.675h7v12.81l10.43-12.81h5.495V176h-7v-12.81L61.99 176h-5.495zm27.002 0v-24.675h7.49v9.555h2.03l5.74-9.555h8.155l-7.175 11.095a7.872 7.872 0 012.135 1.785c.63.723 1.201 1.598 1.715 2.625l4.55 9.17h-8.12l-3.15-6.825c-.374-.817-.864-1.4-1.47-1.75-.584-.35-1.389-.525-2.415-.525h-1.995v9.1h-7.49zm22.791 0l11.725-24.675h6.125L135.934 176h-7.56l-2.03-4.585h-10.5l-2.03 4.585h-7.525zm14.77-16.975l-2.8 6.685h5.775l-2.8-6.685h-.175zm17.755 17.675l-3.78-5.25c1.33-.793 2.392-1.727 3.185-2.8.817-1.073 1.4-2.392 1.75-3.955.35-1.563.525-3.442.525-5.635v-7.735h19.915V176h-7.49v-18.655h-5.53v3.57c0 3.943-.77 7.245-2.31 9.905-1.517 2.66-3.605 4.62-6.265 5.88zm25.655-.7v-24.675h7.49v9.24h5.67c2.777 0 4.97.677 6.58 2.03 1.61 1.33 2.415 3.22 2.415 5.67 0 2.473-.805 4.387-2.415 5.74-1.61 1.33-3.803 1.995-6.58 1.995h-13.16zm7.49-5.565h4.62c1.074 0 1.832-.175 2.275-.525.467-.373.7-.922.7-1.645s-.233-1.26-.7-1.61c-.443-.35-1.201-.525-2.275-.525h-4.62v4.305zM189.386 176v-24.675h7.56v9.1h8.435v-9.1h7.56V176h-7.56v-9.415h-8.435V176h-7.56zm27.618 0v-24.675h7.49v9.24h4.585c2.776 0 4.97.677 6.58 2.03 1.61 1.33 2.415 3.22 2.415 5.67 0 2.473-.805 4.387-2.415 5.74-1.61 1.33-3.804 1.995-6.58 1.995h-12.075zm23.66 0v-24.675h7.49V176h-7.49zm-16.17-5.565h3.535c1.073 0 1.831-.175 2.275-.525.466-.373.7-.922.7-1.645s-.234-1.26-.7-1.61c-.444-.373-1.202-.56-2.275-.56h-3.535v4.34zM252.209 176v-24.675h18.305v5.74h-11.095v3.535h10.255v5.74h-10.255v3.92h11.095V176h-18.305zm31.718 0v-24.675h7.49v9.555h2.03l5.74-9.555h8.155l-7.175 11.095a7.844 7.844 0 012.135 1.785c.63.723 1.202 1.598 1.715 2.625l4.55 9.17h-8.12l-3.15-6.825c-.373-.817-.863-1.4-1.47-1.75-.583-.35-1.388-.525-2.415-.525h-1.995v9.1h-7.49zm37.644.42c-2.613 0-4.876-.537-6.79-1.61a11.25 11.25 0 01-4.445-4.48c-1.026-1.937-1.54-4.165-1.54-6.685 0-2.543.514-4.772 1.54-6.685a11.021 11.021 0 014.445-4.445c1.914-1.073 4.177-1.61 6.79-1.61 2.637 0 4.912.537 6.825 1.61a11.015 11.015 0 014.445 4.445c1.05 1.913 1.575 4.142 1.575 6.685 0 2.543-.525 4.772-1.575 6.685a11.244 11.244 0 01-4.445 4.48c-1.913 1.073-4.188 1.61-6.825 1.61zm0-6.265c1.68 0 2.917-.572 3.71-1.715.817-1.167 1.225-2.765 1.225-4.795s-.408-3.617-1.225-4.76c-.793-1.143-2.03-1.715-3.71-1.715-1.68 0-2.916.572-3.71 1.715-.77 1.12-1.155 2.707-1.155 4.76s.385 3.652 1.155 4.795c.794 1.143 2.03 1.715 3.71 1.715zM338.002 176v-24.675h6.58l6.895 15.435 6.895-15.435h6.58V176h-6.825v-9.765l-4.62 9.765h-4.165l-4.515-9.555V176h-6.825zm31.101 0v-24.675h23.415V176h-7.49v-18.655h-8.435V176h-7.49zm27.481 0v-24.675h18.305v5.74h-11.095v3.535h10.255v5.74h-10.255v3.92h11.095V176h-18.305zm27.165 0v-18.585h-7.14v-6.09h21.84v6.09h-7.14V176h-7.56zm17.166 0v-24.675h18.305v5.74h-11.095v3.535h10.255v5.74h-10.255v3.92h11.095V176h-18.305zm21.294 0v-24.675h7.56v9.1h8.435v-9.1h7.56V176h-7.56v-9.415h-8.435V176h-7.56zm48.162 6.3V176h-20.545v-24.675h7.49v18.655h8.435v-18.655h7.49v18.655h3.605v12.32h-6.475zm9.26-6.3v-24.675h7v12.81l10.43-12.81h5.495V176h-7v-12.81L525.126 176h-5.495zm27.002 0v-24.675h7v12.81l10.43-12.81h5.495V176h-7v-12.81L552.128 176h-5.495z" fill="#fff"/><mask id="b" maskUnits="userSpaceOnUse" x="2" y="200" width="568" height="27" fill="#000"><path fill="#fff" d="M2 200h568v27H2z"/><path d="M3.247 222v-15.158h14.384V222H13.03v-11.46H7.848V222H3.247zm16.88 0v-15.158h7.827c1.791 0 3.139.445 4.042 1.333.903.875 1.354 2.057 1.354 3.548 0 1.476-.451 2.659-1.354 3.547-.903.889-2.25 1.333-4.042 1.333h-3.182V222h-4.644zm4.645-8.923h2.558c1.061 0 1.591-.451 1.591-1.354s-.53-1.355-1.59-1.355h-2.56v2.709zM35.056 222v-15.158h11.245v3.526h-6.816v2.172h6.3v3.526h-6.3v2.408h6.816V222H35.056zm12.027 3.87v-7.353h1.591c1.175-1.462 1.763-3.999 1.763-7.611v-4.064H62.65v11.675h2.215v7.353h-3.956V222H51.04v3.87h-3.956zm6.128-7.353h4.837v-8.192h-3.397v1.097c0 3.182-.48 5.547-1.44 7.095zm21.315 3.741c-1.692 0-3.16-.322-4.408-.967-1.233-.66-2.193-1.577-2.88-2.753-.674-1.175-1.011-2.551-1.011-4.128 0-1.576.337-2.945 1.01-4.106a7.06 7.06 0 012.881-2.731c1.247-.659 2.716-.989 4.408-.989 1.032 0 1.978.137 2.838.409.874.258 1.598.631 2.171 1.118l-1.354 3.633c-.645-.43-1.226-.723-1.742-.881a5.49 5.49 0 00-1.741-.258c-1.161 0-2.057.33-2.688.989-.616.645-.924 1.584-.924 2.816 0 1.247.308 2.201.924 2.86.63.645 1.527.967 2.688.967a5.94 5.94 0 001.741-.236c.516-.172 1.097-.473 1.742-.903l1.354 3.633c-.573.488-1.297.868-2.171 1.14-.86.258-1.806.387-2.838.387zm9.972-.258v-11.417h-4.386v-3.741h13.416v3.741H89.14V222h-4.644zm6.634 0l7.203-15.158h3.762L109.343 222h-4.644l-1.247-2.817h-6.45L95.755 222h-4.623zm9.073-10.428l-1.72 4.107h3.548l-1.72-4.107h-.108zm9.66 10.428v-15.158h7.762c1.705 0 3.017.359 3.934 1.075.932.703 1.398 1.649 1.398 2.838 0 .774-.201 1.455-.602 2.043-.387.573-.932 1.003-1.634 1.29.874.272 1.54.717 1.999 1.333.459.602.688 1.347.688 2.236 0 1.319-.502 2.372-1.505 3.16-1.003.789-2.358 1.183-4.063 1.183h-7.977zm4.429-9.374h2.451c.631 0 1.082-.093 1.355-.28.286-.2.43-.516.43-.946 0-.43-.144-.738-.43-.924-.273-.186-.724-.28-1.355-.28h-2.451v2.43zm0 6.02h2.924c1.204 0 1.806-.444 1.806-1.333s-.602-1.333-1.806-1.333h-2.924v2.666zM125.087 222v-15.158h4.3v7.869l6.407-7.869h3.376V222h-4.3v-7.869L128.463 222h-3.376zm19.984 0v-11.417h-4.386v-3.741h13.416v3.741h-4.386V222h-4.644zm10.545 0v-15.158h11.244v3.526h-6.815v2.172h6.299v3.526h-6.299v2.408h6.815V222h-11.244zm14.327.43l-2.322-3.225c.817-.487 1.469-1.061 1.957-1.72.501-.659.86-1.469 1.075-2.43.215-.96.322-2.114.322-3.461v-4.752h12.234V222h-4.601v-11.46h-3.397v2.193c0 2.423-.473 4.451-1.419 6.085-.932 1.634-2.215 2.838-3.849 3.612zm15.76-.43v-15.158h11.245v3.526h-6.816v2.172h6.3v3.526h-6.3v2.408h6.816V222h-11.245zm13.081 0v-15.158h4.3v7.869l6.407-7.869h3.375V222h-4.3v-7.869L202.159 222h-3.375zm7.009-16.34c-1.018 0-1.864-.151-2.537-.452-.674-.315-1.19-.723-1.548-1.225a4 4 0 01-.645-1.656l2.042-.645c.244.645.573 1.104.989 1.376.43.273 1.011.409 1.742.409.745 0 1.325-.158 1.741-.473.43-.315.724-.745.882-1.29l1.978.623c-.172.961-.66 1.756-1.462 2.387-.789.631-1.849.946-3.182.946zM221.774 222v-15.158h4.601v5.87h1.247l3.526-5.87h5.01l-4.408 6.816c.502.287.939.652 1.312 1.096.387.445.738.982 1.053 1.613L236.91 222h-4.988l-1.935-4.193c-.229-.501-.53-.86-.903-1.075-.358-.215-.852-.322-1.483-.322h-1.226V222h-4.601zm16.188 0v-15.158h7.826c1.792 0 3.139.445 4.042 1.333.903.875 1.355 2.057 1.355 3.548 0 1.476-.452 2.659-1.355 3.547-.903.889-2.25 1.333-4.042 1.333h-3.182V222h-4.644zm4.644-8.923h2.559c1.06 0 1.591-.451 1.591-1.354s-.531-1.355-1.591-1.355h-2.559v2.709zM254.912 222l2.429-4.687-6.493-10.471h4.859l3.827 6.364 3.268-6.364h4.752L259.685 222h-4.773zm13.243 0v-15.158h14.383V222h-4.601v-11.46h-5.181V222h-4.601zm16.881 0v-15.158h4.644v5.59h5.181v-5.59h4.644V222h-4.644v-5.784h-5.181V222h-4.644zM302 222v-15.158h11.245v3.526h-6.816v2.172h6.3v3.526h-6.3v2.408h6.816V222H302zm13.081 0v-15.158h4.3v7.869l6.407-7.869h3.375V222h-4.3v-7.869L318.456 222h-3.375zm7.009-16.34c-1.018 0-1.863-.151-2.537-.452-.674-.315-1.19-.723-1.548-1.225a4 4 0 01-.645-1.656l2.042-.645c.244.645.574 1.104.989 1.376.43.273 1.011.409 1.742.409.745 0 1.326-.158 1.741-.473.43-.315.724-.745.882-1.29l1.978.623c-.172.961-.659 1.756-1.462 2.387-.788.631-1.849.946-3.182.946zm9.578 16.34v-15.158h4.536v11.46h4.085v-11.46h4.515v11.46h4.085v-11.46h4.515V222h-21.736zm24.229 0v-15.158h4.3v7.869l6.407-7.869h3.376V222h-4.3v-7.869L359.273 222h-3.376zm14.48 0l5.784-7.633-5.698-7.525h5.418l2.903 4.171 2.945-4.171h5.418l-5.697 7.525 5.805 7.633h-5.44l-3.01-4.257-3.031 4.257h-5.397zm23.67 0v-15.158h7.762c1.705 0 3.017.359 3.934 1.075.932.703 1.398 1.649 1.398 2.838 0 .774-.201 1.455-.602 2.043-.387.573-.932 1.003-1.634 1.29.874.272 1.541.717 1.999 1.333.459.602.688 1.347.688 2.236 0 1.319-.501 2.372-1.505 3.16-1.003.789-2.358 1.183-4.063 1.183h-7.977zm4.429-9.374h2.451c.631 0 1.082-.093 1.355-.28.286-.2.43-.516.43-.946 0-.43-.144-.738-.43-.924-.273-.186-.724-.28-1.355-.28h-2.451v2.43zm0 6.02h2.924c1.204 0 1.806-.444 1.806-1.333s-.602-1.333-1.806-1.333h-2.924v2.666zM410.64 222l2.429-4.687-6.493-10.471h4.859l3.827 6.364 3.268-6.364h4.752L415.413 222h-4.773zm18.36.258c-1.276 0-2.415-.136-3.419-.409a11.044 11.044 0 01-2.687-1.161l1.29-3.311c.544.359 1.197.645 1.956.86a9.805 9.805 0 002.473.301c.888 0 1.541-.107 1.956-.322.43-.229.645-.588.645-1.075a.902.902 0 00-.451-.817c-.287-.186-.753-.28-1.398-.28h-3.762v-3.483h3.332c.645 0 1.111-.078 1.398-.236.286-.172.43-.452.43-.839 0-.329-.165-.609-.495-.838-.315-.229-.853-.344-1.612-.344-.76 0-1.512.107-2.258.322-.745.201-1.383.481-1.913.839l-1.29-3.311c.688-.473 1.548-.853 2.58-1.14 1.046-.286 2.186-.43 3.418-.43 2.021 0 3.526.395 4.515 1.183 1.004.788 1.505 1.784 1.505 2.988 0 .789-.2 1.47-.602 2.043-.387.573-.931 1.01-1.634 1.311.86.273 1.52.71 1.978 1.312.459.602.688 1.354.688 2.257 0 .889-.243 1.677-.731 2.365-.487.688-1.225 1.233-2.214 1.634-.975.387-2.208.581-3.698.581zm15.802 0c-1.605 0-2.995-.33-4.171-.989a6.91 6.91 0 01-2.73-2.752c-.631-1.19-.946-2.559-.946-4.107 0-1.562.315-2.931.946-4.106a6.772 6.772 0 012.73-2.731c1.176-.659 2.566-.989 4.171-.989 1.62 0 3.017.33 4.193.989a6.772 6.772 0 012.73 2.731c.645 1.175.968 2.544.968 4.106 0 1.563-.323 2.932-.968 4.107a6.91 6.91 0 01-2.73 2.752c-1.176.659-2.573.989-4.193.989zm0-3.849c1.032 0 1.792-.351 2.279-1.053.502-.717.753-1.699.753-2.946s-.251-2.221-.753-2.924c-.487-.702-1.247-1.053-2.279-1.053-1.032 0-1.791.351-2.279 1.053-.473.688-.709 1.663-.709 2.924 0 1.262.236 2.244.709 2.946.488.702 1.247 1.053 2.279 1.053zM454.831 222v-15.158h7.761c1.706 0 3.018.359 3.935 1.075.932.703 1.397 1.649 1.397 2.838 0 .774-.2 1.455-.602 2.043-.387.573-.931 1.003-1.634 1.29.875.272 1.541.717 2 1.333.459.602.688 1.347.688 2.236 0 1.319-.502 2.372-1.505 3.16-1.003.789-2.358 1.183-4.064 1.183h-7.976zm4.429-9.374h2.451c.631 0 1.082-.093 1.354-.28.287-.2.43-.516.43-.946 0-.43-.143-.738-.43-.924-.272-.186-.723-.28-1.354-.28h-2.451v2.43zm0 6.02h2.924c1.204 0 1.806-.444 1.806-1.333s-.602-1.333-1.806-1.333h-2.924v2.666zM476.457 222v-15.158h7.826c1.792 0 3.139.445 4.042 1.333.903.875 1.354 2.057 1.354 3.548 0 1.476-.451 2.659-1.354 3.547-.903.889-2.25 1.333-4.042 1.333h-3.182V222h-4.644zm4.644-8.923h2.558c1.061 0 1.591-.451 1.591-1.354s-.53-1.355-1.591-1.355h-2.558v2.709zm17.556 9.181c-1.605 0-2.995-.33-4.171-.989a6.91 6.91 0 01-2.73-2.752c-.631-1.19-.946-2.559-.946-4.107 0-1.562.315-2.931.946-4.106a6.772 6.772 0 012.73-2.731c1.176-.659 2.566-.989 4.171-.989 1.62 0 3.017.33 4.193.989a6.772 6.772 0 012.73 2.731c.645 1.175.968 2.544.968 4.106 0 1.563-.323 2.932-.968 4.107a6.91 6.91 0 01-2.73 2.752c-1.176.659-2.573.989-4.193.989zm0-3.849c1.032 0 1.792-.351 2.279-1.053.502-.717.753-1.699.753-2.946s-.251-2.221-.753-2.924c-.487-.702-1.247-1.053-2.279-1.053-1.032 0-1.791.351-2.279 1.053-.473.688-.709 1.663-.709 2.924 0 1.262.236 2.244.709 2.946.488.702 1.247 1.053 2.279 1.053zm17.962 3.849c-1.691 0-3.16-.322-4.407-.967-1.233-.66-2.193-1.577-2.881-2.753-.674-1.175-1.011-2.551-1.011-4.128 0-1.576.337-2.945 1.011-4.106a7.058 7.058 0 012.881-2.731c1.247-.659 2.716-.989 4.407-.989 1.032 0 1.978.137 2.838.409.875.258 1.599.631 2.172 1.118l-1.355 3.633c-.645-.43-1.225-.723-1.741-.881a5.493 5.493 0 00-1.742-.258c-1.161 0-2.056.33-2.687.989-.616.645-.925 1.584-.925 2.816 0 1.247.309 2.201.925 2.86.631.645 1.526.967 2.687.967.645 0 1.226-.078 1.742-.236.516-.172 1.096-.473 1.741-.903l1.355 3.633c-.573.488-1.297.868-2.172 1.14-.86.258-1.806.387-2.838.387zm14.404 0c-1.692 0-3.161-.322-4.408-.967-1.232-.66-2.193-1.577-2.881-2.753-.673-1.175-1.01-2.551-1.01-4.128 0-1.576.337-2.945 1.01-4.106a7.064 7.064 0 012.881-2.731c1.247-.659 2.716-.989 4.408-.989 1.032 0 1.978.137 2.838.409.874.258 1.598.631 2.171 1.118l-1.354 3.633c-.645-.43-1.226-.723-1.742-.881a5.487 5.487 0 00-1.741-.258c-1.161 0-2.057.33-2.688.989-.616.645-.924 1.584-.924 2.816 0 1.247.308 2.201.924 2.86.631.645 1.527.967 2.688.967.645 0 1.225-.078 1.741-.236.516-.172 1.097-.473 1.742-.903l1.354 3.633c-.573.488-1.297.868-2.171 1.14-.86.258-1.806.387-2.838.387zm6.785-.258v-15.158h4.3v7.869l6.407-7.869h3.375V222h-4.3v-7.869L541.183 222h-3.375zm16.586 0v-15.158h4.3v7.869l6.407-7.869h3.376V222h-4.3v-7.869L557.77 222h-3.376z"/></mask><path d="M3.247 222h-1v1h1v-1zm0-15.158v-1h-1v1h1zm14.384 0h1v-1h-1v1zm0 15.158v1h1v-1h-1zm-4.601 0h-1v1h1v-1zm0-11.46h1v-1h-1v1zm-5.182 0v-1h-1v1h1zm0 11.46v1h1v-1h-1zm-3.601 0v-15.158h-2V222h2zm-1-14.158h14.384v-2H3.247v2zm13.384-1V222h2v-15.158h-2zm1 14.158H13.03v2h4.6v-2zm-3.601 1v-11.46h-2V222h2zm-1-12.46H7.848v2h5.182v-2zm-6.182 1V222h2v-11.46h-2zm1 10.46H3.247v2h4.601v-2zm12.28 1h-1v1h1v-1zm0-15.158v-1h-1v1h1zm11.868 1.333l-.702.713.006.006.696-.719zm0 7.095l-.702-.712.702.712zm-7.224 1.334v-1.001h-1v1.001h1zm0 5.396v1h1v-1h-1zm0-8.923h-1v1h1v-1zm0-2.709v-1h-1v1h1zM21.128 222v-15.158h-2V222h2zm-1-14.158h7.826v-2h-7.826v2zm7.826 0c1.639 0 2.69.406 3.34 1.046l1.403-1.425c-1.156-1.138-2.799-1.621-4.743-1.621v2zm3.346 1.052c.673.651 1.05 1.555 1.05 2.829h2c0-1.707-.525-3.168-1.659-4.266l-1.39 1.437zm1.05 2.829c0 1.256-.375 2.165-1.056 2.835l1.403 1.425c1.126-1.108 1.653-2.564 1.653-4.26h-2zm-1.056 2.835c-.65.64-1.701 1.045-3.34 1.045v2.001c1.944 0 3.587-.483 4.743-1.621l-1.403-1.425zm-3.34 1.045h-3.182v2.001h3.182v-2.001zm-4.182 1.001V222h2v-5.396h-2zm1 4.396h-4.644v2h4.644v-2zm0-6.923h2.558v-2h-2.558v2zm2.558 0c.649 0 1.322-.134 1.842-.577.55-.468.75-1.125.75-1.777h-2a.65.65 0 01-.031.228c-.01.023-.014.025-.016.026-.01.009-.133.1-.545.1v2zm2.591-2.354c0-.652-.198-1.309-.75-1.777-.519-.443-1.192-.578-1.84-.578v2c.411 0 .534.092.544.101.002.001.007.003.016.026a.65.65 0 01.03.228h2zm-2.59-2.355h-2.56v2h2.56v-2zm-3.56 1v2.709h2v-2.709h-2zM35.057 222h-1v1h1v-1zm0-15.158v-1h-1v1h1zm11.245 0h1v-1h-1v1zm0 3.526v1h1v-1h-1zm-6.816 0v-1h-1v1h1zm0 2.172h-1v1h1v-1zm6.3 0h1v-1h-1v1zm0 3.526v1h1v-1h-1zm-6.3 0v-1h-1v1h1zm0 2.408h-1v1h1v-1zm6.816 0h1v-1h-1v1zm0 3.526v1h1v-1h-1zm-10.245 0v-15.158h-2V222h2zm-1-14.158h11.245v-2H35.056v2zm10.245-1v3.526h2v-3.526h-2zm1 2.526h-6.816v2h6.816v-2zm-7.816 1v2.172h2v-2.172h-2zm1 3.172h6.3v-2h-6.3v2zm5.3-1v3.526h2v-3.526h-2zm1 2.526h-6.3v2h6.3v-2zm-7.3 1v2.408h2v-2.408h-2zm1 3.408h6.816v-2h-6.816v2zm5.816-1V222h2v-3.526h-2zm1 2.526H35.056v2h11.245v-2zm.782 4.87h-1v1h1v-1zm0-7.353v-1h-1v1h1zm1.591 0v1h.48l.3-.373-.78-.627zm1.763-11.675v-1h-1v1h1zm12.212 0h1v-1h-1v1zm0 11.675h-1v1h1v-1zm2.215 0h1v-1h-1v1zm0 7.353v1h1v-1h-1zm-3.956 0h-1v1h1v-1zm0-3.87h1v-1h-1v1zm-9.869 0v-1h-1v1h1zm0 3.87v1h1v-1h-1zm2.172-7.353l-.85-.527-.947 1.527h1.797v-1zm4.837 0v1h1v-1h-1zm0-8.192h1v-1h-1v1zm-3.397 0v-1h-1v1h1zm-6.568 15.545v-7.353h-2v7.353h2zm-1-6.353h1.591v-2h-1.59v2zm2.37-.373c1.401-1.743 1.984-4.579 1.984-8.238h-2c0 3.565-.592 5.803-1.542 6.984l1.558 1.254zm1.984-8.238v-4.064h-2v4.064h2zm-1-3.064H62.65v-2H50.437v2zm11.212-1v11.675h2v-11.675h-2zm1 12.675h2.215v-2H62.65v2zm1.215-1v7.353h2v-7.353h-2zm1 6.353h-3.956v2h3.956v-2zm-2.956 1V222h-2v3.87h2zm-1-4.87H51.04v2h9.869v-2zm-10.869 1v3.87h2V222h-2zm1 2.87h-3.956v2h3.956v-2zm2.172-5.353h4.837v-2h-4.837v2zm5.837-1v-8.192h-2v8.192h2zm-1-9.192h-3.397v2h3.397v-2zm-4.397 1v1.097h2v-1.097h-2zm0 1.097c0 3.117-.477 5.257-1.29 6.568l1.7 1.054c1.107-1.785 1.59-4.375 1.59-7.622h-2zm16.467 9.869l-.471.881.012.007.46-.888zm-2.88-2.753l-.868.498.004.008.863-.506zm0-8.234l-.864-.505-.002.003.865.502zm2.88-2.731l.464.887.004-.002-.468-.885zm7.246-.58l-.302.953.01.003.009.003.283-.959zm2.171 1.118l.937.349.245-.657-.534-.454-.648.762zm-1.354 3.633l-.555.833 1.05.7.442-1.183-.937-.35zm-1.742-.881l-.316.949.012.004.012.003.292-.956zm-4.429.731l-.722-.691.722.691zm0 5.676l-.73.683.007.008.008.008.715-.699zm4.43.731l.291.956.013-.003.011-.004-.316-.949zm1.74-.903l.938-.349-.441-1.183-1.051.7.555.832zm1.355 3.634l.648.761.534-.454-.245-.657-.937.35zm-2.171 1.139l.287.958.01-.003-.297-.955zm-2.838-.613c-1.564 0-2.87-.298-3.948-.856l-.92 1.777c1.416.732 3.049 1.079 4.868 1.079v-2zm-3.936-.849c-1.075-.575-1.898-1.364-2.49-2.376l-1.726 1.011c.784 1.339 1.882 2.384 3.273 3.128l.943-1.763zm-2.485-2.368c-.574-1.001-.878-2.199-.878-3.631h-2c0 1.723.369 3.276 1.143 4.626l1.735-.995zm-.878-3.631c0-1.431.304-2.62.875-3.604l-1.73-1.004c-.776 1.338-1.145 2.887-1.145 4.608h2zm.873-3.601a6.054 6.054 0 012.482-2.349l-.927-1.773a8.057 8.057 0 00-3.28 3.112l1.725 1.01zm2.486-2.351c1.077-.57 2.38-.874 3.94-.874v-2c-1.822 0-3.458.356-4.875 1.105l.935 1.769zm3.94-.874c.944 0 1.786.125 2.536.362l.604-1.906c-.97-.308-2.02-.456-3.14-.456v2zm2.555.368c.768.227 1.36.541 1.807.921l1.295-1.524c-.7-.595-1.556-1.026-2.536-1.315l-.566 1.918zm1.517-.19l-1.354 3.633 1.874.699 1.354-3.634-1.874-.698zm.137 3.15c-.693-.462-1.364-.81-2.004-1.005l-.584 1.912c.392.12.883.36 1.479.758l1.11-1.665zm-1.98-.998a6.503 6.503 0 00-2.057-.309v2c.557 0 1.028.074 1.425.207l.632-1.898zm-2.057-.309c-1.356 0-2.543.391-3.41 1.298l1.445 1.382c.394-.411.998-.68 1.965-.68v-2zm-3.41 1.298c-.853.892-1.202 2.117-1.202 3.507h2c0-1.074.267-1.727.647-2.125l-1.446-1.382zm-1.202 3.507c0 1.403.347 2.638 1.194 3.543l1.46-1.366c-.386-.413-.654-1.085-.654-2.177h-2zm1.21 3.559c.868.889 2.053 1.268 3.402 1.268v-2c-.973 0-1.58-.265-1.973-.666l-1.43 1.398zm3.402 1.268a6.93 6.93 0 002.033-.28l-.584-1.912a4.985 4.985 0 01-1.45.192v2zm2.057-.287c.628-.21 1.29-.56 1.98-1.02l-1.109-1.664c-.6.4-1.099.652-1.503.786l.632 1.898zm.489-1.503l1.354 3.634 1.874-.699-1.354-3.633-1.874.698zm1.644 2.523c-.452.383-1.049.705-1.822.946l.595 1.91c.976-.304 1.826-.741 2.522-1.333l-1.295-1.523zm-1.812.943c-.754.226-1.601.345-2.55.345v2c1.115 0 2.16-.139 3.125-.429l-.575-1.916zM84.498 222h-1v1h1v-1zm0-11.417h1v-1h-1v1zm-4.386 0h-1v1h1v-1zm0-3.741v-1h-1v1h1zm13.416 0h1v-1h-1v1zm0 3.741v1h1v-1h-1zm-4.387 0v-1h-1v1h1zm0 11.417v1h1v-1h-1zm-3.644 0v-11.417h-2V222h2zm-1-12.417h-4.385v2h4.386v-2zm-3.385 1v-3.741h-2v3.741h2zm-1-2.741h13.416v-2H80.112v2zm12.416-1v3.741h2v-3.741h-2zm1 2.741H89.14v2h4.386v-2zm-5.387 1V222h2v-11.417h-2zm1 10.417h-4.644v2h4.644v-2zm1.991 1l-.903-.429-.68 1.429h1.583v-1zm7.203-15.158v-1h-.632l-.271.571.903.429zm3.762 0l.903-.431-.272-.569h-.631v1zM109.343 222v1h1.586l-.684-1.431-.902.431zm-4.644 0l-.915.405.264.595h.651v-1zm-1.247-2.816l.914-.405-.263-.595h-.651v1zm-6.45 0v-1h-.651l-.264.595.915.405zM95.755 222v1h.65l.264-.595-.914-.405zm4.45-10.428v-1h-.665l-.257.614.922.386zm-1.72 4.107l-.922-.386-.58 1.386h1.502v-1zm3.548 0v1h1.503l-.581-1.386-.922.386zm-1.72-4.107l.922-.386-.257-.614h-.665v1zm-8.278 10.857l7.203-15.157-1.806-.859-7.203 15.158 1.806.858zm6.3-14.587h3.762v-2h-3.762v2zm2.86-.568l7.246 15.157 1.804-.862L103 206.411l-1.805.863zM109.343 221h-4.644v2h4.644v-2zm-3.73.595l-1.247-2.816-1.829.809 1.247 2.817 1.829-.81zm-2.161-3.411h-6.45v2h6.45v-2zm-7.365.595l-1.247 2.816 1.83.81 1.246-2.817-1.829-.809zM95.755 221h-4.623v2h4.623v-2zm3.528-9.814l-1.72 4.107 1.845.772 1.72-4.106-1.845-.773zm-.798 5.493h3.548v-2h-3.548v2zm4.47-1.386l-1.72-4.107-1.845.773 1.72 4.106 1.845-.772zm-2.642-4.721h-.108v2h.108v-2zM109.865 222h-1v1h1v-1zm0-15.158v-1h-1v1h1zm11.696 1.075l-.615.789.006.005.007.005.602-.799zm.796 4.881l-.826-.564-.003.005.829.559zm-1.634 1.29l-.378-.926-2.579 1.053 2.659.828.298-.955zm1.999 1.333l-.802.597.007.009.795-.606zm-8.428-2.795h-1v1h1v-1zm3.806-.28l.564.826.009-.006-.573-.82zm0-1.87l-.565.825.01.007.01.006.545-.838zm-3.806-.28v-1h-1v1h1zm0 8.45h-1v1h1v-1zm0-2.666v-1h-1v1h1zm-3.429 6.02v-15.158h-2V222h2zm-1-14.158h7.762v-2h-7.762v2zm7.762 0c1.582 0 2.642.335 3.319.864l1.231-1.577c-1.159-.905-2.722-1.287-4.55-1.287v2zm3.332.874c.675.509 1 1.156 1 2.039h2c0-1.496-.608-2.74-1.796-3.636l-1.204 1.597zm1 2.039c0 .592-.15 1.072-.428 1.479l1.651 1.128c.525-.769.777-1.65.777-2.607h-2zm-.431 1.484c-.266.393-.646.704-1.183.923l.756 1.852c.867-.354 1.576-.903 2.085-1.657l-1.658-1.118zm-1.103 2.804c.713.222 1.185.559 1.495.975l1.604-1.194c-.607-.817-1.468-1.368-2.504-1.691l-.595 1.91zm1.502.984c.304.399.483.921.483 1.63h2c0-1.068-.279-2.037-.892-2.842l-1.591 1.212zm.483 1.63c0 1.024-.37 1.783-1.123 2.374l1.236 1.573c1.254-.985 1.887-2.333 1.887-3.947h-2zm-1.123 2.374c-.776.61-1.888.969-3.445.969v2c1.854 0 3.45-.429 4.681-1.396l-1.236-1.573zm-3.445.969h-7.977v2h7.977v-2zm-3.548-7.374h2.451v-2h-2.451v2zm2.451 0c.677 0 1.387-.09 1.919-.454l-1.129-1.651c.008-.005-.036.026-.18.056-.14.029-.339.049-.61.049v2zm1.928-.46c.616-.432.857-1.094.857-1.766h-2c0 .106-.018.145-.018.146l.002-.004a.033.033 0 01.006-.008l.006-.007 1.147 1.639zm.857-1.766c0-.669-.241-1.343-.885-1.762l-1.09 1.676a.086.086 0 01-.022-.019c-.01-.012-.015-.022-.018-.026-.003-.009.015.025.015.131h2zm-.866-1.749c-.532-.365-1.242-.455-1.919-.455v2c.271 0 .47.021.61.05.144.029.188.06.18.055l1.129-1.65zm-1.919-.455h-2.451v2h2.451v-2zm-3.451 1v2.43h2v-2.43h-2zm1 9.45h2.924v-2h-2.924v2zm2.924 0c.696 0 1.399-.123 1.949-.529.606-.447.857-1.11.857-1.804h-2c0 .11-.018.159-.024.172-.003.006-.005.011-.021.023-.053.039-.253.138-.761.138v2zm2.806-2.333c0-.694-.251-1.357-.857-1.804-.55-.406-1.253-.529-1.949-.529v2c.508 0 .708.099.761.138.016.012.018.017.021.023a.437.437 0 01.024.172h2zm-2.806-2.333h-2.924v2h2.924v-2zm-3.924 1v2.666h2v-2.666h-2zm11.793 6.02h-1v1h1v-1zm0-15.158v-1h-1v1h1zm4.3 0h1v-1h-1v1zm0 7.869h-1v2.812l1.776-2.18-.776-.632zm6.407-7.869v-1h-.475l-.3.369.775.631zm3.376 0h1v-1h-1v1zm0 15.158v1h1v-1h-1zm-4.3 0h-1v1h1v-1zm0-7.869h1v-2.812l-1.776 2.181.776.631zM128.463 222v1h.475l.3-.369-.775-.631zm-2.376 0v-15.158h-2V222h2zm-1-14.158h4.3v-2h-4.3v2zm3.3-1v7.869h2v-7.869h-2zm1.776 8.501l6.407-7.869-1.551-1.263-6.407 7.869 1.551 1.263zm5.631-7.501h3.376v-2h-3.376v2zm2.376-1V222h2v-15.158h-2zm1 14.158h-4.3v2h4.3v-2zm-3.3 1v-7.869h-2V222h2zm-1.776-8.5l-6.407 7.869 1.551 1.262 6.407-7.869-1.551-1.262zm-5.631 7.5h-3.376v2h3.376v-2zm16.608 1h-1v1h1v-1zm0-11.417h1v-1h-1v1zm-4.386 0h-1v1h1v-1zm0-3.741v-1h-1v1h1zm13.416 0h1v-1h-1v1zm0 3.741v1h1v-1h-1zm-4.386 0v-1h-1v1h1zm0 11.417v1h1v-1h-1zm-3.644 0v-11.417h-2V222h2zm-1-12.417h-4.386v2h4.386v-2zm-3.386 1v-3.741h-2v3.741h2zm-1-2.741h13.416v-2h-13.416v2zm12.416-1v3.741h2v-3.741h-2zm1 2.741h-4.386v2h4.386v-2zm-5.386 1V222h2v-11.417h-2zm1 10.417h-4.644v2h4.644v-2zm5.901 1h-1v1h1v-1zm0-15.158v-1h-1v1h1zm11.244 0h1v-1h-1v1zm0 3.526v1h1v-1h-1zm-6.815 0v-1h-1v1h1zm0 2.172h-1v1h1v-1zm6.299 0h1v-1h-1v1zm0 3.526v1h1v-1h-1zm-6.299 0v-1h-1v1h1zm0 2.408h-1v1h1v-1zm6.815 0h1v-1h-1v1zm0 3.526v1h1v-1h-1zm-10.244 0v-15.158h-2V222h2zm-1-14.158h11.244v-2h-11.244v2zm10.244-1v3.526h2v-3.526h-2zm1 2.526h-6.815v2h6.815v-2zm-7.815 1v2.172h2v-2.172h-2zm1 3.172h6.299v-2h-6.299v2zm5.299-1v3.526h2v-3.526h-2zm1 2.526h-6.299v2h6.299v-2zm-7.299 1v2.408h2v-2.408h-2zm1 3.408h6.815v-2h-6.815v2zm5.815-1V222h2v-3.526h-2zm1 2.526h-11.244v2h11.244v-2zm3.083 1.43l-.811.584.486.676.753-.356-.428-.904zm-2.322-3.225l-.512-.859-.936.559.637.884.811-.584zm1.957-1.72l-.796-.606-.008.012.804.594zm1.397-10.643v-1h-1v1h1zm12.234 0h1v-1h-1v1zm0 15.158v1h1v-1h-1zm-4.601 0h-1v1h1v-1zm0-11.46h1v-1h-1v1zm-3.397 0v-1h-1v1h1zm-1.419 8.278l-.866-.501-.003.006.869.495zm-3.037 3.028l-2.322-3.225-1.623 1.168 2.322 3.225 1.623-1.168zm-2.622-1.782c.913-.545 1.671-1.203 2.249-1.985l-1.608-1.188c-.397.537-.944 1.025-1.665 1.455l1.024 1.718zm2.241-1.973c.603-.794 1.014-1.742 1.255-2.817l-1.952-.437c-.19.846-.495 1.517-.895 2.042l1.592 1.212zm1.255-2.817c.235-1.053.346-2.284.346-3.68h-2c0 1.299-.104 2.375-.298 3.243l1.952.437zm.346-3.68v-4.752h-2v4.752h2zm-1-3.752h12.234v-2h-12.234v2zm11.234-1V222h2v-15.158h-2zm1 14.158h-4.601v2h4.601v-2zm-3.601 1v-11.46h-2V222h2zm-1-12.46h-3.397v2h3.397v-2zm-4.397 1v2.193h2v-2.193h-2zm0 2.193c0 2.296-.448 4.14-1.285 5.584l1.731 1.002c1.056-1.824 1.554-4.036 1.554-6.586h-2zm-1.288 5.59c-.834 1.463-1.967 2.521-3.408 3.203l.856 1.808c1.827-.866 3.261-2.216 4.289-4.021l-1.737-.99zm12.78 3.677h-1v1h1v-1zm0-15.158v-1h-1v1h1zm11.245 0h1v-1h-1v1zm0 3.526v1h1v-1h-1zm-6.816 0v-1h-1v1h1zm0 2.172h-1v1h1v-1zm6.3 0h1v-1h-1v1zm0 3.526v1h1v-1h-1zm-6.3 0v-1h-1v1h1zm0 2.408h-1v1h1v-1zm6.816 0h1v-1h-1v1zm0 3.526v1h1v-1h-1zm-10.245 0v-15.158h-2V222h2zm-1-14.158h11.245v-2h-11.245v2zm10.245-1v3.526h2v-3.526h-2zm1 2.526h-6.816v2h6.816v-2zm-7.816 1v2.172h2v-2.172h-2zm1 3.172h6.3v-2h-6.3v2zm5.3-1v3.526h2v-3.526h-2zm1 2.526h-6.3v2h6.3v-2zm-7.3 1v2.408h2v-2.408h-2zm1 3.408h6.816v-2h-6.816v2zm5.816-1V222h2v-3.526h-2zm1 2.526h-11.245v2h11.245v-2zm1.836 1h-1v1h1v-1zm0-15.158v-1h-1v1h1zm4.3 0h1v-1h-1v1zm0 7.869h-1v2.812l1.775-2.18-.775-.632zm6.407-7.869v-1h-.476l-.3.369.776.631zm3.375 0h1v-1h-1v1zm0 15.158v1h1v-1h-1zm-4.3 0h-1v1h1v-1zm0-7.869h1v-2.812l-1.775 2.181.775.631zM202.159 222v1h.475l.301-.369-.776-.631zm1.097-16.792l-.424.906.008.004.008.004.408-.914zm-1.548-1.225l-.832.555.009.013.009.013.814-.581zm-.645-1.656l-.302-.953-.811.256.123.842.99-.145zm2.042-.645l.936-.353-.335-.885-.902.285.301.953zm.989 1.376l-.548.837.007.004.006.004.535-.845zm3.483-.064l-.591-.806-.007.004-.006.005.604.797zm.882-1.29l.3-.954-.976-.308-.285.984.961.278zm1.978.623l.984.177.155-.866-.839-.264-.3.953zm-1.462 2.387l-.618-.786-.007.005.625.781zM199.784 222v-15.158h-2V222h2zm-1-14.158h4.3v-2h-4.3v2zm3.3-1v7.869h2v-7.869h-2zm1.775 8.501l6.407-7.869-1.551-1.263-6.407 7.869 1.551 1.263zm5.632-7.501h3.375v-2h-3.375v2zm2.375-1V222h2v-15.158h-2zm1 14.158h-4.3v2h4.3v-2zm-3.3 1v-7.869h-2V222h2zm-1.775-8.5l-6.407 7.869 1.551 1.262 6.407-7.869-1.551-1.262zm-5.632 7.5h-3.375v2h3.375v-2zm3.634-16.34c-.927 0-1.623-.138-2.129-.365l-.816 1.827c.841.375 1.836.538 2.945.538v-2zm-2.113-.357c-.55-.258-.919-.566-1.159-.901l-1.627 1.162c.477.668 1.14 1.177 1.938 1.55l.848-1.811zm-1.14-.875a2.999 2.999 0 01-.488-1.245l-1.979.289c.109.741.38 1.432.803 2.066l1.664-1.11zm-1.176-.147l2.042-.645-.602-1.907-2.043.645.603 1.907zm.806-1.245c.29.768.727 1.433 1.376 1.859l1.096-1.673c-.182-.119-.404-.371-.601-.893l-1.871.707zm1.389 1.867c.645.409 1.435.564 2.277.564v-2c-.62 0-.992-.117-1.207-.253l-1.07 1.689zm2.277.564c.872 0 1.695-.183 2.346-.676l-1.209-1.594c-.181.138-.52.27-1.137.27v2zm2.332-.667a3.36 3.36 0 001.251-1.818l-1.921-.556c-.1.347-.272.585-.512.762l1.182 1.612zm-.01-1.142l1.978.623.601-1.907-1.978-.624-.601 1.908zm1.294-.507c-.126.707-.476 1.29-1.095 1.777l1.235 1.572c.986-.774 1.612-1.783 1.829-2.996l-1.969-.353zm-1.102 1.782c-.561.449-1.378.727-2.557.727v2c1.487 0 2.791-.353 3.806-1.165l-1.249-1.562zM221.774 222h-1v1h1v-1zm0-15.158v-1h-1v1h1zm4.601 0h1v-1h-1v1zm0 5.87h-1v1h1v-1zm1.247 0v1h.566l.292-.485-.858-.515zm3.526-5.87v-1h-.565l-.292.486.857.514zm5.01 0l.84.544.997-1.544h-1.837v1zm-4.408 6.816l-.839-.543-.574.887.917.524.496-.868zm1.312 1.096l-.766.643.006.007.006.007.754-.657zm1.053 1.613l.896-.444-.001-.003-.895.447zM236.91 222v1h1.613l-.717-1.444-.896.444zm-4.988 0l-.908.419.269.581h.639v-1zm-1.935-4.193l-.909.416.001.004.908-.42zm-.903-1.074l-.514.857.007.004.008.005.499-.866zm-2.709-.323v-1h-1v1h1zm0 5.59v1h1v-1h-1zm-3.601 0v-15.158h-2V222h2zm-1-14.158h4.601v-2h-4.601v2zm3.601-1v5.87h2v-5.87h-2zm1 6.87h1.247v-2h-1.247v2zm2.105-.485l3.526-5.87-1.715-1.029-3.526 5.869 1.715 1.03zm2.668-5.385h5.01v-2h-5.01v2zm4.17-1.543l-4.407 6.816 1.679 1.086 4.408-6.815-1.68-1.087zm-4.064 8.227c.399.228.745.517 1.042.871l1.532-1.285a5.795 5.795 0 00-1.582-1.322l-.992 1.736zm1.054.885c.322.37.628.834.913 1.403l1.789-.894a8.648 8.648 0 00-1.194-1.822l-1.508 1.313zm.912 1.4l2.795 5.633 1.791-.888-2.795-5.633-1.791.888zm3.69 4.189h-4.988v2h4.988v-2zm-4.08.581l-1.935-4.193-1.816.839 1.935 4.192 1.816-.838zm-1.933-4.189c-.292-.638-.715-1.181-1.313-1.526l-.999 1.733c.147.085.326.258.493.624l1.819-.831zm-1.298-1.517c-.574-.344-1.272-.465-1.998-.465v2c.535 0 .826.094.969.18l1.029-1.715zm-1.998-.465h-1.226v2h1.226v-2zm-2.226 1V222h2v-5.59h-2zm1 4.59h-4.601v2h4.601v-2zm11.587 1h-1v1h1v-1zm0-15.158v-1h-1v1h1zm11.868 1.333l-.701.713.006.006.695-.719zm0 7.095l-.701-.712.701.712zm-7.224 1.334v-1.001h-1v1.001h1zm0 5.396v1h1v-1h-1zm0-8.923h-1v1h1v-1zm0-2.709v-1h-1v1h1zM238.962 222v-15.158h-2V222h2zm-1-14.158h7.826v-2h-7.826v2zm7.826 0c1.639 0 2.691.406 3.341 1.046l1.403-1.425c-1.156-1.138-2.799-1.621-4.744-1.621v2zm3.347 1.052c.672.651 1.05 1.555 1.05 2.829h2c0-1.707-.526-3.168-1.659-4.266l-1.391 1.437zm1.05 2.829c0 1.256-.376 2.165-1.056 2.835l1.403 1.425c1.125-1.108 1.653-2.564 1.653-4.26h-2zm-1.056 2.835c-.65.64-1.702 1.045-3.341 1.045v2.001c1.945 0 3.588-.483 4.744-1.621l-1.403-1.425zm-3.341 1.045h-3.182v2.001h3.182v-2.001zm-4.182 1.001V222h2v-5.396h-2zm1 4.396h-4.644v2h4.644v-2zm0-6.923h2.559v-2h-2.559v2zm2.559 0c.648 0 1.322-.134 1.841-.577.551-.468.75-1.125.75-1.777h-2c0 .13-.019.199-.031.228-.009.023-.014.025-.015.026-.011.009-.133.1-.545.1v2zm2.591-2.354c0-.652-.199-1.309-.75-1.777-.519-.443-1.193-.578-1.841-.578v2c.412 0 .534.092.545.101.001.001.006.003.015.026a.627.627 0 01.031.228h2zm-2.591-2.355h-2.559v2h2.559v-2zm-3.559 1v2.709h2v-2.709h-2zM254.912 222l-.888-.46-.757 1.46h1.645v-1zm2.429-4.687l.888.46.261-.504-.299-.483-.85.527zm-6.493-10.471v-1h-1.797l.947 1.528.85-.528zm4.859 0l.857-.515-.291-.485h-.566v1zm3.827 6.365l-.857.515.926 1.539.821-1.598-.89-.456zm3.268-6.365v-1h-.611l-.279.544.89.456zm4.752 0l.887.461.758-1.461h-1.645v1zM259.685 222v1h.607l.28-.539-.887-.461zm-3.886.46l2.43-4.687-1.776-.92-2.429 4.687 1.775.92zm2.392-5.674l-6.493-10.471-1.7 1.055 6.493 10.47 1.7-1.054zm-7.343-8.944h4.859v-2h-4.859v2zm4.002-.484l3.827 6.364 1.714-1.031-3.827-6.364-1.714 1.031zm5.574 6.305l3.268-6.364-1.78-.913-3.267 6.364 1.779.913zm2.378-5.821h4.752v-2h-4.752v2zm3.864-1.46l-7.869 15.157 1.775.922 7.869-15.158-1.775-.921zM259.685 221h-4.773v2h4.773v-2zm8.47 1h-1v1h1v-1zm0-15.158v-1h-1v1h1zm14.383 0h1v-1h-1v1zm0 15.158v1h1v-1h-1zm-4.601 0h-1v1h1v-1zm0-11.46h1v-1h-1v1zm-5.181 0v-1h-1v1h1zm0 11.46v1h1v-1h-1zm-3.601 0v-15.158h-2V222h2zm-1-14.158h14.383v-2h-14.383v2zm13.383-1V222h2v-15.158h-2zm1 14.158h-4.601v2h4.601v-2zm-3.601 1v-11.46h-2V222h2zm-1-12.46h-5.181v2h5.181v-2zm-6.181 1V222h2v-11.46h-2zm1 10.46h-4.601v2h4.601v-2zm12.28 1h-1v1h1v-1zm0-15.158v-1h-1v1h1zm4.644 0h1v-1h-1v1zm0 5.59h-1v1h1v-1zm5.181 0v1h1v-1h-1zm0-5.59v-1h-1v1h1zm4.644 0h1v-1h-1v1zm0 15.158v1h1v-1h-1zm-4.644 0h-1v1h1v-1zm0-5.784h1v-1h-1v1zm-5.181 0v-1h-1v1h1zm0 5.784v1h1v-1h-1zm-3.644 0v-15.158h-2V222h2zm-1-14.158h4.644v-2h-4.644v2zm3.644-1v5.59h2v-5.59h-2zm1 6.59h5.181v-2h-5.181v2zm6.181-1v-5.59h-2v5.59h2zm-1-4.59h4.644v-2h-4.644v2zm3.644-1V222h2v-15.158h-2zm1 14.158h-4.644v2h4.644v-2zm-3.644 1v-5.784h-2V222h2zm-1-6.784h-5.181v2h5.181v-2zm-6.181 1V222h2v-5.784h-2zm1 4.784h-4.644v2h4.644v-2zm12.32 1h-1v1h1v-1zm0-15.158v-1h-1v1h1zm11.245 0h1v-1h-1v1zm0 3.526v1h1v-1h-1zm-6.816 0v-1h-1v1h1zm0 2.172h-1v1h1v-1zm6.3 0h1v-1h-1v1zm0 3.526v1h1v-1h-1zm-6.3 0v-1h-1v1h1zm0 2.408h-1v1h1v-1zm6.816 0h1v-1h-1v1zm0 3.526v1h1v-1h-1zM303 222v-15.158h-2V222h2zm-1-14.158h11.245v-2H302v2zm10.245-1v3.526h2v-3.526h-2zm1 2.526h-6.816v2h6.816v-2zm-7.816 1v2.172h2v-2.172h-2zm1 3.172h6.3v-2h-6.3v2zm5.3-1v3.526h2v-3.526h-2zm1 2.526h-6.3v2h6.3v-2zm-7.3 1v2.408h2v-2.408h-2zm1 3.408h6.816v-2h-6.816v2zm5.816-1V222h2v-3.526h-2zm1 2.526H302v2h11.245v-2zm1.836 1h-1v1h1v-1zm0-15.158v-1h-1v1h1zm4.3 0h1v-1h-1v1zm0 7.869h-1v2.812l1.775-2.18-.775-.632zm6.407-7.869v-1h-.475l-.3.369.775.631zm3.375 0h1v-1h-1v1zm0 15.158v1h1v-1h-1zm-4.3 0h-1v1h1v-1zm0-7.869h1v-2.812l-1.775 2.181.775.631zM318.456 222v1h.476l.3-.369-.776-.631zm1.097-16.792l-.424.906.008.004.008.004.408-.914zm-1.548-1.225l-.832.555.009.013.009.013.814-.581zm-.645-1.656l-.301-.953-.812.256.124.842.989-.145zm2.042-.645l.936-.353-.334-.885-.903.285.301.953zm.989 1.376l-.548.837.007.004.006.004.535-.845zm3.483-.064l-.591-.806-.006.004-.007.005.604.797zm.882-1.29l.301-.954-.977-.308-.285.984.961.278zm1.978.623l.984.177.155-.866-.838-.264-.301.953zm-1.462 2.387l-.618-.786-.007.005.625.781zM316.081 222v-15.158h-2V222h2zm-1-14.158h4.3v-2h-4.3v2zm3.3-1v7.869h2v-7.869h-2zm1.775 8.501l6.407-7.869-1.55-1.263-6.407 7.869 1.55 1.263zm5.632-7.501h3.375v-2h-3.375v2zm2.375-1V222h2v-15.158h-2zm1 14.158h-4.3v2h4.3v-2zm-3.3 1v-7.869h-2V222h2zm-1.775-8.5l-6.407 7.869 1.551 1.262 6.407-7.869-1.551-1.262zm-5.632 7.5h-3.375v2h3.375v-2zm3.634-16.34c-.927 0-1.623-.138-2.129-.365l-.816 1.827c.841.375 1.837.538 2.945.538v-2zm-2.113-.357c-.55-.258-.919-.566-1.158-.901l-1.628 1.162c.477.668 1.141 1.177 1.938 1.55l.848-1.811zm-1.14-.875a3.012 3.012 0 01-.488-1.245l-1.978.289c.108.741.379 1.432.802 2.066l1.664-1.11zm-1.176-.147l2.043-.645-.603-1.907-2.042.645.602 1.907zm.806-1.245c.29.768.727 1.433 1.376 1.859l1.097-1.673c-.182-.119-.405-.371-.602-.893l-1.871.707zm1.389 1.867c.646.409 1.435.564 2.277.564v-2c-.62 0-.992-.117-1.206-.253l-1.071 1.689zm2.277.564c.873 0 1.696-.183 2.346-.676l-1.209-1.594c-.181.138-.519.27-1.137.27v2zm2.333-.667a3.36 3.36 0 001.251-1.818l-1.922-.556c-.1.347-.272.585-.512.762l1.183 1.612zm-.011-1.142l1.978.623.602-1.907-1.978-.624-.602 1.908zm1.295-.507c-.127.707-.476 1.29-1.096 1.777l1.236 1.572c.986-.774 1.611-1.783 1.828-2.996l-1.968-.353zm-1.103 1.782c-.561.449-1.378.727-2.557.727v2c1.487 0 2.791-.353 3.807-1.165l-1.25-1.562zM331.668 222h-1v1h1v-1zm0-15.158v-1h-1v1h1zm4.536 0h1v-1h-1v1zm0 11.46h-1v1h1v-1zm4.085 0v1h1v-1h-1zm0-11.46v-1h-1v1h1zm4.515 0h1v-1h-1v1zm0 11.46h-1v1h1v-1zm4.085 0v1h1v-1h-1zm0-11.46v-1h-1v1h1zm4.515 0h1v-1h-1v1zm0 15.158v1h1v-1h-1zm-20.736 0v-15.158h-2V222h2zm-1-14.158h4.536v-2h-4.536v2zm3.536-1v11.46h2v-11.46h-2zm1 12.46h4.085v-2h-4.085v2zm5.085-1v-11.46h-2v11.46h2zm-1-10.46h4.515v-2h-4.515v2zm3.515-1v11.46h2v-11.46h-2zm1 12.46h4.085v-2h-4.085v2zm5.085-1v-11.46h-2v11.46h2zm-1-10.46h4.515v-2h-4.515v2zm3.515-1V222h2v-15.158h-2zm1 14.158h-21.736v2h21.736v-2zm2.493 1h-1v1h1v-1zm0-15.158v-1h-1v1h1zm4.3 0h1v-1h-1v1zm0 7.869h-1v2.812l1.776-2.18-.776-.632zm6.407-7.869v-1h-.475l-.3.369.775.631zm3.376 0h1v-1h-1v1zm0 15.158v1h1v-1h-1zm-4.3 0h-1v1h1v-1zm0-7.869h1v-2.812l-1.776 2.181.776.631zM359.273 222v1h.475l.3-.369-.775-.631zm-2.376 0v-15.158h-2V222h2zm-1-14.158h4.3v-2h-4.3v2zm3.3-1v7.869h2v-7.869h-2zm1.776 8.501l6.407-7.869-1.551-1.263-6.407 7.869 1.551 1.263zm5.631-7.501h3.376v-2h-3.376v2zm2.376-1V222h2v-15.158h-2zm1 14.158h-4.3v2h4.3v-2zm-3.3 1v-7.869h-2V222h2zm-1.776-8.5l-6.407 7.869 1.551 1.262 6.407-7.869-1.551-1.262zm-5.631 7.5h-3.376v2h3.376v-2zm11.104 1l-.797-.604-1.215 1.604h2.012v-1zm5.784-7.633l.797.604.457-.603-.457-.604-.797.603zm-5.698-7.525v-1h-2.011l1.214 1.604.797-.604zm5.418 0l.821-.571-.298-.429h-.523v1zm2.903 4.171l-.821.572.815 1.171.823-1.166-.817-.577zm2.945-4.171v-1h-.518l-.299.424.817.576zm5.418 0l.798.604 1.214-1.604h-2.012v1zm-5.697 7.525l-.797-.603-.459.605.46.604.796-.606zm5.805 7.633v1h2.017l-1.221-1.605-.796.605zm-5.44 0l-.816.577.299.423h.517v-1zm-3.01-4.257l.817-.577-.814-1.151-.817 1.148.814.58zM375.774 222v1h.515l.299-.42-.814-.58zm-4.6.604l5.784-7.633-1.594-1.207-5.784 7.632 1.594 1.208zm5.784-8.84l-5.697-7.525-1.595 1.207 5.698 7.525 1.594-1.207zm-6.495-5.922h5.418v-2h-5.418v2zm4.597-.428l2.903 4.171 1.642-1.143-2.903-4.171-1.642 1.143zm4.541 4.176l2.945-4.171-1.634-1.153-2.945 4.171 1.634 1.153zm2.128-3.748h5.418v-2h-5.418v2zm4.621-1.603l-5.697 7.525 1.594 1.207 5.698-7.525-1.595-1.207zm-5.696 8.734l5.805 7.632 1.592-1.21-5.805-7.633-1.592 1.211zm6.601 6.027h-5.44v2h5.44v-2zm-4.623.423l-3.01-4.257-1.633 1.154 3.01 4.257 1.633-1.154zm-4.641-4.26l-3.032 4.257 1.629 1.16 3.032-4.257-1.629-1.16zM375.774 221h-5.397v2h5.397v-2zm18.273 1h-1v1h1v-1zm0-15.158v-1h-1v1h1zm11.696 1.075l-.615.789.006.005.007.005.602-.799zm.796 4.881l-.826-.564-.003.005.829.559zm-1.634 1.29l-.378-.926-2.579 1.053 2.659.828.298-.955zm1.999 1.333l-.802.597.007.009.795-.606zm-8.428-2.795h-1v1h1v-1zm3.806-.28l.564.826.009-.006-.573-.82zm0-1.87l-.565.825.01.007.01.006.545-.838zm-3.806-.28v-1h-1v1h1zm0 8.45h-1v1h1v-1zm0-2.666v-1h-1v1h1zm-3.429 6.02v-15.158h-2V222h2zm-1-14.158h7.762v-2h-7.762v2zm7.762 0c1.582 0 2.642.335 3.319.864l1.231-1.577c-1.158-.905-2.721-1.287-4.55-1.287v2zm3.332.874c.676.509 1 1.156 1 2.039h2c0-1.496-.608-2.74-1.796-3.636l-1.204 1.597zm1 2.039c0 .592-.15 1.072-.428 1.479l1.652 1.128c.524-.769.776-1.65.776-2.607h-2zm-.431 1.484c-.266.393-.646.704-1.183.923l.756 1.852c.867-.354 1.576-.903 2.085-1.657l-1.658-1.118zm-1.103 2.804c.713.222 1.185.559 1.495.975l1.605-1.194c-.608-.817-1.468-1.368-2.505-1.691l-.595 1.91zm1.502.984c.304.399.483.921.483 1.63h2c0-1.068-.279-2.037-.892-2.842l-1.591 1.212zm.483 1.63c0 1.024-.37 1.783-1.123 2.374l1.236 1.573c1.254-.985 1.887-2.333 1.887-3.947h-2zm-1.123 2.374c-.775.61-1.888.969-3.445.969v2c1.854 0 3.45-.429 4.681-1.396l-1.236-1.573zm-3.445.969h-7.977v2h7.977v-2zm-3.548-7.374h2.451v-2h-2.451v2zm2.451 0c.677 0 1.387-.09 1.919-.454l-1.129-1.651c.008-.005-.036.026-.18.056-.14.029-.339.049-.61.049v2zm1.928-.46c.617-.432.857-1.094.857-1.766h-2c0 .106-.018.145-.018.146l.002-.004a.033.033 0 01.006-.008l.006-.007 1.147 1.639zm.857-1.766c0-.669-.241-1.343-.885-1.762l-1.09 1.676a.086.086 0 01-.022-.019.13.13 0 01-.017-.026c-.004-.009.014.025.014.131h2zm-.866-1.749c-.532-.365-1.242-.455-1.919-.455v2c.271 0 .47.021.61.05.144.029.188.06.18.055l1.129-1.65zm-1.919-.455h-2.451v2h2.451v-2zm-3.451 1v2.43h2v-2.43h-2zm1 9.45h2.924v-2h-2.924v2zm2.924 0c.696 0 1.399-.123 1.949-.529.606-.447.857-1.11.857-1.804h-2c0 .11-.018.159-.024.172-.003.006-.005.011-.021.023-.053.039-.252.138-.761.138v2zm2.806-2.333c0-.694-.251-1.357-.857-1.804-.55-.406-1.253-.529-1.949-.529v2c.509 0 .708.099.761.138.016.012.018.017.021.023a.437.437 0 01.024.172h2zm-2.806-2.333h-2.924v2h2.924v-2zm-3.924 1v2.666h2v-2.666h-2zM410.64 222l-.888-.46-.757 1.46h1.645v-1zm2.429-4.687l.888.46.261-.504-.299-.483-.85.527zm-6.493-10.471v-1h-1.797l.947 1.528.85-.528zm4.859 0l.857-.515-.291-.485h-.566v1zm3.827 6.365l-.857.515.926 1.539.821-1.598-.89-.456zm3.268-6.365v-1h-.611l-.278.544.889.456zm4.752 0l.887.461.758-1.461h-1.645v1zM415.413 222v1h.607l.28-.539-.887-.461zm-3.886.46l2.43-4.687-1.776-.92-2.429 4.687 1.775.92zm2.392-5.674l-6.493-10.471-1.7 1.055 6.493 10.47 1.7-1.054zm-7.343-8.944h4.859v-2h-4.859v2zm4.002-.484l3.827 6.364 1.714-1.031-3.827-6.364-1.714 1.031zm5.574 6.305l3.268-6.364-1.779-.913-3.268 6.364 1.779.913zm2.378-5.821h4.752v-2h-4.752v2zm3.864-1.46l-7.869 15.157 1.775.922 7.869-15.158-1.775-.921zM415.413 221h-4.773v2h4.773v-2zm10.168.85l-.278.96.008.002.008.003.262-.965zm-2.687-1.162l-.932-.363-.305.783.718.435.519-.855zm1.29-3.31l.549-.836-1.032-.679-.449 1.151.932.364zm1.956.859l-.272.963.011.003.01.002.251-.968zm4.429-.021l.46.888.011-.006-.471-.882zm.194-1.892l-.545.838.009.006.009.006.527-.85zm-5.16-.279h-1v1h1v-1zm0-3.484v-1h-1v1h1zm4.73-.236l.482.876.016-.009.016-.01-.514-.857zm-.065-1.677l-.588.809.009.006.008.006.571-.821zm-3.87-.022l.26.966.009-.002.008-.003-.277-.961zm-1.913.839l-.932.363.454 1.166 1.038-.7-.56-.829zm-1.29-3.311l-.567-.824-.653.449.288.738.932-.363zm2.58-1.14l-.265-.964-.003.001.268.963zm7.933.753l-.623.782.005.004.618-.786zm.903 5.031l-.819-.573-.005.006-.005.008.829.559zm-1.634 1.311l-.394-.919-2.473 1.06 2.565.813.302-.954zm1.978 1.312l.796-.606-.796.606zm-.043 4.622l.816.579-.816-.579zm-2.214 1.634l.369.93.007-.003-.376-.927zm-3.698-.419c-1.207 0-2.256-.129-3.157-.374l-.524 1.931c1.106.3 2.336.443 3.681.443v-2zm-3.14-.369a10.095 10.095 0 01-2.447-1.055l-1.038 1.709a12.1 12.1 0 002.928 1.267l.557-1.921zm-2.034.163l1.29-3.311-1.864-.727-1.29 3.311 1.864.727zm-.192-2.839c.646.425 1.396.75 2.234.987l.545-1.925c-.682-.193-1.236-.441-1.68-.733l-1.099 1.671zm2.255.992c.863.224 1.773.333 2.724.333v-2a8.85 8.85 0 01-2.222-.268l-.502 1.935zm2.724.333c.929 0 1.78-.105 2.416-.434l-.919-1.776c-.196.101-.649.21-1.497.21v2zm2.427-.44c.348-.185.655-.449.87-.808.216-.359.304-.755.304-1.149h-2a.416.416 0 01-.009.095.083.083 0 01-.027.045.46.46 0 01-.079.053l.941 1.764zm1.174-1.957a1.9 1.9 0 00-.925-1.667l-1.053 1.7c.015.009.016.012.012.007a.112.112 0 01-.022-.029c-.008-.015-.011-.026-.013-.032l.001.021h2zm-.906-1.655c-.539-.35-1.25-.442-1.943-.442v2.001c.279 0 .487.02.637.05.074.015.127.031.164.044a.468.468 0 01.052.023l1.09-1.676zm-1.943-.442h-3.762v2.001h3.762v-2.001zm-2.762 1.001v-3.484h-2v3.484h2zm-1-2.484h3.332v-2h-3.332v2zm3.332 0c.68 0 1.361-.074 1.88-.36l-.964-1.752c-.055.03-.305.112-.916.112v2zm1.912-.379c.64-.384.916-1.023.916-1.696h-2c0 .072-.013.075.002.044a.214.214 0 01.032-.044c.012-.013.021-.019.021-.018l1.029 1.714zm.916-1.696c0-.73-.392-1.289-.924-1.659l-1.142 1.642c.074.051.087.079.081.069-.003-.006-.008-.015-.011-.028-.004-.013-.004-.022-.004-.024h2zm-.907-1.647c-.585-.425-1.398-.535-2.2-.535v2c.717 0 .979.12 1.024.153l1.176-1.618zm-2.2-.535c-.856 0-1.701.121-2.535.362l.554 1.921a7.137 7.137 0 011.981-.283v-2zm-2.518.357c-.831.224-1.574.544-2.213.975l1.12 1.658c.422-.286.953-.524 1.613-.702l-.52-1.931zm-.721 1.441l-1.29-3.311-1.864.726 1.29 3.311 1.864-.726zm-1.656-2.124c.575-.395 1.327-.735 2.281-1l-.535-1.927c-1.11.308-2.078.728-2.879 1.279l1.133 1.648zm2.278-.999c.949-.26 1.999-.395 3.154-.395v-2c-1.31 0-2.539.153-3.683.466l.529 1.929zm3.154-.395c1.921 0 3.158.38 3.892.965l1.247-1.564c-1.245-.992-3.018-1.401-5.139-1.401v2zm3.897.969c.779.612 1.123 1.326 1.123 2.202h2c0-1.531-.659-2.81-1.887-3.774l-1.236 1.572zm1.123 2.202c0 .611-.152 1.085-.421 1.47l1.638 1.146c.534-.762.783-1.649.783-2.616h-2zm-.431 1.484c-.268.397-.654.718-1.199.951l.788 1.839c.86-.369 1.564-.923 2.069-1.672l-1.658-1.118zm-1.107 2.824c.703.222 1.173.555 1.485.964l1.591-1.212c-.606-.795-1.454-1.337-2.472-1.659l-.604 1.907zm1.485.964c.302.396.483.924.483 1.651h2c0-1.078-.277-2.055-.892-2.863l-1.591 1.212zm.483 1.651c0 .694-.186 1.278-.547 1.787l1.632 1.157c.614-.867.915-1.86.915-2.944h-2zm-.547 1.787c-.351.496-.915.937-1.774 1.286l.752 1.853c1.119-.454 2.031-1.102 2.654-1.982l-1.632-1.157zm-1.767 1.283c-.819.325-1.916.51-3.329.51v2c1.568 0 2.936-.202 4.067-.651l-.738-1.859zm8.302.521l.489-.872-.489.872zm-2.73-2.752l-.884.468.004.007.003.006.877-.481zm0-8.213l-.877-.481-.004.008.881.473zm2.73-2.731l.481.877.008-.004-.489-.873zm8.364 0l-.49.873.009.004.481-.877zm2.73 10.944l.877.481-.877-.481zm-2.73 2.752l-.49-.872.49.872zm-1.914-3.913l-.819-.573-.002.003.821.57zm0-5.87l-.821.571.008.011.813-.582zm-4.558 0l-.821-.57-.003.004.824.566zm0 5.87l-.829.559.008.011.821-.57zm2.279 3.902c-1.467 0-2.682-.3-3.682-.861l-.978 1.744c1.351.758 2.916 1.117 4.66 1.117v-2zm-3.682-.861a5.914 5.914 0 01-2.343-2.361l-1.753.962a7.91 7.91 0 003.118 3.143l.978-1.744zm-2.336-2.348c-.543-1.025-.829-2.229-.829-3.639h-2c0 1.687.344 3.221 1.062 4.575l1.767-.936zm-.829-3.639c0-1.425.287-2.626.827-3.633l-1.762-.946c-.721 1.344-1.065 2.881-1.065 4.579h2zm.822-3.625a5.782 5.782 0 012.335-2.335l-.962-1.753a7.768 7.768 0 00-3.126 3.126l1.753.962zm2.343-2.339c1-.561 2.215-.862 3.682-.862v-2c-1.744 0-3.309.359-4.66 1.117l.978 1.745zm3.682-.862c1.483 0 2.705.302 3.703.862l.979-1.745c-1.352-.758-2.925-1.117-4.682-1.117v2zm3.712.866a5.782 5.782 0 012.335 2.335l1.753-.962a7.768 7.768 0 00-3.126-3.126l-.962 1.753zm2.335 2.335c.551 1.005.844 2.203.844 3.625h2c0-1.702-.353-3.242-1.091-4.587l-1.753.962zm.844 3.625c0 1.423-.293 2.621-.844 3.626l1.753.962c.738-1.345 1.091-2.885 1.091-4.588h-2zm-.844 3.626a5.91 5.91 0 01-2.344 2.361l.979 1.744a7.91 7.91 0 003.118-3.143l-1.753-.962zm-2.344 2.361c-.998.56-2.22.861-3.703.861v2c1.757 0 3.33-.358 4.682-1.117l-.979-1.744zm-3.703-.987c1.283 0 2.387-.454 3.101-1.484l-1.643-1.14c-.261.375-.676.624-1.458.624v2zm3.098-1.481c.66-.942.934-2.15.934-3.519h-2c0 1.126-.228 1.882-.572 2.373l1.638 1.146zm.934-3.519c0-1.366-.273-2.573-.939-3.505l-1.627 1.163c.337.472.566 1.215.566 2.342h2zm-.931-3.494c-.714-1.029-1.818-1.483-3.101-1.483v2c.782 0 1.197.248 1.458.624l1.643-1.141zm-3.101-1.483c-1.282 0-2.386.454-3.1 1.483l1.643 1.141c.26-.376.676-.624 1.457-.624v-2zm-3.103 1.487c-.632.92-.885 2.124-.885 3.49h2c0-1.156.22-1.901.533-2.357l-1.648-1.133zm-.885 3.49c0 1.369.254 2.575.88 3.505l1.659-1.118c-.32-.474-.539-1.232-.539-2.387h-2zm.888 3.516c.714 1.03 1.818 1.484 3.1 1.484v-2c-.781 0-1.197-.249-1.457-.624l-1.643 1.14zM454.831 222h-1v1h1v-1zm0-15.158v-1h-1v1h1zm11.696 1.075l-.616.789.007.005.007.005.602-.799zm.795 4.881l-.825-.564-.003.005.828.559zm-1.634 1.29l-.377-.926-2.579 1.053 2.659.828.297-.955zm2 1.333l-.802.597.007.009.795-.606zm-8.428-2.795h-1v1h1v-1zm3.805-.28l.565.826.009-.006-.574-.82zm0-1.87l-.564.825.01.007.01.006.544-.838zm-3.805-.28v-1h-1v1h1zm0 8.45h-1v1h1v-1zm0-2.666v-1h-1v1h1zm-3.429 6.02v-15.158h-2V222h2zm-1-14.158h7.761v-2h-7.761v2zm7.761 0c1.583 0 2.643.335 3.319.864l1.232-1.577c-1.159-.905-2.722-1.287-4.551-1.287v2zm3.333.874c.675.509.999 1.156.999 2.039h2c0-1.496-.607-2.74-1.795-3.636l-1.204 1.597zm.999 2.039c0 .592-.149 1.072-.427 1.479l1.651 1.128c.525-.769.776-1.65.776-2.607h-2zm-.43 1.484c-.266.393-.646.704-1.183.923l.755 1.852c.868-.354 1.577-.903 2.085-1.657l-1.657-1.118zm-1.103 2.804c.712.222 1.185.559 1.495.975l1.604-1.194c-.607-.817-1.468-1.368-2.504-1.691l-.595 1.91zm1.502.984c.303.399.483.921.483 1.63h2c0-1.068-.279-2.037-.893-2.842l-1.59 1.212zm.483 1.63c0 1.024-.37 1.783-1.123 2.374l1.236 1.573c1.254-.985 1.887-2.333 1.887-3.947h-2zm-1.123 2.374c-.776.61-1.889.969-3.446.969v2c1.855 0 3.451-.429 4.682-1.396l-1.236-1.573zm-3.446.969h-7.976v2h7.976v-2zm-3.547-7.374h2.451v-2h-2.451v2zm2.451 0c.677 0 1.387-.09 1.919-.454l-1.129-1.651c.007-.005-.037.026-.18.056-.141.029-.34.049-.61.049v2zm1.928-.46c.616-.432.856-1.094.856-1.766h-2c0 .106-.017.145-.017.146l.002-.004.005-.008.007-.007 1.147 1.639zm.856-1.766c0-.669-.24-1.343-.885-1.762l-1.089 1.676a.086.086 0 01-.022-.019.154.154 0 01-.018-.026c-.004-.009.014.025.014.131h2zm-.865-1.749c-.532-.365-1.242-.455-1.919-.455v2c.27 0 .469.021.61.05.143.029.187.06.18.055l1.129-1.65zm-1.919-.455h-2.451v2h2.451v-2zm-3.451 1v2.43h2v-2.43h-2zm1 9.45h2.924v-2h-2.924v2zm2.924 0c.696 0 1.399-.123 1.948-.529.607-.447.858-1.11.858-1.804h-2c0 .11-.019.159-.024.172-.003.006-.005.011-.021.023-.053.039-.253.138-.761.138v2zm2.806-2.333c0-.694-.251-1.357-.858-1.804-.549-.406-1.252-.529-1.948-.529v2c.508 0 .708.099.761.138.016.012.018.017.021.023.005.013.024.062.024.172h2zm-2.806-2.333h-2.924v2h2.924v-2zm-3.924 1v2.666h2v-2.666h-2zm18.197 6.02h-1v1h1v-1zm0-15.158v-1h-1v1h1zm11.868 1.333l-.701.713.005.006.696-.719zm0 7.095l-.701-.712.701.712zm-7.224 1.334v-1.001h-1v1.001h1zm0 5.396v1h1v-1h-1zm0-8.923h-1v1h1v-1zm0-2.709v-1h-1v1h1zM477.457 222v-15.158h-2V222h2zm-1-14.158h7.826v-2h-7.826v2zm7.826 0c1.639 0 2.69.406 3.341 1.046l1.402-1.425c-1.155-1.138-2.799-1.621-4.743-1.621v2zm3.346 1.052c.673.651 1.05 1.555 1.05 2.829h2c0-1.707-.525-3.168-1.658-4.266l-1.392 1.437zm1.05 2.829c0 1.256-.375 2.165-1.055 2.835l1.402 1.425c1.126-1.108 1.653-2.564 1.653-4.26h-2zm-1.055 2.835c-.651.64-1.702 1.045-3.341 1.045v2.001c1.944 0 3.588-.483 4.743-1.621l-1.402-1.425zm-3.341 1.045h-3.182v2.001h3.182v-2.001zm-4.182 1.001V222h2v-5.396h-2zm1 4.396h-4.644v2h4.644v-2zm0-6.923h2.558v-2h-2.558v2zm2.558 0c.649 0 1.322-.134 1.842-.577.551-.468.749-1.125.749-1.777h-2c0 .13-.019.199-.03.228-.009.023-.014.025-.016.026-.01.009-.133.1-.545.1v2zm2.591-2.354c0-.652-.198-1.309-.749-1.777-.52-.443-1.193-.578-1.842-.578v2c.412 0 .535.092.545.101.002.001.007.003.016.026.011.029.03.098.03.228h2zm-2.591-2.355h-2.558v2h2.558v-2zm-3.558 1v2.709h2v-2.709h-2zm14.385 10.901l.489-.872-.489.872zm-2.73-2.752l-.884.468.004.007.003.006.877-.481zm0-8.213l-.877-.481-.004.008.881.473zm2.73-2.731l.481.877.008-.004-.489-.873zm8.364 0l-.49.873.009.004.481-.877zm2.73 10.944l.877.481-.877-.481zm-2.73 2.752l-.49-.872.49.872zm-1.914-3.913l-.819-.573-.002.003.821.57zm0-5.87l-.821.571.007.011.814-.582zm-4.558 0l-.821-.57-.003.004.824.566zm0 5.87l-.829.559.008.011.821-.57zm2.279 3.902c-1.467 0-2.682-.3-3.682-.861l-.978 1.744c1.351.758 2.916 1.117 4.66 1.117v-2zm-3.682-.861a5.914 5.914 0 01-2.343-2.361l-1.753.962a7.91 7.91 0 003.118 3.143l.978-1.744zm-2.336-2.348c-.543-1.025-.829-2.229-.829-3.639h-2c0 1.687.344 3.221 1.062 4.575l1.767-.936zm-.829-3.639c0-1.425.287-2.626.827-3.633l-1.762-.946c-.721 1.344-1.065 2.881-1.065 4.579h2zm.822-3.625a5.782 5.782 0 012.335-2.335l-.962-1.753a7.768 7.768 0 00-3.126 3.126l1.753.962zm2.343-2.339c1-.561 2.215-.862 3.682-.862v-2c-1.744 0-3.309.359-4.66 1.117l.978 1.745zm3.682-.862c1.483 0 2.705.302 3.703.862l.979-1.745c-1.352-.758-2.925-1.117-4.682-1.117v2zm3.712.866a5.782 5.782 0 012.335 2.335l1.753-.962a7.768 7.768 0 00-3.126-3.126l-.962 1.753zm2.335 2.335c.551 1.005.844 2.203.844 3.625h2c0-1.702-.353-3.242-1.091-4.587l-1.753.962zm.844 3.625c0 1.423-.293 2.621-.844 3.626l1.753.962c.738-1.345 1.091-2.885 1.091-4.588h-2zm-.844 3.626a5.91 5.91 0 01-2.344 2.361l.979 1.744a7.91 7.91 0 003.118-3.143l-1.753-.962zm-2.344 2.361c-.998.56-2.22.861-3.703.861v2c1.757 0 3.33-.358 4.682-1.117l-.979-1.744zm-3.703-.987c1.283 0 2.386-.454 3.101-1.484l-1.643-1.14c-.261.375-.676.624-1.458.624v2zm3.098-1.481c.66-.942.934-2.15.934-3.519h-2c0 1.126-.228 1.882-.572 2.373l1.638 1.146zm.934-3.519c0-1.366-.273-2.573-.939-3.505l-1.628 1.163c.338.472.567 1.215.567 2.342h2zm-.931-3.494c-.715-1.029-1.818-1.483-3.101-1.483v2c.782 0 1.197.248 1.458.624l1.643-1.141zm-3.101-1.483c-1.282 0-2.386.454-3.1 1.483l1.643 1.141c.26-.376.676-.624 1.457-.624v-2zm-3.103 1.487c-.632.92-.885 2.124-.885 3.49h2c0-1.156.22-1.901.533-2.357l-1.648-1.133zm-.885 3.49c0 1.369.254 2.575.88 3.505l1.659-1.118c-.32-.474-.539-1.232-.539-2.387h-2zm.888 3.516c.714 1.03 1.818 1.484 3.1 1.484v-2c-.781 0-1.197-.249-1.457-.624l-1.643 1.14zm16.655 3.365l-.472.881.013.007.459-.888zm-2.881-2.753l-.868.498.005.008.863-.506zm0-8.234l-.863-.505-.002.003.865.502zm2.881-2.731l.464.887.003-.002-.467-.885zm7.245-.58l-.301.953.009.003.009.003.283-.959zm2.172 1.118l.937.349.245-.657-.534-.454-.648.762zm-1.355 3.633l-.554.833 1.05.7.441-1.183-.937-.35zm-1.741-.881l-.316.949.012.004.012.003.292-.956zm-4.429.731l-.723-.691.723.691zm0 5.676l-.731.683.008.008.008.008.715-.699zm4.429.731l.292.956.012-.003.012-.004-.316-.949zm1.741-.903l.937-.349-.441-1.183-1.05.7.554.832zm1.355 3.634l.648.761.534-.454-.245-.657-.937.35zm-2.172 1.139l.288.958.01-.003-.298-.955zm-2.838-.613c-1.563 0-2.869-.298-3.948-.856l-.918 1.777c1.415.732 3.048 1.079 4.866 1.079v-2zm-3.935-.849c-1.075-.575-1.898-1.364-2.49-2.376l-1.726 1.011a8.199 8.199 0 003.272 3.128l.944-1.763zm-2.485-2.368c-.574-1.001-.879-2.199-.879-3.631h-2c0 1.723.37 3.276 1.143 4.626l1.736-.995zm-.879-3.631c0-1.431.305-2.62.876-3.604l-1.73-1.004c-.776 1.338-1.146 2.887-1.146 4.608h2zm.874-3.601a6.05 6.05 0 012.482-2.349l-.928-1.773a8.057 8.057 0 00-3.28 3.112l1.726 1.01zm2.485-2.351c1.077-.57 2.38-.874 3.94-.874v-2c-1.822 0-3.457.356-4.874 1.105l.934 1.769zm3.94-.874c.945 0 1.787.125 2.537.362l.603-1.906c-.97-.308-2.02-.456-3.14-.456v2zm2.555.368c.769.227 1.36.541 1.807.921l1.296-1.524c-.7-.595-1.556-1.026-2.537-1.315l-.566 1.918zm1.518-.19l-1.355 3.633 1.874.699 1.355-3.634-1.874-.698zm.137 3.15c-.694-.462-1.364-.81-2.004-1.005l-.584 1.912c.392.12.883.36 1.479.758l1.109-1.665zm-1.98-.998a6.501 6.501 0 00-2.058-.309v2c.557 0 1.029.074 1.426.207l.632-1.898zm-2.058-.309c-1.355 0-2.542.391-3.41 1.298l1.446 1.382c.393-.411.998-.68 1.964-.68v-2zm-3.41 1.298c-.853.892-1.202 2.117-1.202 3.507h2c0-1.074.268-1.727.648-2.125l-1.446-1.382zm-1.202 3.507c0 1.403.348 2.638 1.194 3.543l1.461-1.366c-.386-.413-.655-1.085-.655-2.177h-2zm1.21 3.559c.869.889 2.053 1.268 3.402 1.268v-2c-.973 0-1.58-.265-1.972-.666l-1.43 1.398zm3.402 1.268c.726 0 1.407-.088 2.034-.28l-.584-1.912a4.99 4.99 0 01-1.45.192v2zm2.058-.287c.628-.21 1.29-.56 1.98-1.02l-1.109-1.664c-.6.4-1.099.652-1.503.786l.632 1.898zm.488-1.503l1.355 3.634 1.874-.699-1.355-3.633-1.874.698zm1.644 2.523c-.451.383-1.048.705-1.821.946l.595 1.91c.976-.304 1.826-.741 2.522-1.333l-1.296-1.523zm-1.811.943c-.754.226-1.602.345-2.551.345v2c1.116 0 2.16-.139 3.126-.429l-.575-1.916zm7.445.378l-.471.881.012.007.459-.888zm-2.881-2.753l-.867.498.004.008.863-.506zm0-8.234l-.863-.505-.002.003.865.502zm2.881-2.731l.464.887.004-.002-.468-.885zm7.246-.58l-.302.953.009.003.01.003.283-.959zm2.171 1.118l.937.349.245-.657-.534-.454-.648.762zm-1.354 3.633l-.555.833 1.051.7.441-1.183-.937-.35zm-1.742-.881l-.316.949.012.004.012.003.292-.956zm-4.429.731l-.722-.691h-.001l.723.691zm0 5.676l-.73.683.007.008.008.008.715-.699zm4.429.731l.293.956.012-.003.012-.004-.317-.949zm1.742-.903l.937-.349-.441-1.183-1.051.7.555.832zm1.354 3.634l.648.761.534-.454-.245-.657-.937.35zm-2.171 1.139l.287.958.01-.003-.297-.955zm-2.838-.613c-1.564 0-2.87-.298-3.948-.856l-.919 1.777c1.415.732 3.048 1.079 4.867 1.079v-2zm-3.936-.849a6.206 6.206 0 01-2.49-2.376l-1.726 1.011c.784 1.339 1.882 2.384 3.273 3.128l.943-1.763zm-2.485-2.368c-.574-1.001-.878-2.199-.878-3.631h-2c0 1.723.369 3.276 1.143 4.626l1.735-.995zm-.878-3.631c0-1.431.304-2.62.875-3.604l-1.73-1.004c-.776 1.338-1.145 2.887-1.145 4.608h2zm.873-3.601a6.056 6.056 0 012.482-2.349l-.927-1.773a8.06 8.06 0 00-3.281 3.112l1.726 1.01zm2.486-2.351c1.077-.57 2.379-.874 3.94-.874v-2c-1.822 0-3.458.356-4.875 1.105l.935 1.769zm3.94-.874c.944 0 1.786.125 2.536.362l.604-1.906c-.971-.308-2.02-.456-3.14-.456v2zm2.555.368c.768.227 1.36.541 1.807.921l1.295-1.524c-.7-.595-1.556-1.026-2.536-1.315l-.566 1.918zm1.517-.19l-1.354 3.633 1.874.699 1.354-3.634-1.874-.698zm.137 3.15c-.693-.462-1.364-.81-2.003-1.005l-.585 1.912c.392.12.883.36 1.479.758l1.109-1.665zm-1.979-.998a6.506 6.506 0 00-2.058-.309v2c.557 0 1.028.074 1.425.207l.633-1.898zm-2.058-.309c-1.356 0-2.543.391-3.41 1.298l1.445 1.382c.394-.411.998-.68 1.965-.68v-2zm-3.411 1.298c-.852.892-1.201 2.117-1.201 3.507h2c0-1.074.267-1.727.647-2.125l-1.446-1.382zm-1.201 3.507c0 1.403.347 2.638 1.194 3.543l1.461-1.366c-.387-.413-.655-1.085-.655-2.177h-2zm1.209 3.559c.869.889 2.054 1.268 3.403 1.268v-2c-.973 0-1.58-.265-1.973-.666l-1.43 1.398zm3.403 1.268c.725 0 1.406-.088 2.034-.28l-.585-1.912a4.987 4.987 0 01-1.449.192v2zm2.058-.287c.627-.21 1.289-.56 1.979-1.02l-1.109-1.664c-.6.4-1.099.652-1.503.786l.633 1.898zm.488-1.503l1.354 3.634 1.874-.699-1.354-3.633-1.874.698zm1.644 2.523c-.451.383-1.049.705-1.822.946l.595 1.91c.976-.304 1.826-.741 2.522-1.333l-1.295-1.523zm-1.812.943c-.754.226-1.601.345-2.55.345v2c1.115 0 2.159-.139 3.125-.429l-.575-1.916zm4.235 1.087h-1v1h1v-1zm0-15.158v-1h-1v1h1zm4.3 0h1v-1h-1v1zm0 7.869h-1v2.812l1.775-2.18-.775-.632zm6.407-7.869v-1h-.476l-.3.369.776.631zm3.375 0h1v-1h-1v1zm0 15.158v1h1v-1h-1zm-4.3 0h-1v1h1v-1zm0-7.869h1v-2.812l-1.775 2.181.775.631zM541.183 222v1h.475l.3-.369-.775-.631zm-2.375 0v-15.158h-2V222h2zm-1-14.158h4.3v-2h-4.3v2zm3.3-1v7.869h2v-7.869h-2zm1.775 8.501l6.407-7.869-1.551-1.263-6.407 7.869 1.551 1.263zm5.632-7.501h3.375v-2h-3.375v2zm2.375-1V222h2v-15.158h-2zm1 14.158h-4.3v2h4.3v-2zm-3.3 1v-7.869h-2V222h2zm-1.775-8.5l-6.407 7.869 1.55 1.262 6.408-7.869-1.551-1.262zm-5.632 7.5h-3.375v2h3.375v-2zm13.211 1h-1v1h1v-1zm0-15.158v-1h-1v1h1zm4.3 0h1v-1h-1v1zm0 7.869h-1v2.812l1.776-2.18-.776-.632zm6.407-7.869v-1h-.475l-.3.369.775.631zm3.376 0h1v-1h-1v1zm0 15.158v1h1v-1h-1zm-4.3 0h-1v1h1v-1zm0-7.869h1v-2.812l-1.776 2.181.776.631zM557.77 222v1h.475l.3-.369-.775-.631zm-2.376 0v-15.158h-2V222h2zm-1-14.158h4.3v-2h-4.3v2zm3.3-1v7.869h2v-7.869h-2zm1.776 8.501l6.407-7.869-1.551-1.263-6.407 7.869 1.551 1.263zm5.631-7.501h3.376v-2h-3.376v2zm2.376-1V222h2v-15.158h-2zm1 14.158h-4.3v2h4.3v-2zm-3.3 1v-7.869h-2V222h2zm-1.776-8.5l-6.406 7.869 1.55 1.262 6.407-7.869-1.551-1.262zm-5.631 7.5h-3.376v2h3.376v-2z" fill="#fff" mask="url(#b)"/></svg>