<svg width="154" height="379" fill="none" xmlns="http://www.w3.org/2000/svg"><g filter="url(#filter0_d_456_2972)"><path fill-rule="evenodd" clip-rule="evenodd" d="M89.578 82.921l24.006-29.402a1.996 1.996 0 012.254-.628 2.001 2.001 0 011.348 1.913v44.838c0 1.118.914 2.032 2.03 2.032h19.566c1.119 0 2.03-.914 2.03-2.032V15.657a2.035 2.035 0 00-2.03-2.032h-20.588c-.656 0-1.22.278-1.616.801l-27.61 36.331v-.171L78.76 63.77a1.972 1.972 0 01-1.605.788 1.97 1.97 0 01-1.603-.788L65.343 50.586v.171l-27.609-36.33a1.968 1.968 0 00-1.616-.802H15.53c-1.118 0-2.03.914-2.03 2.032v83.985c0 1.118.912 2.032 2.03 2.032h19.564a2.037 2.037 0 002.032-2.032V54.804c0-.874.524-1.618 1.346-1.913a1.994 1.994 0 012.254.629l24.008 29.4c.4.49.941.748 1.571.748h21.7a1.97 1.97 0 001.572-.748h.001zM13.5 276.733v83.983c0 1.12.912 2.034 2.03 2.034h19.564a2.037 2.037 0 002.032-2.034v-28.79c0-1.12.91-2.032 2.029-2.032h2.922c1.024 0 1.874.748 2.012 1.763 2.586 19.236 14.384 33.718 45.596 33.718h4.725c36.093 0 46.2-19.449 46.2-43.232v-6.838c0-23.783-10.106-43.234-46.2-43.234h-4.725c-31.86 0-43.429 15.115-45.755 34.998a2.024 2.024 0 01-2.014 1.8h-2.761a2.035 2.035 0 01-2.03-2.034v-30.102c0-1.12-.913-2.035-2.031-2.035H15.529a2.036 2.036 0 00-2.029 2.035zm53.61 41.989c0-13.271 0-25.494 24.937-25.494 24.938 0 24.938 12.223 24.938 25.494 0 13.406 0 25.627-24.938 25.627S67.11 332.128 67.11 318.722zm-1.766-172.526v62.955c0 1.12-.913 2.033-2.03 2.033H39.156a2.034 2.034 0 01-2.029-2.033v-62.955c0-1.12-.913-2.034-2.031-2.034H15.53c-1.118 0-2.03.914-2.03 2.034v83.982c0 1.118.912 2.033 2.03 2.033h123.253a2.036 2.036 0 002.029-2.033v-83.982c0-1.12-.911-2.034-2.029-2.034h-19.564a2.037 2.037 0 00-2.032 2.034v62.955c0 1.12-.91 2.033-2.029 2.033h-24.16a2.034 2.034 0 01-2.029-2.033v-62.955c0-1.12-.913-2.034-2.03-2.034H67.375c-1.119 0-2.03.914-2.03 2.034z" fill="#FEFEFE"/></g><defs><filter id="filter0_d_456_2972" x=".375" y=".5" width="153.562" height="378" filterUnits="userSpaceOnUse" color-interpolation-filters="sRGB"><feFlood flood-opacity="0" result="BackgroundImageFix"/><feColorMatrix in="SourceAlpha" values="0 0 0 0 0 0 0 0 0 0 0 0 0 0 0 0 0 0 127 0" result="hardAlpha"/><feOffset/><feGaussianBlur stdDeviation="6.563"/><feComposite in2="hardAlpha" operator="out"/><feColorMatrix values="0 0 0 0 0 0 0 0 0 0 0 0 0 0 0 0 0 0 0.1 0"/><feBlend in2="BackgroundImageFix" result="effect1_dropShadow_456_2972"/><feBlend in="SourceGraphic" in2="effect1_dropShadow_456_2972" result="shape"/></filter></defs></svg>