<svg width="441" height="441" fill="none" xmlns="http://www.w3.org/2000/svg"><path opacity=".25" d="M443.689-4.544H302.251a10013.31 10013.31 0 00-65.32 0H-3.338v446.992H79.49c4.46-.018 9.045-.018 13.736-.053 12.073-.231 24.093-.39 36.059-.514 11.967-.124 23.898-.159 35.829-.159 11.931 0 23.862.053 35.811.177 11.966.124 23.951.283 36.006.513 5.576 0 11.134.018 16.675.018h190.101M-3.338 18.979h206.759c42.272-1.982 83.553-1.982 127.454-.018 4.319.018 8.55.018 12.71.018h100.104M-3.338 42.502h173.603c5.47.018 10.975.035 16.534.088 52.999-.053 108.035-3.982 160.326-.141 4.709.053 9.294.053 13.755.053h82.827M-3.338 66.025h157.37c5.506 0 10.993.16 16.463.407 63.426-.3 128.286-2.265 190.296-.478 8.232.089 16.003.089 23.26.089h59.674M-3.338 89.566h157.37a105.17 105.17 0 0113.489-.69c31.014.85 58.541 6.743 89.979 10.672 39.316 5.895 76.65-5.894 116.355-9.982h69.852M-3.338 113.089h157.37c4.55-.354 9.046-.389 13.489-.177 4.461.212 8.869.655 13.188 1.115 45.335 1.239 84.651 26.798 127.897 28.762 23.579 0 41.281-19.647 63.143-27.647 3.965-1.398 8.019-2.389 12.249-2.796a44.48 44.48 0 0113.224.743h46.485M-3.338 136.612h157.37a152.545 152.545 0 0118.924.354c6.195.496 12.285 1.257 18.197 2 29.014 1.859 54.558 13.647 80.119 25.435 41.281 17.682 76.65-5.894 111.257-24.603 5.258-1.947 10.674-3.381 16.321-4a57.007 57.007 0 0117.72.814h27.155M-3.338 160.135h157.37c5.364 0 10.781 0 16.251.018a646.782 646.782 0 0019.26 3.717c54.221 6.425 109.256 31.983 163.884 16.974a120.109 120.109 0 0017.985-6.514c5.966-2.708 11.896-6 17.808-9.929 9.825-5.894 17.685-3.93 27.403-4.23 8.515-.036 15.312-.036 19.95-.036h7.169m-447.08 23.523h190.101c5.541 0 11.117.018 16.976.354 41.972 13.806 85.2 17.735 128.003 14.974a431.975 431.975 0 0021.243-2.407c21.242-2.938 42.449-7.434 63.656-12.832 8.461-.089 15.259-.089 19.897-.089h7.169M-3.338 207.199H203.44c5.576 0 11.169 0 16.869.124 41.122 6.23 80.438 16.054 123.666 10.16 25.544-3.93 47.176-11.788 72.614-10.249 5.664-.035 10.585-.035 14.604-.035h12.515M-3.338 230.722H66.48a1861.961 1861.961 0 0028.305.319c23.19.177 46.786.177 69.976-.319h55.442c5.594 0 11.17 0 16.782.018 55.902 6.372 110.938 4.407 165.619.106 8.373-.124 15.79-.124 21.897-.124h19.207M-3.338 254.245h27.155c6.85.071 13.684.106 20.481.106 59.886-3.469 116.886.461 175.887-.106h20.923c6.957 0 13.896 0 20.8.018 40.803.549 84.031.549 125.436.035 8.532-.053 16.339-.053 23.243-.053h33.12M-3.338 277.768s6.992 0 19.083.018c6.09-.142 12.161-.319 18.197-.637 68.295-12.532 135.119-2.691 203.006.619h60.612c20.906.62 44.485.62 66.01 0h80.172m-447.08 23.523s4.479 0 12.41.018c6.956-.531 13.895-1.168 20.764-2.177 66.506-22.709 137.26-14.85 206.829 2.053 5.842.089 11.418.106 16.941.106h190.101M-3.338 324.814s4.479 0 12.374.018c6.036.779 11.86.726 17.507-.141 22.623-5.045 40.307-20.762 63.904-26.656 51.106-11.788 94.351 15.717 143.669 22.779a311.635 311.635 0 0119.508 4h190.101M-3.338 348.355h12.48c4.107.195 8.302.46 12.444.567 27.58 4.141 39.37-25.329 62.966-33.188 19.649-7.858 41.281-3.929 60.93 1.965 29.492 9.824 57.001 21.612 88.758 25.736 6.691 1.433 13.046 3.009 19.33 4.672 5.577.231 11.082.231 16.534.248h173.603M-3.338 371.878H9.177c4.019 0 8.94 0 14.587-.017 11.63-3.08 27.35 2.832 35.209-7.009 49.141-56.994 117.93-5.895 175.763 1.203a329.091 329.091 0 0118.834 5.54c5.559.248 11.064.248 16.534.266h173.603m-447.045 23.54h27.155c5.7 0 12.179 0 19.33-.07 6.02-.992 11.914.991 15.844-.992 49.14-39.311 104.176-15.717 156.644-6.991 6.514 1.204 12.834 2.443 19.154 3.805a676.833 676.833 0 0118.817 4.125c5.541.088 11.028.106 16.498.123h173.603M-3.338 418.925h46.485c7.152 0 14.976 0 23.367-.018 6.178-1.593 12.391-2.938 18.605-4.107 30.872-4.743 62.311-6.708 93.678-3.203 6.32.407 12.569.885 18.8 1.398 6.178.531 12.338 1.08 18.445 1.664 6.231.531 12.48 1.15 18.729 1.858a700.642 700.642 0 0118.817 2.39c5.541 0 11.028.018 16.498.018h173.603M20.188 442.448v-46.48c0-7.151 0-14.974-.018-23.346a3905.42 3905.42 0 01-.336-34.78 3690.063 3690.063 0 010-34.32c.053-11.452.16-22.957.319-34.639.035-5.469.053-10.974.053-16.496V-4.527m23.508 446.975v-46.533c-2.408-40.887-2.408-80.198-1.735-120.802.549-13.009 1.133-26.302 1.735-39.417V-4.544m23.543 446.992v-7.169c0-4.655 0-11.434-.017-20.054-10.214-54.303-12.18-113.261-2.39-167.83.761-6.159 1.54-12.496 2.372-18.85.053-4.797.053-9.593.053-14.372V-4.544m23.508 446.992c-1.009-6.301-2-12.567-2.938-18.815-11.17-60.746-20.995-123.634-1.664-183.654 1.398-5.894 2.885-12.036 4.55-18.231.035-5.133.035-10.248.035-15.363V-4.545m23.543 446.515c.213-5.47 0-10.833-.584-16.107-5.594-41.347-35.085-78.676-29.19-123.881 3.93-29.488 31.456-49.135 29.757-80.924.017-4.885.017-9.788.017-14.655V-4.527m23.473 445.382a106.082 106.082 0 00-2-19.983c-21.756-57.985-55.16-118.908-4.054-175.902 5.895-3.929 7.86-13.752 6.125-23.93v-14.655c-.018-107.403-.018-210.93-.018-210.93m23.437 444.851c-1.38-6.956-2.779-13.877-4.372-20.762-23.225-60.587-40.927-127.403 4.018-183.813.354-5.593.443-11.186.443-16.779v-82.074c-.177-23.577-.177-47.17 0-71.596V-4.562m23.49 445.47a1323.96 1323.96 0 01-2.248-18.709c-1.009-6.213-1.965-12.443-3.151-18.656-24.145-56.374-12.356-113.367 5.258-167.83.195-7.327.195-14.673.195-22v-36.462a1029.297 1029.297 0 00.743-36.391c-.85-37.4-.85-72.782-.743-109.155V-4.58m23.525 446.55c-.194-6.337-.371-12.673-.495-18.992-.159-6.372-.283-12.726-.425-19.134-12.905-48.816-5.045-99.915.779-151.475.141-5.54.141-11.098.141-16.673v-29.311a349.645 349.645 0 001.647-12.939c.442-4.248.814-8.46 1.115-12.655 5.045-59.631-2.815-116.624-2.762-175.671v-9.664m23.526 446.992v-59.737c0-6.549-.053-13.081-.194-19.576-1.771-31.665.194-63.118.212-94.252v-40.94c2.461-5.982 4.479-12 6.125-18.071 11.559-71.012-8.09-143.723-6.125-214.416m23.508 446.992V395.95c.053-21.275.053-42.887 0-64.463v-80.162c.018-9.08.531-18.036 2.496-26.196 1.965-8.16 5.417-15.541 11.276-21.452 7.895-9.806 13.79-21.594 13.79-35.347-3.93-58.958-35.386-112.022-27.579-172.892m23.543 447.01V268.865c-2.885-14.885 1.062-28.231 6.975-40.798 1.965-4.195 4.16-8.283 6.372-12.337 14.268-19.877 20.163-43.47 16.233-69.011-11.789-53.064-37.351-98.27-29.598-151.28m23.544 447.009V282.689c-3.824-26.444 8.019-48.374 18.074-71.118 2.513-5.682 4.903-11.417 6.886-17.293 4.691-12.195 6.656-25.966 4.691-37.754-15.72-55.028-37.351-104.163-29.651-161.086m23.544 447.01V282.689c-3.081-28.161 8.691-53.312 16.108-80.251 1.487-5.381 2.797-10.85 3.771-16.408 1.965-55.029-25.544-108.093-19.915-163.529.036-8.443.036-15.222.036-19.877v-7.168m23.525 446.992V281.875c4.072-36.143 8.073-71.897 9.064-107.81.159-7.169.212-14.355.088-21.576-.991-37.223-8.851-72.605-9.169-110.571.017-7.133.017-13.611.017-19.328V-4.562m23.526 447.01V282.689c0-5.115 0-10.266.018-15.452 2.974-41.719 3.877-82.163 2.673-122.784-.177-5.806-.389-11.611-.655-17.417-1.699-15.682-1.699-33.382-2.036-48.745V-4.527m23.526 446.975V260.635c0-4.815 0-9.647.036-14.479.354-40.497 2.319-83.738 0-124.73-.036-4.496-.036-8.886-.036-13.187V-4.562m23.526 447.01V218.952c.46-21.134.46-44.728 0-66.162V-4.562m23.526 447.01V-4.544" stroke="#fff" stroke-width=".63" stroke-miterlimit="10"/></svg>