<svg width="310" height="310" fill="none" xmlns="http://www.w3.org/2000/svg"><path d="M154.834 102.27V.191m6.206 102.464L173.088 1.264m-5.923 102.483l23.914-99.248M173.13 105.566l35.437-95.729m-29.758 98.216l46.514-90.876m-41.156 94.031l56.905-84.749m-51.953 88.53l66.507-77.448m-62.04 81.775l75.18-69.056m-71.237 73.87l82.78-59.694m-79.446 64.951l89.249-49.502m-86.56 55.123l94.465-38.643m-92.464 44.528l98.366-27.218m-97.05 33.305l100.872-15.409m-100.307 21.597l102.005-3.397m-102.167 9.625l101.681 8.655m-102.57-2.508l99.943 20.606m-101.56-14.6l96.83 32.274m-99.136-26.49l92.322 43.476m-95.313-38.017l86.58 54.072m-90.178-48.996l79.586 63.9m-83.752-59.289l71.48 72.858m-76.168-68.774l62.404 80.786m-67.539-77.268l52.418 87.58m-57.936-84.708l41.723 93.161m-47.545-90.956l30.464 97.427m-36.509-95.932l18.76 100.36m-24.924-99.571l6.792 101.856m-13.019-101.816L146.83 309.44m-.89-102.645l-17.284 100.623m11.22-102.038l-29.008 97.872m23.164-99.976l-40.37 93.748m34.812-96.558l-51.143 88.348m45.949-91.765l-61.191 81.695m56.44-85.719l-70.409 73.89m66.165-78.44l-78.637 65.073m74.977-70.088l-85.773 55.326m82.7-60.746l-91.675 44.812m89.289-50.555L8.822 205.986m94.646-39.674l-99.64 22.082m98.65-28.23L.938 170.336m101.276-16.4L.189 152.055m102.511-4.307L1.604 133.816m102.309 7.826L5.163 115.88m100.67 19.837l-95.01-37.228m97.618 31.586L18.484 81.887m93.212 42.889l-83.65-58.48m87.511 53.587l-76.17-67.924m80.576 63.536L52.344 39.037m72.511 72.616l-58.138-83.9m63.456 80.665L82.344 18.25m53.488 87.579L98.96 10.646m42.796 93.282l-25.37-98.884m31.473 97.691L134.315 1.567" stroke="#fff" stroke-width=".63" stroke-miterlimit="10"/></svg>