<svg width="35" height="35" fill="none" xmlns="http://www.w3.org/2000/svg"><path d="M6.166 26.797a1.108 1.108 0 001.367.806 37.324 37.324 0 0119.92 0 1.107 1.107 0 001.367-.806l3.487-14.807a1.093 1.093 0 00-1.504-1.258l-6.918 3.076a1.108 1.108 0 01-1.408-.464l-4.02-7.247a1.094 1.094 0 00-1.914 0l-4.02 7.247a1.108 1.108 0 01-1.408.464l-6.918-3.076a1.095 1.095 0 00-1.504 1.258l3.473 14.807zm6.959-4.69a40.704 40.704 0 018.75 0" stroke="#080708" stroke-width="2" stroke-linecap="round" stroke-linejoin="round"/></svg>