<svg width="35" height="35" fill="none" xmlns="http://www.w3.org/2000/svg"><path d="M24.063 8.75H10.938v6.563h13.124V8.75z" stroke="#080708" stroke-width="2" stroke-linecap="round" stroke-linejoin="round"/><path d="M28.438 29.531V5.47c0-.604-.49-1.094-1.094-1.094H7.656c-.604 0-1.093.49-1.093 1.094v24.06c0 .604.49 1.094 1.093 1.094h19.688c.604 0 1.093-.49 1.093-1.094z" stroke="#080708" stroke-width="2" stroke-linecap="round" stroke-linejoin="round"/><path d="M12.031 21.875a1.64 1.64 0 100-3.281 1.64 1.64 0 000 3.281zm5.469 0a1.64 1.64 0 100-3.281 1.64 1.64 0 000 3.281zm5.469 0a1.64 1.64 0 100-3.281 1.64 1.64 0 000 3.281zm-10.938 5.469a1.64 1.64 0 100-3.282 1.64 1.64 0 000 3.282zm5.469 0a1.64 1.64 0 100-3.282 1.64 1.64 0 000 3.282zm5.469 0a1.64 1.64 0 100-3.282 1.64 1.64 0 000 3.282z" fill="#080708"/></svg>