<svg width="88" height="76" fill="none" xmlns="http://www.w3.org/2000/svg"><path d="M84.422 54.68a3.048 3.048 0 00-2.305-1.055H78.25V13A12.54 12.54 0 0065.75.5H12.625A12.539 12.539 0 00.125 13a12.305 12.305 0 003.203 8.32 3.086 3.086 0 004.375.274 3.126 3.126 0 00.274-4.414A6.25 6.25 0 1118.875 13v50a12.54 12.54 0 0012.5 12.5h43.75a12.54 12.54 0 0012.5-12.5 12.305 12.305 0 00-3.203-8.32zM37.625 25.5h25a3.125 3.125 0 110 6.25h-25a3.125 3.125 0 110-6.25zM34.5 41.125A3.125 3.125 0 0137.625 38h25a3.125 3.125 0 110 6.25h-25a3.125 3.125 0 01-3.125-3.125zM75.125 69.25h-32.93a12.578 12.578 0 001.68-6.25 12.033 12.033 0 00-.39-3.125h37.07a6.29 6.29 0 01-5.43 9.375z" fill="#000"/><path d="M84.422 54.68a3.048 3.048 0 00-2.305-1.055H78.25V13A12.54 12.54 0 0065.75.5H12.625A12.539 12.539 0 00.125 13a12.305 12.305 0 003.203 8.32 3.086 3.086 0 004.375.274 3.126 3.126 0 00.274-4.414A6.25 6.25 0 1118.875 13v50a12.54 12.54 0 0012.5 12.5h43.75a12.54 12.54 0 0012.5-12.5 12.305 12.305 0 00-3.203-8.32zM37.625 25.5h25a3.125 3.125 0 110 6.25h-25a3.125 3.125 0 110-6.25zM34.5 41.125A3.125 3.125 0 0137.625 38h25a3.125 3.125 0 110 6.25h-25a3.125 3.125 0 01-3.125-3.125zM75.125 69.25h-32.93a12.578 12.578 0 001.68-6.25 12.033 12.033 0 00-.39-3.125h37.07a6.29 6.29 0 01-5.43 9.375z" fill="url(#paint0_linear_3049_3469)"/><defs><linearGradient id="paint0_linear_3049_3469" x1="28.03" y1="-55.898" x2="-24.181" y2="55.05" gradientUnits="userSpaceOnUse"><stop stop-color="#A42E32"/><stop offset="1" stop-color="#E52A31"/></linearGradient></defs></svg>