<svg width="88" height="76" fill="none" xmlns="http://www.w3.org/2000/svg"><path d="M31.5 63.25a9.415 9.415 0 019.375 9.375 3.125 3.125 0 106.25 0A9.415 9.415 0 0156.5 63.25h25A6.25 6.25 0 0087.75 57V7A6.25 6.25 0 0081.5.75H62.75a15.625 15.625 0 00-15.625 15.625v31.25a3.125 3.125 0 11-6.25 0v-31.25A15.625 15.625 0 0025.25.75H6.5A6.25 6.25 0 00.25 7v50a6.25 6.25 0 006.25 6.25h25z" fill="#000"/><path d="M31.5 63.25a9.415 9.415 0 019.375 9.375 3.125 3.125 0 106.25 0A9.415 9.415 0 0156.5 63.25h25A6.25 6.25 0 0087.75 57V7A6.25 6.25 0 0081.5.75H62.75a15.625 15.625 0 00-15.625 15.625v31.25a3.125 3.125 0 11-6.25 0v-31.25A15.625 15.625 0 0025.25.75H6.5A6.25 6.25 0 00.25 7v50a6.25 6.25 0 006.25 6.25h25z" fill="url(#paint0_linear_3049_3463)"/><defs><linearGradient id="paint0_linear_3049_3463" x1="28.155" y1="-55.648" x2="-24.056" y2="55.3" gradientUnits="userSpaceOnUse"><stop stop-color="#A42E32"/><stop offset="1" stop-color="#E52A31"/></linearGradient></defs></svg>