<svg width="88" height="88" fill="none" xmlns="http://www.w3.org/2000/svg"><path d="M82.242 34.156c-1.484-1.523-3.008-3.125-3.594-4.492-.585-1.367-.546-3.398-.585-5.469-.04-3.789-.118-8.125-3.126-11.133-3.007-3.007-7.343-3.085-11.132-3.124-2.07-.04-4.18-.079-5.47-.586-1.288-.508-2.968-2.11-4.491-3.594C51.148 3.18 48.062.25 44 .25c-4.063 0-7.148 2.93-9.844 5.508-1.523 1.484-3.125 3.008-4.492 3.594-1.367.585-3.398.546-5.469.585-3.789.04-8.125.118-11.133 3.126-3.007 3.007-3.085 7.343-3.124 11.132-.04 2.07-.079 4.18-.586 5.47-.508 1.288-2.11 2.968-3.594 4.491C3.18 36.852.25 39.938.25 44c0 4.063 2.93 7.148 5.508 9.844 1.484 1.523 3.008 3.125 3.594 4.492.585 1.367.546 3.398.585 5.469.04 3.789.118 8.125 3.126 11.133 3.007 3.007 7.343 3.085 11.132 3.124 2.07.04 4.18.079 5.47.586 1.288.508 2.968 2.11 4.491 3.594C36.852 84.82 39.938 87.75 44 87.75c4.063 0 7.148-2.93 9.844-5.508 1.523-1.484 3.125-3.008 4.492-3.594 1.367-.585 3.398-.546 5.469-.585 3.789-.04 8.125-.118 11.133-3.126 3.007-3.007 3.085-7.343 3.124-11.132.04-2.07.079-4.18.586-5.47.508-1.288 2.11-2.968 3.594-4.491C84.82 51.148 87.75 48.062 87.75 44c0-4.063-2.93-7.148-5.508-9.844zm-18.906 2.735l-22.89 21.875a3.164 3.164 0 01-2.188.859 3.086 3.086 0 01-2.149-.86L24.664 47.829a3.122 3.122 0 01-.213-4.505 3.123 3.123 0 014.51-.026l9.297 8.867L59.039 32.36a3.125 3.125 0 014.297 4.532z" fill="#000"/><path d="M82.242 34.156c-1.484-1.523-3.008-3.125-3.594-4.492-.585-1.367-.546-3.398-.585-5.469-.04-3.789-.118-8.125-3.126-11.133-3.007-3.007-7.343-3.085-11.132-3.124-2.07-.04-4.18-.079-5.47-.586-1.288-.508-2.968-2.11-4.491-3.594C51.148 3.18 48.062.25 44 .25c-4.063 0-7.148 2.93-9.844 5.508-1.523 1.484-3.125 3.008-4.492 3.594-1.367.585-3.398.546-5.469.585-3.789.04-8.125.118-11.133 3.126-3.007 3.007-3.085 7.343-3.124 11.132-.04 2.07-.079 4.18-.586 5.47-.508 1.288-2.11 2.968-3.594 4.491C3.18 36.852.25 39.938.25 44c0 4.063 2.93 7.148 5.508 9.844 1.484 1.523 3.008 3.125 3.594 4.492.585 1.367.546 3.398.585 5.469.04 3.789.118 8.125 3.126 11.133 3.007 3.007 7.343 3.085 11.132 3.124 2.07.04 4.18.079 5.47.586 1.288.508 2.968 2.11 4.491 3.594C36.852 84.82 39.938 87.75 44 87.75c4.063 0 7.148-2.93 9.844-5.508 1.523-1.484 3.125-3.008 4.492-3.594 1.367-.585 3.398-.546 5.469-.585 3.789-.04 8.125-.118 11.133-3.126 3.007-3.007 3.085-7.343 3.124-11.132.04-2.07.079-4.18.586-5.47.508-1.288 2.11-2.968 3.594-4.491C84.82 51.148 87.75 48.062 87.75 44c0-4.063-2.93-7.148-5.508-9.844zm-18.906 2.735l-22.89 21.875a3.164 3.164 0 01-2.188.859 3.086 3.086 0 01-2.149-.86L24.664 47.829a3.122 3.122 0 01-.213-4.505 3.123 3.123 0 014.51-.026l9.297 8.867L59.039 32.36a3.125 3.125 0 014.297 4.532z" fill="url(#paint0_linear_3049_3466)"/><defs><linearGradient id="paint0_linear_3049_3466" x1="28.155" y1="-65.547" x2="-38.543" y2="55.938" gradientUnits="userSpaceOnUse"><stop stop-color="#A42E32"/><stop offset="1" stop-color="#E52A31"/></linearGradient></defs></svg>