<svg width="76" height="79" fill="none" xmlns="http://www.w3.org/2000/svg"><path d="M69.25.625H6.75A6.25 6.25 0 00.5 6.875v22.93c0 34.922 29.61 46.523 35.547 48.476a6.25 6.25 0 003.906 0C45.891 76.328 75.5 64.727 75.5 29.805V6.875a6.25 6.25 0 00-6.25-6.25z" fill="#000"/><path d="M69.25.625H6.75A6.25 6.25 0 00.5 6.875v22.93c0 34.922 29.61 46.523 35.547 48.476a6.25 6.25 0 003.906 0C45.891 76.328 75.5 64.727 75.5 29.805V6.875a6.25 6.25 0 00-6.25-6.25z" fill="url(#paint0_linear_3049_3472)"/><defs><linearGradient id="paint0_linear_3049_3472" x1="24.419" y1="-58.006" x2="-36.233" y2="48.26" gradientUnits="userSpaceOnUse"><stop stop-color="#A42E32"/><stop offset="1" stop-color="#E52A31"/></linearGradient></defs></svg>