<svg width="1920" height="428" fill="none" xmlns="http://www.w3.org/2000/svg"><path fill="#F8F8F8" d="M0 0h1920v428H0z"/><g opacity=".25" stroke="#fff" stroke-miterlimit="10"><path d="M0 21.407h675.831c19.538-1.52 38.847-1.672 57.929-.76 19.157.912 38.087 2.813 56.636 4.789 194.691 5.32 363.534 115.083 549.254 123.52 101.26 0 177.28-84.374 271.17-118.731 17.03-6.005 34.44-10.262 52.61-12.01 18.09-1.672 36.94-.912 56.79 3.192h199.63"/><path d="M0 122.428h675.832c27.671-1.216 54.659-.608 81.267 1.52 26.607 2.128 52.759 5.397 78.15 8.59 124.599 7.981 234.301 58.605 344.071 109.23 177.28 75.936 329.18-25.313 477.8-105.658 22.58-8.361 45.84-14.518 70.09-17.179 24.25-2.66 49.49-1.9 76.1 3.497h116.61"/><path d="M0 223.448h675.832c23.034 0 46.297 0 69.787.076a2775.495 2775.495 0 0082.712 15.963c232.849 27.593 469.209 137.355 703.809 72.896 25.85-7.069 51.62-16.343 77.24-27.973 25.62-11.629 51.08-25.768 76.47-42.643 42.2-25.312 75.95-16.874 117.69-18.167 36.56-.152 65.75-.152 85.67-.152H1920"/><path d="M0 324.469h816.395c23.795 0 47.742.076 72.905 1.52 180.25 59.29 365.89 76.165 549.71 64.307 30.41-2.661 60.82-6.157 91.23-10.338 91.22-12.618 182.3-31.925 273.37-55.109 36.34-.38 65.53-.38 85.45-.38h30.79M0 425.566h888.008c23.946 0 47.969 0 72.448.532 176.594 26.756 345.444 68.943 531.084 43.631 109.7-16.875 202.6-50.624 311.84-44.011 24.33-.152 45.46-.152 62.72-.152h53.75M0 1435.85V-483.772"/><path d="M101.032 1435.85v-199.61c0-30.71 0-64.31-.076-100.26-.684-50.47-1.216-100.11-1.444-149.366-.228-49.332-.228-98.208 0-147.388.228-49.18.684-98.588 1.368-148.756.152-23.488.228-47.128.228-70.844V-483.696M202.065 1435.85v-199.84c-10.339-175.59-10.339-344.411-7.45-518.784a46071.131 46071.131 0 017.45-169.28V-483.772M303.174 1435.85v-30.79c0-19.99 0-49.1-.076-86.12-43.865-233.21-52.303-486.403-10.263-720.75 3.269-26.452 6.614-53.665 10.187-80.953.228-20.599.228-41.199.228-61.722v-939.287M404.207 1435.85c-4.333-27.06-8.591-53.97-12.62-80.8-47.969-260.88-90.161-530.951-7.146-788.709 6.006-25.312 12.392-51.688 19.538-78.293.152-22.043.152-44.011.152-65.979v-905.841"/><path d="M505.239 1433.8c.912-23.49 0-46.52-2.509-69.18-24.022-177.56-150.674-337.87-125.359-532.007 16.877-126.637 135.09-211.011 127.792-347.529.076-20.98.076-42.035.076-62.939v-905.841"/><path d="M606.044 1429.01c-.152-29.12-3.041-57.54-8.59-85.82-93.431-249.02-236.884-510.653-17.409-755.413 25.315-16.875 33.753-59.062 26.303-102.769v-62.939c-.076-461.244-.076-905.841-.076-905.841"/><path d="M706.924 1426.65c-5.93-29.87-11.935-59.59-18.777-89.16-99.74-260.19-175.762-547.14 17.257-789.392 1.52-24.02 1.9-48.04 1.9-72.06v-352.47c-.76-101.249-.76-202.573 0-307.471v-299.945"/><path d="M808.185 1429.24c-3.421-26.76-6.614-53.52-9.655-80.35-4.333-26.68-8.438-53.44-13.532-80.12-103.693-242.1-53.063-486.858 22.579-720.748.836-31.469.836-63.015.836-94.484V296.953a4422.972 4422.972 0 003.193-156.282c-3.649-160.615-3.649-312.564-3.193-468.769v-155.826M909.446 1433.8c-.837-27.22-1.597-54.43-2.129-81.57-.684-27.36-1.216-54.65-1.825-82.17-55.419-209.64-21.666-429.086 3.345-650.51.609-23.792.609-47.66.609-71.604V422.069a1504.016 1504.016 0 007.07-55.565c1.9-18.243 3.497-36.334 4.789-54.349 21.666-256.086-12.088-500.846-11.859-754.424v-41.503M1010.48 1435.85v-256.54c0-28.13-.23-56.18-.84-84.07-7.6-135.99.84-271.064.91-404.771V514.653c10.57-25.693 19.24-51.537 26.31-77.609 49.64-304.962-34.74-617.222-26.31-920.816m100.96 1919.622v-199.69c.23-91.36.23-184.18 0-276.834V615.065c.08-38.994 2.28-77.457 10.72-112.499 8.44-35.041 23.26-66.739 48.43-92.127 33.9-42.111 59.22-92.735 59.22-151.797-16.88-253.197-151.97-481.083-118.45-742.49"/><path d="M1212.54 1435.85V690.393c-12.39-63.926 4.56-121.24 29.96-175.209 8.43-18.014 17.86-35.573 27.36-52.98 61.28-85.362 86.59-186.687 69.72-296.373-50.63-227.885-160.41-422.022-127.11-649.679"/><path d="M1313.58 1435.85V749.759c-16.42-113.563 34.43-207.742 77.61-305.418 10.8-24.4 21.06-49.028 29.58-74.264 20.14-52.373 28.58-111.511 20.14-162.135-67.5-236.323-160.4-447.334-127.33-691.79"/><path d="M1414.68 1435.85V749.759c-13.22-120.936 37.33-228.949 69.18-344.64 6.39-23.108 12.02-46.596 16.2-70.464 8.44-236.323-109.7-464.209-85.53-702.28.15-36.258.15-65.371.15-85.362v-30.785m101.04 1919.622V746.263c17.48-155.218 34.66-308.763 38.92-462.993.68-30.785.91-61.646.38-92.659-4.26-159.854-38.01-311.803-39.38-474.85.08-30.633.08-58.454.08-83.006v-116.603m101.03 1919.698V749.759c0-21.967 0-44.087.08-66.359 12.77-179.161 16.64-352.85 11.48-527.299-.76-24.932-1.68-49.864-2.82-74.796-7.3-67.347-7.3-143.36-8.74-209.338v-355.663m101.03 1919.546V655.048c0-20.676 0-41.427.15-62.179 1.53-173.916 9.96-359.615 0-535.66-.15-19.307-.15-38.158-.15-56.63v-484.427m101.04 1919.698V476.038c1.97-90.759 1.97-192.084 0-284.135v-675.751m101.03 1919.698V-483.772"/></g><g filter="url(#filter0_d_1156_2900)" fill-rule="evenodd" clip-rule="evenodd" fill="#fff"><path d="M491.566 225.895l48.58-4.814a2.578 2.578 0 012.625 1.484 2.57 2.57 0 01-.508 2.966l-40.712 40.713a2.62 2.62 0 00.005 3.695l17.836 17.836a2.619 2.619 0 003.695.005l76.258-76.258a2.62 2.62 0 00-.005-3.696l-18.768-18.767a2.537 2.537 0 00-2.2-.746l-58.156 7.821.155-.156-21.277 2.666a2.541 2.541 0 01-2.178-.748 2.54 2.54 0 01-.746-2.176l2.665-21.278-.155.156 7.821-58.156a2.544 2.544 0 00-.746-2.201l-18.768-18.767a2.618 2.618 0 00-3.695-.005l-76.258 76.258a2.618 2.618 0 00.005 3.695l17.834 17.834a2.62 2.62 0 003.697.007l40.713-40.713a2.57 2.57 0 012.964-.509 2.576 2.576 0 011.484 2.625l-4.812 48.582a2.54 2.54 0 00.753 2.111l19.78 19.78a2.541 2.541 0 002.113.755l.001.001zm-245.331 106.63l-76.256 76.257a2.618 2.618 0 00.003 3.696l17.835 17.835a2.62 2.62 0 003.698.005l26.142-26.142a2.616 2.616 0 013.695.005l2.663 2.663a2.604 2.604 0 01.233 3.436c-15.109 19.823-17.503 43.728 10.948 72.18l4.308 4.307c32.901 32.901 59.773 24.455 81.369 2.859l6.208-6.208c21.595-21.595 30.044-48.469-2.858-81.37l-4.307-4.308c-29.044-29.043-53.313-25.864-73.487-9.93a2.605 2.605 0 01-3.47-.202l-2.517-2.518a2.618 2.618 0 01-.004-3.696l27.333-27.333a2.622 2.622 0 00-.004-3.699l-17.835-17.834a2.619 2.619 0 00-3.697-.003zm10.742 86.995c12.051-12.051 23.149-23.149 45.882-.416 22.732 22.732 11.634 33.83-.417 45.881-12.172 12.172-23.269 23.269-46.001.536-22.733-22.732-11.636-33.829.536-46.001zm155.045-158.264l-57.163 57.163a2.62 2.62 0 01-3.697-.003l-22.022-22.022a2.619 2.619 0 01-.003-3.697l57.163-57.163a2.62 2.62 0 00-.005-3.698l-17.835-17.835a2.618 2.618 0 00-3.696-.003l-76.256 76.256a2.618 2.618 0 00.004 3.695l112.353 112.354a2.62 2.62 0 003.696.004l76.256-76.256a2.619 2.619 0 00-.004-3.697l-17.834-17.834a2.62 2.62 0 00-3.698-.005l-57.163 57.163a2.619 2.619 0 01-3.697-.003l-22.022-22.022a2.619 2.619 0 01-.004-3.697l57.163-57.163a2.62 2.62 0 00-.003-3.697l-17.836-17.836a2.62 2.62 0 00-3.697-.003v-.001zm418.114-373.932l48.58-4.814a2.58 2.58 0 012.625 1.484 2.57 2.57 0 01-.508 2.966l-40.712 40.713a2.62 2.62 0 00.005 3.695l17.835 17.836a2.62 2.62 0 003.696.005l76.258-76.258a2.619 2.619 0 00-.005-3.695l-18.768-18.768a2.538 2.538 0 00-2.201-.746l-58.156 7.821.156-.155-21.277 2.665a2.543 2.543 0 01-2.178-.747 2.546 2.546 0 01-.747-2.177l2.666-21.277-.156.155 7.822-58.156a2.54 2.54 0 00-.747-2.2l-18.767-18.768a2.619 2.619 0 00-3.695-.005l-76.258 76.258a2.618 2.618 0 00.005 3.695l17.834 17.834a2.62 2.62 0 003.697.007l40.712-40.712a2.572 2.572 0 012.965-.51 2.576 2.576 0 011.484 2.625l-4.812 48.582a2.54 2.54 0 00.753 2.111l19.78 19.78a2.541 2.541 0 002.113.755l.001.001zM584.805-6.046l-76.256 76.257a2.619 2.619 0 00.003 3.696l17.835 17.835a2.62 2.62 0 003.698.005l26.142-26.142a2.617 2.617 0 013.695.005l2.663 2.663a2.605 2.605 0 01.233 3.436c-15.109 19.823-17.503 43.728 10.948 72.18l4.307 4.307c32.902 32.901 59.774 24.455 81.369 2.859l6.209-6.208c21.595-21.595 30.044-48.469-2.858-81.37l-4.307-4.308c-29.044-29.043-53.313-25.864-73.487-9.93a2.606 2.606 0 01-3.47-.202l-2.518-2.517a2.62 2.62 0 01-.003-3.697l27.333-27.333a2.622 2.622 0 00-.004-3.699L588.502-6.043a2.62 2.62 0 00-3.697-.003zm10.742 86.995c12.051-12.05 23.149-23.149 45.881-.416 22.733 22.732 11.635 33.831-.416 45.881-12.172 12.172-23.269 23.269-46.001.537-22.733-22.733-11.636-33.83.536-46.002zM750.592-77.314l-57.163 57.163a2.62 2.62 0 01-3.697-.003L667.71-42.177a2.618 2.618 0 01-.004-3.697l57.163-57.163a2.62 2.62 0 00-.004-3.698L707.03-124.57a2.62 2.62 0 00-3.697-.003l-76.256 76.256a2.62 2.62 0 00.005 3.696L739.435 67.731a2.62 2.62 0 003.696.005L819.387-8.52a2.619 2.619 0 00-.004-3.697l-17.834-17.835a2.62 2.62 0 00-3.698-.005l-57.163 57.163a2.619 2.619 0 01-3.697-.003L714.968 5.082a2.62 2.62 0 01-.003-3.697l57.163-57.163a2.62 2.62 0 00-.003-3.697l-17.836-17.836a2.62 2.62 0 00-3.697-.003zM513.625-66.638l48.58-4.814a2.578 2.578 0 012.625 1.484 2.571 2.571 0 01-.507 2.966L523.61-26.289a2.62 2.62 0 00.005 3.695l17.836 17.836a2.618 2.618 0 003.695.005l76.258-76.258a2.618 2.618 0 00-.005-3.695l-18.767-18.768a2.54 2.54 0 00-2.201-.746l-58.156 7.822.156-.156-21.278 2.665a2.544 2.544 0 01-2.178-.748 2.542 2.542 0 01-.746-2.176l2.665-21.277-.155.155 7.821-58.156a2.544 2.544 0 00-.746-2.201l-18.768-18.767a2.619 2.619 0 00-3.695-.005l-76.258 76.258a2.619 2.619 0 00.005 3.695l17.834 17.834a2.621 2.621 0 003.697.007l40.713-40.713a2.572 2.572 0 012.964-.509 2.576 2.576 0 011.484 2.625l-4.812 48.582a2.54 2.54 0 00.753 2.111l19.78 19.78a2.543 2.543 0 002.113.755h.001zm-245.33 106.63l-76.257 76.257a2.618 2.618 0 00.003 3.696l17.835 17.835a2.62 2.62 0 003.698.005l26.142-26.142a2.618 2.618 0 013.695.005l2.663 2.663a2.604 2.604 0 01.233 3.436c-15.109 19.823-17.503 43.728 10.948 72.18l4.308 4.307c32.901 32.901 59.773 24.455 81.369 2.859l6.208-6.208c21.595-21.595 30.044-48.469-2.858-81.37l-4.307-4.308c-29.044-29.043-53.312-25.864-73.487-9.93a2.606 2.606 0 01-3.47-.202l-2.517-2.517a2.62 2.62 0 01-.004-3.697l27.334-27.333a2.623 2.623 0 00-.005-3.699l-17.834-17.834a2.62 2.62 0 00-3.697-.003zm10.741 86.995c12.051-12.051 23.149-23.149 45.882-.416 22.732 22.732 11.634 33.831-.416 45.881-12.172 12.172-23.27 23.269-46.002.537-22.733-22.733-11.636-33.83.536-46.002zM434.081-31.276l-57.163 57.163a2.62 2.62 0 01-3.697-.003L351.199 3.86a2.618 2.618 0 01-.003-3.697L408.359-57a2.621 2.621 0 00-.005-3.698l-17.835-17.835a2.618 2.618 0 00-3.696-.003L310.567-2.279a2.618 2.618 0 00.004 3.696L422.924 113.77a2.62 2.62 0 003.696.005l76.256-76.257a2.619 2.619 0 00-.004-3.697l-17.834-17.834a2.62 2.62 0 00-3.698-.005l-57.163 57.163a2.619 2.619 0 01-3.697-.003L398.458 51.12a2.618 2.618 0 01-.003-3.697L455.617-9.74a2.62 2.62 0 00-.003-3.697l-17.836-17.836a2.62 2.62 0 00-3.697-.003zM175.054 271.933l48.58-4.814a2.58 2.58 0 012.626 1.484 2.571 2.571 0 01-.508 2.966l-40.713 40.713a2.62 2.62 0 00.005 3.695l17.836 17.836a2.619 2.619 0 003.695.005l76.258-76.258a2.618 2.618 0 00-.005-3.696l-18.767-18.767a2.54 2.54 0 00-2.201-.746l-58.156 7.821.156-.156-21.277 2.666a2.544 2.544 0 01-2.179-.748 2.542 2.542 0 01-.746-2.176l2.666-21.278-.156.156 7.821-58.156a2.54 2.54 0 00-.746-2.201l-18.768-18.767a2.618 2.618 0 00-3.695-.005l-76.258 76.258a2.619 2.619 0 00.005 3.695l17.834 17.834a2.62 2.62 0 003.697.007l40.713-40.713a2.572 2.572 0 012.965-.509 2.576 2.576 0 011.483 2.625l-4.812 48.582a2.54 2.54 0 00.753 2.111l19.78 19.78a2.543 2.543 0 002.114.755v.001zm-245.33 106.63l-76.256 76.257a2.617 2.617 0 00.003 3.696l17.834 17.835a2.623 2.623 0 003.699.005l26.141-26.142a2.616 2.616 0 013.695.005l2.663 2.663a2.605 2.605 0 01.233 3.436c-15.108 19.823-17.503 43.728 10.948 72.18l4.308 4.307c32.901 32.901 59.773 24.455 81.369 2.859l6.208-6.208c21.595-21.595 30.044-48.469-2.858-81.37l-4.307-4.308c-29.043-29.043-53.312-25.864-73.487-9.93a2.607 2.607 0 01-3.47-.202l-2.517-2.518a2.618 2.618 0 01-.003-3.696l27.333-27.333a2.622 2.622 0 00-.005-3.699l-17.834-17.835a2.62 2.62 0 00-3.697-.002zm10.742 86.995c12.05-12.051 23.148-23.149 45.88-.416 22.733 22.732 11.635 33.83-.415 45.881-12.172 12.172-23.27 23.269-46.002.536-22.733-22.732-11.636-33.829.537-46.001zM95.51 307.294l-57.163 57.163a2.62 2.62 0 01-3.696-.003l-22.023-22.022a2.619 2.619 0 01-.003-3.697l57.163-57.163a2.62 2.62 0 00-.005-3.698l-17.834-17.835a2.619 2.619 0 00-3.697-.003l-76.256 76.256a2.618 2.618 0 00.004 3.695L84.353 452.34a2.619 2.619 0 003.696.005l76.256-76.256a2.62 2.62 0 00-.003-3.697l-17.834-17.834a2.622 2.622 0 00-3.699-.005l-57.163 57.163a2.618 2.618 0 01-3.697-.003L59.887 389.69a2.618 2.618 0 01-.003-3.696l57.163-57.163a2.62 2.62 0 00-.004-3.697l-17.836-17.836a2.62 2.62 0 00-3.696-.003v-.001zM80.1 96.413l48.581-4.814a2.578 2.578 0 012.625 1.484 2.57 2.57 0 01-.508 2.966l-40.713 40.713a2.62 2.62 0 00.006 3.695l17.835 17.836a2.618 2.618 0 003.695.005L187.88 82.04a2.618 2.618 0 00-.006-3.695l-18.767-18.768a2.537 2.537 0 00-2.201-.746l-58.156 7.822.156-.156-21.277 2.665a2.545 2.545 0 01-2.178-.748 2.544 2.544 0 01-.747-2.176L87.37 44.96l-.156.155 7.821-58.156a2.54 2.54 0 00-.746-2.2L75.522-34.008a2.618 2.618 0 00-3.695-.005L-4.431 42.245a2.618 2.618 0 00.004 3.695l17.835 17.835a2.62 2.62 0 003.697.006L57.817 23.07a2.572 2.572 0 012.965-.51 2.576 2.576 0 011.484 2.625l-4.812 48.582a2.54 2.54 0 00.753 2.111l19.78 19.78a2.542 2.542 0 002.113.755zm-245.33 106.631l-76.256 76.256a2.618 2.618 0 00.003 3.696l17.834 17.835a2.622 2.622 0 003.699.005l26.141-26.142a2.618 2.618 0 013.695.005l2.664 2.663a2.605 2.605 0 01.232 3.436c-15.108 19.823-17.503 43.728 10.949 72.18l4.307 4.307c32.902 32.901 59.774 24.455 81.37 2.859l6.207-6.208c21.596-21.595 30.044-48.469-2.857-81.37l-4.308-4.308c-29.043-29.043-53.312-25.864-73.486-9.93a2.605 2.605 0 01-3.47-.202l-2.518-2.517a2.62 2.62 0 01-.003-3.697l27.333-27.333a2.622 2.622 0 00-.004-3.699l-17.835-17.834a2.619 2.619 0 00-3.697-.003v.001zm10.742 86.994c12.05-12.051 23.149-23.149 45.881-.416 22.733 22.732 11.635 33.831-.416 45.881-12.172 12.172-23.269 23.269-46.002.537-22.732-22.733-11.635-33.83.537-46.002zM.557 131.775l-57.163 57.163a2.62 2.62 0 01-3.697-.003l-22.023-22.023a2.619 2.619 0 01-.003-3.697l57.163-57.163a2.62 2.62 0 00-.005-3.698l-17.834-17.835a2.619 2.619 0 00-3.697-.003l-76.256 76.256a2.62 2.62 0 00.005 3.696L-10.6 276.821a2.62 2.62 0 003.695.005l76.257-76.257a2.619 2.619 0 00-.004-3.697l-17.834-17.834a2.622 2.622 0 00-3.699-.005l-57.162 57.163a2.618 2.618 0 01-3.697-.003l-22.023-22.022a2.619 2.619 0 01-.003-3.697l57.163-57.163a2.62 2.62 0 00-.003-3.697L4.254 131.778a2.62 2.62 0 00-3.697-.003zm418.115-373.933l48.581-4.813a2.577 2.577 0 012.625 1.483 2.572 2.572 0 01-.508 2.967l-40.713 40.712a2.622 2.622 0 00.005 3.696l17.836 17.835a2.618 2.618 0 003.695.005l76.259-76.258a2.618 2.618 0 00-.006-3.695l-18.767-18.767a2.533 2.533 0 00-2.201-.746l-58.156 7.821.156-.156-21.277 2.666a2.55 2.55 0 01-2.179-.748 2.543 2.543 0 01-.746-2.177l2.666-21.277-.156.156 7.821-58.156a2.54 2.54 0 00-.746-2.201l-18.768-18.768a2.618 2.618 0 00-3.694-.005l-76.259 76.259a2.619 2.619 0 00.005 3.694l17.835 17.835a2.621 2.621 0 003.696.007l40.713-40.713a2.572 2.572 0 012.965-.51 2.577 2.577 0 011.483 2.625l-4.811 48.582a2.538 2.538 0 00.752 2.112l19.781 19.78a2.54 2.54 0 002.113.754v.001zm-245.33 106.631L97.086-59.271a2.619 2.619 0 00.003 3.697l17.834 17.834a2.622 2.622 0 003.699.005l26.141-26.141a2.617 2.617 0 013.695.005l2.663 2.663a2.604 2.604 0 01.233 3.436c-15.108 19.823-17.503 43.728 10.949 72.18l4.307 4.307c32.901 32.9 59.774 24.454 81.369 2.859l6.208-6.209c21.595-21.595 30.044-48.468-2.857-81.37l-4.308-4.307c-29.043-29.044-53.312-25.865-73.486-9.93a2.607 2.607 0 01-3.471-.203l-2.517-2.517a2.618 2.618 0 01-.003-3.697l27.333-27.333a2.621 2.621 0 00-.005-3.699l-17.834-17.834a2.62 2.62 0 00-3.697-.003v.001zm10.742 86.994c12.05-12.05 23.149-23.148 45.881-.416 22.733 22.733 11.634 33.83-.416 45.881-12.172 12.172-23.269 23.27-46.002.537-22.732-22.733-11.636-33.83.537-46.002zm155.044-158.263l-57.162 57.163a2.62 2.62 0 01-3.697-.003l-22.023-22.023a2.62 2.62 0 01-.003-3.697l57.163-57.162a2.622 2.622 0 00-.005-3.699l-17.834-17.834a2.619 2.619 0 00-3.697-.003l-76.256 76.256a2.619 2.619 0 00.004 3.695L327.972-61.75a2.618 2.618 0 003.695.005l76.256-76.256a2.619 2.619 0 00-.003-3.697l-17.834-17.834a2.621 2.621 0 00-3.699-.005l-57.163 57.163a2.618 2.618 0 01-3.696-.003L303.505-124.4a2.619 2.619 0 01-.003-3.697l57.163-57.163a2.62 2.62 0 00-.004-3.697l-17.835-17.836a2.62 2.62 0 00-3.697-.003h-.001zm348.098 507.502l48.58-4.813a2.579 2.579 0 012.625 1.483 2.57 2.57 0 01-.508 2.967l-40.713 40.713a2.62 2.62 0 00.006 3.695l17.835 17.835a2.618 2.618 0 003.695.006l76.259-76.259a2.618 2.618 0 00-.006-3.695l-18.767-18.767a2.536 2.536 0 00-2.201-.746l-58.156 7.821.156-.156-21.277 2.666a2.541 2.541 0 01-2.178-.748 2.546 2.546 0 01-.747-2.177l2.666-21.277-.156.156 7.821-58.156a2.537 2.537 0 00-.746-2.201l-18.767-18.768a2.618 2.618 0 00-3.695-.004l-76.258 76.258a2.619 2.619 0 00.004 3.695l17.835 17.834a2.621 2.621 0 003.697.007l40.712-40.713a2.572 2.572 0 012.965-.51 2.578 2.578 0 011.484 2.626l-4.812 48.582a2.54 2.54 0 00.753 2.111l19.78 19.78a2.541 2.541 0 002.113.755h.001zM441.895 407.337l-76.256 76.256a2.62 2.62 0 00.003 3.697l17.834 17.834a2.621 2.621 0 003.699.005l26.141-26.141a2.616 2.616 0 013.695.005l2.664 2.663a2.605 2.605 0 01.232 3.436c-15.108 19.823-17.503 43.728 10.949 72.179l4.307 4.308c32.902 32.901 59.774 24.454 81.369 2.859l6.208-6.208c21.595-21.595 30.044-48.469-2.857-81.371l-4.308-4.307c-29.043-29.043-53.312-25.865-73.486-9.93a2.607 2.607 0 01-3.47-.202l-2.518-2.518a2.618 2.618 0 01-.003-3.696l27.333-27.334a2.62 2.62 0 00-.004-3.698l-17.835-17.835a2.62 2.62 0 00-3.697-.003v.001zm10.742 86.995c12.05-12.051 23.149-23.149 45.881-.417 22.733 22.733 11.635 33.831-.416 45.882-12.172 12.172-23.269 23.269-46.002.536-22.732-22.732-11.635-33.829.537-46.001zm155.045-158.264l-57.163 57.163a2.62 2.62 0 01-3.697-.003l-22.023-22.023a2.618 2.618 0 01-.003-3.696l57.163-57.163a2.621 2.621 0 00-.005-3.699l-17.834-17.834a2.62 2.62 0 00-3.697-.003l-76.256 76.256a2.618 2.618 0 00.005 3.695l112.353 112.353a2.618 2.618 0 003.695.005l76.257-76.256a2.62 2.62 0 00-.004-3.697l-17.834-17.834a2.622 2.622 0 00-3.699-.005l-57.162 57.163a2.619 2.619 0 01-3.697-.003l-22.023-22.023a2.618 2.618 0 01-.003-3.696l57.163-57.163a2.621 2.621 0 00-.003-3.697l-17.836-17.836a2.619 2.619 0 00-3.697-.003v-.001zM1025.8-37.864l48.58-4.814c1.12-.11 2.14.465 2.62 1.484a2.552 2.552 0 01-.51 2.966l-40.71 40.713a2.623 2.623 0 00.01 3.695l17.83 17.835a2.624 2.624 0 003.7.006l76.26-76.258a2.623 2.623 0 00-.01-3.696L1114.8-74.7a2.524 2.524 0 00-2.2-.746l-58.15 7.821.15-.156-21.27 2.666a2.546 2.546 0 01-2.18-.748 2.557 2.557 0 01-.75-2.177l2.67-21.277-.16.156 7.82-58.156a2.568 2.568 0 00-.74-2.201l-18.77-18.767a2.623 2.623 0 00-3.7-.005l-76.255 76.258a2.62 2.62 0 00.005 3.695l17.835 17.834a2.62 2.62 0 003.696.007l40.709-40.713c.8-.794 1.95-.991 2.97-.51a2.578 2.578 0 011.48 2.626l-4.81 48.582c-.08.808.18 1.537.75 2.111l19.78 19.78c.58.576 1.31.835 2.12.755zM780.467 68.766l-76.256 76.256a2.62 2.62 0 00.003 3.697l17.834 17.834a2.621 2.621 0 003.699.005l26.141-26.141a2.616 2.616 0 013.695.005l2.663 2.663a2.604 2.604 0 01.233 3.436c-15.108 19.823-17.503 43.728 10.949 72.179l4.307 4.308c32.901 32.901 59.774 24.454 81.369 2.859l6.208-6.208c21.595-21.595 30.044-48.469-2.857-81.371l-4.308-4.307c-29.043-29.043-53.312-25.864-73.486-9.93a2.609 2.609 0 01-3.471-.202l-2.517-2.518a2.617 2.617 0 01-.003-3.696l27.333-27.333a2.62 2.62 0 00-.005-3.7l-17.834-17.834a2.62 2.62 0 00-3.697-.002zm10.742 86.995c12.05-12.051 23.149-23.149 45.881-.417 22.733 22.733 11.634 33.831-.416 45.882-12.172 12.172-23.269 23.269-46.002.536-22.732-22.732-11.636-33.829.537-46.001zM946.253-2.503L889.091 54.66a2.62 2.62 0 01-3.697-.003l-22.023-22.022a2.62 2.62 0 01-.003-3.697l57.163-57.163a2.621 2.621 0 00-.005-3.698l-17.834-17.835a2.62 2.62 0 00-3.697-.003l-76.256 76.256a2.62 2.62 0 00.004 3.695l112.354 112.353a2.618 2.618 0 003.695.005l76.258-76.256c1.02-1.017 1.01-2.677-.01-3.697l-17.829-17.834a2.622 2.622 0 00-3.699-.005l-57.163 57.163a2.617 2.617 0 01-3.696-.003L910.63 79.893a2.618 2.618 0 01-.003-3.696l57.163-57.163a2.62 2.62 0 00-.004-3.697L949.951-2.5a2.62 2.62 0 00-3.697-.003h-.001zm-63.366 378.021l48.58-4.814a2.582 2.582 0 012.626 1.484 2.572 2.572 0 01-.508 2.967l-40.713 40.712a2.621 2.621 0 00.005 3.696l17.836 17.835a2.618 2.618 0 003.695.005l76.258-76.258a2.617 2.617 0 00-.005-3.695l-18.767-18.767a2.538 2.538 0 00-2.201-.747l-58.156 7.822.156-.156-21.277 2.666a2.55 2.55 0 01-2.179-.748 2.543 2.543 0 01-.746-2.177l2.666-21.277-.156.156 7.821-58.156a2.54 2.54 0 00-.746-2.201l-18.768-18.768a2.619 2.619 0 00-3.695-.005l-76.258 76.258a2.619 2.619 0 00.005 3.695l17.835 17.835a2.62 2.62 0 003.696.006l40.713-40.712a2.572 2.572 0 012.965-.51 2.576 2.576 0 011.483 2.625l-4.812 48.582c-.08.809.179 1.537.753 2.112l19.78 19.78a2.543 2.543 0 002.114.754v.001zm-245.33 106.631l-76.256 76.256a2.619 2.619 0 00.003 3.697l17.834 17.834a2.622 2.622 0 003.699.005l26.141-26.141a2.617 2.617 0 013.695.004l2.663 2.664a2.603 2.603 0 01.233 3.435c-15.108 19.824-17.503 43.729 10.949 72.18l4.307 4.307c32.901 32.902 59.773 24.455 81.369 2.86l6.208-6.209c21.595-21.595 30.044-48.468-2.858-81.37l-4.307-4.307c-29.043-29.044-53.312-25.865-73.487-9.931a2.605 2.605 0 01-3.47-.202l-2.517-2.517a2.619 2.619 0 01-.003-3.697l27.333-27.333a2.622 2.622 0 00-.005-3.699l-17.834-17.834a2.62 2.62 0 00-3.697-.003v.001zm10.742 86.994c12.05-12.05 23.148-23.149 45.881-.416 22.732 22.733 11.634 33.831-.416 45.881-12.172 12.172-23.269 23.269-46.002.537-22.733-22.733-11.636-33.83.537-46.002zM803.343 410.88l-57.163 57.163a2.62 2.62 0 01-3.696-.003l-22.023-22.023a2.619 2.619 0 01-.003-3.697l57.163-57.163a2.62 2.62 0 00-.005-3.698l-17.834-17.834a2.619 2.619 0 00-3.697-.004l-76.256 76.257a2.619 2.619 0 00.004 3.695l112.353 112.353a2.62 2.62 0 003.696.005l76.256-76.256a2.62 2.62 0 00-.003-3.697l-17.834-17.834a2.621 2.621 0 00-3.699-.005l-57.163 57.163a2.618 2.618 0 01-3.696-.003l-22.023-22.023a2.619 2.619 0 01-.003-3.697l57.163-57.163a2.62 2.62 0 00-.004-3.697l-17.836-17.836a2.618 2.618 0 00-3.696-.003h-.001zM1221.46 36.947l48.58-4.813c1.12-.11 2.14.464 2.62 1.483a2.565 2.565 0 01-.5 2.967l-40.72 40.712a2.623 2.623 0 00.01 3.696l17.83 17.835a2.624 2.624 0 003.7.006l76.26-76.259a2.623 2.623 0 00-.01-3.695L1310.46.112a2.524 2.524 0 00-2.2-.746l-58.15 7.82.15-.155-21.27 2.666a2.546 2.546 0 01-2.18-.748 2.557 2.557 0 01-.75-2.177l2.67-21.277-.16.156 7.82-58.156c.12-.838-.15-1.603-.74-2.201l-18.77-18.768a2.624 2.624 0 00-3.7-.005l-76.25 76.259a2.613 2.613 0 000 3.694l17.84 17.835a2.613 2.613 0 003.69.007l40.71-40.713a2.58 2.58 0 012.97-.51 2.577 2.577 0 011.48 2.626l-4.81 48.581c-.08.809.18 1.538.75 2.112l19.78 19.78a2.56 2.56 0 002.12.755zM976.128 143.578l-76.257 76.256a2.619 2.619 0 00.004 3.697l17.834 17.834a2.62 2.62 0 003.698.005l26.142-26.141a2.616 2.616 0 013.695.005l2.663 2.663a2.604 2.604 0 01.233 3.436c-15.109 19.823-17.503 43.728 10.948 72.179l4.308 4.308c32.904 32.901 59.774 24.454 81.364 2.859l6.21-6.208c21.6-21.596 30.05-48.469-2.85-81.371l-4.31-4.307c-29.05-29.043-53.314-25.865-73.489-9.931a2.605 2.605 0 01-3.47-.202l-2.517-2.517a2.619 2.619 0 01-.003-3.697l27.333-27.333a2.62 2.62 0 00-.005-3.698l-17.834-17.835a2.62 2.62 0 00-3.697-.003v.001zm10.741 86.994c12.051-12.05 23.151-23.148 45.881-.416 22.73 22.733 11.64 33.831-.42 45.882-12.17 12.171-23.26 23.269-45.997.536-22.733-22.733-11.636-33.829.536-46.002zM1141.91 72.309l-57.16 57.163a2.624 2.624 0 01-3.7-.003l-22.02-22.023a2.615 2.615 0 010-3.696l57.16-57.163a2.617 2.617 0 000-3.699l-17.84-17.834a2.61 2.61 0 00-3.69-.003l-76.26 76.256a2.613 2.613 0 000 3.695l112.36 112.353a2.612 2.612 0 003.69.005l76.26-76.256a2.616 2.616 0 000-3.697l-17.84-17.834a2.622 2.622 0 00-3.7-.005l-57.16 57.163a2.623 2.623 0 01-3.7-.003l-22.02-22.023a2.616 2.616 0 010-3.697l57.16-57.163c1.02-1.016 1.01-2.679 0-3.697l-17.84-17.835a2.623 2.623 0 00-3.7-.004z"/></g><g filter="url(#filter1_d_1156_2900)" fill-rule="evenodd" clip-rule="evenodd" fill="#fff"><path d="M1706.57 369.895l48.58-4.814c1.12-.11 2.14.465 2.62 1.484a2.551 2.551 0 01-.51 2.966l-40.71 40.713a2.623 2.623 0 00.01 3.695l17.83 17.836a2.625 2.625 0 003.7.005l76.26-76.258a2.624 2.624 0 00-.01-3.696l-18.77-18.767c-.6-.598-1.36-.86-2.2-.746l-58.15 7.821.15-.156-21.28 2.666a2.533 2.533 0 01-2.17-.748 2.555 2.555 0 01-.75-2.176l2.67-21.278-.16.156 7.82-58.156a2.546 2.546 0 00-.75-2.201l-18.76-18.767a2.624 2.624 0 00-3.7-.005l-76.26 76.258a2.623 2.623 0 00.01 3.695l17.83 17.834c1.02 1.02 2.69 1.022 3.7.007l40.71-40.713a2.58 2.58 0 012.97-.509 2.577 2.577 0 011.48 2.625l-4.81 48.582c-.08.808.18 1.537.75 2.111l19.78 19.78c.58.576 1.31.835 2.12.755v.001zm-245.33 106.63l-76.26 76.257a2.615 2.615 0 000 3.696l17.84 17.835a2.623 2.623 0 003.7.005l26.14-26.142a2.61 2.61 0 013.69.005l2.66 2.663c.94.934 1.03 2.389.24 3.436-15.11 19.823-17.51 43.728 10.95 72.18l4.3 4.307c32.9 32.901 59.78 24.455 81.37 2.859l6.21-6.208c21.6-21.595 30.04-48.469-2.86-81.37l-4.3-4.308c-29.05-29.043-53.32-25.864-73.49-9.93-1.04.827-2.53.74-3.47-.202l-2.52-2.518a2.615 2.615 0 010-3.696l27.33-27.333a2.618 2.618 0 000-3.699l-17.84-17.834a2.61 2.61 0 00-3.69-.003zm10.74 86.995c12.05-12.051 23.15-23.149 45.88-.416 22.73 22.732 11.63 33.83-.42 45.881-12.17 12.172-23.27 23.269-46 .536-22.73-22.732-11.64-33.829.54-46.001zm155.04-158.264l-57.16 57.163a2.624 2.624 0 01-3.7-.003l-22.02-22.022a2.616 2.616 0 010-3.697l57.16-57.163c1.02-1.017 1.01-2.679-.01-3.698l-17.83-17.835a2.623 2.623 0 00-3.7-.003l-76.25 76.256a2.613 2.613 0 000 3.695l112.36 112.354a2.612 2.612 0 003.69.004l76.26-76.256a2.625 2.625 0 00-.01-3.697l-17.83-17.834a2.623 2.623 0 00-3.7-.005l-57.16 57.163a2.622 2.622 0 01-3.7-.003l-22.02-22.022a2.616 2.616 0 010-3.697l57.16-57.163a2.616 2.616 0 00-.01-3.697l-17.83-17.836a2.623 2.623 0 00-3.7-.003v-.001zm418.12-373.932l48.58-4.814c1.12-.11 2.14.465 2.62 1.484s.29 2.172-.51 2.966l-40.71 40.713a2.623 2.623 0 00.01 3.695l17.83 17.836a2.624 2.624 0 003.7.005l76.25-76.258a2.614 2.614 0 000-3.695l-18.77-18.768c-.6-.598-1.36-.86-2.2-.746l-58.15 7.821.15-.155-21.28 2.665a2.536 2.536 0 01-2.17-.747 2.557 2.557 0 01-.75-2.177l2.67-21.277-.16.155 7.82-58.156a2.546 2.546 0 00-.75-2.2l-18.76-18.768a2.625 2.625 0 00-3.7-.005l-76.26 76.258a2.622 2.622 0 00.01 3.695l17.83 17.834a2.625 2.625 0 003.7.007l40.71-40.712a2.58 2.58 0 012.97-.51 2.577 2.577 0 011.48 2.625l-4.81 48.582c-.08.808.18 1.537.75 2.111l19.78 19.78a2.56 2.56 0 002.12.755zm-245.33 106.631l-76.26 76.256a2.615 2.615 0 000 3.696l17.84 17.835a2.623 2.623 0 003.7.005l26.14-26.142a2.612 2.612 0 013.69.005l2.66 2.663c.94.934 1.03 2.389.24 3.436-15.11 19.823-17.51 43.728 10.95 72.18l4.3 4.307c32.9 32.901 59.78 24.455 81.37 2.859l6.21-6.208c21.6-21.595 30.04-48.469-2.86-81.37l-4.3-4.308c-29.05-29.043-53.32-25.864-73.49-9.93-1.04.827-2.53.74-3.47-.202l-2.52-2.517a2.616 2.616 0 010-3.697l27.33-27.333a2.618 2.618 0 000-3.699l-17.84-17.834a2.61 2.61 0 00-3.69-.003v.001zm10.74 86.994c12.05-12.051 23.15-23.149 45.88-.416 22.73 22.732 11.63 33.831-.42 45.881-12.17 12.172-23.27 23.269-46 .537-22.73-22.733-11.64-33.83.54-46.002zm155.04-158.263l-57.16 57.163a2.625 2.625 0 01-3.7-.003l-22.02-22.023a2.616 2.616 0 010-3.697l57.16-57.163c1.02-1.017 1.01-2.679-.01-3.698l-17.83-17.835a2.623 2.623 0 00-3.7-.003l-76.25 76.256a2.614 2.614 0 000 3.695l112.36 112.354a2.613 2.613 0 003.69.005l76.26-76.256a2.626 2.626 0 00-.01-3.698l-17.83-17.834a2.624 2.624 0 00-3.7-.005l-57.16 57.163a2.622 2.622 0 01-3.7-.003l-22.02-22.022a2.616 2.616 0 010-3.697l57.16-57.163a2.616 2.616 0 00-.01-3.697l-17.83-17.836a2.623 2.623 0 00-3.7-.003zm-236.96 10.676l48.58-4.814c1.12-.11 2.14.465 2.62 1.484s.29 2.172-.51 2.966l-40.71 40.713a2.623 2.623 0 00.01 3.695l17.83 17.836a2.624 2.624 0 003.7.005l76.25-76.258a2.614 2.614 0 000-3.695l-18.77-18.768c-.6-.598-1.36-.86-2.2-.746l-58.16 7.822.16-.156-21.28 2.665a2.526 2.526 0 01-2.17-.747 2.557 2.557 0 01-.75-2.177l2.66-21.277-.15.155 7.82-58.156a2.546 2.546 0 00-.75-2.2l-18.76-18.768a2.624 2.624 0 00-3.7-.005l-76.26 76.258a2.622 2.622 0 00.01 3.695l17.83 17.834a2.625 2.625 0 003.7.007l40.71-40.713a2.58 2.58 0 012.97-.51 2.577 2.577 0 011.48 2.626l-4.81 48.582c-.08.808.18 1.537.75 2.111l19.78 19.78a2.55 2.55 0 002.11.755h.01zm-245.34 106.631l-76.25 76.256a2.615 2.615 0 000 3.696l17.84 17.835c1.02 1.019 2.68 1.022 3.69.005l26.15-26.142a2.612 2.612 0 013.69.005l2.66 2.663c.94.934 1.03 2.389.24 3.436-15.11 19.823-17.51 43.728 10.95 72.18l4.3 4.307c32.9 32.901 59.78 24.455 81.37 2.859l6.21-6.208c21.59-21.595 30.04-48.469-2.86-81.37l-4.31-4.308c-29.04-29.043-53.31-25.864-73.48-9.93-1.04.827-2.53.74-3.47-.202l-2.52-2.517a2.616 2.616 0 010-3.697l27.33-27.333a2.618 2.618 0 000-3.699l-17.84-17.834a2.622 2.622 0 00-3.7-.003v.001zm10.75 86.994c12.05-12.051 23.15-23.149 45.88-.416 22.73 22.732 11.63 33.831-.42 45.881-12.17 12.172-23.27 23.269-46 .537-22.73-22.733-11.64-33.83.54-46.002zm155.04-158.263l-57.16 57.163a2.624 2.624 0 01-3.7-.004l-22.02-22.022a2.616 2.616 0 010-3.697l57.16-57.163c1.02-1.017 1.01-2.679-.01-3.698l-17.83-17.835a2.623 2.623 0 00-3.7-.003l-76.25 76.256a2.615 2.615 0 000 3.696l112.35 112.353a2.625 2.625 0 003.7.005l76.26-76.257a2.625 2.625 0 00-.01-3.697l-17.83-17.834a2.623 2.623 0 00-3.7-.005l-57.16 57.163a2.622 2.622 0 01-3.7-.003l-22.02-22.022a2.625 2.625 0 01-.01-3.697l57.17-57.163a2.625 2.625 0 00-.01-3.697l-17.83-17.836a2.623 2.623 0 00-3.7-.003zm-259.03 303.209l48.58-4.814c1.13-.11 2.15.465 2.63 1.484s.29 2.172-.51 2.966l-40.71 40.713c-1.02 1.015-1.01 2.677 0 3.695l17.84 17.836a2.625 2.625 0 003.7.005l76.25-76.258a2.615 2.615 0 000-3.696l-18.77-18.767c-.6-.598-1.36-.86-2.2-.746l-58.16 7.821.16-.156-21.28 2.666c-.83.104-1.58-.156-2.18-.748a2.52 2.52 0 01-.74-2.176l2.66-21.278-.15.156 7.82-58.156a2.546 2.546 0 00-.75-2.201l-18.76-18.767a2.624 2.624 0 00-3.7-.005l-76.26 76.258a2.623 2.623 0 00.01 3.695l17.83 17.834a2.624 2.624 0 003.7.007l40.71-40.713c.79-.794 1.95-.991 2.97-.509a2.577 2.577 0 011.48 2.625l-4.81 48.582c-.08.808.18 1.537.75 2.111l19.78 19.78c.58.576 1.3.835 2.11.755v.001zm-245.33 106.63l-76.25 76.257a2.615 2.615 0 000 3.696l17.84 17.835a2.612 2.612 0 003.69.005l26.15-26.142a2.61 2.61 0 013.69.005l2.66 2.663c.94.934 1.03 2.389.24 3.436-15.11 19.823-17.51 43.728 10.94 72.18l4.31 4.307c32.9 32.901 59.78 24.455 81.37 2.859l6.21-6.208c21.59-21.595 30.04-48.469-2.86-81.37l-4.31-4.308c-29.04-29.043-53.31-25.864-73.48-9.93-1.05.826-2.53.74-3.47-.202l-2.52-2.518a2.615 2.615 0 010-3.696l27.33-27.333c1.02-1.017 1.01-2.68 0-3.699l-17.84-17.835a2.623 2.623 0 00-3.7-.002zm10.75 86.995c12.05-12.051 23.14-23.149 45.88-.416 22.73 22.732 11.63 33.83-.42 45.881-12.17 12.172-23.27 23.269-46 .536-22.73-22.732-11.64-33.829.54-46.001zm155.04-158.264l-57.16 57.163a2.624 2.624 0 01-3.7-.003l-22.02-22.022a2.625 2.625 0 01-.01-3.697l57.17-57.163a2.626 2.626 0 00-.01-3.698l-17.83-17.835a2.623 2.623 0 00-3.7-.003L1187 480.292a2.613 2.613 0 000 3.695l112.35 112.353a2.624 2.624 0 003.7.005l76.26-76.256a2.625 2.625 0 00-.01-3.697l-17.83-17.834a2.623 2.623 0 00-3.7-.005l-57.16 57.163a2.622 2.622 0 01-3.7-.003l-22.02-22.023a2.624 2.624 0 01-.01-3.696l57.17-57.163a2.625 2.625 0 00-.01-3.697l-17.83-17.836a2.623 2.623 0 00-3.7-.003v-.001zm756.69-712.503l48.58-4.814a2.573 2.573 0 012.62 1.484c.48 1.019.29 2.173-.51 2.967l-40.71 40.712a2.623 2.623 0 00.01 3.695l17.83 17.836a2.624 2.624 0 003.7.005l76.25-76.258a2.613 2.613 0 000-3.695l-18.77-18.767c-.6-.599-1.36-.861-2.2-.747l-58.15 7.822.15-.156-21.28 2.666a2.54 2.54 0 01-2.17-.748 2.557 2.557 0 01-.75-2.177l2.67-21.277-.16.156 7.82-58.156a2.545 2.545 0 00-.75-2.201l-18.76-18.768a2.625 2.625 0 00-3.7-.005l-76.26 76.258a2.623 2.623 0 00.01 3.695l17.83 17.835a2.625 2.625 0 003.7.006l40.71-40.712a2.58 2.58 0 012.97-.51 2.577 2.577 0 011.48 2.625l-4.81 48.582c-.08.809.18 1.537.75 2.112l19.78 19.78c.58.576 1.31.834 2.12.754v.001zm-245.33 106.631l-76.26 76.256a2.615 2.615 0 000 3.697l17.84 17.834a2.623 2.623 0 003.7.005l26.14-26.142a2.61 2.61 0 013.69.005l2.66 2.664c.94.934 1.03 2.388.24 3.435-15.11 19.824-17.51 43.728 10.95 72.18l4.3 4.307c32.9 32.902 59.78 24.455 81.37 2.86l6.21-6.209c21.6-21.595 30.04-48.468-2.86-81.37l-4.3-4.307c-29.05-29.044-53.32-25.865-73.49-9.93a2.606 2.606 0 01-3.47-.203l-2.52-2.517a2.616 2.616 0 010-3.697l27.33-27.333a2.618 2.618 0 000-3.699l-17.84-17.834a2.611 2.611 0 00-3.69-.003v.001zm10.74 86.994c12.05-12.05 23.15-23.149 45.88-.416 22.73 22.733 11.63 33.83-.42 45.881-12.17 12.172-23.27 23.27-46 .537s-11.64-33.83.54-46.002zm155.04-158.263l-57.16 57.163a2.624 2.624 0 01-3.7-.003l-22.02-22.023a2.616 2.616 0 010-3.697l57.16-57.163c1.02-1.017 1.01-2.679-.01-3.698l-17.83-17.835a2.623 2.623 0 00-3.7-.003l-76.25 76.256a2.615 2.615 0 000 3.696L1976.5-80.801a2.612 2.612 0 003.69.005l76.26-76.256a2.625 2.625 0 00-.01-3.697l-17.83-17.834a2.622 2.622 0 00-3.7-.005l-57.16 57.163a2.622 2.622 0 01-3.7-.004l-22.02-22.022a2.616 2.616 0 010-3.697l57.16-57.163a2.616 2.616 0 00-.01-3.697l-17.83-17.836a2.623 2.623 0 00-3.7-.003zm-692.55 466.26l48.58-4.814a2.587 2.587 0 012.63 1.484 2.582 2.582 0 01-.51 2.966l-40.71 40.713a2.613 2.613 0 000 3.695l17.84 17.836a2.612 2.612 0 003.69.005l76.26-76.258a2.623 2.623 0 00-.01-3.695l-18.76-18.768c-.6-.598-1.37-.86-2.2-.746l-58.16 7.821.16-.155-21.28 2.665a2.545 2.545 0 01-2.18-.747 2.557 2.557 0 01-.75-2.177l2.67-21.277-.16.155 7.83-58.156a2.543 2.543 0 00-.75-2.2l-18.77-18.768a2.613 2.613 0 00-3.69-.005l-76.26 76.258a2.613 2.613 0 000 3.695l17.84 17.834a2.612 2.612 0 003.69.007l40.72-40.712c.79-.794 1.94-.992 2.96-.51a2.584 2.584 0 011.49 2.625l-4.82 48.582c-.08.808.18 1.537.76 2.111l19.78 19.78c.57.576 1.3.835 2.11.755v.001zm-245.33 106.631L973.514 423.3a2.618 2.618 0 00.003 3.696l17.834 17.835a2.622 2.622 0 003.699.005l26.14-26.142a2.624 2.624 0 013.7.005l2.66 2.663c.93.934 1.03 2.389.23 3.436-15.11 19.823-17.5 43.728 10.95 72.18l4.31 4.307c32.9 32.901 59.77 24.455 81.37 2.859l6.21-6.208c21.59-21.595 30.04-48.469-2.86-81.37l-4.31-4.308c-29.04-29.043-53.31-25.864-73.49-9.93-1.04.827-2.52.74-3.47-.202l-2.51-2.517a2.625 2.625 0 01-.01-3.697l27.34-27.333a2.627 2.627 0 00-.01-3.699l-17.83-17.834a2.622 2.622 0 00-3.7-.003v.001zm10.74 86.994c12.05-12.051 23.15-23.149 45.88-.416 22.74 22.732 11.64 33.831-.41 45.881-12.17 12.172-23.27 23.269-46 .537-22.74-22.733-11.64-33.83.53-46.002zm155.05-158.263l-57.17 57.163a2.613 2.613 0 01-3.69-.003l-22.03-22.023a2.616 2.616 0 010-3.697l57.16-57.163a2.617 2.617 0 000-3.698l-17.84-17.835a2.611 2.611 0 00-3.69-.003l-76.26 76.256a2.624 2.624 0 00.01 3.696l112.35 112.353a2.625 2.625 0 003.7.005l76.25-76.257a2.616 2.616 0 000-3.697l-17.84-17.834a2.612 2.612 0 00-3.69-.005l-57.17 57.163a2.61 2.61 0 01-3.69-.003l-22.03-22.022a2.616 2.616 0 010-3.697l57.16-57.163a2.616 2.616 0 000-3.697l-17.84-17.836a2.611 2.611 0 00-3.69-.003zm418.11-373.933l48.58-4.813c1.12-.11 2.15.464 2.63 1.483a2.584 2.584 0 01-.51 2.967l-40.71 40.712a2.614 2.614 0 000 3.696l17.84 17.835a2.612 2.612 0 003.69.005l76.26-76.258a2.613 2.613 0 000-3.695l-18.77-18.767c-.6-.599-1.37-.861-2.2-.746l-58.16 7.821.16-.156-21.28 2.666a2.549 2.549 0 01-2.18-.748 2.521 2.521 0 01-.74-2.177l2.66-21.277-.15.156 7.82-58.156a2.545 2.545 0 00-.75-2.201l-18.77-18.768a2.613 2.613 0 00-3.69-.005l-76.26 76.259a2.621 2.621 0 00.01 3.694l17.83 17.835a2.626 2.626 0 003.7.007l40.71-40.713a2.565 2.565 0 012.96-.51 2.585 2.585 0 011.49 2.625l-4.81 48.582c-.08.809.17 1.538.75 2.112l19.78 19.78c.57.576 1.3.834 2.11.754v.001zM1388.34 8.473l-76.25 76.256a2.615 2.615 0 000 3.697l17.83 17.834a2.623 2.623 0 003.7.005l26.14-26.141a2.623 2.623 0 013.7.005l2.66 2.663c.94.934 1.03 2.388.23 3.436-15.1 19.823-17.5 43.728 10.95 72.179l4.31 4.308c32.9 32.901 59.77 24.454 81.37 2.859l6.21-6.208c21.59-21.596 30.04-48.469-2.86-81.37l-4.31-4.308c-29.04-29.044-53.31-25.865-73.48-9.93-1.05.826-2.53.74-3.47-.203l-2.52-2.517a2.625 2.625 0 01-.01-3.697l27.34-27.333a2.627 2.627 0 00-.01-3.699l-17.83-17.834a2.623 2.623 0 00-3.7-.003v.001zm10.74 86.994c12.05-12.05 23.15-23.148 45.89-.416 22.73 22.733 11.63 33.831-.42 45.881-12.17 12.172-23.27 23.269-46 .537-22.74-22.733-11.64-33.829.53-46.002zm155.05-158.263l-57.16 57.163a2.624 2.624 0 01-3.7-.003l-22.02-22.023a2.625 2.625 0 01-.01-3.697l57.17-57.163a2.627 2.627 0 00-.01-3.698l-17.83-17.834a2.622 2.622 0 00-3.7-.003l-76.26 76.256a2.623 2.623 0 00.01 3.695L1542.97 82.25a2.624 2.624 0 003.7.005l76.25-76.256a2.616 2.616 0 000-3.697l-17.83-17.834c-1.02-1.02-2.69-1.022-3.7-.005l-57.17 57.163a2.61 2.61 0 01-3.69-.003L1518.51 19.6c-1.02-1.02-1.03-2.68-.01-3.697l57.16-57.163a2.616 2.616 0 000-3.697l-17.83-17.835a2.623 2.623 0 00-3.7-.004zm348.1 507.502l48.58-4.813c1.12-.11 2.14.465 2.62 1.483.48 1.019.29 2.173-.51 2.967l-40.71 40.713a2.623 2.623 0 00.01 3.695l17.83 17.835a2.624 2.624 0 003.7.006l76.25-76.259a2.613 2.613 0 000-3.695l-18.77-18.767c-.6-.598-1.36-.861-2.2-.746l-58.16 7.821.16-.156-21.28 2.666a2.523 2.523 0 01-2.17-.748 2.557 2.557 0 01-.75-2.177l2.66-21.277-.15.156 7.82-58.156a2.545 2.545 0 00-.75-2.201l-18.76-18.768a2.624 2.624 0 00-3.7-.004l-76.26 76.258a2.623 2.623 0 00.01 3.695l17.83 17.834a2.625 2.625 0 003.7.007l40.71-40.713a2.58 2.58 0 012.97-.51 2.578 2.578 0 011.48 2.626l-4.81 48.582c-.08.808.18 1.537.75 2.111l19.78 19.78a2.55 2.55 0 002.11.755h.01zm-245.34 106.631l-76.25 76.256a2.616 2.616 0 000 3.697l17.84 17.834a2.61 2.61 0 003.69.005l26.15-26.141a2.61 2.61 0 013.69.005l2.66 2.663c.94.934 1.03 2.388.24 3.436-15.11 19.823-17.51 43.728 10.95 72.179l4.3 4.308c32.9 32.901 59.78 24.454 81.37 2.859l6.21-6.208c21.6-21.595 30.04-48.469-2.86-81.371l-4.3-4.307c-29.05-29.043-53.32-25.865-73.49-9.93a2.607 2.607 0 01-3.47-.202l-2.52-2.518a2.615 2.615 0 010-3.696l27.33-27.334a2.617 2.617 0 000-3.698l-17.84-17.835a2.624 2.624 0 00-3.7-.003v.001zm10.75 86.995c12.05-12.051 23.15-23.149 45.88-.417 22.73 22.733 11.63 33.831-.42 45.882-12.17 12.172-23.27 23.269-46 .536-22.73-22.732-11.64-33.829.54-46.001zm155.04-158.264l-57.16 57.163a2.624 2.624 0 01-3.7-.003l-22.02-22.023a2.615 2.615 0 010-3.696l57.16-57.163c1.02-1.017 1.01-2.679-.01-3.699l-17.83-17.834a2.623 2.623 0 00-3.7-.003l-76.25 76.256a2.613 2.613 0 000 3.695l112.35 112.353c1.02 1.02 2.69 1.02 3.7.005l76.26-76.256a2.625 2.625 0 00-.01-3.697l-17.83-17.834a2.623 2.623 0 00-3.7-.005l-57.16 57.163a2.622 2.622 0 01-3.7-.003l-22.02-22.023a2.624 2.624 0 01-.01-3.696l57.17-57.163a2.625 2.625 0 00-.01-3.697l-17.83-17.836a2.622 2.622 0 00-3.7-.003v-.001zm418.12-373.933l48.58-4.813c1.12-.11 2.14.465 2.62 1.484a2.551 2.551 0 01-.51 2.966l-40.71 40.713a2.623 2.623 0 00.01 3.695l17.83 17.836a2.625 2.625 0 003.7.005l76.26-76.258a2.623 2.623 0 00-.01-3.696L2329.8 69.3a2.524 2.524 0 00-2.2-.746l-58.15 7.821.15-.156-21.27 2.666a2.546 2.546 0 01-2.18-.748 2.557 2.557 0 01-.75-2.177l2.67-21.277-.16.156 7.82-58.156a2.568 2.568 0 00-.74-2.2l-18.77-18.768a2.624 2.624 0 00-3.7-.005l-76.25 76.258a2.613 2.613 0 000 3.695l17.83 17.834c1.02 1.02 2.69 1.022 3.7.007l40.71-40.713a2.58 2.58 0 012.97-.51 2.577 2.577 0 011.48 2.626l-4.81 48.582c-.08.808.18 1.537.75 2.111l19.78 19.78c.58.576 1.31.835 2.12.755zm-245.33 106.631l-76.26 76.256a2.616 2.616 0 000 3.697l17.84 17.834a2.622 2.622 0 003.7.005l26.14-26.141a2.61 2.61 0 013.69.005l2.67 2.663c.93.934 1.03 2.388.23 3.436-15.11 19.823-17.5 43.728 10.95 72.179l4.31 4.308c32.9 32.901 59.77 24.454 81.36 2.859l6.21-6.208c21.6-21.595 30.05-48.469-2.86-81.371l-4.3-4.307c-29.05-29.043-53.32-25.864-73.49-9.93a2.607 2.607 0 01-3.47-.202l-2.52-2.518a2.615 2.615 0 010-3.696l27.33-27.333a2.618 2.618 0 000-3.699l-17.84-17.835a2.611 2.611 0 00-3.69-.002zm10.74 86.995c12.05-12.051 23.15-23.149 45.88-.417 22.73 22.733 11.63 33.831-.42 45.882-12.17 12.172-23.27 23.269-46 .536-22.73-22.732-11.63-33.829.54-46.001zm155.04-158.264l-57.16 57.163a2.624 2.624 0 01-3.7-.003l-22.02-22.022a2.616 2.616 0 010-3.697l57.16-57.163a2.618 2.618 0 000-3.699l-17.84-17.834a2.61 2.61 0 00-3.69-.003l-76.26 76.256a2.613 2.613 0 000 3.695l112.36 112.353a2.612 2.612 0 003.69.005l76.26-76.256c1.02-1.017 1.01-2.677-.01-3.697l-17.83-17.834a2.623 2.623 0 00-3.7-.005l-57.16 57.163a2.622 2.622 0 01-3.7-.003l-22.02-22.023a2.615 2.615 0 010-3.696l57.16-57.163c1.02-1.017 1.01-2.679 0-3.697l-17.84-17.836a2.623 2.623 0 00-3.7-.003v-.001zm-63.36 378.021l48.58-4.814a2.573 2.573 0 012.62 1.484 2.553 2.553 0 01-.51 2.967l-40.71 40.712a2.624 2.624 0 00.01 3.696l17.83 17.835a2.624 2.624 0 003.7.005l76.26-76.258a2.623 2.623 0 00-.01-3.695l-18.77-18.767a2.523 2.523 0 00-2.2-.747l-58.15 7.822.15-.156-21.27 2.666a2.549 2.549 0 01-2.18-.748 2.557 2.557 0 01-.75-2.177l2.67-21.277-.16.156 7.82-58.156a2.568 2.568 0 00-.74-2.201l-18.77-18.768a2.625 2.625 0 00-3.7-.005l-76.26 76.258a2.623 2.623 0 00.01 3.695l17.83 17.835c1.02 1.019 2.69 1.021 3.7.006l40.71-40.712a2.58 2.58 0 012.97-.51 2.577 2.577 0 011.48 2.625l-4.81 48.582c-.08.809.18 1.537.75 2.112l19.78 19.78c.58.576 1.31.834 2.12.754v.001zm-245.33 106.631l-76.26 76.256a2.616 2.616 0 000 3.697l17.84 17.834a2.623 2.623 0 003.7.005l26.14-26.141a2.611 2.611 0 013.69.004l2.67 2.664c.93.934 1.03 2.388.23 3.435-15.11 19.824-17.5 43.729 10.95 72.18l4.3 4.307c32.91 32.902 59.78 24.455 81.37 2.86l6.21-6.209c21.6-21.595 30.05-48.468-2.86-81.37l-4.3-4.307c-29.05-29.044-53.32-25.865-73.49-9.931-1.04.827-2.53.74-3.47-.202l-2.52-2.517a2.616 2.616 0 010-3.697l27.33-27.333a2.618 2.618 0 000-3.699l-17.84-17.834a2.611 2.611 0 00-3.69-.003v.001zm10.74 86.994c12.05-12.05 23.15-23.149 45.88-.416 22.73 22.733 11.63 33.831-.42 45.881-12.17 12.172-23.27 23.269-46 .537-22.73-22.733-11.63-33.83.54-46.002zm155.04-158.263l-57.16 57.163a2.624 2.624 0 01-3.7-.003l-22.02-22.023a2.616 2.616 0 010-3.697l57.16-57.163a2.617 2.617 0 000-3.698l-17.84-17.834a2.622 2.622 0 00-3.7-.004l-76.25 76.257a2.613 2.613 0 000 3.695l112.36 112.353a2.612 2.612 0 003.69.005l76.26-76.256a2.625 2.625 0 00-.01-3.697l-17.83-17.834a2.622 2.622 0 00-3.7-.005l-57.16 57.163a2.623 2.623 0 01-3.7-.003l-22.02-22.023a2.616 2.616 0 010-3.697l57.16-57.163c1.02-1.017 1.01-2.679 0-3.697l-17.84-17.836a2.623 2.623 0 00-3.7-.003z"/></g><defs><filter id="filter0_d_1156_2900" x="-252.248" y="-717.915" width="1592.25" height="1390.22" filterUnits="userSpaceOnUse" color-interpolation-filters="sRGB"><feFlood flood-opacity="0" result="BackgroundImageFix"/><feColorMatrix in="SourceAlpha" values="0 0 0 0 0 0 0 0 0 0 0 0 0 0 0 0 0 0 127 0" result="hardAlpha"/><feOffset dy="4"/><feGaussianBlur stdDeviation="5"/><feComposite in2="hardAlpha" operator="out"/><feColorMatrix values="0 0 0 0 0 0 0 0 0 0 0 0 0 0 0 0 0 0 0.02 0"/><feBlend in2="BackgroundImageFix" result="effect1_dropShadow_1156_2900"/><feBlend in="SourceGraphic" in2="effect1_dropShadow_1156_2900" result="shape"/></filter><filter id="filter1_d_1156_2900" x="962.752" y="-573.915" width="1592.25" height="1390.22" filterUnits="userSpaceOnUse" color-interpolation-filters="sRGB"><feFlood flood-opacity="0" result="BackgroundImageFix"/><feColorMatrix in="SourceAlpha" values="0 0 0 0 0 0 0 0 0 0 0 0 0 0 0 0 0 0 127 0" result="hardAlpha"/><feOffset dy="4"/><feGaussianBlur stdDeviation="5"/><feComposite in2="hardAlpha" operator="out"/><feColorMatrix values="0 0 0 0 0 0 0 0 0 0 0 0 0 0 0 0 0 0 0.02 0"/><feBlend in2="BackgroundImageFix" result="effect1_dropShadow_1156_2900"/><feBlend in="SourceGraphic" in2="effect1_dropShadow_1156_2900" result="shape"/></filter></defs></svg>