<svg width="1920" height="428" fill="none" xmlns="http://www.w3.org/2000/svg"><g filter="url(#filter0_d_899_2921)" fill-rule="evenodd" clip-rule="evenodd" fill="#fff"><path d="M491.566 225.895l48.58-4.814a2.578 2.578 0 012.625 1.484 2.57 2.57 0 01-.508 2.966l-40.712 40.713a2.62 2.62 0 00.005 3.695l17.836 17.836a2.619 2.619 0 003.695.005l76.258-76.258a2.62 2.62 0 00-.005-3.696l-18.768-18.767a2.537 2.537 0 00-2.2-.746l-58.156 7.821.155-.156-21.277 2.666a2.541 2.541 0 01-2.178-.748 2.54 2.54 0 01-.746-2.176l2.665-21.278-.155.156 7.821-58.156a2.544 2.544 0 00-.746-2.201l-18.768-18.767a2.618 2.618 0 00-3.695-.005l-76.258 76.258a2.618 2.618 0 00.005 3.695l17.834 17.834a2.62 2.62 0 003.697.007l40.713-40.713a2.57 2.57 0 012.964-.509 2.576 2.576 0 011.484 2.625l-4.812 48.582a2.54 2.54 0 00.753 2.111l19.78 19.78a2.541 2.541 0 002.113.755l.001.001zm-245.331 106.63l-76.256 76.257a2.618 2.618 0 00.003 3.696l17.835 17.835a2.62 2.62 0 003.698.005l26.142-26.142a2.616 2.616 0 013.695.005l2.663 2.663a2.604 2.604 0 01.233 3.436c-15.109 19.823-17.503 43.728 10.948 72.18l4.308 4.307c32.901 32.901 59.773 24.455 81.369 2.859l6.208-6.208c21.595-21.595 30.044-48.469-2.858-81.37l-4.307-4.308c-29.044-29.043-53.313-25.864-73.487-9.93a2.605 2.605 0 01-3.47-.202l-2.517-2.518a2.618 2.618 0 01-.004-3.696l27.333-27.333a2.622 2.622 0 00-.004-3.699l-17.835-17.834a2.619 2.619 0 00-3.697-.003zm10.742 86.995c12.051-12.051 23.149-23.149 45.882-.416 22.732 22.732 11.634 33.83-.417 45.881-12.172 12.172-23.269 23.269-46.001.536-22.733-22.732-11.636-33.829.536-46.001zm155.045-158.264l-57.163 57.163a2.62 2.62 0 01-3.697-.003l-22.022-22.022a2.619 2.619 0 01-.003-3.697l57.163-57.163a2.62 2.62 0 00-.005-3.698l-17.835-17.835a2.618 2.618 0 00-3.696-.003l-76.256 76.256a2.618 2.618 0 00.004 3.695l112.353 112.354a2.62 2.62 0 003.696.004l76.256-76.256a2.619 2.619 0 00-.004-3.697l-17.834-17.834a2.62 2.62 0 00-3.698-.005l-57.163 57.163a2.619 2.619 0 01-3.697-.003l-22.022-22.022a2.619 2.619 0 01-.004-3.697l57.163-57.163a2.62 2.62 0 00-.003-3.697l-17.836-17.836a2.62 2.62 0 00-3.697-.003v-.001zm418.114-373.932l48.58-4.814a2.58 2.58 0 012.625 1.484 2.57 2.57 0 01-.508 2.966l-40.712 40.713a2.62 2.62 0 00.005 3.695l17.835 17.836a2.62 2.62 0 003.696.005l76.258-76.258a2.619 2.619 0 00-.005-3.695l-18.768-18.768a2.538 2.538 0 00-2.201-.746l-58.156 7.821.156-.155-21.277 2.665a2.543 2.543 0 01-2.178-.747 2.546 2.546 0 01-.747-2.177l2.666-21.277-.156.155 7.822-58.156a2.54 2.54 0 00-.747-2.2l-18.767-18.768a2.619 2.619 0 00-3.695-.005l-76.258 76.258a2.618 2.618 0 00.005 3.695l17.834 17.834a2.62 2.62 0 003.697.007l40.712-40.712a2.572 2.572 0 012.965-.51 2.576 2.576 0 011.484 2.625l-4.812 48.582a2.54 2.54 0 00.753 2.111l19.78 19.78a2.541 2.541 0 002.113.755l.001.001zM584.805-6.046l-76.256 76.257a2.619 2.619 0 00.003 3.696l17.835 17.835a2.62 2.62 0 003.698.005l26.142-26.142a2.617 2.617 0 013.695.005l2.663 2.663a2.605 2.605 0 01.233 3.436c-15.109 19.823-17.503 43.728 10.948 72.18l4.307 4.307c32.902 32.901 59.774 24.455 81.369 2.859l6.209-6.208c21.595-21.595 30.044-48.469-2.858-81.37l-4.307-4.308c-29.044-29.043-53.313-25.864-73.487-9.93a2.606 2.606 0 01-3.47-.202l-2.518-2.517a2.62 2.62 0 01-.003-3.697l27.333-27.333a2.622 2.622 0 00-.004-3.699L588.502-6.043a2.62 2.62 0 00-3.697-.003zm10.742 86.995c12.051-12.05 23.149-23.149 45.881-.416 22.733 22.732 11.635 33.831-.416 45.881-12.172 12.172-23.269 23.269-46.001.537-22.733-22.733-11.636-33.83.536-46.002zM750.592-77.314l-57.163 57.163a2.62 2.62 0 01-3.697-.003L667.71-42.177a2.618 2.618 0 01-.004-3.697l57.163-57.163a2.62 2.62 0 00-.004-3.698L707.03-124.57a2.62 2.62 0 00-3.697-.003l-76.256 76.256a2.62 2.62 0 00.005 3.696L739.435 67.731a2.62 2.62 0 003.696.005L819.387-8.52a2.619 2.619 0 00-.004-3.697l-17.834-17.835a2.62 2.62 0 00-3.698-.005l-57.163 57.163a2.619 2.619 0 01-3.697-.003L714.968 5.082a2.62 2.62 0 01-.003-3.697l57.163-57.163a2.62 2.62 0 00-.003-3.697l-17.836-17.836a2.62 2.62 0 00-3.697-.003zM513.625-66.638l48.58-4.814a2.578 2.578 0 012.625 1.484 2.571 2.571 0 01-.507 2.966L523.61-26.289a2.62 2.62 0 00.005 3.695l17.836 17.836a2.618 2.618 0 003.695.005l76.258-76.258a2.618 2.618 0 00-.005-3.695l-18.767-18.768a2.54 2.54 0 00-2.201-.746l-58.156 7.822.156-.156-21.278 2.665a2.544 2.544 0 01-2.178-.748 2.542 2.542 0 01-.746-2.176l2.665-21.277-.155.155 7.821-58.156a2.544 2.544 0 00-.746-2.201l-18.768-18.767a2.619 2.619 0 00-3.695-.005l-76.258 76.258a2.619 2.619 0 00.005 3.695l17.834 17.834a2.621 2.621 0 003.697.007l40.713-40.713a2.572 2.572 0 012.964-.509 2.576 2.576 0 011.484 2.625l-4.812 48.582a2.54 2.54 0 00.753 2.111l19.78 19.78a2.543 2.543 0 002.113.755h.001zm-245.33 106.63l-76.257 76.257a2.618 2.618 0 00.003 3.696l17.835 17.835a2.62 2.62 0 003.698.005l26.142-26.142a2.618 2.618 0 013.695.005l2.663 2.663a2.604 2.604 0 01.233 3.436c-15.109 19.823-17.503 43.728 10.948 72.18l4.308 4.307c32.901 32.901 59.773 24.455 81.369 2.859l6.208-6.208c21.595-21.595 30.044-48.469-2.858-81.37l-4.307-4.308c-29.044-29.043-53.312-25.864-73.487-9.93a2.606 2.606 0 01-3.47-.202l-2.517-2.517a2.62 2.62 0 01-.004-3.697l27.334-27.333a2.623 2.623 0 00-.005-3.699l-17.834-17.834a2.62 2.62 0 00-3.697-.003zm10.741 86.995c12.051-12.051 23.149-23.149 45.882-.416 22.732 22.732 11.634 33.831-.416 45.881-12.172 12.172-23.27 23.269-46.002.537-22.733-22.733-11.636-33.83.536-46.002zM434.081-31.276l-57.163 57.163a2.62 2.62 0 01-3.697-.003L351.199 3.86a2.618 2.618 0 01-.003-3.697L408.359-57a2.621 2.621 0 00-.005-3.698l-17.835-17.835a2.618 2.618 0 00-3.696-.003L310.567-2.279a2.618 2.618 0 00.004 3.696L422.924 113.77a2.62 2.62 0 003.696.005l76.256-76.257a2.619 2.619 0 00-.004-3.697l-17.834-17.834a2.62 2.62 0 00-3.698-.005l-57.163 57.163a2.619 2.619 0 01-3.697-.003L398.458 51.12a2.618 2.618 0 01-.003-3.697L455.617-9.74a2.62 2.62 0 00-.003-3.697l-17.836-17.836a2.62 2.62 0 00-3.697-.003zM175.054 271.933l48.58-4.814a2.58 2.58 0 012.626 1.484 2.571 2.571 0 01-.508 2.966l-40.713 40.713a2.62 2.62 0 00.005 3.695l17.836 17.836a2.619 2.619 0 003.695.005l76.258-76.258a2.618 2.618 0 00-.005-3.696l-18.767-18.767a2.54 2.54 0 00-2.201-.746l-58.156 7.821.156-.156-21.277 2.666a2.544 2.544 0 01-2.179-.748 2.542 2.542 0 01-.746-2.176l2.666-21.278-.156.156 7.821-58.156a2.54 2.54 0 00-.746-2.201l-18.768-18.767a2.618 2.618 0 00-3.695-.005l-76.258 76.258a2.619 2.619 0 00.005 3.695l17.834 17.834a2.62 2.62 0 003.697.007l40.713-40.713a2.572 2.572 0 012.965-.509 2.576 2.576 0 011.483 2.625l-4.812 48.582a2.54 2.54 0 00.753 2.111l19.78 19.78a2.543 2.543 0 002.114.755v.001zm-245.33 106.63l-76.256 76.257a2.617 2.617 0 00.003 3.696l17.834 17.835a2.623 2.623 0 003.699.005l26.141-26.142a2.616 2.616 0 013.695.005l2.663 2.663a2.605 2.605 0 01.233 3.436c-15.108 19.823-17.503 43.728 10.948 72.18l4.308 4.307c32.901 32.901 59.773 24.455 81.369 2.859l6.208-6.208c21.595-21.595 30.044-48.469-2.858-81.37l-4.307-4.308c-29.043-29.043-53.312-25.864-73.487-9.93a2.607 2.607 0 01-3.47-.202l-2.517-2.518a2.618 2.618 0 01-.003-3.696l27.333-27.333a2.622 2.622 0 00-.005-3.699l-17.834-17.835a2.62 2.62 0 00-3.697-.002zm10.742 86.995c12.05-12.051 23.148-23.149 45.88-.416 22.733 22.732 11.635 33.83-.415 45.881-12.172 12.172-23.27 23.269-46.002.536-22.733-22.732-11.636-33.829.537-46.001zM95.51 307.294l-57.163 57.163a2.62 2.62 0 01-3.696-.003l-22.023-22.022a2.619 2.619 0 01-.003-3.697l57.163-57.163a2.62 2.62 0 00-.005-3.698l-17.834-17.835a2.619 2.619 0 00-3.697-.003l-76.256 76.256a2.618 2.618 0 00.004 3.695L84.353 452.34a2.619 2.619 0 003.696.005l76.256-76.256a2.62 2.62 0 00-.003-3.697l-17.834-17.834a2.622 2.622 0 00-3.699-.005l-57.163 57.163a2.618 2.618 0 01-3.697-.003L59.887 389.69a2.618 2.618 0 01-.003-3.696l57.163-57.163a2.62 2.62 0 00-.004-3.697l-17.836-17.836a2.62 2.62 0 00-3.696-.003v-.001zM80.1 96.413l48.581-4.814a2.578 2.578 0 012.625 1.484 2.57 2.57 0 01-.508 2.966l-40.713 40.713a2.62 2.62 0 00.006 3.695l17.835 17.836a2.618 2.618 0 003.695.005L187.88 82.04a2.618 2.618 0 00-.006-3.695l-18.767-18.768a2.537 2.537 0 00-2.201-.746l-58.156 7.822.156-.156-21.277 2.665a2.545 2.545 0 01-2.178-.748 2.544 2.544 0 01-.747-2.176L87.37 44.96l-.156.155 7.821-58.156a2.54 2.54 0 00-.746-2.2L75.522-34.008a2.618 2.618 0 00-3.695-.005L-4.431 42.245a2.618 2.618 0 00.004 3.695l17.835 17.835a2.62 2.62 0 003.697.006L57.817 23.07a2.572 2.572 0 012.965-.51 2.576 2.576 0 011.484 2.625l-4.812 48.582a2.54 2.54 0 00.753 2.111l19.78 19.78a2.542 2.542 0 002.113.755zm-245.33 106.631l-76.256 76.256a2.618 2.618 0 00.003 3.696l17.834 17.835a2.622 2.622 0 003.699.005l26.141-26.142a2.618 2.618 0 013.695.005l2.664 2.663a2.605 2.605 0 01.232 3.436c-15.108 19.823-17.503 43.728 10.949 72.18l4.307 4.307c32.902 32.901 59.774 24.455 81.37 2.859l6.207-6.208c21.596-21.595 30.044-48.469-2.857-81.37l-4.308-4.308c-29.043-29.043-53.312-25.864-73.486-9.93a2.605 2.605 0 01-3.47-.202l-2.518-2.517a2.62 2.62 0 01-.003-3.697l27.333-27.333a2.622 2.622 0 00-.004-3.699l-17.835-17.834a2.619 2.619 0 00-3.697-.003v.001zm10.742 86.994c12.05-12.051 23.149-23.149 45.881-.416 22.733 22.732 11.635 33.831-.416 45.881-12.172 12.172-23.269 23.269-46.002.537-22.732-22.733-11.635-33.83.537-46.002zM.557 131.775l-57.163 57.163a2.62 2.62 0 01-3.697-.003l-22.023-22.023a2.619 2.619 0 01-.003-3.697l57.163-57.163a2.62 2.62 0 00-.005-3.698l-17.834-17.835a2.619 2.619 0 00-3.697-.003l-76.256 76.256a2.62 2.62 0 00.005 3.696L-10.6 276.821a2.62 2.62 0 003.695.005l76.257-76.257a2.619 2.619 0 00-.004-3.697l-17.834-17.834a2.622 2.622 0 00-3.699-.005l-57.162 57.163a2.618 2.618 0 01-3.697-.003l-22.023-22.022a2.619 2.619 0 01-.003-3.697l57.163-57.163a2.62 2.62 0 00-.003-3.697L4.254 131.778a2.62 2.62 0 00-3.697-.003zm418.115-373.933l48.581-4.813a2.577 2.577 0 012.625 1.483 2.572 2.572 0 01-.508 2.967l-40.713 40.712a2.622 2.622 0 00.005 3.696l17.836 17.835a2.618 2.618 0 003.695.005l76.259-76.258a2.618 2.618 0 00-.006-3.695l-18.767-18.767a2.533 2.533 0 00-2.201-.746l-58.156 7.821.156-.156-21.277 2.666a2.55 2.55 0 01-2.179-.748 2.543 2.543 0 01-.746-2.177l2.666-21.277-.156.156 7.821-58.156a2.54 2.54 0 00-.746-2.201l-18.768-18.768a2.618 2.618 0 00-3.694-.005l-76.259 76.259a2.619 2.619 0 00.005 3.694l17.835 17.835a2.621 2.621 0 003.696.007l40.713-40.713a2.572 2.572 0 012.965-.51 2.577 2.577 0 011.483 2.625l-4.811 48.582a2.538 2.538 0 00.752 2.112l19.781 19.78a2.54 2.54 0 002.113.754v.001zm-245.33 106.631L97.086-59.271a2.619 2.619 0 00.003 3.697l17.834 17.834a2.622 2.622 0 003.699.005l26.141-26.141a2.617 2.617 0 013.695.005l2.663 2.663a2.604 2.604 0 01.233 3.436c-15.108 19.823-17.503 43.728 10.949 72.18l4.307 4.307c32.901 32.9 59.774 24.454 81.369 2.859l6.208-6.209c21.595-21.595 30.044-48.468-2.857-81.37l-4.308-4.307c-29.043-29.044-53.312-25.865-73.486-9.93a2.607 2.607 0 01-3.471-.203l-2.517-2.517a2.618 2.618 0 01-.003-3.697l27.333-27.333a2.621 2.621 0 00-.005-3.699l-17.834-17.834a2.62 2.62 0 00-3.697-.003v.001zm10.742 86.994c12.05-12.05 23.149-23.148 45.881-.416 22.733 22.733 11.634 33.83-.416 45.881-12.172 12.172-23.269 23.27-46.002.537-22.732-22.733-11.636-33.83.537-46.002zm155.044-158.263l-57.162 57.163a2.62 2.62 0 01-3.697-.003l-22.023-22.023a2.62 2.62 0 01-.003-3.697l57.163-57.162a2.622 2.622 0 00-.005-3.699l-17.834-17.834a2.619 2.619 0 00-3.697-.003l-76.256 76.256a2.619 2.619 0 00.004 3.695L327.972-61.75a2.618 2.618 0 003.695.005l76.256-76.256a2.619 2.619 0 00-.003-3.697l-17.834-17.834a2.621 2.621 0 00-3.699-.005l-57.163 57.163a2.618 2.618 0 01-3.696-.003L303.505-124.4a2.619 2.619 0 01-.003-3.697l57.163-57.163a2.62 2.62 0 00-.004-3.697l-17.835-17.836a2.62 2.62 0 00-3.697-.003h-.001zm348.098 507.502l48.58-4.813a2.579 2.579 0 012.625 1.483 2.57 2.57 0 01-.508 2.967l-40.713 40.713a2.62 2.62 0 00.006 3.695l17.835 17.835a2.618 2.618 0 003.695.006l76.259-76.259a2.618 2.618 0 00-.006-3.695l-18.767-18.767a2.536 2.536 0 00-2.201-.746l-58.156 7.821.156-.156-21.277 2.666a2.541 2.541 0 01-2.178-.748 2.546 2.546 0 01-.747-2.177l2.666-21.277-.156.156 7.821-58.156a2.537 2.537 0 00-.746-2.201l-18.767-18.768a2.618 2.618 0 00-3.695-.004l-76.258 76.258a2.619 2.619 0 00.004 3.695l17.835 17.834a2.621 2.621 0 003.697.007l40.712-40.713a2.572 2.572 0 012.965-.51 2.578 2.578 0 011.484 2.626l-4.812 48.582a2.54 2.54 0 00.753 2.111l19.78 19.78a2.541 2.541 0 002.113.755h.001zM441.895 407.337l-76.256 76.256a2.62 2.62 0 00.003 3.697l17.834 17.834a2.621 2.621 0 003.699.005l26.141-26.141a2.616 2.616 0 013.695.005l2.664 2.663a2.605 2.605 0 01.232 3.436c-15.108 19.823-17.503 43.728 10.949 72.179l4.307 4.308c32.902 32.901 59.774 24.454 81.369 2.859l6.208-6.208c21.595-21.595 30.044-48.469-2.857-81.371l-4.308-4.307c-29.043-29.043-53.312-25.865-73.486-9.93a2.607 2.607 0 01-3.47-.202l-2.518-2.518a2.618 2.618 0 01-.003-3.696l27.333-27.334a2.62 2.62 0 00-.004-3.698l-17.835-17.835a2.62 2.62 0 00-3.697-.003v.001zm10.742 86.995c12.05-12.051 23.149-23.149 45.881-.417 22.733 22.733 11.635 33.831-.416 45.882-12.172 12.172-23.269 23.269-46.002.536-22.732-22.732-11.635-33.829.537-46.001zm155.045-158.264l-57.163 57.163a2.62 2.62 0 01-3.697-.003l-22.023-22.023a2.618 2.618 0 01-.003-3.696l57.163-57.163a2.621 2.621 0 00-.005-3.699l-17.834-17.834a2.62 2.62 0 00-3.697-.003l-76.256 76.256a2.618 2.618 0 00.005 3.695l112.353 112.353a2.618 2.618 0 003.695.005l76.257-76.256a2.62 2.62 0 00-.004-3.697l-17.834-17.834a2.622 2.622 0 00-3.699-.005l-57.162 57.163a2.619 2.619 0 01-3.697-.003l-22.023-22.023a2.618 2.618 0 01-.003-3.696l57.163-57.163a2.621 2.621 0 00-.003-3.697l-17.836-17.836a2.619 2.619 0 00-3.697-.003v-.001zM1025.8-37.864l48.58-4.814c1.12-.11 2.14.465 2.62 1.484a2.552 2.552 0 01-.51 2.966l-40.71 40.713a2.623 2.623 0 00.01 3.695l17.83 17.835a2.624 2.624 0 003.7.006l76.26-76.258a2.623 2.623 0 00-.01-3.696L1114.8-74.7a2.524 2.524 0 00-2.2-.746l-58.15 7.821.15-.156-21.27 2.666a2.546 2.546 0 01-2.18-.748 2.557 2.557 0 01-.75-2.177l2.67-21.277-.16.156 7.82-58.156a2.568 2.568 0 00-.74-2.201l-18.77-18.767a2.623 2.623 0 00-3.7-.005l-76.255 76.258a2.62 2.62 0 00.005 3.695l17.835 17.834a2.62 2.62 0 003.696.007l40.709-40.713c.8-.794 1.95-.991 2.97-.51a2.578 2.578 0 011.48 2.626l-4.81 48.582c-.08.808.18 1.537.75 2.111l19.78 19.78c.58.576 1.31.835 2.12.755zM780.467 68.766l-76.256 76.256a2.62 2.62 0 00.003 3.697l17.834 17.834a2.621 2.621 0 003.699.005l26.141-26.141a2.616 2.616 0 013.695.005l2.663 2.663a2.604 2.604 0 01.233 3.436c-15.108 19.823-17.503 43.728 10.949 72.179l4.307 4.308c32.901 32.901 59.774 24.454 81.369 2.859l6.208-6.208c21.595-21.595 30.044-48.469-2.857-81.371l-4.308-4.307c-29.043-29.043-53.312-25.864-73.486-9.93a2.609 2.609 0 01-3.471-.202l-2.517-2.518a2.617 2.617 0 01-.003-3.696l27.333-27.333a2.62 2.62 0 00-.005-3.7l-17.834-17.834a2.62 2.62 0 00-3.697-.002zm10.742 86.995c12.05-12.051 23.149-23.149 45.881-.417 22.733 22.733 11.634 33.831-.416 45.882-12.172 12.172-23.269 23.269-46.002.536-22.732-22.732-11.636-33.829.537-46.001zM946.253-2.503L889.091 54.66a2.62 2.62 0 01-3.697-.003l-22.023-22.022a2.62 2.62 0 01-.003-3.697l57.163-57.163a2.621 2.621 0 00-.005-3.698l-17.834-17.835a2.62 2.62 0 00-3.697-.003l-76.256 76.256a2.62 2.62 0 00.004 3.695l112.354 112.353a2.618 2.618 0 003.695.005l76.258-76.256c1.02-1.017 1.01-2.677-.01-3.697l-17.829-17.834a2.622 2.622 0 00-3.699-.005l-57.163 57.163a2.617 2.617 0 01-3.696-.003L910.63 79.893a2.618 2.618 0 01-.003-3.696l57.163-57.163a2.62 2.62 0 00-.004-3.697L949.951-2.5a2.62 2.62 0 00-3.697-.003h-.001zm-63.366 378.021l48.58-4.814a2.582 2.582 0 012.626 1.484 2.572 2.572 0 01-.508 2.967l-40.713 40.712a2.621 2.621 0 00.005 3.696l17.836 17.835a2.618 2.618 0 003.695.005l76.258-76.258a2.617 2.617 0 00-.005-3.695l-18.767-18.767a2.538 2.538 0 00-2.201-.747l-58.156 7.822.156-.156-21.277 2.666a2.55 2.55 0 01-2.179-.748 2.543 2.543 0 01-.746-2.177l2.666-21.277-.156.156 7.821-58.156a2.54 2.54 0 00-.746-2.201l-18.768-18.768a2.619 2.619 0 00-3.695-.005l-76.258 76.258a2.619 2.619 0 00.005 3.695l17.835 17.835a2.62 2.62 0 003.696.006l40.713-40.712a2.572 2.572 0 012.965-.51 2.576 2.576 0 011.483 2.625l-4.812 48.582c-.08.809.179 1.537.753 2.112l19.78 19.78a2.543 2.543 0 002.114.754v.001zm-245.33 106.631l-76.256 76.256a2.619 2.619 0 00.003 3.697l17.834 17.834a2.622 2.622 0 003.699.005l26.141-26.141a2.617 2.617 0 013.695.004l2.663 2.664a2.603 2.603 0 01.233 3.435c-15.108 19.824-17.503 43.729 10.949 72.18l4.307 4.307c32.901 32.902 59.773 24.455 81.369 2.86l6.208-6.209c21.595-21.595 30.044-48.468-2.858-81.37l-4.307-4.307c-29.043-29.044-53.312-25.865-73.487-9.931a2.605 2.605 0 01-3.47-.202l-2.517-2.517a2.619 2.619 0 01-.003-3.697l27.333-27.333a2.622 2.622 0 00-.005-3.699l-17.834-17.834a2.62 2.62 0 00-3.697-.003v.001zm10.742 86.994c12.05-12.05 23.148-23.149 45.881-.416 22.732 22.733 11.634 33.831-.416 45.881-12.172 12.172-23.269 23.269-46.002.537-22.733-22.733-11.636-33.83.537-46.002zM803.343 410.88l-57.163 57.163a2.62 2.62 0 01-3.696-.003l-22.023-22.023a2.619 2.619 0 01-.003-3.697l57.163-57.163a2.62 2.62 0 00-.005-3.698l-17.834-17.834a2.619 2.619 0 00-3.697-.004l-76.256 76.257a2.619 2.619 0 00.004 3.695l112.353 112.353a2.62 2.62 0 003.696.005l76.256-76.256a2.62 2.62 0 00-.003-3.697l-17.834-17.834a2.621 2.621 0 00-3.699-.005l-57.163 57.163a2.618 2.618 0 01-3.696-.003l-22.023-22.023a2.619 2.619 0 01-.003-3.697l57.163-57.163a2.62 2.62 0 00-.004-3.697l-17.836-17.836a2.618 2.618 0 00-3.696-.003h-.001zM1221.46 36.947l48.58-4.813c1.12-.11 2.14.464 2.62 1.483a2.565 2.565 0 01-.5 2.967l-40.72 40.712a2.623 2.623 0 00.01 3.696l17.83 17.835a2.624 2.624 0 003.7.006l76.26-76.259a2.623 2.623 0 00-.01-3.695L1310.46.112a2.524 2.524 0 00-2.2-.746l-58.15 7.82.15-.155-21.27 2.666a2.546 2.546 0 01-2.18-.748 2.557 2.557 0 01-.75-2.177l2.67-21.277-.16.156 7.82-58.156c.12-.838-.15-1.603-.74-2.201l-18.77-18.768a2.624 2.624 0 00-3.7-.005l-76.25 76.259a2.613 2.613 0 000 3.694l17.84 17.835a2.613 2.613 0 003.69.007l40.71-40.713a2.58 2.58 0 012.97-.51 2.577 2.577 0 011.48 2.626l-4.81 48.581c-.08.809.18 1.538.75 2.112l19.78 19.78a2.56 2.56 0 002.12.755zM976.128 143.578l-76.257 76.256a2.619 2.619 0 00.004 3.697l17.834 17.834a2.62 2.62 0 003.698.005l26.142-26.141a2.616 2.616 0 013.695.005l2.663 2.663a2.604 2.604 0 01.233 3.436c-15.109 19.823-17.503 43.728 10.948 72.179l4.308 4.308c32.904 32.901 59.774 24.454 81.364 2.859l6.21-6.208c21.6-21.596 30.05-48.469-2.85-81.371l-4.31-4.307c-29.05-29.043-53.314-25.865-73.489-9.931a2.605 2.605 0 01-3.47-.202l-2.517-2.517a2.619 2.619 0 01-.003-3.697l27.333-27.333a2.62 2.62 0 00-.005-3.698l-17.834-17.835a2.62 2.62 0 00-3.697-.003v.001zm10.741 86.994c12.051-12.05 23.151-23.148 45.881-.416 22.73 22.733 11.64 33.831-.42 45.882-12.17 12.171-23.26 23.269-45.997.536-22.733-22.733-11.636-33.829.536-46.002zM1141.91 72.309l-57.16 57.163a2.624 2.624 0 01-3.7-.003l-22.02-22.023a2.615 2.615 0 010-3.696l57.16-57.163a2.617 2.617 0 000-3.699l-17.84-17.834a2.61 2.61 0 00-3.69-.003l-76.26 76.256a2.613 2.613 0 000 3.695l112.36 112.353a2.612 2.612 0 003.69.005l76.26-76.256a2.616 2.616 0 000-3.697l-17.84-17.834a2.622 2.622 0 00-3.7-.005l-57.16 57.163a2.623 2.623 0 01-3.7-.003l-22.02-22.023a2.616 2.616 0 010-3.697l57.16-57.163c1.02-1.016 1.01-2.679 0-3.697l-17.84-17.835a2.623 2.623 0 00-3.7-.004z"/></g><g filter="url(#filter1_d_899_2921)" fill-rule="evenodd" clip-rule="evenodd" fill="#fff"><path d="M1706.57 369.895l48.58-4.814c1.12-.11 2.14.465 2.62 1.484a2.551 2.551 0 01-.51 2.966l-40.71 40.713a2.623 2.623 0 00.01 3.695l17.83 17.836a2.625 2.625 0 003.7.005l76.26-76.258a2.624 2.624 0 00-.01-3.696l-18.77-18.767c-.6-.598-1.36-.86-2.2-.746l-58.15 7.821.15-.156-21.28 2.666a2.533 2.533 0 01-2.17-.748 2.555 2.555 0 01-.75-2.176l2.67-21.278-.16.156 7.82-58.156a2.546 2.546 0 00-.75-2.201l-18.76-18.767a2.624 2.624 0 00-3.7-.005l-76.26 76.258a2.623 2.623 0 00.01 3.695l17.83 17.834c1.02 1.02 2.69 1.022 3.7.007l40.71-40.713a2.58 2.58 0 012.97-.509 2.577 2.577 0 011.48 2.625l-4.81 48.582c-.08.808.18 1.537.75 2.111l19.78 19.78c.58.576 1.31.835 2.12.755v.001zm-245.33 106.63l-76.26 76.257a2.615 2.615 0 000 3.696l17.84 17.835a2.623 2.623 0 003.7.005l26.14-26.142a2.61 2.61 0 013.69.005l2.66 2.663c.94.934 1.03 2.389.24 3.436-15.11 19.823-17.51 43.728 10.95 72.18l4.3 4.307c32.9 32.901 59.78 24.455 81.37 2.859l6.21-6.208c21.6-21.595 30.04-48.469-2.86-81.37l-4.3-4.308c-29.05-29.043-53.32-25.864-73.49-9.93-1.04.827-2.53.74-3.47-.202l-2.52-2.518a2.615 2.615 0 010-3.696l27.33-27.333a2.618 2.618 0 000-3.699l-17.84-17.834a2.61 2.61 0 00-3.69-.003zm10.74 86.995c12.05-12.051 23.15-23.149 45.88-.416 22.73 22.732 11.63 33.83-.42 45.881-12.17 12.172-23.27 23.269-46 .536-22.73-22.732-11.64-33.829.54-46.001zm155.04-158.264l-57.16 57.163a2.624 2.624 0 01-3.7-.003l-22.02-22.022a2.616 2.616 0 010-3.697l57.16-57.163c1.02-1.017 1.01-2.679-.01-3.698l-17.83-17.835a2.623 2.623 0 00-3.7-.003l-76.25 76.256a2.613 2.613 0 000 3.695l112.36 112.354a2.612 2.612 0 003.69.004l76.26-76.256a2.625 2.625 0 00-.01-3.697l-17.83-17.834a2.623 2.623 0 00-3.7-.005l-57.16 57.163a2.622 2.622 0 01-3.7-.003l-22.02-22.022a2.616 2.616 0 010-3.697l57.16-57.163a2.616 2.616 0 00-.01-3.697l-17.83-17.836a2.623 2.623 0 00-3.7-.003v-.001zm418.12-373.932l48.58-4.814c1.12-.11 2.14.465 2.62 1.484s.29 2.172-.51 2.966l-40.71 40.713a2.623 2.623 0 00.01 3.695l17.83 17.836a2.624 2.624 0 003.7.005l76.25-76.258a2.614 2.614 0 000-3.695l-18.77-18.768c-.6-.598-1.36-.86-2.2-.746l-58.15 7.821.15-.155-21.28 2.665a2.536 2.536 0 01-2.17-.747 2.557 2.557 0 01-.75-2.177l2.67-21.277-.16.155 7.82-58.156a2.546 2.546 0 00-.75-2.2l-18.76-18.768a2.625 2.625 0 00-3.7-.005l-76.26 76.258a2.622 2.622 0 00.01 3.695l17.83 17.834a2.625 2.625 0 003.7.007l40.71-40.712a2.58 2.58 0 012.97-.51 2.577 2.577 0 011.48 2.625l-4.81 48.582c-.08.808.18 1.537.75 2.111l19.78 19.78a2.56 2.56 0 002.12.755zm-245.33 106.631l-76.26 76.256a2.615 2.615 0 000 3.696l17.84 17.835a2.623 2.623 0 003.7.005l26.14-26.142a2.612 2.612 0 013.69.005l2.66 2.663c.94.934 1.03 2.389.24 3.436-15.11 19.823-17.51 43.728 10.95 72.18l4.3 4.307c32.9 32.901 59.78 24.455 81.37 2.859l6.21-6.208c21.6-21.595 30.04-48.469-2.86-81.37l-4.3-4.308c-29.05-29.043-53.32-25.864-73.49-9.93-1.04.827-2.53.74-3.47-.202l-2.52-2.517a2.616 2.616 0 010-3.697l27.33-27.333a2.618 2.618 0 000-3.699l-17.84-17.834a2.61 2.61 0 00-3.69-.003v.001zm10.74 86.994c12.05-12.051 23.15-23.149 45.88-.416 22.73 22.732 11.63 33.831-.42 45.881-12.17 12.172-23.27 23.269-46 .537-22.73-22.733-11.64-33.83.54-46.002zm155.04-158.263l-57.16 57.163a2.625 2.625 0 01-3.7-.003l-22.02-22.023a2.616 2.616 0 010-3.697l57.16-57.163c1.02-1.017 1.01-2.679-.01-3.698l-17.83-17.835a2.623 2.623 0 00-3.7-.003l-76.25 76.256a2.614 2.614 0 000 3.695l112.36 112.354a2.613 2.613 0 003.69.005l76.26-76.256a2.626 2.626 0 00-.01-3.698l-17.83-17.834a2.624 2.624 0 00-3.7-.005l-57.16 57.163a2.622 2.622 0 01-3.7-.003l-22.02-22.022a2.616 2.616 0 010-3.697l57.16-57.163a2.616 2.616 0 00-.01-3.697l-17.83-17.836a2.623 2.623 0 00-3.7-.003zm-236.96 10.676l48.58-4.814c1.12-.11 2.14.465 2.62 1.484s.29 2.172-.51 2.966l-40.71 40.713a2.623 2.623 0 00.01 3.695l17.83 17.836a2.624 2.624 0 003.7.005l76.25-76.258a2.614 2.614 0 000-3.695l-18.77-18.768c-.6-.598-1.36-.86-2.2-.746l-58.16 7.822.16-.156-21.28 2.665a2.526 2.526 0 01-2.17-.747 2.557 2.557 0 01-.75-2.177l2.66-21.277-.15.155 7.82-58.156a2.546 2.546 0 00-.75-2.2l-18.76-18.768a2.624 2.624 0 00-3.7-.005l-76.26 76.258a2.622 2.622 0 00.01 3.695l17.83 17.834a2.625 2.625 0 003.7.007l40.71-40.713a2.58 2.58 0 012.97-.51 2.577 2.577 0 011.48 2.626l-4.81 48.582c-.08.808.18 1.537.75 2.111l19.78 19.78a2.55 2.55 0 002.11.755h.01zm-245.34 106.631l-76.25 76.256a2.615 2.615 0 000 3.696l17.84 17.835c1.02 1.019 2.68 1.022 3.69.005l26.15-26.142a2.612 2.612 0 013.69.005l2.66 2.663c.94.934 1.03 2.389.24 3.436-15.11 19.823-17.51 43.728 10.95 72.18l4.3 4.307c32.9 32.901 59.78 24.455 81.37 2.859l6.21-6.208c21.59-21.595 30.04-48.469-2.86-81.37l-4.31-4.308c-29.04-29.043-53.31-25.864-73.48-9.93-1.04.827-2.53.74-3.47-.202l-2.52-2.517a2.616 2.616 0 010-3.697l27.33-27.333a2.618 2.618 0 000-3.699l-17.84-17.834a2.622 2.622 0 00-3.7-.003v.001zm10.75 86.994c12.05-12.051 23.15-23.149 45.88-.416 22.73 22.732 11.63 33.831-.42 45.881-12.17 12.172-23.27 23.269-46 .537-22.73-22.733-11.64-33.83.54-46.002zm155.04-158.263l-57.16 57.163a2.624 2.624 0 01-3.7-.004l-22.02-22.022a2.616 2.616 0 010-3.697l57.16-57.163c1.02-1.017 1.01-2.679-.01-3.698l-17.83-17.835a2.623 2.623 0 00-3.7-.003l-76.25 76.256a2.615 2.615 0 000 3.696l112.35 112.353a2.625 2.625 0 003.7.005l76.26-76.257a2.625 2.625 0 00-.01-3.697l-17.83-17.834a2.623 2.623 0 00-3.7-.005l-57.16 57.163a2.622 2.622 0 01-3.7-.003l-22.02-22.022a2.625 2.625 0 01-.01-3.697l57.17-57.163a2.625 2.625 0 00-.01-3.697l-17.83-17.836a2.623 2.623 0 00-3.7-.003zm-259.03 303.209l48.58-4.814c1.13-.11 2.15.465 2.63 1.484s.29 2.172-.51 2.966l-40.71 40.713c-1.02 1.015-1.01 2.677 0 3.695l17.84 17.836a2.625 2.625 0 003.7.005l76.25-76.258a2.615 2.615 0 000-3.696l-18.77-18.767c-.6-.598-1.36-.86-2.2-.746l-58.16 7.821.16-.156-21.28 2.666c-.83.104-1.58-.156-2.18-.748a2.52 2.52 0 01-.74-2.176l2.66-21.278-.15.156 7.82-58.156a2.546 2.546 0 00-.75-2.201l-18.76-18.767a2.624 2.624 0 00-3.7-.005l-76.26 76.258a2.623 2.623 0 00.01 3.695l17.83 17.834a2.624 2.624 0 003.7.007l40.71-40.713c.79-.794 1.95-.991 2.97-.509a2.577 2.577 0 011.48 2.625l-4.81 48.582c-.08.808.18 1.537.75 2.111l19.78 19.78c.58.576 1.3.835 2.11.755v.001zm-245.33 106.63l-76.25 76.257a2.615 2.615 0 000 3.696l17.84 17.835a2.612 2.612 0 003.69.005l26.15-26.142a2.61 2.61 0 013.69.005l2.66 2.663c.94.934 1.03 2.389.24 3.436-15.11 19.823-17.51 43.728 10.94 72.18l4.31 4.307c32.9 32.901 59.78 24.455 81.37 2.859l6.21-6.208c21.59-21.595 30.04-48.469-2.86-81.37l-4.31-4.308c-29.04-29.043-53.31-25.864-73.48-9.93-1.05.826-2.53.74-3.47-.202l-2.52-2.518a2.615 2.615 0 010-3.696l27.33-27.333c1.02-1.017 1.01-2.68 0-3.699l-17.84-17.835a2.623 2.623 0 00-3.7-.002zm10.75 86.995c12.05-12.051 23.14-23.149 45.88-.416 22.73 22.732 11.63 33.83-.42 45.881-12.17 12.172-23.27 23.269-46 .536-22.73-22.732-11.64-33.829.54-46.001zm155.04-158.264l-57.16 57.163a2.624 2.624 0 01-3.7-.003l-22.02-22.022a2.625 2.625 0 01-.01-3.697l57.17-57.163a2.626 2.626 0 00-.01-3.698l-17.83-17.835a2.623 2.623 0 00-3.7-.003L1187 480.292a2.613 2.613 0 000 3.695l112.35 112.353a2.624 2.624 0 003.7.005l76.26-76.256a2.625 2.625 0 00-.01-3.697l-17.83-17.834a2.623 2.623 0 00-3.7-.005l-57.16 57.163a2.622 2.622 0 01-3.7-.003l-22.02-22.023a2.624 2.624 0 01-.01-3.696l57.17-57.163a2.625 2.625 0 00-.01-3.697l-17.83-17.836a2.623 2.623 0 00-3.7-.003v-.001zm756.69-712.503l48.58-4.814a2.573 2.573 0 012.62 1.484c.48 1.019.29 2.173-.51 2.967l-40.71 40.712a2.623 2.623 0 00.01 3.695l17.83 17.836a2.624 2.624 0 003.7.005l76.25-76.258a2.613 2.613 0 000-3.695l-18.77-18.767c-.6-.599-1.36-.861-2.2-.747l-58.15 7.822.15-.156-21.28 2.666a2.54 2.54 0 01-2.17-.748 2.557 2.557 0 01-.75-2.177l2.67-21.277-.16.156 7.82-58.156a2.545 2.545 0 00-.75-2.201l-18.76-18.768a2.625 2.625 0 00-3.7-.005l-76.26 76.258a2.623 2.623 0 00.01 3.695l17.83 17.835a2.625 2.625 0 003.7.006l40.71-40.712a2.58 2.58 0 012.97-.51 2.577 2.577 0 011.48 2.625l-4.81 48.582c-.08.809.18 1.537.75 2.112l19.78 19.78c.58.576 1.31.834 2.12.754v.001zm-245.33 106.631l-76.26 76.256a2.615 2.615 0 000 3.697l17.84 17.834a2.623 2.623 0 003.7.005l26.14-26.142a2.61 2.61 0 013.69.005l2.66 2.664c.94.934 1.03 2.388.24 3.435-15.11 19.824-17.51 43.728 10.95 72.18l4.3 4.307c32.9 32.902 59.78 24.455 81.37 2.86l6.21-6.209c21.6-21.595 30.04-48.468-2.86-81.37l-4.3-4.307c-29.05-29.044-53.32-25.865-73.49-9.93a2.606 2.606 0 01-3.47-.203l-2.52-2.517a2.616 2.616 0 010-3.697l27.33-27.333a2.618 2.618 0 000-3.699l-17.84-17.834a2.611 2.611 0 00-3.69-.003v.001zm10.74 86.994c12.05-12.05 23.15-23.149 45.88-.416 22.73 22.733 11.63 33.83-.42 45.881-12.17 12.172-23.27 23.27-46 .537s-11.64-33.83.54-46.002zm155.04-158.263l-57.16 57.163a2.624 2.624 0 01-3.7-.003l-22.02-22.023a2.616 2.616 0 010-3.697l57.16-57.163c1.02-1.017 1.01-2.679-.01-3.698l-17.83-17.835a2.623 2.623 0 00-3.7-.003l-76.25 76.256a2.615 2.615 0 000 3.696L1976.5-80.801a2.612 2.612 0 003.69.005l76.26-76.256a2.625 2.625 0 00-.01-3.697l-17.83-17.834a2.622 2.622 0 00-3.7-.005l-57.16 57.163a2.622 2.622 0 01-3.7-.004l-22.02-22.022a2.616 2.616 0 010-3.697l57.16-57.163a2.616 2.616 0 00-.01-3.697l-17.83-17.836a2.623 2.623 0 00-3.7-.003zm-692.55 466.26l48.58-4.814a2.587 2.587 0 012.63 1.484 2.582 2.582 0 01-.51 2.966l-40.71 40.713a2.613 2.613 0 000 3.695l17.84 17.836a2.612 2.612 0 003.69.005l76.26-76.258a2.623 2.623 0 00-.01-3.695l-18.76-18.768c-.6-.598-1.37-.86-2.2-.746l-58.16 7.821.16-.155-21.28 2.665a2.545 2.545 0 01-2.18-.747 2.557 2.557 0 01-.75-2.177l2.67-21.277-.16.155 7.83-58.156a2.543 2.543 0 00-.75-2.2l-18.77-18.768a2.613 2.613 0 00-3.69-.005l-76.26 76.258a2.613 2.613 0 000 3.695l17.84 17.834a2.612 2.612 0 003.69.007l40.72-40.712c.79-.794 1.94-.992 2.96-.51a2.584 2.584 0 011.49 2.625l-4.82 48.582c-.08.808.18 1.537.76 2.111l19.78 19.78c.57.576 1.3.835 2.11.755v.001zm-245.33 106.631L973.514 423.3a2.618 2.618 0 00.003 3.696l17.834 17.835a2.622 2.622 0 003.699.005l26.14-26.142a2.624 2.624 0 013.7.005l2.66 2.663c.93.934 1.03 2.389.23 3.436-15.11 19.823-17.5 43.728 10.95 72.18l4.31 4.307c32.9 32.901 59.77 24.455 81.37 2.859l6.21-6.208c21.59-21.595 30.04-48.469-2.86-81.37l-4.31-4.308c-29.04-29.043-53.31-25.864-73.49-9.93-1.04.827-2.52.74-3.47-.202l-2.51-2.517a2.625 2.625 0 01-.01-3.697l27.34-27.333a2.627 2.627 0 00-.01-3.699l-17.83-17.834a2.622 2.622 0 00-3.7-.003v.001zm10.74 86.994c12.05-12.051 23.15-23.149 45.88-.416 22.74 22.732 11.64 33.831-.41 45.881-12.17 12.172-23.27 23.269-46 .537-22.74-22.733-11.64-33.83.53-46.002zm155.05-158.263l-57.17 57.163a2.613 2.613 0 01-3.69-.003l-22.03-22.023a2.616 2.616 0 010-3.697l57.16-57.163a2.617 2.617 0 000-3.698l-17.84-17.835a2.611 2.611 0 00-3.69-.003l-76.26 76.256a2.624 2.624 0 00.01 3.696l112.35 112.353a2.625 2.625 0 003.7.005l76.25-76.257a2.616 2.616 0 000-3.697l-17.84-17.834a2.612 2.612 0 00-3.69-.005l-57.17 57.163a2.61 2.61 0 01-3.69-.003l-22.03-22.022a2.616 2.616 0 010-3.697l57.16-57.163a2.616 2.616 0 000-3.697l-17.84-17.836a2.611 2.611 0 00-3.69-.003zm418.11-373.933l48.58-4.813c1.12-.11 2.15.464 2.63 1.483a2.584 2.584 0 01-.51 2.967l-40.71 40.712a2.614 2.614 0 000 3.696l17.84 17.835a2.612 2.612 0 003.69.005l76.26-76.258a2.613 2.613 0 000-3.695l-18.77-18.767c-.6-.599-1.37-.861-2.2-.746l-58.16 7.821.16-.156-21.28 2.666a2.549 2.549 0 01-2.18-.748 2.521 2.521 0 01-.74-2.177l2.66-21.277-.15.156 7.82-58.156a2.545 2.545 0 00-.75-2.201l-18.77-18.768a2.613 2.613 0 00-3.69-.005l-76.26 76.259a2.621 2.621 0 00.01 3.694l17.83 17.835a2.626 2.626 0 003.7.007l40.71-40.713a2.565 2.565 0 012.96-.51 2.585 2.585 0 011.49 2.625l-4.81 48.582c-.08.809.17 1.538.75 2.112l19.78 19.78c.57.576 1.3.834 2.11.754v.001zM1388.34 8.473l-76.25 76.256a2.615 2.615 0 000 3.697l17.83 17.834a2.623 2.623 0 003.7.005l26.14-26.141a2.623 2.623 0 013.7.005l2.66 2.663c.94.934 1.03 2.388.23 3.436-15.1 19.823-17.5 43.728 10.95 72.179l4.31 4.308c32.9 32.901 59.77 24.454 81.37 2.859l6.21-6.208c21.59-21.596 30.04-48.469-2.86-81.37l-4.31-4.308c-29.04-29.044-53.31-25.865-73.48-9.93-1.05.826-2.53.74-3.47-.203l-2.52-2.517a2.625 2.625 0 01-.01-3.697l27.34-27.333a2.627 2.627 0 00-.01-3.699l-17.83-17.834a2.623 2.623 0 00-3.7-.003v.001zm10.74 86.994c12.05-12.05 23.15-23.148 45.89-.416 22.73 22.733 11.63 33.831-.42 45.881-12.17 12.172-23.27 23.269-46 .537-22.74-22.733-11.64-33.829.53-46.002zm155.05-158.263l-57.16 57.163a2.624 2.624 0 01-3.7-.003l-22.02-22.023a2.625 2.625 0 01-.01-3.697l57.17-57.163a2.627 2.627 0 00-.01-3.698l-17.83-17.834a2.622 2.622 0 00-3.7-.003l-76.26 76.256a2.623 2.623 0 00.01 3.695L1542.97 82.25a2.624 2.624 0 003.7.005l76.25-76.256a2.616 2.616 0 000-3.697l-17.83-17.834c-1.02-1.02-2.69-1.022-3.7-.005l-57.17 57.163a2.61 2.61 0 01-3.69-.003L1518.51 19.6c-1.02-1.02-1.03-2.68-.01-3.697l57.16-57.163a2.616 2.616 0 000-3.697l-17.83-17.835a2.623 2.623 0 00-3.7-.004zm348.1 507.502l48.58-4.813c1.12-.11 2.14.465 2.62 1.483.48 1.019.29 2.173-.51 2.967l-40.71 40.713a2.623 2.623 0 00.01 3.695l17.83 17.835a2.624 2.624 0 003.7.006l76.25-76.259a2.613 2.613 0 000-3.695l-18.77-18.767c-.6-.598-1.36-.861-2.2-.746l-58.16 7.821.16-.156-21.28 2.666a2.523 2.523 0 01-2.17-.748 2.557 2.557 0 01-.75-2.177l2.66-21.277-.15.156 7.82-58.156a2.545 2.545 0 00-.75-2.201l-18.76-18.768a2.624 2.624 0 00-3.7-.004l-76.26 76.258a2.623 2.623 0 00.01 3.695l17.83 17.834a2.625 2.625 0 003.7.007l40.71-40.713a2.58 2.58 0 012.97-.51 2.578 2.578 0 011.48 2.626l-4.81 48.582c-.08.808.18 1.537.75 2.111l19.78 19.78a2.55 2.55 0 002.11.755h.01zm-245.34 106.631l-76.25 76.256a2.616 2.616 0 000 3.697l17.84 17.834a2.61 2.61 0 003.69.005l26.15-26.141a2.61 2.61 0 013.69.005l2.66 2.663c.94.934 1.03 2.388.24 3.436-15.11 19.823-17.51 43.728 10.95 72.179l4.3 4.308c32.9 32.901 59.78 24.454 81.37 2.859l6.21-6.208c21.6-21.595 30.04-48.469-2.86-81.371l-4.3-4.307c-29.05-29.043-53.32-25.865-73.49-9.93a2.607 2.607 0 01-3.47-.202l-2.52-2.518a2.615 2.615 0 010-3.696l27.33-27.334a2.617 2.617 0 000-3.698l-17.84-17.835a2.624 2.624 0 00-3.7-.003v.001zm10.75 86.995c12.05-12.051 23.15-23.149 45.88-.417 22.73 22.733 11.63 33.831-.42 45.882-12.17 12.172-23.27 23.269-46 .536-22.73-22.732-11.64-33.829.54-46.001zm155.04-158.264l-57.16 57.163a2.624 2.624 0 01-3.7-.003l-22.02-22.023a2.615 2.615 0 010-3.696l57.16-57.163c1.02-1.017 1.01-2.679-.01-3.699l-17.83-17.834a2.623 2.623 0 00-3.7-.003l-76.25 76.256a2.613 2.613 0 000 3.695l112.35 112.353c1.02 1.02 2.69 1.02 3.7.005l76.26-76.256a2.625 2.625 0 00-.01-3.697l-17.83-17.834a2.623 2.623 0 00-3.7-.005l-57.16 57.163a2.622 2.622 0 01-3.7-.003l-22.02-22.023a2.624 2.624 0 01-.01-3.696l57.17-57.163a2.625 2.625 0 00-.01-3.697l-17.83-17.836a2.622 2.622 0 00-3.7-.003v-.001zm418.12-373.933l48.58-4.813c1.12-.11 2.14.465 2.62 1.484a2.551 2.551 0 01-.51 2.966l-40.71 40.713a2.623 2.623 0 00.01 3.695l17.83 17.836a2.625 2.625 0 003.7.005l76.26-76.258a2.623 2.623 0 00-.01-3.696L2329.8 69.3a2.524 2.524 0 00-2.2-.746l-58.15 7.821.15-.156-21.27 2.666a2.546 2.546 0 01-2.18-.748 2.557 2.557 0 01-.75-2.177l2.67-21.277-.16.156 7.82-58.156a2.568 2.568 0 00-.74-2.2l-18.77-18.768a2.624 2.624 0 00-3.7-.005l-76.25 76.258a2.613 2.613 0 000 3.695l17.83 17.834c1.02 1.02 2.69 1.022 3.7.007l40.71-40.713a2.58 2.58 0 012.97-.51 2.577 2.577 0 011.48 2.626l-4.81 48.582c-.08.808.18 1.537.75 2.111l19.78 19.78c.58.576 1.31.835 2.12.755zm-245.33 106.631l-76.26 76.256a2.616 2.616 0 000 3.697l17.84 17.834a2.622 2.622 0 003.7.005l26.14-26.141a2.61 2.61 0 013.69.005l2.67 2.663c.93.934 1.03 2.388.23 3.436-15.11 19.823-17.5 43.728 10.95 72.179l4.31 4.308c32.9 32.901 59.77 24.454 81.36 2.859l6.21-6.208c21.6-21.595 30.05-48.469-2.86-81.371l-4.3-4.307c-29.05-29.043-53.32-25.864-73.49-9.93a2.607 2.607 0 01-3.47-.202l-2.52-2.518a2.615 2.615 0 010-3.696l27.33-27.333a2.618 2.618 0 000-3.699l-17.84-17.835a2.611 2.611 0 00-3.69-.002zm10.74 86.995c12.05-12.051 23.15-23.149 45.88-.417 22.73 22.733 11.63 33.831-.42 45.882-12.17 12.172-23.27 23.269-46 .536-22.73-22.732-11.63-33.829.54-46.001zm155.04-158.264l-57.16 57.163a2.624 2.624 0 01-3.7-.003l-22.02-22.022a2.616 2.616 0 010-3.697l57.16-57.163a2.618 2.618 0 000-3.699l-17.84-17.834a2.61 2.61 0 00-3.69-.003l-76.26 76.256a2.613 2.613 0 000 3.695l112.36 112.353a2.612 2.612 0 003.69.005l76.26-76.256c1.02-1.017 1.01-2.677-.01-3.697l-17.83-17.834a2.623 2.623 0 00-3.7-.005l-57.16 57.163a2.622 2.622 0 01-3.7-.003l-22.02-22.023a2.615 2.615 0 010-3.696l57.16-57.163c1.02-1.017 1.01-2.679 0-3.697l-17.84-17.836a2.623 2.623 0 00-3.7-.003v-.001zm-63.36 378.021l48.58-4.814a2.573 2.573 0 012.62 1.484 2.553 2.553 0 01-.51 2.967l-40.71 40.712a2.624 2.624 0 00.01 3.696l17.83 17.835a2.624 2.624 0 003.7.005l76.26-76.258a2.623 2.623 0 00-.01-3.695l-18.77-18.767a2.523 2.523 0 00-2.2-.747l-58.15 7.822.15-.156-21.27 2.666a2.549 2.549 0 01-2.18-.748 2.557 2.557 0 01-.75-2.177l2.67-21.277-.16.156 7.82-58.156a2.568 2.568 0 00-.74-2.201l-18.77-18.768a2.625 2.625 0 00-3.7-.005l-76.26 76.258a2.623 2.623 0 00.01 3.695l17.83 17.835c1.02 1.019 2.69 1.021 3.7.006l40.71-40.712a2.58 2.58 0 012.97-.51 2.577 2.577 0 011.48 2.625l-4.81 48.582c-.08.809.18 1.537.75 2.112l19.78 19.78c.58.576 1.31.834 2.12.754v.001zm-245.33 106.631l-76.26 76.256a2.616 2.616 0 000 3.697l17.84 17.834a2.623 2.623 0 003.7.005l26.14-26.141a2.611 2.611 0 013.69.004l2.67 2.664c.93.934 1.03 2.388.23 3.435-15.11 19.824-17.5 43.729 10.95 72.18l4.3 4.307c32.91 32.902 59.78 24.455 81.37 2.86l6.21-6.209c21.6-21.595 30.05-48.468-2.86-81.37l-4.3-4.307c-29.05-29.044-53.32-25.865-73.49-9.931-1.04.827-2.53.74-3.47-.202l-2.52-2.517a2.616 2.616 0 010-3.697l27.33-27.333a2.618 2.618 0 000-3.699l-17.84-17.834a2.611 2.611 0 00-3.69-.003v.001zm10.74 86.994c12.05-12.05 23.15-23.149 45.88-.416 22.73 22.733 11.63 33.831-.42 45.881-12.17 12.172-23.27 23.269-46 .537-22.73-22.733-11.63-33.83.54-46.002zm155.04-158.263l-57.16 57.163a2.624 2.624 0 01-3.7-.003l-22.02-22.023a2.616 2.616 0 010-3.697l57.16-57.163a2.617 2.617 0 000-3.698l-17.84-17.834a2.622 2.622 0 00-3.7-.004l-76.25 76.257a2.613 2.613 0 000 3.695l112.36 112.353a2.612 2.612 0 003.69.005l76.26-76.256a2.625 2.625 0 00-.01-3.697l-17.83-17.834a2.622 2.622 0 00-3.7-.005l-57.16 57.163a2.623 2.623 0 01-3.7-.003l-22.02-22.023a2.616 2.616 0 010-3.697l57.16-57.163c1.02-1.017 1.01-2.679 0-3.697l-17.84-17.836a2.623 2.623 0 00-3.7-.003z"/></g><defs><filter id="filter0_d_899_2921" x="-246.248" y="-711.915" width="1580.25" height="1378.22" filterUnits="userSpaceOnUse" color-interpolation-filters="sRGB"><feFlood flood-opacity="0" result="BackgroundImageFix"/><feColorMatrix in="SourceAlpha" values="0 0 0 0 0 0 0 0 0 0 0 0 0 0 0 0 0 0 127 0" result="hardAlpha"/><feOffset dy="4"/><feGaussianBlur stdDeviation="2"/><feComposite in2="hardAlpha" operator="out"/><feColorMatrix values="0 0 0 0 0 0 0 0 0 0 0 0 0 0 0 0 0 0 0.05 0"/><feBlend in2="BackgroundImageFix" result="effect1_dropShadow_899_2921"/><feBlend in="SourceGraphic" in2="effect1_dropShadow_899_2921" result="shape"/></filter><filter id="filter1_d_899_2921" x="968.752" y="-567.915" width="1580.25" height="1378.22" filterUnits="userSpaceOnUse" color-interpolation-filters="sRGB"><feFlood flood-opacity="0" result="BackgroundImageFix"/><feColorMatrix in="SourceAlpha" values="0 0 0 0 0 0 0 0 0 0 0 0 0 0 0 0 0 0 127 0" result="hardAlpha"/><feOffset dy="4"/><feGaussianBlur stdDeviation="2"/><feComposite in2="hardAlpha" operator="out"/><feColorMatrix values="0 0 0 0 0 0 0 0 0 0 0 0 0 0 0 0 0 0 0.05 0"/><feBlend in2="BackgroundImageFix" result="effect1_dropShadow_899_2921"/><feBlend in="SourceGraphic" in2="effect1_dropShadow_899_2921" result="shape"/></filter></defs></svg>