<svg width="952" height="630" viewBox="0 0 952 630" fill="none" xmlns="http://www.w3.org/2000/svg">
<g opacity="0.1">
<path d="M-58.4342 1919C-58.4342 1919 -58.4342 1485.83 -58.4342 1030.99C-58.4342 1007.05 -58.4342 983.023 -57.9021 958.544C-31.1457 781.946 11.0413 613.102 -14.2709 427.457C-31.1457 317.758 -64.8953 224.86 -58.2822 115.617C-58.4342 91.2902 -58.4342 70.1562 -58.4342 52.8993C-58.4342 18.3095 -58.4342 -0.847864 -58.4342 -0.847864" stroke="white" stroke-miterlimit="10"/>
<path d="M42.5864 1919C42.5864 1919 42.5864 1835.68 42.5864 1703.71C42.5864 1677.33 42.5864 1649.05 42.5864 1619.17C42.9665 1599.18 43.2706 1579.03 43.4987 1558.73C43.7267 1538.44 43.8787 1518.06 43.9547 1497.61C44.7148 1398.02 44.7148 1296.69 42.5864 1197.1C42.5864 1177.56 42.5864 1157.87 42.5864 1138.03C42.5864 1078.96 42.5864 1018.98 42.5864 959C42.5864 934.977 42.5865 911.03 42.6625 886.932C70.027 646.856 61.5896 410.505 43.1186 175.674C42.5865 139.716 42.5864 107.863 42.5864 81.6354C42.5864 29.1046 42.5864 -0.847864 42.5864 -0.847864" stroke="white" stroke-miterlimit="10"/>
<path d="M143.607 1919C143.607 1919 143.607 1899.77 143.607 1865.25C143.607 1848 143.607 1826.86 143.607 1802.38C143.911 1772.96 144.063 1743.62 144.063 1714.43C129.164 1457.25 146.039 1212.46 143.607 959.076C143.607 929.048 143.607 899.095 143.607 869.219C143.607 839.342 143.607 809.542 143.683 779.893C146.039 604.664 146.039 419.019 143.835 241.205C143.607 204.562 143.607 171.037 143.607 141.388C143.607 52.5192 143.607 -0.847864 143.607 -0.847864" stroke="white" stroke-miterlimit="10"/>
<path d="M244.628 1919C244.628 1919 244.628 1888.97 244.704 1837.05C244.096 1810.9 243.336 1784.82 241.967 1758.9C188.15 1465.61 230.413 1178.63 244.628 887.084C244.628 863.137 244.628 839.266 244.628 815.471C244.628 772.671 244.628 730.327 244.628 688.667C244.628 667.837 244.628 647.236 244.628 626.786C247.288 537.004 247.288 435.744 244.628 343.301C244.628 309.244 244.628 277.011 244.628 246.83C244.628 96.1554 244.628 -1.00006 244.628 -1.00006" stroke="white" stroke-miterlimit="10"/>
<path d="M345.648 1919C345.648 1919 345.648 1899.77 345.724 1865.71C343.444 1835.83 340.707 1806.03 336.375 1776.54C238.85 1490.92 272.6 1187.06 345.192 888.3C345.572 863.213 345.648 839.266 345.648 815.547C345.648 387.926 345.648 -0.847863 345.648 -0.847863" stroke="white" stroke-miterlimit="10"/>
<path d="M446.669 1919C446.669 1919 446.669 1899.77 446.745 1865.86C450.089 1839.94 449.861 1814.93 446.137 1790.68C424.473 1693.52 356.974 1617.57 331.662 1516.24C281.038 1296.76 399.161 1111.04 429.49 899.247C434.507 870.131 440.208 842.535 446.669 815.471C446.669 791.677 446.669 768.034 446.669 744.619C446.669 345.81 446.669 -0.924079 446.669 -0.924079" stroke="white" stroke-miterlimit="10"/>
<path d="M547.765 1919C547.765 1919 547.765 1899.77 547.765 1865.4C548.601 1847.77 549.742 1829.75 550.198 1811.96C567.985 1693.52 441.424 1642.89 407.674 1541.55C373.925 1457.17 390.799 1364.27 416.112 1279.89C458.299 1153.24 508.923 1035.1 526.634 898.715C532.791 869.979 539.556 842.687 546.701 815.699C547.689 791.753 547.689 768.11 547.765 744.695C547.765 345.886 547.765 -0.847862 547.765 -0.847862" stroke="white" stroke-miterlimit="10"/>
<path d="M648.786 1919C648.786 1919 648.786 1899.77 648.786 1865.25C648.786 1848 648.786 1826.86 648.71 1802.61C635.484 1752.66 660.872 1685.16 618.609 1651.4C373.849 1440.37 593.297 1144.95 623.778 896.586C630.847 869.599 638.752 842.687 647.57 815.699C648.634 791.829 648.634 768.186 648.71 744.695C648.71 345.886 648.71 -0.847862 648.71 -0.847862" stroke="white" stroke-miterlimit="10"/>
<path d="M749.807 1919C749.807 1919 749.807 1875.82 749.807 1802.38C749.807 1777.9 749.807 1750.08 749.502 1719.37C745.246 1693.52 753.759 1668.2 745.246 1651.33C576.422 1440.29 677.747 1203.94 715.221 978.614C720.39 950.638 725.711 923.498 731.564 896.358C737.036 869.523 742.965 842.535 749.274 815.547C749.655 791.753 749.731 768.186 749.807 744.695C749.807 345.886 749.807 -0.847863 749.807 -0.847863" stroke="white" stroke-miterlimit="10"/>
<path d="M850.827 1919C850.827 1919 850.827 1842.22 850.827 1719.37C850.827 1688.65 850.827 1655.05 850.751 1619.02C843.91 1592.49 838.133 1565.8 833.116 1539.12C812.745 1406.54 804.308 1271.52 819.358 1136.81C821.106 1109.67 823.159 1082.84 825.363 1056.08C827.643 1029.55 830 1003.09 832.508 976.865C834.789 950.105 837.449 923.27 840.49 896.434C843.53 869.599 846.951 842.611 850.751 815.623C850.751 791.829 850.827 768.262 850.827 744.771C850.827 345.962 850.827 -0.772004 850.827 -0.772004" stroke="white" stroke-miterlimit="10"/>
<path d="M951.848 1919C951.848 1919 951.848 1773.8 951.848 1563.3C951.772 1544.14 951.772 1524.45 951.62 1504.3C950.632 1452.46 949.948 1400.84 949.416 1349.45C948.883 1298.06 948.731 1246.82 948.731 1195.58C948.731 1144.34 948.959 1093.1 949.492 1041.79C950.024 990.397 950.708 938.93 951.696 887.16C951.696 863.213 951.772 839.342 951.772 815.547C951.772 387.926 951.772 -0.847864 951.772 -0.847864" stroke="white" stroke-miterlimit="10"/>
<path d="M951.848 706.457C951.848 706.457 638.904 706.457 265.759 706.457C246.148 706.457 226.309 706.457 206.393 706.457C142.467 718.848 85.1532 701.896 31.1844 676.504C13.1694 668.066 -4.38939 658.639 -21.7963 649.137C-107.158 587.863 -208.483 562.548 -318.169 579.425C-546.055 630.055 -740.191 739.83 -967.848 706.533" stroke="white" stroke-miterlimit="10"/>
<path d="M951.848 605.423C951.848 605.423 670.982 605.423 324.137 605.423C304.83 605.423 285.37 605.423 265.759 605.423C152.196 621.844 58.0168 570.986 -39.6592 527.805C-64.0593 517.01 -88.6873 506.747 -113.923 498.233C-166.296 478.087 -225.434 469.649 -276.058 478.087C-512.381 545.594 -723.392 638.493 -967.848 605.423" stroke="white" stroke-miterlimit="10"/>
<path d="M951.848 504.315C951.848 504.315 670.982 504.315 324.136 504.315C304.829 504.315 285.37 504.315 265.759 504.315C144.823 517.543 36.8091 466.988 -78.882 435.135C-101.99 428.749 -125.478 423.124 -149.346 418.943C-385.669 410.504 -613.554 528.642 -851.625 504.467C-887.883 504.315 -916.996 504.315 -936.987 504.315C-956.979 504.315 -967.772 504.315 -967.772 504.315" stroke="white" stroke-miterlimit="10"/>
<path d="M951.848 403.282C951.848 403.282 670.982 403.282 324.137 403.282C303.765 403.282 283.09 403.282 262.262 403.282C107.045 385.797 -46.5003 368.617 -200.73 364.359C-231.515 363.675 -262.376 363.447 -293.389 363.979C-453.243 368.236 -605.192 401.99 -768.239 403.358C-798.872 403.282 -826.693 403.282 -851.245 403.282C-924.673 403.282 -967.848 403.282 -967.848 403.282" stroke="white" stroke-miterlimit="10"/>
<path d="M951.848 302.25C951.848 302.25 638.904 302.25 265.759 302.25C243.791 302.25 221.672 302.25 199.4 302.174C20.2385 289.402 -153.45 285.525 -327.899 290.695C-352.831 291.455 -377.763 292.367 -402.695 293.507C-470.042 300.806 -546.055 300.806 -612.034 302.25C-647.151 302.25 -680.369 302.25 -711.458 302.25C-866.904 302.25 -967.696 302.25 -967.696 302.25" stroke="white" stroke-miterlimit="10"/>
<path d="M951.848 201.217C951.848 201.217 584.404 201.217 171.047 201.217C150.372 201.217 129.621 201.217 108.869 201.065C-65.0475 199.544 -250.746 191.106 -426.791 201.065C-446.098 201.217 -464.949 201.217 -483.42 201.217C-761.17 201.217 -967.848 201.217 -967.848 201.217" stroke="white" stroke-miterlimit="10"/>
<path d="M951.848 100.185C951.848 100.185 518.729 100.185 63.9457 100.185C40.0018 100.185 15.982 100.185 -7.96198 100.185C-98.7209 98.208 -200.046 98.208 -292.097 100.185C-315.129 100.185 -337.932 100.185 -360.432 100.185C-697.852 100.185 -967.848 100.185 -967.848 100.185" stroke="white" stroke-miterlimit="10"/>
</g>
</svg>
