<svg width="36" height="36" viewBox="0 0 36 36" fill="none" xmlns="http://www.w3.org/2000/svg">
<path d="M31.2188 22.2747L24.6234 19.4622C24.2831 19.3097 23.9096 19.2464 23.538 19.2784C23.1665 19.3104 22.8092 19.4366 22.5 19.645L18.9703 21.9935C16.8191 20.9486 15.0774 19.2168 14.0203 17.0716L16.3547 13.4997C16.5617 13.1902 16.6882 12.8338 16.7226 12.463C16.757 12.0921 16.6982 11.7186 16.5516 11.3763L13.725 4.78096C13.5278 4.33562 13.1938 3.96468 12.7715 3.72194C12.3493 3.4792 11.8607 3.37728 11.3766 3.43096C9.47755 3.67973 7.73349 4.60964 6.46864 6.04779C5.20379 7.48594 4.50422 9.33448 4.5 11.2497C4.5 22.4153 13.5844 31.4997 24.75 31.4997C26.6652 31.4955 28.5138 30.7959 29.9519 29.5311C31.3901 28.2662 32.32 26.5222 32.5688 24.6231C32.6224 24.139 32.5205 23.6504 32.2778 23.2282C32.035 22.8059 31.6641 22.4719 31.2188 22.2747Z" fill="white"/>
<path d="M22.1342 6.70722C23.8466 7.17506 25.4075 8.08131 26.6627 9.33654C27.9179 10.5918 28.8242 12.1526 29.292 13.865C29.3541 14.1055 29.494 14.3186 29.6898 14.4712C29.8857 14.6238 30.1265 14.7074 30.3748 14.7088C30.4748 14.7086 30.5742 14.6944 30.6701 14.6666C30.8132 14.6292 30.9473 14.5636 31.0646 14.4737C31.1819 14.3838 31.2802 14.2714 31.3535 14.143C31.4268 14.0147 31.4738 13.873 31.4917 13.7262C31.5096 13.5795 31.498 13.4307 31.4576 13.2885C30.8952 11.1913 29.7908 9.27905 28.2555 7.74372C26.7202 6.2084 24.8079 5.10406 22.7108 4.54159C22.564 4.48813 22.4078 4.46581 22.2519 4.47605C22.0961 4.4863 21.9441 4.52888 21.8056 4.60108C21.6671 4.67329 21.5451 4.77354 21.4475 4.89546C21.3499 5.01737 21.2787 5.15828 21.2386 5.3092C21.1984 5.46013 21.1901 5.61777 21.2141 5.77208C21.2382 5.9264 21.2942 6.07401 21.3784 6.20551C21.4627 6.33702 21.5734 6.44955 21.7035 6.53592C21.8336 6.6223 21.9803 6.68064 22.1342 6.70722Z" fill="white"/>
<path d="M20.9672 11.0529C21.9191 11.3135 22.7867 11.8175 23.4845 12.5153C24.1823 13.2132 24.6863 14.0807 24.9469 15.0326C25.0068 15.2742 25.146 15.4887 25.3424 15.6417C25.5388 15.7947 25.7808 15.8774 26.0297 15.8764C26.1251 15.8773 26.22 15.8631 26.311 15.8342C26.4552 15.7983 26.5909 15.7338 26.7098 15.6446C26.8287 15.5553 26.9284 15.4431 27.0032 15.3146C27.0779 15.1861 27.1261 15.0439 27.1449 14.8964C27.1637 14.7489 27.1527 14.5992 27.1125 14.456C26.7574 13.1194 26.0553 11.9004 25.0774 10.9225C24.0994 9.94454 22.8804 9.24244 21.5438 8.8873C21.397 8.83384 21.2408 8.81152 21.0849 8.82176C20.9291 8.832 20.7771 8.87458 20.6386 8.94679C20.5001 9.01899 20.3781 9.11925 20.2805 9.24116C20.1829 9.36307 20.1117 9.50398 20.0716 9.6549C20.0314 9.80583 20.0231 9.96347 20.0471 10.1178C20.0712 10.2721 20.1272 10.4197 20.2114 10.5512C20.2957 10.6827 20.4064 10.7952 20.5365 10.8816C20.6666 10.968 20.8133 11.0263 20.9672 11.0529Z" fill="white"/>
</svg>
