<svg width="36" height="36" viewBox="0 0 36 36" fill="none" xmlns="http://www.w3.org/2000/svg">
<mask id="mask0_3311_3838" style="mask-type:luminance" maskUnits="userSpaceOnUse" x="3" y="3" width="30" height="30">
<path d="M32.2106 17.9996C32.2106 10.1513 25.8483 3.78906 18.0001 3.78906C10.1518 3.78906 3.78955 10.1513 3.78955 17.9996C3.78955 25.8478 10.1518 32.2101 18.0001 32.2101C25.8483 32.2101 32.2106 25.8478 32.2106 17.9996Z" fill="white"/>
</mask>
<g mask="url(#mask0_3311_3838)">
<path d="M21.3452 17.35H12.9486V14.0273H21.3452C21.8357 14.0273 22.1767 14.1128 22.3479 14.2621C22.519 14.4114 22.625 14.6883 22.625 15.0928V16.2858C22.625 16.712 22.519 16.9889 22.3479 17.1382C22.1767 17.2875 21.8357 17.3513 21.3452 17.3513V17.35ZM21.9213 10.8948H9.3877V25.1041H12.9486V20.4812H19.5111L22.625 25.1041H26.6126L23.1794 20.4595C24.4451 20.272 25.0135 19.8841 25.4822 19.2448C25.9509 18.6055 26.186 17.5835 26.186 16.2195V15.154C26.186 14.3451 26.1004 13.7058 25.9509 13.2158C25.8015 12.7259 25.5461 12.2997 25.1833 11.9169C24.8002 11.5545 24.3736 11.2993 23.8614 11.1283C23.3492 10.9791 22.7093 10.8936 21.9213 10.8936V10.8948Z" fill="white"/>
<path d="M46.4211 3.78866C46.4211 11.6369 40.0588 17.9992 32.2105 17.9992C30.6149 17.9992 29.0808 17.7362 27.6489 17.2512C27.6795 16.9135 27.6931 16.5682 27.6931 16.2198V15.1544C27.6931 14.2498 27.5986 13.4523 27.3925 12.7765C27.1701 12.0477 26.789 11.4205 26.2772 10.8806L26.2488 10.8506L26.2189 10.8222C25.6737 10.3066 25.0556 9.93847 24.3385 9.69907L24.3109 9.68987L24.283 9.68174C23.6004 9.48277 22.8124 9.38674 21.9211 9.38674H20.414V9.38801H19.1457C18.4083 7.66978 18 5.77691 18 3.78866C18 -4.05961 24.3623 -10.4219 32.2105 -10.4219C40.0588 -10.4219 46.4211 -4.05961 46.4211 3.78866Z" fill="white"/>
</g>
<path d="M31.9953 18.0001C31.9953 10.2708 25.7294 4.00488 18.0001 4.00488C10.2708 4.00488 4.00488 10.2708 4.00488 18.0001C4.00488 25.7294 10.2708 31.9953 18.0001 31.9953C25.7294 31.9953 31.9953 25.7294 31.9953 18.0001Z" stroke="white" stroke-width="2"/>
</svg>
