<svg width="36" height="36" viewBox="0 0 36 36" fill="none" xmlns="http://www.w3.org/2000/svg">
<path d="M32.5266 4.45763C32.2145 4.19315 31.8366 4.01819 31.433 3.95133C31.0294 3.88448 30.6152 3.92823 30.2344 4.07794L4.27507 14.2733C3.81974 14.4467 3.43407 14.7651 3.17743 15.1793C2.92079 15.5934 2.80741 16.0805 2.85476 16.5654C2.897 17.0502 3.09525 17.5082 3.41978 17.8708C3.74431 18.2333 4.17762 18.4809 4.65476 18.5764L11.2501 19.8842V28.1248C11.2498 28.5706 11.382 29.0064 11.6299 29.377C11.8778 29.7475 12.2301 30.0361 12.6423 30.2061C12.915 30.3158 13.2061 30.3731 13.5001 30.3748C13.7956 30.3759 14.0883 30.3179 14.3612 30.2045C14.634 30.091 14.8815 29.9242 15.0891 29.7139L18.7454 26.0717L24.2719 30.9373C24.6799 31.2972 25.2045 31.497 25.7485 31.4998C25.9877 31.5047 26.2259 31.4666 26.4516 31.3873C26.8227 31.2699 27.1567 31.0576 27.4206 30.7715C27.6845 30.4854 27.8692 30.1354 27.9563 29.7561L33.2438 6.66544C33.3362 6.26701 33.3183 5.85091 33.1919 5.4619C33.0656 5.0729 32.8356 4.7257 32.5266 4.45763ZM25.7626 29.2498L14.1751 19.0545L30.8673 7.00294L25.7626 29.2498Z" fill="white"/>
</svg>
