<svg width="36" height="36" viewBox="0 0 36 36" fill="none" xmlns="http://www.w3.org/2000/svg">
<path fill-rule="evenodd" clip-rule="evenodd" d="M5.1 5.1C3 7.21999 3 10.61 3 17.4V18.6C3 25.38 3 28.77 5.1 30.9C7.21999 33 10.61 33 17.4 33H18.6C25.38 33 28.77 33 30.9 30.9C33 28.78 33 25.39 33 18.6V17.4C33 10.62 33 7.23 30.9 5.1C28.78 3 25.39 3 18.6 3H17.4C10.62 3 7.23 3 5.1 5.1ZM8.05999 12.13C8.22 19.93 12.12 24.61 18.96 24.61H19.36V20.1499C21.87 20.4 23.77 22.24 24.5299 24.61H28.08C27.7159 23.2633 27.0703 22.009 26.1861 20.9299C25.3018 19.851 24.1989 18.9717 22.95 18.3499C24.0691 17.6685 25.0357 16.7634 25.7893 15.6915C26.5429 14.6196 27.0675 13.4038 27.33 12.12H24.1099C23.41 14.6 21.33 16.8499 19.36 17.0599V12.13H16.1299V20.77C14.13 20.2699 11.61 17.85 11.5 12.13H8.05999Z" fill="white"/>
</svg>
