<svg width="36" height="36" viewBox="0 0 36 36" fill="none" xmlns="http://www.w3.org/2000/svg">
<path d="M18.0002 3.375C16.0318 3.37733 14.0842 3.77657 12.2737 4.54886C10.4632 5.32115 8.82707 6.45063 7.4631 7.86974C6.09912 9.28885 5.03534 10.9685 4.33536 12.8081C3.63539 14.6478 3.3136 16.6097 3.38923 18.5766C3.68454 26.2688 9.9986 32.4703 17.7049 32.625C20.2873 32.6753 22.8369 32.0408 25.0945 30.786C27.3522 29.5312 29.2372 27.7009 30.558 25.4812C30.6133 25.389 30.641 25.2828 30.6378 25.1753C30.6346 25.0678 30.6006 24.9635 30.5399 24.8747C30.4793 24.7859 30.3944 24.7164 30.2954 24.6743C30.1964 24.6323 30.0874 24.6195 29.9814 24.6375C29.5543 24.7129 29.1214 24.7506 28.6877 24.75C26.1142 24.75 24.6799 23.625 23.9205 22.6828C23.7451 22.4597 23.5854 22.2248 23.4424 21.9797C22.7616 22.9123 21.8529 23.6548 20.8032 24.136C19.7536 24.6172 18.598 24.821 17.4471 24.7281C16.2961 24.6352 15.1882 24.2485 14.2294 23.6051C13.2705 22.9618 12.4927 22.0832 11.9704 21.0533C11.4481 20.0235 11.1987 18.877 11.246 17.7232C11.2934 16.5695 11.6359 15.4472 12.2408 14.4636C12.8458 13.4801 13.6929 12.6682 14.7013 12.1055C15.7096 11.5429 16.8455 11.2483 18.0002 11.25C19.6634 11.2449 21.2685 11.8619 22.5002 12.9797V12.4172C22.4955 12.1253 22.6018 11.8424 22.7976 11.6258C22.9933 11.4092 23.264 11.2749 23.5549 11.25C23.7084 11.2404 23.8623 11.2624 24.007 11.3146C24.1517 11.3668 24.2842 11.4481 24.3962 11.5536C24.5082 11.659 24.5974 11.7863 24.6583 11.9276C24.7192 12.0689 24.7505 12.2212 24.7502 12.375V18C24.7502 20.0531 25.4392 22.5 28.6877 22.5C31.9361 22.5 32.5689 20.2219 32.6252 18.2109V18C32.6214 14.1224 31.0794 10.4046 28.3375 7.66268C25.5956 4.92076 21.8778 3.37872 18.0002 3.375Z" fill="white"/>
<path d="M18 22.5C20.4853 22.5 22.5 20.4853 22.5 18C22.5 15.5147 20.4853 13.5 18 13.5C15.5147 13.5 13.5 15.5147 13.5 18C13.5 20.4853 15.5147 22.5 18 22.5Z" fill="white"/>
</svg>
