<svg width="1920" height="338" viewBox="0 0 1920 338" fill="none" xmlns="http://www.w3.org/2000/svg">
<g opacity="0.1">
<path d="M1 34.9444C1 34.9444 20.2234 34.9444 54.7192 34.9444C71.9671 34.9444 93.0901 34.9445 117.328 34.8685C167.249 21.6492 234.72 47.0241 268.456 4.78316C479.382 -239.85 774.648 -20.5158 1022.88 9.94938C1049.85 17.0149 1076.75 24.916 1103.73 33.7288C1127.58 34.7925 1151.21 34.7925 1174.69 34.8685C1573.29 34.8685 1919.85 34.8685 1919.85 34.8685" stroke="white" stroke-miterlimit="10"/>
<path d="M1 135.912C1 135.912 44.1577 135.912 117.556 135.912C142.022 135.912 169.832 135.912 200.529 135.608C226.362 131.354 251.664 139.863 268.532 131.354C479.458 -37.3821 715.686 63.8899 940.897 101.345C968.858 106.511 995.984 111.829 1023.11 117.679C1049.93 123.149 1076.9 129.075 1103.88 135.38C1127.66 135.76 1151.21 135.836 1174.69 135.912C1573.29 135.912 1919.85 135.912 1919.85 135.912" stroke="white" stroke-miterlimit="10"/>
<path d="M1 236.88C1 236.88 77.7418 236.88 200.529 236.88C231.225 236.88 264.809 236.88 300.825 236.804C327.342 229.967 354.012 224.193 380.682 219.178C513.194 198.818 648.138 190.385 782.778 205.427C809.904 207.175 836.725 209.226 863.471 211.429C889.989 213.708 916.43 216.063 942.644 218.571C969.39 220.85 996.211 223.509 1023.03 226.548C1049.85 229.587 1076.83 233.005 1103.8 236.804C1127.58 236.804 1151.14 236.88 1174.62 236.88C1573.22 236.88 1919.77 236.88 1919.77 236.88" stroke="white" stroke-miterlimit="10"/>
<path d="M1 337.848C1 337.848 146.126 337.848 356.52 337.848C375.667 337.772 395.346 337.772 415.482 337.62C467.301 336.633 518.893 335.949 570.257 335.417C621.621 334.885 672.832 334.733 724.044 334.733C775.256 334.733 826.468 334.961 877.756 335.493C929.119 336.025 980.559 336.709 1032.3 337.696C1056.24 337.696 1080.1 337.772 1103.88 337.772C1531.28 337.772 1919.85 337.772 1919.85 337.772" stroke="white" stroke-miterlimit="10"/>
<path d="M1 337.849V-1580.77" stroke="white" stroke-miterlimit="10"/>
<path d="M101.98 337.849C101.98 337.849 101.98 261.116 101.98 138.344C101.98 107.651 101.98 74.0707 101.904 38.1355C101.22 -12.3105 100.688 -61.9208 100.46 -111.151C100.232 -160.458 100.232 -209.308 100.46 -258.463C100.688 -307.617 101.144 -357 101.828 -407.142C101.98 -430.618 102.056 -454.245 102.056 -477.949C102.056 -1000.34 102.056 -1580.7 102.056 -1580.7" stroke="white" stroke-miterlimit="10"/>
<path d="M202.96 337.849C202.96 337.849 202.96 294.696 202.96 221.306C202.96 196.843 202.96 169.037 202.96 138.116C192.626 -37.3818 192.626 -206.118 195.514 -380.4C197.869 -436.24 200.377 -493.295 202.96 -549.591C202.96 -573.523 202.96 -597.53 202.96 -621.462C202.96 -1101.15 202.96 -1580.77 202.96 -1580.77" stroke="white" stroke-miterlimit="10"/>
<path d="M304.016 337.849C304.016 337.849 304.016 327.06 304.016 307.08C304.016 287.099 304.016 258.001 303.94 221.002C260.098 -12.0828 251.664 -265.149 293.682 -499.373C296.95 -525.812 300.293 -553.01 303.864 -580.284C304.092 -600.873 304.092 -621.462 304.092 -641.974C304.092 -1114.68 304.092 -1580.77 304.092 -1580.77" stroke="white" stroke-miterlimit="10"/>
<path d="M404.996 337.849C400.665 310.802 396.41 283.908 392.383 257.089C344.438 -3.64981 302.268 -273.582 385.241 -531.206C391.243 -556.505 397.626 -582.867 404.768 -609.458C404.92 -631.49 404.92 -653.446 404.92 -675.403C404.92 -1136.41 404.92 -1580.77 404.92 -1580.77" stroke="white" stroke-miterlimit="10"/>
<path d="M505.976 335.798C506.888 312.322 505.976 289.302 503.469 266.662C479.458 89.1893 352.872 -71.0375 378.174 -265.072C395.042 -391.643 513.194 -475.973 505.9 -612.421C505.976 -633.389 505.976 -654.434 505.976 -675.326C505.976 -1136.33 505.976 -1580.7 505.976 -1580.7" stroke="white" stroke-miterlimit="10"/>
<path d="M606.728 331.011C606.576 301.913 603.689 273.499 598.142 245.238C504.76 -3.64978 361.382 -265.149 580.742 -509.782C606.044 -526.648 614.478 -568.812 607.032 -612.497C607.032 -633.465 607.032 -654.434 607.032 -675.403C606.956 -1136.41 606.956 -1580.77 606.956 -1580.77" stroke="white" stroke-miterlimit="10"/>
<path d="M707.556 328.656C701.629 298.799 695.627 269.093 688.788 239.54C589.1 -20.5155 513.118 -307.313 706.036 -549.439C707.556 -573.447 707.936 -597.454 707.936 -621.461C707.936 -721.366 707.936 -821.346 707.936 -916.92C707.936 -936.065 707.936 -954.983 707.936 -973.748C707.176 -1074.94 707.176 -1176.22 707.936 -1281.06C707.936 -1311.07 707.936 -1339.33 707.936 -1365.69C707.936 -1497.58 707.936 -1580.85 707.936 -1580.85" stroke="white" stroke-miterlimit="10"/>
<path d="M808.764 331.239C805.345 304.496 802.154 277.754 799.114 250.936C794.783 224.269 790.68 197.526 785.59 170.86C681.95 -71.1138 732.554 -315.747 808.156 -549.515C808.992 -580.968 808.992 -612.497 808.992 -643.95C808.992 -675.403 808.992 -706.855 808.992 -738.156C808.992 -758.973 808.992 -779.789 808.992 -800.454C809.98 -826.361 810.74 -852.267 811.271 -878.25C811.803 -904.233 812.107 -930.292 812.183 -956.654C808.536 -1117.19 808.536 -1269.05 808.992 -1425.18C808.992 -1449.41 808.992 -1471.29 808.992 -1490.44C808.992 -1547.88 808.992 -1580.92 808.992 -1580.92" stroke="white" stroke-miterlimit="10"/>
<path d="M909.972 335.797C909.136 308.599 908.376 281.401 907.845 254.278C907.161 226.928 906.629 199.654 906.021 172.151C850.63 -37.382 884.366 -256.716 909.364 -478.025C909.972 -501.804 909.972 -525.66 909.972 -549.591C909.972 -570.56 909.972 -591.528 909.972 -612.497C909.972 -633.465 909.972 -654.434 909.972 -675.403C912.707 -694.168 915.063 -712.629 917.038 -730.939C918.938 -749.172 920.534 -767.254 921.825 -785.259C943.48 -1041.21 909.744 -1285.85 909.972 -1539.29C909.972 -1566.11 909.972 -1580.77 909.972 -1580.77" stroke="white" stroke-miterlimit="10"/>
<path d="M1010.95 337.849C1010.95 279.881 1010.95 222.75 1010.95 166.074C1010.95 137.736 1010.95 109.55 1010.95 81.4399C1010.95 53.3299 1010.72 25.2958 1010.12 -2.58625C1002.52 -138.502 1010.95 -273.506 1011.03 -407.142C1011.03 -426.363 1011.03 -445.812 1011.03 -465.261C1011.03 -484.71 1011.03 -504.311 1011.03 -523.912C1011.03 -543.514 1011.03 -563.19 1011.03 -582.867C1021.59 -608.546 1030.25 -634.377 1037.32 -660.436C1086.93 -965.239 1002.59 -1277.34 1011.03 -1580.77" stroke="white" stroke-miterlimit="10"/>
<path d="M1111.93 337.849C1111.93 337.849 1111.93 294.696 1111.93 221.306C1111.93 196.843 1111.93 169.037 1111.93 138.268C1112.16 46.9484 1112.16 -45.8145 1111.93 -138.426C1111.93 -159.47 1111.93 -180.894 1111.93 -202.775C1111.93 -269.251 1111.93 -339.146 1111.93 -410.561C1111.93 -434.416 1111.93 -458.424 1111.93 -482.507C1112.01 -521.481 1114.21 -559.923 1122.65 -594.947C1131.08 -629.971 1145.9 -661.651 1171.05 -687.026C1204.93 -729.115 1230.24 -779.713 1230.24 -838.744C1213.37 -1091.81 1078.35 -1319.58 1111.86 -1580.85" stroke="white" stroke-miterlimit="10"/>
<path d="M1212.91 337.849C1212.91 337.849 1212.91 25.0682 1212.91 -347.883C1212.91 -367.484 1212.91 -387.313 1212.91 -407.218C1200.53 -471.111 1217.47 -528.395 1242.85 -582.335C1251.28 -600.341 1260.7 -617.891 1270.2 -635.288C1331.44 -720.606 1356.75 -821.878 1339.88 -931.507C1289.27 -1159.27 1179.56 -1353.31 1212.84 -1580.85" stroke="white" stroke-miterlimit="10"/>
<path d="M1313.89 337.849C1313.89 337.849 1313.89 57.1288 1313.89 -289.536C1313.89 -308.833 1313.89 -328.282 1313.89 -347.883C1297.48 -461.387 1348.31 -555.517 1391.47 -653.142C1402.26 -677.529 1412.52 -702.145 1421.03 -727.368C1441.16 -779.713 1449.6 -838.82 1441.16 -889.418C1373.69 -1125.62 1280.84 -1336.52 1313.89 -1580.85" stroke="white" stroke-miterlimit="10"/>
<path d="M1414.95 337.849C1414.95 337.849 1414.95 57.1286 1414.95 -289.536C1414.95 -308.833 1414.95 -328.282 1414.95 -347.883C1401.73 -468.756 1452.26 -576.714 1484.09 -692.344C1490.47 -715.44 1496.1 -738.916 1500.28 -762.771C1508.71 -998.971 1390.63 -1226.74 1414.8 -1464.69C1414.95 -1500.92 1414.95 -1530.02 1414.95 -1550C1414.95 -1569.98 1414.95 -1580.77 1414.95 -1580.77" stroke="white" stroke-miterlimit="10"/>
<path d="M1515.93 337.849C1515.93 337.849 1515.93 57.1288 1515.93 -289.536C1515.93 -309.896 1515.93 -330.561 1515.93 -351.378C1533.4 -506.514 1550.58 -659.98 1554.83 -814.129C1555.51 -844.898 1555.74 -875.743 1555.21 -906.74C1550.96 -1066.51 1517.22 -1218.38 1515.85 -1381.34C1515.93 -1411.96 1515.93 -1439.77 1515.93 -1464.31C1515.93 -1537.7 1515.93 -1580.85 1515.93 -1580.85" stroke="white" stroke-miterlimit="10"/>
<path d="M1616.91 337.849C1616.91 337.849 1616.91 25.0682 1616.91 -347.883C1616.91 -369.839 1616.91 -391.947 1616.98 -414.207C1629.75 -593.276 1633.62 -766.874 1628.46 -941.232C1627.7 -966.151 1626.79 -991.07 1625.65 -1015.99C1618.35 -1083.3 1618.35 -1159.27 1616.91 -1225.22C1616.91 -1260.32 1616.91 -1293.52 1616.91 -1324.59C1616.91 -1479.96 1616.91 -1580.7 1616.91 -1580.7" stroke="white" stroke-miterlimit="10"/>
<path d="M1717.89 337.849C1717.89 337.849 1717.89 -29.4044 1717.89 -442.545C1717.89 -463.21 1717.89 -483.95 1718.04 -504.691C1719.56 -678.517 1727.99 -864.119 1718.04 -1040.07C1717.89 -1059.37 1717.89 -1078.21 1717.89 -1096.67C1717.89 -1374.28 1717.89 -1580.85 1717.89 -1580.85" stroke="white" stroke-miterlimit="10"/>
<path d="M1818.87 337.849C1818.87 337.849 1818.87 -95.0451 1818.87 -549.591C1818.87 -573.523 1818.87 -597.53 1818.87 -621.461C1820.84 -712.173 1820.84 -813.445 1818.87 -905.448C1818.87 -928.468 1818.87 -951.26 1818.87 -973.748C1818.87 -1310.99 1818.87 -1580.85 1818.87 -1580.85" stroke="white" stroke-miterlimit="10"/>
<path d="M1919.85 337.849V-1580.77" stroke="white" stroke-miterlimit="10"/>
</g>
</svg>
