<svg width="1920" height="338" viewBox="0 0 1920 338" fill="none" xmlns="http://www.w3.org/2000/svg">
<g filter="url(#filter0_d_3451_5163)">
<path fill-rule="evenodd" clip-rule="evenodd" d="M839.327 333.117L923.936 324.733C925.889 324.542 927.673 325.542 928.509 327.317C929.351 329.092 929.007 331.101 927.624 332.484L856.717 403.391C854.95 405.158 854.954 408.054 856.726 409.826L887.79 440.89C889.566 442.665 892.458 442.666 894.225 440.899L1027.04 308.084C1028.81 306.316 1028.81 303.424 1027.03 301.648L994.345 268.962C993.303 267.92 991.968 267.464 990.512 267.663L889.225 281.285L889.496 281.013L852.439 285.656C850.995 285.837 849.675 285.384 848.645 284.354C847.618 283.326 847.165 282.006 847.345 280.562L851.988 243.505L851.717 243.777L865.338 142.49C865.534 141.03 865.081 139.699 864.039 138.657L831.352 105.97C829.577 104.195 826.685 104.193 824.917 105.961L692.103 238.776C690.335 240.544 690.336 243.436 692.111 245.211L723.172 276.272C724.948 278.048 727.843 278.051 729.611 276.284L800.518 205.377C801.9 203.994 803.91 203.65 805.681 204.489C807.459 205.329 808.46 207.113 808.265 209.062L799.885 293.674C799.745 295.082 800.196 296.351 801.196 297.351L835.646 331.801C836.649 332.804 837.917 333.254 839.326 333.115L839.327 333.117ZM412.049 518.829L279.239 651.64C277.467 653.411 277.469 656.303 279.244 658.078L310.305 689.14C312.08 690.915 314.975 690.919 316.747 689.148L362.276 643.619C364.046 641.849 366.935 641.852 368.711 643.628L373.349 648.266C374.976 649.893 375.143 652.426 373.755 654.25C347.441 688.775 343.271 730.409 392.823 779.961L400.325 787.463C457.627 844.765 504.429 830.054 542.041 792.442L552.853 781.63C590.464 744.019 605.179 697.215 547.876 639.912L540.374 632.41C489.791 581.827 447.523 587.363 412.387 615.115C410.571 616.555 407.983 616.403 406.343 614.763L401.959 610.379C400.183 608.603 400.182 605.711 401.953 603.94L449.557 556.336C451.329 554.565 451.325 551.669 449.549 549.894L418.488 518.833C416.713 517.058 413.821 517.057 412.049 518.828L412.049 518.829ZM430.758 670.342C451.746 649.355 471.075 630.025 510.667 669.617C550.259 709.209 530.93 728.539 509.942 749.526C488.743 770.726 469.415 790.053 429.823 750.461C390.231 710.869 409.558 691.542 430.758 670.342ZM700.79 394.704L601.233 494.262C599.462 496.033 596.567 496.029 594.795 494.256L556.439 455.901C554.663 454.125 554.662 451.234 556.434 449.462L655.991 349.905C657.762 348.134 657.758 345.239 655.982 343.464L624.921 312.402C623.146 310.627 620.254 310.626 618.483 312.397L485.672 445.208C483.904 446.976 483.905 449.868 485.68 451.644L681.359 647.323C683.135 649.098 686.027 649.099 687.795 647.331L820.606 514.52C822.377 512.749 822.376 509.857 820.6 508.081L789.54 477.021C787.764 475.246 784.869 475.241 783.098 477.012L683.541 576.57C681.77 578.341 678.878 578.34 677.103 576.564L638.747 538.209C636.971 536.433 636.97 533.542 638.741 531.77L738.299 432.213C740.07 430.442 740.066 427.547 738.293 425.774L707.229 394.71C705.454 392.935 702.562 392.934 700.791 394.705L700.79 394.704Z" fill="white" fill-opacity="0.01"/>
<path fill-rule="evenodd" clip-rule="evenodd" d="M1428.99 -256.553L1513.6 -264.936C1515.56 -265.127 1517.34 -264.127 1518.18 -262.352C1519.02 -260.578 1518.67 -258.568 1517.29 -257.186L1446.38 -186.279C1444.62 -184.511 1444.62 -181.616 1446.39 -179.843L1477.46 -148.78C1479.23 -147.004 1482.13 -147.003 1483.89 -148.771L1616.71 -281.585C1618.48 -283.353 1618.47 -286.245 1616.7 -288.021L1584.01 -320.707C1582.97 -321.749 1581.64 -322.206 1580.18 -322.006L1478.89 -308.385L1479.16 -308.656L1442.11 -304.013C1440.66 -303.833 1439.34 -304.286 1438.31 -305.316C1437.28 -306.343 1436.83 -307.663 1437.01 -309.107L1441.66 -346.164L1441.38 -345.893L1455.01 -447.18C1455.2 -448.639 1454.75 -449.971 1453.71 -451.013L1421.02 -483.699C1419.24 -485.475 1416.35 -485.476 1414.58 -483.708L1281.77 -350.893C1280 -349.126 1280 -346.234 1281.78 -344.458L1312.84 -313.397C1314.61 -311.622 1317.51 -311.618 1319.28 -313.385L1390.18 -384.292C1391.57 -385.675 1393.58 -386.019 1395.35 -385.18C1397.13 -384.341 1398.13 -382.556 1397.93 -380.608L1389.55 -295.995C1389.41 -294.587 1389.86 -293.318 1390.86 -292.318L1425.31 -257.868C1426.32 -256.865 1427.58 -256.415 1428.99 -256.554L1428.99 -256.553ZM1001.72 -70.8401L868.906 61.9708C867.135 63.742 867.136 66.6338 868.911 68.4091L899.972 99.4702C901.748 101.245 904.643 101.25 906.414 99.4788L951.943 53.9497C953.713 52.1791 956.602 52.1825 958.378 53.9584L963.016 58.5967C964.643 60.2233 964.81 62.7563 963.422 64.5806C937.109 99.1056 932.938 140.739 982.49 190.292L989.992 197.794C1047.29 255.096 1094.1 240.385 1131.71 202.773L1142.52 191.961C1180.13 154.35 1194.85 107.545 1137.54 50.2427L1130.04 42.7407C1079.46 -7.84235 1037.19 -2.30613 1002.05 25.4456C1000.24 26.8853 997.65 26.734 996.01 25.0936L991.626 20.7094C989.85 18.9335 989.85 16.0416 991.62 14.271L1039.22 -33.3333C1041 -35.1045 1040.99 -38.0001 1039.22 -39.7754L1008.16 -70.8365C1006.38 -72.6118 1003.49 -72.6126 1001.72 -70.8414L1001.72 -70.8401ZM1020.43 80.6728C1041.41 59.6851 1060.74 40.356 1100.33 79.948C1139.93 119.54 1120.6 138.869 1099.61 159.857C1078.41 181.056 1059.08 200.383 1019.49 160.791C979.899 121.199 999.225 101.873 1020.43 80.6728ZM1290.46 -194.965L1190.9 -95.4077C1189.13 -93.6366 1186.23 -93.6404 1184.46 -95.4131L1146.11 -133.769C1144.33 -135.545 1144.33 -138.436 1146.1 -140.207L1245.66 -239.764C1247.43 -241.536 1247.43 -244.43 1245.65 -246.206L1214.59 -277.267C1212.81 -279.042 1209.92 -279.044 1208.15 -277.272L1075.34 -144.462C1073.57 -142.694 1073.57 -139.801 1075.35 -138.026L1271.03 57.6531C1272.8 59.4291 1275.69 59.4297 1277.46 57.6616L1410.27 -75.1491C1412.04 -76.9203 1412.04 -79.8121 1410.27 -81.588L1379.21 -112.649C1377.43 -114.424 1374.54 -114.428 1372.77 -112.657L1273.21 -13.0998C1271.44 -11.3286 1268.55 -11.3293 1266.77 -13.1052L1228.41 -51.4607C1226.64 -53.2366 1226.64 -56.1279 1228.41 -57.8991L1327.97 -157.456C1329.74 -159.228 1329.73 -162.123 1327.96 -163.895L1296.9 -194.959C1295.12 -196.734 1292.23 -196.736 1290.46 -194.965L1290.46 -194.965Z" fill="white" fill-opacity="0.01"/>
<path fill-rule="evenodd" clip-rule="evenodd" d="M877.746 -176.371L962.355 -184.755C964.308 -184.946 966.091 -183.945 966.928 -182.171C967.77 -180.396 967.426 -178.387 966.043 -177.004L895.136 -106.097C893.369 -104.33 893.373 -101.434 895.145 -99.6614L926.209 -68.5983C927.985 -66.8223 930.877 -66.8216 932.644 -68.5891L1065.46 -201.404C1067.23 -203.172 1067.23 -206.063 1065.45 -207.839L1032.76 -240.525C1031.72 -241.567 1030.39 -242.024 1028.93 -241.825L927.644 -228.203L927.915 -228.475L890.858 -223.832C889.414 -223.651 888.094 -224.104 887.064 -225.134C886.037 -226.162 885.584 -227.482 885.764 -228.925L890.407 -265.983L890.136 -265.711L903.757 -366.998C903.953 -368.457 903.5 -369.789 902.458 -370.831L869.771 -403.518C867.996 -405.293 865.104 -405.294 863.336 -403.526L730.522 -270.712C728.754 -268.944 728.755 -266.052 730.53 -264.277L761.591 -233.215C763.367 -231.44 766.262 -231.436 768.03 -233.204L838.937 -304.111C840.319 -305.493 842.328 -305.838 844.1 -304.998C845.878 -304.159 846.879 -302.375 846.684 -300.426L838.304 -215.814C838.164 -214.406 838.615 -213.137 839.615 -212.137L874.065 -177.687C875.068 -176.684 876.336 -176.233 877.745 -176.372L877.746 -176.371ZM450.468 9.34154L317.657 142.152C315.886 143.924 315.888 146.815 317.663 148.591L348.724 179.652C350.499 181.427 353.394 181.432 355.165 179.66L400.695 134.131C402.465 132.361 405.354 132.364 407.13 134.14L411.768 138.778C413.395 140.405 413.562 142.938 412.174 144.762C385.86 179.287 381.69 220.921 431.242 270.473L438.744 277.975C496.046 335.277 542.848 320.566 580.46 282.955L591.272 272.142C628.883 234.531 643.598 187.727 586.295 130.424L578.793 122.922C528.21 72.3393 485.942 77.8755 450.806 105.627C448.99 107.067 446.402 106.916 444.762 105.275L440.378 100.891C438.602 99.1151 438.601 96.2233 440.372 94.4527L487.976 46.8483C489.748 45.0771 489.744 42.1816 487.968 40.4063L456.907 9.34512C455.132 7.56984 452.24 7.56909 450.468 9.34027L450.468 9.34154ZM469.177 160.854C490.165 139.867 509.494 120.538 549.086 160.13C588.678 199.722 569.349 219.051 548.361 240.038C527.162 261.238 507.834 280.565 468.242 240.973C428.65 201.381 447.977 182.054 469.177 160.854ZM739.209 -114.783L639.652 -15.2261C637.881 -13.4549 634.986 -13.4587 633.214 -15.2315L594.858 -53.587C593.082 -55.3629 593.081 -58.2542 594.853 -60.0254L694.41 -159.583C696.181 -161.354 696.177 -164.249 694.401 -166.024L663.34 -197.085C661.565 -198.861 658.673 -198.862 656.902 -197.091L524.091 -64.28C522.323 -62.5119 522.324 -59.6195 524.099 -57.8442L719.778 137.835C721.554 139.611 724.446 139.611 726.214 137.843L859.025 5.0325C860.796 3.2613 860.795 0.369561 859.019 -1.40636L827.959 -32.467C826.183 -34.2422 823.288 -34.2467 821.517 -32.4755L721.96 67.0818C720.189 68.853 717.297 68.8523 715.521 67.0764L677.166 28.7209C675.39 26.945 675.389 24.0537 677.16 22.2826L776.718 -77.2748C778.489 -79.046 778.485 -81.9409 776.712 -83.7137L745.648 -114.777C743.873 -116.553 740.981 -116.554 739.21 -114.783L739.209 -114.783Z" fill="white" fill-opacity="0.01"/>
<path fill-rule="evenodd" clip-rule="evenodd" d="M288.077 413.298L372.686 404.915C374.639 404.724 376.422 405.724 377.259 407.499C378.101 409.273 377.757 411.283 376.374 412.665L305.467 483.572C303.7 485.34 303.704 488.235 305.476 490.008L336.54 521.071C338.315 522.847 341.208 522.848 342.975 521.08L475.79 388.266C477.558 386.498 477.557 383.606 475.781 381.83L443.095 349.144C442.053 348.102 440.718 347.646 439.261 347.845L337.974 361.466L338.246 361.195L301.189 365.838C299.745 366.018 298.425 365.565 297.395 364.535C296.367 363.508 295.915 362.188 296.095 360.744L300.738 323.687L300.466 323.958L314.088 222.671C314.284 221.212 313.831 219.88 312.789 218.838L280.102 186.152C278.327 184.376 275.435 184.375 273.667 186.143L140.853 318.958C139.085 320.725 139.086 323.618 140.861 325.393L171.922 356.454C173.698 358.229 176.593 358.233 178.361 356.466L249.267 285.559C250.65 284.176 252.659 283.832 254.431 284.671C256.209 285.51 257.21 287.295 257.015 289.243L248.635 373.856C248.495 375.264 248.946 376.533 249.946 377.533L284.396 411.983C285.399 412.986 286.667 413.436 288.076 413.297L288.077 413.298ZM-139.201 599.011L-272.012 731.822C-273.783 733.593 -273.781 736.485 -272.006 738.26L-240.945 769.321C-239.17 771.097 -236.275 771.101 -234.504 769.33L-188.974 723.801C-187.204 722.03 -184.315 722.034 -182.539 723.809L-177.901 728.448C-176.274 730.074 -176.108 732.607 -177.495 734.432C-203.809 768.957 -207.979 810.59 -158.427 860.143L-150.925 867.645C-93.6229 924.947 -46.8212 910.236 -9.20956 872.624L1.60274 861.812C39.2137 824.201 53.9286 777.397 -3.37415 720.094L-10.8761 712.592C-61.4592 662.009 -103.727 667.545 -138.863 695.297C-140.679 696.736 -143.267 696.585 -144.907 694.945L-149.292 690.56C-151.067 688.785 -151.068 685.893 -149.297 684.122L-101.693 636.518C-99.9215 634.747 -99.9254 631.851 -101.701 630.076L-132.762 599.015C-134.537 597.239 -137.43 597.239 -139.201 599.01L-139.201 599.011ZM-120.492 750.524C-99.5046 729.536 -80.1754 710.207 -40.5834 749.799C-0.991426 789.391 -20.3206 808.72 -41.3083 829.708C-62.5075 850.907 -81.8347 870.234 -121.427 830.642C-161.019 791.05 -141.692 771.724 -120.492 750.524ZM149.54 474.886L49.9827 574.443C48.2115 576.215 45.3173 576.211 43.5445 574.438L5.18896 536.082C3.41305 534.307 3.41226 531.415 5.18344 529.644L104.741 430.087C106.512 428.315 106.508 425.421 104.732 423.645L73.6711 392.584C71.8958 390.809 69.004 390.807 67.2328 392.579L-65.5779 525.389C-67.346 527.157 -67.3453 530.05 -65.5701 531.825L130.109 727.504C131.885 729.28 134.777 729.281 136.545 727.513L269.356 594.702C271.127 592.931 271.126 590.039 269.35 588.263L238.289 557.202C236.514 555.427 233.619 555.423 231.848 557.194L132.291 656.751C130.519 658.522 127.628 658.522 125.852 656.746L87.4969 618.39C85.721 616.614 85.7202 613.723 87.4914 611.952L187.049 512.395C188.82 510.623 188.816 507.729 187.043 505.956L155.979 474.892C154.204 473.117 151.312 473.115 149.541 474.887L149.54 474.886Z" fill="white" fill-opacity="0.01"/>
<path fill-rule="evenodd" clip-rule="evenodd" d="M122.702 107.606L207.311 99.2224C209.264 99.0314 211.047 100.032 211.883 101.806C212.726 103.581 212.382 105.59 210.999 106.973L140.092 177.88C138.324 179.647 138.328 182.543 140.101 184.316L171.164 215.379C172.94 217.155 175.833 217.155 177.6 215.388L310.415 82.5734C312.183 80.8053 312.181 77.9136 310.405 76.1377L277.719 43.4517C276.677 42.4098 275.342 41.9531 273.886 42.1523L172.599 55.774L172.871 55.5025L135.814 60.1455C134.37 60.3259 133.05 59.873 132.02 58.8429C130.992 57.8154 130.539 56.4955 130.72 55.0517L135.363 17.9945L135.091 18.266L148.713 -83.0209C148.909 -84.4803 148.455 -85.8122 147.414 -86.8542L114.727 -119.541C112.952 -121.316 110.06 -121.317 108.292 -119.549L-24.5227 13.2653C-26.2901 15.0328 -26.2894 17.9251 -24.5141 19.7004L6.54707 50.7616C8.32235 52.5369 11.2179 52.5408 12.9853 50.7733L83.8922 -20.1336C85.2749 -21.5163 87.2841 -21.8606 89.0557 -21.0213C90.8335 -20.182 91.8345 -18.3976 91.6398 -16.4489L83.2594 68.1632C83.1197 69.5713 83.5705 70.8405 84.5705 71.8405L119.02 106.29C120.023 107.293 121.292 107.744 122.701 107.605L122.702 107.606ZM-304.576 293.319L-437.387 426.13C-439.158 427.901 -439.157 430.792 -437.381 432.568L-406.32 463.629C-404.545 465.404 -401.65 465.409 -399.879 463.637L-354.35 418.108C-352.579 416.338 -349.69 416.341 -347.915 418.117L-343.276 422.755C-341.65 424.382 -341.483 426.915 -342.87 428.739C-369.184 463.264 -373.355 504.898 -323.802 554.45L-316.3 561.952C-258.998 619.254 -212.196 604.543 -174.585 566.932L-163.773 556.119C-126.162 518.508 -111.447 471.704 -168.749 414.401L-176.251 406.899C-226.834 356.316 -269.102 361.853 -304.239 389.604C-306.055 391.044 -308.642 390.893 -310.283 389.252L-314.667 384.868C-316.443 383.092 -316.443 380.2 -314.672 378.43L-267.068 330.825C-265.297 329.054 -265.301 326.159 -267.076 324.383L-298.137 293.322C-299.912 291.547 -302.805 291.546 -304.576 293.317L-304.576 293.319ZM-285.868 444.832C-264.88 423.844 -245.551 404.515 -205.959 444.107C-166.367 483.699 -185.696 503.028 -206.683 524.016C-227.883 545.215 -247.21 564.542 -286.802 524.95C-326.394 485.358 -307.067 466.031 -285.868 444.832ZM-15.8351 169.194L-115.393 268.751C-117.164 270.522 -120.058 270.518 -121.831 268.746L-160.186 230.39C-161.962 228.614 -161.963 225.723 -160.192 223.952L-60.6344 124.394C-58.8632 122.623 -58.8676 119.728 -60.6429 117.953L-91.7042 86.8917C-93.4794 85.1164 -96.3712 85.1151 -98.1424 86.8863L-230.953 219.697C-232.721 221.465 -232.721 224.358 -230.945 226.133L-35.2663 421.812C-33.4904 423.588 -30.598 423.588 -28.8299 421.82L103.981 289.01C105.752 287.238 105.751 284.347 103.975 282.571L72.9142 251.51C71.1389 249.735 68.244 249.73 66.4728 251.502L-33.0846 351.059C-34.8558 352.83 -37.7469 352.829 -39.5228 351.053L-77.8783 312.698C-79.6543 310.922 -79.655 308.031 -77.8839 306.26L21.6735 206.702C23.4447 204.931 23.4403 202.036 21.6675 200.263L-9.39616 169.2C-11.1714 167.424 -14.0633 167.423 -15.8345 169.194L-15.8351 169.194Z" fill="white" fill-opacity="0.01"/>
<path fill-rule="evenodd" clip-rule="evenodd" d="M712.373 -482.064L796.982 -490.447C798.935 -490.638 800.718 -489.638 801.554 -487.863C802.397 -486.088 802.053 -484.079 800.67 -482.696L729.763 -411.79C727.996 -410.022 727.999 -407.127 729.772 -405.354L760.835 -374.291C762.611 -372.515 765.504 -372.514 767.271 -374.281L900.086 -507.096C901.854 -508.864 901.852 -511.756 900.076 -513.532L867.39 -546.218C866.348 -547.26 865.013 -547.716 863.557 -547.517L762.27 -533.895L762.542 -534.167L725.485 -529.524C724.041 -529.344 722.721 -529.796 721.691 -530.826C720.663 -531.854 720.21 -533.174 720.391 -534.618L725.034 -571.675L724.762 -571.403L738.384 -672.69C738.58 -674.15 738.127 -675.482 737.085 -676.524L704.398 -709.21C702.623 -710.985 699.731 -710.987 697.963 -709.219L565.148 -576.404C563.381 -574.637 563.382 -571.744 565.157 -569.969L596.218 -538.908C597.993 -537.133 600.889 -537.129 602.656 -538.896L673.563 -609.803C674.946 -611.186 676.955 -611.53 678.727 -610.691C680.504 -609.851 681.506 -608.067 681.311 -606.118L672.93 -521.506C672.791 -520.098 673.242 -518.829 674.241 -517.829L708.691 -483.379C709.694 -482.376 710.963 -481.926 712.372 -482.065L712.373 -482.064ZM285.095 -296.351L152.284 -163.54C150.513 -161.769 150.514 -158.877 152.29 -157.102L183.351 -126.041C185.126 -124.265 188.021 -124.261 189.792 -126.032L235.321 -171.561C237.092 -173.332 239.981 -173.328 241.756 -171.552L246.395 -166.914C248.021 -165.287 248.188 -162.754 246.801 -160.93C220.487 -126.405 216.316 -84.7715 265.869 -35.2191L273.371 -27.7172C330.673 29.585 377.475 14.8739 415.086 -22.7377L425.899 -33.55C463.509 -71.161 478.224 -117.965 420.922 -175.268L413.42 -182.77C362.837 -233.353 320.569 -227.817 285.432 -200.065C283.616 -198.625 281.029 -198.777 279.388 -200.417L275.004 -204.801C273.228 -206.577 273.228 -209.469 274.999 -211.24L322.603 -258.844C324.374 -260.615 324.37 -263.511 322.595 -265.286L291.534 -296.347C289.759 -298.123 286.866 -298.123 285.095 -296.352L285.095 -296.351ZM303.804 -144.838C324.791 -165.826 344.12 -185.155 383.712 -145.563C423.304 -105.971 403.975 -86.6416 382.988 -65.6539C361.788 -44.4547 342.461 -25.1275 302.869 -64.7195C263.277 -104.311 282.604 -123.638 303.804 -144.838ZM573.836 -420.476L474.278 -320.918C472.507 -319.147 469.613 -319.151 467.84 -320.924L429.485 -359.279C427.709 -361.055 427.708 -363.947 429.479 -365.718L529.037 -465.275C530.808 -467.046 530.803 -469.941 529.028 -471.716L497.967 -502.778C496.192 -504.553 493.3 -504.554 491.529 -502.783L358.718 -369.972C356.95 -368.204 356.95 -365.312 358.726 -363.537L554.405 -167.858C556.181 -166.082 559.073 -166.081 560.841 -167.849L693.652 -300.66C695.423 -302.431 695.422 -305.323 693.646 -307.099L662.585 -338.159C660.81 -339.935 657.915 -339.939 656.144 -338.168L556.586 -238.611C554.815 -236.839 551.924 -236.84 550.148 -238.616L511.793 -276.971C510.017 -278.747 510.016 -281.639 511.787 -283.41L611.345 -382.967C613.116 -384.738 613.111 -387.633 611.339 -389.406L580.275 -420.47C578.5 -422.245 575.608 -422.246 573.836 -420.475L573.836 -420.476Z" fill="white" fill-opacity="0.01"/>
<path fill-rule="evenodd" clip-rule="evenodd" d="M1180.1 463.412L1264.71 455.029C1266.66 454.838 1268.44 455.838 1269.28 457.613C1270.12 459.387 1269.78 461.396 1268.39 462.779L1197.49 533.686C1195.72 535.454 1195.72 538.349 1197.5 540.122L1228.56 571.185C1230.33 572.961 1233.23 572.962 1234.99 571.194L1367.81 438.38C1369.58 436.611 1369.58 433.72 1367.8 431.944L1335.11 399.258C1334.07 398.216 1332.74 397.759 1331.28 397.958L1229.99 411.58L1230.26 411.309L1193.21 415.952C1191.76 416.132 1190.44 415.679 1189.41 414.649C1188.39 413.622 1187.93 412.302 1188.11 410.858L1192.76 373.801L1192.49 374.072L1206.11 272.785C1206.3 271.326 1205.85 269.994 1204.81 268.952L1172.12 236.265C1170.35 234.49 1167.45 234.489 1165.69 236.257L1032.87 369.071C1031.1 370.839 1031.1 373.731 1032.88 375.507L1063.94 406.568C1065.72 408.343 1068.61 408.347 1070.38 406.579L1141.29 335.673C1142.67 334.29 1144.68 333.946 1146.45 334.785C1148.23 335.624 1149.23 337.409 1149.03 339.357L1140.65 423.969C1140.51 425.377 1140.96 426.647 1141.96 427.647L1176.41 462.097C1177.42 463.1 1178.69 463.55 1180.09 463.411L1180.1 463.412ZM752.818 649.125L620.007 781.936C618.236 783.707 618.237 786.599 620.013 788.374L651.074 819.435C652.849 821.21 655.744 821.215 657.515 819.444L703.044 773.915C704.815 772.144 707.704 772.147 709.48 773.923L714.118 778.561C715.745 780.188 715.911 782.721 714.524 784.545C688.21 819.07 684.04 860.704 733.592 910.256L741.094 917.758C798.396 975.061 845.198 960.349 882.809 922.738L893.622 911.926C931.233 874.315 945.948 827.51 888.645 770.208L881.143 762.706C830.56 712.122 788.292 717.659 753.156 745.41C751.34 746.85 748.752 746.699 747.112 745.058L742.727 740.674C740.951 738.898 740.951 736.006 742.722 734.236L790.326 686.632C792.097 684.86 792.094 681.965 790.318 680.189L759.257 649.128C757.482 647.353 754.589 647.352 752.818 649.123L752.818 649.125ZM771.527 800.638C792.514 779.65 811.844 760.321 851.436 799.913C891.027 839.505 871.698 858.834 850.711 879.822C829.511 901.021 810.184 920.348 770.592 880.756C731 841.164 750.327 821.838 771.527 800.638ZM1041.56 525L942.002 624.557C940.23 626.328 937.336 626.324 935.563 624.552L897.208 586.196C895.432 584.42 895.431 581.529 897.202 579.758L996.76 480.2C998.531 478.429 998.527 475.534 996.751 473.759L965.69 442.698C963.915 440.923 961.023 440.921 959.252 442.692L826.441 575.503C824.673 577.271 824.674 580.164 826.449 581.939L1022.13 777.618C1023.9 779.394 1026.8 779.395 1028.56 777.626L1161.38 644.816C1163.15 643.045 1163.14 640.153 1161.37 638.377L1130.31 607.316C1128.53 605.541 1125.64 605.536 1123.87 607.308L1024.31 706.865C1022.54 708.636 1019.65 708.636 1017.87 706.86L979.516 668.504C977.74 666.728 977.739 663.837 979.51 662.066L1079.07 562.508C1080.84 560.737 1080.83 557.842 1079.06 556.07L1048 525.006C1046.22 523.231 1043.33 523.229 1041.56 525L1041.56 525Z" fill="white" fill-opacity="0.01"/>
<path fill-rule="evenodd" clip-rule="evenodd" d="M1769.77 -126.257L1854.38 -134.64C1856.33 -134.831 1858.11 -133.831 1858.95 -132.056C1859.79 -130.282 1859.45 -128.272 1858.06 -126.89L1787.16 -55.9829C1785.39 -54.2154 1785.39 -51.32 1787.17 -49.5472L1818.23 -18.484C1820.01 -16.7081 1822.9 -16.7074 1824.67 -18.4748L1957.48 -151.289C1959.25 -153.057 1959.25 -155.949 1957.47 -157.725L1924.78 -190.411C1923.74 -191.453 1922.41 -191.91 1920.95 -191.71L1819.66 -178.089L1819.94 -178.36L1782.88 -173.717C1781.43 -173.537 1780.11 -173.99 1779.08 -175.02C1778.06 -176.047 1777.6 -177.367 1777.78 -178.811L1782.43 -215.868L1782.16 -215.597L1795.78 -316.884C1795.97 -318.343 1795.52 -319.675 1794.48 -320.717L1761.79 -353.403C1760.02 -355.179 1757.13 -355.18 1755.36 -353.412L1622.54 -220.597C1620.77 -218.83 1620.78 -215.938 1622.55 -214.162L1653.61 -183.101C1655.39 -181.326 1658.28 -181.322 1660.05 -183.089L1730.96 -253.996C1732.34 -255.379 1734.35 -255.723 1736.12 -254.884C1737.9 -254.045 1738.9 -252.26 1738.7 -250.312L1730.32 -165.7C1730.18 -164.291 1730.64 -163.022 1731.64 -162.022L1766.09 -127.572C1767.09 -126.569 1768.36 -126.119 1769.77 -126.258L1769.77 -126.257ZM1342.49 59.4558L1209.68 192.267C1207.91 194.038 1207.91 196.93 1209.68 198.705L1240.74 229.766C1242.52 231.541 1245.42 231.546 1247.19 229.775L1292.72 184.246C1294.49 182.475 1297.37 182.478 1299.15 184.254L1303.79 188.893C1305.42 190.519 1305.58 193.052 1304.19 194.877C1277.88 229.401 1273.71 271.035 1323.26 320.588L1330.76 328.089C1388.07 385.392 1434.87 370.681 1472.48 333.069L1483.29 322.257C1520.9 284.646 1535.62 237.841 1478.32 180.539L1470.81 173.037C1420.23 122.454 1377.96 127.99 1342.83 155.741C1341.01 157.181 1338.42 157.03 1336.78 155.389L1332.4 151.005C1330.62 149.229 1330.62 146.338 1332.39 144.567L1380 96.9626C1381.77 95.1914 1381.76 92.2958 1379.99 90.5205L1348.93 59.4594C1347.15 57.6841 1344.26 57.6833 1342.49 59.4545L1342.49 59.4558ZM1361.2 210.969C1382.19 189.981 1401.51 170.652 1441.11 210.244C1480.7 249.836 1461.37 269.165 1440.38 290.153C1419.18 311.352 1399.86 330.679 1360.26 291.087C1320.67 251.495 1340 232.169 1361.2 210.969ZM1631.23 -64.6692L1531.67 34.8882C1529.9 36.6593 1527.01 36.6555 1525.23 34.8828L1486.88 -3.47276C1485.1 -5.24867 1485.1 -8.13994 1486.87 -9.91112L1586.43 -109.469C1588.2 -111.24 1588.2 -114.135 1586.42 -115.91L1555.36 -146.971C1553.59 -148.746 1550.69 -148.748 1548.92 -146.976L1416.11 -14.1657C1414.34 -12.3977 1414.34 -9.50523 1416.12 -7.72995L1611.8 187.949C1613.57 189.725 1616.47 189.726 1618.24 187.958L1751.05 55.1468C1752.82 53.3756 1752.82 50.4838 1751.04 48.7079L1719.98 17.6473C1718.2 15.872 1715.31 15.8675 1713.54 17.6387L1613.98 117.196C1612.21 118.967 1609.32 118.967 1607.54 117.191L1569.19 78.8352C1567.41 77.0593 1567.41 74.168 1569.18 72.3968L1668.74 -27.1606C1670.51 -28.9318 1670.51 -31.8267 1668.73 -33.5994L1637.67 -64.6631C1635.89 -66.4384 1633 -66.4398 1631.23 -64.6686L1631.23 -64.6692Z" fill="white" fill-opacity="0.01"/>
<path fill-rule="evenodd" clip-rule="evenodd" d="M2110.54 4.038L2195.15 -4.34548C2197.1 -4.53645 2198.88 -3.53615 2199.72 -1.76148C2200.56 0.013179 2200.22 2.02246 2198.83 3.40512L2127.93 74.3121C2126.16 76.0795 2126.16 78.975 2127.94 80.7477L2159 111.811C2160.78 113.587 2163.67 113.588 2165.44 111.82L2298.25 -20.9945C2300.02 -22.7626 2300.02 -25.6543 2298.24 -27.4302L2265.56 -60.1162C2264.51 -61.1581 2263.18 -61.6147 2261.72 -61.4156L2160.44 -47.7938L2160.71 -48.0653L2123.65 -43.4223C2122.21 -43.2419 2120.89 -43.6949 2119.86 -44.7249C2118.83 -45.7525 2118.38 -47.0724 2118.56 -48.5162L2123.2 -85.5734L2122.93 -85.3019L2136.55 -186.589C2136.74 -188.048 2136.29 -189.38 2135.25 -190.422L2102.56 -223.109C2100.79 -224.884 2097.9 -224.885 2096.13 -223.117L1963.31 -90.3025C1961.55 -88.5351 1961.55 -85.6427 1963.32 -83.8675L1994.38 -52.8063C1996.16 -51.031 1999.05 -51.0271 2000.82 -52.7945L2071.73 -123.701C2073.11 -125.084 2075.12 -125.428 2076.89 -124.589C2078.67 -123.75 2079.67 -121.966 2079.48 -120.017L2071.1 -35.4046C2070.96 -33.9965 2071.41 -32.7273 2072.41 -31.7274L2106.86 2.72252C2107.86 3.72559 2109.13 4.17586 2110.54 4.03678L2110.54 4.038ZM1683.26 189.751L1550.45 322.562C1548.68 324.333 1548.68 327.225 1550.45 329L1581.52 360.061C1583.29 361.836 1586.19 361.841 1587.96 360.07L1633.49 314.541C1635.26 312.77 1638.15 312.773 1639.92 314.549L1644.56 319.187C1646.19 320.814 1646.35 323.347 1644.97 325.171C1618.65 359.696 1614.48 401.33 1664.03 450.882L1671.54 458.384C1728.84 515.687 1775.64 500.975 1813.25 463.364L1824.06 452.552C1861.67 414.941 1876.39 368.136 1819.09 310.833L1811.58 303.332C1761 252.748 1718.73 258.285 1683.6 286.036C1681.78 287.476 1679.19 287.325 1677.55 285.684L1673.17 281.3C1671.39 279.524 1671.39 276.632 1673.16 274.862L1720.77 227.257C1722.54 225.486 1722.54 222.591 1720.76 220.815L1689.7 189.754C1687.92 187.979 1685.03 187.978 1683.26 189.749L1683.26 189.751ZM1701.97 341.264C1722.96 320.276 1742.29 300.947 1781.88 340.539C1821.47 380.131 1802.14 399.46 1781.15 420.448C1759.95 441.647 1740.63 460.974 1701.03 421.382C1661.44 381.79 1680.77 362.463 1701.97 341.264ZM1972 65.6257L1872.44 165.183C1870.67 166.954 1867.78 166.95 1866.01 165.178L1827.65 126.822C1825.87 125.046 1825.87 122.155 1827.64 120.384L1927.2 20.8264C1928.97 19.0552 1928.97 16.1604 1927.19 14.3851L1896.13 -16.6762C1894.36 -18.4515 1891.46 -18.4528 1889.69 -16.6816L1756.88 116.129C1755.11 117.897 1755.12 120.79 1756.89 122.565L1952.57 318.244C1954.35 320.02 1957.24 320.02 1959.01 318.252L2091.82 185.442C2093.59 183.67 2093.59 180.779 2091.81 179.003L2060.75 147.942C2058.97 146.167 2056.08 146.162 2054.31 147.934L1954.75 247.491C1952.98 249.262 1950.09 249.262 1948.31 247.486L1909.96 209.13C1908.18 207.354 1908.18 204.463 1909.95 202.692L2009.51 103.134C2011.28 101.363 2011.28 98.4683 2009.5 96.6955L1978.44 65.6318C1976.66 63.8565 1973.77 63.8551 1972 65.6263L1972 65.6257Z" fill="white" fill-opacity="0.01"/>
</g>
<defs>
<filter id="filter0_d_3451_5163" x="-452.714" y="-1310.21" width="2766.29" height="2414.44" filterUnits="userSpaceOnUse" color-interpolation-filters="sRGB">
<feFlood flood-opacity="0" result="BackgroundImageFix"/>
<feColorMatrix in="SourceAlpha" type="matrix" values="0 0 0 0 0 0 0 0 0 0 0 0 0 0 0 0 0 0 127 0" result="hardAlpha"/>
<feOffset dy="4"/>
<feGaussianBlur stdDeviation="7"/>
<feComposite in2="hardAlpha" operator="out"/>
<feColorMatrix type="matrix" values="0 0 0 0 0 0 0 0 0 0 0 0 0 0 0 0 0 0 0.1 0"/>
<feBlend mode="normal" in2="BackgroundImageFix" result="effect1_dropShadow_3451_5163"/>
<feBlend mode="normal" in="SourceGraphic" in2="effect1_dropShadow_3451_5163" result="shape"/>
</filter>
</defs>
</svg>
