<svg width="124" height="124" fill="none" xmlns="http://www.w3.org/2000/svg"><g clip-path="url(#clip0_456_3018)"><path d="M120.125 100.75a3.874 3.874 0 01-3.875 3.875H7.75a3.874 3.874 0 01-2.74-6.615 3.875 3.875 0 012.74-1.135h108.5a3.875 3.875 0 013.875 3.875zM7.895 47.566a3.875 3.875 0 011.696-4.36l50.375-31a3.827 3.827 0 014.068 0l50.375 31a3.873 3.873 0 01.298 6.383 3.874 3.874 0 01-2.332.786H100.75v31h7.75a3.875 3.875 0 010 7.75h-93a3.875 3.875 0 110-7.75h7.75v-31H11.625a3.875 3.875 0 01-3.73-2.81zM69.75 77.5a3.875 3.875 0 107.75 0V54.25a3.875 3.875 0 00-7.75 0V77.5zm-23.25 0a3.875 3.875 0 107.75 0V54.25a3.875 3.875 0 00-7.75 0V77.5z" fill="#000"/><path d="M120.125 100.75a3.874 3.874 0 01-3.875 3.875H7.75a3.874 3.874 0 01-2.74-6.615 3.875 3.875 0 012.74-1.135h108.5a3.875 3.875 0 013.875 3.875zM7.895 47.566a3.875 3.875 0 011.696-4.36l50.375-31a3.827 3.827 0 014.068 0l50.375 31a3.873 3.873 0 01.298 6.383 3.874 3.874 0 01-2.332.786H100.75v31h7.75a3.875 3.875 0 010 7.75h-93a3.875 3.875 0 110-7.75h7.75v-31H11.625a3.875 3.875 0 01-3.73-2.81zM69.75 77.5a3.875 3.875 0 107.75 0V54.25a3.875 3.875 0 00-7.75 0V77.5zm-23.25 0a3.875 3.875 0 107.75 0V54.25a3.875 3.875 0 00-7.75 0V77.5z" fill="url(#paint0_linear_456_3018)"/><path opacity=".25" d="M208.417-34.97h-80.181c-12.002-.04-24.255-.04-37.03 0H-45v253.397H1.954c2.53-.01 5.128-.01 7.788-.03a2315.83 2315.83 0 0120.441-.291c6.784-.07 13.547-.091 20.311-.091 6.764 0 13.528.031 20.301.101 6.784.07 13.578.16 20.412.291 3.16 0 6.312.01 9.453.01h107.767M-45-21.635H72.21c23.964-1.124 47.366-1.124 72.253-.01 2.449.01 4.847.01 7.205.01h56.749M-45-8.3h98.414c3.101.01 6.222.02 9.373.05 30.045-.03 61.244-2.257 90.888-.08 2.67.03 5.269.03 7.798.03h46.954M-45 5.035h89.212c3.121 0 6.232.09 9.333.231 35.956-.17 72.724-1.284 107.877-.27 4.667.05 9.072.05 13.186.05h33.829M-45 18.38h89.212a59.71 59.71 0 017.647-.392c17.581.482 33.186 3.823 51.008 6.05 22.288 3.342 43.452-3.34 65.961-5.659h39.599M-45 31.717h89.212a60.758 60.758 0 017.647-.1c2.529.12 5.027.37 7.476.631 25.7.703 47.988 15.192 72.504 16.306 13.367 0 23.402-11.138 35.795-15.673 2.248-.793 4.546-1.355 6.944-1.586a25.23 25.23 0 017.497.422h26.352M-45 45.05h89.212c3.653-.16 7.215-.08 10.728.2 3.512.281 6.964.713 10.316 1.134 16.447 1.054 30.928 7.736 45.419 14.419 23.402 10.024 43.452-3.341 63.07-13.947 2.981-1.104 6.052-1.917 9.253-2.268a32.329 32.329 0 0110.045.462h15.394M-45 58.386h89.212c3.04 0 6.112 0 9.212.01a366.33 366.33 0 0010.919 2.107c30.737 3.642 61.936 18.131 92.905 9.622a68.07 68.07 0 0010.195-3.692c3.382-1.535 6.744-3.402 10.096-5.63 5.569-3.34 10.025-2.227 15.534-2.397 4.827-.02 8.68-.02 11.31-.02h4.064M-45 71.72H62.767c3.141 0 6.302.01 9.624.2 23.793 7.827 48.299 10.054 72.564 8.49a245.53 245.53 0 0012.042-1.365c12.042-1.666 24.064-4.215 36.086-7.275 4.797-.05 8.65-.05 11.28-.05h4.064M-45 85.066H72.22c3.161 0 6.332 0 9.564.07 23.311 3.532 45.599 9.101 70.105 5.76 14.481-2.228 26.744-6.683 41.164-5.81 3.211-.02 6.001-.02 8.279-.02h7.095M-45 98.401h39.578a1024.938 1024.938 0 0016.047.18c13.146.101 26.523.101 39.669-.18h31.428c3.171 0 6.333 0 9.514.01 31.691 3.612 62.89 2.499 93.888.06 4.747-.07 8.952-.07 12.414-.07h10.888M-45 111.736h15.394c3.884.04 7.757.06 11.61.06 33.95-1.966 66.262.261 99.71-.06h11.86c3.945 0 7.878 0 11.792.01 23.131.311 47.637.311 71.109.02 4.837-.03 9.262-.03 13.176-.03h18.776M-45 125.071s3.964 0 10.818.01c3.452-.08 6.894-.18 10.316-.361 38.715-7.104 76.598-1.525 115.083.351h34.36c11.851.351 25.218.351 37.421 0h45.449M-45 138.406s2.539 0 7.035.01c3.943-.301 7.877-.662 11.77-1.234 37.703-12.873 77.813-8.418 117.251 1.164 3.312.05 6.473.06 9.604.06h107.767M-45 151.741s2.539 0 7.014.01c3.422.442 6.724.412 9.925-.08 12.825-2.859 22.85-11.77 36.227-15.111 28.971-6.683 53.487 8.91 81.445 12.914 3.843.662 7.486 1.415 11.059 2.267h107.767M-45 165.087h7.075c2.328.11 4.706.26 7.054.321 15.635 2.348 22.319-14.359 35.695-18.814 11.14-4.455 23.402-2.228 34.541 1.114 16.719 5.569 32.313 12.251 50.316 14.589 3.794.813 7.396 1.706 10.959 2.649 3.161.13 6.282.13 9.372.141h98.415M-45 178.422h7.095c2.278 0 5.068 0 8.269-.01 6.593-1.746 15.504 1.605 19.96-3.974 27.857-32.309 66.854-3.341 99.638.682 3.563.934 7.115 1.977 10.678 3.141 3.151.141 6.272.141 9.372.151h98.415M-45 191.757h15.394c3.231 0 6.904 0 10.958-.04 3.412-.562 6.754.561 8.982-.562 27.857-22.286 59.056-8.91 88.8-3.964a371.68 371.68 0 0110.858 2.158c3.543.722 7.105 1.505 10.668 2.337 3.141.051 6.252.061 9.352.071h98.415M-45 205.092h26.352c4.054 0 8.49 0 13.247-.01a162.296 162.296 0 0110.546-2.328c17.502-2.689 35.324-3.803 53.106-1.816 3.583.231 7.125.501 10.658.792 3.502.301 6.994.612 10.456.944 3.533.301 7.075.652 10.617 1.053 3.543.402 7.105.853 10.668 1.355 3.141 0 6.252.01 9.352.01h98.415m-240.08 13.335v-26.349c0-4.054 0-8.489-.01-13.235-.09-6.662-.16-13.215-.191-19.717-.03-6.512-.03-12.963 0-19.455.03-6.492.09-13.014.18-19.637.02-3.1.03-6.221.03-9.351V-34.96m13.327 253.387v-26.379c-1.364-23.179-1.364-45.464-.983-68.482.311-7.375.642-14.91.983-22.345V-34.97M-4.98 218.427v-4.064c0-2.639 0-6.482-.01-11.368-5.79-30.784-6.904-64.207-1.355-95.142.432-3.492.873-7.084 1.345-10.686.03-2.72.03-5.439.03-8.148V-34.97M8.357 218.427c-.572-3.572-1.134-7.124-1.666-10.666-6.332-34.437-11.902-70.087-.943-104.112.792-3.342 1.635-6.823 2.579-10.335.02-2.91.02-5.81.02-8.71V-34.97m13.346 253.126c.12-3.101 0-6.141-.33-9.131-3.172-23.439-19.89-44.601-16.549-70.227 2.228-16.717 17.833-27.855 16.87-45.876.01-2.769.01-5.548.01-8.308V-34.96M35 217.524a60.138 60.138 0 00-1.134-11.328c-12.333-32.872-31.27-67.408-2.298-99.718 3.342-2.227 4.455-7.796 3.472-13.566v-8.308c-.01-60.886-.01-119.574-.01-119.574m13.286 252.183c-.782-3.944-1.575-7.867-2.478-11.77-13.166-34.346-23.201-72.224 2.278-104.202.2-3.171.25-6.342.25-9.513V45.2c-.1-13.365-.1-26.74 0-40.587V-34.98m13.317 252.534a745.331 745.331 0 01-1.274-10.606c-.572-3.522-1.114-7.054-1.786-10.576-13.688-31.958-7.005-64.267 2.98-95.141.11-4.154.11-8.319.11-12.473V68.09a582.489 582.489 0 00.422-20.63c-.482-21.202-.482-41.26-.422-61.88v-20.569M75.05 218.156c-.11-3.592-.21-7.184-.28-10.766-.091-3.613-.161-7.215-.242-10.847-7.315-27.674-2.86-56.642.442-85.87.08-3.141.08-6.292.08-9.452V84.604c.361-2.478.672-4.916.933-7.334.251-2.408.462-4.797.633-7.175 2.86-33.804-1.596-66.113-1.566-99.586v-5.479m13.337 253.397v-33.865c0-3.712-.03-7.415-.11-11.097-1.004-17.951.11-35.781.12-53.431V96.826a86.125 86.125 0 003.472-10.245c6.553-40.256-4.586-81.475-3.472-121.55m13.326 253.396v-26.359c.031-12.061.031-24.312 0-36.544v-45.443c.01-5.148.301-10.225 1.415-14.85 1.114-4.626 3.071-8.81 6.393-12.162 4.475-5.559 7.817-12.241 7.817-20.038-2.228-33.423-20.06-63.504-15.635-98.01m13.347 253.406v-98.403c-1.636-8.438.602-16.004 3.954-23.128 1.114-2.378 2.358-4.696 3.613-6.994 8.088-11.268 11.43-24.643 9.202-39.122-6.684-30.082-21.174-55.708-16.779-85.76m13.347 253.407v-90.566c-2.168-14.991 4.546-27.423 10.246-40.317 1.425-3.22 2.779-6.471 3.903-9.803 2.66-6.913 3.773-14.72 2.66-21.402-8.912-31.196-21.175-59.05-16.809-91.319m13.346 253.407v-90.566c-1.746-15.964 4.928-30.223 9.132-45.494.843-3.05 1.586-6.151 2.138-9.302 1.114-31.195-14.481-61.277-11.29-92.703.02-4.786.02-8.63.02-11.268v-4.064m13.337 253.397v-91.028c2.308-20.489 4.576-40.758 5.138-61.117.09-4.063.121-8.137.05-12.23-.562-21.102-5.017-41.16-5.198-62.683.01-4.043.01-7.716.01-10.957V-34.98m13.337 253.407v-90.566c0-2.9 0-5.82.01-8.76 1.686-23.65 2.198-46.577 1.515-69.605a651.28 651.28 0 00-.371-9.874c-.964-8.89-.964-18.924-1.154-27.633V-34.96m13.336 253.387V115.358c0-2.729 0-5.468.021-8.207.2-22.958 1.314-47.47 0-70.71-.021-2.548-.021-5.037-.021-7.475V-34.98m13.337 253.407V91.728c.261-11.98.261-25.355 0-37.506V-34.98m13.337 253.407V-34.97" stroke="#fff" stroke-width=".357" stroke-miterlimit="10"/></g><defs><linearGradient id="paint0_linear_456_3018" x1="40.949" y1="-58.316" x2="-20.927" y2="82.556" gradientUnits="userSpaceOnUse"><stop stop-color="#A42E32"/><stop offset="1" stop-color="#E52A31"/></linearGradient><clipPath id="clip0_456_3018"><path fill="#fff" d="M0 0h124v124H0z"/></clipPath></defs></svg>