<svg width="250" height="250" fill="none" xmlns="http://www.w3.org/2000/svg"><g clip-path="url(#clip0_456_3011)" opacity=".2"><circle cx="125" cy="125" r="125" fill="url(#paint0_linear_456_3011)"/><circle cx="125" cy="125" r="125" fill="#C1C1C1"/><g filter="url(#filter0_d_456_3011)"><g filter="url(#filter1_d_456_3011)"><path fill-rule="evenodd" clip-rule="evenodd" d="M105.143 148.331l14.037-1.391a.746.746 0 01.758.429.743.743 0 01-.146.857l-11.764 11.764a.757.757 0 00.002 1.067l5.153 5.154a.758.758 0 001.068.001l22.034-22.034a.756.756 0 00-.002-1.067l-5.422-5.423a.734.734 0 00-.636-.216l-16.804 2.26.045-.045-6.148.77a.735.735 0 01-.629-.216.738.738 0 01-.216-.629l.771-6.147-.045.045 2.259-16.804a.732.732 0 00-.215-.636l-5.423-5.422a.756.756 0 00-1.067-.002L80.719 132.68a.757.757 0 00.001 1.068l5.153 5.153a.758.758 0 001.068.002l11.764-11.764a.744.744 0 01.856-.147.747.747 0 01.43.759L98.6 141.788a.734.734 0 00.217.61l5.716 5.715a.734.734 0 00.61.218zm-70.885 30.81l-22.033 22.033a.757.757 0 000 1.068l5.154 5.153a.758.758 0 001.069.002L26 199.843a.756.756 0 011.067.002l.77.769c.27.27.297.69.067.993-4.365 5.728-5.057 12.635 3.163 20.855l1.245 1.245c9.506 9.506 17.27 7.066 23.51.826l1.794-1.794c6.24-6.239 8.681-14.004-.825-23.511l-1.245-1.244c-8.392-8.392-15.404-7.474-21.233-2.87a.753.753 0 01-1.003-.058l-.727-.727a.757.757 0 010-1.068l7.897-7.898a.758.758 0 00-.002-1.069l-5.153-5.153a.757.757 0 00-1.068 0zm3.104 25.136c3.482-3.482 6.688-6.689 13.257-.121 6.568 6.569 3.361 9.775-.12 13.257-3.518 3.517-6.724 6.724-13.292.155-6.568-6.568-3.362-9.774.155-13.291zm44.798-45.729l-16.516 16.517a.757.757 0 01-1.069-.001l-6.363-6.363a.756.756 0 010-1.068l16.516-16.517a.757.757 0 00-.001-1.068l-5.154-5.153a.756.756 0 00-1.068-.001l-22.033 22.033a.757.757 0 00.001 1.068l32.463 32.463a.758.758 0 001.068.001l22.033-22.033a.756.756 0 00-.001-1.068l-5.153-5.153a.757.757 0 00-1.068-.002L79.298 188.72a.756.756 0 01-1.068-.001l-6.363-6.363a.756.756 0 010-1.068l16.516-16.517a.757.757 0 00-.001-1.068l-5.154-5.154a.757.757 0 00-1.068 0v-.001z" fill="#fff"/></g><g filter="url(#filter2_d_456_3011)"><path fill-rule="evenodd" clip-rule="evenodd" d="M202.969 50.505l14.036-1.39a.746.746 0 01.759.428.745.745 0 01-.147.857l-11.764 11.764a.757.757 0 00.002 1.067l5.153 5.154a.757.757 0 001.068.001l22.034-22.033a.757.757 0 00-.002-1.068l-5.422-5.423a.734.734 0 00-.636-.215l-16.804 2.26.045-.045-6.147.77a.736.736 0 01-.63-.216.736.736 0 01-.215-.63l.77-6.147-.045.045 2.26-16.803a.736.736 0 00-.216-.636l-5.423-5.423a.756.756 0 00-1.067-.002l-22.034 22.034a.757.757 0 00.001 1.068l5.153 5.153a.758.758 0 001.069.002l11.763-11.763a.743.743 0 01.857-.148c.295.14.461.436.428.759l-1.39 14.037a.737.737 0 00.217.61l5.716 5.715a.734.734 0 00.61.218h.001zm-70.886 30.81l-22.033 22.033a.757.757 0 00.001 1.068l5.153 5.153a.757.757 0 001.069.002l7.553-7.553a.756.756 0 011.068.001l.769.77a.75.75 0 01.067.992c-4.365 5.728-5.057 12.635 3.164 20.856l1.244 1.244c9.507 9.507 17.271 7.066 23.511.826l1.794-1.793c6.239-6.24 8.68-14.005-.826-23.511l-1.245-1.245c-8.391-8.392-15.404-7.473-21.233-2.87a.752.752 0 01-1.002-.058l-.728-.727a.758.758 0 01-.001-1.068l7.898-7.898a.758.758 0 00-.001-1.068l-5.153-5.153a.758.758 0 00-1.069-.001zm3.104 25.136c3.482-3.482 6.689-6.689 13.257-.12 6.568 6.568 3.362 9.775-.12 13.257-3.517 3.516-6.724 6.723-13.292.155-6.568-6.569-3.362-9.775.155-13.292zm44.798-45.728l-16.516 16.516a.757.757 0 01-1.068 0l-6.363-6.364a.756.756 0 01-.001-1.068l16.516-16.516a.758.758 0 00-.001-1.069l-5.153-5.153a.756.756 0 00-1.068 0L144.297 69.1a.757.757 0 00.002 1.068l32.463 32.463a.755.755 0 001.067.001L199.863 80.6a.757.757 0 00-.001-1.068l-5.153-5.153a.758.758 0 00-1.069-.001l-16.516 16.516a.756.756 0 01-1.068 0l-6.364-6.364a.758.758 0 01-.001-1.068l16.517-16.517a.757.757 0 00-.001-1.068l-5.153-5.153a.758.758 0 00-1.069-.001z" fill="#fff"/></g><g filter="url(#filter3_d_456_3011)"><path fill-rule="evenodd" clip-rule="evenodd" d="M111.517 63.807l14.036-1.39a.746.746 0 01.759.428.741.741 0 01-.147.857l-11.763 11.764a.757.757 0 00.001 1.068l5.154 5.153a.756.756 0 001.067.001l22.034-22.033a.757.757 0 00-.001-1.068l-5.423-5.423a.733.733 0 00-.636-.215l-16.803 2.26.045-.046-6.148.77a.735.735 0 01-.629-.215.734.734 0 01-.216-.63l.77-6.147-.045.045 2.26-16.803a.733.733 0 00-.216-.636l-5.422-5.423a.757.757 0 00-1.068-.002L87.092 48.156a.757.757 0 00.002 1.068l5.153 5.153a.757.757 0 001.068.002l11.763-11.764a.744.744 0 01.857-.147c.295.14.461.435.429.759l-1.391 14.037a.735.735 0 00.218.61l5.715 5.715a.735.735 0 00.611.218zm-70.885 30.81L18.599 116.65a.756.756 0 000 1.068l5.153 5.153a.757.757 0 001.069.002l7.553-7.553a.755.755 0 011.068.001l.77.77c.27.269.297.69.067.992-4.366 5.728-5.058 12.635 3.163 20.856l1.245 1.244c9.506 9.507 17.27 7.066 23.51.826l1.794-1.793c6.24-6.24 8.68-14.005-.826-23.511l-1.244-1.245c-8.392-8.392-15.404-7.473-21.233-2.869a.752.752 0 01-1.003-.059l-.727-.727a.757.757 0 01-.001-1.068l7.897-7.898a.757.757 0 00-.001-1.068L41.7 94.618a.757.757 0 00-1.068-.001zm3.103 25.136c3.482-3.482 6.689-6.689 13.257-.12 6.569 6.568 3.362 9.775-.12 13.257-3.517 3.516-6.723 6.723-13.292.155-6.568-6.569-3.362-9.775.155-13.292zm44.799-45.728L72.017 90.54a.757.757 0 01-1.068 0l-6.363-6.364a.757.757 0 01-.001-1.068L81.1 66.593a.757.757 0 00-.001-1.069l-5.153-5.153a.757.757 0 00-1.068 0L52.846 82.402a.757.757 0 00.001 1.068l32.463 32.463a.756.756 0 001.068.001l22.033-22.033a.756.756 0 00-.001-1.068l-5.153-5.153a.758.758 0 00-1.069-.001l-16.516 16.516a.756.756 0 01-1.068-.001l-6.363-6.363a.757.757 0 01-.001-1.068l16.516-16.517a.757.757 0 000-1.068l-5.154-5.153a.757.757 0 00-1.068-.001z" fill="#fff"/></g><g filter="url(#filter4_d_456_3011)"><path fill-rule="evenodd" clip-rule="evenodd" d="M13.691 161.633l14.037-1.391a.747.747 0 01.758.429.743.743 0 01-.146.857l-11.764 11.764a.756.756 0 00.002 1.067l5.153 5.154a.757.757 0 001.068.001l22.034-22.034a.756.756 0 00-.002-1.067l-5.423-5.423a.733.733 0 00-.636-.216l-16.803 2.26.045-.045-6.148.77a.734.734 0 01-.629-.216.734.734 0 01-.216-.629l.77-6.147-.045.045 2.26-16.804a.734.734 0 00-.215-.636l-5.423-5.422a.756.756 0 00-1.068-.002l-22.033 22.034a.757.757 0 00.001 1.068l5.153 5.153a.758.758 0 001.068.002l11.764-11.764a.744.744 0 01.856-.147.744.744 0 01.429.759l-1.39 14.037a.735.735 0 00.217.61l5.715 5.715a.736.736 0 00.611.218zm-70.885 30.81l-22.033 22.033a.757.757 0 000 1.068l5.154 5.153a.758.758 0 001.068.002l7.554-7.554a.756.756 0 011.067.002l.77.769c.27.27.297.69.067.993-4.365 5.728-5.057 12.635 3.163 20.855l1.245 1.245c9.506 9.506 17.27 7.066 23.51.826l1.794-1.794c6.24-6.239 8.681-14.004-.825-23.511l-1.245-1.244c-8.392-8.392-15.404-7.474-21.233-2.87a.753.753 0 01-1.003-.058l-.727-.727a.756.756 0 01-.001-1.068l7.898-7.898a.758.758 0 00-.002-1.069l-5.153-5.153a.757.757 0 00-1.068 0zm3.104 25.136c3.482-3.482 6.688-6.689 13.257-.121 6.568 6.569 3.361 9.775-.12 13.257-3.518 3.517-6.724 6.724-13.292.155-6.569-6.568-3.362-9.774.155-13.291zm44.798-45.729l-16.517 16.517a.757.757 0 01-1.068-.001l-6.363-6.363a.756.756 0 010-1.068l16.516-16.517a.757.757 0 00-.002-1.068l-5.153-5.153a.756.756 0 00-1.068-.001l-22.033 22.033a.757.757 0 00.001 1.068l32.463 32.463a.758.758 0 001.068.001l22.033-22.033a.756.756 0 000-1.068l-5.154-5.153a.757.757 0 00-1.068-.002l-16.517 16.517a.756.756 0 01-1.068-.001l-6.363-6.363a.756.756 0 010-1.068l16.516-16.517a.757.757 0 00-.001-1.068l-5.154-5.154a.757.757 0 00-1.068 0v-.001z" fill="#fff"/></g><g filter="url(#filter5_d_456_3011)"><path fill-rule="evenodd" clip-rule="evenodd" d="M209.343-34.018l14.036-1.391a.746.746 0 01.759.429.745.745 0 01-.147.857L212.227-22.36a.757.757 0 00.002 1.068l5.153 5.153a.757.757 0 001.068.002l22.034-22.034a.757.757 0 00-.002-1.068l-5.422-5.422a.734.734 0 00-.636-.216l-16.804 2.26.045-.045-6.147.77a.736.736 0 01-.63-.216.736.736 0 01-.215-.629l.77-6.148-.045.045 2.26-16.803a.735.735 0 00-.216-.636l-5.423-5.423a.756.756 0 00-1.067-.001L184.918-49.67a.757.757 0 00.001 1.067l5.153 5.153a.758.758 0 001.069.002l11.763-11.763a.743.743 0 01.857-.147.742.742 0 01.428.758l-1.39 14.037a.735.735 0 00.218.61l5.715 5.715a.734.734 0 00.61.218h.001zm-70.886 30.81l-22.033 22.033a.757.757 0 00.001 1.068l5.153 5.153a.758.758 0 001.069.001l7.553-7.553a.757.757 0 011.068.001l.769.77c.27.27.298.69.067.993-4.365 5.727-5.057 12.634 3.164 20.855l1.244 1.245c9.507 9.506 17.271 7.065 23.511.826l1.794-1.794c6.239-6.24 8.68-14.005-.826-23.511l-1.245-1.245c-8.391-8.391-15.404-7.473-21.233-2.869a.752.752 0 01-1.002-.058l-.728-.728a.758.758 0 01-.001-1.068l7.898-7.897a.758.758 0 00-.001-1.069l-5.153-5.153a.758.758 0 00-1.069 0zm3.104 25.135c3.482-3.482 6.689-6.688 13.257-.12s3.362 9.775-.12 13.257c-3.517 3.517-6.724 6.723-13.292.155s-3.362-9.775.155-13.292zM186.359-23.8L169.843-7.284a.757.757 0 01-1.068-.001l-6.363-6.363a.756.756 0 01-.001-1.069l16.516-16.516a.758.758 0 00-.001-1.069l-5.153-5.153a.756.756 0 00-1.068 0l-22.034 22.033a.757.757 0 00.002 1.067l32.463 32.463a.756.756 0 001.067.002l22.034-22.034a.757.757 0 00-.001-1.068l-5.153-5.153a.758.758 0 00-1.069-.001L183.498 6.37a.756.756 0 01-1.068 0L176.066.006a.758.758 0 01-.001-1.068l16.517-16.516a.757.757 0 00-.001-1.068l-5.153-5.154a.758.758 0 00-1.069 0z" fill="#fff"/></g><g filter="url(#filter6_d_456_3011)"><path fill-rule="evenodd" clip-rule="evenodd" d="M-13.744 110.919l14.036-1.391a.745.745 0 01.759.429.743.743 0 01-.147.857l-11.763 11.763a.758.758 0 00.001 1.068l5.153 5.153a.756.756 0 001.068.002l22.034-22.034a.757.757 0 00-.002-1.068l-5.422-5.422a.733.733 0 00-.636-.216l-16.803 2.26.045-.045-6.148.77a.735.735 0 01-.63-.216.734.734 0 01-.215-.629l.77-6.148-.045.046 2.26-16.804a.734.734 0 00-.216-.636l-5.422-5.422a.757.757 0 00-1.068-.002l-22.034 22.034a.756.756 0 00.002 1.067l5.153 5.154a.758.758 0 001.068.002l11.763-11.764a.743.743 0 01.857-.147c.295.14.46.435.428.758l-1.39 14.037a.735.735 0 00.218.611l5.715 5.715a.736.736 0 00.61.218zm-70.885 30.81l-22.034 22.033a.757.757 0 00.001 1.068l5.153 5.153a.757.757 0 001.069.001l7.553-7.553a.755.755 0 011.068.002l.77.769c.269.27.297.69.066.993-4.365 5.727-5.057 12.634 3.164 20.855l1.244 1.245c9.507 9.506 17.271 7.066 23.51.826l1.795-1.794c6.24-6.24 8.68-14.004-.826-23.511l-1.245-1.244c-8.391-8.392-15.403-7.474-21.232-2.87a.753.753 0 01-1.003-.058l-.728-.727a.758.758 0 010-1.069l7.897-7.897a.758.758 0 00-.001-1.069l-5.153-5.153a.758.758 0 00-1.068-.001v.001zm3.103 25.136c3.482-3.482 6.689-6.689 13.257-.121 6.568 6.569 3.362 9.775-.12 13.257-3.517 3.517-6.724 6.723-13.292.155s-3.362-9.774.155-13.291zm44.798-45.729l-16.516 16.517a.757.757 0 01-1.068-.001l-6.363-6.363a.756.756 0 01-.001-1.068l16.516-16.517a.756.756 0 00-.001-1.068l-5.153-5.153a.756.756 0 00-1.068-.001l-22.034 22.033a.757.757 0 00.002 1.068l32.463 32.463a.758.758 0 001.068.001l22.033-22.033a.756.756 0 00-.001-1.068l-5.153-5.153a.757.757 0 00-1.069-.002l-16.516 16.517a.757.757 0 01-1.068-.001l-6.364-6.363a.756.756 0 010-1.068l16.516-16.517a.757.757 0 000-1.068l-5.154-5.154a.758.758 0 00-1.069-.001z" fill="#fff"/></g><g filter="url(#filter7_d_456_3011)"><path fill-rule="evenodd" clip-rule="evenodd" d="M84.082 13.093l14.036-1.39a.745.745 0 01.759.428.743.743 0 01-.147.857L86.967 24.752a.757.757 0 00.001 1.067l5.154 5.154a.757.757 0 001.067.001L115.223 8.94a.757.757 0 00-.001-1.067l-5.423-5.423a.733.733 0 00-.636-.215L92.36 4.495l.045-.046-6.148.77a.735.735 0 01-.63-.215.735.735 0 01-.215-.63l.77-6.147-.045.045 2.26-16.803a.734.734 0 00-.216-.637L82.76-24.59a.756.756 0 00-1.068-.002L59.657-2.558a.757.757 0 00.002 1.068l5.153 5.153a.757.757 0 001.068.002L77.643-8.1a.743.743 0 01.857-.147c.295.14.46.435.429.759L77.539 6.55a.734.734 0 00.217.61l5.715 5.715a.734.734 0 00.61.218zm-70.885 30.81L-8.837 65.936a.757.757 0 00.001 1.068l5.153 5.153a.757.757 0 001.069.002l7.553-7.553a.756.756 0 011.068 0l.77.77c.27.27.297.69.067.993-4.366 5.728-5.058 12.635 3.163 20.856l1.245 1.244c9.506 9.507 17.27 7.066 23.51.826l1.794-1.794c6.24-6.24 8.68-14.004-.826-23.51l-1.244-1.245c-8.392-8.392-15.404-7.473-21.233-2.87a.753.753 0 01-1.003-.058l-.727-.727a.757.757 0 01-.001-1.068l7.897-7.898a.757.757 0 00-.001-1.068l-5.153-5.154a.757.757 0 00-1.068 0zM16.3 69.039c3.482-3.482 6.689-6.689 13.257-.12 6.569 6.568 3.362 9.775-.12 13.256-3.517 3.517-6.723 6.724-13.292.155-6.568-6.568-3.362-9.774.155-13.291zM61.1 23.31L44.582 39.827a.757.757 0 01-1.068 0l-6.363-6.364a.757.757 0 01-.001-1.068l16.516-16.517a.757.757 0 00-.001-1.068l-5.153-5.153a.757.757 0 00-1.068-.001L25.41 31.689a.757.757 0 000 1.068L57.876 65.22a.757.757 0 001.068.001l22.033-22.033a.757.757 0 00-.001-1.068l-5.153-5.153a.757.757 0 00-1.069-.002L58.237 53.483a.757.757 0 01-1.068 0l-6.363-6.364a.757.757 0 01-.001-1.068L67.32 29.533a.757.757 0 000-1.068l-5.154-5.153a.757.757 0 00-1.068-.001z" fill="#fff"/></g><g filter="url(#filter8_d_456_3011)"><path fill-rule="evenodd" clip-rule="evenodd" d="M181.907-84.732l14.037-1.391a.745.745 0 01.758.428.741.741 0 01-.147.858l-11.763 11.763a.757.757 0 00.001 1.068l5.154 5.153a.757.757 0 001.068.002l22.033-22.034a.757.757 0 00-.001-1.068l-5.423-5.422a.733.733 0 00-.636-.216l-16.803 2.26.045-.045-6.148.77a.735.735 0 01-.629-.216.734.734 0 01-.216-.63l.77-6.147-.045.045 2.26-16.803a.735.735 0 00-.215-.636l-5.423-5.423a.757.757 0 00-1.068-.001l-22.034 22.034a.756.756 0 00.002 1.067l5.153 5.153a.757.757 0 001.068.002l11.763-11.763a.743.743 0 01.857-.148c.295.14.461.436.429.759l-1.391 14.037a.735.735 0 00.218.61l5.715 5.715a.736.736 0 00.611.218zm-70.885 30.81L88.989-31.89a.757.757 0 000 1.069l5.153 5.153a.757.757 0 001.07.001l7.552-7.553a.757.757 0 011.068.001l.769.77c.27.27.298.69.068.992-4.366 5.728-5.057 12.635 3.163 20.856l1.245 1.244c9.506 9.507 17.271 7.066 23.51.826l1.794-1.793c6.24-6.24 8.681-14.005-.826-23.511l-1.244-1.245c-8.392-8.392-15.404-7.473-21.233-2.869a.753.753 0 01-1.003-.058l-.727-.728a.756.756 0 01-.001-1.068l7.897-7.897a.757.757 0 00-.001-1.07l-5.153-5.152a.757.757 0 00-1.068-.001zm3.104 25.135c3.481-3.482 6.688-6.688 13.256-.12 6.569 6.568 3.362 9.775-.12 13.257-3.517 3.517-6.723 6.723-13.291.155-6.569-6.569-3.362-9.775.155-13.292zm44.798-45.728l-16.517 16.517a.757.757 0 01-1.068-.001l-6.363-6.364a.756.756 0 01-.001-1.068l16.517-16.516a.758.758 0 00-.002-1.069l-5.153-5.153a.756.756 0 00-1.068 0l-22.033 22.032a.757.757 0 00.001 1.068L155.7-32.606a.757.757 0 001.068.002l22.033-22.034a.756.756 0 00-.001-1.068l-5.153-5.153a.757.757 0 00-1.068-.001l-16.517 16.516a.756.756 0 01-1.068 0l-6.363-6.364a.756.756 0 01-.001-1.068l16.516-16.516a.756.756 0 00-.001-1.069l-5.153-5.153a.757.757 0 00-1.068 0v-.001z" fill="#fff"/></g><g filter="url(#filter9_d_456_3011)"><path fill-rule="evenodd" clip-rule="evenodd" d="M161.677 169.947l14.036-1.391a.748.748 0 01.759.429.744.744 0 01-.147.857l-11.764 11.763a.758.758 0 00.002 1.068l5.153 5.154a.758.758 0 001.068.001l22.034-22.034a.756.756 0 00-.002-1.067l-5.422-5.423a.734.734 0 00-.636-.216l-16.804 2.26.045-.045-6.147.77a.736.736 0 01-.63-.216.735.735 0 01-.215-.629l.77-6.147-.045.045 2.26-16.804a.736.736 0 00-.216-.636l-5.423-5.422a.756.756 0 00-1.067-.002l-22.034 22.034a.758.758 0 00.001 1.068l5.153 5.153a.759.759 0 001.069.002l11.763-11.764a.744.744 0 01.857-.147.742.742 0 01.428.758l-1.39 14.038a.735.735 0 00.218.61l5.715 5.715a.735.735 0 00.61.218h.001zm-70.886 30.81L68.758 222.79a.757.757 0 00.001 1.068l5.153 5.153a.757.757 0 001.069.001l7.553-7.553a.756.756 0 011.067.002l.77.769c.27.27.298.69.067.993-4.365 5.728-5.057 12.635 3.164 20.855l1.244 1.245c9.507 9.506 17.271 7.066 23.511.826l1.794-1.794c6.239-6.239 8.68-14.004-.826-23.511l-1.245-1.244c-8.391-8.392-15.403-7.474-21.233-2.87a.753.753 0 01-1.002-.058l-.728-.727a.757.757 0 010-1.068l7.897-7.898a.758.758 0 00-.001-1.069l-5.153-5.153a.758.758 0 00-1.069-.001v.001zm3.104 25.136c3.482-3.482 6.689-6.689 13.257-.121 6.568 6.569 3.362 9.775-.12 13.257-3.517 3.517-6.724 6.723-13.292.155s-3.362-9.774.155-13.291zm44.798-45.729l-16.516 16.517a.757.757 0 01-1.068-.001l-6.363-6.363a.756.756 0 01-.001-1.068l16.516-16.517a.757.757 0 00-.001-1.068l-5.153-5.153a.756.756 0 00-1.068-.001l-22.034 22.033a.757.757 0 00.002 1.068l32.463 32.463a.757.757 0 001.067.001l22.034-22.033a.757.757 0 00-.001-1.068l-5.153-5.153a.757.757 0 00-1.069-.002l-16.516 16.517a.757.757 0 01-1.068-.001l-6.364-6.363a.758.758 0 01-.001-1.068l16.517-16.517a.757.757 0 00-.001-1.068l-5.153-5.154a.758.758 0 00-1.069 0v-.001z" fill="#fff"/></g><g filter="url(#filter10_d_456_3011)"><path fill-rule="evenodd" clip-rule="evenodd" d="M259.503 72.121l14.036-1.39a.746.746 0 01.759.428.743.743 0 01-.147.857L262.388 83.78a.756.756 0 00.001 1.067l5.154 5.154a.756.756 0 001.067.001l22.034-22.034a.757.757 0 00-.001-1.067l-5.423-5.423a.733.733 0 00-.636-.216l-16.803 2.26.045-.045-6.148.77a.736.736 0 01-.63-.216.736.736 0 01-.215-.629l.77-6.147-.045.045 2.26-16.804a.735.735 0 00-.216-.636l-5.422-5.422a.757.757 0 00-1.068-.002L235.078 56.47a.756.756 0 00.002 1.068l5.153 5.153a.757.757 0 001.068.002l11.763-11.764a.744.744 0 01.857-.147c.295.14.461.435.428.759l-1.39 14.037a.735.735 0 00.218.61l5.715 5.715a.734.734 0 00.61.218h.001zm-70.885 30.81l-22.034 22.033a.757.757 0 00.001 1.068l5.153 5.153a.758.758 0 001.069.002l7.553-7.554a.757.757 0 011.068.002l.769.769c.27.27.298.69.068.993-4.366 5.728-5.058 12.635 3.163 20.855l1.244 1.245c9.507 9.506 17.271 7.066 23.511.826l1.794-1.794c6.239-6.239 8.681-14.004-.826-23.511l-1.244-1.244c-8.392-8.392-15.404-7.473-21.233-2.87a.753.753 0 01-1.003-.058l-.728-.727a.757.757 0 010-1.068l7.897-7.898a.758.758 0 00-.001-1.069l-5.153-5.153a.757.757 0 00-1.068 0zm3.103 25.136c3.482-3.482 6.689-6.689 13.257-.121 6.568 6.569 3.362 9.775-.12 13.257-3.517 3.517-6.723 6.724-13.292.155-6.568-6.568-3.362-9.774.155-13.291zm44.798-45.729l-16.516 16.517a.757.757 0 01-1.068 0l-6.363-6.364a.756.756 0 01-.001-1.068l16.516-16.517a.758.758 0 00-.001-1.068l-5.153-5.153a.756.756 0 00-1.068-.001l-22.033 22.033a.756.756 0 00.001 1.068l32.463 32.463a.758.758 0 001.068.001l22.033-22.033a.757.757 0 00-.001-1.068l-5.153-5.153a.758.758 0 00-1.069-.002l-16.516 16.517a.756.756 0 01-1.068-.001l-6.363-6.363a.756.756 0 01-.001-1.068l16.516-16.517a.757.757 0 00-.001-1.068l-5.153-5.153a.757.757 0 00-1.068-.001h-.001z" fill="#fff"/></g><g filter="url(#filter11_d_456_3011)"><path fill-rule="evenodd" clip-rule="evenodd" d="M218.211 191.563l14.036-1.391a.746.746 0 01.759.429.743.743 0 01-.147.857l-11.763 11.763a.757.757 0 00.001 1.068l5.154 5.154a.757.757 0 001.067.001l22.034-22.034a.758.758 0 00-.001-1.068l-5.423-5.422a.733.733 0 00-.636-.216l-16.803 2.26.045-.045-6.148.77a.736.736 0 01-.63-.216.735.735 0 01-.215-.629l.77-6.147-.045.045 2.26-16.804a.736.736 0 00-.216-.636l-5.422-5.422a.757.757 0 00-1.068-.002l-22.034 22.034a.757.757 0 00.002 1.068l5.153 5.153a.758.758 0 001.068.002l11.763-11.764a.745.745 0 01.857-.147.742.742 0 01.428.758l-1.39 14.038a.735.735 0 00.218.61l5.715 5.715a.735.735 0 00.61.218h.001zm-70.885 30.81l-22.034 22.033a.757.757 0 00.001 1.068l5.153 5.153a.757.757 0 001.069.001l7.553-7.553a.756.756 0 011.068.002l.769.769c.27.27.298.69.068.993-4.366 5.728-5.058 12.635 3.163 20.855l1.244 1.245c9.507 9.506 17.271 7.066 23.511.826l1.794-1.794c6.239-6.239 8.681-14.004-.826-23.511l-1.244-1.244c-8.392-8.392-15.404-7.474-21.233-2.87a.753.753 0 01-1.003-.058l-.728-.727a.757.757 0 010-1.068l7.897-7.898a.758.758 0 00-.001-1.069l-5.153-5.153a.758.758 0 00-1.068-.001v.001zm3.103 25.136c3.482-3.482 6.689-6.689 13.257-.121 6.568 6.569 3.362 9.775-.12 13.257-3.517 3.517-6.723 6.723-13.292.155-6.568-6.568-3.362-9.774.155-13.291zm44.798-45.729l-16.516 16.517a.757.757 0 01-1.068-.001l-6.363-6.363a.756.756 0 01-.001-1.068l16.516-16.517a.757.757 0 00-.001-1.068l-5.153-5.153a.756.756 0 00-1.068-.001l-22.033 22.033a.756.756 0 00.001 1.068l32.463 32.463a.758.758 0 001.068.001l22.033-22.033a.757.757 0 00-.001-1.068l-5.153-5.153a.757.757 0 00-1.069-.002l-16.516 16.517a.757.757 0 01-1.068-.001l-6.363-6.363a.756.756 0 01-.001-1.068l16.516-16.517a.757.757 0 00-.001-1.068l-5.153-5.154a.757.757 0 00-1.068 0l-.001-.001z" fill="#fff"/></g><g filter="url(#filter12_d_456_3011)"><path fill-rule="evenodd" clip-rule="evenodd" d="M316.036 93.737l14.037-1.39a.744.744 0 01.758.428.743.743 0 01-.146.857l-11.764 11.764a.757.757 0 00.002 1.067l5.153 5.154a.758.758 0 001.068.001l22.034-22.034a.756.756 0 00-.002-1.067l-5.422-5.423a.734.734 0 00-.636-.216l-16.804 2.26.045-.045-6.147.77a.736.736 0 01-.63-.216.736.736 0 01-.215-.629l.77-6.147-.045.045 2.26-16.804a.736.736 0 00-.216-.636l-5.423-5.422a.756.756 0 00-1.067-.002l-22.034 22.034a.757.757 0 00.001 1.068l5.153 5.153a.757.757 0 001.068.002l11.764-11.764a.742.742 0 01.856-.147c.295.14.461.435.429.758l-1.39 14.038a.734.734 0 00.217.61l5.716 5.715a.732.732 0 00.61.218zm-70.885 30.81l-22.033 22.033a.756.756 0 00.001 1.068l5.153 5.153a.758.758 0 001.069.002l7.553-7.554a.756.756 0 011.067.002l.77.769c.27.27.297.69.067.993-4.365 5.728-5.057 12.635 3.164 20.855l1.244 1.245c9.507 9.506 17.271 7.066 23.511.826l1.793-1.794c6.24-6.239 8.681-14.004-.825-23.511l-1.245-1.244c-8.391-8.392-15.404-7.474-21.233-2.87a.752.752 0 01-1.002-.058l-.728-.727a.758.758 0 01-.001-1.068l7.898-7.898a.757.757 0 00-.002-1.069l-5.153-5.153a.757.757 0 00-1.068 0zm3.104 25.136c3.482-3.482 6.689-6.689 13.257-.121 6.568 6.569 3.361 9.775-.12 13.257-3.517 3.517-6.724 6.724-13.292.155-6.568-6.568-3.362-9.774.155-13.291zm44.798-45.729l-16.516 16.517a.757.757 0 01-1.068-.001l-6.364-6.363a.758.758 0 01-.001-1.068l16.517-16.517a.758.758 0 00-.001-1.068l-5.153-5.153a.758.758 0 00-1.069-.001l-22.033 22.033a.757.757 0 00.002 1.068l32.463 32.463a.757.757 0 001.067.001l22.034-22.033a.758.758 0 00-.001-1.068l-5.153-5.153a.757.757 0 00-1.069-.002l-16.517 16.517a.756.756 0 01-1.068-.001l-6.363-6.363a.757.757 0 01-.001-1.068l16.517-16.517a.757.757 0 00-.001-1.068l-5.154-5.154a.757.757 0 00-1.068 0v-.001z" fill="#fff"/></g></g><path opacity=".25" d="M251.525-2.576h-80.181a5711.73 5711.73 0 00-37.029 0H-1.892V250.82h46.954c2.53-.01 5.128-.01 7.788-.03 6.843-.13 13.657-.22 20.441-.291 6.784-.07 13.547-.09 20.311-.09 6.764 0 13.527.03 20.301.1 6.784.071 13.578.161 20.412.291 3.161 0 6.312.01 9.453.01h107.767M-1.892 10.759h117.21c23.964-1.124 47.366-1.124 72.253-.01 2.448.01 4.847.01 7.205.01h56.749M-1.892 24.094h98.414c3.101.01 6.222.02 9.373.05 30.045-.03 61.244-2.258 90.888-.08 2.669.03 5.269.03 7.797.03h46.955M-1.892 37.429H87.32c3.121 0 6.232.09 9.333.23 35.956-.17 72.724-1.284 107.877-.27 4.667.05 9.072.05 13.186.05h33.829M-1.892 50.774H87.32a59.71 59.71 0 017.647-.391c17.581.481 33.186 3.823 51.008 6.05 22.288 3.342 43.452-3.341 65.961-5.659h39.599M-1.892 64.109H87.32c2.58-.2 5.128-.22 7.647-.1 2.529.12 5.027.371 7.476.632 25.7.702 47.988 15.191 72.504 16.305 13.366 0 23.402-11.138 35.795-15.673 2.248-.793 4.546-1.354 6.944-1.585a25.253 25.253 0 017.497.421h26.352M-1.892 77.444H87.32c3.653-.16 7.215-.08 10.728.2 3.512.282 6.964.713 10.316 1.135 16.447 1.053 30.928 7.736 45.419 14.419 23.402 10.023 43.452-3.342 63.07-13.948 2.981-1.103 6.052-1.916 9.253-2.267a32.329 32.329 0 0110.045.461h15.394M-1.892 90.78H87.32c3.04 0 6.112 0 9.212.01 3.653.763 7.296 1.465 10.919 2.108 30.737 3.642 61.936 18.131 92.905 9.622a68.055 68.055 0 0010.195-3.693c3.382-1.535 6.744-3.401 10.096-5.628 5.569-3.342 10.025-2.228 15.534-2.399 4.827-.02 8.68-.02 11.31-.02h4.064M-1.892 104.114h107.767c3.141 0 6.302.01 9.624.201 23.793 7.827 48.299 10.054 72.564 8.489 4.014-.351 8.028-.813 12.042-1.365 12.042-1.665 24.064-4.214 36.086-7.274 4.797-.051 8.65-.051 11.28-.051h4.064M-1.892 117.46h117.22c3.161 0 6.332 0 9.564.07 23.311 3.532 45.599 9.101 70.105 5.759 14.481-2.227 26.743-6.682 41.164-5.809 3.211-.02 6.001-.02 8.279-.02h7.095M-1.892 130.795h39.578a1029.99 1029.99 0 0016.047.18c13.146.101 26.522.101 39.668-.18h31.43c3.171 0 6.333 0 9.514.01 31.691 3.612 62.89 2.498 93.888.06 4.747-.07 8.952-.07 12.414-.07h10.888M-1.892 144.13h15.394c3.883.04 7.757.06 11.61.06 33.95-1.967 66.262.261 99.709-.06h11.862c3.944 0 7.877 0 11.791.01 23.131.311 47.637.311 71.109.02 4.837-.03 9.262-.03 13.176-.03h18.776M-1.892 157.465s3.964 0 10.818.01c3.452-.08 6.894-.181 10.316-.361 38.715-7.104 76.598-1.526 115.083.351h34.36c11.851.351 25.218.351 37.421 0h45.449M-1.892 170.8s2.539 0 7.035.01c3.943-.301 7.877-.662 11.77-1.234 37.703-12.874 77.813-8.419 117.251 1.164 3.312.05 6.473.06 9.604.06h107.767M-1.892 184.135s2.539 0 7.014.01c3.422.441 6.724.411 9.925-.08 12.825-2.86 22.85-11.77 36.227-15.111 28.971-6.683 53.487 8.91 81.445 12.913a176.74 176.74 0 0111.059 2.268h107.767M-1.892 197.48h7.075c2.328.11 4.706.261 7.054.321 15.635 2.348 22.319-14.358 35.695-18.813 11.14-4.456 23.402-2.228 34.541 1.113 16.719 5.569 32.313 12.252 50.316 14.59 3.793.812 7.396 1.705 10.959 2.649 3.161.13 6.282.13 9.372.14h98.415M-1.892 210.815h7.095c2.278 0 5.067 0 8.269-.01 6.593-1.746 15.504 1.606 19.96-3.973 27.857-32.31 66.853-3.342 99.638.682 3.563.933 7.115 1.977 10.678 3.141 3.151.14 6.271.14 9.372.15h98.415M-1.892 224.15h15.394c3.231 0 6.904 0 10.958-.04 3.412-.562 6.754.562 8.982-.562 27.857-22.285 59.056-8.91 88.8-3.963 3.693.682 7.276 1.384 10.858 2.157 3.543.723 7.105 1.505 10.668 2.338 3.141.05 6.251.06 9.352.07h98.415M-1.892 237.485H24.46c4.054 0 8.49 0 13.246-.01a162.956 162.956 0 0110.547-2.328c17.502-2.689 35.324-3.802 53.106-1.816 3.583.231 7.125.502 10.658.793 3.502.301 6.994.612 10.456.943 3.532.301 7.075.652 10.617 1.054 3.543.401 7.105.853 10.668 1.354 3.141 0 6.251.01 9.352.01h98.415M11.445 250.82v-26.349c0-4.053 0-8.488-.01-13.234-.09-6.663-.161-13.215-.191-19.717a2096 2096 0 010-19.456c.03-6.492.09-13.014.18-19.636.02-3.101.03-6.221.03-9.352V-2.566M24.782 250.82v-26.379c-1.364-23.178-1.364-45.463-.983-68.481.31-7.375.642-14.911.983-22.346V-2.576M38.128 250.82v-4.063c0-2.639 0-6.482-.01-11.369-5.79-30.784-6.904-64.207-1.355-95.141.432-3.492.873-7.084 1.345-10.687.03-2.719.03-5.438.03-8.147V-2.577M51.465 250.82c-.572-3.572-1.134-7.124-1.666-10.666-6.332-34.436-11.902-70.087-.944-104.112.793-3.341 1.636-6.823 2.58-10.335.02-2.909.02-5.809.02-8.709V-2.576M64.8 250.55c.12-3.101 0-6.141-.33-9.131-3.172-23.44-19.89-44.601-16.549-70.228 2.228-16.716 17.833-27.854 16.87-45.875.01-2.769.01-5.549.01-8.308V-2.566m13.306 252.483a60.155 60.155 0 00-1.134-11.328c-12.333-32.871-31.27-67.408-2.298-99.717 3.341-2.228 4.455-7.796 3.472-13.566v-8.308c-.01-60.886-.01-119.574-.01-119.574m13.286 252.182c-.782-3.943-1.575-7.866-2.478-11.769-13.166-34.347-23.201-72.225 2.278-104.203.2-3.171.25-6.341.25-9.512V77.595c-.1-13.365-.1-26.74 0-40.587V-2.586m13.317 252.533a746.347 746.347 0 01-1.274-10.605c-.572-3.522-1.114-7.054-1.786-10.576-13.688-31.958-7.005-64.267 2.98-95.142.11-4.154.11-8.318.11-12.472v-20.67a580.488 580.488 0 00.422-20.63c-.482-21.201-.482-41.26-.422-61.879V-2.596m13.337 253.146c-.11-3.593-.211-7.185-.281-10.767-.09-3.612-.161-7.214-.241-10.847-7.315-27.673-2.86-56.641.442-85.87.08-3.141.08-6.291.08-9.452v-16.616c.361-2.478.672-4.917.933-7.335.251-2.408.462-4.796.632-7.174 2.86-33.804-1.595-66.114-1.565-99.587v-5.478m13.337 253.396v-33.864c0-3.713-.03-7.415-.111-11.098-1.003-17.95.111-35.781.121-53.43v-23.209a86.055 86.055 0 003.472-10.244c6.553-40.256-4.586-81.476-3.472-121.551M144.83 250.82v-26.359c.03-12.06.03-24.312 0-36.543v-45.444c.01-5.147.301-10.224 1.415-14.85 1.114-4.626 3.071-8.81 6.393-12.161 4.475-5.559 7.817-12.242 7.817-20.038-2.228-33.423-20.06-63.505-15.635-98.011m13.347 253.406v-98.402c-1.636-8.439.602-16.004 3.954-23.128 1.114-2.379 2.358-4.696 3.612-6.994 8.089-11.268 11.43-24.644 9.203-39.122-6.684-30.082-21.174-55.709-16.779-85.76m13.347 253.406v-90.566c-2.168-14.99 4.546-27.423 10.246-40.316 1.425-3.221 2.779-6.472 3.903-9.803 2.66-6.914 3.773-14.72 2.659-21.403-8.911-31.195-21.174-59.05-16.808-91.318M184.85 250.82v-90.566c-1.746-15.964 4.928-30.222 9.132-45.494.843-3.05 1.586-6.15 2.138-9.301 1.114-31.196-14.481-61.277-11.29-92.704.02-4.786.02-8.629.02-11.268v-4.063m13.337 253.396v-91.027c2.308-20.49 4.576-40.758 5.138-61.117.09-4.064.12-8.138.05-12.231-.562-21.102-5.017-41.16-5.198-62.682.01-4.044.01-7.716.01-10.957V-2.586m13.337 253.406v-90.566c0-2.9 0-5.819.01-8.759 1.686-23.65 2.197-46.578 1.515-69.606-.1-3.29-.221-6.582-.371-9.873-.964-8.89-.964-18.924-1.154-27.634V-2.566M224.86 250.82V147.752c0-2.729 0-5.469.02-8.208.201-22.957 1.315-47.47 0-70.709-.02-2.548-.02-5.037-.02-7.475V-2.586m13.337 253.406V124.122c.261-11.98.261-25.356 0-37.507V-2.586m13.337 253.406V-2.576" stroke="#fff" stroke-width=".357" stroke-miterlimit="10"/><g filter="url(#filter13_d_456_3011)"><circle cx="125" cy="125" r="87.5" fill="url(#paint1_linear_456_3011)"/><circle cx="125" cy="125" r="87.5" fill="#fff"/></g></g><defs><filter id="filter0_d_456_3011" x="-108.311" y="-122.637" width="457.137" height="398.766" filterUnits="userSpaceOnUse" color-interpolation-filters="sRGB"><feFlood flood-opacity="0" result="BackgroundImageFix"/><feColorMatrix in="SourceAlpha" values="0 0 0 0 0 0 0 0 0 0 0 0 0 0 0 0 0 0 127 0" result="hardAlpha"/><feOffset dy="1.429"/><feGaussianBlur stdDeviation=".714"/><feComposite in2="hardAlpha" operator="out"/><feColorMatrix values="0 0 0 0 0 0 0 0 0 0 0 0 0 0 0 0 0 0 0.05 0"/><feBlend in2="BackgroundImageFix" result="effect1_dropShadow_456_3011"/><feBlend in="SourceGraphic" in2="effect1_dropShadow_456_3011" result="shape"/></filter><filter id="filter1_d_456_3011" x="8.433" y="108.284" width="131.642" height="126.756" filterUnits="userSpaceOnUse" color-interpolation-filters="sRGB"><feFlood flood-opacity="0" result="BackgroundImageFix"/><feColorMatrix in="SourceAlpha" values="0 0 0 0 0 0 0 0 0 0 0 0 0 0 0 0 0 0 127 0" result="hardAlpha"/><feOffset dy="1.429"/><feGaussianBlur stdDeviation="1.786"/><feComposite in2="hardAlpha" operator="out"/><feColorMatrix values="0 0 0 0 0 0 0 0 0 0 0 0 0 0 0 0 0 0 0.2 0"/><feBlend in2="BackgroundImageFix" result="effect1_dropShadow_456_3011"/><feBlend in="SourceGraphic" in2="effect1_dropShadow_456_3011" result="shape"/></filter><filter id="filter2_d_456_3011" x="106.259" y="10.458" width="131.642" height="126.756" filterUnits="userSpaceOnUse" color-interpolation-filters="sRGB"><feFlood flood-opacity="0" result="BackgroundImageFix"/><feColorMatrix in="SourceAlpha" values="0 0 0 0 0 0 0 0 0 0 0 0 0 0 0 0 0 0 127 0" result="hardAlpha"/><feOffset dy="1.429"/><feGaussianBlur stdDeviation="1.786"/><feComposite in2="hardAlpha" operator="out"/><feColorMatrix values="0 0 0 0 0 0 0 0 0 0 0 0 0 0 0 0 0 0 0.2 0"/><feBlend in2="BackgroundImageFix" result="effect1_dropShadow_456_3011"/><feBlend in="SourceGraphic" in2="effect1_dropShadow_456_3011" result="shape"/></filter><filter id="filter3_d_456_3011" x="14.807" y="23.76" width="131.642" height="126.756" filterUnits="userSpaceOnUse" color-interpolation-filters="sRGB"><feFlood flood-opacity="0" result="BackgroundImageFix"/><feColorMatrix in="SourceAlpha" values="0 0 0 0 0 0 0 0 0 0 0 0 0 0 0 0 0 0 127 0" result="hardAlpha"/><feOffset dy="1.429"/><feGaussianBlur stdDeviation="1.786"/><feComposite in2="hardAlpha" operator="out"/><feColorMatrix values="0 0 0 0 0 0 0 0 0 0 0 0 0 0 0 0 0 0 0.2 0"/><feBlend in2="BackgroundImageFix" result="effect1_dropShadow_456_3011"/><feBlend in="SourceGraphic" in2="effect1_dropShadow_456_3011" result="shape"/></filter><filter id="filter4_d_456_3011" x="-83.019" y="121.586" width="131.642" height="126.756" filterUnits="userSpaceOnUse" color-interpolation-filters="sRGB"><feFlood flood-opacity="0" result="BackgroundImageFix"/><feColorMatrix in="SourceAlpha" values="0 0 0 0 0 0 0 0 0 0 0 0 0 0 0 0 0 0 127 0" result="hardAlpha"/><feOffset dy="1.429"/><feGaussianBlur stdDeviation="1.786"/><feComposite in2="hardAlpha" operator="out"/><feColorMatrix values="0 0 0 0 0 0 0 0 0 0 0 0 0 0 0 0 0 0 0.2 0"/><feBlend in2="BackgroundImageFix" result="effect1_dropShadow_456_3011"/><feBlend in="SourceGraphic" in2="effect1_dropShadow_456_3011" result="shape"/></filter><filter id="filter5_d_456_3011" x="112.633" y="-74.066" width="131.642" height="126.756" filterUnits="userSpaceOnUse" color-interpolation-filters="sRGB"><feFlood flood-opacity="0" result="BackgroundImageFix"/><feColorMatrix in="SourceAlpha" values="0 0 0 0 0 0 0 0 0 0 0 0 0 0 0 0 0 0 127 0" result="hardAlpha"/><feOffset dy="1.429"/><feGaussianBlur stdDeviation="1.786"/><feComposite in2="hardAlpha" operator="out"/><feColorMatrix values="0 0 0 0 0 0 0 0 0 0 0 0 0 0 0 0 0 0 0.2 0"/><feBlend in2="BackgroundImageFix" result="effect1_dropShadow_456_3011"/><feBlend in="SourceGraphic" in2="effect1_dropShadow_456_3011" result="shape"/></filter><filter id="filter6_d_456_3011" x="-110.454" y="70.871" width="131.642" height="126.756" filterUnits="userSpaceOnUse" color-interpolation-filters="sRGB"><feFlood flood-opacity="0" result="BackgroundImageFix"/><feColorMatrix in="SourceAlpha" values="0 0 0 0 0 0 0 0 0 0 0 0 0 0 0 0 0 0 127 0" result="hardAlpha"/><feOffset dy="1.429"/><feGaussianBlur stdDeviation="1.786"/><feComposite in2="hardAlpha" operator="out"/><feColorMatrix values="0 0 0 0 0 0 0 0 0 0 0 0 0 0 0 0 0 0 0.2 0"/><feBlend in2="BackgroundImageFix" result="effect1_dropShadow_456_3011"/><feBlend in="SourceGraphic" in2="effect1_dropShadow_456_3011" result="shape"/></filter><filter id="filter7_d_456_3011" x="-12.628" y="-26.954" width="131.642" height="126.756" filterUnits="userSpaceOnUse" color-interpolation-filters="sRGB"><feFlood flood-opacity="0" result="BackgroundImageFix"/><feColorMatrix in="SourceAlpha" values="0 0 0 0 0 0 0 0 0 0 0 0 0 0 0 0 0 0 127 0" result="hardAlpha"/><feOffset dy="1.429"/><feGaussianBlur stdDeviation="1.786"/><feComposite in2="hardAlpha" operator="out"/><feColorMatrix values="0 0 0 0 0 0 0 0 0 0 0 0 0 0 0 0 0 0 0.2 0"/><feBlend in2="BackgroundImageFix" result="effect1_dropShadow_456_3011"/><feBlend in="SourceGraphic" in2="effect1_dropShadow_456_3011" result="shape"/></filter><filter id="filter8_d_456_3011" x="85.197" y="-124.78" width="131.642" height="126.756" filterUnits="userSpaceOnUse" color-interpolation-filters="sRGB"><feFlood flood-opacity="0" result="BackgroundImageFix"/><feColorMatrix in="SourceAlpha" values="0 0 0 0 0 0 0 0 0 0 0 0 0 0 0 0 0 0 127 0" result="hardAlpha"/><feOffset dy="1.429"/><feGaussianBlur stdDeviation="1.786"/><feComposite in2="hardAlpha" operator="out"/><feColorMatrix values="0 0 0 0 0 0 0 0 0 0 0 0 0 0 0 0 0 0 0.2 0"/><feBlend in2="BackgroundImageFix" result="effect1_dropShadow_456_3011"/><feBlend in="SourceGraphic" in2="effect1_dropShadow_456_3011" result="shape"/></filter><filter id="filter9_d_456_3011" x="64.967" y="129.9" width="131.642" height="126.756" filterUnits="userSpaceOnUse" color-interpolation-filters="sRGB"><feFlood flood-opacity="0" result="BackgroundImageFix"/><feColorMatrix in="SourceAlpha" values="0 0 0 0 0 0 0 0 0 0 0 0 0 0 0 0 0 0 127 0" result="hardAlpha"/><feOffset dy="1.429"/><feGaussianBlur stdDeviation="1.786"/><feComposite in2="hardAlpha" operator="out"/><feColorMatrix values="0 0 0 0 0 0 0 0 0 0 0 0 0 0 0 0 0 0 0.2 0"/><feBlend in2="BackgroundImageFix" result="effect1_dropShadow_456_3011"/><feBlend in="SourceGraphic" in2="effect1_dropShadow_456_3011" result="shape"/></filter><filter id="filter10_d_456_3011" x="162.793" y="32.074" width="131.642" height="126.756" filterUnits="userSpaceOnUse" color-interpolation-filters="sRGB"><feFlood flood-opacity="0" result="BackgroundImageFix"/><feColorMatrix in="SourceAlpha" values="0 0 0 0 0 0 0 0 0 0 0 0 0 0 0 0 0 0 127 0" result="hardAlpha"/><feOffset dy="1.429"/><feGaussianBlur stdDeviation="1.786"/><feComposite in2="hardAlpha" operator="out"/><feColorMatrix values="0 0 0 0 0 0 0 0 0 0 0 0 0 0 0 0 0 0 0.2 0"/><feBlend in2="BackgroundImageFix" result="effect1_dropShadow_456_3011"/><feBlend in="SourceGraphic" in2="effect1_dropShadow_456_3011" result="shape"/></filter><filter id="filter11_d_456_3011" x="121.501" y="151.516" width="131.642" height="126.756" filterUnits="userSpaceOnUse" color-interpolation-filters="sRGB"><feFlood flood-opacity="0" result="BackgroundImageFix"/><feColorMatrix in="SourceAlpha" values="0 0 0 0 0 0 0 0 0 0 0 0 0 0 0 0 0 0 127 0" result="hardAlpha"/><feOffset dy="1.429"/><feGaussianBlur stdDeviation="1.786"/><feComposite in2="hardAlpha" operator="out"/><feColorMatrix values="0 0 0 0 0 0 0 0 0 0 0 0 0 0 0 0 0 0 0.2 0"/><feBlend in2="BackgroundImageFix" result="effect1_dropShadow_456_3011"/><feBlend in="SourceGraphic" in2="effect1_dropShadow_456_3011" result="shape"/></filter><filter id="filter12_d_456_3011" x="219.327" y="53.69" width="131.642" height="126.756" filterUnits="userSpaceOnUse" color-interpolation-filters="sRGB"><feFlood flood-opacity="0" result="BackgroundImageFix"/><feColorMatrix in="SourceAlpha" values="0 0 0 0 0 0 0 0 0 0 0 0 0 0 0 0 0 0 127 0" result="hardAlpha"/><feOffset dy="1.429"/><feGaussianBlur stdDeviation="1.786"/><feComposite in2="hardAlpha" operator="out"/><feColorMatrix values="0 0 0 0 0 0 0 0 0 0 0 0 0 0 0 0 0 0 0.2 0"/><feBlend in2="BackgroundImageFix" result="effect1_dropShadow_456_3011"/><feBlend in="SourceGraphic" in2="effect1_dropShadow_456_3011" result="shape"/></filter><filter id="filter13_d_456_3011" x="30.357" y="30.357" width="189.286" height="189.286" filterUnits="userSpaceOnUse" color-interpolation-filters="sRGB"><feFlood flood-opacity="0" result="BackgroundImageFix"/><feColorMatrix in="SourceAlpha" values="0 0 0 0 0 0 0 0 0 0 0 0 0 0 0 0 0 0 127 0" result="hardAlpha"/><feOffset/><feGaussianBlur stdDeviation="3.571"/><feComposite in2="hardAlpha" operator="out"/><feColorMatrix values="0 0 0 0 0 0 0 0 0 0 0 0 0 0 0 0 0 0 0.15 0"/><feBlend in2="BackgroundImageFix" result="effect1_dropShadow_456_3011"/><feBlend in="SourceGraphic" in2="effect1_dropShadow_456_3011" result="shape"/></filter><linearGradient id="paint0_linear_456_3011" x1="79.729" y1="-187.993" x2="-110.837" y2="159.109" gradientUnits="userSpaceOnUse"><stop stop-color="#A42E32"/><stop offset="1" stop-color="#E52A31"/></linearGradient><linearGradient id="paint1_linear_456_3011" x1="93.31" y1="-94.095" x2="-40.086" y2="148.877" gradientUnits="userSpaceOnUse"><stop stop-color="#A42E32"/><stop offset="1" stop-color="#E52A31"/></linearGradient><clipPath id="clip0_456_3011"><rect width="250" height="250" rx="125" fill="#fff"/></clipPath></defs></svg>