<svg width="125" height="33" fill="none" xmlns="http://www.w3.org/2000/svg"><g clip-path="url(#clip0_2962_3552)"><path d="M36.2 11.187l-.713.08v-3.15L32.42 11.44V6.63l.711-.08v3.182L36.2 6.413v4.774zm4.564 0l-.712.08v-2.05H37.81v1.97l-.711.08V6.63l.711-.08v2.01h2.242V6.63l.712-.08v4.637zm4.094-3.659a1.99 1.99 0 00-.43-.235 1.618 1.618 0 00-.603-.12 1.62 1.62 0 00-1.229.517c-.327.344-.49.76-.49 1.248 0 .457.162.862.487 1.212.324.352.73.527 1.218.527.157 0 .316-.024.477-.073a1.8 1.8 0 00.563-.295l-.107.83a2.285 2.285 0 01-.466.145c-.168.033-.342.05-.52.05a2.258 2.258 0 01-1.679-.698c-.456-.465-.684-1.038-.684-1.718 0-.667.229-1.234.688-1.7.458-.469 1.034-.702 1.728-.702.215 0 .41.022.584.067.09.022.206.065.35.127l.113.818zm3.095-.235h-1.02v3.894l-.712.08V7.293h-1.195l.208-.657h2.719v.657zm4.363 3.894l-.711.08v-3.15l-3.068 3.323V6.63l.712-.08v3.182l3.067-3.319v4.774zm3.342-3.894h-1.02v3.894l-.712.08V7.293h-1.195l.209-.657h2.718v.657zm3.833-.572l-2.275 4.585-.725-.194.846-1.586L55.726 6.7l.691-.2 1.275 2.318L58.813 6.5l.678.221zm2.826.572h-1.02v3.894l-.712.08V7.293h-1.194l.208-.657h2.718v.657zm5.753 3.894l-.711.08V7.293h-2.182v3.894l-.711.08v-4.63h3.604v4.55zm3.672-3.033c0 .415-.143.762-.43 1.044-.322.316-.763.474-1.322.474h-.309v1.516l-.711.08V6.635h1.074c.555 0 .987.164 1.295.489.269.284.403.628.403 1.03zm-.712-.006a.802.802 0 00-.221-.574c-.179-.187-.434-.28-.765-.28h-.363v1.708l.235.013c.39 0 .68-.093.873-.28a.784.784 0 00.242-.587zm5.001 3.036l-.712.149-.751-1.56h-1.833l-.758 1.56-.685-.149 2.376-4.744 2.363 4.744zm-1.745-2.028l-.631-1.307-.638 1.307h1.269zm5.014.764c0 .389-.137.7-.41.932-.29.25-.689.375-1.195.375h-1.329v-4.59h1.115c.59 0 1.029.142 1.315.427.215.214.322.477.322.789 0 .209-.05.404-.15.584-.101.18-.252.322-.454.424.233.072.422.2.567.382.146.183.219.41.219.677zm-.88-1.987c0-.186-.07-.34-.208-.46-.139-.12-.34-.18-.604-.18h-.53V8.58h.604c.224 0 .403-.063.537-.187a.604.604 0 00.201-.46zm.168 1.947a.647.647 0 00-.195-.476c-.147-.147-.353-.221-.617-.221h-.698v1.387h.63c.283 0 .504-.071.665-.214a.604.604 0 00.215-.476zm6.19-.955c0 .685-.251 1.262-.752 1.731a2.421 2.421 0 01-1.712.678 2.419 2.419 0 01-1.712-.671 2.286 2.286 0 01-.751-1.738c0-.711.261-1.3.785-1.765a2.448 2.448 0 011.678-.644c.631 0 1.188.214 1.672.644.527.465.792 1.054.792 1.765zm-.712.007c0-.475-.159-.883-.477-1.222-.335-.359-.76-.537-1.275-.537-.515 0-.94.178-1.275.537-.318.34-.477.747-.477 1.222 0 .479.169.89.507 1.232a1.68 1.68 0 001.245.513c.488 0 .902-.17 1.242-.51.34-.34.51-.752.51-1.235zm4.276.988c0 .389-.137.7-.41.932-.29.25-.689.375-1.195.375h-1.329v-4.59h1.114c.591 0 1.03.142 1.316.427.215.214.322.477.322.789 0 .209-.05.404-.15.584-.101.18-.252.322-.454.424.233.072.422.2.567.382.146.183.219.41.219.677zm-.88-1.987c0-.186-.07-.34-.208-.46-.139-.12-.34-.18-.604-.18h-.53V8.58h.604c.224 0 .403-.063.537-.187a.604.604 0 00.201-.46zm.168 1.947a.647.647 0 00-.195-.476c-.147-.147-.353-.221-.617-.221h-.698v1.387h.63c.283 0 .504-.071.665-.214a.604.604 0 00.215-.476zm6.19-.955a2.28 2.28 0 01-.752 1.731 2.422 2.422 0 01-1.712.678 2.419 2.419 0 01-1.712-.671 2.286 2.286 0 01-.751-1.738c0-.711.261-1.3.785-1.765a2.448 2.448 0 011.678-.644c.631 0 1.188.214 1.672.644.527.465.792 1.054.792 1.765zm-.712.007c0-.475-.159-.883-.477-1.222-.335-.359-.76-.537-1.275-.537-.515 0-.94.178-1.275.537-.318.34-.477.747-.477 1.222 0 .479.169.89.507 1.232a1.68 1.68 0 001.245.513c.488 0 .902-.17 1.242-.51.34-.34.51-.752.51-1.235zm4.322-3.187a1.024 1.024 0 01-.406.546 1.198 1.198 0 01-.688.198c-.25 0-.465-.054-.644-.16a.991.991 0 01-.45-.584l.416-.12c.05.147.135.258.255.331.121.074.262.11.423.11a.72.72 0 00.47-.147.72.72 0 00.202-.294l.423.12zm.8 5.442l-.712.08V8.091l-3.068 3.35V6.63l.692-.08.02 3.216 3.067-3.35v4.77zm-63.4 3.363h-1.7v3.894l-.711.08v-4.63h2.269l.14.657zm3.356.862c0 .414-.143.762-.43 1.043-.322.316-.762.475-1.322.475h-.308v1.515l-.712.08v-4.631h1.074c.555 0 .987.163 1.296.488.268.285.402.629.402 1.03zm-.711-.007a.802.802 0 00-.222-.574c-.179-.186-.434-.28-.765-.28h-.362v1.709l.235.013c.389 0 .68-.094.872-.28a.784.784 0 00.242-.588zm5 3.037l-.711.149-.752-1.56h-1.833l-.758 1.56-.685-.149 2.377-4.745 2.362 4.745zm-1.745-2.028l-.63-1.307-.639 1.307h1.27zm6.983 2.07l-.685.114-.523-2.874-1.363 2.927-1.383-2.928-.503 2.875-.691-.114.933-4.773 1.658 3.5 1.617-3.5.94 4.773zm5.142-2.301c0 .684-.25 1.262-.752 1.73a2.421 2.421 0 01-1.712.679 2.42 2.42 0 01-1.712-.672 2.286 2.286 0 01-.751-1.738c0-.71.262-1.3.785-1.764a2.448 2.448 0 011.678-.645 2.44 2.44 0 011.672.645c.528.465.792 1.053.792 1.765zm-.712.006a1.73 1.73 0 00-.476-1.222c-.336-.358-.761-.537-1.276-.537-.514 0-.94.179-1.275.537-.318.34-.477.747-.477 1.222 0 .48.17.89.507 1.232a1.68 1.68 0 001.245.514c.488 0 .902-.17 1.242-.51.34-.34.51-.752.51-1.236zm3.786-1.639h-1.02v3.894l-.712.08v-3.973h-1.195l.208-.657h2.719v.657zm4.249 3.894l-.712.08v-2.05h-2.242v1.97l-.711.08v-4.637l.711-.08v2.01h2.242v-1.93l.712-.08v4.637zm5.558-2.261c0 .684-.251 1.262-.752 1.73a2.421 2.421 0 01-1.712.679 2.419 2.419 0 01-1.712-.672 2.286 2.286 0 01-.751-1.738c0-.71.261-1.3.785-1.764a2.448 2.448 0 011.678-.645 2.44 2.44 0 011.672.645c.528.465.792 1.053.792 1.765zm-.712.006c0-.475-.159-.882-.477-1.222-.335-.358-.76-.537-1.275-.537-.515 0-.94.179-1.275.537-.318.34-.477.747-.477 1.222 0 .48.169.89.507 1.232a1.68 1.68 0 001.245.514c.488 0 .902-.17 1.242-.51.34-.34.51-.752.51-1.236zm4.538-1.404a1.993 1.993 0 00-.43-.234 1.619 1.619 0 00-.603-.12 1.62 1.62 0 00-1.229.516 1.75 1.75 0 00-.49 1.249c0 .457.162.861.487 1.212.324.351.73.527 1.218.527.157 0 .316-.025.477-.074.201-.062.389-.16.563-.295l-.107.831a2.27 2.27 0 01-.466.144 2.62 2.62 0 01-.52.05 2.258 2.258 0 01-1.679-.697c-.456-.465-.684-1.038-.684-1.718 0-.667.229-1.234.688-1.701.458-.468 1.034-.702 1.728-.702.215 0 .41.023.584.067.09.023.206.065.35.128l.113.817zm3.094-.235h-1.02v3.894l-.712.08v-3.973H69.73l.209-.657h2.718v.657zm4.364 3.894l-.712.08v-3.149l-3.068 3.323v-4.81l.712-.081v3.183l3.067-3.32v4.774zm6.243 0l-.712.08v-3.149l-3.068 3.323v-4.81l.712-.081v3.183l3.068-3.32v4.774zm6.067 0l-.711.08v-3.973h-2.182v3.893l-.711.08v-4.63h3.604v4.55zm5.558-2.261c0 .684-.25 1.262-.752 1.73a2.421 2.421 0 01-1.712.679 2.42 2.42 0 01-1.711-.672 2.286 2.286 0 01-.752-1.738c0-.71.262-1.3.785-1.764a2.448 2.448 0 011.678-.645 2.44 2.44 0 011.672.645c.528.465.792 1.053.792 1.765zm-.712.006a1.73 1.73 0 00-.476-1.222c-.336-.358-.761-.537-1.276-.537-.514 0-.94.179-1.275.537-.318.34-.477.747-.477 1.222 0 .48.17.89.507 1.232a1.68 1.68 0 001.245.514c.488 0 .902-.17 1.242-.51.34-.34.51-.752.51-1.236zm5.451 3.153l-.685.08v-.938h-3.087v.858l-.685.08v-1.594h.41l1.819-4.13 1.825 4.13h.403v1.514zm-1.141-1.48l-1.1-2.587-1.102 2.586h2.202zm5.799 1.48l-.684.08v-.938h-3.088v.858l-.685.08v-1.594h.41l1.819-4.13 1.825 4.13h.403v1.514zm-1.141-1.48l-1.101-2.587-1.101 2.586h2.202zm4.531-.034l-.188.656h-2.651v-4.59h2.531l.134.657h-1.954v1.266h1.618v.657h-1.618v1.354h2.128zm3.558-2.416c0 .414-.143.762-.429 1.043-.323.316-.763.475-1.323.475h-.309v1.515l-.711.08v-4.631h1.074c.555 0 .987.163 1.295.488.269.285.403.629.403 1.03zm-.711-.007a.801.801 0 00-.222-.574c-.179-.186-.434-.28-.765-.28h-.363v1.709l.235.013c.39 0 .681-.094.873-.28a.785.785 0 00.242-.588zm6.624 2.957l-.725.188-1.752-2.438h-.04v2.332l-.711.08v-2.412h-.041l-1.752 2.438-.725-.182 1.719-2.35-1.571-2.104.725-.14 1.604 2.197h.041v-2.084l.711-.08v2.164h.04l1.605-2.198.725.148-1.571 2.1 1.718 2.34zm3.726-.066l-.685.268-1.873-2.452h-.04v2.332l-.712.08v-4.637l.712-.08v2.184h.04l1.813-2.22.664.242-1.685 2.025 1.766 2.258zm4.129.148l-.712.08v-3.149l-3.067 3.323v-4.81l.711-.081v3.183l3.068-3.32v4.774zm-88.976 7.258l-.712.08v-3.974h-2.182v3.894l-.711.08v-4.63h3.605v4.55zm3.671-3.032c0 .414-.143.761-.43 1.043-.322.316-.762.474-1.322.474h-.309v1.516l-.711.08v-4.631h1.074c.555 0 .987.163 1.295.488.269.284.403.628.403 1.03zm-.711-.007a.803.803 0 00-.222-.574c-.179-.187-.434-.28-.765-.28h-.363v1.708l.235.014c.39 0 .68-.094.873-.28a.784.784 0 00.242-.588zm4.202 2.422l-.188.657h-2.651v-4.59h2.53l.135.656h-1.954v1.267h1.618v.657h-1.618v1.353h2.128zM48.08 26.6l-.684.08v-.938h-3.088v.858l-.685.08v-1.595h.41l1.819-4.13 1.825 4.13h.403V26.6zm-1.141-1.481l-1.1-2.587-1.102 2.587h2.202zm5.297.583l-.712.08v-3.974h-2.182v3.894l-.711.08v-4.63h3.605v4.55zm3.671-3.032c0 .414-.143.761-.43 1.043-.322.316-.763.474-1.322.474h-.309v1.516l-.711.08v-4.631h1.074c.555 0 .986.163 1.295.488.269.284.403.628.403 1.03zm-.711-.007a.802.802 0 00-.222-.574c-.179-.187-.434-.28-.765-.28h-.363v1.708l.235.014c.39 0 .68-.094.873-.28a.784.784 0 00.242-.588zm5.141 3.039l-.712.08v-3.15l-3.067 3.323v-4.81l.711-.08v3.183l3.068-3.32v4.774zm4.564 0l-.711.08v-2.05h-2.242v1.97l-.712.08v-4.637l.712-.08v2.01h2.242v-1.93l.711-.08v4.637zm4.679 0l-.712.08v-3.15l-3.067 3.323v-4.81l.711-.08v3.183l3.068-3.32v4.774zm5.632.04l-.685.114-.523-2.875-1.363 2.927-1.383-2.927-.503 2.875-.691-.114.933-4.774 1.657 3.5 1.618-3.5.94 4.774zm4.798-.042l-.712.148-.752-1.56h-1.832l-.759 1.56-.684-.148 2.376-4.745 2.362 4.745zm-1.746-2.029l-.63-1.306-.638 1.306h1.268zm4.358-1.863h-1.02v3.894l-.712.08v-3.974h-1.195l.208-.656h2.719v.656zm3.423 3.277l-.188.657h-2.65v-4.59h2.53l.134.656h-1.953v1.267h1.617v.657h-1.617v1.353h2.127zm4.551.657l-.718.107-1.47-3.317-1.423 3.317-.705-.107 2.155-4.787 2.161 4.787zm3.33-1.404c0 .388-.126.708-.376.963-.291.294-.707.441-1.249.441h-1.356v-4.597l.712-.08v1.862h.51c.595 0 1.047.146 1.356.435.268.25.403.575.403.976zm-.712-.007a.667.667 0 00-.252-.54c-.167-.138-.392-.207-.674-.207h-.631v1.501h.644c.309 0 .544-.078.705-.233a.705.705 0 00.208-.52zm4.557-2.288a1.988 1.988 0 00-.43-.235 1.619 1.619 0 00-.603-.12 1.62 1.62 0 00-1.229.517 1.75 1.75 0 00-.49 1.248c0 .457.162.862.487 1.212.324.352.73.527 1.218.527.157 0 .316-.024.477-.073.201-.063.389-.161.564-.295l-.108.83a2.285 2.285 0 01-.466.145c-.168.033-.342.05-.52.05a2.258 2.258 0 01-1.679-.698c-.456-.465-.684-1.038-.684-1.718 0-.666.229-1.234.688-1.7.458-.469 1.035-.702 1.728-.702.215 0 .41.022.584.067.09.022.206.065.35.127l.113.818zm3.095-.235h-1.02v3.894l-.712.08v-3.974H97.94l.209-.656h2.718v.656zm3.518 2.627c0 .389-.137.7-.41.932-.291.25-.689.375-1.195.375h-1.329v-4.59h1.114c.591 0 1.03.142 1.316.427.215.214.322.477.322.789 0 .209-.05.404-.151.584-.1.18-.251.322-.453.424.233.072.422.2.567.382.146.184.219.41.219.677zm-.88-1.987a.581.581 0 00-.208-.46c-.139-.12-.34-.18-.604-.18h-.53v1.287h.604c.224 0 .403-.063.537-.187a.605.605 0 00.201-.46zm.168 1.947a.646.646 0 00-.195-.476c-.147-.147-.353-.22-.617-.22h-.698v1.386h.631c.282 0 .503-.071.664-.214a.605.605 0 00.215-.476zm5.713 1.305l-.712.148-.752-1.56h-1.832l-.759 1.56-.684-.148 2.376-4.745 2.363 4.745zm-1.746-2.029l-.631-1.306-.637 1.306h1.268z" fill="#727272"/><path d="M4.307 11.373a.595.595 0 110 1.188v-1.188zm-3.23-2.037h1.19l.003.106.008.103.013.102.018.1.023.099.027.096.032.095.037.092.04.09.046.088.049.085.053.082.057.08.06.077.065.074.067.071.071.068.074.064.077.06.08.057.083.053.086.05.087.044.09.04.093.037.095.032.096.027.099.023.1.018.102.013.104.008.105.003v1.188l-.165-.004-.164-.012-.162-.02-.159-.03-.156-.035-.154-.044-.15-.05-.147-.059-.143-.064-.14-.071-.135-.078-.131-.084-.127-.09-.122-.095-.117-.102-.112-.106-.107-.112-.101-.117-.096-.122-.09-.126-.084-.131-.078-.135-.071-.14-.065-.142-.058-.147-.05-.15-.044-.153-.036-.156-.029-.16-.02-.16-.013-.164-.004-.166zm0 0a.595.595 0 011.19 0h-1.19zm3.23-3.224V7.3l-.105.003-.104.008-.102.013-.1.018-.099.022-.096.028-.095.032-.092.036-.09.04-.088.046-.086.049-.083.053-.08.057-.077.06-.074.064-.07.068-.068.07-.065.075-.06.077-.057.08-.053.082-.05.085-.044.088-.041.09-.037.092-.032.095-.027.096-.023.098-.018.1-.013.102-.008.104-.002.105h-1.19l.003-.165.013-.163.02-.162.029-.159.036-.156.043-.153.051-.15.058-.147.065-.143.071-.139.078-.135.084-.13.09-.127.096-.122.101-.117.107-.112.112-.106.117-.102.122-.095.127-.09.13-.084.136-.078.14-.07.143-.066.147-.057.15-.051.154-.044.156-.036.16-.028.16-.02.165-.013.165-.004zm0 0a.595.595 0 110 1.188V6.112zm3.23 3.224h-1.19l-.003-.105-.008-.104-.013-.101-.018-.1-.022-.099-.028-.096-.032-.095-.036-.092-.041-.09-.045-.088-.05-.085L6 8.198l-.057-.08-.06-.076-.065-.074-.068-.071-.07-.068-.075-.064-.077-.06-.08-.057-.083-.053-.085-.05-.088-.044-.09-.04-.093-.037-.094-.032-.097-.028-.098-.022-.1-.018-.102-.013-.104-.008-.106-.003V6.112l.166.004.164.012.161.02.16.03.156.035.153.044.15.05.148.058.143.065.14.071.135.078.13.084.127.09.122.095.117.102.112.106.107.112.101.117.096.122.09.126.084.13.078.136.071.14.065.142.058.147.05.15.045.153.036.156.028.16.02.16.013.164.004.165zm0 0a.595.595 0 01-1.19 0h1.19zm-1.19 19.167V9.336h1.19v19.166h-1.19zm1.19 0a.595.595 0 01-1.19 0h1.19zm14.13-15.942a.595.595 0 110-1.188v1.188zm2.04-3.225h1.19l-.004.166-.013.163-.02.162-.029.159-.036.156-.044.153-.05.15-.058.147-.065.143-.072.139-.077.135-.084.13-.09.127-.096.122-.102.117-.106.112-.112.106-.117.102-.123.095-.126.09-.131.084-.135.078-.14.07-.143.065-.147.058-.15.051-.154.044-.156.036-.16.028-.16.02-.165.013-.165.004v-1.188l.105-.003.104-.008.102-.013.1-.018.099-.022.096-.028.095-.032.092-.036.09-.04.088-.046.086-.049.083-.053.08-.057.077-.06.074-.064.07-.068.069-.07.064-.075.06-.077.057-.08.053-.082.05-.085.044-.088.041-.09.037-.092.032-.095.027-.096.023-.098.018-.1.013-.103.007-.103.003-.106zm0 0a.595.595 0 011.19 0h-1.19zM21.666 7.3V6.112l.165.004.164.012.162.02.159.03.156.035.154.044.15.05.147.058.143.065.14.071.135.078.131.084.127.09.121.095.118.102.112.106.107.112.1.117.097.122.09.126.084.131.078.135.071.14.065.142.058.147.05.15.044.153.036.156.029.16.02.16.013.164.004.165h-1.19l-.003-.105-.008-.103-.013-.102-.018-.1-.023-.099-.027-.096-.032-.095-.037-.092-.04-.09-.046-.088-.049-.085-.053-.082-.057-.08-.06-.077-.064-.074-.068-.071-.071-.068-.074-.064-.077-.06-.08-.057-.083-.053-.086-.05-.087-.044-.09-.04-.093-.037-.095-.032-.096-.028-.099-.022-.1-.018-.102-.013-.104-.008-.105-.003zm0 0a.595.595 0 110-1.188V7.3zm-2.04 2.036h-1.19l.004-.165.012-.163.02-.162.03-.159.035-.156.044-.153.05-.15.059-.147.064-.143.072-.139.078-.135.084-.13.09-.127.095-.122.102-.117.107-.112.112-.106.117-.102.122-.095.126-.09.131-.084.136-.078.14-.07.142-.066.147-.057.15-.051.154-.044.157-.036.159-.028.161-.02.164-.013.166-.004V7.3l-.106.003-.104.008-.102.013-.1.018-.098.022-.097.028-.095.032-.092.036-.09.04-.088.046-.085.049-.083.053-.08.057-.077.06-.075.064-.07.068-.068.07-.064.075-.06.077-.058.08-.053.082-.049.085-.045.088-.04.09-.037.092-.032.095-.028.096-.022.098-.018.1-.013.102-.008.104-.003.105zm0 0a.595.595 0 01-1.19 0h1.19zm-1.19 19.37V9.336h1.19v19.37h-1.19zm1.19 0a.595.595 0 01-1.19 0h1.19zM4.438 4.426a.595.595 0 110-1.189v1.189zm17.05 0H4.438V3.237h17.05v1.189zm0-1.189a.595.595 0 110 1.19v-1.19zM9.37 6.706a.595.595 0 011.19 0H9.37zm0 23.778V6.706h1.19v23.778H9.37zm1.19 0a.595.595 0 01-1.19 0h1.19zM.595 1.189a.595.595 0 110-1.19v1.19zm24.8 0H.596v-1.19h24.8v1.19zm0-1.19a.595.595 0 110 1.19V0zM12.392 6.706c0-.327.266-.592.595-.592.329 0 .595.265.595.592h-1.19zm0 25.702V6.706h1.19v25.702h-1.19zm1.19 0a.594.594 0 01-.595.592.594.594 0 01-.595-.592h1.19zm1.832-25.702a.595.595 0 011.19 0h-1.19zm0 23.917V6.706h1.19v23.917h-1.19zm1.19 0a.595.595 0 01-1.19 0h1.19z" fill="#0865A2"/></g><defs><clipPath id="clip0_2962_3552"><path fill="#fff" d="M0 0h125v33H0z"/></clipPath></defs></svg>