<svg width="1160" height="387" fill="none" xmlns="http://www.w3.org/2000/svg"><g opacity=".1" stroke="#fff" stroke-miterlimit="10"><path d="M-7-16.697h543.117c14.647 0 29.339 0 44.311.325C688.438-.007 791.705 25.795 905.247 10.314 972.341-.007 1029.16-20.65 1095.97-16.604c14.88-.093 27.81-.093 38.36-.093h32.87M-7 45.088h183.379c12.229.233 24.55.419 36.965.558 12.414.14 24.875.233 37.382.28 60.91.464 122.889.464 183.798-.838h145.625c14.693 0 29.339 0 44.078.047 146.834 16.736 291.389 11.576 435.013.279 21.99-.326 41.48-.326 57.52-.326h50.44M-7 106.874h71.325c17.993.186 35.941.279 53.795.279 157.295-9.112 307.012 1.209 461.982-.279h54.958c18.273 0 36.5 0 54.633.046 107.173 1.442 220.716 1.442 329.467.093 22.41-.139 42.92-.139 61.05-.139h86.99M-7 168.659s18.366 0 50.123.047c15.994-.372 31.942-.837 47.797-1.674 179.381-32.915 354.903-7.066 533.214 1.627h159.202c54.911 1.628 116.843 1.628 173.382 0H1167.3M-7 230.445s11.763 0 32.594.047c18.272-1.395 36.499-3.069 54.54-5.719 174.684-59.647 360.528-39.005 543.256 5.393 15.344.233 29.99.279 44.496.279H1167.2"/><path d="M-7 292.231s11.763 0 32.5.046c15.856 2.046 31.153 1.906 45.985-.372 59.422-13.25 105.871-54.533 167.85-70.014 134.233-30.963 247.822 41.283 377.36 59.833a815.769 815.769 0 0151.238 10.507h499.317"/><path d="M-7 354.063h32.78c10.787.511 21.806 1.208 32.686 1.487 72.441 10.879 103.407-66.527 165.386-87.169 51.61-20.642 108.428-10.321 160.038 5.16 77.462 25.803 149.717 56.765 233.13 67.597 17.576 3.766 34.267 7.904 50.773 12.274 14.647.604 29.107.604 43.428.651H1167.2"/><path d="M-7 415.848h32.873c10.554 0 23.48 0 38.312-.046 30.548-8.09 71.836 7.438 92.48-18.41 129.073-149.699 309.755-15.482 461.657 3.161a864.457 864.457 0 0149.471 14.551c14.6.651 29.06.651 43.428.698H1167.2"/><path d="M54.792 601.205V479.122c0-18.782 0-39.331-.046-61.321-.419-30.87-.744-61.228-.884-91.353a9674 9674 0 010-90.145c.14-30.079.419-60.298.837-90.982.093-14.365.14-28.824.14-43.329v-674.806m61.748 1174.019V478.982c-6.324-107.392-6.324-210.647-4.557-317.296a28281.57 28281.57 0 014.557-103.534v-631.013m61.837 1174.066v-18.828c0-12.227 0-30.033-.046-52.674-26.828-142.632-31.989-297.491-6.277-440.82 1.999-16.18 4.045-32.823 6.23-49.513.14-12.599.14-25.198.14-37.75v-574.481m61.748 1174.066c-2.651-16.55-5.254-33.008-7.719-49.419-29.338-159.555-55.144-324.735-4.37-482.383 3.673-15.482 7.579-31.614 11.949-47.885.093-13.482.093-26.918.093-40.354V-572.86"/><path d="M302.011 599.95c.558-14.366 0-28.452-1.535-42.306-14.692-108.602-92.154-206.65-76.671-325.386 10.322-77.453 82.623-129.057 78.159-212.553.047-12.832.047-25.71.047-38.494v-554.025"/><path d="M363.664 597.021c-.093-17.806-1.86-35.193-5.254-52.488-57.143-152.302-144.881-312.321-10.647-462.02 15.483-10.32 20.644-36.123 16.087-62.855v-38.494c-.046-282.103-.046-554.025-.046-554.025"/><path d="M425.363 595.58c-3.627-18.271-7.3-36.449-11.484-54.533C352.876 381.91 306.38 206.41 424.433 58.245c.93-14.69 1.162-29.382 1.162-44.073v-215.575c-.464-61.925-.464-123.897 0-188.053v-183.451"/><path d="M487.296 597.16a3431.79 3431.79 0 01-5.905-49.14c-2.651-16.318-5.161-32.682-8.277-49.001-63.42-148.071-32.454-297.77 13.81-440.82.511-19.247.511-38.54.511-57.788v-95.77a2707.642 2707.642 0 001.953-95.584c-2.232-98.234-2.232-191.168-1.953-286.705v-95.305M549.231 599.95c-.511-16.644-.976-33.287-1.302-49.884-.418-16.737-.744-33.427-1.116-50.256-33.895-128.221-13.251-262.438 2.046-397.864.372-14.552.372-29.15.372-43.794v-76.988a918.198 918.198 0 004.324-33.984 1035.89 1035.89 0 002.929-33.24c13.252-156.627-7.392-306.325-7.253-461.417v-25.384m61.791 1174.066V444.3c0-17.201-.139-34.356-.511-51.418-4.65-83.171.511-165.784.558-247.561V37.789c6.463-15.713 11.763-31.52 16.087-47.466 30.362-186.519-21.248-377.501-16.087-563.184m61.746 1174.066v-122.13c.139-55.881.139-112.646 0-169.317V99.203c.046-23.85 1.395-47.374 6.556-68.806 5.161-21.432 14.227-40.818 29.618-56.346 20.737-25.755 36.22-56.718 36.22-92.841-10.322-154.859-92.945-294.237-72.441-454.117"/><path d="M734.606 601.205v-455.93c-7.579-39.098 2.79-74.152 18.32-107.16 5.161-11.018 10.926-21.758 16.738-32.404 37.476-52.209 52.959-114.18 42.637-181.266-30.966-139.377-98.106-258.114-77.741-397.352"/><path d="M796.401 601.205V181.584c-10.043-69.457 21.063-127.058 47.472-186.798 6.603-14.923 12.879-29.986 18.087-45.421 12.321-32.032 17.482-68.201 12.321-99.164-41.288-144.538-98.106-273.595-77.88-423.108"/><path d="M858.24 601.205V181.584c-8.09-73.966 22.83-140.029 42.312-210.787 3.905-14.133 7.346-28.499 9.903-43.097 5.161-144.538-67.093-283.916-52.308-429.523.093-22.176.093-39.982.093-52.209v-18.829m61.795 1174.066v-421.76c10.694-94.933 21.202-188.843 23.806-283.172.418-18.829.558-37.704.232-56.672-2.604-97.769-23.248-190.703-24.085-290.424.047-18.736.047-35.752.047-50.768v-71.316m61.789 1174.112V181.584c0-13.436 0-26.965.047-40.586 7.811-109.578 10.182-215.808 7.021-322.503a3000.376 3000.376 0 00-1.721-45.747c-4.463-41.19-4.463-87.68-5.347-128.034v-217.528m61.796 1174.019V123.657c0-12.645 0-25.337.09-38.03.93-106.369 6.09-219.945 0-327.616-.09-11.809-.09-23.338-.09-34.635v-296.283m61.79 1174.112V14.172c1.21-55.51 1.21-117.481 0-173.78v-413.299"/></g></svg>