<svg width="636" height="314" fill="none" xmlns="http://www.w3.org/2000/svg"><g opacity=".25" stroke-miterlimit="10"><path d="M0-17.12h223.746a149.771 149.771 0 0119.179-.982c44.095 1.208 83.231 9.588 127.93 15.175 55.899 8.38 108.979-8.38 165.432-14.193h99.314" stroke="url(#paint0_radial_456_2370)"/><path d="M0 16.324h223.746c6.469-.503 12.861-.553 19.179-.251 6.342.302 12.609.93 18.75 1.585 64.456 1.762 120.355 38.1 181.841 40.894 33.524 0 58.693-27.934 89.776-39.308 5.637-1.988 11.401-3.398 17.416-3.977a63.275 63.275 0 0118.801 1.057h66.092" stroke="url(#paint1_radial_456_2370)"/><path d="M0 49.77h223.746a216.923 216.923 0 0126.905.502c8.809.705 17.467 1.787 25.873 2.844 41.251 2.642 77.569 19.403 113.912 36.163 58.693 25.14 108.979-8.38 158.183-34.98 7.475-2.768 15.177-4.807 23.205-5.688 8.029-.88 16.385-.629 25.194 1.158h38.608" stroke="url(#paint2_radial_456_2370)"/><path d="M0 83.214h223.746c7.626 0 15.328 0 23.105.025a918.346 918.346 0 0027.383 5.285c77.091 9.135 155.339 45.473 233.008 24.133 8.558-2.34 17.09-5.41 25.572-9.261 8.481-3.85 16.913-8.53 25.319-14.117 13.968-8.38 25.143-5.587 38.96-6.015 12.106-.05 21.771-.05 28.365-.05h10.193" stroke="url(#paint3_radial_456_2370)"/><path d="M0 116.659h270.283c7.877 0 15.805.025 24.136.503 59.674 19.629 121.135 25.216 181.992 21.29 10.068-.881 20.135-2.039 30.202-3.423 30.202-4.177 60.354-10.569 90.506-18.245 12.03-.125 21.695-.125 28.289-.125h10.193" stroke="url(#paint4_radial_456_2370)"/><path d="M0 150.129h293.991c7.928 0 15.881 0 23.986.176 58.466 8.858 114.365 22.825 175.826 14.445 36.317-5.587 67.073-16.761 103.24-14.571 8.054-.051 15.051-.05 20.764-.05h17.794" stroke="url(#paint5_radial_456_2370)"/><path d="M0 183.573h99.264a2656.964 2656.964 0 0040.244.453c32.971.252 66.52.252 99.49-.453h78.828c7.953 0 15.881 0 23.859.025 79.482 9.06 157.73 6.267 235.475.151 11.905-.176 22.45-.176 31.133-.176h27.308" stroke="url(#paint6_radial_456_2370)"/><path d="M0 217.018h38.608c9.74.101 19.455.151 29.12.151 85.144-4.932 166.186.654 250.072-.151h29.749c9.892 0 19.758 0 29.573.025 58.013.78 119.474.78 178.343.05 12.131-.075 23.23-.075 33.046-.075h47.09" stroke="url(#paint7_radial_456_2370)"/><path d="M0 250.463s9.941 0 27.131.025c8.658-.201 17.291-.453 25.873-.906 97.1-17.817 192.11-3.825 288.631.881h86.176c29.724.88 63.248.88 93.853 0h113.987" stroke="url(#paint8_radial_456_2370)"/><path d="M0 283.907s6.368 0 17.643.026c9.891-.755 19.757-1.661 29.522-3.096 94.558-32.287 195.156-21.113 294.067 2.919 8.306.126 16.234.151 24.086.151h270.283" stroke="url(#paint9_radial_456_2370)"/><path d="M0 317.352s6.368 0 17.593.025c8.582 1.108 16.862 1.032 24.891-.201 32.165-7.172 57.308-29.519 90.858-37.899 72.661-16.76 134.147 22.347 204.266 32.388a441.761 441.761 0 0127.735 5.687h270.283" stroke="url(#paint10_radial_456_2370)"/><path d="M0 350.822h17.744c5.839.277 11.804.654 17.693.805 39.212 5.889 55.974-36.011 89.524-47.185 27.937-11.173 58.692-5.586 86.629 2.794 41.931 13.966 81.042 30.727 126.194 36.59 9.514 2.039 18.549 4.278 27.484 6.644 7.928.327 15.755.327 23.507.352h246.826" stroke="url(#paint11_radial_456_2370)"/><path d="M0 484.601v-635.525" stroke="url(#paint12_radial_456_2370)"/><path d="M33.449 484.601v-66.084c0-10.167 0-21.29-.026-33.193-.226-16.71-.402-33.143-.478-49.45a5256.205 5256.205 0 010-48.796c.076-16.282.227-32.639.453-49.248.05-7.776.076-15.603.076-23.454v-365.275" stroke="url(#paint13_radial_456_2370)"/><path d="M66.897 484.601v-66.16c-3.423-58.132-3.423-114.024-2.466-171.753.78-18.497 1.61-37.396 2.466-56.043v-341.569" stroke="url(#paint14_radial_456_2370)"/><path d="M100.371 484.601v-10.192c0-6.618 0-16.257-.025-28.512-14.522-77.207-17.316-161.033-3.398-238.618 1.083-8.758 2.19-17.767 3.373-26.801.075-6.82.075-13.64.075-20.434v-310.968" stroke="url(#paint15_radial_456_2370)"/><path d="M133.82 484.601c-1.435-8.959-2.844-17.867-4.178-26.751-15.881-86.367-29.85-175.78-2.366-261.115 1.989-8.38 4.103-17.113 6.469-25.921.05-7.297.05-14.57.05-21.843v-299.895" stroke="url(#paint16_radial_456_2370)"/><path d="M167.269 483.922c.302-7.776 0-15.402-.831-22.901-7.953-58.786-49.883-111.86-41.502-176.132 5.587-41.926 44.724-69.859 42.308-115.056.025-6.946.025-13.916.025-20.837v-299.895" stroke="url(#paint17_radial_456_2370)"/><path d="M200.642 482.336a150.92 150.92 0 00-2.844-28.411c-30.932-82.442-78.425-169.061-5.764-250.094 8.381-5.586 11.175-19.553 8.708-34.023v-20.837c-.025-152.703-.025-299.896-.025-299.896" stroke="url(#paint18_radial_456_2370)"/><path d="M234.04 481.556c-1.963-9.89-3.951-19.73-6.216-29.519-33.021-86.141-58.19-181.14 5.713-261.342.503-7.952.629-15.904.629-23.857V50.147c-.252-33.52-.252-67.066 0-101.794v-99.303" stroke="url(#paint19_radial_456_2370)"/><path d="M267.564 482.412a1884.385 1884.385 0 01-3.196-26.6c-1.435-8.833-2.794-17.691-4.48-26.524-34.329-80.152-17.567-161.184 7.475-238.618.277-10.419.277-20.862.277-31.281v-51.84a1460.83 1460.83 0 001.057-51.74c-1.208-53.175-1.208-103.48-1.057-155.195v-51.589" stroke="url(#paint20_radial_456_2370)"/><path d="M301.089 483.922c-.277-9.01-.529-18.019-.705-27.003-.227-9.059-.403-18.094-.604-27.204-18.348-69.406-7.173-142.058 1.107-215.365.202-7.876.202-15.778.202-23.705v-41.674a496.395 496.395 0 002.34-18.396 561.92 561.92 0 001.586-17.993c7.173-84.782-4.002-165.815-3.926-249.766v-13.74" stroke="url(#paint21_radial_456_2370)"/><path d="M334.538 484.601v-84.933c0-9.311-.076-18.597-.277-27.833-2.517-45.021.277-89.739.302-134.005v-58.208a216.126 216.126 0 008.708-25.694c16.435-100.963-11.502-204.342-8.708-304.852" stroke="url(#paint22_radial_456_2370)"/><path d="M367.986 484.601v-66.109c.076-30.249.076-60.976 0-91.652V212.866c.025-12.91.755-25.644 3.549-37.245 2.794-11.601 7.701-22.095 16.032-30.5 11.225-13.942 19.606-30.702 19.606-50.256-5.587-83.825-50.311-159.271-39.212-245.815" stroke="url(#paint23_radial_456_2370)"/><path d="M401.435 484.601V237.805c-4.103-21.164 1.51-40.139 9.916-58.007 2.794-5.964 5.915-11.777 9.061-17.54 20.285-28.26 28.666-61.806 23.079-98.12-16.762-75.445-53.105-139.717-42.081-215.088" stroke="url(#paint24_radial_456_2370)"/><path d="M434.884 484.601V257.459c-5.437-37.597 11.401-68.777 25.696-101.115 3.574-8.078 6.972-16.231 9.791-24.586 6.67-17.339 9.463-36.918 6.67-53.678-22.35-78.239-53.106-148.098-42.157-229.03" stroke="url(#paint25_radial_456_2370)"/><path d="M468.358 484.601V257.459c-4.38-40.038 12.357-75.798 22.903-114.1 2.114-7.65 3.976-15.426 5.361-23.328 2.793-78.24-36.318-153.685-28.315-232.503.051-12.004.051-21.642.051-28.261v-10.191" stroke="url(#paint26_radial_456_2370)"/><path d="M501.806 484.601v-228.3c5.789-51.388 11.477-102.222 12.886-153.282.227-10.192.302-20.41.126-30.677-1.409-52.922-12.584-103.228-13.037-157.207.025-10.142.025-19.353.025-27.481v-38.604" stroke="url(#paint27_radial_456_2370)"/><path d="M535.255 484.601V257.459c0-7.273 0-14.596.025-21.97 4.228-59.314 5.512-116.817 3.8-174.572-.251-8.254-.553-16.508-.931-24.762-2.416-22.297-2.416-47.462-2.894-69.306v-117.748" stroke="url(#paint28_radial_456_2370)"/></g><defs><radialGradient id="paint0_radial_456_2370" cx="0" cy="0" r="1" gradientUnits="userSpaceOnUse" gradientTransform="matrix(0 8.74406 -317.8 0 317.8 -9.369)"><stop offset=".104" stop-color="#fff"/><stop offset="1" stop-color="#fff" stop-opacity="0"/></radialGradient><radialGradient id="paint1_radial_456_2370" cx="0" cy="0" r="1" gradientUnits="userSpaceOnUse" gradientTransform="matrix(0 21.7793 -317.8 0 317.8 36.773)"><stop offset=".104" stop-color="#fff"/><stop offset="1" stop-color="#fff" stop-opacity="0"/></radialGradient><radialGradient id="paint2_radial_456_2370" cx="0" cy="0" r="1" gradientUnits="userSpaceOnUse" gradientTransform="matrix(0 25.0203 -317.813 0 317.813 73.14)"><stop offset=".104" stop-color="#fff"/><stop offset="1" stop-color="#fff" stop-opacity="0"/></radialGradient><radialGradient id="paint3_radial_456_2370" cx="0" cy="0" r="1" gradientUnits="userSpaceOnUse" gradientTransform="matrix(0 18.0628 -317.826 0 317.826 101.208)"><stop offset=".104" stop-color="#fff"/><stop offset="1" stop-color="#fff" stop-opacity="0"/></radialGradient><radialGradient id="paint4_radial_456_2370" cx="0" cy="0" r="1" gradientUnits="userSpaceOnUse" gradientTransform="matrix(0 11.4856 -317.8 0 317.8 128.144)"><stop offset=".104" stop-color="#fff"/><stop offset="1" stop-color="#fff" stop-opacity="0"/></radialGradient><radialGradient id="paint5_radial_456_2370" cx="0" cy="0" r="1" gradientUnits="userSpaceOnUse" gradientTransform="scale(317.8 8.71517) rotate(90 -8.6 9.6)"><stop offset=".104" stop-color="#fff"/><stop offset="1" stop-color="#fff" stop-opacity="0"/></radialGradient><radialGradient id="paint6_radial_456_2370" cx="0" cy="0" r="1" gradientUnits="userSpaceOnUse" gradientTransform="matrix(0 2.91683 -317.8 0 317.8 186.49)"><stop offset=".104" stop-color="#fff"/><stop offset="1" stop-color="#fff" stop-opacity="0"/></radialGradient><radialGradient id="paint7_radial_456_2370" cx="0" cy="0" r="1" gradientUnits="userSpaceOnUse" gradientTransform="matrix(0 1.26209 -317.8 0 317.8 216.373)"><stop offset=".104" stop-color="#fff"/><stop offset="1" stop-color="#fff" stop-opacity="0"/></radialGradient><radialGradient id="paint8_radial_456_2370" cx="0" cy="0" r="1" gradientUnits="userSpaceOnUse" gradientTransform="matrix(0 5.16819 -317.826 0 317.826 245.955)"><stop offset=".104" stop-color="#fff"/><stop offset="1" stop-color="#fff" stop-opacity="0"/></radialGradient><radialGradient id="paint9_radial_456_2370" cx="0" cy="0" r="1" gradientUnits="userSpaceOnUse" gradientTransform="matrix(0 11.5396 -317.8 0 317.8 272.393)"><stop offset=".104" stop-color="#fff"/><stop offset="1" stop-color="#fff" stop-opacity="0"/></radialGradient><radialGradient id="paint10_radial_456_2370" cx="0" cy="0" r="1" gradientUnits="userSpaceOnUse" gradientTransform="matrix(0 21.5013 -317.813 0 317.813 296.656)"><stop offset=".104" stop-color="#fff"/><stop offset="1" stop-color="#fff" stop-opacity="0"/></radialGradient><radialGradient id="paint11_radial_456_2370" cx="0" cy="0" r="1" gradientUnits="userSpaceOnUse" gradientTransform="matrix(0 27.0031 -317.8 0 317.8 325.188)"><stop offset=".104" stop-color="#fff"/><stop offset="1" stop-color="#fff" stop-opacity="0"/></radialGradient><radialGradient id="paint12_radial_456_2370" cx="0" cy="0" r="1" gradientUnits="userSpaceOnUse" gradientTransform="matrix(0 317.763 -.5 0 .5 166.838)"><stop offset=".104" stop-color="#fff"/><stop offset="1" stop-color="#fff" stop-opacity="0"/></radialGradient><radialGradient id="paint13_radial_456_2370" cx="0" cy="0" r="1" gradientUnits="userSpaceOnUse" gradientTransform="matrix(0 317.75 -.29258 0 33.181 166.851)"><stop offset=".104" stop-color="#fff"/><stop offset="1" stop-color="#fff" stop-opacity="0"/></radialGradient><radialGradient id="paint14_radial_456_2370" cx="0" cy="0" r="1" gradientUnits="userSpaceOnUse" gradientTransform="matrix(0 317.763 -1.50679 0 65.39 166.838)"><stop offset=".104" stop-color="#fff"/><stop offset="1" stop-color="#fff" stop-opacity="0"/></radialGradient><radialGradient id="paint15_radial_456_2370" cx="0" cy="0" r="1" gradientUnits="userSpaceOnUse" gradientTransform="matrix(0 317.763 -6.26992 0 94.126 166.838)"><stop offset=".104" stop-color="#fff"/><stop offset="1" stop-color="#fff" stop-opacity="0"/></radialGradient><radialGradient id="paint16_radial_456_2370" cx="0" cy="0" r="1" gradientUnits="userSpaceOnUse" gradientTransform="matrix(0 317.763 -11.0851 0 122.735 166.838)"><stop offset=".104" stop-color="#fff"/><stop offset="1" stop-color="#fff" stop-opacity="0"/></radialGradient><radialGradient id="paint17_radial_456_2370" cx="0" cy="0" r="1" gradientUnits="userSpaceOnUse" gradientTransform="matrix(0 317.41 -21.7747 0 145.609 166.511)"><stop offset=".104" stop-color="#fff"/><stop offset="1" stop-color="#fff" stop-opacity="0"/></radialGradient><radialGradient id="paint18_radial_456_2370" cx="0" cy="0" r="1" gradientUnits="userSpaceOnUse" gradientTransform="scale(23.9346 316.63) rotate(90 3.45 3.973)"><stop offset=".104" stop-color="#fff"/><stop offset="1" stop-color="#fff" stop-opacity="0"/></radialGradient><radialGradient id="paint19_radial_456_2370" cx="0" cy="0" r="1" gradientUnits="userSpaceOnUse" gradientTransform="matrix(0 316.253 -20.0942 0 214.072 165.303)"><stop offset=".104" stop-color="#fff"/><stop offset="1" stop-color="#fff" stop-opacity="0"/></radialGradient><radialGradient id="paint20_radial_456_2370" cx="0" cy="0" r="1" gradientUnits="userSpaceOnUse" gradientTransform="matrix(0 316.693 -14.1112 0 254.594 165.314)"><stop offset=".104" stop-color="#fff"/><stop offset="1" stop-color="#fff" stop-opacity="0"/></radialGradient><radialGradient id="paint21_radial_456_2370" cx="0" cy="0" r="1" gradientUnits="userSpaceOnUse" gradientTransform="matrix(0 317.423 -8.78002 0 298.638 166.499)"><stop offset=".104" stop-color="#fff"/><stop offset="1" stop-color="#fff" stop-opacity="0"/></radialGradient><radialGradient id="paint22_radial_456_2370" cx="0" cy="0" r="1" gradientUnits="userSpaceOnUse" gradientTransform="matrix(0 317.763 -7.63632 0 340.847 166.838)"><stop offset=".104" stop-color="#fff"/><stop offset="1" stop-color="#fff" stop-opacity="0"/></radialGradient><radialGradient id="paint23_radial_456_2370" cx="0" cy="0" r="1" gradientUnits="userSpaceOnUse" gradientTransform="scale(20.4875 317.775) rotate(90 9.175 9.7)"><stop offset=".104" stop-color="#fff"/><stop offset="1" stop-color="#fff" stop-opacity="0"/></radialGradient><radialGradient id="paint24_radial_456_2370" cx="0" cy="0" r="1" gradientUnits="userSpaceOnUse" gradientTransform="matrix(0 317.775 -22.9099 0 422.274 166.826)"><stop offset=".104" stop-color="#fff"/><stop offset="1" stop-color="#fff" stop-opacity="0"/></radialGradient><radialGradient id="paint25_radial_456_2370" cx="0" cy="0" r="1" gradientUnits="userSpaceOnUse" gradientTransform="matrix(0 317.775 -22.759 0 455.358 166.826)"><stop offset=".104" stop-color="#fff"/><stop offset="1" stop-color="#fff" stop-opacity="0"/></radialGradient><radialGradient id="paint26_radial_456_2370" cx="0" cy="0" r="1" gradientUnits="userSpaceOnUse" gradientTransform="matrix(0 317.763 -14.7698 0 481.995 166.838)"><stop offset=".104" stop-color="#fff"/><stop offset="1" stop-color="#fff" stop-opacity="0"/></radialGradient><radialGradient id="paint27_radial_456_2370" cx="0" cy="0" r="1" gradientUnits="userSpaceOnUse" gradientTransform="matrix(0 317.775 -6.56728 0 508.348 166.826)"><stop offset=".104" stop-color="#fff"/><stop offset="1" stop-color="#fff" stop-opacity="0"/></radialGradient><radialGradient id="paint28_radial_456_2370" cx="0" cy="0" r="1" gradientUnits="userSpaceOnUse" gradientTransform="matrix(0 317.75 -2.28012 0 537.535 166.851)"><stop offset=".104" stop-color="#fff"/><stop offset="1" stop-color="#fff" stop-opacity="0"/></radialGradient></defs></svg>