<svg width="146" height="41" fill="none" xmlns="http://www.w3.org/2000/svg"><path fill-rule="evenodd" clip-rule="evenodd" d="M40.966 40.99V.003H-.044v40.988h41.01z" fill="url(#paint0_linear_961_3503)"/><path fill-rule="evenodd" clip-rule="evenodd" d="M40.966 40.99V.003H-.044v40.988h41.01zm29.872-30.81c0-.766 0-1.473 1.65-1.473 1.649 0 1.649.707 1.649 1.472 0 .766 0 1.472-1.65 1.472-1.649 0-1.649-.706-1.649-1.472zm6.833 1.377a5.2 5.2 0 01-.393-.016.176.176 0 00-.138.048.177.177 0 00-.058.134v1.283c0 .087.058.16.143.178.238.052.525.068.787.068 1.626 0 2.132-.8 2.215-2.284l.108-1.865a.182.182 0 01.181-.172h1.99c.1 0 .183.082.183.182v3.828c0 .1.082.182.182.182h1.52c.1 0 .182-.082.182-.182V7.418c0-.1-.081-.182-.182-.182h-5.607a.182.182 0 00-.181.171l-.202 3.35c-.024.517-.165.8-.73.8zm10.26-1.378c0-.765 0-1.472 1.649-1.472 1.65 0 1.65.707 1.65 1.472 0 .766 0 1.472-1.65 1.472s-1.65-.706-1.65-1.472zm-1.885.236c0 1.625.73 2.943 3.369 2.943h.33c2.638 0 3.369-1.318 3.369-2.943v-.471c0-1.625-.73-2.943-3.37-2.943h-.33c-2.638 0-3.368 1.318-3.368 2.943v.47zm13.323-1.302v2.18c0 .1-.082.181-.182.181H96.93a.177.177 0 01-.145-.07.177.177 0 01-.031-.159c.085-.321.134-.703.165-1.136l.07-1.008a.182.182 0 01.182-.17h2.016c.1 0 .182.082.182.182zm-5.43 2.543v3.404c0 .1.081.182.182.182h.238a.175.175 0 00.094-.026l1.046-.627a.178.178 0 00.089-.157v-1.127c0-.1.081-.182.182-.182h4.583c.1 0 .182.081.182.182v1.755c0 .1.082.182.182.182h.239a.172.172 0 00.093-.026l1.047-.627a.178.178 0 00.088-.157v-2.776c0-.1-.082-.182-.182-.182h-.566a.182.182 0 01-.182-.182V7.418c0-.1-.082-.182-.183-.182h-5.608a.182.182 0 00-.182.169l-.2 2.798c-.055.577-.119 1.003-.352 1.222a.176.176 0 01-.125.05h-.483c-.1 0-.183.081-.183.181zm12.78-3.184c1.273 0 1.343.33 1.343.554 0 .211-.082.447-1.46.447a6.877 6.877 0 01-1.455-.131.177.177 0 01-.124-.096.176.176 0 01-.004-.156c.178-.4.625-.618 1.7-.618zm-.117 4.886c.843 0 1.927-.094 2.729-.262a.181.181 0 00.145-.178v-1.383a.176.176 0 00-.07-.143.177.177 0 00-.156-.034c-.795.195-1.843.293-2.519.293-1.338 0-1.705-.31-1.806-.817a.177.177 0 01.052-.166.176.176 0 01.167-.047c.465.105.978.147 1.575.147 2.945 0 3.228-.824 3.228-1.766v-.118c0-1.036-.554-1.883-3.24-1.883h-.329c-2.639 0-3.369 1.318-3.369 2.943v.47c0 1.626.73 2.944 3.369 2.944h.224zm6.238-.32l1.212-1.903a.176.176 0 01.153-.085h.778c.1 0 .182.082.182.183v1.708c0 .1.082.182.183.182h1.52c.1 0 .182-.082.182-.182v-1.708c0-.1.082-.183.182-.183h.778c.064 0 .12.03.154.085l1.212 1.903a.176.176 0 00.154.085h1.532c.1 0 .182-.082.182-.182v-.236a.17.17 0 00-.029-.098l-1.476-2.33a.177.177 0 010-.195l1.476-2.33a.17.17 0 00.029-.098v-.236c0-.1-.082-.182-.182-.182h-1.532c-.065 0-.12.03-.154.084l-1.212 1.904a.178.178 0 01-.154.084h-.778a.183.183 0 01-.182-.182V7.429c0-.1-.081-.182-.181-.182l-1.52-.01a.177.177 0 00-.13.053.175.175 0 00-.054.13v1.706c0 .1-.082.182-.182.182h-.778a.176.176 0 01-.153-.084L112.84 7.32a.18.18 0 00-.154-.084h-1.532c-.1 0-.182.082-.182.182v.236c0 .036.009.067.028.097l1.477 2.33a.18.18 0 010 .196L111 12.607a.177.177 0 00-.028.098v.236c0 .1.082.182.182.182h1.532c.064 0 .119-.03.154-.085zm9.464-5.62v5.523c0 .1.082.182.182.182h1.52a.183.183 0 00.183-.182v-1.755c0-.1.082-.183.182-.183h2.957c.101 0 .183.082.183.183v1.755c0 .1.081.182.182.182h1.52c.1 0 .182-.082.182-.182V7.418c0-.1-.082-.182-.182-.182h-1.52a.182.182 0 00-.182.182v1.755c0 .1-.082.182-.183.182h-2.957a.183.183 0 01-.182-.182V7.418c0-.1-.082-.182-.183-.182h-1.52c-.1 0-.182.082-.182.182zm12.039 4.468c-1.496 0-1.59-.211-1.59-.494 0-.236.07-.518 1.472-.518.667 0 1.216.059 1.709.176a.18.18 0 01.14.178v.275a.18.18 0 01-.132.176 5.831 5.831 0 01-1.599.207zm3.616-2.295c0-1.684-.942-2.59-3.569-2.59-.843 0-1.927.093-2.73.262a.18.18 0 00-.144.178v1.383c0 .058.024.107.069.143a.18.18 0 00.156.034c.793-.196 1.828-.294 2.59-.294 1.313 0 1.635.252 1.717.706a.174.174 0 01-.053.164.177.177 0 01-.166.046c-.492-.11-1.047-.162-1.722-.162-2.45 0-3.239.813-3.239 1.801v.118c0 1.048.73 1.978 3.275 1.978 1.044 0 1.858-.175 2.622-.556a.179.179 0 01.173.005l.508.292a.175.175 0 00.091.024h.24c.1 0 .182-.082.182-.182V9.59zm4.559.141c-1.166 0-1.225-.283-1.225-.589s.059-.589 1.225-.589c.452 0 1.052.02 1.647.069a.182.182 0 01.167.18v.68a.182.182 0 01-.167.18c-.595.05-1.195.069-1.647.069zm-81.758 7.38v5.64c0 .1-.081.182-.182.182H58.41a.183.183 0 01-.182-.182v-5.64c0-.1-.082-.183-.183-.183H56.29c-.1 0-.183.082-.183.183v7.524c0 .1.082.182.183.182h11.062c.1 0 .182-.082.182-.182v-7.524c0-.1-.082-.183-.183-.183h-1.755c-.1 0-.183.082-.183.183v5.64c0 .1-.081.182-.182.182h-2.168a.183.183 0 01-.182-.182v-5.64c0-.1-.082-.183-.182-.183h-1.756c-.1 0-.183.082-.183.183zm15.208 7.524V24.4a.175.175 0 00-.028-.098l-1.477-2.33a.178.178 0 010-.195l1.477-2.33a.175.175 0 00.028-.098v-.236c0-.1-.082-.182-.182-.182h-1.532c-.064 0-.12.03-.154.084l-1.212 1.904a.178.178 0 01-.154.084h-1.602a.182.182 0 01-.182-.182v-1.697c0-.1-.081-.182-.181-.182l-1.52-.01a.176.176 0 00-.13.053.176.176 0 00-.054.13v5.52c0 .1.082.183.182.183h1.52c.1 0 .183-.082.183-.183v-1.707c0-.1.082-.183.182-.183h1.602c.065 0 .12.03.154.085l1.212 1.903a.18.18 0 00.154.085h1.532c.1 0 .182-.082.182-.183zm2.827-2.762c0-.765 0-1.471 1.65-1.471 1.648 0 1.648.706 1.648 1.471 0 .766 0 1.472-1.649 1.472s-1.649-.706-1.649-1.472zm-1.885.236c0 1.625.73 2.943 3.37 2.943h.33c2.638 0 3.368-1.318 3.368-2.943v-.471c0-1.625-.73-2.944-3.369-2.944h-.33c-2.638 0-3.369 1.319-3.369 2.944v.47zm8.717 1.142a5.48 5.48 0 01-.393-.016.176.176 0 00-.137.048.176.176 0 00-.059.134V24.7c0 .087.059.16.144.178.237.052.524.068.787.068 1.626 0 2.132-.8 2.214-2.284l.108-1.865a.182.182 0 01.182-.172h1.99c.1 0 .183.082.183.182v3.828c0 .1.081.182.182.182h1.52c.1 0 .182-.082.182-.183v-5.522c0-.1-.082-.182-.182-.182h-5.607a.182.182 0 00-.182.171l-.201 3.35c-.024.517-.165.8-.73.8zm11.85.33c-1.495 0-1.59-.212-1.59-.495 0-.235.071-.518 1.473-.518.667 0 1.216.059 1.71.177a.18.18 0 01.14.177v.275a.18.18 0 01-.133.176 5.827 5.827 0 01-1.6.207zm3.617-2.296c0-1.684-.942-2.59-3.57-2.59-.843 0-1.926.093-2.729.262a.18.18 0 00-.145.178v1.383c0 .058.025.107.07.143a.18.18 0 00.156.034c.793-.196 1.828-.294 2.59-.294 1.313 0 1.635.252 1.717.706a.177.177 0 01-.053.164.177.177 0 01-.166.046c-.493-.11-1.047-.162-1.722-.162-2.45 0-3.24.812-3.24 1.802v.117c0 1.048.731 1.978 3.276 1.978 1.044 0 1.858-.175 2.622-.556a.176.176 0 01.172.005l.509.292a.175.175 0 00.09.024h.241c.1 0 .182-.082.182-.183v-3.35zM60.919 32.568c0-1.189 0-2.284 2.238-2.284s2.238 1.095 2.238 2.285c0 1.2 0 2.295-2.238 2.295s-2.238-1.094-2.238-2.295zm-4.812-3.761v7.524c0 .1.082.182.182.182h1.756c.1 0 .183-.082.183-.182v-2.58c0-.1.082-.182.182-.182h.262a.18.18 0 01.18.158c.233 1.724 1.292 3.021 4.093 3.021h.424c3.24 0 4.146-1.742 4.146-3.873v-.612c0-2.132-.907-3.874-4.146-3.874h-.424c-2.86 0-3.898 1.354-4.106 3.136a.181.181 0 01-.181.16h-.248a.183.183 0 01-.182-.182v-2.696c0-.1-.082-.183-.183-.183H56.29c-.1 0-.182.082-.182.183zm16.512 3.29c1.59 0 1.59.707 1.59 1.472s0 1.472-1.59 1.472c-.593 0-1.118-.07-1.6-.207a.18.18 0 01-.132-.175v-2.167a.18.18 0 01.132-.175 5.676 5.676 0 011.6-.22zm10.088-1.412l-2.939 3.22a.18.18 0 01-.2.047.18.18 0 01-.117-.17v-2.974c0-.1-.082-.182-.182-.182h-1.52c-.1 0-.182.082-.182.182v5.523c0 .1.081.182.182.182h1.622c.053 0 .099-.02.134-.06l2.94-3.22a.18.18 0 01.2-.046.18.18 0 01.116.17v2.974c0 .1.082.182.183.182h1.52c.1 0 .182-.082.182-.182v-5.523c0-.1-.082-.182-.182-.182h-1.622a.176.176 0 00-.135.06zm3.412 3.12c0 1.624.73 2.943 3.368 2.943h.33c.797 0 1.562-.093 2.286-.26a.18.18 0 00.14-.178v-1.373a.177.177 0 00-.07-.144.177.177 0 00-.156-.033 9.798 9.798 0 01-2.247.281c-1.767 0-1.767-.624-1.767-1.472 0-.847 0-1.471 1.767-1.471.592 0 1.44.078 2.247.28a.177.177 0 00.157-.032.177.177 0 00.07-.144v-1.373a.18.18 0 00-.141-.178c-.724-.167-1.49-.26-2.286-.26h-.33c-2.638 0-3.368 1.318-3.368 2.943v.47zm11.438 2.526v-3.816c0-.1.081-.182.182-.182h1.885c.1 0 .183-.082.183-.182v-1.343c0-.1-.082-.182-.183-.182h-6.008c-.1 0-.182.082-.182.182v1.343c0 .1.082.182.182.182h1.874c.1 0 .182.082.182.182v3.816c0 .1.082.182.182.182h1.52c.1 0 .183-.082.183-.182zM62.935 11.443l2.155-2.634a.18.18 0 01.202-.057.18.18 0 01.121.172v4.017c0 .1.082.182.183.182h1.755c.1 0 .183-.082.183-.182V5.416c0-.1-.082-.182-.183-.182h-1.847a.177.177 0 00-.145.072L62.88 8.561v-.015l-.916 1.18a.177.177 0 01-.145.072.177.177 0 01-.144-.071l-.916-1.181v.015l-2.478-3.255a.177.177 0 00-.145-.072H56.29c-.1 0-.182.082-.182.183v7.524c0 .1.082.182.182.182h1.756c.1 0 .183-.082.183-.182V8.924a.18.18 0 01.12-.172.18.18 0 01.203.057l2.155 2.634a.177.177 0 00.14.067h1.948a.176.176 0 00.141-.067zm83.093 1.498V7.399a.182.182 0 00-.163-.18 32.945 32.945 0 00-3.288-.171h-.259c-2.262 0-2.886.835-2.886 1.907v.377c0 .628.209 1.177.849 1.527a.175.175 0 01.089.114.176.176 0 01-.022.143l-.947 1.491a.178.178 0 00-.028.098v.236c0 .1.082.182.182.182h1.532c.064 0 .119-.03.154-.084l1.094-1.716a.176.176 0 01.153-.084h.089c.504 0 1.036-.01 1.563-.036a.174.174 0 01.135.05c.038.035.057.08.057.131v1.557c0 .1.082.182.182.182h1.332c.1 0 .182-.082.182-.182zM69.185 39.456h1.52c.1 0 .182-.082.182-.182v-2.552c0-.059.025-.11.072-.145a.177.177 0 01.159-.03c.48.132 1.009.201 1.607.201 2.639 0 3.369-1.319 3.369-2.943v-.471c0-1.625-.73-2.944-3.37-2.944-.984 0-1.795.185-2.525.565a.178.178 0 01-.177-.004l-.505-.3a.175.175 0 00-.093-.025h-.24c-.1 0-.181.082-.181.182v8.466c0 .1.081.182.182.182zm-.231-29.041c0 1.625.73 2.943 3.369 2.943h.33c2.638 0 3.368-1.318 3.368-2.943v-.471c0-1.625-.73-2.944-3.369-2.944h-.33c-2.638 0-3.368 1.319-3.368 2.944v.47zm35.499 24.854c-1.496 0-1.59-.212-1.59-.494 0-.236.07-.518 1.472-.518.667 0 1.216.058 1.71.176a.18.18 0 01.139.177v.276a.18.18 0 01-.132.175 5.831 5.831 0 01-1.599.208zm3.616-2.296c0-1.683-.942-2.59-3.569-2.59-.843 0-1.927.094-2.729.262a.18.18 0 00-.145.179v1.382c0 .058.024.108.07.144a.175.175 0 00.155.033c.793-.195 1.828-.293 2.59-.293 1.313 0 1.635.252 1.717.706a.174.174 0 01-.053.164.176.176 0 01-.166.046c-.492-.11-1.047-.162-1.722-.162-2.45 0-3.239.812-3.239 1.801v.118c0 1.047.73 1.978 3.275 1.978 1.044 0 1.858-.175 2.622-.556a.18.18 0 01.173.004l.508.292a.176.176 0 00.091.024h.24c.1 0 .182-.082.182-.182v-3.35z" fill="url(#paint1_linear_961_3503)"/><path fill-rule="evenodd" clip-rule="evenodd" d="M40.966 40.99V.003H-.044v40.988h41.01zm29.872-30.81c0-.766 0-1.473 1.65-1.473 1.649 0 1.649.707 1.649 1.472 0 .766 0 1.472-1.65 1.472-1.649 0-1.649-.706-1.649-1.472zm6.833 1.377a5.2 5.2 0 01-.393-.016.176.176 0 00-.138.048.177.177 0 00-.058.134v1.283c0 .087.058.16.143.178.238.052.525.068.787.068 1.626 0 2.132-.8 2.215-2.284l.108-1.865a.182.182 0 01.181-.172h1.99c.1 0 .183.082.183.182v3.828c0 .1.082.182.182.182h1.52c.1 0 .182-.082.182-.182V7.418c0-.1-.081-.182-.182-.182h-5.607a.182.182 0 00-.181.171l-.202 3.35c-.024.517-.165.8-.73.8zm10.26-1.378c0-.765 0-1.472 1.649-1.472 1.65 0 1.65.707 1.65 1.472 0 .766 0 1.472-1.65 1.472s-1.65-.706-1.65-1.472zm-1.885.236c0 1.625.73 2.943 3.369 2.943h.33c2.638 0 3.369-1.318 3.369-2.943v-.471c0-1.625-.73-2.943-3.37-2.943h-.33c-2.638 0-3.368 1.318-3.368 2.943v.47zm13.323-1.302v2.18c0 .1-.082.181-.182.181H96.93a.177.177 0 01-.145-.07.177.177 0 01-.031-.159c.085-.321.134-.703.165-1.136l.07-1.008a.182.182 0 01.182-.17h2.016c.1 0 .182.082.182.182zm-5.43 2.543v3.404c0 .1.081.182.182.182h.238a.175.175 0 00.094-.026l1.046-.627a.178.178 0 00.089-.157v-1.127c0-.1.081-.182.182-.182h4.583c.1 0 .182.081.182.182v1.755c0 .1.082.182.182.182h.239a.172.172 0 00.093-.026l1.047-.627a.178.178 0 00.088-.157v-2.776c0-.1-.082-.182-.182-.182h-.566a.182.182 0 01-.182-.182V7.418c0-.1-.082-.182-.183-.182h-5.608a.182.182 0 00-.182.169l-.2 2.798c-.055.577-.119 1.003-.352 1.222a.176.176 0 01-.125.05h-.483c-.1 0-.183.081-.183.181zm12.78-3.184c1.273 0 1.343.33 1.343.554 0 .211-.082.447-1.46.447a6.877 6.877 0 01-1.455-.131.177.177 0 01-.124-.096.176.176 0 01-.004-.156c.178-.4.625-.618 1.7-.618zm-.117 4.886c.843 0 1.927-.094 2.729-.262a.181.181 0 00.145-.178v-1.383a.176.176 0 00-.07-.143.177.177 0 00-.156-.034c-.795.195-1.843.293-2.519.293-1.338 0-1.705-.31-1.806-.817a.177.177 0 01.052-.166.176.176 0 01.167-.047c.465.105.978.147 1.575.147 2.945 0 3.228-.824 3.228-1.766v-.118c0-1.036-.554-1.883-3.24-1.883h-.329c-2.639 0-3.369 1.318-3.369 2.943v.47c0 1.626.73 2.944 3.369 2.944h.224zm6.238-.32l1.212-1.903a.176.176 0 01.153-.085h.778c.1 0 .182.082.182.183v1.708c0 .1.082.182.183.182h1.52c.1 0 .182-.082.182-.182v-1.708c0-.1.082-.183.182-.183h.778c.064 0 .12.03.154.085l1.212 1.903a.176.176 0 00.154.085h1.532c.1 0 .182-.082.182-.182v-.236a.17.17 0 00-.029-.098l-1.476-2.33a.177.177 0 010-.195l1.476-2.33a.17.17 0 00.029-.098v-.236c0-.1-.082-.182-.182-.182h-1.532c-.065 0-.12.03-.154.084l-1.212 1.904a.178.178 0 01-.154.084h-.778a.183.183 0 01-.182-.182V7.429c0-.1-.081-.182-.181-.182l-1.52-.01a.177.177 0 00-.13.053.175.175 0 00-.054.13v1.706c0 .1-.082.182-.182.182h-.778a.176.176 0 01-.153-.084L112.84 7.32a.18.18 0 00-.154-.084h-1.532c-.1 0-.182.082-.182.182v.236c0 .036.009.067.028.097l1.477 2.33a.18.18 0 010 .196L111 12.607a.177.177 0 00-.028.098v.236c0 .1.082.182.182.182h1.532c.064 0 .119-.03.154-.085zm9.464-5.62v5.523c0 .1.082.182.182.182h1.52a.183.183 0 00.183-.182v-1.755c0-.1.082-.183.182-.183h2.957c.101 0 .183.082.183.183v1.755c0 .1.081.182.182.182h1.52c.1 0 .182-.082.182-.182V7.418c0-.1-.082-.182-.182-.182h-1.52a.182.182 0 00-.182.182v1.755c0 .1-.082.182-.183.182h-2.957a.183.183 0 01-.182-.182V7.418c0-.1-.082-.182-.183-.182h-1.52c-.1 0-.182.082-.182.182zm12.039 4.468c-1.496 0-1.59-.211-1.59-.494 0-.236.07-.518 1.472-.518.667 0 1.216.059 1.709.176a.18.18 0 01.14.178v.275a.18.18 0 01-.132.176 5.831 5.831 0 01-1.599.207zm3.616-2.295c0-1.684-.942-2.59-3.569-2.59-.843 0-1.927.093-2.73.262a.18.18 0 00-.144.178v1.383c0 .058.024.107.069.143a.18.18 0 00.156.034c.793-.196 1.828-.294 2.59-.294 1.313 0 1.635.252 1.717.706a.174.174 0 01-.053.164.177.177 0 01-.166.046c-.492-.11-1.047-.162-1.722-.162-2.45 0-3.239.813-3.239 1.801v.118c0 1.048.73 1.978 3.275 1.978 1.044 0 1.858-.175 2.622-.556a.179.179 0 01.173.005l.508.292a.175.175 0 00.091.024h.24c.1 0 .182-.082.182-.182V9.59zm4.559.141c-1.166 0-1.225-.283-1.225-.589s.059-.589 1.225-.589c.452 0 1.052.02 1.647.069a.182.182 0 01.167.18v.68a.182.182 0 01-.167.18c-.595.05-1.195.069-1.647.069zm-81.758 7.38v5.64c0 .1-.081.182-.182.182H58.41a.183.183 0 01-.182-.182v-5.64c0-.1-.082-.183-.183-.183H56.29c-.1 0-.183.082-.183.183v7.524c0 .1.082.182.183.182h11.062c.1 0 .182-.082.182-.182v-7.524c0-.1-.082-.183-.183-.183h-1.755c-.1 0-.183.082-.183.183v5.64c0 .1-.081.182-.182.182h-2.168a.183.183 0 01-.182-.182v-5.64c0-.1-.082-.183-.182-.183h-1.756c-.1 0-.183.082-.183.183zm15.208 7.524V24.4a.175.175 0 00-.028-.098l-1.477-2.33a.178.178 0 010-.195l1.477-2.33a.175.175 0 00.028-.098v-.236c0-.1-.082-.182-.182-.182h-1.532c-.064 0-.12.03-.154.084l-1.212 1.904a.178.178 0 01-.154.084h-1.602a.182.182 0 01-.182-.182v-1.697c0-.1-.081-.182-.181-.182l-1.52-.01a.176.176 0 00-.13.053.176.176 0 00-.054.13v5.52c0 .1.082.183.182.183h1.52c.1 0 .183-.082.183-.183v-1.707c0-.1.082-.183.182-.183h1.602c.065 0 .12.03.154.085l1.212 1.903a.18.18 0 00.154.085h1.532c.1 0 .182-.082.182-.183zm2.827-2.762c0-.765 0-1.471 1.65-1.471 1.648 0 1.648.706 1.648 1.471 0 .766 0 1.472-1.649 1.472s-1.649-.706-1.649-1.472zm-1.885.236c0 1.625.73 2.943 3.37 2.943h.33c2.638 0 3.368-1.318 3.368-2.943v-.471c0-1.625-.73-2.944-3.369-2.944h-.33c-2.638 0-3.369 1.319-3.369 2.944v.47zm8.717 1.142a5.48 5.48 0 01-.393-.016.176.176 0 00-.137.048.176.176 0 00-.059.134V24.7c0 .087.059.16.144.178.237.052.524.068.787.068 1.626 0 2.132-.8 2.214-2.284l.108-1.865a.182.182 0 01.182-.172h1.99c.1 0 .183.082.183.182v3.828c0 .1.081.182.182.182h1.52c.1 0 .182-.082.182-.183v-5.522c0-.1-.082-.182-.182-.182h-5.607a.182.182 0 00-.182.171l-.201 3.35c-.024.517-.165.8-.73.8zm11.85.33c-1.495 0-1.59-.212-1.59-.495 0-.235.071-.518 1.473-.518.667 0 1.216.059 1.71.177a.18.18 0 01.14.177v.275a.18.18 0 01-.133.176 5.827 5.827 0 01-1.6.207zm3.617-2.296c0-1.684-.942-2.59-3.57-2.59-.843 0-1.926.093-2.729.262a.18.18 0 00-.145.178v1.383c0 .058.025.107.07.143a.18.18 0 00.156.034c.793-.196 1.828-.294 2.59-.294 1.313 0 1.635.252 1.717.706a.177.177 0 01-.053.164.177.177 0 01-.166.046c-.493-.11-1.047-.162-1.722-.162-2.45 0-3.24.812-3.24 1.802v.117c0 1.048.731 1.978 3.276 1.978 1.044 0 1.858-.175 2.622-.556a.176.176 0 01.172.005l.509.292a.175.175 0 00.09.024h.241c.1 0 .182-.082.182-.183v-3.35zM60.919 32.568c0-1.189 0-2.284 2.238-2.284s2.238 1.095 2.238 2.285c0 1.2 0 2.295-2.238 2.295s-2.238-1.094-2.238-2.295zm-4.812-3.761v7.524c0 .1.082.182.182.182h1.756c.1 0 .183-.082.183-.182v-2.58c0-.1.082-.182.182-.182h.262a.18.18 0 01.18.158c.233 1.724 1.292 3.021 4.093 3.021h.424c3.24 0 4.146-1.742 4.146-3.873v-.612c0-2.132-.907-3.874-4.146-3.874h-.424c-2.86 0-3.898 1.354-4.106 3.136a.181.181 0 01-.181.16h-.248a.183.183 0 01-.182-.182v-2.696c0-.1-.082-.183-.183-.183H56.29c-.1 0-.182.082-.182.183zm16.512 3.29c1.59 0 1.59.707 1.59 1.472s0 1.472-1.59 1.472c-.593 0-1.118-.07-1.6-.207a.18.18 0 01-.132-.175v-2.167a.18.18 0 01.132-.175 5.676 5.676 0 011.6-.22zm10.088-1.412l-2.939 3.22a.18.18 0 01-.2.047.18.18 0 01-.117-.17v-2.974c0-.1-.082-.182-.182-.182h-1.52c-.1 0-.182.082-.182.182v5.523c0 .1.081.182.182.182h1.622c.053 0 .099-.02.134-.06l2.94-3.22a.18.18 0 01.2-.046.18.18 0 01.116.17v2.974c0 .1.082.182.183.182h1.52c.1 0 .182-.082.182-.182v-5.523c0-.1-.082-.182-.182-.182h-1.622a.176.176 0 00-.135.06zm3.412 3.12c0 1.624.73 2.943 3.368 2.943h.33c.797 0 1.562-.093 2.286-.26a.18.18 0 00.14-.178v-1.373a.177.177 0 00-.07-.144.177.177 0 00-.156-.033 9.798 9.798 0 01-2.247.281c-1.767 0-1.767-.624-1.767-1.472 0-.847 0-1.471 1.767-1.471.592 0 1.44.078 2.247.28a.177.177 0 00.157-.032.177.177 0 00.07-.144v-1.373a.18.18 0 00-.141-.178c-.724-.167-1.49-.26-2.286-.26h-.33c-2.638 0-3.368 1.318-3.368 2.943v.47zm11.438 2.526v-3.816c0-.1.081-.182.182-.182h1.885c.1 0 .183-.082.183-.182v-1.343c0-.1-.082-.182-.183-.182h-6.008c-.1 0-.182.082-.182.182v1.343c0 .1.082.182.182.182h1.874c.1 0 .182.082.182.182v3.816c0 .1.082.182.182.182h1.52c.1 0 .183-.082.183-.182zM62.935 11.443l2.155-2.634a.18.18 0 01.202-.057.18.18 0 01.121.172v4.017c0 .1.082.182.183.182h1.755c.1 0 .183-.082.183-.182V5.416c0-.1-.082-.182-.183-.182h-1.847a.177.177 0 00-.145.072L62.88 8.561v-.015l-.916 1.18a.177.177 0 01-.145.072.177.177 0 01-.144-.071l-.916-1.181v.015l-2.478-3.255a.177.177 0 00-.145-.072H56.29c-.1 0-.182.082-.182.183v7.524c0 .1.082.182.182.182h1.756c.1 0 .183-.082.183-.182V8.924a.18.18 0 01.12-.172.18.18 0 01.203.057l2.155 2.634a.177.177 0 00.14.067h1.948a.176.176 0 00.141-.067zm83.093 1.498V7.399a.182.182 0 00-.163-.18 32.945 32.945 0 00-3.288-.171h-.259c-2.262 0-2.886.835-2.886 1.907v.377c0 .628.209 1.177.849 1.527a.175.175 0 01.089.114.176.176 0 01-.022.143l-.947 1.491a.178.178 0 00-.028.098v.236c0 .1.082.182.182.182h1.532c.064 0 .119-.03.154-.084l1.094-1.716a.176.176 0 01.153-.084h.089c.504 0 1.036-.01 1.563-.036a.174.174 0 01.135.05c.038.035.057.08.057.131v1.557c0 .1.082.182.182.182h1.332c.1 0 .182-.082.182-.182zM69.185 39.456h1.52c.1 0 .182-.082.182-.182v-2.552c0-.059.025-.11.072-.145a.177.177 0 01.159-.03c.48.132 1.009.201 1.607.201 2.639 0 3.369-1.319 3.369-2.943v-.471c0-1.625-.73-2.944-3.37-2.944-.984 0-1.795.185-2.525.565a.178.178 0 01-.177-.004l-.505-.3a.175.175 0 00-.093-.025h-.24c-.1 0-.181.082-.181.182v8.466c0 .1.081.182.182.182zm-.231-29.041c0 1.625.73 2.943 3.369 2.943h.33c2.638 0 3.368-1.318 3.368-2.943v-.471c0-1.625-.73-2.944-3.369-2.944h-.33c-2.638 0-3.368 1.319-3.368 2.944v.47zm35.499 24.854c-1.496 0-1.59-.212-1.59-.494 0-.236.07-.518 1.472-.518.667 0 1.216.058 1.71.176a.18.18 0 01.139.177v.276a.18.18 0 01-.132.175 5.831 5.831 0 01-1.599.208zm3.616-2.296c0-1.683-.942-2.59-3.569-2.59-.843 0-1.927.094-2.729.262a.18.18 0 00-.145.179v1.382c0 .058.024.108.07.144a.175.175 0 00.155.033c.793-.195 1.828-.293 2.59-.293 1.313 0 1.635.252 1.717.706a.174.174 0 01-.053.164.176.176 0 01-.166.046c-.492-.11-1.047-.162-1.722-.162-2.45 0-3.239.812-3.239 1.801v.118c0 1.047.73 1.978 3.275 1.978 1.044 0 1.858-.175 2.622-.556a.18.18 0 01.173.004l.508.292a.176.176 0 00.091.024h.24c.1 0 .182-.082.182-.182v-3.35z" fill="#fff"/><path fill-rule="evenodd" clip-rule="evenodd" d="M26.92 21.153l1.263-1.544a.105.105 0 01.119-.033.105.105 0 01.07.1v2.355c0 .058.049.106.108.106h1.029a.107.107 0 00.106-.106v-4.41a.107.107 0 00-.106-.106h-1.083a.104.104 0 00-.085.042l-1.452 1.907v-.009l-.537.692a.104.104 0 01-.085.042.104.104 0 01-.084-.042l-.537-.692v.01l-1.452-1.908a.104.104 0 00-.085-.042h-1.083a.107.107 0 00-.107.106v4.41c0 .058.048.106.107.106h1.03a.107.107 0 00.106-.106v-2.354c0-.046.028-.085.07-.1a.105.105 0 01.12.032l1.262 1.544c.021.026.05.04.083.04h1.141a.104.104 0 00.083-.04zm-4 10.175v4.41c0 .059.047.106.106.106h1.03a.107.107 0 00.106-.106v-1.512c0-.059.048-.107.107-.107h.153c.054 0 .099.04.106.093.136 1.01.757 1.77 2.398 1.77h.249c1.898 0 2.43-1.02 2.43-2.27v-.359c0-1.248-.532-2.27-2.43-2.27h-.249c-1.675 0-2.284.794-2.406 1.838a.106.106 0 01-.106.095h-.145a.107.107 0 01-.107-.107v-1.58a.107.107 0 00-.107-.107h-1.029a.107.107 0 00-.107.106zm2.819 2.205c0-.697 0-1.339 1.312-1.339 1.311 0 1.311.642 1.311 1.339 0 .704 0 1.345-1.311 1.345-1.312 0-1.312-.641-1.312-1.345zm-.093-9.058v3.305a.107.107 0 01-.107.107h-1.27a.107.107 0 01-.107-.107v-3.305a.107.107 0 00-.107-.107h-1.029a.107.107 0 00-.107.107v4.41c0 .058.048.106.107.106h6.483a.107.107 0 00.107-.107v-4.41a.107.107 0 00-.107-.106h-1.03a.107.107 0 00-.106.107v3.305a.107.107 0 01-.107.107h-1.27a.107.107 0 01-.107-.107v-3.305a.107.107 0 00-.107-.107h-1.03a.107.107 0 00-.106.107z" fill="#fff"/><path d="M18.836 7.878a.544.544 0 01.013 1.086 1.097 1.097 0 00-.53.162v.001a1.98 1.98 0 00-.562.507 1.666 1.666 0 00-.337 1.051c.005.311.09.626.241.915.154.293.375.559.65.768.388.294.887.476 1.46.465.713-.013 1.462-.353 2.012-.95.488-.53.814-1.266.814-2.159 0-1.015-.458-1.933-1.194-2.604-.758-.691-1.808-1.121-2.958-1.133v.002H-.044V4.9h18.493c1.43.013 2.74.55 3.688 1.414.956.871 1.552 2.073 1.552 3.409 0 1.189-.443 2.177-1.105 2.896-.752.816-1.793 1.282-2.796 1.3a3.392 3.392 0 01-3.09-1.818 3.157 3.157 0 01-.365-1.4 2.738 2.738 0 01.56-1.724c.211-.28.512-.58.877-.793h.002c.309-.18.667-.301 1.064-.307zm-3.256 8.5a.545.545 0 11.162 1.078c-.392.06-.712.204-.924.465-.23.282-.364.716-.37 1.343h.002v21.727h-1.09V19.264h.002v-.004c.008-.896.23-1.555.613-2.025.401-.492.953-.758 1.606-.857zM3.135 40.991v-23.26a.546.546 0 011.092 0v23.26H3.135zM-.044 14.054h16.312a.546.546 0 110 1.09H-.044v-1.09zm8.291 26.937v-23.26a.546.546 0 011.091 0v23.26h-1.09z" fill="#fff"/><path d="M-.044 8.337h15.071a.546.546 0 110 1.09H-.043v-1.09z" fill="#fff"/><path fill-rule="evenodd" clip-rule="evenodd" d="M26.92 21.153l1.263-1.544a.105.105 0 01.119-.033.105.105 0 01.07.1v2.355c0 .058.049.106.108.106h1.029a.107.107 0 00.106-.106v-4.41a.107.107 0 00-.106-.106h-1.083a.104.104 0 00-.085.042l-1.452 1.907v-.009l-.537.692a.104.104 0 01-.085.042.104.104 0 01-.084-.042l-.537-.692v.01l-1.452-1.908a.104.104 0 00-.085-.042h-1.083a.107.107 0 00-.107.106v4.41c0 .058.048.106.107.106h1.03a.107.107 0 00.106-.106v-2.354c0-.046.028-.085.07-.1a.105.105 0 01.12.032l1.262 1.544c.021.026.05.04.083.04h1.141a.104.104 0 00.083-.04zm-4 10.175v4.41c0 .059.047.106.106.106h1.03a.107.107 0 00.106-.106v-1.512c0-.059.048-.107.107-.107h.153c.054 0 .099.04.106.093.136 1.01.757 1.77 2.398 1.77h.249c1.898 0 2.43-1.02 2.43-2.27v-.359c0-1.248-.532-2.27-2.43-2.27h-.249c-1.675 0-2.284.794-2.406 1.838a.106.106 0 01-.106.095h-.145a.107.107 0 01-.107-.107v-1.58a.107.107 0 00-.107-.107h-1.029a.107.107 0 00-.107.106zm2.819 2.205c0-.697 0-1.339 1.312-1.339 1.311 0 1.311.642 1.311 1.339 0 .704 0 1.345-1.311 1.345-1.312 0-1.312-.641-1.312-1.345zm-.093-9.058v3.305a.107.107 0 01-.107.107h-1.27a.107.107 0 01-.107-.107v-3.305a.107.107 0 00-.107-.107h-1.029a.107.107 0 00-.107.107v4.41c0 .058.048.106.107.106h6.483a.107.107 0 00.107-.107v-4.41a.107.107 0 00-.107-.106h-1.03a.107.107 0 00-.106.107v3.305a.107.107 0 01-.107.107h-1.27a.107.107 0 01-.107-.107v-3.305a.107.107 0 00-.107-.107h-1.03a.107.107 0 00-.106.107z" fill="#fff"/><path fill-rule="evenodd" clip-rule="evenodd" d="M26.92 21.153l1.263-1.544a.105.105 0 01.119-.033.105.105 0 01.07.1v2.355c0 .058.049.106.108.106h1.029a.107.107 0 00.106-.106v-4.41a.107.107 0 00-.106-.106h-1.083a.104.104 0 00-.085.042l-1.452 1.907v-.009l-.537.692a.104.104 0 01-.085.042.104.104 0 01-.084-.042l-.537-.692v.01l-1.452-1.908a.104.104 0 00-.085-.042h-1.083a.107.107 0 00-.107.106v4.41c0 .058.048.106.107.106h1.03a.107.107 0 00.106-.106v-2.354c0-.046.028-.085.07-.1a.105.105 0 01.12.032l1.262 1.544c.021.026.05.04.083.04h1.141a.104.104 0 00.083-.04zm-4 10.175v4.41c0 .059.047.106.106.106h1.03a.107.107 0 00.106-.106v-1.512c0-.059.048-.107.107-.107h.153c.054 0 .099.04.106.093.136 1.01.757 1.77 2.398 1.77h.249c1.898 0 2.43-1.02 2.43-2.27v-.359c0-1.248-.532-2.27-2.43-2.27h-.249c-1.675 0-2.284.794-2.406 1.838a.106.106 0 01-.106.095h-.145a.107.107 0 01-.107-.107v-1.58a.107.107 0 00-.107-.107h-1.029a.107.107 0 00-.107.106zm2.819 2.205c0-.697 0-1.339 1.312-1.339 1.311 0 1.311.642 1.311 1.339 0 .704 0 1.345-1.311 1.345-1.312 0-1.312-.641-1.312-1.345zm-.093-9.058v3.305a.107.107 0 01-.107.107h-1.27a.107.107 0 01-.107-.107v-3.305a.107.107 0 00-.107-.107h-1.029a.107.107 0 00-.107.107v4.41c0 .058.048.106.107.106h6.483a.107.107 0 00.107-.107v-4.41a.107.107 0 00-.107-.106h-1.03a.107.107 0 00-.106.107v3.305a.107.107 0 01-.107.107h-1.27a.107.107 0 01-.107-.107v-3.305a.107.107 0 00-.107-.107h-1.03a.107.107 0 00-.106.107z" fill="#000" fill-opacity=".2"/><path fill-rule="evenodd" clip-rule="evenodd" d="M26.92 21.153l1.263-1.544a.105.105 0 01.119-.033.105.105 0 01.07.1v2.355c0 .058.049.106.108.106h1.029a.107.107 0 00.106-.106v-4.41a.107.107 0 00-.106-.106h-1.083a.104.104 0 00-.085.042l-1.452 1.907v-.009l-.537.692a.104.104 0 01-.085.042.104.104 0 01-.084-.042l-.537-.692v.01l-1.452-1.908a.104.104 0 00-.085-.042h-1.083a.107.107 0 00-.107.106v4.41c0 .058.048.106.107.106h1.03a.107.107 0 00.106-.106v-2.354c0-.046.028-.085.07-.1a.105.105 0 01.12.032l1.262 1.544c.021.026.05.04.083.04h1.141a.104.104 0 00.083-.04zm-4 10.175v4.41c0 .059.047.106.106.106h1.03a.107.107 0 00.106-.106v-1.512c0-.059.048-.107.107-.107h.153c.054 0 .099.04.106.093.136 1.01.757 1.77 2.398 1.77h.249c1.898 0 2.43-1.02 2.43-2.27v-.359c0-1.248-.532-2.27-2.43-2.27h-.249c-1.675 0-2.284.794-2.406 1.838a.106.106 0 01-.106.095h-.145a.107.107 0 01-.107-.107v-1.58a.107.107 0 00-.107-.107h-1.029a.107.107 0 00-.107.106zm2.819 2.205c0-.697 0-1.339 1.312-1.339 1.311 0 1.311.642 1.311 1.339 0 .704 0 1.345-1.311 1.345-1.312 0-1.312-.641-1.312-1.345zm-.093-9.058v3.305a.107.107 0 01-.107.107h-1.27a.107.107 0 01-.107-.107v-3.305a.107.107 0 00-.107-.107h-1.029a.107.107 0 00-.107.107v4.41c0 .058.048.106.107.106h6.483a.107.107 0 00.107-.107v-4.41a.107.107 0 00-.107-.106h-1.03a.107.107 0 00-.106.107v3.305a.107.107 0 01-.107.107h-1.27a.107.107 0 01-.107-.107v-3.305a.107.107 0 00-.107-.107h-1.03a.107.107 0 00-.106.107z" fill="url(#paint2_linear_961_3503)"/><path d="M18.836 7.878a.544.544 0 01.013 1.086 1.097 1.097 0 00-.53.162v.001a1.98 1.98 0 00-.562.507 1.666 1.666 0 00-.337 1.051c.005.311.09.626.241.915.154.293.375.559.65.768.388.294.887.476 1.46.465.713-.013 1.462-.353 2.012-.95.488-.53.814-1.266.814-2.159 0-1.015-.458-1.933-1.194-2.604-.758-.691-1.808-1.121-2.958-1.133v.002H-.044V4.9h18.493c1.43.013 2.74.55 3.688 1.414.956.871 1.552 2.073 1.552 3.409 0 1.189-.443 2.177-1.105 2.896-.752.816-1.793 1.282-2.796 1.3a3.392 3.392 0 01-3.09-1.818 3.157 3.157 0 01-.365-1.4 2.738 2.738 0 01.56-1.724c.211-.28.512-.58.877-.793h.002c.309-.18.667-.301 1.064-.307z" fill="#fff"/><path d="M18.836 7.878a.544.544 0 01.013 1.086 1.097 1.097 0 00-.53.162v.001a1.98 1.98 0 00-.562.507 1.666 1.666 0 00-.337 1.051c.005.311.09.626.241.915.154.293.375.559.65.768.388.294.887.476 1.46.465.713-.013 1.462-.353 2.012-.95.488-.53.814-1.266.814-2.159 0-1.015-.458-1.933-1.194-2.604-.758-.691-1.808-1.121-2.958-1.133v.002H-.044V4.9h18.493c1.43.013 2.74.55 3.688 1.414.956.871 1.552 2.073 1.552 3.409 0 1.189-.443 2.177-1.105 2.896-.752.816-1.793 1.282-2.796 1.3a3.392 3.392 0 01-3.09-1.818 3.157 3.157 0 01-.365-1.4 2.738 2.738 0 01.56-1.724c.211-.28.512-.58.877-.793h.002c.309-.18.667-.301 1.064-.307z" fill="#000" fill-opacity=".2"/><path d="M18.836 7.878a.544.544 0 01.013 1.086 1.097 1.097 0 00-.53.162v.001a1.98 1.98 0 00-.562.507 1.666 1.666 0 00-.337 1.051c.005.311.09.626.241.915.154.293.375.559.65.768.388.294.887.476 1.46.465.713-.013 1.462-.353 2.012-.95.488-.53.814-1.266.814-2.159 0-1.015-.458-1.933-1.194-2.604-.758-.691-1.808-1.121-2.958-1.133v.002H-.044V4.9h18.493c1.43.013 2.74.55 3.688 1.414.956.871 1.552 2.073 1.552 3.409 0 1.189-.443 2.177-1.105 2.896-.752.816-1.793 1.282-2.796 1.3a3.392 3.392 0 01-3.09-1.818 3.157 3.157 0 01-.365-1.4 2.738 2.738 0 01.56-1.724c.211-.28.512-.58.877-.793h.002c.309-.18.667-.301 1.064-.307z" fill="url(#paint3_linear_961_3503)"/><path d="M15.58 16.378a.545.545 0 11.162 1.078c-.392.06-.712.204-.924.465-.23.282-.364.716-.37 1.343h.002v21.727h-1.09V19.264h.002v-.004c.008-.896.23-1.555.613-2.025.401-.492.953-.758 1.606-.857z" fill="#fff"/><path d="M15.58 16.378a.545.545 0 11.162 1.078c-.392.06-.712.204-.924.465-.23.282-.364.716-.37 1.343h.002v21.727h-1.09V19.264h.002v-.004c.008-.896.23-1.555.613-2.025.401-.492.953-.758 1.606-.857z" fill="#000" fill-opacity=".2"/><path d="M15.58 16.378a.545.545 0 11.162 1.078c-.392.06-.712.204-.924.465-.23.282-.364.716-.37 1.343h.002v21.727h-1.09V19.264h.002v-.004c.008-.896.23-1.555.613-2.025.401-.492.953-.758 1.606-.857z" fill="url(#paint4_linear_961_3503)"/><path d="M3.135 40.991v-23.26a.546.546 0 011.092 0v23.26H3.135z" fill="#fff"/><path d="M3.135 40.991v-23.26a.546.546 0 011.092 0v23.26H3.135z" fill="#000" fill-opacity=".2"/><path d="M3.135 40.991v-23.26a.546.546 0 011.092 0v23.26H3.135z" fill="url(#paint5_linear_961_3503)"/><path d="M-.044 14.054h16.312a.546.546 0 110 1.09H-.044v-1.09z" fill="#fff"/><path d="M-.044 14.054h16.312a.546.546 0 110 1.09H-.044v-1.09z" fill="#000" fill-opacity=".2"/><path d="M-.044 14.054h16.312a.546.546 0 110 1.09H-.044v-1.09z" fill="url(#paint6_linear_961_3503)"/><path d="M8.247 40.991v-23.26a.546.546 0 011.091 0v23.26h-1.09z" fill="#fff"/><path d="M8.247 40.991v-23.26a.546.546 0 011.091 0v23.26h-1.09z" fill="#000" fill-opacity=".2"/><path d="M8.247 40.991v-23.26a.546.546 0 011.091 0v23.26h-1.09z" fill="url(#paint7_linear_961_3503)"/><path d="M-.044 8.337h15.071a.546.546 0 110 1.09H-.043v-1.09z" fill="#fff"/><path d="M-.044 8.337h15.071a.546.546 0 110 1.09H-.043v-1.09z" fill="#000" fill-opacity=".2"/><path d="M-.044 8.337h15.071a.546.546 0 110 1.09H-.043v-1.09z" fill="url(#paint8_linear_961_3503)"/><defs><linearGradient id="paint0_linear_961_3503" x1="20.461" y1=".002" x2="20.461" y2="40.991" gradientUnits="userSpaceOnUse"><stop stop-color="#A42E32"/><stop offset="1" stop-color="#E52A31"/></linearGradient><linearGradient id="paint1_linear_961_3503" x1="72.992" y1=".002" x2="72.992" y2="40.991" gradientUnits="userSpaceOnUse"><stop stop-color="#A42E32"/><stop offset="1" stop-color="#E52A31"/></linearGradient><linearGradient id="paint2_linear_961_3503" x1="26.267" y1="17.515" x2="26.267" y2="35.982" gradientUnits="userSpaceOnUse"><stop stop-color="#A42E32"/><stop offset="1" stop-color="#E52A31"/></linearGradient><linearGradient id="paint3_linear_961_3503" x1="11.822" y1="4.898" x2="11.822" y2="13.921" gradientUnits="userSpaceOnUse"><stop stop-color="#A42E32"/><stop offset="1" stop-color="#E52A31"/></linearGradient><linearGradient id="paint4_linear_961_3503" x1="14.783" y1="16.372" x2="14.783" y2="40.991" gradientUnits="userSpaceOnUse"><stop stop-color="#A42E32"/><stop offset="1" stop-color="#E52A31"/></linearGradient><linearGradient id="paint5_linear_961_3503" x1="3.681" y1="17.186" x2="3.681" y2="40.991" gradientUnits="userSpaceOnUse"><stop stop-color="#A42E32"/><stop offset="1" stop-color="#E52A31"/></linearGradient><linearGradient id="paint6_linear_961_3503" x1="8.385" y1="14.054" x2="8.385" y2="15.144" gradientUnits="userSpaceOnUse"><stop stop-color="#A42E32"/><stop offset="1" stop-color="#E52A31"/></linearGradient><linearGradient id="paint7_linear_961_3503" x1="8.793" y1="17.186" x2="8.793" y2="40.991" gradientUnits="userSpaceOnUse"><stop stop-color="#A42E32"/><stop offset="1" stop-color="#E52A31"/></linearGradient><linearGradient id="paint8_linear_961_3503" x1="7.764" y1="8.337" x2="7.764" y2="9.428" gradientUnits="userSpaceOnUse"><stop stop-color="#A42E32"/><stop offset="1" stop-color="#E52A31"/></linearGradient></defs></svg>