<svg width="1920" height="1076" fill="none" xmlns="http://www.w3.org/2000/svg"><g clip-path="url(#clip0_819_7244)" fill="#000"><g opacity=".05" clip-path="url(#clip1_819_7244)"><path d="M66.174 485.932l-1.347-10.102c7.631-.973 14.439-4.939 19.151-11.075 4.713-6.136 6.733-13.694 5.76-21.402-.972-7.632-4.937-14.442-11.071-19.156-6.134-4.714-13.69-6.735-21.32-5.762L56 408.333c10.324-1.347 20.647 1.422 28.876 7.782 8.304 6.361 13.615 15.565 14.962 25.966 1.346 10.327-1.421 20.653-7.78 28.885-6.359 8.306-15.56 13.619-25.959 14.966h.075zm339.049-75.368c8.903 0 16.832 5.986 19.301 14.517 3.067 10.626-3.067 21.85-13.69 24.918-1.87.524-3.74.823-5.611.823-8.902 0-16.831-5.986-19.3-14.517-3.067-10.626 3.067-21.85 13.69-24.918 1.87-.524 3.74-.823 5.61-.823zm0-8.98c-2.693 0-5.386.374-8.154 1.197-15.41 4.49-24.312 20.654-19.824 36.069 3.666 12.721 15.336 20.952 27.904 20.952 2.693 0 5.386-.374 8.154-1.197 15.41-4.49 24.313-20.653 19.824-36.068-3.665-12.722-15.336-20.953-27.904-20.953zm-431.72 373.327c1.272 0 2.544.075 3.816.299 12.044 2.095 20.123 13.544 18.029 25.592-1.87 10.626-10.997 18.333-21.77 18.333-1.271 0-2.543-.149-3.815-.299-12.044-2.095-20.124-13.544-18.029-25.592 1.87-10.626 10.997-18.333 21.77-18.333zm0-9.878c-15.26 0-28.8 11-31.494 26.565-2.992 17.435 8.678 33.973 26.034 36.966a34.34 34.34 0 005.46.449c15.261 0 28.802-11 31.495-26.565 2.992-17.435-8.678-33.973-26.034-36.966a34.338 34.338 0 00-5.46-.449zm292.575 36.293l-11.894-11.824 59.996-60.313 60.296 60.014-11.82 11.898-48.401-48.19-48.177 48.415zm-35.306-542.238L171 247.789 182.296 188l11.745 2.17-9.052 48.041 48.027 9.054-2.244 11.823z"/></g><g opacity=".05" clip-path="url(#clip2_819_7244)"><path d="M1448.17 941.932l-1.34-10.102c7.63-.973 14.44-4.939 19.15-11.075 4.71-6.136 6.73-13.694 5.76-21.402-.97-7.632-4.94-14.442-11.07-19.156-6.14-4.714-13.69-6.735-21.32-5.762l-1.35-10.102c10.32-1.347 20.65 1.422 28.88 7.782 8.3 6.361 13.61 15.565 14.96 25.966 1.34 10.327-1.42 20.653-7.78 28.885-6.36 8.306-15.56 13.619-25.96 14.966h.07zM210.963 516.482l9.465 3.778c-2.893 7.128-2.774 15.006.264 22.121 3.038 7.116 8.635 12.582 15.83 15.513 7.129 2.894 15.008 2.776 22.124-.259 7.116-3.036 12.581-8.631 15.474-15.758l9.465 3.778c-3.887 9.658-11.361 17.299-20.939 21.353-9.615 4.12-20.241 4.237-29.967.312-9.66-3.889-17.304-11.364-21.361-20.941-4.122-9.615-4.242-20.239-.319-29.963l-.036.066zm249.453-161.905c-7.331 0-14.363-2.619-19.899-7.558a29.857 29.857 0 01-10.024-20.728c-.449-8.007 2.169-15.714 7.555-21.776a29.846 29.846 0 0120.722-10.027l.449 7.857c-5.91.375-11.371 2.994-15.336 7.409-3.964 4.415-5.909 10.176-5.535 16.088.374 5.912 2.992 11.374 7.406 15.34 4.413 3.966 10.174 5.912 16.084 5.538l.448 7.857h-1.87zM1852.61 644.17c-6.74-8.381-9.73-18.932-8.53-29.558 1.2-10.701 6.43-20.279 14.89-26.939 17.35-13.843 42.71-11 56.55 6.286l-8.23 6.585c-10.25-12.796-28.95-14.891-41.82-4.639-6.21 4.938-10.1 12.047-10.99 19.904-.9 7.858 1.34 15.64 6.36 21.851l-8.23 6.585v-.075zm-221.06-303.811c9.05 0 17.28 5.013 21.39 13.095 2.92 5.687 3.37 12.197 1.42 18.259-2.02 6.061-6.21 11-11.89 13.918-3.37 1.721-7.03 2.619-10.77 2.619-9.05 0-17.28-5.014-21.4-13.095-5.98-11.748-1.2-26.191 10.55-32.177 3.37-1.721 7.03-2.619 10.77-2.619m0-10.701c-5.23 0-10.62 1.197-15.56 3.742-17.05 8.605-23.86 29.483-15.26 46.469 6.06 12.048 18.25 19.007 30.9 19.007 5.23 0 10.62-1.197 15.63-3.742 17.06-8.605 23.87-29.408 15.26-46.469-6.06-12.048-18.25-19.007-30.89-19.007h-.08zM267.186 1012.33c.674 0 1.347 0 2.02.08 5.087.52 9.725 3.06 12.942 7.03a19.133 19.133 0 014.19 14.07c-1.048 9.8-9.202 17.21-19.077 17.21-.673 0-1.346 0-2.02-.08-10.548-1.12-18.178-10.62-17.131-21.1 1.048-9.8 9.202-17.21 19.076-17.21zm0-8.6c-14.064 0-26.108 10.62-27.604 24.91-1.571 15.27 9.501 28.96 24.762 30.54.972.07 1.945.15 2.917.15 14.064 0 26.109-10.63 27.605-24.92 1.571-15.27-9.426-28.96-24.762-30.53-.972-.08-1.945-.15-2.918-.15zM1787.22 866.564c8.91 0 16.84 5.986 19.3 14.517 3.07 10.625-3.06 21.85-13.69 24.918-1.87.524-3.74.823-5.61.823-8.9 0-16.83-5.986-19.3-14.517-3.06-10.626 3.07-21.85 13.69-24.918 1.87-.524 3.74-.823 5.61-.823zm0-8.98c-2.69 0-5.38.374-8.15 1.197-15.41 4.49-24.31 20.653-19.82 36.068 3.66 12.721 15.33 20.953 27.9 20.953 2.69 0 5.38-.374 8.15-1.198 15.41-4.489 24.32-20.653 19.83-36.068-3.67-12.721-15.34-20.952-27.91-20.952zM777.457 319.406c4.264 0 8.453.898 12.418 2.694 7.331 3.368 12.942 9.279 15.71 16.837 2.842 7.558 2.543 15.714-.748 23.048-4.863 10.7-15.636 17.659-27.455 17.659-4.264 0-8.454-.898-12.418-2.693-15.112-6.885-21.845-24.769-14.962-39.885 4.862-10.701 15.635-17.66 27.455-17.66zm0-13.394c-16.533 0-32.393 9.503-39.649 25.517-9.95 21.925-.299 47.741 21.62 57.694 5.835 2.694 11.969 3.891 18.029 3.891 16.532 0 32.392-9.504 39.648-25.517 9.95-21.925.299-47.742-21.62-57.694-5.835-2.694-11.969-3.891-18.028-3.891zM-9.754 745.189a6.993 6.993 0 01-3.217-.748c-3.815-1.796-5.461-6.361-3.74-10.177 4.189-8.905 11.52-15.415 20.572-18.258 9.127-2.844 18.777-1.647 27.23 3.367 4.713 2.769 10.025 3.442 14.962 1.945 4.937-1.571 8.902-5.088 11.221-10.102 4.19-8.904 11.52-15.415 20.573-18.258 9.052-2.844 18.777-1.646 27.23 3.367 3.666 2.17 4.863 6.885 2.693 10.476-2.169 3.667-6.882 4.864-10.473 2.694-4.713-2.768-10.025-3.442-14.962-1.945-4.937 1.571-8.902 5.088-11.221 10.102-4.19 8.905-11.446 15.415-20.573 18.184-9.126 2.843-18.776 1.646-27.23-3.368-4.713-2.769-10.024-3.442-14.962-1.945-4.937 1.571-8.902 5.088-11.22 10.102-1.273 2.768-4.04 4.415-6.958 4.415l.075.149zm-43.541 259.731h-.898c-3.142-.07-5.61-2.76-5.46-5.832.074-3.143 2.692-5.538 5.834-5.538 4.115.15 7.78-1.272 10.399-4.04 2.693-2.769 3.965-6.511 3.74-10.552-.449-7.333 2.02-14.142 6.957-19.156 4.938-5.088 11.67-7.707 18.927-7.483 4.114.075 7.78-1.272 10.398-4.041 2.694-2.768 3.965-6.51 3.74-10.551-.224-3.143 2.17-5.837 5.312-6.061 3.142-.225 5.835 2.17 6.06 5.313.449 7.258-2.02 14.143-6.957 19.156-4.938 5.089-11.67 7.708-18.927 7.483-4.04-.224-7.705 1.272-10.398 4.041-2.694 2.769-3.965 6.51-3.74 10.551.448 7.259-2.02 14.068-6.883 19.157-4.713 4.863-11.072 7.483-18.03 7.483l-.074.07zM854.752 1022c-4.488 0-8.827-1.12-12.792-3.29-6.583-3.67-11.221-9.88-13.017-17.44-.972-4.189-3.516-7.631-7.107-9.652-3.59-1.945-7.78-2.319-11.894-.898-7.406 2.47-15.112 1.871-21.77-1.795-6.583-3.667-11.221-9.878-13.016-17.436-.748-3.292 1.271-6.585 4.488-7.333 3.292-.748 6.583 1.272 7.331 4.49.973 4.19 3.517 7.632 7.107 9.653 3.591 1.945 7.78 2.319 11.97.898 7.406-2.47 15.111-1.871 21.694 1.796 6.583 3.666 11.222 9.877 13.017 17.435.972 4.192 3.516 7.632 7.107 9.652 3.591 2.02 7.855 2.32 11.969.9 3.217-1.05 6.658.67 7.705 3.82 1.048 3.14-.598 6.66-3.815 7.7-2.992.98-5.985 1.5-8.977 1.5zm214.678-426.545c-3.74 0-7.48-.674-11.14-2.021a7.036 7.036 0 01-4.19-9.054 7.04 7.04 0 019.05-4.19c4.71 1.721 9.58 1.496 13.77-.674 4.18-2.17 7.25-6.061 8.52-10.925 2.32-8.755 7.86-15.789 15.64-19.83 7.78-4.041 16.68-4.565 25.21-1.422 4.71 1.721 9.65 1.497 13.84-.673 4.19-2.17 7.26-6.062 8.53-10.925.97-3.742 4.86-5.987 8.6-5.014 3.74.973 5.98 4.864 5.01 8.605-2.32 8.755-7.85 15.789-15.63 19.83-7.78 4.041-16.69 4.565-25.14 1.422-4.71-1.721-9.65-1.497-13.84.748-4.19 2.17-7.25 6.062-8.53 10.926-2.32 8.755-7.85 15.789-15.63 19.829-4.41 2.32-9.2 3.443-14.07 3.443v-.075zm253.23-180.64c-2.24 0-4.26-1.497-4.79-3.817-.67-2.694.98-5.313 3.67-5.986l42.71-10.252c2.7-.673 5.32.973 5.99 3.667.67 2.694-.97 5.313-3.67 5.986l-42.71 10.252c-.38.075-.75.15-1.2.15zm290.11 300.273L1553 703.789 1564.3 644l11.74 2.17-9.05 48.041 48.03 9.054-2.25 11.823zm-513.19-371.212l-58.35-48.939 9.65-11.524 46.91 39.286 39.27-46.844 11.52 9.579-49 58.442zm48.85 620.116l-7.48-42.802-42.86 7.483-1.8-10.551 53.34-9.279 9.28 53.354-10.48 1.795zm752.43-594.748l-46.68-37.041 7.25-9.204 37.56 29.708 29.7-37.49 9.2 7.258-37.03 46.769z"/></g></g><defs><clipPath id="clip0_819_7244"><path fill="#fff" d="M0 0h1920v1076H0z"/></clipPath><clipPath id="clip1_819_7244"><path fill="#fff" transform="translate(-1666 -543)" d="M0 0h2626v1372H0z"/></clipPath><clipPath id="clip2_819_7244"><path fill="#fff" d="M0 0h1920v1076H0z"/></clipPath></defs></svg>