<svg width="1920" height="378" fill="none" xmlns="http://www.w3.org/2000/svg"><g opacity=".1" stroke="#fff" stroke-miterlimit="10"><path d="M.228 1149V117.16c-.304-96.776-.304-189.598 0-280.52v-607.412M101.249 1149V261.068c-8.514-181.54-8.514-358.821-.076-547.355.076-18.549.076-36.718.076-54.583v-429.902M202.269 1149V403.457c.076-23.491.152-47.134.38-71.004-.228-227.609-17.103-463.96-.608-688.527.228-20.222.228-39.912.228-59.069v-355.705M303.29 1149V473.168c0-23.642.684-47.209 1.748-70.7-1.292-272.385-9.729-550.928-2.052-817.231.38-35.35.38-68.724.38-99.892v-256.269M404.387 1149V473.169c-2.281-19.538-3.193-38.847-2.965-57.929 3.649-133.19 28.961-251.403 45.836-386.417 25.312-168.844-25.312-329.174-42.871-499.69v-299.981M505.407 1149V473.169c-1.52-19.538-1.672-38.847-.76-57.929.912-19.157 2.812-38.087 4.789-56.636 5.321-194.691 115.083-363.535 123.52-549.256 0-101.26-84.374-177.282-118.731-271.168-6.005-17.029-10.262-34.438-12.01-52.607-1.673-18.093-.913-36.947 3.192-56.788v-199.633"/><path d="M606.428 1149V473.168c-1.216-27.671-.608-54.659 1.52-81.267 2.128-26.607 5.397-52.759 8.59-78.15 7.981-124.599 58.605-234.298 109.23-344.073 75.936-177.282-25.313-329.173-105.658-477.796-8.361-22.578-14.518-45.841-17.179-70.091-2.66-24.251-1.9-49.491 3.497-76.098v-116.617"/><path d="M707.448 1149V473.168c0-23.034 0-46.297.076-69.787a2775.495 2775.495 0 0015.963-82.712c27.592-232.854 137.354-469.205 72.896-703.807-7.069-25.847-16.343-51.619-27.973-77.238-11.63-25.619-25.768-51.086-42.643-76.478-25.312-42.192-16.875-75.945-18.167-117.681-.152-36.566-.152-65.759-.152-85.676V-771"/><path d="M808.469 1149V332.605c0-23.795.076-47.742 1.52-72.905 59.29-180.247 76.165-365.892 64.307-549.712-2.661-30.408-6.157-60.817-10.338-91.225-12.618-91.226-31.925-182.3-55.109-273.374-.38-36.338-.38-65.531-.38-85.448v-30.789M909.566 1149V260.992c0-23.946 0-47.969.532-72.448 26.756-176.598 68.943-345.442 43.631-531.087-16.875-109.699-50.624-202.597-44.011-311.84-.152-24.327-.152-45.461-.152-62.718v-53.747M1010.59 1149V849.171a7879.196 7879.196 0 001.36-121.558c.76-99.589.76-200.925-1.36-300.514V189c0-24.023 0-47.97.07-72.068 27.37-240.076 18.93-476.427.46-711.258-.53-35.958-.53-67.811-.53-94.039v-82.483M1111.61 1149v-116.62c.3-29.42.45-58.762.45-87.954-14.9-257.181 1.98-501.97-.45-755.35V99.219c0-29.877 0-59.677.07-89.326 2.36-175.229 2.36-360.874.15-538.688-.22-36.643-.22-70.168-.22-99.817v-142.236M1212.63 1149s0-30.03.07-81.95c-.6-26.15-1.36-52.23-2.73-78.151-53.82-293.291-11.56-580.273 2.66-871.815v-260.298c2.66-89.782 2.66-191.042 0-283.485V-771m101.02 1920s0-19.23.07-53.29c-2.28-29.88-5.01-59.68-9.35-89.17-97.52-285.617-63.77-589.475 8.82-888.24.38-25.087.46-49.034.46-72.753v-816.395"/><path d="M1414.67 1149s0-19.23.07-53.14c3.35-25.92 3.12-50.93-.6-75.18-21.67-97.16-89.17-173.105-114.48-274.442-50.62-219.474 67.5-405.195 97.83-616.991 5.02-29.116 10.72-56.712 17.18-83.776v-816.394"/><path d="M1515.77 1149v-53.6c.83-17.63 1.97-35.65 2.43-53.44 17.78-118.44-108.78-169.07-142.53-270.407-33.75-84.384-16.87-177.282 8.44-261.666 42.19-126.652 92.81-244.789 110.52-381.172 6.16-28.736 12.93-56.028 20.07-83.016.99-23.946.99-47.59 1.07-71.004v-745.543"/><path d="M1616.79 1149v-53.75c0-17.25 0-38.39-.08-62.64-13.23-49.945 12.16-117.452-30.1-151.206-244.76-211.036-25.31-506.455 5.17-754.818a1411.728 1411.728 0 0123.79-80.887c1.06-23.87 1.06-47.513 1.14-71.004v-745.543"/><path d="M1717.81 1149v-116.62c0-24.48 0-52.3-.31-83.013-4.25-25.847 4.26-51.162-4.25-68.039-168.83-211.036-67.5-447.387-30.03-672.714 5.17-27.976 10.49-55.116 16.34-82.256 5.48-26.835 11.41-53.823 17.71-80.81.38-23.795.46-47.362.54-70.853v-745.543M1818.83 1149V949.367c0-30.712 0-64.314-.08-100.348-6.84-26.532-12.62-53.215-17.63-79.899-20.38-132.581-28.81-267.595-13.76-402.306 1.75-27.139 3.8-53.975 6-80.735 2.28-26.531 4.64-52.987 7.15-79.214 2.28-26.76 4.94-53.595 7.98-80.431 3.04-26.835 6.46-53.823 10.26-80.81 0-23.795.08-47.362.08-70.853v-745.543M1919.85 1149V793.295c-.08-19.157-.08-38.847-.23-58.992-.99-51.847-1.67-103.466-2.2-154.856-.54-51.391-.69-102.629-.69-153.868 0-51.238.23-102.477.76-153.792.53-51.39 1.22-102.857 2.21-154.627 0-23.947.07-47.818.07-71.613v-816.395"/><path d="M1913.23 340.815c-26.75 3.421-53.51 6.614-80.34 9.655-26.68 4.333-53.44 8.438-80.12 13.532-242.1 103.693-486.86 53.063-720.75-22.579-31.47-.836-63.013-.836-94.482-.836H780.952a4422.405 4422.405 0 00-156.281-3.193c-160.615 3.649-312.564 3.649-468.77 3.193H.076M1917.8 239.554c-27.22.837-54.43 1.597-81.57 2.129-27.36.684-54.65 1.216-82.17 1.825-209.64 55.419-429.09 21.666-650.51-3.345-23.79-.609-47.66-.609-71.6-.609H906.069a1504.016 1504.016 0 00-55.565-7.07 1694.383 1694.383 0 00-54.349-4.789c-256.087-21.666-500.847 12.088-754.425 11.859H.228M1919.85 138.522h-256.54c-28.13 0-56.18.228-84.07.836-135.99 7.602-271.06-.836-404.77-.912H998.652c-25.692-10.567-51.536-19.234-77.609-26.304C616.081 62.5 303.822 146.884.228 138.446M1919.85 37.49h-199.69c-91.36-.229-184.18-.229-276.83 0h-344.27c-38.99-.077-77.45-2.282-112.494-10.72-35.042-8.438-66.739-23.263-92.127-48.426-42.111-33.905-92.735-59.22-151.797-59.22C489.444-64 261.559 71.09.152 37.565"/></g></svg>