<svg viewBox="0 0 1393 718" xmlns="http://www.w3.org/2000/svg"><path fill-rule="evenodd" clip-rule="evenodd" d="M1105.94 142.287l-1.14 3.237 2.86 1.902 3.23-1.902-1.14-3.996-3.81.759zm-272.586 86.412l5.223 4.142 2.397-3.778.8-3.124-2.904-1.816-3.485-.509-2.031 5.085zm-10.163 12.28l1.667 2.105 5.807-3.56-1.307-3.486-3.629-.146-2.031 3.124-.507 1.963zm128.608-53.972l8.765 1.14.38 4.378-3.429.952-3.999-2.476-1.717-3.994zm23.055-14.463l1.524 7.039h3.621l.761-6.278-3.62-3.044-2.286 2.283zm8 5.898v7.994l8.955-1.903 8.381-4.378-2.85-6.471-5.531-.76-4.189-.952-3.05 4.569-1.716 1.901zm2.861-44.526l2.67 5.708 17.145.189 4.96-9.134-3.25-7.041-3.62 3.999-7.046-.572-1.904 3.233h-3.81l-.571 3.806-4.574-.188zm-6.67-28.546l-1.142 4.188 3.432.761 1.328-3.616-3.618-1.333zm-9.145 36.917l4.005 6.09 7.43 1.523.189-8.566-2.479-4.186-8.764-.568-4.571 3.233-7.048-1.142-.573 4.758 4.19 4.378-2.283 2.665-6.672-5.52-8.004.762-.569 6.469.763 6.66 3.616 4.567 1.335 5.137 7.43 2.093 6.859-.57-.569-7.232 4.956.572 3.81-6.28 4.569.951 3.05-3.424-3.05-3.045-6.665-1.903-5.334-6.28 4.379-1.142zm-33.535 15.984l1.145 5.139 4.571 5.328 2.859-1.14-3.43-6.281-5.145-3.046zm197.715-11.318l-2.31 4.473-12.46 7.01-9.05-8.595-9.06-.903-12.91 8.368-8.83 10.857-3.17 11.079-5.89 1.809-7.25-3.618-7.01.678-3.63 4.75-3.17-2.715-2.94 3.169-3.62-3.394 5.2-5.201-12.22-.906-7.02 6.107 3.84 13.117-7.02 6.783v-10.175h-4.75l-4.76 4.297-1.13-5.203 7.02-6.333-7.47.454-22.192 11.307 4.302 5.201-6.339 6.107 2.49 4.522 4.531-2.263.452 6.561 5.436 6.333-8.383 2.034-2.489 3.394 2.265 5.424-6.791 1.133-9.059-2.715-2.717 10.176-15.401-2.714v22.615l-10.866-1.807-16.759-15.153 6.115-4.296-10.187-15.153-6.569-3.165-9.963 3.39-11.094-4.295-1.587 17.187-20.151 8.593-7.699-5.202 1.13-4.068-20.604-.227-5.437 7.236-1.36 4.751-1.354-7.011-3.853-3.395-4.526 4.751-6.28 3.134-.347 4.309 2.933 3.905.058.08.021.095 1.33 6.967 9.704 13.707.078.111v9.056l4.951 5.932.278.33-.337.27-11.309 8.967-.652 5.205-.015.1-.054.084-2.649 3.969-1.999 9.662-.081.38-.38-.047-5.544-.652-8.952 7.282-.032.028-.04.021-3.007 1.549 7.099 10.838.059.092.01.106 2.41 30.295.015.175-.121.138-6.242 6.892 4.117 3.166.21.159-1.735 8.309 3.65 3.977.106.117v5.794l4.304 2.973.267.189-.111.308-2.073 5.503-.023.072-.045.054-6.469 7.821-.622 5.599h10.701l.118.094 4.585 3.595 4.915-3.271.322-.213.245.301 2.756 3.439.219.283-.017.021 3.61 5.462.232.357-.361.232-4.092 2.599v4.837l4.531.35 3.777-2.642.395-.272.219.423 4.682 8.964.052.095-.004.115-.381 10.649 6.018 3.384.277.154-.073.312-2.699 11.158 3.378 7.488 7.62 2.281.446.137-.184.433-5.822 13.576-1.155 16.889 5.855 6.215 6.335-4.837.101-.078.139-.006 9.515-.377 3.395-6.036.272-.48.395.388 5.141 5.133 6.689-7.789 10.509-22.549.092-.199.218-.038 7.028-1.17.118-.019.106.045 13.655 5.454.183.073.062.185 2.972 8.909 8.16-3.708.215-.097.199.135 5.073 3.509.095.067.051.109 9.189 20.812 11.94 22.103 7.515-4.908.033-.024.038-.014 7.806-3.12.227-.092.196.154 5.963 4.842 3.24-2.881.288-.251.281.256 4.779 4.404 4.39-4.388.13-.132.18.006 10.93.393.14.005.11.083 6.83 5.309 13.44-4.983.23-.082.18.155 4.48 3.728 18.49-8.463.13-.063.13.03 5.34 1.143 5.81-2.171-.73-4.334-.05-.302.27-.142 14.31-7.429-3.58-10.073-.09-.237.18-.187 4.8-5.143-1.99-4.963-9.14-5.976-.32-.208.17-.336 4.82-9.279-8.96-6.189-.38-.268.3-.352 4.18-4.865v-20.763l.27-.105 17.56-6.664.68-7.921.04-.358.36-.026 10.41-.69 2.37-6.424-.35-6.67-.02-.283 5.28-2.458-3.78-13.384-7-4.896-.24-.17.08-.288 4.59-16.232-6.36-16.946-.08-.22.14-.182 3.56-4.625.18-.241.29.099 12.36 4.229 7.88-1.712 2.76-4.818.1-.177.21-.029 9.34-1.385 1.67-5.986-15.55-32.221-.06-.128.02-.136 1.58-7.877.04-.163.13-.099 10.43-7.349-3.93-7.551-.15-.282.23-.218 10.1-9.453.1-.099.14-.014 8.99-.928 5.16-5.761.92-10.05-5.84-5.214-.13-.119-.01-.175-.31-6.497-3.72-5.577-.2-.298.26-.244 4.44-4.138-4.79-5.682-.26-.307.3-.272 11.67-10.712.05-.052.08-.026 5.25-2.159 3.89-5.684-7.35-15.295h-9.29l-.08-.035-7.26-3.15-.16-.072-.06-.163-3.79-9.768-.09-.234.17-.189 14.72-17.213v-8.456l-19.26-14.432zm22.85-112.683l9.76 11.558 2.14-2.132 2.66-13.334 3.2-6.223-3.55-4.8-8.89.71-5.32 8v6.222z" fill="#E2E2E2"/><path fill-rule="evenodd" clip-rule="evenodd" d="M1307.66 150.583l-2.22-24.486-6.79-3.843 16.08-11.083-2.27-7.462-29.89-2.49-3.62 4.751-8.15.677-.9 6.333-6.57-.453v-8.818l7.47-2.49 2.94-6.103-1.59-16.058-2.94-1.13-3.62 2.26-.23-5.878-7.02 2.711-4.75-5.426 1.81-8.82 5.89 5.202 3.39-2.715 4.98 5.428 2.95-6.784-.68-8.141 5.43-4.524 9.51.906 15.85-11.986-3.85-4.525 7.93 1.131-.22-7.689-8.61 1.584-2.49-5.426-11.55-2.263 4.53-5.653-5.89-4.297 5.44-3.844-6.8-8.822-19.24 11.308-1.14 9.272-5.21 6.785 12.91 5.2-7.02 3.168-20.83-5.653-24.23 16.055-36.23 19.675-9.74 15.832.91 4.747-6.57 1.809-9.28 8.37 6.57 8.14 5.88-1.808 8.84 4.976-.91 8.82-8.15.903-5.44 3.165-11.54-7.237v14.701l-11.78 8.822-4.55 8.79 19.55 14.642.17.127v9.184l-.1.119-14.67 17.14 3.64 9.368 7.01 3.044h9.64l.12.243 3.69 7.671 6.09.915.2.029.1.181 3.91 6.904 8.16-3.924.15-.073.16.05 7.66 2.446 5.81-5.194.11-.098.15-.011 8.99-.618 6.67-6.972-1.22-6.722-.07-.362.36-.115 6.72-2.136 1.83-6.4.08-.274.28-.029 5.73-.603 1.81-5.414.07-.224.23-.052 10.55-2.479 2.74-4.879.12-.199.22-.016 15.78-.946.31-.017.11.295 3.65 10.022 10.97-3.349.07-.02.07.001 11.99.309 9.68-27.752.16-.461.44.225 5.84 3.072 7.47-2.262zm74.11 124.191l3.52 3.519 6.87-5.629-2.99-.706-7.4 2.816zm-29.53 148.476l.55 2.642 3.41 2.2 1.66-4.18-1.88-3.081-3.74 2.419zm10.79-5.056l-.55 2.53 3.74 1.426 1.98-2.199-3.63-3.188-1.54 1.431zm-2.32 5.499l-.87 10.446 4.07 5.281 3.74-1.762-.77-10.335-2.97-2.75-3.2-.88zm5.84 23.199l-.55 3.85 1.76 3.849 4.85-2.2.66-2.526-6.72-2.973zm6.23 30.569l-1.8 3.449 2.7 3.902 3.31-3.146-2.1-3.909-2.11-.296zm.3 19.366l1.81 3.002 2.55-.899.6-4.809-3.3-.749-1.66 3.455zm2.26 7.805l-2.71 2.85 2.11 5.709 6.31-1.655-2.1-5.854-3.61-1.05zm-4.21 23.72l-3.16 3.153.3 13.512.15 3.155h3.31l2.7-7.81-.59-7.654-2.71-4.356zm-9.47 25.823l3.3.151 1.06 4.351-2.41 3.756-3.15 4.503-.31 4.951-.9 6.156-.6 4.657-1.5-.749-1.2-8.106-.3-10.064 4.06-4.204 2.25-1.95-.3-3.452zm-11.93 53.719l1.64-.719.65-11.731 2.02-2.346.38-3.064-2.14-1.367-3.33 1.561-1.82 1.434 1.63 5.149-.59 6.651 1.56 4.432zm12.38-11.798l1.11 2.538 3.32-1.171-.72-3.519-1.82-2.543-1.82 1.76-.07 2.935zm-63.85-344.724l-2.64 7.918 10.05 11.26 1.4-16.186-5.46-2.463-3.35-.529zm66.24 29.559l2.65 4.047 10.04 1.584 4.05-2.11-2.47-4.224-7.39-.88-6.88 1.583z" fill="#E2E2E2"/><path fill-rule="evenodd" clip-rule="evenodd" d="M1182.08 370.033l6.07-3.991 4.07-3.394 5.66-1.357-1.81-11.532 9.97-3.167 7.7-6.784 7.01-.227-5.2 7.465 4.98 4.297 7.24-8.143 1.82-12.89 6.56-2.488 5.21-6.785-5.43-4.071-4.76 5.882-4.98-4.751-1.36-23.293-4.3-13.795 1.36-10.179 8.38-11.985 4.75-.224 2.27-6.784 9.73 13.344 6.8-1.133.45-4.976-1.59-10.177-1.72-7.166-6.54-3.683-.17-.097-.04-.191-1.24-6.531-4.21-3.906-6.81.617-.32.03-.11-.298-4.05-10.581-5.81-1.22-.17-.036-9.42-13.664-6.58 6.871-.12.121-.16.01-9 .621-5.89 5.258-.18.161-.23-.074-7.72-2.469-8.37 4.024-.35.17-.2-.345-4-7.063-5.32-.799 3.44 7.161.11.22-.14.199-4.1 5.988-.07.102-.12.048-5.29 2.178-11.33 10.39 5.05 5.984-.29.272-4.47 4.167 3.59 5.374.06.094.01.119.31 6.444 5.85 5.237.16.139-.01.211-.95 10.397-.01.14-.1.104-5.36 5.986-.11.121-.16.018-9.01.93-9.75 9.136 3.95 7.594.17.327-.31.213-10.58 7.462-1.52 7.578 15.34 31.797 7.08-4.71.17-.115.2.068 16.03 5.336.23.078.05.237 1.78 8.892.03.149-.08.135-3.81 6.925 2.88 5.755 6.37-4.683.12-.081h8.57l.11.211 4.04 7.051zm12.37 274.234l-.87 26.399 4.76 8.139-18.57 1.587-6.11 13.342 17.2 17.639.46 6.559 9.51-9.045 16.3.223 11.78-9.497 7.02-14.02 3.39-38.45 4.76-20.125-3.17-23.55-4.65-1.319-.25-.067-.05-.255-1.13-5.634-7.74-5.522-8.66 6.49 5.14 5.567 8.2.686.44.035-.06.441-1.86 12.754-.05.35-.35.01-5.82.22.88 8.129.03.255-.21.14-8.36 5.567-.09.059-.12.01-13.73.913-3.45 4.511 2.67 5.328.24.482-.52.118-6.96 1.531z" fill="#E2E2E2"/><path fill-rule="evenodd" clip-rule="evenodd" d="M1186.87 615.815l6.03 9.845-2.26 7.242 3.68 10.528 6.38-1.401-2.55-5.078-.11-.24.16-.204 3.71-4.872.12-.156.19-.008 13.81-.92 8.06-5.363-.95-8.773.45-.019 5.91-.22 1.75-11.96-7.91-.662-.16-.014-.12-.117-5.57-6.028-.32-.346.38-.278 9.28-6.957.25-.186.25.18 8.13 5.796.13.097.04.166 1.11 5.542 4.15 1.173 2.06-26.675-2.95-8.365-13.13-26.683-4.3-5.203-3.85-18.772-2.62-6.244-.92-1.011-9.82-4.053-3.4-4.068 2.95-5.883-7.25-2.939-15.17-2.715-11.78 6.106-4.08 17.869-4.97-6.338-5.67 7.242-4.75-13.796-9.96 6.104-8.38-1.355.45-7.916 10.87-27.136 2.72-27.137 3.16-13.119-2.71-10.856 3.62-9.721-1.58-10.404 22.87-22.389 7.24 1.353.68-2.712-2.03-3.165 3.19-2.101-3.94-6.887h-7.81l-6.66 4.898-.4.294-.22-.445-3.21-6.405-.1-.196.11-.194 3.84-6.977-1.71-8.507-15.59-5.192-7.18 4.78-1.74 6.253-.08.263-.26.042-9.42 1.391-2.74 4.804-.09.163-.19.036-8.2 1.781-.11.023-.11-.037-12.18-4.168-3.23 4.194 6.32 16.858.05.132-.03.128-4.55 16.081 6.87 4.806.13.089.04.14 3.92 13.877.09.342-.32.151-5.09 2.368.34 6.476.01.088-.03.078-2.49 6.759-.1.258-.27.019-10.32.686-.68 7.826-.03.262-.25.093-17.53 6.655v20.496l-.11.118-3.97 4.625 8.88 6.137.31.215-4.99 9.595 8.94 5.838.12.073 2.19 5.459.09.25-.18.194-4.81 5.147 3.45 9.723 14.2-7.377.29-.149.22.236 4.68 5.066.19.204-.12.26-6.97 15.094.77 7.288.02.272-.23.136-5.24 2.988.35 5.965h11.92l.13.184 5.33 7.987 5.85-.366 9.55-8.773 1.53-6.501.08-.325h7.48l2.23-4.444.14-.272.3.045 5.07.778.26.038.08.254 4.68 14.417.08.244-.18.179-3.12 3.12-.1.092-.13.024-11.55 1.859 2.89 6.117.12.257-.2.21-4.59 4.974-1.15 6.504-.03.112-.07.089-6.8 7.921 2.91 3.626.2.251-.2.258-4.59 6.121v7.396l12.25 6.118.1.048.05.084 9.87 13.638 6.16-5.844.13-.118.17.006 13.23.228.15.006.11.086 5.86 4.725 17.66-5.955.73-.244-.19.745-1.85 7.477z" fill="#E2E2E2"/><path fill-rule="evenodd" clip-rule="evenodd" d="M1136.77 628.089l6.77 10.689 7.25 6.333 15.39-7.461 2.04-6.335 11.55-12.89 6.3-2.887 1.65-6.654-17.15 5.779-.22.078-.18-.145-5.92-4.779-12.92-.228-6.36 6.024-8.2 12.476zm-123.24-40.188l15.43-7.921 11.78 4.068 14.26-2.258 20.83 20.578 25.82 26.684 10.19-4.068 6.34 2.94 4.53-2.264 8.6 2.715 4.66-.607 8.17-12.419-9.91-13.711-12.4-6.183-.23-.123v-8.19l.08-.113 4.49-5.973-2.92-3.646-.22-.272.23-.263 6.95-8.091 1.15-6.511.02-.126.08-.089 4.49-4.861-3-6.364-.24-.505.56-.089 11.95-1.926 2.85-2.842-4.52-13.921-4.51-.696-2.21 4.397-.11.239h-7.34l-1.49 6.298-.03.126-.09.087-9.76 8.964-.11.095-.15.011-6.24.395-.24.015-.14-.204-5.33-7.996h-12.27l-.02-.398-.39-6.622-.02-.265.22-.125 5.23-2.983-.75-7.129-.01-.117.05-.102 6.9-14.943-4.27-4.622-28.71 14.91.73 4.373.06.341-.33.121-6.24 2.336-.11.045-.12-.026-5.33-1.138-18.6 8.51-.24.112-.2-.169-4.5-3.744-13.43 4.982-.22.084-.18-.146-6.92-5.371-10.6-.376-4.56 4.546-.28.286-.3-.277-4.79-4.413-3.225 2.861-.267.239-.278-.229-6.052-4.905-7.531 3.006-7.329 4.794 9.263 6.166.36.241-.248.355-2.764 3.86 4.273 4.267 7.731-4.291.366-.204.21.365 3.699 6.539 5.929-1.405.473-.116.04.495.88 11.629 6.04 3.451.4.229-.27.377-3.39 4.805 9.62 14.411zm202.57-77.261l-.32-.767 13.35 7.24 4.31 11.303 6.56 8.368 7.93 12.667 5.66 9.269 6.57 4.977 2.03 5.879 1.81 5.203 8.15 3.844 1.14 8.14 8.38 10.632.68-9.274-1.14-7.013 6.57-.451 2.49-1.129 6.11 3.167-4.97-10.404h-7.26l-7.69-3.391-8.83-6.336-5.66-14.47-3.17-9.276 6.79-3.844 12.68-.674-28.53-19.226-20.15-18.091-9.29-17.416-12.68-8.816-5.89-7.466-4.07 1.811-.9 4.298 7.46 5.201 4.08 6.106-2.26 2.938-3.63-.904-1.13 5.202 7.25 5.425 7.25 16.511-.6-.244.92 1.011zM132.866 410.623l1.891 3.59-.325 8.332 5.763 3.075.028.014 4.168 2.677 3.858-2.667.118-.083.144.01 5.846.307 6.136-3.744.668-4.666.057-.407.413.052 6.859.915 3.621-1.133.342-.102.159.317 2.705 5.405 6.096 2.169 1.351-1.2.413-6.794-3.917-2.943-.158-.118-.014-.194-.281-4.383-2.491-2.351-3.797-2.778-.188-.136.014-.229.427-6.677-7.591-5.872-.132-.107-.026-.167-.698-4.471-2.879-1.372-.241-.115v-3.089l-1.152-2.051-4.309-.26-.764 1.781-.088.211-.229.037-1.759.294-.243.042-.153-.192-1.193-1.456h-1.839l-2.816 2.549v4.937l-.081.113-1.664 2.306 1.428 1.073.158.116.01.194.149 2.347.026.466-.466-.019-3.119-.135-1.256 2.135.893 4.463-.156.159-9.716 9.825z" fill="#E2E2E2"/><path fill-rule="evenodd" clip-rule="evenodd" d="M118.101 364.926l-3.27 4.056-1.583 2.488.678 3.39 3.395 1.584-.451 5.203 8.604 5.428.226 9.948 6.755 12.822 9.369-9.48-.838-4.179-.029-.156.081-.14 1.466-2.497.128-.218.254.012 2.902.128-.104-1.689-1.605-1.201-.328-.249.241-.335 1.824-2.527v-4.687l-6.238-6.384-6.178-1.294-.078-.018-.069-.043-4.398-2.933-.127-.085-.043-.147-1.098-3.708-2.231-.372-2.217 1.247-.255.144-.225-.191-4.558-3.917z" fill="#E2E2E2"/><path fill-rule="evenodd" clip-rule="evenodd" d="M124.013 342.945l-3.747 1.613-1.811 3.618-2.72.681-.227 4.52 3.853 2.264-.939 8.452 4.561 3.919 2.087-1.177.13-.071.146.024 2.638.44.26.044.077.254 1.131 3.814 4.2 2.803 6.222 1.301.125.028.09.093 6.167 6.31 2.779-2.515.122-.11h2.555l.128.155 1.166 1.426 1.287-.215.698-1.624-2.786-3.764-.077-.099-.01-.123-.269-3.675-2.953-.942-.178-.056-.078-.168-.88-1.904-.038-.088v-3.174l-1.379-1.793-.087-.117v-6.748l-9.907-12.93-12.336-.466zm14.031-30.213l-6.229-.513-4.528-4.297.451-4.071-4.3-.905-2.495 6.106-9.055 7.687.68 4.978 4.753-.226 3.622 2.939 1.36 6.332 4.077-.452 4.755.904v3.166l-5.912 7.768 11.211.427 13.958-10.205-1.103-1.805-.064-.104v-2.544l.125-.123 1.66-1.661.038-.033.047-.03 2.371-1.396-.271-1.876-2.82-.203-1.536 1.206-.225.173-.243-.138-2.494-1.425-.106-.06-.059-.111-1.544-2.964-.042-.08-.003-.097-.122-2.727-.001-.12.06-.107 1.444-2.497-6.686-.431-.123-.007-.101-.075-.55-.403z" fill="#E2E2E2"/><path fill-rule="evenodd" clip-rule="evenodd" d="M157.739 274.446l-1.017 1.814-7.473 4.297-3.849 6.107-4.075 8.366-.451 6.783 1.131 4.073-2.944 3.618-.184 2.796.116.085 7.135.459 2.876-1.263.082-.036h.095l5.649.118 3.082-2.849.132-.123.175.011 4.155.237.298.016.082.286 1.75 6.003 1.553-.911.128-.077.146.021 3.09.475.177.029.102.148 1.523 2.169 8.082-.796 4.828-3.103 5.355-7.669.207-1.853-3.685-4.485-.076-.094-.018-.117-.553-4.082-9.073-1.606-.095-.018-.082-.059-4.39-3.201-.082-.059-.043-.083-5.819-10.908-.01-.019-.007-.016-1.839-4.366-1.745-.923-3.52.909-.088.023-.08-.012-.751-.115zm-20.576 68.638l9.849 12.861.087.116v6.746l1.376 1.793.088.116v3.277l.767 1.656 2.987.949 4.571.224 1.416-2.5.042-.073.06-.047 8.655-7.008.9-7.086-3.757-3.411-.061-.057-.038-.078-1.9-4.153-.041-.09.003-.096.231-7.209-11.409-6.038-13.826 10.108z" fill="#E2E2E2"/><path fill-rule="evenodd" clip-rule="evenodd" d="M167.4 362.001l-8.4 6.802-1.508 2.656-.126.227-.257-.014-4.404-.213.246 3.368 2.743 3.703 4.64.282.231.012.112.203 1.317 2.344.057.099v2.777l2.837 1.352.201.093.033.224.708 4.527 7.431 5.759 3.609-1.665.957-2.234-.565-3.608-1.045-2.202-.093-.196.107-.191 1.544-2.729.07-.117.121-.056 6.351-2.938 3.74-3.394.111-4.134-.89-2.774-3.345-2.649-.09-.074-.041-.11-1.095-2.955-3.185-.319-5.001 2.327-.104.045-.117-.011-3.561-.356-.172-.018-.112-.133-3.055-3.71z" fill="#E2E2E2"/><path fill-rule="evenodd" clip-rule="evenodd" d="M188.907 376.423l-.018.653-.003.179-.132.119-3.917 3.559-.048.043-.059.028-6.289 2.907-1.369 2.415.975 2.06.025.05.01.066.595 3.796.017.116-.046.113-1.067 2.486-.065.151-.147.067-3.756 1.733-.411 6.414 3.626 2.652.012.009.028.024 2.636 2.497.122.112.01.165.281 4.354 3.803 2.853 5.567-.965 11.132-5.734 1.405-1.943.118-9.237v-.033l.003-.03 1.07-6.287.021-.111.071-.087 4.87-5.769-3.91-4.326-2.313 1.471-.05.031-.054.017-2.019.595-.173.046-.157-.088-3.086-1.779-.102-.059-.057-.104-2.736-5.009-4.413-.22zm-25.668-37.411l-.227 7.14 1.822 3.976 3.856 3.502.161.149-.029.216-.925 7.289 3.1 3.76 3.274.327 4.999-2.325.103-.047.118.011 3.167.317.292-1.859.017-.106.057-.081 2.257-3.082.014-.018.017-.019 4.519-4.86v-3.212l.124-.121 2.706-2.706-.552-5.524-3.266-2.025-.106-.064-.054-.109-1.419-2.952-6.903.334-1.658 1.991-.234.279-.309-.187-6.004-3.647-1.681-.525-7.236 4.178z" fill="#E2E2E2"/><path fill-rule="evenodd" clip-rule="evenodd" d="M190.446 353.878l-4.497 4.835-2.184 2.989-.323 2.035 1.107 2.993 3.353 2.652.101.08.038.121.951 2.964.021.07-.002.069-.078 2.895 4.663.234.237.01.112.208 2.792 5.115 2.83 1.628 1.788-.526 2.561-1.627.302-.193.237.265 4.322 4.784 2.905 1.003 2.62-.107 8.673-7.727.016-.014.024-.018 4.601-3.25-1.074-2.9-1.768-4.823-8.887-14.95-5.421-.22-1.889 1.664-.245.217-.267-.178-2.139-1.425-.007-.006-2.111-1.477-1.06.867-.074.057-.092.024-3.799.948-.141.036-.133-.06-2.122-.952-1.454 1.352-.116.104-.151.007-4.22.227zm-3.134-18.135l1.289-1.608 2.058-2.969v-6.975l-3.223-1.776-.091-.05-.06-.092-2.495-3.914-.047-.078-.014-.087-.614-3.983-4.439 2.854-.083.054-.103.01-8.432.83-.243.022-.141-.201-1.559-2.221-2.765-.426-1.886 1.109-.463.275-.154-.519-1.815-6.236-3.681-.209-3.076 2.841-.125.116-.17-.003-5.721-.118-2.76 1.214-1.648 2.854.108 2.512 1.445 2.772 2.139 1.221 1.438-1.129.128-.103.163.014 3.322.238.342.024.045.338.356 2.488.043.279-.245.143-2.562 1.513-1.504 1.502v1.96l1.182 1.933 11.567 6.121 7.397-4.269.158-.093.177.055 1.901.591.043.014.047.031 5.746 3.487 1.55-1.857.118-.144.186-.007 7.171-.348z" fill="#E2E2E2"/><path fill-rule="evenodd" clip-rule="evenodd" d="M184.877 313.61l.673 4.375 2.385 3.742 3.35 1.849.22.117v7.733l-.076.109-2.135 3.082-.021.023-1.26 1.571 1.378 2.852 3.339 2.072.175.107.019.208.595 5.931.02.199-.139.138-2.727 2.726v2.581l3.797-.206 1.549-1.434.207-.195.253.117 2.241 1.008 3.563-.891 1.237-1.008.245-.203.262.182 2.366 1.655 1.87 1.246 1.776-1.567.125-.112.17.007 5.576.227 2.101-3.199 1.434-4.073-1.341-1.237-.029-.026-.019-.022-2.493-3.202-.044-.057-.026-.073-2.015-6.164-.044-.132.044-.128 1.422-4.387.028-.083.054-.064 4.631-5.336.021-.021.014-.014 2.866-2.634.644-3.224-3.656-4.317-8.706.116-.127.002-.106-.068-9.617-6.166-.207-.135.016-.243.219-3.638-1.14-.57-.973.974-.097.097-.143.02-8.224 1.14-.083.742-.013.107-.058.087-5.366 7.687z" fill="#E2E2E2"/><path fill-rule="evenodd" clip-rule="evenodd" d="M222.542 322.12l-2.311 2.123-4.555 5.248-1.355 4.173 1.951 5.965 2.431 3.121 1.516 1.396.201.187-.09.263-1.542 4.386-.018.053-.027.038-2.113 3.221 8.672 14.59 6.047-3.613.095-.055.11-.003 7.671-.257 8.432-5.078-1.762-4.931-8.256-10.565-4.083-1.784-.084-.037-.06-.064-3.135-3.394-.238-.256.21-.281 2.301-3.063.967-3.863-1.916-1.913-4.145 3.411-.303.251-.271-.285-3.924-4.179-.102-.109-.011-.151-.303-4.545z" fill="#E2E2E2"/><path fill-rule="evenodd" clip-rule="evenodd" d="M233.725 328.655l.559.557.168.166-.059.234-1.044 4.175-.024.082-.051.069-2.14 2.853 2.84 3.072 4.099 1.792.099.041.064.087 8.365 10.7.043.059.023.06 1.776 4.975 2.724-.543 1.975-2.841.117-.166.203-.014 5.058-.388.182-.014.136.128 1.979 1.857 3.169-1.81.922-10.988-4.986-2.737-.207-.115-.012-.234-.251-4.523-2.306-2.071-3.688 1.229-.17.057-.159-.085-12.173-6.466-7.231.802z" fill="#E2E2E2"/><path fill-rule="evenodd" clip-rule="evenodd" d="M246.103 329.633l7.265 3.858 3.745-1.248.235-.077.182.162 2.612 2.35.13.116.011.175.246 4.464 5.026 2.76.239.132-.022.27-.927 11.031 14.983.127 1.842-1.225.11-.075.133.004 4.929.132.291.007.099.27 1.365 3.848 3.982 1.739.076.033.055.057 3.399 3.453 5.534-5.63.128-.13.179.003 13.44.255.249-8.46.005-.156.104-.118 2.604-2.836-2.944-2.94-7.088 1.769-.165.043-.149-.088-10.718-6.265-.1-.061-.056-.102-6.481-11.906-9.746-5.894-14.911-.769-5.109 3.572-.097.071-.124.007-5.794.25-1.712 2.687-.052.081-.085.052-6.918 4.202zm-22.375-12.488l6.407-2.896-.883-2.999-.03-.093.019-.097 1.971-10.835.07-.371.374.024 5.532.383 7.014-6.816-.918-8.087-6.852.043-.045.442-.614-.546-7.555-6.72-4.523.273-.164.011-.125-.104-5.411-4.416-.107-.089-.035-.14-.959-3.975-4.029-2.863-1.478 1.134-.681 3.687-.068.378-.38-.033-9.964-.854-.137-.011-.106-.095-3.341-2.923-9.723-2.539-.078-.021-.065-.045-5.124-3.704-.023-.016-.027-.028-2.707-2.713-2.626 2.623-1.539 6.405-.017.073-.038.061-2.878 4.437-.097.15-.174.035-6.753 1.303 1.693 4.013 5.761 10.802 4.233 3.085 9.284 1.645.305.053.04.305.578 4.271 3.723 4.531.114.138-.019.173-.059.529 7.869-1.092 1.088-1.086.215-.213.272.135 1.66.832.25.123-.015.277-.224 3.669 9.305 5.964 8.776-.116.199-.004.129.153 3.71 4.38z" fill="#E2E2E2"/><path fill-rule="evenodd" clip-rule="evenodd" d="M265.211 318.236l-5.473-5.222-.18-.173.068-.243 2.109-7.671-4.066-4.985-3.536.187-.137.005-.111-.072-9.187-5.926-7.055 6.86-.137.131-.186-.014-5.346-.369-1.888 10.364.96 3.256.104.351-.335.149-6.83 3.088-.661 3.293.354 5.215 3.546 3.779 4.142-3.404.295-.243.269.269 1.032 1.034 8.034-.892.132-.016.111.062 4 2.123 7.262-4.408 1.778-2.789.12-.186.217-.01 5.889-.255 4.706-3.288zm-10.198 161.853l-.242 5.133 2.715 6.56 3.171-.678 2.264-2.039 4.757 2.263-.227 3.169-1.359 2.938 1.586 1.809 4.528 1.582 1.811 6.332 1.811 7.916-2.037 4.977 2.037 4.068 5.209-3.161 2.264.675 1.586 3.391 1.131 5.884 3.395 2.486 4.08-2.715 3.849.229 7.244 3.163-.227 3.391 1.586 2.715 3.624.682 2.942-3.169 3.171 3.169 4.076 2.485-.907 6.332.907 3.619 4.075 4.52 3.395 1.134 3.399-2.04 2.718.906 2.038 4.074 8.377 2.714 3.623-2.714 3.623-5.201-6.406-14.004-.574-.39-.113-.083-.048-.137-1.494-4.475.234-.182 3.478-2.719.842-2.515-1.72-3.722-8.977-2.744-4.177 1.102-2.165 5.092-.123.28-.307-.029-5.42-.523-.151-.016-.105-.107-4.937-4.929-9.129-2.085-.191-.041-.088-.177-1.983-3.829-.135-.263.203-.213 3.561-3.8-2.236-2.356-.128-.132.009-.178.131-2.375.018-.297.284-.083 3.286-.973.35-5.572-4.696.234-2.284 1.523-.573.379-.08-.681-.792-6.597-.04-.328.305-.116 2.125-.828.239-3.912-2.128-2.374-.113-.126.005-.167.262-9.225-2.564-3.58-.078-.114v-12.445l-2.473-5.461-.058-.131.033-.136 1.14-4.934-3.267-3.674-.137.575-.005.024-1.688 5.572-.01.038-.019.04-1.298 2.456-.057.111-.113.064-9.622 5.383-2.406 4.427-.082.151-.163.05-6.616 2.072-.033.009-.032.005-3.384.502-6.781 5.877-.104.092-.139.01-9.798.764-.258.347zm-47.59-3.952l4.323 4.111-.454 4.521-1.129 3.621 2.487 4.525 4.984-2.263 2.489-4.979 2.946-3.162 7.021 1.357 3.849-3.167 2.715-.229 2.038 1.587 7.021-.452 5.207-1.359 3.501-.772.212-.283.121-3.07-.371-2.59-3.444-4.967-.086-.127.01-.15.508-6.054-3.917-4.92-.057-.073-.024-.087-1.424-5.571-.011-.035-.002-.038-.242-3.221-3.232-1.076-.042-.015-.026-.014-9.6-5.182-.217-.116-.005-.245-.122-5.225-9.39-1.625-.074-.016-.066-.033-9.991-5.833-.208-.123v-3.498l-1.394-2.434-4.842-.501-.205-.019-.107-.17-7.109-11.176-9.453 4.868-.056.031-.062.009-5.478.949-.42 6.856-.011.175-.131.113-1.513 1.353.437 5.454 2.843 3.713 4.249.89.119.024.087.087 7.649 7.408.128.12v5.887l-.109.123-3.378 3.825-.199 3.606 2.727.194 3.15-1.348.564-.244.022.618.228 6.123 1.918 2.767 4.467.89.33.07.008.334.243 10.253z" fill="#E2E2E2"/><path fill-rule="evenodd" clip-rule="evenodd" d="M246.54 448.252l.232 3.162 1.397 5.449 3.964 4.977.106.139-.014.157-.505 6.075 3.416 4.929.057.083.012.095.389 2.722.005.033-.004.045-.107 2.763 9.381-.731 6.769-5.866.092-.083.122-.021 3.469-.511 6.426-2.013 2.381-4.384.058-.109.104-.057 9.622-5.381 1.22-2.311 1.671-5.524.603-2.531-4.795-6.923-2.048-1.824-2.197 1.498-.071.049-.081.019-1.948.384-.269.059-.158-.228-3.903-5.602-1.18.88-4.906 5.16-.04.043-.052.03-2.852 1.682-.149.088-.17-.043-3.631-.906-.097-.023-.078-.069-5.558-4.905-3.752-2.749-3.468.371-5.777.753-2.291 3.25-.101 1.421 1.825.91.279.137-.055.306-.647 3.761-.038.224-.212.092-2.446 1.048z" fill="#E2E2E2"/><path fill-rule="evenodd" clip-rule="evenodd" d="M233.289 436.237l.118 5.144 9.358 5.05 3.31 1.1 2.368-1.012.557-3.227-1.795-.894-.252-.127.021-.279.128-1.814.007-.117.07-.097 2.465-3.498.107-.151.184-.024 5.966-.775.01-.005 3.633-.385.161-.017.134.095 3.889 2.854.011.003.019.021 5.499 4.849 3.369.844 2.657-1.568 4.889-5.137.022-.026.03-.024 1.205-.904-3.615-4.455-.222-.275.229-.264 1.568-1.81-.34-3.867-7.294-.497-.2-.009-.116-.166-4.163-5.922-5.243-.25-.267-.012-.104-.249-1.922-4.733-5.726-6.818-.778.953-1.018 5.08-.017.083-.047.067-1.294 1.943-.181.273-.31-.109-8.781-3.046v9.29l-.106.116-1.884 2.118 1.683 3.241.085.159-.061.175-.779 2.206-.033.087-.078.072-7.126 6.74z" fill="#E2E2E2"/><path fill-rule="evenodd" clip-rule="evenodd" d="M214.177 387.22l-2.538.108-.078.003-.075-.028-2.814-.973-4.845 5.739-1.046 6.141-.116 9.333-.002.131-.078.111-1.544 2.133-.059.083-.088.049-1.074.549 6.954 10.944 4.854.496.217.022.108.187 1.557 2.719.056.098v3.24l9.713 5.669 9.451 1.641 7.032-6.653.686-1.935-1.732-3.339-.132-.258.193-.215 1.969-2.214v-9.167l-3.372-.229-.247-.019-.109-.223-2.368-5.115-5.426-.963-1.794 1.551-.38.327-.257-.428-3.374-5.571-.052-.084-.007-.097-.489-6.223h-6.002l-.101-.281-2.591-7.259z" fill="#E2E2E2"/><path fill-rule="evenodd" clip-rule="evenodd" d="M228.077 376.073l-4.553 3.216-8.56 7.624 2.497 7.005h6.191l.031.39.512 6.506 3.06 5.06 1.572-1.356.152-.134.195.035 5.835 1.036.221.04.092.199 2.357 5.09 3.067.21v-.142l.555.194 9.033 3.134 1.074-1.606 1.02-5.099.021-.102.067-.083 1.152-1.405 1.874-3.121.109-2.222-2.5-1.433-.177-.101-.031-.204-.359-2.642-1.54-.867-.824 1.34-.12.189-.224.008-6.084.25-.803 2.004-.338-.055-3.112-.518-.207-.035-.095-.18-3.244-6.092-.038-.069-.007-.088-.894-8.921-6.977-7.055zm28.419 24.453l-.123 2.491-.056.089-1.792 2.983 5.905 7.029.046.05.024.063.829 2.042 4.372-1.254.02-.009.042-.005 5.775-.736.605-4.472.028-.208.184-.102 2.984-1.684.054-.029.052-.016 5.945-1.483.607-4.962-1.629-8.76-11.318-3.642-6.475 1.832-.623 6.71-.016.19-.156.111-5.284 3.772z" fill="#E2E2E2"/><path fill-rule="evenodd" clip-rule="evenodd" d="M225.669 367.643l1.664 4.534 1.155 3.115 7.271 7.351.104.106.014.149.9 8.983 3.109 5.838 2.571.428.654-1.63.102-.253.272-.01 6.131-.253.921-1.494.212-.345.355.2 2.073 1.167.182.103.032.209.359 2.641 2.312 1.32 5.073-3.621.631-6.802.028-.291.277-.078 6.577-1.857.321-10.205.39-.016 5.941-.258 3.198-2.553.232-.188.253.16 6.402 4.011 5.055-7.067.246-.345.343.251 6.015 4.34 4.184-1.843 1.83-2.169-3.563-4.637-7.328-7.444-4.075-1.78-.17-.074-.06-.173-1.329-3.743-4.505-.118-1.837 1.222-.104.071-.134-.004-15.453-.124-3.534 2.016-.27.153-.229-.213-2.068-1.942-4.675.358-1.962 2.812-.096.142-.17.033-3.171.634-8.757 5.272-.093.057-.111.006-7.677.254-6.018 3.594z" fill="#E2E2E2"/><path fill-rule="evenodd" clip-rule="evenodd" d="M285.124 378.933l-6.337-3.969-3.07 2.452-.108.085-.137.008-5.686.245-.295 9.416 11.373 3.661.237.076.049.248 1.684 9.069.014.063-.007.064-.563 4.607 3.063-1.211.043-.019.054-.006 9.514-1.318.095-.014.088.03 6.74 2.11.153.05.083.137 2.109 3.512 3.446-3.211-.256-7.519-1.528-3.687-4.614-5.117-11.882-2.086-.104-.018-.086-.071-2.776-2.245-.113-.092-.031-.142-1.152-5.108z" fill="#E2E2E2"/><path fill-rule="evenodd" clip-rule="evenodd" d="M307.679 406.157l-3.266 3.04-.38.355-.267-.447-2.295-3.82-6.497-2.034-9.367 1.3-3.444 1.361-.005.04-.283.068-6.177 1.542-2.748 1.552-.62 4.588-.041.317-.321.043-6.058.776-4.262 1.22.694 1.719 5.18.241.206.01.12.171 4.163 5.922 7.455.506.359.024.036.361.387 4.409.014.168-.116.137-1.458 1.679 3.416 4.21.026-.021.25.355 3.992 5.733 1.594-.317 2.39-1.634.274-.185.247.218 2.335 2.074.033.028.033.045 4.928 7.128.108.155-.042.181-.276 1.148 3.803 4.273.147.161-.052.213-1.154 5.007 2.337 5.168h1.041l1.475-3.314 1.849-4.092.118-.259.284.011 3.171.131.11.004.095.059 4.155 2.566.995-1.388-.744-4.574-2.945-2.94-.148-.151.028-.208.661-4.619.061-.407.407.049 7.708.913 6.269-2.005.819-5.133-2.222-.329-.158-.026-.103-.122-1.455-1.713-.291-.345.366-.267 3.294-2.404.168-1.114-2.866-.342-.3-.038-.062-.293-.397-1.847-.035-.156.078-.136 1.672-2.979-1.074-.807-5.577 3.041-.135.072-.149-.029-6.608-1.317-.177-.04-.097-.156-2.776-4.487-.029-.048-.014-.044-1.717-5.41-.018-.057-.003-.072-.122-12.366z" fill="#E2E2E2"/><path fill-rule="evenodd" clip-rule="evenodd" d="M309.529 421.24l.801 2.521 2.646 4.283 6.281 1.254 5.678-3.094.236-.127.217.161 1.585 1.187.295.219-.178.322-1.772 3.162.299 1.398 3.003.358.435.054-.068.428-.262 1.717-.027.172-.141.1-3.074 2.244 1.062 1.251 2.449.365h3.909l3.971-3.59.13-9.057.007-.447.44.034 3.629.248 3.773-4.146 2.353-6.126.029-.078.056-.057 3.643-3.904 4.217-10.845-2.13-1.655-.028-.024-.031-.033-2.486-2.859-3.329.621-.208.038-.157-.148-4.38-4.116-6.821-.243-.116 2.357v.033l-.396 3.3-.02.163-.129.109-4.888 4.091-.207.171-.243-.118-3.889-1.81-3.02-.232-3.076 11.147-.073.263-.27.038-6.632 1.022-3.093 7.878z" fill="#E2E2E2"/><path fill-rule="evenodd" clip-rule="evenodd" d="M337.458 436.226l-4.111 3.724-.123.107h-3.898l-.868 5.454-.039.253-.249.078-6.604 2.112-.09.028-.088-.007-7.39-.877-.573 4.004 2.894 2.885.095.093.021.141.793 4.88.027.172-.098.14-1.322 1.845-.231.321-.333-.205-4.399-2.715-2.778-.118-1.733 3.835h-.001l-1.584 3.558-.111.251h-1.438v11.849l2.565 3.586.084.113-.006.14-.262 9.207 2.138 2.379.116.133-.012.174-.262 4.355-.018.267-.253.099-2.071.807.673 5.591 1.807-1.202.096-.063.118-.005 5.284-.269.472-.019-.429 6.802-.015.291-.285.089-3.282.97-.106 1.897 2.385 2.511.275.282-.275.293-3.627 3.872 1.757 3.39 9.058 2.071.121.022.081.089 4.917 4.91 4.958.48 2.123-4.997.085-.185.199-.052 4.226-1.121.616-3.805.529-3.961.04-.291.283-.064 5.397-1.256.621-4.335.012-.077.043-.073 4.49-7.655.062-.097.097-.057 7.533-4.224.194-.107.203.102 3.742 1.93h1.825l1.367-4.835.062-.226.22-.067 3.758-1.163 2.08-1.639-2.904-3.016-1.697.792-2.768 1.45-.16.083-.17-.057-12.022-3.957-.069-.024-.063-.051-2.773-2.245-.079-.061-.041-.095-3.173-7.126-.066-.151.052-.154 1.452-4.224.05-.145.132-.078 5.682-3.431.117-.072.136.013 3.171.264.186.014.114.152 2.512 3.299.081.111.004.137.125 5.474 2.288 1.828 2.937-1.342.102-.049.111.009 2.776.265.114.008.089.07 1.853 1.316.02.019.028.026 4.269 4.136 1.988-1.105 1.411-2.823-2.616-3.484-.064-.086-.018-.108-.397-2.768-.016-.137.061-.121 2.741-5.08.59-4.132-2.228-.335-.055-.01-.051-.017-7.797-3.438-.045-.019-.049-.033-3.301-2.644-.099-.076-.038-.123-1.202-3.711-3.182.825-.277.069-.169-.229-1.453-1.98-.063-.083-.015-.102-.53-3.431h.004l-.467-2.091-3.579-.861-.296-.074-.024-.302-.368-4.647-8.346-.379-.406-.014v-6.57l-3.638.116zm25.706-71.565l-5.574 2.543-.161.073-.165-.062-15.859-6.106-5.354 5.993-.263.298-.313-.251-2.52-2.012-.16-.13v-9.684l-1.311-3.107-.101-.244.177-.199 12.702-14.183-.531-6.128-3.685-4.466-4.992.788-7.208 4.706-.113.074-.135-.005-6.422-.267-.902 2.254 4.552 4.279.31.291-.3.309-5.593 5.769-.007.011-2.761 3.007-.257 8.718-.01.42-.415-.011-13.673-.256-5.421 5.511 3.408 3.465.011.009.022.031 3.794 4.927.205.267-.217.26-2.115 2.505-.067.075-.085.039-4.493 1.981-.22.097-.197-.141-5.868-4.237-4.927 6.892 1.116 4.951 2.572 2.083 11.92 2.091.144.024.097.111 4.755 5.277.048.052.026.068 1.588 3.831.029.067.004.078.263 7.786.005.191-.005.005.132 13.072.481 1.514 2.801-7.138.09-.227.24-.036 6.601-1.012 3.098-11.222.093-.334.342.029 3.44.262.071.005.075.035 3.719 1.736 4.554-3.815.376-3.122.132-2.75.019-.414.417.014 7.402.265.156.003.114.108 4.337 4.078 3.36-.623.233-.044.158.184 2.612 2.999 2.04 1.585 3.48-3.907 2.706-3.664-3.079-2.691-.142-.126v-4.889l.257-.109 11.73-4.931-.395-6.308-6.998-9.245zm261.805-125.82l3.156.348.583-2.098-2.104-2.335-2.568.817.933 3.268zm10.049 16.215l3.736 1.401 3.857-.701-1.636-5.716-4.675 2.566-1.282 2.45z" fill="#E2E2E2"/><path fill-rule="evenodd" clip-rule="evenodd" d="M643.825 257.901l-4.563.268-2.265 8.141-7.472-6.784-2.04 7.01 7.929 8.593.453 7.462-14.494-12.89-.451-8.141 6.112-7.462.905-11.986-2.491 1.131-2.944 8.142-4.527 4.069-4.755 1.359-4.53 6.784.226 17.864-11.095 17.414.68 10.629h11.324l9.283 11.081v10.629l-6.57 7.916 1.813 3.618 5.209 2.94-9.735 2.261-2.718-10.177 7.244-12.663-3.168-9.5-11.097-1.583-6.115 5.882-.678 13.342-10.192 10.402-9.282 3.394-6.341 6.785-21.283-13.119v-6.332l14.264 6.557 7.474-2.936 12.001-7.691 8.151-16.284-1.358-8.819 13.814-32.793 1.582-5.651-1.582-7.464 9.057-8.594 1.813-11.985-7.021-9.273 7.21-.94-1.057-8.726-7.15-.53-.53 6.347 1.527 3.849-4.531-1.808-6.793 5.202-8.152 10.402-6.34 6.104-9.51 2.265-4.984 4.747 4.984 6.557-5.434 9.725-7.473 2.263-.227 3.392 6.568 6.785-2.266 6.33 1.135 4.072 2.489 3.619-8.379 7.687-2.716-4.295-2.266-9.724-8.842-14.173-5.064 4.212 2.975 5.283.115.206-.115.208-6.205 11.012 2.392 7.855.061.187-.107.161-3.926 6.057-.141.049-6.177 2.056-4.118 4.799-.12.137-.182.009-15.582.693-7.933 6.542-.111.092-.149.001-5.104.082-.456 13.233-.003.126-.075.106-6.099 8.574 3.952 8.33 15.015 1.135.125.011.103.078 7.168 5.542.156.121.007.199.224 7.211 2.531 2.318 17.194.917.191.01.115.149 5.318 6.696.089.108.003.139.457 10.951 2.924 3.818.092.122-.003.147-.221 7.185h11.524l.118.114 10.359 9.418 14.268 6.209.125.056.067.111 5.269 8.69 9.307 5.669 9.454.901 7.732-5.679.279-.21.259.239 7.039 6.579 7.231-.224.227-.01.13.194 5.433 7.912 2.807.215.156.016 5.324 5.317 10.783-13.684.677-8.82.01-.123.068-.092 7.135-9.844-1.319-7.921-8.347-6.253.045-.253 2.038-11.528-5.41-7.431-.096-.128.018-.161 1.707-16.014-6.789-8.815-.138-.179.069-.209 2.708-8.112-2.694-6.395-.187-.447.465-.125 8.757-2.354 3.705-9.399-1.941-11.081-9.156-2.286-.144-.036-.09-.118-8.416-11.093-.121-.158.048-.197 1.683-6.724.05-.196.191-.085 12.596-5.631 1.265-5.033-5.322-11.292-.059-.12.026-.133 1.342-7.396.059-.291.29-.049 5.51-.916-5.149-10.926-.031-.064-.007-.078-.083-.89zM455.154 527.174l6.356-.116 5.206 8.822 4.203.663.13-.142 1.383-3.688.038-.097.069-.064 7.439-6.969 1.152-5.282.024-.109.075-.083 4.479-4.938.159-.18.231.048 5.608 1.119 1.456-2.281.897-4.039-1.541-4.175-4.767-1.814-.198-.078-.057-.206-.708-2.589-.057-.208.139-.169 2.272-2.727.696-6.929.016-.15.111-.106 8.007-7.762.299-.293.293.293 4.474 4.472.251.248-.204.292-2.45 3.464 3.124.585.092.014.075.054 8.108 5.785 6.191-.92.141-.019.125.072 5.801 3.242 5.648.229 7.643-5.238-13.661-10.232-.081-.062-.044-.084-6.595-12.938-.009-.019-4.862-10.867-3.799-.895-.026-.005-.037-.013-8.007-3.295-.073-.028-.059-.055-4.014-3.8-1.19 3.173-.108.282-.302-.01-6.392-.227-1.518 1.732-.052.058-.068.038-4.004 2.117-.135.067-.149-.029-3.105-.665-1.968 1.526-.114.088h-4.233l-.083-.033-5.057-2.2-2.175 4.127-.094.178-.199.04-7.168 1.402-4.613 7.956-.123.218-.255-.01-12.773-.418-3.48 7.351.212 7.169.01.326-.319.092-3.395.944-1.168 5.679 2.906 6.716.007.022.012.04 1.185 4.432 5.374 1.641.092.029.068.062 4.98 4.507.134.121.005.177.147 4.636 7.335 6.403.121.106.019.166.467 4.195.004.029v.009z" fill="#E2E2E2"/><path fill-rule="evenodd" clip-rule="evenodd" d="M394.635 519.357l12.754 2.952 7.244 4.525 4.304-3.392 6.341 3.392 21.285 4.074 7.737-3.528.009-.18-.448-4.004-7.345-6.421-.135-.119-.007-.18-.149-4.644-4.778-4.319-5.509-1.684-.224-.069-.061-.224-1.237-4.627-2.944-6.811-.053-.123.026-.131 1.179-5.737-6.054-2.876-4.483 2.239-.305.15-.215-.272-3.657-4.716-7.841-2.715-8.92 2.726.474 2.507.007.038-.002.048-.154 8.077-.004.21-.166.121-12.133 9.055-.285 4.366 9.115 5.459.352.213-.201.355-3.517 6.265z" fill="#E2E2E2"/><path fill-rule="evenodd" clip-rule="evenodd" d="M344.571 541.538l2.585-3.395 8.607-.681.677-6.108 4.075-2.257 4.306.225 5.207 4.072 3.168-2.939-3.848-6.336-1.811-6.33 4.301-4.526 3.849-1.127 5.888 6.328 12.212.77.002-.033.012-.078.04-.069 3.376-6.019-8.983-5.382-.222-.131.018-.253.312-4.817.014-.194.154-.117 12.128-9.048.151-7.827-1.058-5.577-3.244-3.1-1.749 1.071-.149.092-.172-.038-3.112-.78-.096-.022-.076-.065-12.901-11.045-2.245.565-.623 4.34-.008.073-2.746 5.088.362 2.532 2.711 3.61.157.205-.12.234-1.586 3.167-.057.116-.114.064-2.379 1.318-.272.151-.222-.22-4.471-4.33-1.734-1.237-2.547-.24-3.07 1.405-.236.107-.2-.161-2.644-2.112-.156-.126v-.194l-.13-5.539-2.314-3.036-2.852-.237-5.431 3.278-1.352 3.927 3.064 6.877 2.633 2.129 11.786 3.879 2.614-1.368.018-.004 1.982-.925.271-.127.212.215 3.435 3.562.322.335-.366.287-2.51 1.982-.062.047-.077.026-3.61 1.118-1.478 5.232h-2.664l-.094-.045-3.631-1.878-7.237 4.059-4.389 7.478-.649 4.541-.042.287-.281.063-5.398 1.254-.489 3.671-.004.007-.6 3.734 8.922 2.725.182.057.078.172 1.867 4.038.071.151-.054.156-.933 2.798-.04.121-.101.078-3.344 2.618 1.214 3.638z" fill="#E2E2E2"/><path fill-rule="evenodd" clip-rule="evenodd" d="M434.939 377.67l-2.209 3.783-1.585 3.624-.024.048-.028.039-7.274 9.615-.017.024-.025.026-10.913 10.685-.057.054-.066.029-9.18 4.17-.196 4.117 2.944 5.667.13.255-.188.213-3.977 4.603-.627 6.067-.014.122-.078.098-2.569 3.205-.118.146-.189.01-8.667.415-1.25 5.625-.146.092-3.64 2.351-.3.194-.241-.267-3.48-3.86-4.836 7.649-.111.177-.203.019-7.963.837-6.822 8.061 1.21 3.751 3.156 2.521 7.699 3.389 2.503.372 2.647-.665.214-.054.161.141 12.995 11.124 2.841.709 1.874-1.152.276-.165.236.224 3.578 3.414.099.099.026.13.455 2.415 8.965-2.739.128-.04.129.045 8.094 2.797.12.038.074.104 3.524 4.539 4.357-2.176.186-.092.184.087 6.392 3.042 3.175-.887-.205-6.939-.002-.1.044-.089 3.636-7.692.118-.248.279.005 12.799.418 4.451-7.672-3.278-4.915-.082-.123.014-.145.427-4.706v-.019l1.245-8.496-8.757-5.626-.114-.073-.052-.126-1.497-3.85-.089-.227.156-.19 5.009-6.044-1.034-5.149v-.003l-1.709-9.191-.035-.177.106-.145 4.196-5.868-.206-6.832-4.838-11.554-8.226-4.848-.156-.09-.039-.182-1.259-5.649-2.281-2.319z" fill="#E2E2E2"/><path fill-rule="evenodd" clip-rule="evenodd" d="M491.321 328.252l-4.909.078-7.064 6.249-.109.097-.147.009-6.384.334-.247.014-.13-.206-2.087-3.276-10.294 9.154-1.646 5.92-.035.123-.09.082-10.873 9.686-11.927 20.401 2.528 2.566.081.086.028.118 1.242 5.593 8.19 4.823.121.071.056.128 4.923 11.757.026.07.004.079.213 7.053.004.141-.082.116-4.176 5.838 1.68 9.01 1.07 5.341.038.199-.128.151-4.979 6.008 1.358 3.49 8.875 5.698.226.146-.037.266-1.283 8.765-.415 4.526 3.189 4.773 6.881-1.343 2.261-4.292.182-.346 5.692 2.472h3.774l2.007-1.557.155-.121.192.039 3.147.676 3.801-2.01 1.599-1.824.131-.151.199.009 6.294.225 1.304-3.481.224-.592.46.438 4.418 4.181 7.898 3.245 3.978.934.203.048.085.189 4.939 11.038 6.554 12.854 13.826 10.36 7.607-4.35.888-4.657.035-.175.15-.102 4.627-3.003.128-.083.15.021 5.435.651 4.749-15.137.037-.128.111-.082 6.703-5.079.172-.132.201.059 7.168 2.082.069.014.047.033 9.61 6.4 14.669.234h.139l.109.078 10.182 7.459 12.247-7.022.234-.136.224.156 6.337 4.524 7.182-.894 7.874-3.371 1.424-3.656-8.937-5.134-.212-.121v-11.381l-5.315-5.308-2.849-.22-.201-.014-.118-.17-5.419-7.893-7.166.225-.172.003-.129-.116-6.913-6.462-7.582 5.572-.127.093-.161-.015-9.711-.924-.096-.01-.083-.05-9.48-5.777-.092-.052-.05-.088-5.248-8.661-14.215-6.18-.064-.029-.052-.044-10.282-9.355h-12.065l.014-.433.227-7.476-2.918-3.808-.078-.104-.007-.136-.454-10.946-5.116-6.439-17.153-.915-.149-.007-.111-.102-2.774-2.542-.132-.121-.007-.177-.225-7.19-6.912-5.343-15.133-1.144-.245-.02-.102-.22-4.166-8.777-.104-.224.144-.199 6.167-8.673.451-13.065zm-295.194-95.925l-2.046 1.634-1.235 3.208.259 10.622.01.312-.3.097-7.851 2.53-.488 3.65-.043.334-.337.03-2.583.237-.708 2.589-.027.112-.08.075-1.14 1.142 2.682 2.685 5.038 3.64 9.74 2.543.097.025.075.067 3.312 2.897 9.445.811.64-3.469.032-.157.128-.101 1.849-1.422.248-.193.254.182 4.411 3.134.127.091.04.156.962 3.988 5.17 4.224 4.533-.276.177-.008.128.114 7.073 6.291.335-3.226-1.229-3.959-3.211-3.491-.22-.239.177-.274 3.053-4.718-.546-5.189-2.812-5.485-.068-.133.029-.142.764-3.834-2.684-.366-.283-.038-.069-.277-.633-2.54-4.805-.132-.242-.007-.114-.209-1.424-2.566-.111-.199.105-.2 1.223-2.311-.251-3.021-3.716-1.243-1.1 1.468-.144.192-.239-.026-2.562-.286-.134-.014-.101-.088-2.56-2.294-4.077.544-.281.037-.14-.246-2.354-4.157-2.687-1.278-4.651 2.328-.444.22-.146-.475-1.24-3.92z" fill="#E2E2E2"/><path fill-rule="evenodd" clip-rule="evenodd" d="M245.041 293.357l9.184 5.923 3.614-.188.209-.013.138.168 4.338 5.318.137.169-.059.207-2.101 7.638 5.55 5.293 15.005.775.108.007.087.052 9.931 6.006.099.056.055.104 6.48 11.906 10.465 6.115 7.153-1.784.234-.056.167.165 3.094 3.094 5.007-5.166-4.452-4.184-.208-.196.106-.267 1.121-2.796.113-.277.298.012 6.583.275 6.976-4.558v-4.827l-4.804-2.401-.338-.168 1.658-4.42-4.467-1.49-2.931 1.333-.406.183-.162-.416-3.539-8.969-8.684-.272-.185-.007-.12-.138-5.56-6.385-5.268-3.323-.035-.024-.029-.026-5.042-4.756-.01-.007-.016-.019-14.842-16.785-.128-.143.024-.188 1.12-8.392.018-.125 5.547-6.334-3.597-1.199-.294-.097v-6.029l-4.46.054-3.011 2.874-.128.127-.179-.007-6.263-.285-.168-.01-.12-.121-2.936-3.077-2.811-.068-4.139 1.381-6.691 5.021-4.368 9.169-.125.263-.289-.024-7.281-.562-4.063 2.169-2.893 4.481 3.051 3.319.062.071.032.092 1.28 4.13.024.082-.01.085-.377 3.664 7.137-.045.378-.002.042.376.964 8.469zm-50.195-81.821l-4.385.498-7.019 5.428-4.077 5.653-7.924-.452-4.755 7.916-5.66.679-.228 6.103-8.377 5.428.453 7.916 3.397 4.297-3.85 4.751.906 3.844 5.431 1.357 1.133 5.653-1.712 3.053.356.052 3.594-.926.156-.039.142.074 1.888.998 6.942-1.336 2.739-4.231 1.553-6.451.028-.122.081-.081 4.365-4.359.755-2.762.078-.281.291-.027 2.54-.231.478-3.581.033-.265.254-.081 7.806-2.514-.255-10.388-.002-.082.03-.078 1.308-3.397.04-.106.088-.071 2.514-2.01 2.517-7.786-3.296-5.319-.057-.092-.006-.11-.293-6.522z" fill="#E2E2E2"/><path fill-rule="evenodd" clip-rule="evenodd" d="M237.799 200.45l-7.482.277-9.286 3.392-.451 7.462.902 3.393-2.715 2.262-2.04-5.202-3.622-.226-5.661-5.429-7.017 4.525-4.742.537.293 6.469 3.339 5.392.104.166-.062.184-2.573 7.964 1.235 3.911 4.398-2.199.185-.092.184.089 2.989 1.424.118.054.064.119 2.282 4.027 3.99-.536.19-.022.144.128 2.604 2.332 2.189.242 1.317-1.758.288.095 4.271 1.426.265.085.023.279.285 3.418.01.121-.059.108-1.174 2.223 1.196 2.153 4.884.139.321.005.076.312.644 2.573 2.845.386.445.062-.909 4.571 2.774 5.423.038.071.007.076.505 4.79 3.72-1.983.109-.061.12.01 7.114.548 4.286-8.997.044-.09.085-.064 6.831-5.129.056-.041.064-.023 4.267-1.424.07-.021h.071l5.971.139 3.117-2.495-5.771-7.521-3.685-.684-.252-.047-.076-.246-1.75-5.795-2.304.22-.387 3.506-.054.47-.459-.104-1.851-.428-.179-.043-.09-.158-1.402-2.42-1.82.537-.263 4.121-.033.491-.479-.108-2.564-.568-.2-.045-.088-.185-1.45-3.032-7.13.137-.227.005-.13-.189-2.861-4.231h-6.951l-.127-.154-1.851-2.282-.217-.267.217-.265 11.571-13.978-.673-14.307zm99.77-28.161l1.889-11.592 2.72 3.845-1.134 8.142 3.396 7.237.906 11.986 4.755 7.237 1.129 7.462 17.665 10.63 10.868-2.035 8.153-11.082 2.261-11.76-3.621-14.021.453-20.354-2.262-7.462-5.662-9.047-.906-7.012 2.49-1.582 3.398 4.749 3.397-2.261-3.171-6.104-12.001-8.144-17.209-1.582-3.398 2.488-8.605 4.976.226 6.783-5.888 9.497-11.546.227-3.848 4.832 8.564 11.402-.04.184-1.334 6.677 6.991 3.493.113.053.063.11 1.188 2.028z" fill="#E2E2E2"/><path fill-rule="evenodd" clip-rule="evenodd" d="M316.459 219.362l-.55-3.709.68-3.165-2.947-4.072 2.722-4.976 8.375-10.402 7.022-2.263 4.073-7.011 1.532-10.165-1.646-2.805-7.173-3.579-.288-.146.064-.315 1.363-6.809-8.2-10.922-9.654 12.128-4.98-.227-6.342 4.297-4.526-.227-1.813 4.523-2.037 3.845-3.623 2.715 2.036 3.844-2.489 2.486-8.381-1.356-2.262 7.914-1.587 11.986-4.982 2.037-22.189-2.94-10.017.371.302 6.453 5.428-1.074.068-.012.071.011 7.116.996.18.026.104.147 2.847 3.988.081.115-.003.14-.142 4.986-.004.149-.099.115-2.453 2.862.276 5.532.005.043-.006.036-.712 4.844-.022.169-.139.102-3.607 2.777-1.03 2.71 1.4 2.931 1.88.419.252-3.926.021-.294.284-.081 2.418-.714.316-.09.165.284 1.475 2.548 1.21.281.375-3.377.038-.339.344-.035 2.989-.284.343-.03.099.328 1.778 5.88 3.588.665.159.03.099.126 5.65 7.369.847-2.324-.566-7.034-.007-.116.056-.109 2.562-4.984.026-.051.04-.043 9.251-9.969.169-.183.237.055 5.407 1.284.184.041.089.168 1.708 3.133.07.126-.024.141-.854 5.41-.024.142-.097.097-3.982 3.84-6.748 7.602-1.818 6.488 4.493-.052.427-.007v6.277l3.652 1.215 2.616-2.874.126-.139h3.485l1.329-6.1.024-.116.084-.087 6.217-6.48-1.514-2.522-.004-.005-1.96-3.358-.087-.152.045-.169 1.402-5.034.031-.109.075-.078 6.066-6.061.538-3.219.078-.457.448.118 4.173 1.114 2.571.512 3.199-3.461.054-.059.076-.036.505-.238zm95.362 45.812l-8.353 10.767 2.915 4.503.135.21-.114.218-1.884 3.495 1.361 5.721.073.301-.272.159-5.319 3.077-.224.129-.213-.139-6.892-4.404-6.59.274-.349.015-.08-.345-1.082-4.884-16.609-12.779-1.84 2.762 4.621 7.602.087.144-1.435 6.592-.028.125-4.057 4.053 1.795 3.076.051.085.007.092.279 3.356.038.437-.442.019-6.521.27-5.123 6.733-.255 4.05 6.158 2.563 2.599-3.119.078-.092.115-.038 5.882-1.958.345-.112.163.324 3.793 7.576-.266.213-13.573 10.789-.272 5.961-.009.198-.157.118-4.759 3.638-.192.144-.222-.09-5.93-2.424-4.264 3.458-12.625 14.098 1.24 2.943.037.082-.002.081v9.364l2.047 1.641 5.28-5.915.195-.216.272.104 15.967 6.147 5.566-2.54 3.13-7.733.12-.294.312.031 10.585 1.008.163.014.113.125 7.845 8.836 8.599 4.46 12.053 1.32 4.758-2.622.25-.138 13.236 10.845 8.004 1.12 14.478-24.762.033-.057.051-.045 10.83-9.65 1.646-5.924.033-.119.09-.082 10.755-9.565.372-.329.265.417 2.219 3.485 5.995-.316 7.073-6.252.114-.106.155-.002 10.861-.17 7.924-6.542.109-.086.143-.007 15.543-.692 4.077-4.747.076-.088.111-.036 6.148-2.048 3.657-5.645-2.391-7.841-.052-.175.089-.154 2.855-5.07-2.989-.544-1.943 2.913-.126.187h-3.904l-4.774 4.425-.161.152-.22-.05-5.694-1.338-4.373 5.042-.115.133-.173.012-12.929 1.047-.153.014-.125-.092-56.094-40.016-5.395 1.684-.08.026-.085-.011-24.24-2.6zm-85.653-61.486l1.746 1.916 2.362-1.576-.674-2.759-1.801-1.351-1.405 1.913-.228 1.857zm168.42 6.31l2.914-2.117v-4.758l-3.443-.793.529 7.668z" fill="#E2E2E2"/><path fill-rule="evenodd" clip-rule="evenodd" d="M541.227 277.861l-4.315-7.933-11.322-12.213h-8.605l-1.129 4.974-.227 7.466-6.117 3.617-3.398-.677-2.261 3.39-4.302-3.39 4.981-4.524v-4.974l-16.076-.227-7.926-5.88-12.229 1.131-4.302-5.88 7.248-.679 3.849-7.462-9.738-2.263-4.528 5.43-2.266-4.073-24.905-6.106-3.172 3.168-3.623-3.395-13.132 7.691-6.795-6.561 2.038-5.877-2.038-5.882 8.151-2.713 7.473 5.201 3.623-5.878-.228-10.631-9.962-10.853-2.942 10.63-13.589 8.816-1.129 6.785-6.493 5.856 2.548 13.562 7.126 10.676 6.528.814.191.025.106.159 3.528 5.152 24.193 2.596 5.508-1.721.198-.062.173.121 56.138 40.049 12.607-1.022 4.428-5.102.17-.194.245.057 5.725 1.346 4.727-4.383.123-.114h3.782l1.972-2.953.151-.23.273.049 3.549.646 2.885-5.118-3.031-5.38-.17-.303.267-.225 5.446-4.529z" fill="#E2E2E2"/><path fill-rule="evenodd" clip-rule="evenodd" d="M521.327 254.417l-5.031.528-3.969-6.61 1.058-6.081 6.353-1.587 1.853 6.875-.264 6.875zm-77.734-31.16l3.898 5.121 9.177.243 1.058-3.413-.571-5.12-4.872-5.282-6.983 2.439-1.707 6.012zm68.204 6.835l2.12-20.094 1.587-7.668 6.616-7.138 7.945-2.644 3.175-4.496-1.853-5.553 5.824 3.704 5.294-.53 1.327-3.966 3.44.264.262-3.966 4.238 1.587.795-3.966 3.176 3.438 2.384-3.173.792-4.761 4.504 3.174 2.909-2.644 6.091 1.322 5.03-5.816 38.65-.795 9.267-5.021 1.057-6.876-3.969-4.758-9.267 2.377-1.589 3.439-15.884-1.322-6.881-5.817-6.091 3.437-6.089-2.644-7.676 5.024h-6.355l-3.174 2.643-4.238-4.495-2.12 9.256-4.765.265-.528 3.699-11.91 3.702-4.238-1.849-2.648 3.171 3.442 3.437-4.767 4.496-7.678-3.172-1.058 5.816-5.558-.263-.264 4.494-7.678 3.966-4.765-1.587-5.296 3.965-.262 5.816 5.027 5.025.264 7.666-4.764 4.761 3.705 8.195 4.237.53.265 3.701 4.765 1.058 3.177 1.586zm-120.686 4.515l-6.818 6.149-3.171-5.882 4.529-.903-5.662-10.629-8.603 1.355-8.606-2.939-10.641 1.584-5.887 14.7-4.304-2.488-6.113-14.25.909-11.081-9.965 1.133-2.718 9.498 4.302 5.203-4.077 5.424-6.564-3.617-1.133-7.634-.201.094-3.305 3.577-.161.175-.232-.046-2.802-.56-.023-.005-3.755-1.003-.484 2.9-.021.135-.094.095-6.085 6.078-1.322 4.754 1.87 3.205 1.679 2.791.163.274-.222.232-6.358 6.627-1.374 6.317-.072.333h-3.796l-2.675 2.936-.016.021-5.776 6.592-1.076 8.076 14.695 16.616 5.005 4.72 5.286 3.333.053.035.039.048 5.481 6.293 8.776.274.278.01.104.257 3.477 8.815 2.678-1.215.149-.067.156.053 5.043 1.677.413.139-1.7 4.529 4.703 2.349.232.114v5.084l4.835-.763.238-.036.152.185 3.921 4.753.085.104.014.128.487 5.641 3.864-3.132.192-.158.231.093 5.94 2.426 4.413-3.371.27-5.955.011-.192.149-.12 13.456-10.697-3.325-6.642-5.423 1.807-2.722 3.264-.199.239-.286-.118-6.723-2.8-.277-.114.021-.298.279-4.475.009-.125.078-.104 5.318-6.992.124-.158.196-.01 6.281-.26-.237-2.828-1.91-3.271-.167-.282.231-.227 4.113-4.111 1.337-6.147-4.671-7.688-.139-.23.146-.222 2.241-3.354.253-.376.356.274 17.084 13.146.121.096.033.149 1.044 4.69 6.372-.266.128-.005.113.071 6.786 4.339 4.826-2.793-1.328-5.57-.037-.156.077-.141 1.844-3.416-2.944-4.546-.165-.252.182-.233 8.495-10.947-3.36-4.903-6.531-.817-.195-.025-.105-.159-7.328-10.977-.017-.089-2.465-13.139zm226.46-154.344l2.814 2.633 3.865-3.333-1.931-2.807-2.812.702-1.936 2.805zm6.152 2.285l2.107 1.751 3.692-1.928 1.055-4.388-2.816-.7-4.038 5.265zm10.014-.528l3.69 3.334 7.378-3.686-1.405-4.21-5.095-2.105-4.393 3.683-.175 2.983zm7.904-7.897l3.164 1.578 2.109-2.455-2.637-2.459-2.636 3.335zm13.88-8.773l1.057 3.334 3.162-1.228-1.231-4.035-2.988 1.93zm-10.541-8.246l1.759 1.578 2.281-1.755-3.336-3.158-1.755 1.405 1.051 1.93zm-9.486 2.105l.526 2.632 3.516 2.281 2.104-3.158-1.93-3.86-4.216 2.105zm-6.854 2.807l6.679 5.967-.881 5.086-6.677-2.282-4.389-5.085 5.268-3.686zm18.627 19.127l.877 3.86 7.378-.175 2.988-4.914-2.46-4.036-3.163 4.563-4.743-1.227-.877 1.929zm-20.207 8.771l1.932 2.809 1.759-2.282-1.759-2.98-1.932 2.453zm-18.272-19.3l2.987 5.087 3.515-3.332-1.761-4.212-4.741 2.457zm8.608-1.578l.704 2.981 1.931-1.403-1.581-3.333-1.054 1.755zm-3.161-16.669l2.285 3.157 2.108-2.105-3.515-3.159-.878 2.107zm-20.732-6.318l1.053 4.211 3.164 2.455 4.568-.348 2.812 2.28 1.755-2.107-3.514-3.158-3.163.965-6.675-4.298zm.876 10.703l-.349 3.685 3.338 3.334 3.339 4.211 1.052-1.931-.878-4.035 4.569-1.052 5.798 1.93 3.691-3.685-3.341-3.862-2.81-1.052-2.987 2.28-4.042.529-2.457 1.053-4.923-1.405zm7.206 13.862l-.704 2.455 2.637 1.58.175-3.333-2.108-.702zM80.577 180.361L95.9 213.444l9.526-4.96.827-18.199-4.554-7.029-2.073 8.271-4.555-2.896-3.723-10.752-4.559 2.896-6.212-.414zm53.817 243.118l-.092 2.266-7.015-.222-2.72 4.066-3.624.454-4.299 7.687-7.246 2.717-5.209-7.689-12.229-1.587-5.66 5.884 12.226 7.236-3.622 2.485-6.34-3.845-3.633 2.857 2.17 4.281h4.656l.129.156 5.346 6.594.175.219-4.088 7.853 5.173 6.381.171.208-.123.244-1.22 2.438-.298 5.088 3.04 3.729 3.009-3.457.274.104 4.703 1.762 1.707-2.843.188-.312.335.142 3.774 1.568.261.106v5.984l4.472 2.088.244.113v5.798l2.318 3.758 5.49-.575 1.78-3.264.122-.218h9.182l5.414-6.005-.267-2.935-5.009-.588-.348-.039-.023-.35-.305-4.278-4.651-6.5-.113-.16.052-.196 2.464-8.924-3.038-4.555-.251-.374 6.998-3.995.279-.154.229.223 2.382 2.379 4.6-.286L149 451.67l-.931-8.99-.028-.255.217-.14 7.017-4.569-1.19-11.012-5.477-.287-3.969 2.744-.229.161-.237-.15-4.4-2.828-5.379-2.865z" fill="#E2E2E2"/><path fill-rule="evenodd" clip-rule="evenodd" d="M181.678 490.462l7.652-2.525 1.131-5.878 6.57-3.621 7.018-1.809 2.526-.769-.227-9.616-4.306-.861-.164-.033-.098-.142-2.085-3.007-.071-.101-.003-.121-.209-5.636-2.681 1.149-.096.038-.1-.011-3.244-.228-.415-.028.026-.414.231-4.165.005-.147.099-.111 3.367-3.81v-5.222l-7.428-7.195-4.282-.901-.154-.033-.095-.123-3.01-3.936-.077-.097-.012-.122-.44-5.514-6.233-2.223-.156-.057-.078-.153-2.618-5.23-3.366 1.051-.088.023-.092-.009-6.538-.87-.637 4.446-.028.194-.168.104-6.191 3.777 1.226 11.355.031.258-.22.142-7.017 4.569.918 8.855.012.121-.056.109-2.831 5.654-.105.218-.245.015-5.033.316-.189.01-.135-.137-2.286-2.281-5.933 3.387 2.893 4.334.108.156-.05.189-2.464 8.916 4.492 6.282 11.121 1.201 1.145-3.148.109-.302.321.024 3.775.316.312.026.064.312 1.196 5.672 4.272.57 3.789-2.389.146-.094.164.04 13.438 2.774.191.038.093.166 3.513 6.262z" fill="#E2E2E2"/><path fill-rule="evenodd" clip-rule="evenodd" d="M148.709 542.117l7.109 2.587 19.02-.454-1.586-7.466 4.755-.904 3.626-20.354-3.173-4.297-4.757-1.127.682-3.845 5.888-5.431-5.246-7.279 2.529-1.315 3.327-1.462-3.36-5.991-13.081-2.701-3.484 2.195 2.394 6.277.044.111-.028.121-2.484 11.787 3.068 5.518.094.166-.061.173-3.108 9.002 1.233 5.534.125.574-.585-.063-5.547-.618-2.93 1.278-.323.142-.194-.291-2.006-3.009-1.792 2.152 2.915 6.938.118.286-.241.201-3.94 3.242-.035.028-.033.015-3.516 1.857 4.583 6.423z" fill="#E2E2E2"/><path fill-rule="evenodd" clip-rule="evenodd" d="M133.808 545.003l7.065.151 6.752-3.11-4.464-6.251-.277-.39.425-.228 3.903-2.064 3.662-3.011-2.892-6.887-.099-.233.165-.195 2.316-2.777.361-.433.316.466 2.121 3.178 2.706-1.178.106-.049.108.016 5.079.564-1.131-5.085-.026-.117.035-.106 3.086-8.935-3.052-5.488-.076-.142.033-.149 2.488-11.816-2.382-6.246-4.467-.6-.299-.038-.06-.292-1.194-5.659-3.14-.258-1.146 3.148-.115.312-.328-.035-11.137-1.201.255 3.547 5 .587.338.04.031.34.316 3.454.016.182-.122.135-5.662 6.288-.125.137h-9.059l-1.767 3.234-.108.194-.219.025-5.978.627-.263.031-.139-.229-2.515-4.082-.063-.104v-5.507l-4.474-2.083-.243-.111v-5.958l-3.179-1.322-1.699 2.828-.18.299-.33-.119-4.76-1.781-2.72 3.122 3.079 3.772 3.216-.584.264-.049.156.226 2.115 3.016 4.259 1.216.206.057.075.201 1.873 4.988 4.466 7.644-.028.151-1.235 7.391 4.647 8.354.031.054.011.053 1.575 6.6.012.052-.002.059-.305 6.724 7.102 7.096.061.062.034.087 1.595 4.194z" fill="#E2E2E2"/><path fill-rule="evenodd" clip-rule="evenodd" d="M90.07 568.521l-2.412 2.413.455 6.783 6.34 9.046L94 596.26l-1.134 4.527 5.66 7.012 2.719-1.135 1.585-2.709 3.395 1.805 3.626 1.133 4.302-2.715v-11.984l2.944-16.963 10.868-10.404.907-10.856-1.134-4.749 5.266-3.96-1.545-4.068-6.911-6.899-2.537 1.97-.119.091-.156-.005-7.392-.307-4.011 3.15 1.417 2.833.17.345-.324.199-3.57 2.212 4.534 6.473 4.866.91.264.05.068.256 1.573 5.971.094.355-.338.14-3.779 1.57-.09.038-.101-.005-3.812-.293-4.905 9.489-.239.466-.406-.339-3.775-3.188-2.243 2.52-.138.156-.214-.019-9.316-.812z" fill="#E2E2E2"/><path fill-rule="evenodd" clip-rule="evenodd" d="M88.09 560.044l1.608 4.331.672 3.323 8.878.778 2.377-2.667.272-.311.314.268 3.685 3.115 4.791-9.271.125-.247.279.024 3.99.307 3.341-1.392-1.412-5.358-4.769-.894-.168-.03-.102-.14-6.485-9.257-5.044-.296-2.417 1.072 2.748 10.329.092.342-.321.15-12.454 5.824z" fill="#E2E2E2"/><path fill-rule="evenodd" clip-rule="evenodd" d="M85.065 555.709l.102 1.883 2.392 1.771 12.31-5.758-2.623-9.861-2.212.977-2.128 6.729-.036.121-.106.078-3.144 2.516-.059.045-.07.024-4.426 1.475z" fill="#E2E2E2"/><path fill-rule="evenodd" clip-rule="evenodd" d="M75.541 541.466l.342 7.756 9.059 4.297.073 1.318 4.139-1.377 2.983-2.384 2.148-6.783.057-.178.177-.078 5.046-2.239-3.955-3.188-1.485 2.561-.157.272-.306-.078-10.263-2.483-7.684 2.457-.174.127z" fill="#E2E2E2"/><path fill-rule="evenodd" clip-rule="evenodd" d="M68.853 525.875l4.768 5.256.225 7.235 1.445 2.239.033-.023.064-.026 7.866-2.51.11-.04.117.029 10.072 2.438 3.21-5.532-1.423-4.555h-4.885l-.122-.113-9.322-8.376-6.618-.302-5.54 4.28z" fill="#E2E2E2"/><path fill-rule="evenodd" clip-rule="evenodd" d="M57.193 504.188l5.556 9.304v5.655l5.54 6.106 5.715-4.418.122-.094.152.005 6.462.293-.295-6.764-.01-.239.196-.13 3.46-2.302-4.943-9.307-1.678 3.352-.132.262-.291-.03-5.974-.627-.186-.024-.113-.146-3.273-4.463-10.308 3.567z" fill="#E2E2E2"/><path fill-rule="evenodd" clip-rule="evenodd" d="M55.175 494.516l-.312-5.338-.026-.406-.021-.402.402-.039.405-.038 5.528-.555v-3.323l-.002-.424.172-.127.172-.126 6.238-4.604-3.98-2.486h-.003l-.054-.034-.052-.035-.043-.047-.045-.054v-.005l-5.034-5.967-.12-.14-.121-.142.026-.184.024-.185.628-4.709.07-.522.069-.511.489.172.489.173 4.404 1.571.136.051.137.048.08.127.078.121 3.525 5.575h5.678l.024.4.022.394.294 4.977 3.492 2.906.16.137.164.13-.01.211-.01.204-.315 6.913-.012.264-.078.102-.082.105-5.034 6.6-.624.817-.623.822-.132-1.024-.128-1.022-.713-5.723-7.888 8.694-.213.234-.21.228-.278-.131-.285-.13-5.974-2.828-.225-.109-.226-.106-.017-.247-.016-.253zm-8.05-41.856l-2.49 2.938 1.133 3.392 3.622 2.715-.226 5.653 2.038 9.048-.678 8.363-1.587 13.796 1.813 2.489 3.622-1.585 2.38 3.985 10.766-3.727.293-.102.184.248 3.348 4.563 5.5.579 4.034-8.051 4.382-1.754-1.601-2.394-.139-.208 2.48-4.641-2.584-2.294-.335-.296.32-.316 3.042-3.04.297-2.677.024-.239.22-.097 3.46-1.573.348-.158.19.334 2.27 3.966 2.932-2.394.302-5.158.007-.081.04-.083 1.136-2.27-5.177-6.388-.175-.213.127-.244 3.963-7.61-5.048-6.223h-4.777l-.116-.234-2.748-5.421-8.285-7.528-1.133 10.856-4.528-2.262-8.608.452-3.169 4.073-6.07-12.773-5.253 6.666.455 7.918z" fill="#E2E2E2"/><path fill-rule="evenodd" clip-rule="evenodd" d="M96.534 479.982l-3.133 2.564-.387.31-.247-.428-2.328-4.066-2.89 1.311-.303 2.741-.106.102-2.83 2.823 2.499 2.217.246.22-.156.291-2.4 4.493 1.75 2.618.289.433-.482.189-4.571 1.826-1.876 3.745 5.402 10.181.18.334-.318.21-3.574 2.379.295 6.812 9.184 8.254h5.181l.092.296 1.574 5.026.052.175-.092.161-1.548 2.672 4.49 3.614 5.213.308.201.014.118.165 1.485 2.122 3.282-2.034-1.402-2.798-.152-.307.27-.215 4.401-3.453.122-.098.156.01 7.397.307 2.555-1.986.3-6.656-1.545-6.485-4.688-8.429-.069-.131.021-.143 1.233-7.39-4.326-7.411-.016-.024-.014-.04-1.813-4.821-4.198-1.203-.142-.038-.088-.126-2.047-2.92-3.196.584-.243.044-.156-.194-6.653-8.155zm-40.829 9.146l.315 5.338 5.976 2.827 8.503-9.371.617-.679.944 7.54 5.03-6.6.316-6.907-3.632-3.022-.143-.121-.01-.182-.303-5.156h-5.349l-.121-.196-3.652-5.776-4.403-1.566-.63 4.711 5.031 5.965h.002v.005l4.505 2.812.526.327-.495.364-6.736 4.974-.003.004v4.081l-.38.04-5.908.588zM762.72 654.569l19.197 7.727 17.663 4.073 3.62 14.023 12.907 6.783 9.057-.229 12.912-7.687 9.962 3.167 10.412-.681 2.719 4.747 5.991.26 1.964-7.256.05-.18.165-.087 5.746-3.002-6.16-6.715-.302-.331.345-.277 6.007-4.857-2.279-6.841-.186-.555h12.01l7.001-5.828.146-.118.182.024 6.285.856 11.727-15.516.111-.151.191-.016 7.503-.573 2.26-3.673.073-.113.134-.053 6.425-2.627 4.896-6.039.56-6.442-5.135-3.422-.186-.126v-6.657l.167-.126 11.191-8.529 3.814-8.793.073-.172.172-.057 9.787-3.449-.555-7.816-6.018-5.435-6.702-1.164-.25-.043-.084-.243-5.601-16.791-3.483-3.188-.273-.25.214-.299 3.469-4.916-.482-4.813-4.108 4.618-.154.171-.226-.033-3.483-.537-1.985 7.635-.057.24-.24.062-18.698 5.036-.278.078-.17-.234-3.138-4.27h-4.34l-.099-.056-4.044-2.155-2.198 5.211-.073.177-.178.057-8.907 2.965-.137.046-.135-.046-4.595-1.622-1.086 5.163-.064.298-.297.033-9.057 1.133.789 4.453 5.52 4.641.321.274-.272.32-4.663 5.534-.868 8.359 3.007 7.066.482-1.412 1.842-11.508.009-.073.04-.067 3.004-5.31.143-.243.274.028 3.931.464.317.038.047.317.699 4.389.009.073-.009.062-1.842 10.341.687 10.072 1.601 5.494.045.136-.054.132-2.115 5.4-3.259 3.022-1.037 1.864 1.106 3.522.044.141-.059.142-1.39 3.465-.078.199-.208.054-3.397.845-.213 3.85-.011.102-.053.092-4.394 7.159-.084.135-.151.05-6.573 2.032-4.31 5.894-.141.194-.234-.02-4.937-.433-1.315 7.475-.023.117-.078.088-3.698 4.16-.064.067-.084.035-11.843 5.234-1.564 5.353-.065.21-.208.073-7.629 2.54-.434.14-.108-.437-1.091-4.359-8.058-1.568-.307-.058-.033-.307-.683-5.887-5.579-7.133h-7.57l-.117-.094-15.489-12.237-.049-.039-.031-.044-4.842-6.588-7.756 5.526-.111.083-.138-.005-4.433-.1.224.977.054.223-.163.167-2.379 2.375.868 3.458.055.215-.145.166-3.281 3.711 2.937 5.68z" fill="#E2E2E2"/><path fill-rule="evenodd" clip-rule="evenodd" d="M653.145 687.263l29.14-10.944 10.416-.676 1.811 2.71 15.625 3.392 1.133 7.012 5.887 2.938 16.529 1.811 6.568.906 3.394 3.167 5.21-1.811 4.755-4.073 3.395-8.365-5.657-6.782.676-10.404 3.624-1.133.227-4.749 4.755-.224 1.331-5.099-3.06-5.918-.132-.258.189-.213 3.324-3.761-.873-3.481-.057-.232.168-.165 2.38-2.38-.56-2.424-6.814.438-.144.011-.121-.089-17.055-11.876-1.023 4.695-.066.306-.309.025-20.742 1.824-1.315 5.473-.057.25-.245.064-4.042 1.058.422 3.798.029.256-.22.142-5.6 3.58-.217 3.714-.017.312-.309.073-3.835.899-6.858 5.707-.142.121-.184-.022-15.953-2.077-.104-.016-.083-.057-9.798-6.892-4.509-.345-2.923 7.67-.099.251-.27.021-11.337.729.712 7.819 6.791 12.052.189.338-.317.218-4.719 3.266 1.086 7.42zm-13.933-42.235l5.022-1.797 3.698-1.845 6.221-6.213-1.426-3.916-.043-.123.029-.126 1.112-4.447-1.49-5.962-.052-.203.125-.161 4.136-5.249 2.123-6.361-6.065-2.141-.201-.068-.062-.204-1.14-3.796-.061-.204.129-.17 4.789-6.253-2.616-6.35.03-.126 1.139-4.929.046-.199.187-.089 6.382-3.002 3.152-3.143-6.691-12.997-.073-.136.033-.147.968-4.511-7.223 3.092-.169.073-.168-.073-9.381-4.122-10.731 1.478-4.072 4.805-.125.15h-.198l-11.038-.055-.229 29.682 4.004-.517.418-.052.052.423.743 5.927 5.601 5.965.061.069.028.077 1.854 5.189 5.206 3.711.371.267-.293.348-3.939 4.65 3.171 3.519.149.164-.054.219-1.516 6.063-.043.162-.141.091-3.993 2.54-.339 7.109 9.219.277.182.005.123.137 3.069 3.495z" fill="#E2E2E2"/><path fill-rule="evenodd" clip-rule="evenodd" d="M590.24 664.243l.793 7.779 7.243 4.073.227 7.689 7.248 1.58 2.942 3.621 8.153-4.298 1.584 5.655 5.208 7.689 8.155.904 2.487-5.429 10.872-.453 7.206-5.351-1.173-7.998-.036-.256.217-.151 4.618-3.193-6.644-11.799-.044-.077-.009-.092-.693-7.582-5.845 4.467-.335.253-.255-.331-5.315-6.821-.121-.162.043-.188 1.853-8.147-2.987-3.401-9.054-.268-.004.123-.322.062-5.695 1.138-.189.039-.155-.122-4.699-3.688-.314 3.771-.011.108-.057.092-4.557 6.822-.139.21-.25-.026-8.266-.747-6.618 2.202-2.668 3.665 4.112 2.054.178.087.045.191 1.138 4.929.104.455-.468.061-7.503.861z" fill="#E2E2E2"/><path fill-rule="evenodd" clip-rule="evenodd" d="M532.995 596.972l10.938 52.434 5.886-.905 4.076-5.878 3.85 1.582 1.132 6.107 12.452 6.788 9.738-3.621 5.207 2.261 3.728 7.685 7.179-.828-.991-4.276-4.377-2.19-.445-.22.291-.403 3.039-4.171.078-.107.13-.043 6.834-2.272.083-.031.088.011 8.098.734 4.36-6.528.371-4.439.064-.783.614.485 5.163 4.049 5.183-1.036.373-7.848.186-.116 4.033-2.566 1.422-5.688-3.266-3.624-.245-.273.238-.277 3.881-4.586-4.943-3.522-.111-.078-.043-.125-1.867-5.227-5.636-5.999-.095-.103-.018-.135-.706-5.644-3.927.5-5.083 4.618-.139.121-.185-.018-9.727-.926-2.932 2.254-.26.199-.255-.199-3.008-2.36-8.452 8.209-.293.285-.291-.285-6.594-6.35-.094-.088-.026-.117-1.16-4.856-5.413-7.212-22.321 7.664-.154.054-.148-.064-4.734-2.029-2.163 1.513-.229.161-.234-.146-3.555-2.217-4.595 2.695z" fill="#E2E2E2"/><path fill-rule="evenodd" clip-rule="evenodd" d="M515.911 574.739l11.718.263-4.756 4.978 9.811 16.194 4.703-2.755.222-.126.215.131 3.531 2.209 2.126-1.488.195-.137.213.092 4.797 2.055 22.458-7.708.289-.103.184.248 5.652 7.528.057.073.019.083 1.147 4.816 6.212 5.986 8.426-8.184.262-.26.29.23 3.039 2.384 2.801-2.15.132-.104.167.016 9.704.923 4.909-4.456.231-29.969h-3.9l-5.534 4.605-.336.281-.266-.347-2.355-3.059-.099-.125.01-.158.68-11.327-16.287-.458-.243-.01-.115-.208-2.94-5.421-8.457.229-.331.01-.085-.322-1.631-6.033-5.301-6.909-28.514-13.554v9.455l-.208.123-5.378 3.132 1.57 6.045.149.565-.583-.04-6.97-.461-5.426 2.256-3.17 5.65.701 16.349.007.087-.036.094-3.706 8.782z" fill="#E2E2E2"/><path fill-rule="evenodd" clip-rule="evenodd" d="M471.82 536.741l3.276.949.224 5.877-2.036 2.265 1.358 4.073-4.528 5.199.906 3.845 9.737 2.259.453 5.201 4.755.229 3.622.904 3.622 4.068-5.208 4.297v3.621l5.208-1.582 4.529 2.488 4.075-.906 3.399-2.939 9.754-1.772 3.837-9.099-.701-16.38-.006-.116 3.353-5.984.074-.127.134-.058 5.652-2.351.093-.039.098.009 6.484.428-1.502-5.783-.082-.307.278-.161 5.442-3.172v-22.88l-3.891-4.111-.254-.272.236-.283 4.126-5.043-.366-3.127-7.67 5.254-.116.078-.137-.005-5.891-.239-.103-.003-.088-.049-5.759-3.221-6.221.92-.165.025-.141-.099-8.167-5.828-3.677-.688-.644-.12.378-.537 2.621-3.706-3.932-3.927-7.602 7.366-.687 6.904-.014.129-.085.095-2.213 2.658.595 2.169 4.744 1.805.181.068.066.182 1.649 4.471.04.111-.026.123-.942 4.233-.014.072-.043.063-1.648 2.588-.154.245-.283-.058-5.657-1.129-4.236 4.676-1.154 5.303-.028.127-.093.093-7.47 6.991-1.365 3.64z" fill="#E2E2E2"/><path fill-rule="evenodd" clip-rule="evenodd" d="M629.887 477.043l-6.13-4.38-12.254 7.026-.236.137-.221-.16-10.301-7.543-14.66-.229-.128-.005-.101-.064-9.662-6.437-6.898-1.999-6.429 4.87-4.815 15.347-.106.336-.345-.043-5.631-.678-4.344 2.823-.892 4.671-.036.195-.17.097-7.769 4.443.438 3.721.019.177-.115.14-4.005 4.886 3.752 3.966.113.123v13.305l28.966 13.767.092.043.061.084 5.418 7.054.052.068.022.078 1.562 5.797 8.385-.225.257-.005.122.225 2.949 5.435 16.478.461.435.01-.723 12.043 1.991 2.583 5.317-4.421.122-.103h5.046v.006l10.841.052 4.049-4.779.104-.126.159-.019 11.011-1.518.116-.014.109.049 9.324 4.095 7.56-3.239.368-7.698.011-.194.152-.118 7.862-5.986.994-3.64-6.826-2.15-.099-.033-.075-.073-5.037-5.033-.018-.145-.758-6.447-.024-.218.168-.147 8.599-7.469.335-4.354-5.672-.712-.228-.028-.102-.204-6.356-13.076-21.799-3.377-.359-.053v-6.575l.094-.116 2.9-3.62-3.029-10.66zm28.112 106.499l-2.616 1.23-1.06 4.6 2.605 6.318.091.226-.146.19-4.805 6.277 1.016 3.382 6.25 2.202.391.137-2.41 7.216-.021.073-.043.055-4.049 5.147 1.468 5.863.026.103-.026.102-1.109 4.428 1.473 4.049.095.251-6.644 6.632-.045.051-.064.027-3.797 1.899-.033.014-.016.005-5.095 1.821-1.802 7.921 4.935 6.334 6.122-4.674.607-.464.031.351 11.089-.71 2.94-7.713.111-.291.314.024 4.646.355 3.294-6.939.073-.156.161-.058 5.911-2.213 1.787-3.933v-4.71l.223-.117 5.451-2.905-.356-4.607-2.258-6.774-.013-.04-.005-.017-1.122-6.365-4.889-7.507-.128-.195.097-.211 2.125-4.598-3.736-2.374-6.31.74-.027.005h-7.153l-.099-.287-3.455-10.17zM647.632 247.94l3.854 5.016 2.688-1.166-.821-7.001-2.685-1.398-3.036 4.549zm10.747-31.849l1.984 2.568 2.101-2.216-.931-3.502-2.687.818-.467 2.332zm73.833-123.638l8.476 1.552-1.978-6.344-5.931.138-.567 4.654zm7.063 15.941l4.66-6.206-1.131-5.503 4.519-2.96 4.519-4.516 5.084 4.515 2.825 8.038 1.696 3.529-4.661 2.536v4.373l-11.58 5.218-5.931-5.36v-3.664zm-4.238 6.909l8.897 3.385-1.271 4.231-4.096 2.258-5.931-4.091-.99-3.948 3.391-1.835zm7.909 14.106l3.953-9.735 10.876-5.359 1.975 7.478 2.825-.847.423-3.243 4.944 4.793-.423 6.347-3.671 5.923 3.105 3.668-.846 5.501-3.954 2.117-8.049-5.503-7.205-6.205-4.095-1.835.142-3.1zm28.386 5.499l-.988 12.695-4.803 8.744 1.839 6.628 7.907-6.346 8.33-.565 4.379-4.371.565-10.156-4.661-5.924-3.954 3.951-2.12-2.258.285-6.065-6.779 3.667zm23.299 18.337l.706 3.384 6.217 1.41-.283-2.397-6.217-3.807-.423 1.41zm-47.168 25.387l3.249 2.398 2.401-1.41-1.693-3.526-3.957 2.538zm-28.666-4.653l4.094 2.255.282-3.243-2.68-3.103-1.977 1.691.281 2.4zm25.278 13.539l1.555 1.693 1.975-1.836-2.256-2.395-1.274 2.538zm-68.992 42.572l3.154 2.916 2.102-2.098-.818-3.268-2.686-.7-1.752 3.15zm7.593 3.734l1.752 1.283 1.164-2.215-1.985-2.216-.931 3.148zm4.555-8.516l1.753 1.166 1.051-1.984-2.687-1.748-.117 2.566zm3.154-4.665l1.986 1.515 1.869-2.683-3.038-2.216-1.636 1.166.819 2.218zm-14.137-16.101l2.223 1.518 3.27-1.986-1.869-3.265-2.805-.815-2.685 2.331 1.866 2.217zm7.01-11.433l-.817 1.984 1.753 2.45 1.866-1.982.118-2.22-2.92-.232zm-5.278-80.285l-.512 2.65 2.734 2.741 3.849.085-.173-3.423-2.649-3.509-3.249 1.456zM695.083 92.2l3.589 1.11 3.936-1.024-2.311-5.135-2.909-2.313-2.05 1.97-.427 3.252.172 2.14zm105.52 540.145l-.794-4.165-.068-.369.356-.112 4.038-1.274-1.743-6.093-.107-.369.366-.137 4.827-1.81.356-.135.172.339 3.761 7.514 9.378-5.577.331-.194.224.312 3.24 4.529.004.005 2.779 2.54 3.624-1.357.078-.029h5.31l.128.199 2.488 3.942.161.247-.186.234-9.744 12.383-.242.317-.327-.229-5.92-4.16-7.255.681-.14.014-.122-.078-4.253-2.68-.025-.014-5.081-3.694-5.234-.438-.317-.025-.063-.317zm40.951-208.317l-2.738 3.037-.093.102-.135.028-6.509 1.367-5.897 2.619.326 6.535 1.701 4.41.064.164-.075.16-3.35 7.368 3.328 5.317.053.089.009.097.687 7.916.01.121-.053.109-5.173 9.985-.056.105-.095.059-8.61 5.295 3.234 5.494.142.239-.167.222-3.663 4.998 1.944 6.473 7.366 2.338.234.073.054.239 1.034 4.822.047.215-.151.161-5.413 5.74-.305 3.986 3.454.939.215.058.073.214 1.724 5.169.083.242-.187.185-4.057 4.055-1.695 6.084-.146.532-.474-.277-7.58-4.477-.111-.068-.059-.123-3.616-7.876-6.992 3.173-1.003 6.654-.014.134-.088.09-15.386 16.736.673 7.731.026.306-.286.118-4.136 1.722-.373.156-.17-.365-5.913-12.792-4.054 5.293-.122.16-.198.005-15.961.682-6.318 11.621 7.107 11.15.096.147-.04.17-1.379 6.194-.063.287-.288.04-7.025 1.002-3.996 7.645-1.372 20.572-.028.434-.433-.045-6.78-.676-4.822 2.243v4.025l11.604 10.378 17.429 12.14 7.022-.458.359-.017.078.35.274 1.176 4.5.108 7.982-5.693.338-.244.246.337 5.055 6.884 15.325 12.11h7.695l.125.161 5.784 7.393.073.093.01.12.661 5.693 8.021 1.558.262.053.065.259 1.047 4.178 6.991-2.326 1.397-4.791h-7.565l-.117-.244-1.618-3.465-.161-.34.327-.194 3.47-2.084.073-.043.083-.011 4.758-.679 9.561-6.594 3.419-5.241.029-.045.044-.038 7.084-6.39 1.582-4.743.016-.044.024-.034 4.16-7.162.011-.016 5.062-7.809 4.371-11.961 3.268-9.6-3.419-8.028-.04-.103.011-.107.891-8.597.011-.126.085-.103 4.477-5.31-5.318-4.471-.117-.101-.026-.145-.891-5.044-.078-.438.444-.052 9.199-1.149 1.124-5.338.097-.471.455.159 4.911 1.733 8.583-2.855 2.301-5.46.18-.424.404.218 4.361 2.317h4.561l.125.176 3.095 4.214 18.188-4.901 2.011-7.766.097-.369.375.058 3.636.556 4.594-5.163.64-.716.655 6.56 11.085 1.703 6.52-4.531.281-8.453-6.938-4.91-.171-.116-.007-.203-.595-10.67-.011-.22.176-.136 3.858-2.964.109-.083.135-.005 9.467-.276-8.896-20.146-4.776-3.303-8.37 3.799-.423.196-.146-.449-3.06-9.162-13.37-5.338-6.686 1.109-10.439 22.404-.024.048-.039.043-7.02 8.185-.299.345-.327-.319-5.066-5.061-3.235 5.745-.116.205-.24.01-9.617.385-6.528 4.988-.302.228-.26-.279-6.245-6.621-.127-.137.014-.18 1.169-17.147.005-.068.032-.069 5.664-13.205-7.352-2.201-.184-.057-.078-.175-3.51-7.791-.057-.132.03-.14 2.659-10.991-5.969-3.349-.224-.127.01-.258.391-10.8-4.41-8.438-3.513 2.452-.121.088-.146-.01-5.072-.39-.394-.03v-6.076l.199-.123 3.933-2.5-3.256-4.925z" fill="#E2E2E2"/><path fill-rule="evenodd" clip-rule="evenodd" d="M800.711 628.39l.663 3.484 4.911.409.116.009.118.01.097.073.094.067 5.079 3.689 4.115 2.594 7.111-.667.156-.013.158-.015.124.092.127.086 5.589 3.928 9.311-11.838-2.207-3.49h-4.706l-3.553 1.329-.245.088-.237.092-.191-.175-.189-.17-2.772-2.541h-.005l-.033-.033-.035-.029-.024-.039-.025-.034-3.015-4.219-9.048 5.376-.39.234-.389.229-.201-.404-.205-.404-3.589-7.172-4.113 1.538 1.637 5.723.118.393.111.395-.395.121-.389.125-3.679 1.159zm118.493 31.939l2.077-5.336.092-.234.093-.239.254-.029.248-.03 11.713-1.429 3.362-6.993.243-.511.244-.511.418.385.418.383 2.686 2.453 2.796-6.608.087-.208.088-.204.221-.045.218-.044 5.935-1.188v.005l.161-.033.165-.035.141.089.14.092v-.006l7.125 4.448.248.156.244.151-.107.564-.892 4.744-.049.269-.053.272-.269.064-.262.062-3.499.818 5.95 5.449h.005l.451.417.458.421-.558.267-.555.272-24.641 11.854-.21.102-.208.102-.194-.121-14.442-9.016-.296-.187-.297-.184.125-.327.126-.321zm-51.182 26.456l3.793.161 3.849 7.24 29.661 2.71 19.927-11.984 6.344-.225 2.036-6.558 9.734-9.045 13.588-.681 4.073 3.844 5.661-5.202 24.005 3.849 3.395-9.274 8.152-5.655-3.395-8.365 3.625-22.616 6.11-6.107-4.07-10.856-8.609-.905 6.119-11.306 10.78-7.476-9.92-14.86.17-.234 3.29-4.66-5.83-3.329-.19-.114-.02-.222-.852-11.362-5.754 1.367-.307.073-.156-.277-3.648-6.457-7.654 4.246-.279.153-.222-.226-4.746-4.738-.254-.251.205-.293 2.718-3.796-9.431-6.282-.089-.054-.048-.097-12.05-22.301-9.695.288-3.571 2.744.569 10.248 6.953 4.924.186.131-.005.224-.306 9.104-.171.122-6.827 4.745-.142.092-.159-.024-11.323-1.736-3.197 4.523 3.289 3.008.078.073.035.107 5.563 16.655 6.576 1.143.118.021.092.083 6.237 5.629.123.116.014.167.595 8.3.019.322-.302.106-9.921 3.495-3.784 8.725-.045.1-.083.069-11.113 8.467v5.796l5.156 3.428.205.139-.021.248-.595 6.822-.009.125-.081.102-5.048 6.224-.065.083-.102.04-6.403 2.616-2.304 3.739-.111.183-.215.016-7.527.578-11.756 15.56-.151.196-.245-.035-6.347-.861-6.977 5.804-.122.104h-11.139l2.19 6.558.092.277-.224.182-5.891 4.758 6.231 6.788.366.398-.482.26-6.07 3.172-1.869 6.894z" fill="#E2E2E2"/><path fill-rule="evenodd" clip-rule="evenodd" d="M922.065 655.3l-2.075 5.332 14.244 8.894 24.641-11.858h-.006.006l-6.539-5.984-.589-.535.778-.186 4.268-1.003.892-4.744-7.122-4.447-5.934 1.187-3.036 7.157-.234.551-.439-.404-3.123-2.855-3.459 7.2-.104.21-.227.029-11.942 1.456zm-88.156-231.607l-.253.17-4.949-3.884h-11.356l.739-6.665.014-.127.078-.097 6.511-7.862 1.924-5.135-4.209-2.909-.18-.127v-5.913l-3.685-4.009-.146-.159.044-.211 1.67-8.001-4.633-3.559.309-.34 6.425-7.092-2.392-30.008-7.515-11.547 3.763-1.939 9.053-7.367.141-.112.171.019 5.345.629 1.938-9.372.016-.081.043-.066 2.642-3.952.657-5.277.023-.168.132-.109 11.109-8.808-4.774-5.719-.099-.118v-9.094l-9.68-13.673-.053-.071-.02-.092-1.327-6.963-2.971-3.954-.097-.128.015-.156.316-3.959-5.973 2.982-6.791 5.201-9.286 2.715-3.621 6.33.224-9.045 18.796-19.448 10.417-18.77 4.755-16.735-14.494-16.511-13.583-.45-4.755 6.783-5.436.906 4.076-11.535-11.095-1.357 3.622-5.201-6.792-5.653-6.115 2.263-9.737 14.471 2.266 8.594-10.416.679.226 2.713 3.848 5.655-7.47-1.584-3.851 3.618-8.605-1.582-1.129-3.844-12.23.225.227 7.011-14.721 2.034-9.962 7.915-7.697.228-5.663 4.976-2.491 10.175 4.755 8.595-7.246 1.809-19.247-3.167-11.095-.225-3.397 6.105-.453 15.83 7.019 6.787 3.399 7.914h-9.738l-8.378-15.605-6.145.36.073.789 5.355 11.363.234.505-.546.09-5.765.958-1.271 6.971 5.327 11.307.064.137-.036.145-1.344 5.378-.053.198-.187.085-12.599 5.628-1.586 6.329 8.202 10.813 9.279 2.317.266.065.048.272 2.031 11.596-.593 1.501v-.011l-3.278 8.309-.079.201-.208.056-8.493 2.285 2.567 6.095.063.146-.049.149-2.69 8.052 6.76 8.772.104.134-.017.166-1.709 16.019 5.419 7.443.106.145-.029.177-2.025 11.449 8.069 6.044.131.096.028.171 1.378 8.256.032.176-.104.146-7.169 9.882-.68 8.833-.011.126-.078.103-11.064 14.042v10.93l9.035 5.186.315.18-.132.336-1.618 4.155-.066.166-.163.073-8.093 3.465-.052.019-.059.008-6.909.861 2.991 10.545.059.206-.138.17-2.943 3.673v5.561l21.66 3.359.22.033.095.201 6.353 13.06 5.848.729.402.049-.033.398-.38 4.93-.013.176-.131.111-8.562 7.44.716 6.077 4.76 4.754 7.114 2.244.384.121-.106.39-1.14 4.169-.036.142-.113.083-7.818 5.951-.37 7.765-.01.262-.044.015-1.061 4.952 6.765 13.136.141.272-.217.218-3.419 3.41-.047.055-.068.028-2.886 1.358 3.384 9.975h6.516l6.424-.754.147-.019.127.083 4.173 2.651.314.199-.157.333-2.179 4.717 4.808 7.388.049.073.016.083 1.134 6.422 2.264 6.788.017.054.002.05.382 4.928.022.273-.244.132-5.472 2.907v4.39l-.036.082-1.898 4.172-.071.159-.167.064-5.912 2.215-3.192 6.729 9.517 6.691 15.668 2.044 6.797-5.66.078-.062.096-.026 3.625-.851.212-3.611.012-.215.182-.116 5.558-3.551-.473-4.257.352-.094 4.153-1.089 1.325-5.527.071-.298.302-.03 20.732-1.819 1.038-4.768-11.576-10.355-.141-.132v-4.924l.243-.116 5.169-2.41.108-.048.111.01 6.462.648 1.348-20.224.009-.083.039-.083 4.138-7.916.1-.196.214-.027 6.951-.993 1.275-5.742-7.144-11.211-.132-.21.117-.22 6.55-12.046.115-.21.239-.01 15.999-.679 4.363-5.693.425-.556.292.632 6.033 13.056 3.477-1.445-.663-7.61-.014-.186.127-.135 15.42-16.773 1.004-6.685-.045-.215 8.265-3.796.175.384 3.736 8.136 6.997 4.132 1.578-5.665.03-.111.073-.078 3.955-3.945-1.568-4.702-3.577-.974-.335-.091.024-.347.345-4.475.016-.147.1-.111 5.366-5.688-.94-4.371-7.347-2.336-.215-.067-.064-.21-2.07-6.883-.059-.201.127-.17 3.626-4.939-3.303-5.616-.21-.355.35-.218 8.861-5.445 5.059-9.765-.668-7.704-3.397-5.422-.116-.188.094-.205 3.376-7.415-1.662-4.312-.025-.063-.005-.067-.345-6.88-.01-.289.263-.117 6.202-2.753.043-.019.045-.01 6.412-1.348 2.772-3.075-2.291-2.861-4.853 3.226zm530.631-10.384l-1.81-22.617-2.49-10.404-7.47-7.462.68-11.081 3.84-3.167-12.9-14.926.23-10.402 5.43-5.88-1.36-5.879-10.87-3.167-11.09-19.674 2.72-1.811 3.39 4.749 5.43-3.392-8.37-7.914-4.53 2.488-7.23-4.689-.12.137-3.74-8.792h-7.48l-.9 5.201-4.76-.453-15.4-30.755.91-9.725 6.11-1.357-4.53-18.091 9.74 7.689.23-21.712 7.7-7.914 11.54-.225-6.56-16.059-3.14-34.588-7.47 2.262-.17.051-.15-.082-5.56-2.923-9.62 27.582-.1.291-.31-.01-12.23-.312-11.3 3.446-.38.118-.14-.378-3.67-10.102-15.23.913-2.73 4.841-.09.161-.19.045-10.49 2.465-1.82 5.449-.08.256-.28.028-5.71.601-1.81 6.343-.06.217-.22.067-6.59 2.095 1.18 6.478 9.47 13.742 5.88 1.234.22.046.09.215 4.01 10.499 6.68-.609.18-.016.14.128 4.45 4.127.1.094.03.137 1.24 6.472 6.14 3.464 4.25-3.963-11.55-13.794 2.72-9.047 11.1-3.845-5.9 8.822 1.36 6.785 8.84 6.105 4.07.225-.22 6.331 3.84.908-3.62 18.091 4.08 6.783 1.36 21.033 3.17 13.569 4.3 13.569-4.98 5.428 1.58 5.201-2.71 3.619 7.01 8.14 1.14 12.89 9.63 10.866v-.001l11.43 12.883 62.49 41.839zm-940.643-32.815l-.115-.015-.092-.075-12.889-10.559-4.621 2.548-.118.066-.132-.016-12.696-1.441.013-.087-8.469-4.392-.069-.034-.052-.061-7.787-8.77-10.109-.962-2.987 7.378 7.139 9.424.074.101.007.128.423 6.733.019.296-.277.114-11.748 4.942v3.951l3.225 2.818.293.251-3.689 4.931-.009-.033-3.209 3.6-4.332 11.142-.03.078-.053.057-3.647 3.898-2.347 6.128-.029.073-.052.062-3.964 4.349-.136.152-.206-.01-3.388-.232-.12 8.349 3.792-.116.434-.016v6.632l8.315.376.373.019.029.369.373 4.709 3.532.853.257.062.055.255.528 2.379.008.026.514 3.328 1.221 1.666 3.163-.821 6.998-8.267.105-.132.172-.016 7.926-.83 5.026-7.952.302-.471.369.414 3.612 4.009 3.19-2.063 1.247-5.602.071-.315.32-.014 8.798-.419 2.372-2.958.629-6.077.014-.132.087-.099 3.877-4.485-2.862-5.517-.052-.104.005-.11.213-4.488.014-.258.233-.106 9.35-4.243 10.833-10.613 7.233-9.558 1.353-3.096-7.85-1.101zM50.813 435.736l-5.063-11.275-9.031-.772-5.017-8.079 7.832-4.402-.922-5.555 1.906-4.67-3.8-9.737-.804-6.243H30.12l-3.188 2.541-10.552-4.88-9.945-.775-1.272 3.114 5.918 6.243-.674 4.965 3.154 2.915-7.126 6.527H2.22L0 408.606l6.435 9.592 11.055-.852 6.262 7.115 5.25-.772 5.807 2.97-.647 5.019 7.984 6.398 8.667-2.34z" fill="#E2E2E2"/></svg>