<svg width="22" height="28" fill="none" xmlns="http://www.w3.org/2000/svg"><path d="M11 0A11.013 11.013 0 000 11c0 9.413 10 16.525 10.425 16.825a1.038 1.038 0 001.15 0C12 27.525 22 20.413 22 11A11.012 11.012 0 0011 0zm0 7a4 4 0 110 8 4 4 0 010-8z" fill="#fff"/><path d="M11 0A11.013 11.013 0 000 11c0 9.413 10 16.525 10.425 16.825a1.038 1.038 0 001.15 0C12 27.525 22 20.413 22 11A11.012 11.012 0 0011 0zm0 7a4 4 0 110 8 4 4 0 010-8z" fill="url(#paint0_linear_3719_4516)"/><defs><linearGradient id="paint0_linear_3719_4516" x1="11" y1="0" x2="11" y2="27.999" gradientUnits="userSpaceOnUse"><stop stop-color="#A42E32"/><stop offset="1" stop-color="#E52A31"/></linearGradient></defs></svg>