<svg width="991" height="428" viewBox="0 0 991 428" fill="none" xmlns="http://www.w3.org/2000/svg">
<g filter="url(#filter0_d_818_4144)">
<path fill-rule="evenodd" clip-rule="evenodd" d="M777.566 369.895L826.146 365.081C827.267 364.971 828.291 365.546 828.771 366.565C829.255 367.584 829.057 368.737 828.263 369.531L787.551 410.244C786.536 411.259 786.538 412.921 787.556 413.939L805.392 431.775C806.411 432.794 808.072 432.795 809.087 431.78L885.345 355.522C886.36 354.507 886.359 352.846 885.34 351.826L866.572 333.059C865.974 332.461 865.208 332.199 864.372 332.313L806.216 340.134L806.371 339.978L785.094 342.644C784.265 342.748 783.507 342.488 782.916 341.896C782.326 341.306 782.066 340.549 782.17 339.72L784.835 318.442L784.68 318.598L792.501 260.442C792.613 259.604 792.353 258.84 791.755 258.241L772.987 239.474C771.968 238.454 770.307 238.454 769.292 239.469L693.034 315.727C692.019 316.742 692.019 318.403 693.039 319.422L710.873 337.256C711.893 338.276 713.555 338.278 714.57 337.263L755.283 296.55C756.076 295.756 757.23 295.559 758.247 296.041C759.268 296.523 759.843 297.547 759.731 298.666L754.919 347.248C754.839 348.056 755.098 348.785 755.672 349.359L775.452 369.139C776.028 369.715 776.756 369.974 777.565 369.894L777.566 369.895ZM532.235 476.525L455.979 552.782C454.962 553.799 454.963 555.459 455.982 556.478L473.817 574.313C474.836 575.332 476.498 575.335 477.515 574.318L503.657 548.176C504.673 547.159 506.332 547.161 507.352 548.181L510.015 550.844C510.949 551.778 511.045 553.233 510.248 554.28C495.139 574.103 492.745 598.008 521.196 626.46L525.504 630.767C558.405 663.668 585.277 655.222 606.873 633.626L613.081 627.418C634.676 605.823 643.125 578.949 610.223 546.048L605.916 541.74C576.872 512.697 552.603 515.876 532.429 531.81C531.386 532.637 529.901 532.55 528.959 531.608L526.442 529.09C525.422 528.071 525.422 526.41 526.438 525.394L553.771 498.061C554.788 497.044 554.786 495.381 553.767 494.362L535.932 476.528C534.913 475.508 533.252 475.508 532.235 476.525L532.235 476.525ZM542.977 563.52C555.028 551.469 566.126 540.371 588.859 563.104C611.591 585.836 600.493 596.934 588.442 608.985C576.27 621.157 565.173 632.254 542.441 609.521C519.708 586.789 530.805 575.692 542.977 563.52ZM698.022 405.256L640.859 462.419C639.842 463.436 638.18 463.434 637.162 462.416L615.14 440.394C614.12 439.374 614.12 437.714 615.137 436.697L672.3 379.534C673.317 378.517 673.314 376.855 672.295 375.836L654.46 358.001C653.441 356.982 651.781 356.981 650.764 357.998L574.508 434.254C573.492 435.269 573.493 436.93 574.512 437.949L686.865 550.303C687.885 551.322 689.546 551.323 690.561 550.307L766.817 474.051C767.834 473.034 767.833 471.374 766.813 470.354L748.979 452.52C747.96 451.501 746.298 451.498 745.281 452.515L688.118 509.678C687.101 510.695 685.441 510.695 684.421 509.675L662.399 487.653C661.379 486.633 661.378 484.973 662.395 483.956L719.558 426.793C720.575 425.776 720.573 424.114 719.555 423.096L701.719 405.26C700.7 404.241 699.039 404.24 698.022 405.257L698.022 405.256Z" fill="white"/>
<path fill-rule="evenodd" clip-rule="evenodd" d="M1116.14 31.3238L1164.72 26.5103C1165.84 26.4006 1166.86 26.975 1167.34 27.9939C1167.82 29.0129 1167.63 30.1665 1166.83 30.9604L1126.12 71.6731C1125.11 72.6879 1125.11 74.3504 1126.13 75.3683L1143.96 93.2039C1144.98 94.2236 1146.64 94.224 1147.66 93.2092L1223.91 16.9509C1224.93 15.9357 1224.93 14.2754 1223.91 13.2557L1205.14 -5.51164C1204.54 -6.1099 1203.78 -6.37207 1202.94 -6.25772L1144.79 1.56349L1144.94 1.40759L1123.66 4.07347C1122.84 4.17704 1122.08 3.91697 1121.49 3.32555C1120.9 2.73558 1120.64 1.97772 1120.74 1.14874L1123.41 -20.1284L1123.25 -19.9725L1131.07 -78.1285C1131.18 -78.9665 1130.92 -79.7312 1130.32 -80.3295L1111.56 -99.0971C1110.54 -100.116 1108.88 -100.117 1107.86 -99.102L1031.6 -22.8438C1030.59 -21.829 1030.59 -20.1683 1031.61 -19.1489L1049.44 -1.31453C1050.46 -0.295217 1052.12 -0.292975 1053.14 -1.30778L1093.85 -42.0205C1094.65 -42.8144 1095.8 -43.0121 1096.82 -42.5302C1097.84 -42.0482 1098.41 -41.0237 1098.3 -39.9048L1093.49 8.67699C1093.41 9.48549 1093.67 10.2142 1094.24 10.7884L1114.02 30.5685C1114.6 31.1444 1115.33 31.403 1116.14 31.3231L1116.14 31.3238ZM870.805 137.955L794.549 214.211C793.532 215.228 793.533 216.888 794.552 217.907L812.387 235.742C813.406 236.761 815.068 236.764 816.085 235.747L842.227 209.605C843.243 208.589 844.902 208.591 845.922 209.61L848.585 212.273C849.519 213.207 849.614 214.662 848.818 215.709C833.709 235.532 831.315 259.437 859.766 287.889L864.073 292.196C896.975 325.097 923.847 316.651 945.442 295.055L951.651 288.847C973.246 267.252 981.695 240.378 948.793 207.477L944.486 203.169C915.442 174.126 891.173 177.305 870.999 193.239C869.956 194.066 868.471 193.979 867.529 193.037L865.011 190.52C863.992 189.5 863.992 187.84 865.008 186.823L892.341 159.49C893.358 158.473 893.356 156.81 892.337 155.791L874.502 137.957C873.483 136.937 871.822 136.937 870.805 137.954L870.805 137.955ZM881.547 224.949C893.598 212.898 904.696 201.8 927.428 224.533C950.161 247.265 939.063 258.364 927.012 270.414C914.84 282.586 903.743 293.683 881.011 270.951C858.278 248.218 869.375 237.121 881.547 224.949ZM1036.59 66.6857L979.429 123.849C978.412 124.866 976.75 124.863 975.732 123.846L953.71 101.823C952.69 100.803 952.689 99.1431 953.706 98.1262L1010.87 40.9632C1011.89 39.9463 1011.88 38.2841 1010.86 37.2648L993.03 19.4303C992.011 18.411 990.35 18.4103 989.333 19.4272L913.077 95.6833C912.062 96.6985 912.063 98.3592 913.082 99.3785L1025.44 211.732C1026.45 212.751 1028.12 212.752 1029.13 211.737L1105.39 135.481C1106.4 134.464 1106.4 132.803 1105.38 131.783L1087.55 113.949C1086.53 112.93 1084.87 112.928 1083.85 113.944L1026.69 171.107C1025.67 172.124 1024.01 172.124 1022.99 171.104L1000.97 149.082C999.949 148.062 999.948 146.402 1000.97 145.385L1058.13 88.222C1059.15 87.2051 1059.14 85.5429 1058.12 84.525L1040.29 66.6892C1039.27 65.6699 1037.61 65.6691 1036.59 66.686L1036.59 66.6857Z" fill="white"/>
<path fill-rule="evenodd" clip-rule="evenodd" d="M799.625 77.3618L848.205 72.5482C849.326 72.4386 850.35 73.0129 850.83 74.0319C851.314 75.0508 851.116 76.2045 850.323 76.9984L809.61 117.711C808.595 118.726 808.597 120.388 809.615 121.406L827.451 139.242C828.47 140.262 830.131 140.262 831.146 139.247L907.404 62.9888C908.419 61.9737 908.419 60.3133 907.399 59.2937L888.632 40.5263C888.033 39.9281 887.267 39.6659 886.431 39.7802L828.275 47.6015L828.431 47.4456L807.153 50.1114C806.324 50.215 805.566 49.9549 804.975 49.3635C804.385 48.7735 804.125 48.0157 804.229 47.1867L806.894 25.9095L806.739 26.0654L814.56 -32.0906C814.672 -32.9285 814.412 -33.6932 813.814 -34.2915L795.046 -53.0592C794.027 -54.0785 792.366 -54.0793 791.351 -53.0641L715.093 23.1942C714.078 24.209 714.079 25.8697 715.098 26.889L732.932 44.7234C733.952 45.7427 735.614 45.745 736.629 44.7302L777.342 4.01749C778.136 3.2236 779.289 3.02589 780.306 3.50781C781.327 3.98973 781.902 5.01423 781.79 6.13312L776.978 54.715C776.898 55.5235 777.157 56.2522 777.731 56.8263L797.511 76.6065C798.087 77.1824 798.816 77.4409 799.624 77.3611L799.625 77.3618ZM554.295 183.993L478.038 260.249C477.021 261.266 477.022 262.926 478.041 263.945L495.876 281.78C496.895 282.799 498.557 282.802 499.574 281.785L525.716 255.643C526.732 254.627 528.391 254.629 529.411 255.648L532.074 258.311C533.008 259.245 533.104 260.7 532.307 261.747C517.198 281.57 514.804 305.475 543.255 333.927L547.563 338.234C580.464 371.135 607.336 362.689 628.932 341.093L635.14 334.885C656.735 313.29 665.184 286.416 632.282 253.515L627.975 249.207C598.931 220.164 574.663 223.343 554.488 239.277C553.446 240.104 551.96 240.017 551.018 239.075L548.501 236.558C547.481 235.538 547.481 233.878 548.497 232.861L575.831 205.528C576.847 204.511 576.845 202.848 575.826 201.829L557.992 183.995C556.972 182.975 555.311 182.975 554.295 183.992L554.295 183.993ZM565.036 270.987C577.087 258.936 588.185 247.838 610.918 270.571C633.65 293.303 622.552 304.402 610.502 316.452C598.33 328.624 587.232 339.721 564.5 316.989C541.767 294.256 552.864 283.159 565.036 270.987ZM720.081 112.724L662.918 169.887C661.901 170.904 660.239 170.901 659.221 169.883L637.199 147.861C636.179 146.841 636.179 145.181 637.196 144.164L694.359 87.0012C695.376 85.9842 695.373 84.3221 694.354 83.3028L676.519 65.4683C675.5 64.449 673.84 64.4482 672.823 65.4652L596.567 141.721C595.551 142.736 595.552 144.397 596.571 145.417L708.924 257.77C709.944 258.789 711.605 258.79 712.62 257.775L788.876 181.518C789.893 180.502 789.892 178.841 788.872 177.821L771.038 159.987C770.019 158.968 768.357 158.965 767.34 159.982L710.177 217.145C709.16 218.162 707.5 218.162 706.48 217.142L684.458 195.12C683.438 194.1 683.438 192.44 684.455 191.423L741.617 134.26C742.634 133.243 742.632 131.581 741.614 130.563L723.778 112.727C722.759 111.708 721.098 111.707 720.081 112.724L720.081 112.724Z" fill="white"/>
<path fill-rule="evenodd" clip-rule="evenodd" d="M461.054 415.933L509.634 411.119C510.755 411.009 511.779 411.584 512.26 412.603C512.743 413.622 512.546 414.775 511.752 415.569L471.039 456.282C470.024 457.297 470.026 458.959 471.044 459.977L488.88 477.813C489.9 478.832 491.56 478.833 492.575 477.818L568.833 401.56C569.849 400.544 569.848 398.884 568.828 397.864L550.061 379.097C549.462 378.499 548.696 378.237 547.86 378.351L489.704 386.172L489.86 386.016L468.583 388.682C467.754 388.786 466.996 388.526 466.404 387.934C465.814 387.344 465.554 386.586 465.658 385.758L468.324 364.48L468.168 364.636L475.989 306.48C476.102 305.642 475.841 304.878 475.243 304.279L456.475 285.512C455.456 284.492 453.796 284.492 452.78 285.507L376.522 361.765C375.507 362.78 375.508 364.441 376.527 365.46L394.361 383.294C395.381 384.314 397.043 384.316 398.058 383.301L438.771 342.588C439.565 341.794 440.718 341.597 441.736 342.079C442.756 342.561 443.331 343.585 443.219 344.704L438.407 393.286C438.327 394.094 438.586 394.823 439.16 395.397L458.94 415.177C459.516 415.753 460.245 416.012 461.054 415.932L461.054 415.933ZM215.724 522.563L139.468 598.82C138.451 599.837 138.451 601.497 139.471 602.516L157.305 620.351C158.324 621.37 159.987 621.372 161.004 620.356L187.145 594.214C188.162 593.197 189.82 593.199 190.84 594.219L193.503 596.882C194.437 597.816 194.533 599.271 193.736 600.318C178.628 620.141 176.233 644.046 204.685 672.498L208.992 676.805C241.893 709.706 268.765 701.26 290.361 679.664L296.569 673.456C318.164 651.861 326.613 624.987 293.711 592.086L289.404 587.778C260.361 558.735 236.092 561.914 215.917 577.848C214.875 578.674 213.389 578.588 212.447 577.646L209.93 575.128C208.91 574.109 208.91 572.448 209.927 571.432L237.26 544.099C238.277 543.082 238.274 541.419 237.255 540.4L219.421 522.565C218.401 521.546 216.741 521.546 215.724 522.563L215.724 522.563ZM226.466 609.558C238.516 597.507 249.614 586.409 272.347 609.142C295.079 631.874 283.981 642.972 271.931 655.023C259.759 667.195 248.662 678.292 225.929 655.559C203.196 632.827 214.293 621.73 226.466 609.558ZM381.51 451.294L324.347 508.457C323.33 509.474 321.669 509.472 320.651 508.454L298.628 486.432C297.608 485.412 297.608 483.752 298.625 482.735L355.788 425.572C356.805 424.555 356.802 422.893 355.783 421.874L337.949 404.039C336.929 403.02 335.269 403.019 334.252 404.036L257.996 480.292C256.981 481.307 256.981 482.968 258 483.987L370.353 596.34C371.373 597.36 373.034 597.36 374.049 596.345L450.305 520.089C451.322 519.072 451.321 517.412 450.302 516.392L432.468 498.558C431.448 497.539 429.786 497.536 428.769 498.553L371.606 555.716C370.589 556.733 368.929 556.733 367.91 555.713L345.887 533.69C344.867 532.671 344.867 531.011 345.884 529.994L403.047 472.831C404.064 471.814 404.061 470.152 403.043 469.134L385.207 451.298C384.188 450.279 382.528 450.278 381.511 451.295L381.51 451.294Z" fill="white"/>
<path fill-rule="evenodd" clip-rule="evenodd" d="M1138.2 -261.209L1186.78 -266.023C1187.9 -266.132 1188.92 -265.558 1189.4 -264.539C1189.88 -263.52 1189.69 -262.366 1188.89 -261.572L1148.18 -220.86C1147.17 -219.845 1147.17 -218.182 1148.19 -217.165L1166.02 -199.329C1167.04 -198.309 1168.7 -198.309 1169.72 -199.324L1245.97 -275.582C1246.99 -276.597 1246.99 -278.257 1245.97 -279.277L1227.2 -298.044C1226.6 -298.643 1225.84 -298.905 1225 -298.791L1166.85 -290.969L1167 -291.125L1145.72 -288.459C1144.9 -288.356 1144.14 -288.616 1143.55 -289.207C1142.96 -289.797 1142.7 -290.555 1142.8 -291.384L1145.47 -312.661L1145.31 -312.505L1153.13 -370.661C1153.24 -371.499 1152.98 -372.264 1152.38 -372.862L1133.62 -391.63C1132.6 -392.649 1130.94 -392.65 1129.92 -391.635L1053.66 -315.377C1052.65 -314.362 1052.65 -312.701 1053.67 -311.682L1071.5 -293.847C1072.52 -292.828 1074.18 -292.826 1075.2 -293.841L1115.91 -334.553C1116.71 -335.347 1117.86 -335.545 1118.88 -335.063C1119.9 -334.581 1120.47 -333.557 1120.36 -332.438L1115.55 -283.856C1115.47 -283.047 1115.73 -282.319 1116.3 -281.744L1136.08 -261.964C1136.66 -261.388 1137.39 -261.13 1138.2 -261.21L1138.2 -261.209ZM892.865 -154.578L816.609 -78.3221C815.592 -77.3051 815.593 -75.6447 816.612 -74.6254L834.447 -56.791C835.466 -55.7717 837.128 -55.7691 838.145 -56.7861L864.287 -82.9276C865.303 -83.9441 866.962 -83.9422 867.982 -82.9226L870.645 -80.2594C871.579 -79.3254 871.675 -77.871 870.878 -76.8236C855.769 -57.0003 853.375 -33.0955 881.826 -4.64399L886.134 -0.33657C919.035 32.5647 945.907 24.118 967.502 2.52247L973.711 -3.68564C995.306 -25.2808 1003.75 -52.1544 970.853 -85.056L966.546 -89.3634C937.502 -118.407 913.233 -115.228 893.059 -99.2938C892.016 -98.4671 890.531 -98.554 889.589 -99.4959L887.071 -102.013C886.052 -103.033 886.052 -104.693 887.068 -105.71L914.401 -133.043C915.418 -134.06 915.416 -135.722 914.397 -136.742L896.562 -154.576C895.543 -155.595 893.882 -155.596 892.865 -154.579L892.865 -154.578ZM903.607 -67.5839C915.658 -79.6344 926.756 -90.7326 949.489 -68.0001C972.221 -45.2675 961.123 -34.1693 949.072 -22.1187C936.9 -9.94677 925.803 1.15035 903.071 -21.5822C880.338 -44.3148 891.435 -55.4116 903.607 -67.5839ZM1058.65 -225.847L1001.49 -168.684C1000.47 -167.667 998.81 -167.669 997.792 -168.687L975.77 -190.71C974.75 -191.73 974.75 -193.39 975.767 -194.407L1032.93 -251.57C1033.95 -252.587 1033.94 -254.249 1032.92 -255.268L1015.09 -273.103C1014.07 -274.122 1012.41 -274.123 1011.39 -273.106L935.137 -196.85C934.122 -195.834 934.123 -194.174 935.142 -193.154L1047.5 -80.8011C1048.51 -79.7814 1050.18 -79.7811 1051.19 -80.7963L1127.45 -157.052C1128.46 -158.069 1128.46 -159.73 1127.44 -160.749L1109.61 -178.583C1108.59 -179.603 1106.93 -179.605 1105.91 -178.588L1048.75 -121.425C1047.73 -120.408 1046.07 -120.409 1045.05 -121.429L1023.03 -143.451C1022.01 -144.471 1022.01 -146.131 1023.03 -147.148L1080.19 -204.311C1081.21 -205.328 1081.2 -206.99 1080.18 -208.008L1062.35 -225.844C1061.33 -226.863 1059.67 -226.864 1058.65 -225.847L1058.65 -225.847Z" fill="white"/>
<path fill-rule="evenodd" clip-rule="evenodd" d="M366.101 240.413L414.681 235.599C415.802 235.49 416.826 236.064 417.306 237.083C417.79 238.102 417.592 239.256 416.798 240.049L376.085 280.762C375.071 281.777 375.073 283.439 376.091 284.457L393.926 302.293C394.946 303.313 396.607 303.313 397.621 302.298L473.88 226.04C474.895 225.025 474.894 223.364 473.874 222.345L455.107 203.577C454.509 202.979 453.742 202.717 452.906 202.831L394.75 210.652L394.906 210.497L373.629 213.162C372.8 213.266 372.042 213.006 371.451 212.415C370.861 211.825 370.601 211.067 370.704 210.238L373.37 188.961L373.214 189.116L381.035 130.96C381.148 130.122 380.888 129.358 380.289 128.76L361.522 109.992C360.502 108.973 358.842 108.972 357.827 109.987L281.569 186.245C280.554 187.26 280.554 188.921 281.573 189.94L299.408 207.774C300.427 208.794 302.09 208.796 303.105 207.781L343.817 167.069C344.611 166.275 345.765 166.077 346.782 166.559C347.803 167.041 348.377 168.065 348.266 169.184L343.454 217.766C343.374 218.574 343.633 219.303 344.207 219.877L363.987 239.657C364.563 240.233 365.291 240.492 366.1 240.412L366.101 240.413ZM120.77 347.044L44.514 423.3C43.497 424.317 43.4978 425.977 44.5171 426.996L62.3515 444.831C63.3708 445.85 65.033 445.853 66.05 444.836L92.1915 418.694C93.2081 417.678 94.8667 417.68 95.8864 418.699L98.5495 421.362C99.4835 422.296 99.5793 423.751 98.7825 424.798C83.6741 444.621 81.2794 468.526 109.731 496.978L114.038 501.285C146.94 534.186 173.812 525.74 195.407 504.144L201.615 497.936C223.21 476.341 231.659 449.467 198.758 416.566L194.45 412.258C165.407 383.215 141.138 386.394 120.964 402.328C119.921 403.155 118.435 403.068 117.494 402.126L114.976 399.609C113.957 398.589 113.956 396.929 114.973 395.912L142.306 368.579C143.323 367.562 143.321 365.899 142.302 364.88L124.467 347.046C123.448 346.026 121.787 346.026 120.77 347.043L120.77 347.044ZM131.512 434.038C143.562 421.987 154.661 410.889 177.393 433.622C200.126 456.354 189.028 467.453 176.977 479.503C164.805 491.675 153.708 502.772 130.975 480.04C108.243 457.307 119.34 446.21 131.512 434.038ZM286.557 275.775L229.394 332.938C228.377 333.955 226.715 333.952 225.697 332.935L203.674 310.912C202.655 309.892 202.654 308.232 203.671 307.215L260.834 250.052C261.851 249.035 261.849 247.373 260.829 246.354L242.995 228.519C241.976 227.5 240.315 227.499 239.298 228.516L163.042 304.772C162.027 305.787 162.027 307.448 163.047 308.468L275.4 420.821C276.42 421.84 278.08 421.841 279.095 420.826L355.352 344.569C356.368 343.553 356.368 341.892 355.348 340.872L337.514 323.038C336.495 322.019 334.832 322.017 333.815 323.033L276.653 380.196C275.636 381.213 273.976 381.213 272.956 380.193L250.933 358.171C249.914 357.151 249.913 355.491 250.93 354.474L308.093 297.311C309.11 296.294 309.107 294.632 308.09 293.614L290.254 275.778C289.234 274.759 287.574 274.758 286.557 275.775L286.557 275.775Z" fill="white"/>
<path fill-rule="evenodd" clip-rule="evenodd" d="M704.672 -98.1579L753.253 -102.971C754.374 -103.081 755.398 -102.507 755.878 -101.488C756.361 -100.469 756.164 -99.3151 755.37 -98.5213L714.657 -57.8086C713.642 -56.7938 713.645 -55.1313 714.662 -54.1134L732.498 -36.2778C733.518 -35.2581 735.178 -35.2577 736.193 -36.2725L812.452 -112.531C813.467 -113.546 813.466 -115.206 812.446 -116.226L793.679 -134.993C793.081 -135.592 792.314 -135.854 791.478 -135.739L733.322 -127.918L733.478 -128.074L712.201 -125.408C711.372 -125.305 710.614 -125.565 710.022 -126.156C709.432 -126.746 709.172 -127.504 709.276 -128.333L711.942 -149.61L711.786 -149.454L719.607 -207.61C719.72 -208.448 719.459 -209.213 718.861 -209.811L700.093 -228.579C699.074 -229.598 697.414 -229.599 696.399 -228.584L620.14 -152.325C619.126 -151.311 619.126 -149.65 620.145 -148.631L637.98 -130.796C638.999 -129.777 640.662 -129.775 641.676 -130.789L682.389 -171.502C683.183 -172.296 684.337 -172.494 685.354 -172.012C686.374 -171.53 686.949 -170.505 686.837 -169.387L682.026 -120.805C681.945 -119.996 682.204 -119.267 682.778 -118.693L702.559 -98.9132C703.134 -98.3373 703.863 -98.0787 704.672 -98.1586L704.672 -98.1579ZM459.342 8.47297L383.086 84.7291C382.069 85.746 382.07 87.4064 383.089 88.4258L400.923 106.26C401.943 107.279 403.605 107.282 404.622 106.265L430.763 80.1236C431.78 79.107 433.438 79.1089 434.458 80.1286L437.121 82.7918C438.055 83.7257 438.151 85.1801 437.354 86.2276C422.246 106.051 419.851 129.956 448.303 158.407L452.61 162.715C485.511 195.616 512.384 187.169 533.979 165.574L540.187 159.366C561.782 137.77 570.231 110.897 537.33 77.9951L533.022 73.6877C503.979 44.6444 479.71 47.8232 459.536 63.7574C458.493 64.584 457.007 64.4971 456.065 63.5553L453.548 61.038C452.528 60.0183 452.528 58.3579 453.545 57.3413L480.878 30.0082C481.895 28.9913 481.893 27.3287 480.873 26.3094L463.039 8.47501C462.02 7.45569 460.359 7.45525 459.342 8.47221L459.342 8.47297ZM470.084 95.4673C482.134 83.4167 493.233 72.3185 515.965 95.0511C538.698 117.784 527.599 128.882 515.549 140.932C503.377 153.104 492.28 164.201 469.547 141.469C446.815 118.736 457.911 107.64 470.084 95.4673ZM625.128 -62.796L567.966 -5.63307C566.949 -4.61611 565.287 -4.6183 564.269 -5.63617L542.246 -27.6588C541.227 -28.6785 541.226 -30.3386 542.243 -31.3555L599.406 -88.5185C600.423 -89.5354 600.42 -91.1976 599.401 -92.2169L581.567 -110.051C580.547 -111.071 578.887 -111.071 577.87 -110.054L501.614 -33.7984C500.599 -32.7832 500.599 -31.1225 501.618 -30.1031L613.972 82.25C614.991 83.2697 616.652 83.27 617.667 82.2549L693.923 5.99882C694.94 4.98186 694.94 3.32149 693.92 2.30181L676.086 -15.5323C675.066 -16.5516 673.404 -16.5542 672.387 -15.5372L615.224 41.6257C614.207 42.6427 612.547 42.6423 611.528 41.6226L589.505 19.6C588.485 18.5803 588.485 16.9203 589.502 15.9033L646.665 -41.2597C647.682 -42.2766 647.679 -43.9388 646.661 -44.9567L628.826 -62.7925C627.806 -63.8118 626.146 -63.8126 625.129 -62.7957L625.128 -62.796Z" fill="white"/>
<path fill-rule="evenodd" clip-rule="evenodd" d="M973.225 444.706L1021.81 439.893C1022.93 439.783 1023.95 440.358 1024.43 441.376C1024.91 442.395 1024.72 443.549 1023.92 444.343L983.21 485.056C982.195 486.071 982.198 487.733 983.215 488.751L1001.05 506.586C1002.07 507.606 1003.73 507.607 1004.75 506.592L1081 430.333C1082.02 429.318 1082.02 427.658 1081 426.638L1062.23 407.871C1061.63 407.273 1060.87 407.01 1060.03 407.125L1001.87 414.946L1002.03 414.79L980.754 417.456C979.925 417.56 979.167 417.3 978.575 416.708C977.985 416.118 977.725 415.36 977.829 414.531L980.495 393.254L980.339 393.41L988.16 335.254C988.273 334.416 988.012 333.651 987.414 333.053L968.646 314.285C967.627 313.266 965.967 313.265 964.952 314.281L888.693 390.539C887.678 391.554 887.679 393.214 888.698 394.234L906.533 412.068C907.552 413.087 909.214 413.09 910.229 412.075L950.942 371.362C951.736 370.568 952.89 370.37 953.907 370.852C954.927 371.334 955.502 372.359 955.39 373.478L950.579 422.06C950.498 422.868 950.757 423.597 951.331 424.171L971.112 443.951C971.687 444.527 972.416 444.786 973.225 444.706L973.225 444.706ZM727.895 551.337L651.639 627.593C650.622 628.61 650.623 630.271 651.642 631.29L669.476 649.124C670.496 650.144 672.158 650.146 673.175 649.129L699.316 622.988C700.333 621.971 701.991 621.973 703.011 622.993L705.674 625.656C706.608 626.59 706.704 628.044 705.907 629.092C690.799 648.915 688.404 672.82 716.856 701.271L721.163 705.579C754.064 738.48 780.937 730.033 802.532 708.438L808.74 702.23C830.335 680.635 838.784 653.761 805.883 620.859L801.575 616.552C772.532 587.509 748.263 590.687 728.089 606.622C727.046 607.448 725.56 607.361 724.618 606.42L722.101 603.902C721.081 602.883 721.081 601.222 722.098 600.206L749.431 572.872C750.448 571.856 750.446 570.193 749.426 569.174L731.592 551.339C730.573 550.32 728.912 550.32 727.895 551.336L727.895 551.337ZM738.637 638.332C750.687 626.281 761.785 615.183 784.518 637.915C807.251 660.648 796.152 671.746 784.102 683.797C771.93 695.969 760.833 707.066 738.1 684.333C715.368 661.601 726.464 650.504 738.637 638.332ZM893.681 480.068L836.518 537.231C835.502 538.248 833.84 538.246 832.822 537.228L810.799 515.205C809.78 514.186 809.779 512.526 810.796 511.509L867.959 454.346C868.976 453.329 868.973 451.667 867.954 450.647L850.12 432.813C849.1 431.794 847.44 431.793 846.423 432.81L770.167 509.066C769.152 510.081 769.152 511.742 770.171 512.761L882.525 625.114C883.544 626.134 885.205 626.134 886.22 625.119L962.476 548.863C963.493 547.846 963.493 546.186 962.473 545.166L944.639 527.332C943.619 526.313 941.957 526.31 940.94 527.327L883.777 584.49C882.76 585.507 881.1 585.507 880.081 584.487L858.058 562.464C857.038 561.445 857.038 559.785 858.055 558.768L915.218 501.605C916.235 500.588 916.232 498.925 915.214 497.908L897.379 480.072C896.359 479.052 894.699 479.052 893.682 480.069L893.681 480.068Z" fill="white"/>
<path fill-rule="evenodd" clip-rule="evenodd" d="M1311.8 106.135L1360.38 101.322C1361.5 101.212 1362.52 101.787 1363 102.806C1363.49 103.825 1363.29 104.978 1362.49 105.772L1321.78 146.485C1320.77 147.5 1320.77 149.162 1321.79 150.18L1339.62 168.016C1340.64 169.035 1342.3 169.036 1343.32 168.021L1419.58 91.7625C1420.59 90.7474 1420.59 89.087 1419.57 88.0673L1400.8 69.3C1400.21 68.7017 1399.44 68.4396 1398.6 68.5539L1340.45 76.3751L1340.6 76.2192L1319.33 78.8851C1318.5 78.9887 1317.74 78.7286 1317.15 78.1372C1316.56 77.5472 1316.3 76.7894 1316.4 75.9604L1319.07 54.6832L1318.91 54.8391L1326.73 -3.31689C1326.84 -4.15485 1326.58 -4.91957 1325.99 -5.51783L1307.22 -24.2855C1306.2 -25.3048 1304.54 -25.3056 1303.52 -24.2904L1227.27 51.9679C1226.25 52.9827 1226.25 54.6434 1227.27 55.6627L1245.1 73.4971C1246.12 74.5164 1247.79 74.5187 1248.8 73.5039L1289.51 32.7912C1290.31 31.9973 1291.46 31.7996 1292.48 32.2815C1293.5 32.7634 1294.07 33.7879 1293.96 34.9068L1289.15 83.4886C1289.07 84.2971 1289.33 85.0259 1289.9 85.6L1309.68 105.38C1310.26 105.956 1310.99 106.215 1311.8 106.135L1311.8 106.135ZM1066.47 212.766L990.211 289.022C989.194 290.039 989.195 291.7 990.214 292.719L1008.05 310.553C1009.07 311.573 1010.73 311.575 1011.75 310.558L1037.89 284.417C1038.9 283.4 1040.56 283.402 1041.58 284.422L1044.25 287.085C1045.18 288.019 1045.28 289.473 1044.48 290.521C1029.37 310.344 1026.98 334.249 1055.43 362.7L1059.74 367.008C1092.64 399.909 1119.51 391.462 1141.1 369.867L1147.31 363.659C1168.91 342.064 1177.36 315.19 1144.45 282.288L1140.15 277.981C1111.1 248.938 1086.83 252.117 1066.66 268.051C1065.62 268.877 1064.13 268.79 1063.19 267.849L1060.67 265.331C1059.65 264.312 1059.65 262.651 1060.67 261.635L1088 234.302C1089.02 233.285 1089.02 231.622 1088 230.603L1070.16 212.768C1069.14 211.749 1067.48 211.749 1066.47 212.766L1066.47 212.766ZM1077.21 299.761C1089.26 287.71 1100.36 276.612 1123.09 299.344C1145.82 322.077 1134.72 333.175 1122.67 345.226C1110.5 357.398 1099.4 368.495 1076.67 345.762C1053.94 323.03 1065.04 311.933 1077.21 299.761ZM1232.25 141.497L1175.09 198.66C1174.07 199.677 1172.41 199.675 1171.39 198.657L1149.37 176.635C1148.35 175.615 1148.35 173.955 1149.37 172.938L1206.53 115.775C1207.55 114.758 1207.55 113.096 1206.53 112.076L1188.69 94.242C1187.67 93.2227 1186.01 93.2219 1185 94.2389L1108.74 170.495C1107.72 171.51 1107.72 173.171 1108.74 174.19L1221.1 286.543C1222.12 287.563 1223.78 287.563 1224.79 286.548L1301.05 210.292C1302.07 209.275 1302.06 207.615 1301.04 206.595L1283.21 188.761C1282.19 187.742 1280.53 187.739 1279.51 188.756L1222.35 245.919C1221.33 246.936 1219.67 246.936 1218.65 245.916L1196.63 223.893C1195.61 222.874 1195.61 221.214 1196.63 220.197L1253.79 163.034C1254.81 162.017 1254.8 160.355 1253.79 159.337L1235.95 141.501C1234.93 140.482 1233.27 140.481 1232.25 141.498L1232.25 141.497Z" fill="white"/>
<path fill-rule="evenodd" clip-rule="evenodd" d="M1168.89 519.518L1217.47 514.704C1218.59 514.595 1219.61 515.169 1220.09 516.188C1220.58 517.207 1220.38 518.361 1219.58 519.155L1178.87 559.867C1177.86 560.882 1177.86 562.545 1178.88 563.563L1196.71 581.398C1197.73 582.418 1199.39 582.418 1200.41 581.403L1276.67 505.145C1277.68 504.13 1277.68 502.47 1276.66 501.45L1257.89 482.683C1257.3 482.084 1256.53 481.822 1255.69 481.936L1197.54 489.758L1197.69 489.602L1176.42 492.268C1175.59 492.371 1174.83 492.111 1174.24 491.52C1173.65 490.93 1173.39 490.172 1173.49 489.343L1176.16 468.066L1176 468.222L1183.82 410.066C1183.93 409.228 1183.67 408.463 1183.08 407.865L1164.31 389.097C1163.29 388.078 1161.63 388.077 1160.61 389.092L1084.35 465.35C1083.34 466.365 1083.34 468.026 1084.36 469.045L1102.19 486.88C1103.21 487.899 1104.88 487.901 1105.89 486.886L1146.6 446.174C1147.4 445.38 1148.55 445.182 1149.57 445.664C1150.59 446.146 1151.16 447.17 1151.05 448.289L1146.24 496.871C1146.16 497.68 1146.42 498.408 1146.99 498.983L1166.77 518.763C1167.35 519.339 1168.08 519.597 1168.89 519.517L1168.89 519.518ZM923.556 626.149L847.3 702.405C846.283 703.422 846.284 705.082 847.303 706.102L865.138 723.936C866.157 724.955 867.819 724.958 868.836 723.941L894.978 697.8C895.994 696.783 897.653 696.785 898.673 697.804L901.336 700.468C902.27 701.402 902.366 702.856 901.569 703.903C886.46 723.727 884.066 747.632 912.517 776.083L916.825 780.39C949.726 813.292 976.598 804.845 998.194 783.25L1004.4 777.041C1026 755.446 1034.45 728.573 1001.54 695.671L997.237 691.364C968.193 662.32 943.925 665.499 923.75 681.433C922.707 682.26 921.222 682.173 920.28 681.231L917.763 678.714C916.743 677.694 916.743 676.034 917.759 675.017L945.092 647.684C946.109 646.667 946.107 645.005 945.088 643.985L927.253 626.151C926.234 625.132 924.573 625.131 923.556 626.148L923.556 626.149ZM934.298 713.143C946.349 701.093 957.447 689.994 980.18 712.727C1002.91 735.46 991.814 746.558 979.763 758.608C967.592 770.78 956.494 781.877 933.762 759.145C911.029 736.412 922.126 725.315 934.298 713.143ZM1089.34 554.88L1032.18 612.043C1031.16 613.06 1029.5 613.058 1028.48 612.04L1006.46 590.017C1005.44 588.997 1005.44 587.337 1006.46 586.32L1063.62 529.157C1064.64 528.14 1064.64 526.478 1063.62 525.459L1045.78 507.625C1044.76 506.605 1043.1 506.604 1042.08 507.621L965.829 583.878C964.813 584.893 964.814 586.553 965.833 587.573L1078.19 699.926C1079.21 700.946 1080.87 700.946 1081.88 699.931L1158.14 623.675C1159.15 622.658 1159.15 620.997 1158.13 619.978L1140.3 602.144C1139.28 601.124 1137.62 601.122 1136.6 602.139L1079.44 659.302C1078.42 660.319 1076.76 660.318 1075.74 659.299L1053.72 637.276C1052.7 636.256 1052.7 634.596 1053.72 633.579L1110.88 576.416C1111.9 575.399 1111.89 573.737 1110.88 572.719L1093.04 554.883C1092.02 553.864 1090.36 553.863 1089.34 554.88L1089.34 554.88Z" fill="white"/>
</g>
<defs>
<filter id="filter0_d_818_4144" x="39.752" y="-567.915" width="1580.25" height="1378.22" filterUnits="userSpaceOnUse" color-interpolation-filters="sRGB">
<feFlood flood-opacity="0" result="BackgroundImageFix"/>
<feColorMatrix in="SourceAlpha" type="matrix" values="0 0 0 0 0 0 0 0 0 0 0 0 0 0 0 0 0 0 127 0" result="hardAlpha"/>
<feOffset dy="4"/>
<feGaussianBlur stdDeviation="2"/>
<feComposite in2="hardAlpha" operator="out"/>
<feColorMatrix type="matrix" values="0 0 0 0 0 0 0 0 0 0 0 0 0 0 0 0 0 0 0.05 0"/>
<feBlend mode="normal" in2="BackgroundImageFix" result="effect1_dropShadow_818_4144"/>
<feBlend mode="normal" in="SourceGraphic" in2="effect1_dropShadow_818_4144" result="shape"/>
</filter>
</defs>
</svg>
