<svg width="1920" height="428" viewBox="0 0 1920 428" fill="none" xmlns="http://www.w3.org/2000/svg">
<g filter="url(#filter0_d_899_2921)">
<path fill-rule="evenodd" clip-rule="evenodd" d="M491.566 225.895L540.146 221.081C541.267 220.971 542.291 221.546 542.771 222.565C543.255 223.584 543.057 224.737 542.263 225.531L501.551 266.244C500.536 267.259 500.538 268.921 501.556 269.939L519.392 287.775C520.411 288.794 522.072 288.795 523.087 287.78L599.345 211.522C600.36 210.507 600.359 208.846 599.34 207.826L580.572 189.059C579.974 188.461 579.208 188.199 578.372 188.313L520.216 196.134L520.371 195.978L499.094 198.644C498.265 198.748 497.507 198.488 496.916 197.896C496.326 197.306 496.066 196.549 496.17 195.72L498.835 174.442L498.68 174.598L506.501 116.442C506.613 115.604 506.353 114.84 505.755 114.241L486.987 95.4737C485.968 94.4544 484.307 94.4536 483.292 95.4688L407.034 171.727C406.019 172.742 406.019 174.403 407.039 175.422L424.873 193.256C425.893 194.276 427.555 194.278 428.57 193.263L469.283 152.55C470.076 151.756 471.23 151.559 472.247 152.041C473.268 152.523 473.843 153.547 473.731 154.666L468.919 203.248C468.839 204.056 469.098 204.785 469.672 205.359L489.452 225.139C490.028 225.715 490.756 225.974 491.565 225.894L491.566 225.895ZM246.235 332.525L169.979 408.782C168.962 409.799 168.963 411.459 169.982 412.478L187.817 430.313C188.836 431.332 190.498 431.335 191.515 430.318L217.657 404.176C218.673 403.159 220.332 403.161 221.352 404.181L224.015 406.844C224.949 407.778 225.045 409.233 224.248 410.28C209.139 430.103 206.745 454.008 235.196 482.46L239.504 486.767C272.405 519.668 299.277 511.222 320.873 489.626L327.081 483.418C348.676 461.823 357.125 434.949 324.223 402.048L319.916 397.74C290.872 368.697 266.603 371.876 246.429 387.81C245.386 388.637 243.901 388.55 242.959 387.608L240.442 385.09C239.422 384.071 239.422 382.41 240.438 381.394L267.771 354.061C268.788 353.044 268.786 351.381 267.767 350.362L249.932 332.528C248.913 331.508 247.252 331.508 246.235 332.525L246.235 332.525ZM256.977 419.52C269.028 407.469 280.126 396.371 302.859 419.104C325.591 441.836 314.493 452.934 302.442 464.985C290.27 477.157 279.173 488.254 256.441 465.521C233.708 442.789 244.805 431.692 256.977 419.52ZM412.022 261.256L354.859 318.419C353.842 319.436 352.18 319.434 351.162 318.416L329.14 296.394C328.12 295.374 328.12 293.714 329.137 292.697L386.3 235.534C387.317 234.517 387.314 232.855 386.295 231.836L368.46 214.001C367.441 212.982 365.781 212.981 364.764 213.998L288.508 290.254C287.492 291.269 287.493 292.93 288.512 293.949L400.865 406.303C401.885 407.322 403.546 407.323 404.561 406.307L480.817 330.051C481.834 329.034 481.833 327.374 480.813 326.354L462.979 308.52C461.96 307.501 460.298 307.498 459.281 308.515L402.118 365.678C401.101 366.695 399.441 366.695 398.421 365.675L376.399 343.653C375.379 342.633 375.378 340.973 376.395 339.956L433.558 282.793C434.575 281.776 434.573 280.114 433.555 279.096L415.719 261.26C414.7 260.241 413.039 260.24 412.022 261.257L412.022 261.256Z" fill="white"/>
<path fill-rule="evenodd" clip-rule="evenodd" d="M830.136 -112.676L878.716 -117.49C879.837 -117.599 880.861 -117.025 881.341 -116.006C881.825 -114.987 881.627 -113.833 880.833 -113.04L840.121 -72.3269C839.106 -71.3121 839.108 -69.6496 840.126 -68.6317L857.961 -50.7961C858.981 -49.7764 860.642 -49.776 861.657 -50.7908L937.915 -127.049C938.93 -128.064 938.929 -129.725 937.91 -130.744L919.142 -149.512C918.544 -150.11 917.778 -150.372 916.941 -150.258L858.785 -142.437L858.941 -142.592L837.664 -139.927C836.835 -139.823 836.077 -140.083 835.486 -140.674C834.896 -141.264 834.636 -142.022 834.739 -142.851L837.405 -164.128L837.249 -163.973L845.071 -222.129C845.183 -222.966 844.923 -223.731 844.324 -224.329L825.557 -243.097C824.537 -244.116 822.877 -244.117 821.862 -243.102L745.604 -166.844C744.589 -165.829 744.589 -164.168 745.609 -163.149L763.443 -145.315C764.462 -144.295 766.125 -144.293 767.14 -145.308L807.852 -186.02C808.646 -186.814 809.8 -187.012 810.817 -186.53C811.838 -186.048 812.413 -185.024 812.301 -183.905L807.489 -135.323C807.409 -134.515 807.668 -133.786 808.242 -133.212L828.022 -113.432C828.598 -112.856 829.326 -112.597 830.135 -112.677L830.136 -112.676ZM584.805 -6.04534L508.549 70.2108C507.532 71.2277 507.533 72.8881 508.552 73.9074L526.387 91.7419C527.406 92.7612 529.068 92.7637 530.085 91.7468L556.227 65.6053C557.243 64.5887 558.902 64.5906 559.922 65.6103L562.585 68.2734C563.519 69.2074 563.614 70.6618 562.818 71.7093C547.709 91.5325 545.315 115.437 573.766 143.889L578.073 148.196C610.975 181.097 637.847 172.651 659.442 151.055L665.651 144.847C687.246 123.252 695.695 96.3784 662.793 63.4768L658.486 59.1694C629.442 30.1261 605.173 33.3049 584.999 49.2391C583.956 50.0657 582.471 49.9788 581.529 49.0369L579.011 46.5197C577.992 45.5 577.992 43.8396 579.008 42.823L606.341 15.4899C607.358 14.473 607.356 12.8104 606.337 11.7911L588.502 -6.0433C587.483 -7.06262 585.822 -7.06306 584.805 -6.0461L584.805 -6.04534ZM595.547 80.949C607.598 68.8984 618.696 57.8002 641.428 80.5328C664.161 103.265 653.063 114.364 641.012 126.414C628.84 138.586 617.743 149.683 595.011 126.951C572.278 104.218 583.375 93.1213 595.547 80.949ZM750.592 -77.3143L693.429 -20.1514C692.412 -19.1344 690.75 -19.1366 689.732 -20.1545L667.71 -42.1771C666.69 -43.1968 666.689 -44.8569 667.706 -45.8738L724.869 -103.037C725.886 -104.054 725.884 -105.716 724.865 -106.735L707.03 -124.57C706.011 -125.589 704.35 -125.59 703.333 -124.573L627.077 -48.3167C626.062 -47.3015 626.063 -45.6408 627.082 -44.6215L739.435 67.7317C740.455 68.7514 742.115 68.7517 743.131 67.7366L819.387 -8.51949C820.404 -9.53645 820.403 -11.1968 819.383 -12.2165L801.549 -30.0506C800.53 -31.0699 798.868 -31.0725 797.851 -30.0555L740.688 27.1074C739.671 28.1244 738.011 28.124 736.991 27.1043L714.968 5.08171C713.949 4.06204 713.948 2.40195 714.965 1.38499L772.128 -55.778C773.145 -56.7949 773.143 -58.4571 772.125 -59.475L754.289 -77.3108C753.27 -78.3301 751.609 -78.3309 750.592 -77.314L750.592 -77.3143Z" fill="white"/>
<path fill-rule="evenodd" clip-rule="evenodd" d="M513.625 -66.6382L562.205 -71.4518C563.326 -71.5614 564.35 -70.9871 564.83 -69.9681C565.314 -68.9492 565.116 -67.7955 564.323 -67.0016L523.61 -26.2889C522.595 -25.2741 522.597 -23.6116 523.615 -22.5937L541.451 -4.75816C542.47 -3.73848 544.131 -3.73807 545.146 -4.75288L621.404 -81.0112C622.419 -82.0263 622.419 -83.6867 621.399 -84.7063L602.632 -103.474C602.033 -104.072 601.267 -104.334 600.431 -104.22L542.275 -96.3985L542.431 -96.5544L521.153 -93.8886C520.324 -93.785 519.566 -94.0451 518.975 -94.6365C518.385 -95.2265 518.125 -95.9843 518.229 -96.8133L520.894 -118.09L520.739 -117.935L528.56 -176.091C528.672 -176.929 528.412 -177.693 527.814 -178.292L509.046 -197.059C508.027 -198.078 506.366 -198.079 505.351 -197.064L429.093 -120.806C428.078 -119.791 428.079 -118.13 429.098 -117.111L446.932 -99.2766C447.952 -98.2573 449.614 -98.255 450.629 -99.2698L491.342 -139.983C492.136 -140.776 493.289 -140.974 494.306 -140.492C495.327 -140.01 495.902 -138.986 495.79 -137.867L490.978 -89.285C490.898 -88.4765 491.157 -87.7478 491.731 -87.1737L511.511 -67.3935C512.087 -66.8176 512.816 -66.5591 513.624 -66.6389L513.625 -66.6382ZM268.295 39.9926L192.038 116.249C191.021 117.266 191.022 118.926 192.041 119.945L209.876 137.78C210.895 138.799 212.557 138.802 213.574 137.785L239.716 111.643C240.732 110.627 242.391 110.629 243.411 111.648L246.074 114.311C247.008 115.245 247.104 116.7 246.307 117.747C231.198 137.57 228.804 161.475 257.255 189.927L261.563 194.234C294.464 227.135 321.336 218.689 342.932 197.093L349.14 190.885C370.735 169.29 379.184 142.416 346.282 109.515L341.975 105.207C312.931 76.1641 288.663 79.3428 268.488 95.277C267.446 96.1037 265.96 96.0168 265.018 95.0749L262.501 92.5576C261.481 91.538 261.481 89.8775 262.497 88.8609L289.831 61.5279C290.847 60.5109 290.845 58.8484 289.826 57.8291L271.992 39.9947C270.972 38.9753 269.311 38.9749 268.295 39.9919L268.295 39.9926ZM279.036 126.987C291.087 114.936 302.185 103.838 324.918 126.571C347.65 149.303 336.552 160.402 324.502 172.452C312.33 184.624 301.232 195.721 278.5 172.989C255.767 150.256 266.864 139.159 279.036 126.987ZM434.081 -31.2764L376.918 25.8866C375.901 26.9035 374.239 26.9014 373.221 25.8835L351.199 3.86086C350.179 2.84118 350.179 1.1811 351.196 0.164135L408.359 -56.9988C409.376 -58.0158 409.373 -59.6779 408.354 -60.6972L390.519 -78.5317C389.5 -79.551 387.84 -79.5518 386.823 -78.5348L310.567 -2.27873C309.551 -1.26358 309.552 0.397192 310.571 1.41651L422.924 113.77C423.944 114.789 425.605 114.79 426.62 113.775L502.876 37.5185C503.893 36.5015 503.892 34.8411 502.872 33.8215L485.038 15.9874C484.019 14.9681 482.357 14.9655 481.34 15.9824L424.177 73.1454C423.16 74.1624 421.5 74.162 420.48 73.1423L398.458 51.1197C397.438 50.1 397.438 48.4399 398.455 47.423L455.617 -9.74C456.634 -10.757 456.632 -12.4191 455.614 -13.437L437.778 -31.2729C436.759 -32.2922 435.098 -32.293 434.081 -31.276L434.081 -31.2764Z" fill="white"/>
<path fill-rule="evenodd" clip-rule="evenodd" d="M175.054 271.933L223.634 267.119C224.755 267.009 225.779 267.584 226.26 268.603C226.743 269.622 226.546 270.775 225.752 271.569L185.039 312.282C184.024 313.297 184.026 314.959 185.044 315.977L202.88 333.813C203.9 334.832 205.56 334.833 206.575 333.818L282.833 257.56C283.849 256.544 283.848 254.884 282.828 253.864L264.061 235.097C263.462 234.499 262.696 234.237 261.86 234.351L203.704 242.172L203.86 242.016L182.583 244.682C181.754 244.786 180.996 244.526 180.404 243.934C179.814 243.344 179.554 242.586 179.658 241.758L182.324 220.48L182.168 220.636L189.989 162.48C190.102 161.642 189.841 160.878 189.243 160.279L170.475 141.512C169.456 140.492 167.796 140.492 166.78 141.507L90.5222 217.765C89.5074 218.78 89.5078 220.441 90.5271 221.46L108.361 239.294C109.381 240.314 111.043 240.316 112.058 239.301L152.771 198.588C153.565 197.794 154.718 197.597 155.736 198.079C156.756 198.561 157.331 199.585 157.219 200.704L152.407 249.286C152.327 250.094 152.586 250.823 153.16 251.397L172.94 271.177C173.516 271.753 174.245 272.012 175.054 271.932L175.054 271.933ZM-70.2763 378.563L-146.532 454.82C-147.549 455.837 -147.549 457.497 -146.529 458.516L-128.695 476.351C-127.676 477.37 -126.013 477.372 -124.996 476.356L-98.8549 450.214C-97.8383 449.197 -96.1797 449.199 -95.16 450.219L-92.4969 452.882C-91.5629 453.816 -91.4671 455.271 -92.2639 456.318C-107.372 476.141 -109.767 500.046 -81.3155 528.498L-77.0081 532.805C-44.1068 565.706 -17.2346 557.26 4.36086 535.664L10.569 529.456C32.1641 507.861 40.613 480.987 7.7114 448.086L3.40398 443.778C-25.6393 414.735 -49.9082 417.914 -70.0825 433.848C-71.1253 434.674 -72.611 434.588 -73.5529 433.646L-76.0701 431.128C-77.0898 430.109 -77.0899 428.448 -76.0733 427.432L-48.7403 400.099C-47.7233 399.082 -47.7255 397.419 -48.7449 396.4L-66.5793 378.565C-67.5986 377.546 -69.2593 377.546 -70.2763 378.563L-70.2763 378.563ZM-59.5344 465.558C-47.4839 453.507 -36.3856 442.409 -13.6531 465.142C9.07946 487.874 -2.01876 498.972 -14.0693 511.023C-26.2412 523.195 -37.3384 534.292 -60.071 511.559C-82.8035 488.827 -71.7067 477.73 -59.5344 465.558ZM95.5103 307.294L38.3473 364.457C37.3304 365.474 35.6686 365.472 34.6507 364.454L12.6281 342.432C11.6084 341.412 11.6079 339.752 12.6249 338.735L69.7879 281.572C70.8048 280.555 70.8023 278.893 69.783 277.874L51.9485 260.039C50.9292 259.02 49.2688 259.019 48.2519 260.036L-28.0042 336.292C-29.0194 337.307 -29.019 338.968 -27.9997 339.987L84.3535 452.34C85.3731 453.36 87.0339 453.36 88.0491 452.345L164.305 376.089C165.322 375.072 165.321 373.412 164.302 372.392L146.468 354.558C145.448 353.539 143.786 353.536 142.769 354.553L85.6062 411.716C84.5892 412.733 82.9292 412.733 81.9095 411.713L59.8869 389.69C58.8672 388.671 58.8668 387.011 59.8837 385.994L117.047 328.831C118.064 327.814 118.061 326.152 117.043 325.134L99.2074 307.298C98.188 306.279 96.5276 306.278 95.5106 307.295L95.5103 307.294Z" fill="white"/>
<path fill-rule="evenodd" clip-rule="evenodd" d="M80.1007 96.4128L128.681 91.5993C129.802 91.4896 130.826 92.0639 131.306 93.0829C131.79 94.1019 131.592 95.2555 130.798 96.0494L90.0854 136.762C89.0706 137.777 89.0728 139.439 90.0907 140.457L107.926 158.293C108.946 159.313 110.607 159.313 111.621 158.298L187.88 82.0399C188.895 81.0247 188.894 79.3644 187.874 78.3447L169.107 59.5774C168.509 58.9791 167.742 58.7169 166.906 58.8313L108.75 66.6525L108.906 66.4966L87.6289 69.1625C86.7999 69.266 86.042 69.006 85.4506 68.4145C84.8607 67.8246 84.6006 67.0667 84.7042 66.2377L87.3701 44.9605L87.2142 45.1164L95.0354 -13.0395C95.1479 -13.8775 94.8876 -14.6422 94.2893 -15.2405L75.5216 -34.0081C74.5023 -35.0275 72.842 -35.0282 71.8268 -34.0131L-4.43145 42.2452C-5.44626 43.26 -5.44585 44.9207 -4.42653 45.94L13.4079 63.7745C14.4272 64.7938 16.0897 64.796 17.1045 63.7812L57.8172 23.0685C58.6111 22.2746 59.7648 22.0769 60.7819 22.5588C61.8027 23.0408 62.3775 24.0653 62.2656 25.1841L57.4539 73.766C57.3736 74.5745 57.6325 75.3032 58.2066 75.8774L77.9868 95.6575C78.5627 96.2334 79.2911 96.492 80.1 96.4121L80.1007 96.4128ZM-165.23 203.044L-241.486 279.3C-242.503 280.317 -242.502 281.977 -241.483 282.996L-223.649 300.831C-222.629 301.85 -220.967 301.853 -219.95 300.836L-193.809 274.694C-192.792 273.678 -191.133 273.68 -190.114 274.699L-187.45 277.362C-186.517 278.296 -186.421 279.751 -187.218 280.798C-202.326 300.621 -204.721 324.526 -176.269 352.978L-171.962 357.285C-139.06 390.186 -112.188 381.74 -90.5928 360.144L-84.3846 353.936C-62.7895 332.341 -54.3406 305.467 -87.2422 272.566L-91.5496 268.258C-120.593 239.215 -144.862 242.394 -165.036 258.328C-166.079 259.155 -167.565 259.068 -168.506 258.126L-171.024 255.609C-172.043 254.589 -172.044 252.929 -171.027 251.912L-143.694 224.579C-142.677 223.562 -142.679 221.899 -143.698 220.88L-161.533 203.046C-162.552 202.026 -164.213 202.026 -165.23 203.043L-165.23 203.044ZM-154.488 290.038C-142.438 277.987 -131.339 266.889 -108.607 289.622C-85.8742 312.354 -96.9724 323.453 -109.023 335.503C-121.195 347.675 -132.292 358.772 -155.025 336.04C-177.757 313.307 -166.66 302.21 -154.488 290.038ZM0.556681 131.775L-56.6063 188.938C-57.6232 189.955 -59.2851 189.952 -60.3029 188.935L-82.3256 166.912C-83.3452 165.892 -83.3457 164.232 -82.3287 163.215L-25.1658 106.052C-24.1488 105.035 -24.1513 103.373 -25.1706 102.354L-43.0051 84.5193C-44.0244 83.5 -45.6848 83.4993 -46.7018 84.5162L-122.958 160.772C-123.973 161.787 -123.973 163.448 -122.953 164.468L-10.6001 276.821C-9.58047 277.84 -7.9197 277.841 -6.90455 276.826L69.3515 200.569C70.3685 199.553 70.3678 197.892 69.3481 196.872L51.514 179.038C50.4947 178.019 48.8325 178.017 47.8155 179.033L-9.34745 236.196C-10.3644 237.213 -12.0244 237.213 -13.0441 236.193L-35.0667 214.171C-36.0864 213.151 -36.0869 211.491 -35.0699 210.474L22.0931 153.311C23.11 152.294 23.1075 150.632 22.0896 149.614L4.25376 131.778C3.23444 130.759 1.57399 130.758 0.557031 131.775L0.556681 131.775Z" fill="white"/>
<path fill-rule="evenodd" clip-rule="evenodd" d="M418.672 -242.158L467.253 -246.971C468.374 -247.081 469.398 -246.507 469.878 -245.488C470.361 -244.469 470.164 -243.315 469.37 -242.521L428.657 -201.809C427.642 -200.794 427.645 -199.131 428.662 -198.113L446.498 -180.278C447.518 -179.258 449.178 -179.258 450.193 -180.273L526.452 -256.531C527.467 -257.546 527.466 -259.206 526.446 -260.226L507.679 -278.993C507.081 -279.592 506.314 -279.854 505.478 -279.739L447.322 -271.918L447.478 -272.074L426.201 -269.408C425.372 -269.305 424.614 -269.565 424.022 -270.156C423.432 -270.746 423.172 -271.504 423.276 -272.333L425.942 -293.61L425.786 -293.454L433.607 -351.61C433.72 -352.448 433.459 -353.213 432.861 -353.811L414.093 -372.579C413.074 -373.598 411.414 -373.599 410.399 -372.584L334.14 -296.325C333.126 -295.311 333.126 -293.65 334.145 -292.631L351.98 -274.796C352.999 -273.777 354.662 -273.775 355.676 -274.789L396.389 -315.502C397.183 -316.296 398.337 -316.494 399.354 -316.012C400.374 -315.53 400.949 -314.505 400.837 -313.387L396.026 -264.805C395.945 -263.996 396.204 -263.267 396.778 -262.693L416.559 -242.913C417.134 -242.337 417.863 -242.079 418.672 -242.159L418.672 -242.158ZM173.342 -135.527L97.0858 -59.2709C96.0688 -58.254 96.0695 -56.5936 97.0889 -55.5742L114.923 -37.7398C115.943 -36.7205 117.605 -36.718 118.622 -37.7349L144.763 -63.8764C145.78 -64.893 147.438 -64.8911 148.458 -63.8714L151.121 -61.2082C152.055 -60.2743 152.151 -58.8199 151.354 -57.7724C136.246 -37.9492 133.851 -14.0444 162.303 14.4072L166.61 18.7146C199.511 51.6158 226.384 43.1691 247.979 21.5736L254.187 15.3655C275.782 -6.22961 284.231 -33.1033 251.33 -66.0049L247.022 -70.3123C217.979 -99.3556 193.71 -96.1768 173.536 -80.2426C172.493 -79.416 171.007 -79.5029 170.065 -80.4447L167.548 -82.962C166.528 -83.9817 166.528 -85.6421 167.545 -86.6587L194.878 -113.992C195.895 -115.009 195.893 -116.671 194.873 -117.691L177.039 -135.525C176.02 -136.544 174.359 -136.545 173.342 -135.528L173.342 -135.527ZM184.084 -48.5327C196.134 -60.5833 207.233 -71.6815 229.965 -48.9489C252.698 -26.2164 241.599 -15.1181 229.549 -3.06758C217.377 9.10438 206.28 20.2015 183.547 -2.53106C160.815 -25.2636 171.911 -36.3604 184.084 -48.5327ZM339.128 -206.796L281.966 -149.633C280.949 -148.616 279.287 -148.618 278.269 -149.636L256.246 -171.659C255.227 -172.678 255.226 -174.339 256.243 -175.356L313.406 -232.518C314.423 -233.535 314.42 -235.198 313.401 -236.217L295.567 -254.051C294.547 -255.071 292.887 -255.071 291.87 -254.054L215.614 -177.798C214.599 -176.783 214.599 -175.122 215.618 -174.103L327.972 -61.75C328.991 -60.7303 330.652 -60.73 331.667 -61.7451L407.923 -138.001C408.94 -139.018 408.94 -140.679 407.92 -141.698L390.086 -159.532C389.066 -160.552 387.404 -160.554 386.387 -159.537L329.224 -102.374C328.207 -101.357 326.547 -101.358 325.528 -102.377L303.505 -124.4C302.485 -125.42 302.485 -127.08 303.502 -128.097L360.665 -185.26C361.682 -186.277 361.679 -187.939 360.661 -188.957L342.826 -206.793C341.806 -207.812 340.146 -207.813 339.129 -206.796L339.128 -206.796Z" fill="white"/>
<path fill-rule="evenodd" clip-rule="evenodd" d="M687.226 300.706L735.806 295.893C736.927 295.783 737.951 296.358 738.431 297.376C738.915 298.395 738.717 299.549 737.923 300.343L697.21 341.056C696.196 342.071 696.198 343.733 697.216 344.751L715.051 362.586C716.071 363.606 717.732 363.607 718.746 362.592L795.005 286.333C796.02 285.318 796.019 283.658 794.999 282.638L776.232 263.871C775.634 263.273 774.867 263.01 774.031 263.125L715.875 270.946L716.031 270.79L694.754 273.456C693.925 273.56 693.167 273.3 692.576 272.708C691.986 272.118 691.726 271.36 691.829 270.531L694.495 249.254L694.339 249.41L702.16 191.254C702.273 190.416 702.013 189.651 701.414 189.053L682.647 170.285C681.627 169.266 679.967 169.265 678.952 170.281L602.694 246.539C601.679 247.554 601.679 249.214 602.698 250.234L620.533 268.068C621.552 269.087 623.215 269.09 624.23 268.075L664.942 227.362C665.736 226.568 666.89 226.37 667.907 226.852C668.928 227.334 669.502 228.359 669.391 229.478L664.579 278.06C664.499 278.868 664.758 279.597 665.332 280.171L685.112 299.951C685.688 300.527 686.416 300.786 687.225 300.706L687.226 300.706ZM441.895 407.337L365.639 483.593C364.622 484.61 364.623 486.271 365.642 487.29L383.476 505.124C384.496 506.144 386.158 506.146 387.175 505.129L413.316 478.988C414.333 477.971 415.992 477.973 417.011 478.993L419.675 481.656C420.608 482.59 420.704 484.044 419.907 485.092C404.799 504.915 402.404 528.82 430.856 557.271L435.163 561.579C468.065 594.48 494.937 586.033 516.532 564.438L522.74 558.23C544.335 536.635 552.784 509.761 519.883 476.859L515.575 472.552C486.532 443.509 462.263 446.687 442.089 462.622C441.046 463.448 439.56 463.361 438.619 462.42L436.101 459.902C435.082 458.883 435.081 457.222 436.098 456.206L463.431 428.872C464.448 427.856 464.446 426.193 463.427 425.174L445.592 407.339C444.573 406.32 442.912 406.32 441.895 407.336L441.895 407.337ZM452.637 494.332C464.687 482.281 475.786 471.183 498.518 493.915C521.251 516.648 510.153 527.746 498.102 539.797C485.93 551.969 474.833 563.066 452.1 540.333C429.368 517.601 440.465 506.504 452.637 494.332ZM607.682 336.068L550.519 393.231C549.502 394.248 547.84 394.246 546.822 393.228L524.799 371.205C523.78 370.186 523.779 368.526 524.796 367.509L581.959 310.346C582.976 309.329 582.974 307.667 581.954 306.647L564.12 288.813C563.101 287.794 561.44 287.793 560.423 288.81L484.167 365.066C483.152 366.081 483.152 367.742 484.172 368.761L596.525 481.114C597.545 482.134 599.205 482.134 600.22 481.119L676.477 404.863C677.493 403.846 677.493 402.186 676.473 401.166L658.639 383.332C657.62 382.313 655.957 382.31 654.94 383.327L597.778 440.49C596.761 441.507 595.101 441.507 594.081 440.487L572.058 418.464C571.039 417.445 571.038 415.785 572.055 414.768L629.218 357.605C630.235 356.588 630.232 354.925 629.215 353.908L611.379 336.072C610.359 335.052 608.699 335.052 607.682 336.069L607.682 336.068Z" fill="white"/>
<path fill-rule="evenodd" clip-rule="evenodd" d="M1025.8 -37.8645L1074.38 -42.6781C1075.5 -42.7877 1076.52 -42.2134 1077 -41.1944C1077.49 -40.1755 1077.29 -39.0218 1076.49 -38.2279L1035.78 2.48477C1034.77 3.49958 1034.77 5.16208 1035.79 6.17995L1053.62 24.0155C1054.64 25.0352 1056.3 25.0356 1057.32 24.0208L1133.58 -52.2375C1134.59 -53.2526 1134.59 -54.913 1133.57 -55.9327L1114.8 -74.7C1114.21 -75.2983 1113.44 -75.5604 1112.6 -75.4461L1054.45 -67.6249L1054.6 -67.7808L1033.33 -65.1149C1032.5 -65.0113 1031.74 -65.2714 1031.15 -65.8628C1030.56 -66.4528 1030.3 -67.2106 1030.4 -68.0396L1033.07 -89.3168L1032.91 -89.1609L1040.73 -147.317C1040.84 -148.155 1040.58 -148.92 1039.99 -149.518L1021.22 -168.285C1020.2 -169.305 1018.54 -169.306 1017.52 -168.29L941.265 -92.0321C940.251 -91.0173 940.251 -89.3566 941.27 -88.3373L959.105 -70.5029C960.124 -69.4836 961.787 -69.4813 962.801 -70.4961L1003.51 -111.209C1004.31 -112.003 1005.46 -112.2 1006.48 -111.719C1007.5 -111.237 1008.07 -110.212 1007.96 -109.093L1003.15 -60.5114C1003.07 -59.7029 1003.33 -58.9741 1003.9 -58.4L1023.68 -38.6199C1024.26 -38.0439 1024.99 -37.7854 1025.8 -37.8653L1025.8 -37.8645ZM780.467 68.7663L704.211 145.022C703.194 146.039 703.195 147.7 704.214 148.719L722.048 166.553C723.068 167.573 724.73 167.575 725.747 166.558L751.888 140.417C752.905 139.4 754.563 139.402 755.583 140.422L758.246 143.085C759.18 144.019 759.276 145.473 758.479 146.521C743.371 166.344 740.976 190.249 769.428 218.7L773.735 223.008C806.636 255.909 833.509 247.462 855.104 225.867L861.312 219.659C882.907 198.064 891.356 171.19 858.455 138.288L854.147 133.981C825.104 104.938 800.835 108.117 780.661 124.051C779.618 124.877 778.132 124.79 777.19 123.849L774.673 121.331C773.653 120.312 773.653 118.651 774.67 117.635L802.003 90.3016C803.02 89.2846 803.018 87.6221 801.998 86.6028L784.164 68.7683C783.145 67.749 781.484 67.7486 780.467 68.7655L780.467 68.7663ZM791.209 155.761C803.259 143.71 814.358 132.612 837.09 155.344C859.823 178.077 848.724 189.175 836.674 201.226C824.502 213.398 813.405 224.495 790.672 201.762C767.94 179.03 779.036 167.933 791.209 155.761ZM946.253 -2.50269L889.091 54.6603C888.074 55.6772 886.412 55.675 885.394 54.6572L863.371 32.6345C862.352 31.6149 862.351 29.9548 863.368 28.9378L920.531 -28.2251C921.548 -29.2421 921.545 -30.9042 920.526 -31.9235L902.692 -49.758C901.672 -50.7773 900.012 -50.7781 898.995 -49.7611L822.739 26.4949C821.724 27.5101 821.724 29.1709 822.743 30.1902L935.097 142.543C936.116 143.563 937.777 143.563 938.792 142.548L1015.05 66.2922C1016.07 65.2752 1016.06 63.6148 1015.04 62.5951L997.211 44.761C996.191 43.7417 994.529 43.7392 993.512 44.7561L936.349 101.919C935.332 102.936 933.672 102.936 932.653 101.916L910.63 79.8934C909.61 78.8737 909.61 77.2136 910.627 76.1966L967.79 19.0337C968.807 18.0167 968.804 16.3546 967.786 15.3367L949.951 -2.49917C948.931 -3.51849 947.271 -3.5193 946.254 -2.50234L946.253 -2.50269Z" fill="white"/>
<path fill-rule="evenodd" clip-rule="evenodd" d="M882.887 375.518L931.467 370.704C932.588 370.595 933.612 371.169 934.093 372.188C934.576 373.207 934.379 374.361 933.585 375.155L892.872 415.867C891.857 416.882 891.859 418.545 892.877 419.563L910.713 437.398C911.733 438.418 913.393 438.418 914.408 437.403L990.666 361.145C991.682 360.13 991.681 358.47 990.661 357.45L971.894 338.683C971.295 338.084 970.529 337.822 969.693 337.936L911.537 345.758L911.693 345.602L890.416 348.268C889.587 348.371 888.829 348.111 888.237 347.52C887.647 346.93 887.387 346.172 887.491 345.343L890.157 324.066L890.001 324.222L897.822 266.066C897.935 265.228 897.674 264.463 897.076 263.865L878.308 245.097C877.289 244.078 875.629 244.077 874.613 245.092L798.355 321.35C797.34 322.365 797.341 324.026 798.36 325.045L816.195 342.88C817.214 343.899 818.876 343.901 819.891 342.886L860.604 302.174C861.398 301.38 862.551 301.182 863.569 301.664C864.589 302.146 865.164 303.17 865.052 304.289L860.24 352.871C860.16 353.68 860.419 354.408 860.993 354.983L880.773 374.763C881.349 375.339 882.078 375.597 882.887 375.517L882.887 375.518ZM637.557 482.149L561.301 558.405C560.284 559.422 560.284 561.082 561.304 562.102L579.138 579.936C580.157 580.955 581.82 580.958 582.837 579.941L608.978 553.8C609.995 552.783 611.653 552.785 612.673 553.804L615.336 556.468C616.27 557.402 616.366 558.856 615.569 559.903C600.461 579.727 598.066 603.632 626.518 632.083L630.825 636.39C663.726 669.292 690.598 660.845 712.194 639.25L718.402 633.041C739.997 611.446 748.446 584.573 715.544 551.671L711.237 547.364C682.194 518.32 657.925 521.499 637.75 537.433C636.708 538.26 635.222 538.173 634.28 537.231L631.763 534.714C630.743 533.694 630.743 532.034 631.76 531.017L659.093 503.684C660.11 502.667 660.107 501.005 659.088 499.985L641.254 482.151C640.234 481.132 638.574 481.131 637.557 482.148L637.557 482.149ZM648.299 569.143C660.349 557.093 671.447 545.994 694.18 568.727C716.912 591.46 705.814 602.558 693.764 614.608C681.592 626.78 670.495 637.877 647.762 615.145C625.029 592.412 636.126 581.315 648.299 569.143ZM803.343 410.88L746.18 468.043C745.163 469.06 743.502 469.058 742.484 468.04L720.461 446.017C719.441 444.997 719.441 443.337 720.458 442.32L777.621 385.157C778.638 384.14 778.635 382.478 777.616 381.459L759.782 363.625C758.762 362.605 757.102 362.604 756.085 363.621L679.829 439.878C678.814 440.893 678.814 442.553 679.833 443.573L792.186 555.926C793.206 556.946 794.867 556.946 795.882 555.931L872.138 479.675C873.155 478.658 873.154 476.997 872.135 475.978L854.301 458.144C853.281 457.124 851.619 457.122 850.602 458.139L793.439 515.302C792.422 516.319 790.762 516.318 789.743 515.299L767.72 493.276C766.7 492.256 766.7 490.596 767.717 489.579L824.88 432.416C825.897 431.399 825.894 429.737 824.876 428.719L807.04 410.883C806.021 409.864 804.361 409.863 803.344 410.88L803.343 410.88Z" fill="white"/>
<path fill-rule="evenodd" clip-rule="evenodd" d="M1221.46 36.9472L1270.04 32.1337C1271.16 32.024 1272.18 32.5984 1272.66 33.6173C1273.15 34.6363 1272.95 35.79 1272.16 36.5838L1231.44 77.2965C1230.43 78.3113 1230.43 79.9738 1231.45 80.9917L1249.28 98.8273C1250.3 99.847 1251.96 99.8474 1252.98 98.8326L1329.24 22.5743C1330.25 21.5591 1330.25 19.8988 1329.23 18.8791L1310.46 0.111778C1309.87 -0.486484 1309.1 -0.748659 1308.26 -0.634307L1250.11 7.1869L1250.26 7.031L1228.99 9.69688C1228.16 9.80045 1227.4 9.54039 1226.81 8.94897C1226.22 8.35899 1225.96 7.60113 1226.06 6.77216L1228.73 -14.505L1228.57 -14.3491L1236.39 -72.5051C1236.51 -73.3431 1236.24 -74.1078 1235.65 -74.7061L1216.88 -93.4737C1215.86 -94.493 1214.2 -94.4938 1213.18 -93.4786L1136.93 -17.2204C1135.91 -16.2056 1135.91 -14.5448 1136.93 -13.5255L1154.77 4.30888C1155.78 5.3282 1157.45 5.33044 1158.46 4.31563L1199.17 -36.3971C1199.97 -37.1909 1201.12 -37.3887 1202.14 -36.9067C1203.16 -36.4248 1203.73 -35.4003 1203.62 -34.2814L1198.81 14.3004C1198.73 15.1089 1198.99 15.8376 1199.56 16.4118L1219.34 36.1919C1219.92 36.7678 1220.65 37.0264 1221.46 36.9465L1221.46 36.9472ZM976.128 143.578L899.871 219.834C898.854 220.851 898.855 222.512 899.875 223.531L917.709 241.365C918.728 242.385 920.39 242.387 921.407 241.37L947.549 215.229C948.565 214.212 950.224 214.214 951.244 215.234L953.907 217.897C954.841 218.831 954.937 220.285 954.14 221.333C939.031 241.156 936.637 265.061 965.088 293.512L969.396 297.82C1002.3 330.721 1029.17 322.274 1050.76 300.679L1056.97 294.471C1078.57 272.875 1087.02 246.002 1054.12 213.1L1049.81 208.793C1020.76 179.75 996.496 182.928 976.321 198.862C975.279 199.689 973.793 199.602 972.851 198.66L970.334 196.143C969.314 195.123 969.314 193.463 970.331 192.446L997.664 165.113C998.681 164.096 998.678 162.434 997.659 161.415L979.825 143.58C978.805 142.561 977.144 142.56 976.128 143.577L976.128 143.578ZM986.869 230.572C998.92 218.522 1010.02 207.424 1032.75 230.156C1055.48 252.889 1044.39 263.987 1032.33 276.038C1020.16 288.209 1009.07 299.307 986.333 276.574C963.6 253.841 974.697 242.745 986.869 230.572ZM1141.91 72.3091L1084.75 129.472C1083.73 130.489 1082.07 130.487 1081.05 129.469L1059.03 107.446C1058.01 106.427 1058.01 104.767 1059.03 103.75L1116.19 46.5866C1117.21 45.5697 1117.21 43.9075 1116.19 42.8882L1098.35 25.0537C1097.33 24.0344 1095.67 24.0337 1094.66 25.0506L1018.4 101.307C1017.38 102.322 1017.38 103.983 1018.4 105.002L1130.76 217.355C1131.78 218.375 1133.44 218.375 1134.45 217.36L1210.71 141.104C1211.73 140.087 1211.73 138.427 1210.71 137.407L1192.87 119.573C1191.85 118.553 1190.19 118.551 1189.17 119.568L1132.01 176.731C1130.99 177.748 1129.33 177.747 1128.31 176.728L1106.29 154.705C1105.27 153.685 1105.27 152.025 1106.29 151.008L1163.45 93.8455C1164.47 92.8285 1164.46 91.1663 1163.45 90.1484L1145.61 72.3126C1144.59 71.2933 1142.93 71.2925 1141.91 72.3094L1141.91 72.3091Z" fill="white"/>
</g>
<g filter="url(#filter1_d_899_2921)">
<path fill-rule="evenodd" clip-rule="evenodd" d="M1706.57 369.895L1755.15 365.081C1756.27 364.971 1757.29 365.546 1757.77 366.565C1758.26 367.584 1758.06 368.737 1757.26 369.531L1716.55 410.244C1715.54 411.259 1715.54 412.921 1716.56 413.939L1734.39 431.775C1735.41 432.794 1737.07 432.795 1738.09 431.78L1814.35 355.522C1815.36 354.507 1815.36 352.846 1814.34 351.826L1795.57 333.059C1794.97 332.461 1794.21 332.199 1793.37 332.313L1735.22 340.134L1735.37 339.978L1714.09 342.644C1713.27 342.748 1712.51 342.488 1711.92 341.896C1711.33 341.306 1711.07 340.549 1711.17 339.72L1713.84 318.442L1713.68 318.598L1721.5 260.442C1721.61 259.604 1721.35 258.84 1720.75 258.241L1701.99 239.474C1700.97 238.454 1699.31 238.454 1698.29 239.469L1622.03 315.727C1621.02 316.742 1621.02 318.403 1622.04 319.422L1639.87 337.256C1640.89 338.276 1642.56 338.278 1643.57 337.263L1684.28 296.55C1685.08 295.756 1686.23 295.559 1687.25 296.041C1688.27 296.523 1688.84 297.547 1688.73 298.666L1683.92 347.248C1683.84 348.056 1684.1 348.785 1684.67 349.359L1704.45 369.139C1705.03 369.715 1705.76 369.974 1706.57 369.894L1706.57 369.895ZM1461.24 476.525L1384.98 552.782C1383.96 553.799 1383.96 555.459 1384.98 556.478L1402.82 574.313C1403.84 575.332 1405.5 575.335 1406.52 574.318L1432.66 548.176C1433.67 547.159 1435.33 547.161 1436.35 548.181L1439.01 550.844C1439.95 551.778 1440.04 553.233 1439.25 554.28C1424.14 574.103 1421.74 598.008 1450.2 626.46L1454.5 630.767C1487.4 663.668 1514.28 655.222 1535.87 633.626L1542.08 627.418C1563.68 605.823 1572.12 578.949 1539.22 546.048L1534.92 541.74C1505.87 512.697 1481.6 515.876 1461.43 531.81C1460.39 532.637 1458.9 532.55 1457.96 531.608L1455.44 529.09C1454.42 528.071 1454.42 526.41 1455.44 525.394L1482.77 498.061C1483.79 497.044 1483.79 495.381 1482.77 494.362L1464.93 476.528C1463.91 475.508 1462.25 475.508 1461.24 476.525L1461.24 476.525ZM1471.98 563.52C1484.03 551.469 1495.13 540.371 1517.86 563.104C1540.59 585.836 1529.49 596.934 1517.44 608.985C1505.27 621.157 1494.17 632.254 1471.44 609.521C1448.71 586.789 1459.8 575.692 1471.98 563.52ZM1627.02 405.256L1569.86 462.419C1568.84 463.436 1567.18 463.434 1566.16 462.416L1544.14 440.394C1543.12 439.374 1543.12 437.714 1544.14 436.697L1601.3 379.534C1602.32 378.517 1602.31 376.855 1601.29 375.836L1583.46 358.001C1582.44 356.982 1580.78 356.981 1579.76 357.998L1503.51 434.254C1502.49 435.269 1502.49 436.93 1503.51 437.949L1615.87 550.303C1616.88 551.322 1618.55 551.323 1619.56 550.307L1695.82 474.051C1696.83 473.034 1696.83 471.374 1695.81 470.354L1677.98 452.52C1676.96 451.501 1675.3 451.498 1674.28 452.515L1617.12 509.678C1616.1 510.695 1614.44 510.695 1613.42 509.675L1591.4 487.653C1590.38 486.633 1590.38 484.973 1591.4 483.956L1648.56 426.793C1649.58 425.776 1649.57 424.114 1648.55 423.096L1630.72 405.26C1629.7 404.241 1628.04 404.24 1627.02 405.257L1627.02 405.256Z" fill="white"/>
<path fill-rule="evenodd" clip-rule="evenodd" d="M2045.14 31.3238L2093.72 26.5103C2094.84 26.4006 2095.86 26.975 2096.34 27.9939C2096.82 29.0129 2096.63 30.1665 2095.83 30.9604L2055.12 71.6731C2054.11 72.6879 2054.11 74.3504 2055.13 75.3683L2072.96 93.2039C2073.98 94.2236 2075.64 94.224 2076.66 93.2092L2152.91 16.9509C2153.93 15.9357 2153.93 14.2754 2152.91 13.2557L2134.14 -5.51164C2133.54 -6.1099 2132.78 -6.37207 2131.94 -6.25772L2073.79 1.56349L2073.94 1.40759L2052.66 4.07347C2051.84 4.17704 2051.08 3.91697 2050.49 3.32555C2049.9 2.73558 2049.64 1.97772 2049.74 1.14874L2052.41 -20.1284L2052.25 -19.9725L2060.07 -78.1285C2060.18 -78.9665 2059.92 -79.7312 2059.32 -80.3295L2040.56 -99.0971C2039.54 -100.116 2037.88 -100.117 2036.86 -99.102L1960.6 -22.8438C1959.59 -21.829 1959.59 -20.1683 1960.61 -19.1489L1978.44 -1.31453C1979.46 -0.295217 1981.12 -0.292975 1982.14 -1.30778L2022.85 -42.0205C2023.65 -42.8144 2024.8 -43.0121 2025.82 -42.5302C2026.84 -42.0482 2027.41 -41.0237 2027.3 -39.9048L2022.49 8.67699C2022.41 9.48549 2022.67 10.2142 2023.24 10.7884L2043.02 30.5685C2043.6 31.1444 2044.33 31.403 2045.14 31.3231L2045.14 31.3238ZM1799.81 137.955L1723.55 214.211C1722.53 215.228 1722.53 216.888 1723.55 217.907L1741.39 235.742C1742.41 236.761 1744.07 236.764 1745.09 235.747L1771.23 209.605C1772.24 208.589 1773.9 208.591 1774.92 209.61L1777.58 212.273C1778.52 213.207 1778.61 214.662 1777.82 215.709C1762.71 235.532 1760.31 259.437 1788.77 287.889L1793.07 292.196C1825.97 325.097 1852.85 316.651 1874.44 295.055L1880.65 288.847C1902.25 267.252 1910.69 240.378 1877.79 207.477L1873.49 203.169C1844.44 174.126 1820.17 177.305 1800 193.239C1798.96 194.066 1797.47 193.979 1796.53 193.037L1794.01 190.52C1792.99 189.5 1792.99 187.84 1794.01 186.823L1821.34 159.49C1822.36 158.473 1822.36 156.81 1821.34 155.791L1803.5 137.957C1802.48 136.937 1800.82 136.937 1799.81 137.954L1799.81 137.955ZM1810.55 224.949C1822.6 212.898 1833.7 201.8 1856.43 224.533C1879.16 247.265 1868.06 258.364 1856.01 270.414C1843.84 282.586 1832.74 293.683 1810.01 270.951C1787.28 248.218 1798.37 237.121 1810.55 224.949ZM1965.59 66.6857L1908.43 123.849C1907.41 124.866 1905.75 124.863 1904.73 123.846L1882.71 101.823C1881.69 100.803 1881.69 99.1431 1882.71 98.1262L1939.87 40.9632C1940.89 39.9463 1940.88 38.2841 1939.86 37.2648L1922.03 19.4303C1921.01 18.411 1919.35 18.4103 1918.33 19.4272L1842.08 95.6833C1841.06 96.6985 1841.06 98.3592 1842.08 99.3785L1954.44 211.732C1955.45 212.751 1957.12 212.752 1958.13 211.737L2034.39 135.481C2035.4 134.464 2035.4 132.803 2034.38 131.783L2016.55 113.949C2015.53 112.93 2013.87 112.928 2012.85 113.944L1955.69 171.107C1954.67 172.124 1953.01 172.124 1951.99 171.104L1929.97 149.082C1928.95 148.062 1928.95 146.402 1929.97 145.385L1987.13 88.222C1988.15 87.2051 1988.14 85.5429 1987.12 84.525L1969.29 66.6892C1968.27 65.6699 1966.61 65.6691 1965.59 66.686L1965.59 66.6857Z" fill="white"/>
<path fill-rule="evenodd" clip-rule="evenodd" d="M1728.63 77.3618L1777.21 72.5482C1778.33 72.4386 1779.35 73.0129 1779.83 74.0319C1780.31 75.0508 1780.12 76.2045 1779.32 76.9984L1738.61 117.711C1737.6 118.726 1737.6 120.388 1738.62 121.406L1756.45 139.242C1757.47 140.262 1759.13 140.262 1760.15 139.247L1836.4 62.9888C1837.42 61.9737 1837.42 60.3133 1836.4 59.2937L1817.63 40.5263C1817.03 39.9281 1816.27 39.6659 1815.43 39.7802L1757.27 47.6015L1757.43 47.4456L1736.15 50.1114C1735.32 50.215 1734.57 49.9549 1733.98 49.3635C1733.39 48.7735 1733.13 48.0157 1733.23 47.1867L1735.89 25.9095L1735.74 26.0654L1743.56 -32.0906C1743.67 -32.9285 1743.41 -33.6932 1742.81 -34.2915L1724.05 -53.0592C1723.03 -54.0785 1721.37 -54.0793 1720.35 -53.0641L1644.09 23.1942C1643.08 24.209 1643.08 25.8697 1644.1 26.889L1661.93 44.7234C1662.95 45.7427 1664.61 45.745 1665.63 44.7302L1706.34 4.01749C1707.14 3.2236 1708.29 3.02589 1709.31 3.50781C1710.33 3.98973 1710.9 5.01423 1710.79 6.13312L1705.98 54.715C1705.9 55.5235 1706.16 56.2522 1706.73 56.8263L1726.51 76.6065C1727.09 77.1824 1727.82 77.4409 1728.62 77.3611L1728.63 77.3618ZM1483.29 183.993L1407.04 260.249C1406.02 261.266 1406.02 262.926 1407.04 263.945L1424.88 281.78C1425.9 282.799 1427.56 282.802 1428.57 281.785L1454.72 255.643C1455.73 254.627 1457.39 254.629 1458.41 255.648L1461.07 258.311C1462.01 259.245 1462.1 260.7 1461.31 261.747C1446.2 281.57 1443.8 305.475 1472.26 333.927L1476.56 338.234C1509.46 371.135 1536.34 362.689 1557.93 341.093L1564.14 334.885C1585.73 313.29 1594.18 286.416 1561.28 253.515L1556.97 249.207C1527.93 220.164 1503.66 223.343 1483.49 239.277C1482.45 240.104 1480.96 240.017 1480.02 239.075L1477.5 236.558C1476.48 235.538 1476.48 233.878 1477.5 232.861L1504.83 205.528C1505.85 204.511 1505.85 202.848 1504.83 201.829L1486.99 183.995C1485.97 182.975 1484.31 182.975 1483.29 183.992L1483.29 183.993ZM1494.04 270.987C1506.09 258.936 1517.19 247.838 1539.92 270.571C1562.65 293.303 1551.55 304.402 1539.5 316.452C1527.33 328.624 1516.23 339.721 1493.5 316.989C1470.77 294.256 1481.86 283.159 1494.04 270.987ZM1649.08 112.724L1591.92 169.887C1590.9 170.904 1589.24 170.901 1588.22 169.883L1566.2 147.861C1565.18 146.841 1565.18 145.181 1566.2 144.164L1623.36 87.0012C1624.38 85.9842 1624.37 84.3221 1623.35 83.3028L1605.52 65.4683C1604.5 64.449 1602.84 64.4482 1601.82 65.4652L1525.57 141.721C1524.55 142.736 1524.55 144.397 1525.57 145.417L1637.92 257.77C1638.94 258.789 1640.6 258.79 1641.62 257.775L1717.88 181.518C1718.89 180.502 1718.89 178.841 1717.87 177.821L1700.04 159.987C1699.02 158.968 1697.36 158.965 1696.34 159.982L1639.18 217.145C1638.16 218.162 1636.5 218.162 1635.48 217.142L1613.46 195.12C1612.44 194.1 1612.44 192.44 1613.45 191.423L1670.62 134.26C1671.63 133.243 1671.63 131.581 1670.61 130.563L1652.78 112.727C1651.76 111.708 1650.1 111.707 1649.08 112.724L1649.08 112.724Z" fill="white"/>
<path fill-rule="evenodd" clip-rule="evenodd" d="M1390.05 415.933L1438.63 411.119C1439.76 411.009 1440.78 411.584 1441.26 412.603C1441.74 413.622 1441.55 414.775 1440.75 415.569L1400.04 456.282C1399.02 457.297 1399.03 458.959 1400.04 459.977L1417.88 477.813C1418.9 478.832 1420.56 478.833 1421.58 477.818L1497.83 401.56C1498.85 400.544 1498.85 398.884 1497.83 397.864L1479.06 379.097C1478.46 378.499 1477.7 378.237 1476.86 378.351L1418.7 386.172L1418.86 386.016L1397.58 388.682C1396.75 388.786 1396 388.526 1395.4 387.934C1394.81 387.344 1394.55 386.586 1394.66 385.758L1397.32 364.48L1397.17 364.636L1404.99 306.48C1405.1 305.642 1404.84 304.878 1404.24 304.279L1385.48 285.512C1384.46 284.492 1382.8 284.492 1381.78 285.507L1305.52 361.765C1304.51 362.78 1304.51 364.441 1305.53 365.46L1323.36 383.294C1324.38 384.314 1326.04 384.316 1327.06 383.301L1367.77 342.588C1368.56 341.794 1369.72 341.597 1370.74 342.079C1371.76 342.561 1372.33 343.585 1372.22 344.704L1367.41 393.286C1367.33 394.094 1367.59 394.823 1368.16 395.397L1387.94 415.177C1388.52 415.753 1389.24 416.012 1390.05 415.932L1390.05 415.933ZM1144.72 522.563L1068.47 598.82C1067.45 599.837 1067.45 601.497 1068.47 602.516L1086.31 620.351C1087.32 621.37 1088.99 621.372 1090 620.356L1116.15 594.214C1117.16 593.197 1118.82 593.199 1119.84 594.219L1122.5 596.882C1123.44 597.816 1123.53 599.271 1122.74 600.318C1107.63 620.141 1105.23 644.046 1133.68 672.498L1137.99 676.805C1170.89 709.706 1197.77 701.26 1219.36 679.664L1225.57 673.456C1247.16 651.861 1255.61 624.987 1222.71 592.086L1218.4 587.778C1189.36 558.735 1165.09 561.914 1144.92 577.848C1143.87 578.674 1142.39 578.588 1141.45 577.646L1138.93 575.128C1137.91 574.109 1137.91 572.448 1138.93 571.432L1166.26 544.099C1167.28 543.082 1167.27 541.419 1166.26 540.4L1148.42 522.565C1147.4 521.546 1145.74 521.546 1144.72 522.563L1144.72 522.563ZM1155.47 609.558C1167.52 597.507 1178.61 586.409 1201.35 609.142C1224.08 631.874 1212.98 642.972 1200.93 655.023C1188.76 667.195 1177.66 678.292 1154.93 655.559C1132.2 632.827 1143.29 621.73 1155.47 609.558ZM1310.51 451.294L1253.35 508.457C1252.33 509.474 1250.67 509.472 1249.65 508.454L1227.63 486.432C1226.61 485.412 1226.61 483.752 1227.62 482.735L1284.79 425.572C1285.8 424.555 1285.8 422.893 1284.78 421.874L1266.95 404.039C1265.93 403.02 1264.27 403.019 1263.25 404.036L1187 480.292C1185.98 481.307 1185.98 482.968 1187 483.987L1299.35 596.34C1300.37 597.36 1302.03 597.36 1303.05 596.345L1379.31 520.089C1380.32 519.072 1380.32 517.412 1379.3 516.392L1361.47 498.558C1360.45 497.539 1358.79 497.536 1357.77 498.553L1300.61 555.716C1299.59 556.733 1297.93 556.733 1296.91 555.713L1274.89 533.69C1273.87 532.671 1273.87 531.011 1274.88 529.994L1332.05 472.831C1333.06 471.814 1333.06 470.152 1332.04 469.134L1314.21 451.298C1313.19 450.279 1311.53 450.278 1310.51 451.295L1310.51 451.294Z" fill="white"/>
<path fill-rule="evenodd" clip-rule="evenodd" d="M2067.2 -261.209L2115.78 -266.023C2116.9 -266.132 2117.92 -265.558 2118.4 -264.539C2118.88 -263.52 2118.69 -262.366 2117.89 -261.572L2077.18 -220.86C2076.17 -219.845 2076.17 -218.182 2077.19 -217.165L2095.02 -199.329C2096.04 -198.309 2097.7 -198.309 2098.72 -199.324L2174.97 -275.582C2175.99 -276.597 2175.99 -278.257 2174.97 -279.277L2156.2 -298.044C2155.6 -298.643 2154.84 -298.905 2154 -298.791L2095.85 -290.969L2096 -291.125L2074.72 -288.459C2073.9 -288.356 2073.14 -288.616 2072.55 -289.207C2071.96 -289.797 2071.7 -290.555 2071.8 -291.384L2074.47 -312.661L2074.31 -312.505L2082.13 -370.661C2082.24 -371.499 2081.98 -372.264 2081.38 -372.862L2062.62 -391.63C2061.6 -392.649 2059.94 -392.65 2058.92 -391.635L1982.66 -315.377C1981.65 -314.362 1981.65 -312.701 1982.67 -311.682L2000.5 -293.847C2001.52 -292.828 2003.18 -292.826 2004.2 -293.841L2044.91 -334.553C2045.71 -335.347 2046.86 -335.545 2047.88 -335.063C2048.9 -334.581 2049.47 -333.557 2049.36 -332.438L2044.55 -283.856C2044.47 -283.047 2044.73 -282.319 2045.3 -281.744L2065.08 -261.964C2065.66 -261.388 2066.39 -261.13 2067.2 -261.21L2067.2 -261.209ZM1821.87 -154.578L1745.61 -78.3221C1744.59 -77.3051 1744.59 -75.6447 1745.61 -74.6254L1763.45 -56.791C1764.47 -55.7717 1766.13 -55.7691 1767.15 -56.7861L1793.29 -82.9276C1794.3 -83.9441 1795.96 -83.9422 1796.98 -82.9226L1799.64 -80.2594C1800.58 -79.3254 1800.67 -77.871 1799.88 -76.8236C1784.77 -57.0003 1782.37 -33.0955 1810.83 -4.64399L1815.13 -0.33657C1848.03 32.5647 1874.91 24.118 1896.5 2.52247L1902.71 -3.68564C1924.31 -25.2808 1932.75 -52.1544 1899.85 -85.056L1895.55 -89.3634C1866.5 -118.407 1842.23 -115.228 1822.06 -99.2938C1821.02 -98.4671 1819.53 -98.554 1818.59 -99.4959L1816.07 -102.013C1815.05 -103.033 1815.05 -104.693 1816.07 -105.71L1843.4 -133.043C1844.42 -134.06 1844.42 -135.722 1843.4 -136.742L1825.56 -154.576C1824.54 -155.595 1822.88 -155.596 1821.87 -154.579L1821.87 -154.578ZM1832.61 -67.5839C1844.66 -79.6344 1855.76 -90.7326 1878.49 -68.0001C1901.22 -45.2675 1890.12 -34.1693 1878.07 -22.1187C1865.9 -9.94677 1854.8 1.15035 1832.07 -21.5822C1809.34 -44.3148 1820.43 -55.4116 1832.61 -67.5839ZM1987.65 -225.847L1930.49 -168.684C1929.47 -167.667 1927.81 -167.669 1926.79 -168.687L1904.77 -190.71C1903.75 -191.73 1903.75 -193.39 1904.77 -194.407L1961.93 -251.57C1962.95 -252.587 1962.94 -254.249 1961.92 -255.268L1944.09 -273.103C1943.07 -274.122 1941.41 -274.123 1940.39 -273.106L1864.14 -196.85C1863.12 -195.834 1863.12 -194.174 1864.14 -193.154L1976.5 -80.8011C1977.51 -79.7814 1979.18 -79.7811 1980.19 -80.7963L2056.45 -157.052C2057.46 -158.069 2057.46 -159.73 2056.44 -160.749L2038.61 -178.583C2037.59 -179.603 2035.93 -179.605 2034.91 -178.588L1977.75 -121.425C1976.73 -120.408 1975.07 -120.409 1974.05 -121.429L1952.03 -143.451C1951.01 -144.471 1951.01 -146.131 1952.03 -147.148L2009.19 -204.311C2010.21 -205.328 2010.2 -206.99 2009.18 -208.008L1991.35 -225.844C1990.33 -226.863 1988.67 -226.864 1987.65 -225.847L1987.65 -225.847Z" fill="white"/>
<path fill-rule="evenodd" clip-rule="evenodd" d="M1295.1 240.413L1343.68 235.599C1344.8 235.49 1345.83 236.064 1346.31 237.083C1346.79 238.102 1346.59 239.256 1345.8 240.049L1305.09 280.762C1304.07 281.777 1304.07 283.439 1305.09 284.457L1322.93 302.293C1323.95 303.313 1325.61 303.313 1326.62 302.298L1402.88 226.04C1403.89 225.025 1403.89 223.364 1402.87 222.345L1384.11 203.577C1383.51 202.979 1382.74 202.717 1381.91 202.831L1323.75 210.652L1323.91 210.497L1302.63 213.162C1301.8 213.266 1301.04 213.006 1300.45 212.415C1299.86 211.825 1299.6 211.067 1299.7 210.238L1302.37 188.961L1302.21 189.116L1310.04 130.96C1310.15 130.122 1309.89 129.358 1309.29 128.76L1290.52 109.992C1289.5 108.973 1287.84 108.972 1286.83 109.987L1210.57 186.245C1209.55 187.26 1209.55 188.921 1210.57 189.94L1228.41 207.774C1229.43 208.794 1231.09 208.796 1232.1 207.781L1272.82 167.069C1273.61 166.275 1274.76 166.077 1275.78 166.559C1276.8 167.041 1277.38 168.065 1277.27 169.184L1272.45 217.766C1272.37 218.574 1272.63 219.303 1273.21 219.877L1292.99 239.657C1293.56 240.233 1294.29 240.492 1295.1 240.412L1295.1 240.413ZM1049.77 347.044L973.514 423.3C972.497 424.317 972.498 425.977 973.517 426.996L991.351 444.831C992.371 445.85 994.033 445.853 995.05 444.836L1021.19 418.694C1022.21 417.678 1023.87 417.68 1024.89 418.699L1027.55 421.362C1028.48 422.296 1028.58 423.751 1027.78 424.798C1012.67 444.621 1010.28 468.526 1038.73 496.978L1043.04 501.285C1075.94 534.186 1102.81 525.74 1124.41 504.144L1130.62 497.936C1152.21 476.341 1160.66 449.467 1127.76 416.566L1123.45 412.258C1094.41 383.215 1070.14 386.394 1049.96 402.328C1048.92 403.155 1047.44 403.068 1046.49 402.126L1043.98 399.609C1042.96 398.589 1042.96 396.929 1043.97 395.912L1071.31 368.579C1072.32 367.562 1072.32 365.899 1071.3 364.88L1053.47 347.046C1052.45 346.026 1050.79 346.026 1049.77 347.043L1049.77 347.044ZM1060.51 434.038C1072.56 421.987 1083.66 410.889 1106.39 433.622C1129.13 456.354 1118.03 467.453 1105.98 479.503C1093.81 491.675 1082.71 502.772 1059.98 480.04C1037.24 457.307 1048.34 446.21 1060.51 434.038ZM1215.56 275.775L1158.39 332.938C1157.38 333.955 1155.71 333.952 1154.7 332.935L1132.67 310.912C1131.65 309.892 1131.65 308.232 1132.67 307.215L1189.83 250.052C1190.85 249.035 1190.85 247.373 1189.83 246.354L1171.99 228.519C1170.98 227.5 1169.32 227.499 1168.3 228.516L1092.04 304.772C1091.03 305.787 1091.03 307.448 1092.05 308.468L1204.4 420.821C1205.42 421.84 1207.08 421.841 1208.1 420.826L1284.35 344.569C1285.37 343.553 1285.37 341.892 1284.35 340.872L1266.51 323.038C1265.49 322.019 1263.83 322.017 1262.82 323.033L1205.65 380.196C1204.64 381.213 1202.98 381.213 1201.96 380.193L1179.93 358.171C1178.91 357.151 1178.91 355.491 1179.93 354.474L1237.09 297.311C1238.11 296.294 1238.11 294.632 1237.09 293.614L1219.25 275.778C1218.23 274.759 1216.57 274.758 1215.56 275.775L1215.56 275.775Z" fill="white"/>
<path fill-rule="evenodd" clip-rule="evenodd" d="M1633.67 -98.1579L1682.25 -102.971C1683.37 -103.081 1684.4 -102.507 1684.88 -101.488C1685.36 -100.469 1685.16 -99.3151 1684.37 -98.5213L1643.66 -57.8086C1642.64 -56.7938 1642.64 -55.1313 1643.66 -54.1134L1661.5 -36.2778C1662.52 -35.2581 1664.18 -35.2577 1665.19 -36.2725L1741.45 -112.531C1742.47 -113.546 1742.47 -115.206 1741.45 -116.226L1722.68 -134.993C1722.08 -135.592 1721.31 -135.854 1720.48 -135.739L1662.32 -127.918L1662.48 -128.074L1641.2 -125.408C1640.37 -125.305 1639.61 -125.565 1639.02 -126.156C1638.43 -126.746 1638.17 -127.504 1638.28 -128.333L1640.94 -149.61L1640.79 -149.454L1648.61 -207.61C1648.72 -208.448 1648.46 -209.213 1647.86 -209.811L1629.09 -228.579C1628.07 -229.598 1626.41 -229.599 1625.4 -228.584L1549.14 -152.325C1548.13 -151.311 1548.13 -149.65 1549.15 -148.631L1566.98 -130.796C1568 -129.777 1569.66 -129.775 1570.68 -130.789L1611.39 -171.502C1612.18 -172.296 1613.34 -172.494 1614.35 -172.012C1615.37 -171.53 1615.95 -170.505 1615.84 -169.387L1611.03 -120.805C1610.95 -119.996 1611.2 -119.267 1611.78 -118.693L1631.56 -98.9132C1632.13 -98.3373 1632.86 -98.0787 1633.67 -98.1586L1633.67 -98.1579ZM1388.34 8.47297L1312.09 84.7291C1311.07 85.746 1311.07 87.4064 1312.09 88.4258L1329.92 106.26C1330.94 107.279 1332.6 107.282 1333.62 106.265L1359.76 80.1236C1360.78 79.107 1362.44 79.1089 1363.46 80.1286L1366.12 82.7918C1367.06 83.7257 1367.15 85.1801 1366.35 86.2276C1351.25 106.051 1348.85 129.956 1377.3 158.407L1381.61 162.715C1414.51 195.616 1441.38 187.169 1462.98 165.574L1469.19 159.366C1490.78 137.77 1499.23 110.897 1466.33 77.9951L1462.02 73.6877C1432.98 44.6444 1408.71 47.8232 1388.54 63.7574C1387.49 64.584 1386.01 64.4971 1385.07 63.5553L1382.55 61.038C1381.53 60.0183 1381.53 58.3579 1382.54 57.3413L1409.88 30.0082C1410.89 28.9913 1410.89 27.3287 1409.87 26.3094L1392.04 8.47501C1391.02 7.45569 1389.36 7.45525 1388.34 8.47221L1388.34 8.47297ZM1399.08 95.4673C1411.13 83.4167 1422.23 72.3185 1444.97 95.0511C1467.7 117.784 1456.6 128.882 1444.55 140.932C1432.38 153.104 1421.28 164.201 1398.55 141.469C1375.81 118.736 1386.91 107.64 1399.08 95.4673ZM1554.13 -62.796L1496.97 -5.63307C1495.95 -4.61611 1494.29 -4.6183 1493.27 -5.63617L1471.25 -27.6588C1470.23 -28.6785 1470.23 -30.3386 1471.24 -31.3555L1528.41 -88.5185C1529.42 -89.5354 1529.42 -91.1976 1528.4 -92.2169L1510.57 -110.051C1509.55 -111.071 1507.89 -111.071 1506.87 -110.054L1430.61 -33.7984C1429.6 -32.7832 1429.6 -31.1225 1430.62 -30.1031L1542.97 82.25C1543.99 83.2697 1545.65 83.27 1546.67 82.2549L1622.92 5.99882C1623.94 4.98186 1623.94 3.32149 1622.92 2.30181L1605.09 -15.5323C1604.07 -16.5516 1602.4 -16.5542 1601.39 -15.5372L1544.22 41.6257C1543.21 42.6427 1541.55 42.6423 1540.53 41.6226L1518.51 19.6C1517.49 18.5803 1517.48 16.9203 1518.5 15.9033L1575.66 -41.2597C1576.68 -42.2766 1576.68 -43.9388 1575.66 -44.9567L1557.83 -62.7925C1556.81 -63.8118 1555.15 -63.8126 1554.13 -62.7957L1554.13 -62.796Z" fill="white"/>
<path fill-rule="evenodd" clip-rule="evenodd" d="M1902.23 444.706L1950.81 439.893C1951.93 439.783 1952.95 440.358 1953.43 441.376C1953.91 442.395 1953.72 443.549 1952.92 444.343L1912.21 485.056C1911.2 486.071 1911.2 487.733 1912.22 488.751L1930.05 506.586C1931.07 507.606 1932.73 507.607 1933.75 506.592L2010 430.333C2011.02 429.318 2011.02 427.658 2010 426.638L1991.23 407.871C1990.63 407.273 1989.87 407.01 1989.03 407.125L1930.87 414.946L1931.03 414.79L1909.75 417.456C1908.92 417.56 1908.17 417.3 1907.58 416.708C1906.99 416.118 1906.73 415.36 1906.83 414.531L1909.49 393.254L1909.34 393.41L1917.16 335.254C1917.27 334.416 1917.01 333.651 1916.41 333.053L1897.65 314.285C1896.63 313.266 1894.97 313.265 1893.95 314.281L1817.69 390.539C1816.68 391.554 1816.68 393.214 1817.7 394.234L1835.53 412.068C1836.55 413.087 1838.21 413.09 1839.23 412.075L1879.94 371.362C1880.74 370.568 1881.89 370.37 1882.91 370.852C1883.93 371.334 1884.5 372.359 1884.39 373.478L1879.58 422.06C1879.5 422.868 1879.76 423.597 1880.33 424.171L1900.11 443.951C1900.69 444.527 1901.42 444.786 1902.22 444.706L1902.23 444.706ZM1656.89 551.337L1580.64 627.593C1579.62 628.61 1579.62 630.271 1580.64 631.29L1598.48 649.124C1599.5 650.144 1601.16 650.146 1602.17 649.129L1628.32 622.988C1629.33 621.971 1630.99 621.973 1632.01 622.993L1634.67 625.656C1635.61 626.59 1635.7 628.044 1634.91 629.092C1619.8 648.915 1617.4 672.82 1645.86 701.271L1650.16 705.579C1683.06 738.48 1709.94 730.033 1731.53 708.438L1737.74 702.23C1759.34 680.635 1767.78 653.761 1734.88 620.859L1730.58 616.552C1701.53 587.509 1677.26 590.687 1657.09 606.622C1656.05 607.448 1654.56 607.361 1653.62 606.42L1651.1 603.902C1650.08 602.883 1650.08 601.222 1651.1 600.206L1678.43 572.872C1679.45 571.856 1679.45 570.193 1678.43 569.174L1660.59 551.339C1659.57 550.32 1657.91 550.32 1656.89 551.336L1656.89 551.337ZM1667.64 638.332C1679.69 626.281 1690.79 615.183 1713.52 637.915C1736.25 660.648 1725.15 671.746 1713.1 683.797C1700.93 695.969 1689.83 707.066 1667.1 684.333C1644.37 661.601 1655.46 650.504 1667.64 638.332ZM1822.68 480.068L1765.52 537.231C1764.5 538.248 1762.84 538.246 1761.82 537.228L1739.8 515.205C1738.78 514.186 1738.78 512.526 1739.8 511.509L1796.96 454.346C1797.98 453.329 1797.97 451.667 1796.95 450.647L1779.12 432.813C1778.1 431.794 1776.44 431.793 1775.42 432.81L1699.17 509.066C1698.15 510.081 1698.15 511.742 1699.17 512.761L1811.52 625.114C1812.54 626.134 1814.21 626.134 1815.22 625.119L1891.48 548.863C1892.49 547.846 1892.49 546.186 1891.47 545.166L1873.64 527.332C1872.62 526.313 1870.96 526.31 1869.94 527.327L1812.78 584.49C1811.76 585.507 1810.1 585.507 1809.08 584.487L1787.06 562.464C1786.04 561.445 1786.04 559.785 1787.05 558.768L1844.22 501.605C1845.23 500.588 1845.23 498.925 1844.21 497.908L1826.38 480.072C1825.36 479.052 1823.7 479.052 1822.68 480.069L1822.68 480.068Z" fill="white"/>
<path fill-rule="evenodd" clip-rule="evenodd" d="M2240.8 106.135L2289.38 101.322C2290.5 101.212 2291.52 101.787 2292 102.806C2292.49 103.825 2292.29 104.978 2291.49 105.772L2250.78 146.485C2249.77 147.5 2249.77 149.162 2250.79 150.18L2268.62 168.016C2269.64 169.035 2271.3 169.036 2272.32 168.021L2348.58 91.7625C2349.59 90.7474 2349.59 89.087 2348.57 88.0673L2329.8 69.3C2329.21 68.7017 2328.44 68.4396 2327.6 68.5539L2269.45 76.3751L2269.6 76.2192L2248.33 78.8851C2247.5 78.9887 2246.74 78.7286 2246.15 78.1372C2245.56 77.5472 2245.3 76.7894 2245.4 75.9604L2248.07 54.6832L2247.91 54.8391L2255.73 -3.31689C2255.84 -4.15485 2255.58 -4.91957 2254.99 -5.51783L2236.22 -24.2855C2235.2 -25.3048 2233.54 -25.3056 2232.52 -24.2904L2156.27 51.9679C2155.25 52.9827 2155.25 54.6434 2156.27 55.6627L2174.1 73.4971C2175.12 74.5164 2176.79 74.5187 2177.8 73.5039L2218.51 32.7912C2219.31 31.9973 2220.46 31.7996 2221.48 32.2815C2222.5 32.7634 2223.07 33.7879 2222.96 34.9068L2218.15 83.4886C2218.07 84.2971 2218.33 85.0259 2218.9 85.6L2238.68 105.38C2239.26 105.956 2239.99 106.215 2240.8 106.135L2240.8 106.135ZM1995.47 212.766L1919.21 289.022C1918.19 290.039 1918.19 291.7 1919.21 292.719L1937.05 310.553C1938.07 311.573 1939.73 311.575 1940.75 310.558L1966.89 284.417C1967.9 283.4 1969.56 283.402 1970.58 284.422L1973.25 287.085C1974.18 288.019 1974.28 289.473 1973.48 290.521C1958.37 310.344 1955.98 334.249 1984.43 362.7L1988.74 367.008C2021.64 399.909 2048.51 391.462 2070.1 369.867L2076.31 363.659C2097.91 342.064 2106.36 315.19 2073.45 282.288L2069.15 277.981C2040.1 248.938 2015.83 252.117 1995.66 268.051C1994.62 268.877 1993.13 268.79 1992.19 267.849L1989.67 265.331C1988.65 264.312 1988.65 262.651 1989.67 261.635L2017 234.302C2018.02 233.285 2018.02 231.622 2017 230.603L1999.16 212.768C1998.14 211.749 1996.48 211.749 1995.47 212.766L1995.47 212.766ZM2006.21 299.761C2018.26 287.71 2029.36 276.612 2052.09 299.344C2074.82 322.077 2063.72 333.175 2051.67 345.226C2039.5 357.398 2028.4 368.495 2005.67 345.762C1982.94 323.03 1994.04 311.933 2006.21 299.761ZM2161.25 141.497L2104.09 198.66C2103.07 199.677 2101.41 199.675 2100.39 198.657L2078.37 176.635C2077.35 175.615 2077.35 173.955 2078.37 172.938L2135.53 115.775C2136.55 114.758 2136.55 113.096 2135.53 112.076L2117.69 94.242C2116.67 93.2227 2115.01 93.2219 2114 94.2389L2037.74 170.495C2036.72 171.51 2036.72 173.171 2037.74 174.19L2150.1 286.543C2151.12 287.563 2152.78 287.563 2153.79 286.548L2230.05 210.292C2231.07 209.275 2231.06 207.615 2230.04 206.595L2212.21 188.761C2211.19 187.742 2209.53 187.739 2208.51 188.756L2151.35 245.919C2150.33 246.936 2148.67 246.936 2147.65 245.916L2125.63 223.893C2124.61 222.874 2124.61 221.214 2125.63 220.197L2182.79 163.034C2183.81 162.017 2183.8 160.355 2182.79 159.337L2164.95 141.501C2163.93 140.482 2162.27 140.481 2161.25 141.498L2161.25 141.497Z" fill="white"/>
<path fill-rule="evenodd" clip-rule="evenodd" d="M2097.89 519.518L2146.47 514.704C2147.59 514.595 2148.61 515.169 2149.09 516.188C2149.58 517.207 2149.38 518.361 2148.58 519.155L2107.87 559.867C2106.86 560.882 2106.86 562.545 2107.88 563.563L2125.71 581.398C2126.73 582.418 2128.39 582.418 2129.41 581.403L2205.67 505.145C2206.68 504.13 2206.68 502.47 2205.66 501.45L2186.89 482.683C2186.3 482.084 2185.53 481.822 2184.69 481.936L2126.54 489.758L2126.69 489.602L2105.42 492.268C2104.59 492.371 2103.83 492.111 2103.24 491.52C2102.65 490.93 2102.39 490.172 2102.49 489.343L2105.16 468.066L2105 468.222L2112.82 410.066C2112.93 409.228 2112.67 408.463 2112.08 407.865L2093.31 389.097C2092.29 388.078 2090.63 388.077 2089.61 389.092L2013.35 465.35C2012.34 466.365 2012.34 468.026 2013.36 469.045L2031.19 486.88C2032.21 487.899 2033.88 487.901 2034.89 486.886L2075.6 446.174C2076.4 445.38 2077.55 445.182 2078.57 445.664C2079.59 446.146 2080.16 447.17 2080.05 448.289L2075.24 496.871C2075.16 497.68 2075.42 498.408 2075.99 498.983L2095.77 518.763C2096.35 519.339 2097.08 519.597 2097.89 519.517L2097.89 519.518ZM1852.56 626.149L1776.3 702.405C1775.28 703.422 1775.28 705.082 1776.3 706.102L1794.14 723.936C1795.16 724.955 1796.82 724.958 1797.84 723.941L1823.98 697.8C1824.99 696.783 1826.65 696.785 1827.67 697.804L1830.34 700.468C1831.27 701.402 1831.37 702.856 1830.57 703.903C1815.46 723.727 1813.07 747.632 1841.52 776.083L1845.82 780.39C1878.73 813.292 1905.6 804.845 1927.19 783.25L1933.4 777.041C1955 755.446 1963.45 728.573 1930.54 695.671L1926.24 691.364C1897.19 662.32 1872.92 665.499 1852.75 681.433C1851.71 682.26 1850.22 682.173 1849.28 681.231L1846.76 678.714C1845.74 677.694 1845.74 676.034 1846.76 675.017L1874.09 647.684C1875.11 646.667 1875.11 645.005 1874.09 643.985L1856.25 626.151C1855.23 625.132 1853.57 625.131 1852.56 626.148L1852.56 626.149ZM1863.3 713.143C1875.35 701.093 1886.45 689.994 1909.18 712.727C1931.91 735.46 1920.81 746.558 1908.76 758.608C1896.59 770.78 1885.49 781.877 1862.76 759.145C1840.03 736.412 1851.13 725.315 1863.3 713.143ZM2018.34 554.88L1961.18 612.043C1960.16 613.06 1958.5 613.058 1957.48 612.04L1935.46 590.017C1934.44 588.997 1934.44 587.337 1935.46 586.32L1992.62 529.157C1993.64 528.14 1993.64 526.478 1992.62 525.459L1974.78 507.625C1973.76 506.605 1972.1 506.604 1971.08 507.621L1894.83 583.878C1893.81 584.893 1893.81 586.553 1894.83 587.573L2007.19 699.926C2008.21 700.946 2009.87 700.946 2010.88 699.931L2087.14 623.675C2088.15 622.658 2088.15 620.997 2087.13 619.978L2069.3 602.144C2068.28 601.124 2066.62 601.122 2065.6 602.139L2008.44 659.302C2007.42 660.319 2005.76 660.318 2004.74 659.299L1982.72 637.276C1981.7 636.256 1981.7 634.596 1982.72 633.579L2039.88 576.416C2040.9 575.399 2040.89 573.737 2039.88 572.719L2022.04 554.883C2021.02 553.864 2019.36 553.863 2018.34 554.88L2018.34 554.88Z" fill="white"/>
</g>
<defs>
<filter id="filter0_d_899_2921" x="-246.248" y="-711.915" width="1580.25" height="1378.22" filterUnits="userSpaceOnUse" color-interpolation-filters="sRGB">
<feFlood flood-opacity="0" result="BackgroundImageFix"/>
<feColorMatrix in="SourceAlpha" type="matrix" values="0 0 0 0 0 0 0 0 0 0 0 0 0 0 0 0 0 0 127 0" result="hardAlpha"/>
<feOffset dy="4"/>
<feGaussianBlur stdDeviation="2"/>
<feComposite in2="hardAlpha" operator="out"/>
<feColorMatrix type="matrix" values="0 0 0 0 0 0 0 0 0 0 0 0 0 0 0 0 0 0 0.05 0"/>
<feBlend mode="normal" in2="BackgroundImageFix" result="effect1_dropShadow_899_2921"/>
<feBlend mode="normal" in="SourceGraphic" in2="effect1_dropShadow_899_2921" result="shape"/>
</filter>
<filter id="filter1_d_899_2921" x="968.752" y="-567.915" width="1580.25" height="1378.22" filterUnits="userSpaceOnUse" color-interpolation-filters="sRGB">
<feFlood flood-opacity="0" result="BackgroundImageFix"/>
<feColorMatrix in="SourceAlpha" type="matrix" values="0 0 0 0 0 0 0 0 0 0 0 0 0 0 0 0 0 0 127 0" result="hardAlpha"/>
<feOffset dy="4"/>
<feGaussianBlur stdDeviation="2"/>
<feComposite in2="hardAlpha" operator="out"/>
<feColorMatrix type="matrix" values="0 0 0 0 0 0 0 0 0 0 0 0 0 0 0 0 0 0 0.05 0"/>
<feBlend mode="normal" in2="BackgroundImageFix" result="effect1_dropShadow_899_2921"/>
<feBlend mode="normal" in="SourceGraphic" in2="effect1_dropShadow_899_2921" result="shape"/>
</filter>
</defs>
</svg>
