<svg width="952" height="630" fill="none" xmlns="http://www.w3.org/2000/svg"><g opacity=".1" stroke="#fff" stroke-miterlimit="10"><path d="M-58.434 1919v-888.01c0-23.94 0-47.967.532-72.446 26.756-176.598 68.943-345.442 43.631-531.087-16.875-109.699-50.624-202.597-44.011-311.84-.152-24.327-.152-45.46-.152-62.718V-.848M42.586 1919v-299.83c.38-19.99.685-40.14.913-60.44.228-20.29.38-40.67.456-61.12.76-99.59.76-200.92-1.369-300.51V959c0-24.023 0-47.97.077-72.068 27.364-240.076 18.927-476.427.456-711.258-.532-35.958-.533-67.811-.533-94.039V-.848M143.607 1919v-116.62c.304-29.42.456-58.76.456-87.95-14.899-257.18 1.976-501.97-.456-755.354v-89.857c0-29.877 0-59.677.076-89.326 2.356-175.229 2.356-360.874.152-538.688-.228-36.643-.228-70.168-.228-99.817V-.848M244.628 1919s0-30.03.076-81.95c-.608-26.15-1.368-52.23-2.737-78.15-53.817-293.29-11.554-580.27 2.661-871.816V626.786c2.66-89.782 2.66-191.042 0-283.485V-1m101.02 1920s0-19.23.076-53.29c-2.28-29.88-5.017-59.68-9.349-89.17-97.525-285.62-63.775-589.48 8.817-888.24.38-25.087.456-49.034.456-72.753V-.848"/><path d="M446.669 1919s0-19.23.076-53.14c3.344-25.92 3.116-50.93-.608-75.18-21.664-97.16-89.163-173.11-114.475-274.44-50.624-219.48 67.499-405.2 97.828-616.993 5.017-29.116 10.718-56.712 17.179-83.776V-.924"/><path d="M547.765 1919v-53.6c.836-17.63 1.977-35.65 2.433-53.44 17.787-118.44-108.774-169.07-142.524-270.41-33.749-84.38-16.875-177.28 8.438-261.66 42.187-126.65 92.811-244.79 110.522-381.175 6.157-28.736 12.922-56.028 20.067-83.016.988-23.946.988-47.589 1.064-71.004V-.848"/><path d="M648.786 1919v-53.75c0-17.25 0-38.39-.076-62.64-13.226-49.95 12.162-117.45-30.101-151.21-244.76-211.03-25.312-506.45 5.169-754.814a1412.742 1412.742 0 0123.792-80.887c1.064-23.87 1.064-47.513 1.14-71.004V-.848"/><path d="M749.807 1919v-116.62c0-24.48 0-52.3-.305-83.01-4.256-25.85 4.257-51.17-4.256-68.04-168.824-211.04-67.499-447.39-30.025-672.716 5.169-27.976 10.49-55.116 16.343-82.256 5.472-26.835 11.401-53.823 17.71-80.811.381-23.794.457-47.361.533-70.852V-.848M850.827 1919v-199.63c0-30.72 0-64.32-.076-100.35-6.841-26.53-12.618-53.22-17.635-79.9-20.371-132.58-28.808-267.6-13.758-402.31 1.748-27.14 3.801-53.97 6.005-80.73 2.28-26.53 4.637-52.99 7.145-79.215a2908.36 2908.36 0 017.982-80.431 3010.848 3010.848 0 0110.261-80.811c0-23.794.076-47.361.076-70.852V-.772M951.848 1919v-355.7c-.076-19.16-.076-38.85-.228-59-.988-51.84-1.672-103.46-2.204-154.85-.533-51.39-.685-102.63-.685-153.87 0-51.24.228-102.48.761-153.79.532-51.393 1.216-102.86 2.204-154.63 0-23.947.076-47.818.076-71.613V-.848"/><path d="M951.848 706.457H206.393c-63.926 12.391-121.24-4.561-175.209-29.953-18.015-8.438-35.573-17.865-52.98-27.367-85.362-61.274-186.687-86.589-296.373-69.712-227.886 50.63-422.022 160.405-649.679 127.108"/><path d="M951.848 605.423H265.759c-113.563 16.421-207.742-34.437-305.418-77.618-24.4-10.795-49.028-21.058-74.264-29.572-52.373-20.146-111.511-28.584-162.135-20.146-236.323 67.507-447.334 160.406-691.79 127.336"/><path d="M951.848 504.315H265.759c-120.936 13.228-228.95-37.327-344.641-69.18-23.108-6.386-46.596-12.011-70.464-16.192-236.323-8.439-464.208 109.699-702.279 85.524-36.258-.152-65.371-.152-85.362-.152h-30.785m1919.62-101.033H262.262C107.045 385.797-46.5 368.617-200.73 364.359c-30.785-.684-61.646-.912-92.659-.38-159.854 4.257-311.803 38.011-474.85 39.379-30.633-.076-58.454-.076-83.006-.076h-116.603M951.848 302.25H265.759c-21.968 0-44.087 0-66.359-.076-179.162-12.772-352.85-16.649-527.299-11.479-24.932.76-49.864 1.672-74.796 2.812-67.347 7.299-143.36 7.299-209.339 8.743h-355.662M951.848 201.217H171.047c-20.675 0-41.426 0-62.178-.152-173.916-1.521-359.615-9.959-535.66 0-19.307.152-38.158.152-56.629.152h-484.428M951.848 100.185H-7.962c-90.759-1.977-192.084-1.977-284.135 0h-675.751"/></g></svg>