<svg width="36" height="36" fill="none" xmlns="http://www.w3.org/2000/svg"><path d="M31.219 22.275l-6.596-2.813a2.194 2.194 0 00-2.123.183l-3.53 2.349a10.759 10.759 0 01-4.95-4.922l2.335-3.572a2.237 2.237 0 00.197-2.124l-2.827-6.595a2.292 2.292 0 00-2.348-1.35A7.903 7.903 0 004.5 11.25c0 11.165 9.084 20.25 20.25 20.25a7.903 7.903 0 007.819-6.877 2.293 2.293 0 00-1.35-2.348zM22.134 6.707a10.21 10.21 0 017.158 7.158 1.125 1.125 0 001.083.844c.1 0 .2-.015.295-.042a1.11 1.11 0 00.788-1.378 12.375 12.375 0 00-8.747-8.747 1.125 1.125 0 10-.577 2.165zm-1.167 4.346a5.682 5.682 0 013.98 3.98 1.11 1.11 0 001.083.843.895.895 0 00.281-.042 1.113 1.113 0 00.802-1.378 7.846 7.846 0 00-5.57-5.569 1.125 1.125 0 10-.576 2.166z" fill="#fff"/></svg>