<svg width="36" height="36" fill="none" xmlns="http://www.w3.org/2000/svg"><path d="M18 3.375A14.64 14.64 0 003.39 18.577c.295 7.692 6.609 13.893 14.315 14.048a14.624 14.624 0 0012.853-7.144.562.562 0 00-.577-.844c-.427.076-.86.114-1.293.113-2.574 0-4.008-1.125-4.767-2.067a6.16 6.16 0 01-.479-.703A6.75 6.75 0 1118 11.25a6.666 6.666 0 014.5 1.73v-.563a1.153 1.153 0 011.055-1.167 1.125 1.125 0 011.195 1.125V18c0 2.053.69 4.5 3.938 4.5s3.88-2.278 3.937-4.29V18A14.64 14.64 0 0018 3.375z" fill="#fff"/><path d="M18 22.5a4.5 4.5 0 100-9 4.5 4.5 0 000 9z" fill="#fff"/></svg>