<svg width="36" height="36" fill="none" xmlns="http://www.w3.org/2000/svg"><mask id="a" style="mask-type:luminance" maskUnits="userSpaceOnUse" x="3" y="3" width="30" height="30"><path d="M32.21 18c0-7.849-6.362-14.21-14.21-14.21-7.848 0-14.21 6.36-14.21 14.21 0 7.848 6.362 14.21 14.21 14.21 7.848 0 14.21-6.362 14.21-14.21z" fill="#fff"/></mask><g mask="url(#a)" fill="#fff"><path d="M21.345 17.35H12.95v-3.323h8.396c.49 0 .832.086 1.003.235.171.15.277.426.277.83v1.194c0 .426-.106.703-.277.852-.171.15-.512.213-1.003.213v-.001zm.576-6.455H9.388v14.21h3.56V20.48h6.563l3.114 4.623h3.988l-3.434-4.645c1.266-.187 1.835-.575 2.303-1.214.469-.64.704-1.662.704-3.026v-1.065c0-.809-.086-1.448-.235-1.938a3.23 3.23 0 00-.768-1.3 3.47 3.47 0 00-1.322-.788c-.512-.149-1.152-.234-1.94-.234z"/><path d="M46.421 3.789c0 7.848-6.362 14.21-14.21 14.21-1.596 0-3.13-.263-4.562-.748.03-.338.044-.683.044-1.031v-1.066c0-.904-.094-1.702-.3-2.377a4.736 4.736 0 00-1.116-1.896l-.028-.03-.03-.029a4.977 4.977 0 00-1.88-1.123l-.028-.01-.028-.007c-.683-.2-1.47-.295-2.362-.295h-1.507v.001h-1.268A14.164 14.164 0 0118 3.788c0-7.848 6.362-14.21 14.21-14.21 7.849 0 14.211 6.362 14.211 14.21z"/></g><path d="M31.995 18c0-7.73-6.266-13.995-13.995-13.995C10.27 4.005 4.005 10.27 4.005 18c0 7.73 6.266 13.995 13.995 13.995 7.73 0 13.995-6.266 13.995-13.995z" stroke="#fff" stroke-width="2"/></svg>