<svg width="36" height="36" fill="none" xmlns="http://www.w3.org/2000/svg"><path fill-rule="evenodd" clip-rule="evenodd" d="M5.1 5.1C3 7.22 3 10.61 3 17.4v1.2c0 6.78 0 10.17 2.1 12.3C7.22 33 10.61 33 17.4 33h1.2c6.78 0 10.17 0 12.3-2.1C33 28.78 33 25.39 33 18.6v-1.2c0-6.78 0-10.17-2.1-12.3C28.78 3 25.39 3 18.6 3h-1.2C10.62 3 7.23 3 5.1 5.1zm2.96 7.03c.16 7.8 4.06 12.48 10.9 12.48h.4v-4.46c2.51.25 4.41 2.09 5.17 4.46h3.55a9.872 9.872 0 00-5.13-6.26 9.529 9.529 0 004.38-6.23h-3.22c-.7 2.48-2.78 4.73-4.75 4.94v-4.93h-3.23v8.64c-2-.5-4.52-2.92-4.63-8.64H8.06z" fill="#fff"/></svg>