<svg width="146" height="41" viewBox="0 0 146 41" fill="none" xmlns="http://www.w3.org/2000/svg">
<path fill-rule="evenodd" clip-rule="evenodd" d="M40.9661 40.9907L40.9661 0.00195313L-0.0439453 0.00195312L-0.0439453 20.4963L-0.0439453 40.9907H20.4611L40.9661 40.9907Z" fill="url(#paint0_linear_961_3503)"/>
<path fill-rule="evenodd" clip-rule="evenodd" d="M40.9661 40.9907L40.9661 0.00195313L-0.0439453 0.00195312L-0.0439453 20.4963L-0.0439453 40.9907H20.4611L40.9661 40.9907ZM70.8383 10.1794C70.8383 9.41398 70.8383 8.70749 72.4876 8.70749C74.1367 8.70749 74.1367 9.41398 74.1367 10.1794C74.1367 10.9447 74.1367 11.651 72.4876 11.651C70.8383 11.651 70.8383 10.9447 70.8383 10.1794ZM77.6705 11.5568C77.561 11.5568 77.415 11.5515 77.2776 11.5413C77.2251 11.5372 77.1785 11.5535 77.1399 11.5893C77.1014 11.6251 77.0815 11.6703 77.0815 11.7228V13.0062C77.0815 13.0927 77.1403 13.1657 77.2248 13.1842C77.4627 13.2362 77.7495 13.2522 78.0122 13.2522C79.6378 13.2522 80.1444 12.4516 80.2268 10.968L80.3346 9.10289C80.3402 9.00651 80.4199 8.93134 80.5165 8.93134H82.5065C82.6069 8.93134 82.6887 9.01316 82.6887 9.1133V12.9405C82.6887 13.0409 82.7706 13.1226 82.871 13.1226H84.3912C84.4916 13.1226 84.5735 13.0409 84.5735 12.9405V7.41803C84.5735 7.31769 84.4916 7.23579 84.3912 7.23579L78.7844 7.23579C78.6879 7.23579 78.6084 7.31075 78.6026 7.40713L78.4009 10.7562C78.3773 11.2742 78.236 11.5568 77.6705 11.5568L77.6705 11.5568ZM87.9307 10.1794C87.9307 9.41398 87.9307 8.70749 89.5799 8.70749C91.2291 8.70749 91.2291 9.41398 91.2291 10.1794C91.2291 10.9447 91.2291 11.651 89.5799 11.651C87.9307 11.651 87.9307 10.9447 87.9307 10.1794ZM86.046 10.4148C86.046 12.0396 86.7763 13.3582 89.4149 13.3582H89.7448C92.3834 13.3582 93.1138 12.0396 93.1138 10.4148V9.94389C93.1138 8.31899 92.3834 7.00051 89.7448 7.00051H89.4149C86.7763 7.00051 86.046 8.31899 86.046 9.94389V10.4148ZM99.3688 9.11334V11.2924C99.3688 11.3926 99.287 11.4744 99.1866 11.4744H96.9296C96.8712 11.4744 96.8208 11.4496 96.7852 11.4034C96.7495 11.3571 96.7385 11.302 96.7536 11.2455C96.8393 10.9235 96.8883 10.5423 96.9186 10.1087L96.9892 9.10075C96.9959 9.00516 97.0751 8.93139 97.171 8.93139H99.1866C99.287 8.93139 99.3688 9.0132 99.3688 9.11334ZM93.9384 11.6565V15.0597C93.9384 15.1602 94.0202 15.2419 94.1205 15.2419H94.359C94.3936 15.2419 94.4232 15.2337 94.4528 15.216L95.499 14.5886C95.5555 14.5546 95.5875 14.4982 95.5875 14.4324V13.3049C95.5875 13.2044 95.6694 13.1226 95.7697 13.1226H100.353C100.453 13.1226 100.535 13.2044 100.535 13.3049V15.0597C100.535 15.1602 100.617 15.2419 100.717 15.2419H100.956C100.99 15.2419 101.02 15.2337 101.049 15.216L102.096 14.5886C102.152 14.5546 102.184 14.4982 102.184 14.4324V11.6565C102.184 11.5562 102.102 11.4743 102.002 11.4743H101.436C101.335 11.4743 101.254 11.3926 101.254 11.2924V7.41805C101.254 7.31771 101.172 7.23581 101.071 7.23581L95.4626 7.23581C95.3669 7.23581 95.2878 7.30957 95.281 7.40497L95.0809 10.2029C95.0265 10.7798 94.962 11.2056 94.7291 11.425C94.694 11.458 94.6525 11.4744 94.6041 11.4744H94.1205C94.0202 11.4744 93.9384 11.5562 93.9384 11.6565H93.9384ZM106.719 8.47218C107.992 8.47218 108.062 8.80169 108.062 9.02558C108.062 9.23749 107.98 9.47289 106.602 9.47289C106.014 9.47289 105.556 9.42925 105.147 9.34199C105.092 9.33019 105.049 9.29718 105.023 9.24642C104.997 9.19584 104.996 9.14151 105.019 9.08974C105.197 8.69055 105.644 8.4722 106.719 8.4722V8.47218ZM106.602 13.3582C107.445 13.3582 108.529 13.2641 109.331 13.0958C109.416 13.0778 109.476 13.0045 109.476 12.9176V11.5347C109.476 11.477 109.452 11.4272 109.406 11.3915C109.361 11.3559 109.306 11.3441 109.25 11.358C108.455 11.5534 107.407 11.6511 106.731 11.6511C105.393 11.6511 105.026 11.3418 104.925 10.8336C104.913 10.7712 104.931 10.7119 104.977 10.6676C105.022 10.6233 105.082 10.6064 105.144 10.6206C105.609 10.7259 106.122 10.768 106.719 10.768C109.664 10.768 109.947 9.94391 109.947 9.0019V8.88421C109.947 7.84803 109.393 7.00053 106.707 7.00053H106.378C103.739 7.00053 103.009 8.31902 103.009 9.94391V10.4148C103.009 12.0397 103.739 13.3582 106.378 13.3582H106.602V13.3582ZM112.84 13.0383L114.052 11.1348C114.086 11.0808 114.141 11.0504 114.205 11.0504H114.983C115.083 11.0504 115.165 11.1323 115.165 11.2326V12.9406C115.165 13.0409 115.247 13.1226 115.348 13.1226L116.868 13.1226C116.968 13.1226 117.05 13.0409 117.05 12.9406V11.2326C117.05 11.1323 117.132 11.0504 117.232 11.0504H118.01C118.074 11.0504 118.13 11.0808 118.164 11.1348L119.376 13.0383C119.41 13.0925 119.465 13.1226 119.53 13.1226H121.062C121.162 13.1226 121.244 13.0409 121.244 12.9406V12.7046C121.244 12.6686 121.235 12.6375 121.215 12.6071L119.739 10.2766C119.7 10.2158 119.7 10.1428 119.739 10.0818L121.215 7.75149C121.235 7.72098 121.244 7.69011 121.244 7.65393V7.41803C121.244 7.31769 121.162 7.23579 121.062 7.23579H119.53C119.465 7.23579 119.41 7.26624 119.376 7.32026L118.164 9.22368C118.13 9.27772 118.074 9.30805 118.01 9.30805H117.232C117.132 9.30805 117.05 9.22615 117.05 9.12591V7.42863C117.05 7.32868 116.969 7.24719 116.869 7.24659L115.349 7.23697C115.298 7.23676 115.255 7.25444 115.219 7.28994C115.183 7.32533 115.165 7.36887 115.165 7.41911V9.12591C115.165 9.22615 115.083 9.30805 114.983 9.30805H114.205C114.141 9.30805 114.086 9.2777 114.052 9.22368L112.84 7.32026C112.805 7.26622 112.75 7.23579 112.686 7.23579H111.154C111.054 7.23579 110.972 7.31769 110.972 7.41803V7.65393C110.972 7.69011 110.981 7.72098 111 7.75149L112.477 10.0818C112.515 10.1428 112.515 10.2158 112.477 10.2766L111 12.6071C110.981 12.6375 110.972 12.6686 110.972 12.7046V12.9406C110.972 13.0409 111.054 13.1226 111.154 13.1226H112.686C112.75 13.1226 112.805 13.0925 112.84 13.0383ZM122.304 7.41805V12.9406C122.304 13.0409 122.386 13.1226 122.486 13.1226H124.006C124.107 13.1226 124.189 13.0409 124.189 12.9406V11.1856C124.189 11.0853 124.271 11.0034 124.371 11.0034L127.328 11.0034C127.429 11.0034 127.511 11.0853 127.511 11.1856V12.9406C127.511 13.0409 127.592 13.1226 127.693 13.1226H129.213C129.313 13.1226 129.395 13.0409 129.395 12.9406V7.41805C129.395 7.31771 129.313 7.23581 129.213 7.23581H127.693C127.592 7.23581 127.511 7.31771 127.511 7.41805V9.17291C127.511 9.27336 127.429 9.35507 127.328 9.35507L124.371 9.35507C124.271 9.35507 124.189 9.27336 124.189 9.17291V7.41805C124.189 7.31771 124.107 7.23581 124.006 7.23581H122.486C122.386 7.23581 122.304 7.31771 122.304 7.41805ZM134.343 11.8865C132.847 11.8865 132.753 11.6745 132.753 11.3921C132.753 11.1565 132.823 10.874 134.225 10.874C134.892 10.874 135.441 10.9328 135.934 11.0505C136.018 11.0704 136.074 11.1424 136.074 11.2277V11.5032C136.074 11.5861 136.021 11.6561 135.942 11.6786C135.45 11.8172 134.926 11.8865 134.343 11.8865ZM137.959 9.59066C137.959 7.9069 137.017 7.00049 134.39 7.00049C133.547 7.00049 132.463 7.0944 131.66 7.26275C131.575 7.28071 131.516 7.35389 131.516 7.44103V8.82367C131.516 8.88158 131.54 8.93134 131.585 8.96695C131.631 9.00273 131.685 9.01435 131.741 9.00055C132.534 8.80512 133.569 8.70745 134.331 8.70745C135.644 8.70745 135.966 8.9593 136.048 9.41315C136.06 9.47503 136.041 9.53362 135.995 9.57705C135.95 9.62067 135.891 9.63725 135.829 9.62346C135.337 9.5127 134.782 9.46103 134.107 9.46103C131.657 9.46103 130.868 10.2735 130.868 11.2624V11.3801C130.868 12.4281 131.598 13.3582 134.143 13.3582C135.187 13.3582 136.001 13.1831 136.765 12.8018C136.822 12.7736 136.883 12.7754 136.938 12.8068L137.446 13.0986C137.475 13.1151 137.503 13.1226 137.537 13.1226H137.777C137.877 13.1226 137.959 13.0409 137.959 12.9405V9.59064L137.959 9.59066ZM142.518 9.73196C141.352 9.73196 141.293 9.44925 141.293 9.14325C141.293 8.83706 141.352 8.55445 142.518 8.55445C142.97 8.55445 143.57 8.57419 144.165 8.62258C144.259 8.63031 144.332 8.70895 144.332 8.80394V9.48225C144.332 9.57743 144.259 9.65609 144.165 9.66381C143.57 9.71219 142.97 9.73192 142.518 9.73192V9.73196ZM60.7603 17.1116L60.7603 22.7519C60.7603 22.8521 60.6785 22.934 60.5781 22.934H58.4099C58.3096 22.934 58.2278 22.8521 58.2278 22.7519L58.2278 17.1116C58.2278 17.0112 58.1458 16.9293 58.0455 16.9293H56.2896C56.1893 16.9293 56.1073 17.0112 56.1073 17.1116L56.1073 24.6356C56.1073 24.7358 56.1893 24.8178 56.2896 24.8178H67.3515C67.4518 24.8178 67.5336 24.7358 67.5336 24.6356V17.1116C67.5336 17.0112 67.4518 16.9293 67.3515 16.9293H65.5955C65.4952 16.9293 65.4134 17.0112 65.4134 17.1116V22.7519C65.4134 22.8521 65.3315 22.934 65.2311 22.934H63.0629C62.9626 22.934 62.8807 22.8521 62.8807 22.7519L62.8807 17.1116C62.8807 17.0112 62.7989 16.9293 62.6985 16.9293H60.9426C60.8422 16.9293 60.7604 17.0112 60.7604 17.1116H60.7603ZM75.968 24.6356V24.3997C75.968 24.3635 75.959 24.3326 75.9397 24.3021L74.463 21.9717C74.4244 21.9107 74.4244 21.8378 74.463 21.7769L75.9397 19.4465C75.959 19.416 75.968 19.385 75.968 19.3489V19.113C75.968 19.0127 75.8861 18.9309 75.7857 18.9309H74.2539C74.1898 18.9309 74.1346 18.9611 74.1002 19.0152L72.8883 20.9188C72.8538 20.9728 72.7987 21.003 72.7345 21.003H71.132C71.0316 21.003 70.9498 20.9212 70.9498 20.821V19.1236C70.9498 19.0238 70.8687 18.9422 70.7687 18.9416L69.2484 18.9321C69.1981 18.9317 69.1546 18.9495 69.1189 18.9849C69.0831 19.0204 69.065 19.0639 69.065 19.1142V24.6355C69.065 24.7358 69.1469 24.8178 69.2473 24.8178H70.7676C70.8679 24.8178 70.9498 24.7358 70.9498 24.6355V22.9277C70.9498 22.8274 71.0316 22.7455 71.132 22.7455H72.7345C72.7987 22.7455 72.8538 22.7759 72.8883 22.8299L74.1002 24.7333C74.1346 24.7873 74.1898 24.8178 74.2539 24.8178H75.7857C75.8861 24.8178 75.968 24.7358 75.968 24.6355V24.6356ZM78.7951 21.8742C78.7951 21.109 78.7951 20.4026 80.4443 20.4026C82.0934 20.4026 82.0934 21.109 82.0934 21.8742C82.0934 22.6396 82.0934 23.346 80.4443 23.346C78.7951 23.346 78.7951 22.6396 78.7951 21.8742ZM76.9103 22.1098C76.9103 23.7346 77.6407 25.0531 80.2793 25.0531H80.6092C83.2478 25.0531 83.9782 23.7346 83.9782 22.1098V21.6389C83.9782 20.014 83.2478 18.6954 80.6092 18.6954H80.2793C77.6407 18.6954 76.9103 20.014 76.9103 21.6389V22.1098ZM85.6273 23.2517C85.5178 23.2517 85.3717 23.2467 85.2342 23.2362C85.1818 23.2323 85.1352 23.2484 85.0966 23.2843C85.058 23.3199 85.0383 23.3652 85.0383 23.4177V24.7013C85.0383 24.7878 85.097 24.8607 85.1815 24.8791C85.4194 24.9311 85.7063 24.9473 85.9689 24.9473C87.5945 24.9473 88.101 24.1467 88.1834 22.6632L88.2914 20.7978C88.297 20.7015 88.3766 20.6262 88.4732 20.6262H90.4632C90.5636 20.6262 90.6455 20.7081 90.6455 20.8085V24.6355C90.6455 24.7358 90.7273 24.8178 90.8276 24.8178H92.348C92.4484 24.8178 92.5302 24.7358 92.5302 24.6355V19.113C92.5302 19.0127 92.4484 18.9309 92.348 18.9309H86.7412C86.6446 18.9309 86.5652 19.0058 86.5593 19.102L86.3576 22.4511C86.334 22.9691 86.1927 23.2517 85.6273 23.2517L85.6273 23.2517ZM97.4777 23.5814C95.9817 23.5814 95.8874 23.3696 95.8874 23.087C95.8874 22.8515 95.9581 22.569 97.3599 22.569C98.0266 22.569 98.5755 22.6278 99.0694 22.7455C99.1524 22.7653 99.2093 22.8372 99.2093 22.9227V23.1982C99.2093 23.281 99.1562 23.3511 99.0766 23.3736C98.5849 23.5122 98.061 23.5814 97.4777 23.5814ZM101.094 21.2856C101.094 19.602 100.152 18.6954 97.5249 18.6954C96.6814 18.6954 95.5977 18.7894 94.7954 18.9578C94.7101 18.9758 94.6505 19.0491 94.6505 19.136V20.5187C94.6505 20.5765 94.6749 20.6262 94.7204 20.662C94.7659 20.6976 94.8202 20.7093 94.8763 20.6955C95.6691 20.5002 96.7042 20.4025 97.466 20.4025C98.7785 20.4025 99.1007 20.6543 99.1833 21.1082C99.1946 21.1701 99.1757 21.2286 99.1302 21.272C99.0847 21.3158 99.0255 21.3323 98.9641 21.3183C98.4714 21.2078 97.917 21.1561 97.2421 21.1561C94.7919 21.1561 94.0027 21.9684 94.0027 22.9575V23.0752C94.0027 24.123 94.733 25.053 97.2775 25.053C98.3217 25.053 99.1363 24.8782 99.9003 24.4969C99.9566 24.4687 100.018 24.4705 100.072 24.5018L100.581 24.7936C100.61 24.81 100.638 24.8178 100.671 24.8178H100.912C101.012 24.8178 101.094 24.7358 101.094 24.6355V21.2856L101.094 21.2856ZM60.9189 32.5685C60.9189 31.3794 60.9189 30.2844 63.157 30.2844C65.3952 30.2844 65.3952 31.3794 65.3952 32.5685C65.3952 33.7695 65.3952 34.8645 63.157 34.8645C60.9189 34.8645 60.9189 33.7695 60.9189 32.5685ZM56.1073 28.8066V36.3307C56.1073 36.4309 56.1892 36.5128 56.2895 36.5128H58.0455C58.1458 36.5128 58.2278 36.4309 58.2278 36.3307V33.7515C58.2278 33.6512 58.3096 33.5693 58.4099 33.5693H58.6722C58.764 33.5693 58.8405 33.6363 58.8528 33.7271C59.0849 35.4505 60.1437 36.7482 62.945 36.7482H63.369C66.6085 36.7482 67.5154 35.0056 67.5154 32.8748V32.2625C67.5154 30.1314 66.6084 28.3889 63.369 28.3889H62.945C60.0856 28.3889 59.0474 29.7432 58.8386 31.5246C58.8278 31.6168 58.7506 31.6856 58.6577 31.6856H58.4099C58.3096 31.6856 58.2278 31.6037 58.2278 31.5034V28.8066C58.2278 28.7061 58.1458 28.6244 58.0455 28.6244H56.2895C56.1892 28.6244 56.1073 28.7061 56.1073 28.8066V28.8066ZM72.619 32.0977C74.2092 32.0977 74.2092 32.8041 74.2092 33.5692C74.2092 34.3345 74.2092 35.041 72.619 35.041C72.0256 35.041 71.5014 34.9718 71.0193 34.8337C70.94 34.811 70.8873 34.741 70.8873 34.6587V32.4916C70.8873 32.4093 70.9396 32.3395 71.0187 32.3166C71.5009 32.1767 72.0254 32.0976 72.619 32.0976V32.0977ZM82.7071 30.6853L79.768 33.9051C79.7163 33.9618 79.6391 33.98 79.5675 33.9522C79.496 33.9244 79.4512 33.859 79.4512 33.7823V30.8079C79.4512 30.7077 79.3693 30.626 79.269 30.626H77.7486C77.6483 30.626 77.5665 30.7077 77.5665 30.8079V36.3307C77.5665 36.4309 77.6483 36.5128 77.7486 36.5128H79.3708C79.424 36.5128 79.4696 36.4926 79.5054 36.4534L82.4445 33.2335C82.4962 33.177 82.5734 33.1588 82.645 33.1865C82.7166 33.2143 82.7613 33.2796 82.7613 33.3564V36.3307C82.7613 36.4309 82.8432 36.5128 82.9435 36.5128H84.4639C84.5642 36.5128 84.646 36.4309 84.646 36.3307V30.8079C84.646 30.7077 84.5642 30.626 84.4639 30.626H82.8417C82.7886 30.626 82.7429 30.646 82.7071 30.6853ZM86.1186 33.8048C86.1186 35.4295 86.8488 36.7482 89.4875 36.7482H89.8173C90.6136 36.7482 91.3786 36.6549 92.1028 36.4876C92.1864 36.4682 92.2439 36.396 92.2439 36.3101V34.9366C92.2439 34.8787 92.2196 34.8288 92.1739 34.7931C92.1281 34.7574 92.0738 34.7459 92.0174 34.7601C91.2104 34.9623 90.3624 35.0411 89.7703 35.0411C88.0032 35.0411 88.0032 34.417 88.0032 33.5693C88.0032 32.7216 88.0032 32.0977 89.7703 32.0977C90.3624 32.0977 91.2104 32.1764 92.0174 32.3787C92.0738 32.3927 92.1281 32.3813 92.1739 32.3455C92.2196 32.3099 92.2439 32.26 92.2439 32.202V30.8286C92.2439 30.7428 92.1864 30.6705 92.1028 30.6513C91.3786 30.484 90.6135 30.3904 89.8173 30.3904H89.4875C86.8488 30.3904 86.1186 31.7091 86.1186 33.3338V33.8049V33.8048ZM97.5567 36.3307V32.5151C97.5567 32.4149 97.6385 32.3332 97.7388 32.3332H99.6244C99.7246 32.3332 99.8066 32.2512 99.8066 32.151V30.8079C99.8066 30.7077 99.7246 30.626 99.6244 30.626L93.616 30.626C93.5155 30.626 93.4337 30.7077 93.4337 30.8079V32.151C93.4337 32.2512 93.5155 32.3332 93.616 32.3332H95.4896C95.59 32.3332 95.6718 32.4149 95.6718 32.5151V36.3307C95.6718 36.4309 95.7537 36.5128 95.8541 36.5128H97.3744C97.4747 36.5128 97.5567 36.4309 97.5567 36.3307H97.5567ZM62.9353 11.4429L65.09 8.80853C65.1396 8.74773 65.2184 8.72592 65.2923 8.7523C65.3662 8.77859 65.4132 8.84531 65.4132 8.92374V12.9406C65.4132 13.0409 65.4951 13.1226 65.5955 13.1226H67.3514C67.4517 13.1226 67.5336 13.0409 67.5336 12.9406V5.4165C67.5336 5.31624 67.4517 5.23436 67.3514 5.23436H65.5036C65.4448 5.23436 65.3942 5.25934 65.3586 5.30614L62.8806 8.56104V8.54567L61.9645 9.72691C61.9287 9.77292 61.8786 9.79752 61.8204 9.79752C61.7623 9.79752 61.7122 9.77292 61.6765 9.72691L60.7603 8.54567V8.56104L58.2824 5.30614C58.2468 5.25934 58.1962 5.23436 58.1373 5.23436L56.2895 5.23436C56.1892 5.23436 56.1072 5.31624 56.1072 5.4165V12.9406C56.1072 13.0409 56.1892 13.1226 56.2895 13.1226H58.0454C58.1458 13.1226 58.2277 13.0409 58.2277 12.9406V8.92374C58.2277 8.84531 58.2747 8.77859 58.3486 8.7523C58.4226 8.72592 58.5013 8.74773 58.5509 8.80853L60.7056 11.4429C60.7414 11.4867 60.7901 11.5096 60.8467 11.5096H62.7942C62.8507 11.5096 62.8994 11.4867 62.9352 11.4429H62.9353ZM146.028 12.9406V7.3995C146.028 7.30589 145.958 7.22806 145.865 7.21834C144.832 7.11116 143.662 7.0475 142.577 7.0475H142.318C140.056 7.0475 139.432 7.88337 139.432 8.95488V9.33156C139.432 9.96022 139.641 10.5091 140.281 10.8588C140.327 10.8837 140.357 10.9224 140.37 10.9729C140.383 11.0235 140.376 11.0719 140.348 11.1161L139.401 12.607C139.382 12.6375 139.373 12.6686 139.373 12.7047V12.9406C139.373 13.0409 139.455 13.1226 139.555 13.1226H141.087C141.151 13.1226 141.206 13.0926 141.241 13.0385L142.335 11.3231C142.369 11.2691 142.424 11.239 142.488 11.239H142.577C143.081 11.239 143.613 11.2296 144.14 11.2026C144.192 11.1998 144.238 11.2166 144.275 11.2524C144.313 11.288 144.332 11.3326 144.332 11.3843V12.9406C144.332 13.0409 144.414 13.1226 144.514 13.1226H145.846C145.946 13.1226 146.028 13.0409 146.028 12.9406L146.028 12.9406ZM69.1847 39.4562H70.7051C70.8055 39.4562 70.8873 39.3743 70.8873 39.274V36.7221C70.8873 36.6635 70.9123 36.6129 70.959 36.5772C71.0058 36.5417 71.061 36.5309 71.1178 36.5465C71.5987 36.6785 72.1269 36.7482 72.7249 36.7482C75.3635 36.7482 76.0939 35.4295 76.0939 33.8048V33.3337C76.0939 31.7091 75.3635 30.3904 72.7249 30.3904C71.7402 30.3904 70.9294 30.5752 70.1986 30.9553C70.1412 30.9852 70.0774 30.9834 70.0216 30.9505L69.5167 30.6513C69.4873 30.6339 69.4579 30.626 69.4238 30.626H69.1847C69.0844 30.626 69.0026 30.7077 69.0026 30.8079V39.274C69.0026 39.3743 69.0844 39.4562 69.1847 39.4562ZM68.9536 10.4147C68.9536 12.0396 69.6839 13.3582 72.3226 13.3582H72.6524C75.2911 13.3582 76.0214 12.0396 76.0214 10.4147V9.94387C76.0214 8.31897 75.2911 7.00049 72.6524 7.00049H72.3226C69.6839 7.00049 68.9536 8.31897 68.9536 9.94387V10.4147ZM104.453 35.269C102.957 35.269 102.863 35.0572 102.863 34.7746C102.863 34.5391 102.933 34.2566 104.335 34.2566C105.002 34.2566 105.551 34.3154 106.045 34.4331C106.128 34.4528 106.184 34.5248 106.184 34.6103V34.8857C106.184 34.9685 106.131 35.0386 106.052 35.0612C105.56 35.1998 105.036 35.269 104.453 35.269ZM108.069 32.9732C108.069 31.2895 107.127 30.3829 104.5 30.3829C103.657 30.3829 102.573 30.4769 101.771 30.6454C101.685 30.6634 101.626 30.7366 101.626 30.8236V32.2062C101.626 32.264 101.65 32.3138 101.696 32.3496C101.741 32.3852 101.795 32.3969 101.851 32.3831C102.644 32.1878 103.679 32.0901 104.441 32.0901C105.754 32.0901 106.076 32.3418 106.158 32.7958C106.17 32.8577 106.151 32.9162 106.105 32.9596C106.06 33.0033 106.001 33.0199 105.939 33.0059C105.447 32.8953 104.892 32.8437 104.217 32.8437C101.767 32.8437 100.978 33.656 100.978 34.6451V34.7627C100.978 35.8105 101.708 36.7406 104.253 36.7406C105.297 36.7406 106.111 36.5658 106.875 36.1845C106.932 36.1563 106.993 36.1581 107.048 36.1893L107.556 36.4812C107.585 36.4976 107.613 36.5053 107.647 36.5053H107.887C107.987 36.5053 108.069 36.4233 108.069 36.3231V32.9732L108.069 32.9732Z" fill="url(#paint1_linear_961_3503)"/>
<path fill-rule="evenodd" clip-rule="evenodd" d="M40.9661 40.9907L40.9661 0.00195313L-0.0439453 0.00195312L-0.0439453 20.4963L-0.0439453 40.9907H20.4611L40.9661 40.9907ZM70.8383 10.1794C70.8383 9.41398 70.8383 8.70749 72.4876 8.70749C74.1367 8.70749 74.1367 9.41398 74.1367 10.1794C74.1367 10.9447 74.1367 11.651 72.4876 11.651C70.8383 11.651 70.8383 10.9447 70.8383 10.1794ZM77.6705 11.5568C77.561 11.5568 77.415 11.5515 77.2776 11.5413C77.2251 11.5372 77.1785 11.5535 77.1399 11.5893C77.1014 11.6251 77.0815 11.6703 77.0815 11.7228V13.0062C77.0815 13.0927 77.1403 13.1657 77.2248 13.1842C77.4627 13.2362 77.7495 13.2522 78.0122 13.2522C79.6378 13.2522 80.1444 12.4516 80.2268 10.968L80.3346 9.10289C80.3402 9.00651 80.4199 8.93134 80.5165 8.93134H82.5065C82.6069 8.93134 82.6887 9.01316 82.6887 9.1133V12.9405C82.6887 13.0409 82.7706 13.1226 82.871 13.1226H84.3912C84.4916 13.1226 84.5735 13.0409 84.5735 12.9405V7.41803C84.5735 7.31769 84.4916 7.23579 84.3912 7.23579L78.7844 7.23579C78.6879 7.23579 78.6084 7.31075 78.6026 7.40713L78.4009 10.7562C78.3773 11.2742 78.236 11.5568 77.6705 11.5568L77.6705 11.5568ZM87.9307 10.1794C87.9307 9.41398 87.9307 8.70749 89.5799 8.70749C91.2291 8.70749 91.2291 9.41398 91.2291 10.1794C91.2291 10.9447 91.2291 11.651 89.5799 11.651C87.9307 11.651 87.9307 10.9447 87.9307 10.1794ZM86.046 10.4148C86.046 12.0396 86.7763 13.3582 89.4149 13.3582H89.7448C92.3834 13.3582 93.1138 12.0396 93.1138 10.4148V9.94389C93.1138 8.31899 92.3834 7.00051 89.7448 7.00051H89.4149C86.7763 7.00051 86.046 8.31899 86.046 9.94389V10.4148ZM99.3688 9.11334V11.2924C99.3688 11.3926 99.287 11.4744 99.1866 11.4744H96.9296C96.8712 11.4744 96.8208 11.4496 96.7852 11.4034C96.7495 11.3571 96.7385 11.302 96.7536 11.2455C96.8393 10.9235 96.8883 10.5423 96.9186 10.1087L96.9892 9.10075C96.9959 9.00516 97.0751 8.93139 97.171 8.93139H99.1866C99.287 8.93139 99.3688 9.0132 99.3688 9.11334ZM93.9384 11.6565V15.0597C93.9384 15.1602 94.0202 15.2419 94.1205 15.2419H94.359C94.3936 15.2419 94.4232 15.2337 94.4528 15.216L95.499 14.5886C95.5555 14.5546 95.5875 14.4982 95.5875 14.4324V13.3049C95.5875 13.2044 95.6694 13.1226 95.7697 13.1226H100.353C100.453 13.1226 100.535 13.2044 100.535 13.3049V15.0597C100.535 15.1602 100.617 15.2419 100.717 15.2419H100.956C100.99 15.2419 101.02 15.2337 101.049 15.216L102.096 14.5886C102.152 14.5546 102.184 14.4982 102.184 14.4324V11.6565C102.184 11.5562 102.102 11.4743 102.002 11.4743H101.436C101.335 11.4743 101.254 11.3926 101.254 11.2924V7.41805C101.254 7.31771 101.172 7.23581 101.071 7.23581L95.4626 7.23581C95.3669 7.23581 95.2878 7.30957 95.281 7.40497L95.0809 10.2029C95.0265 10.7798 94.962 11.2056 94.7291 11.425C94.694 11.458 94.6525 11.4744 94.6041 11.4744H94.1205C94.0202 11.4744 93.9384 11.5562 93.9384 11.6565H93.9384ZM106.719 8.47218C107.992 8.47218 108.062 8.80169 108.062 9.02558C108.062 9.23749 107.98 9.47289 106.602 9.47289C106.014 9.47289 105.556 9.42925 105.147 9.34199C105.092 9.33019 105.049 9.29718 105.023 9.24642C104.997 9.19584 104.996 9.14151 105.019 9.08974C105.197 8.69055 105.644 8.4722 106.719 8.4722V8.47218ZM106.602 13.3582C107.445 13.3582 108.529 13.2641 109.331 13.0958C109.416 13.0778 109.476 13.0045 109.476 12.9176V11.5347C109.476 11.477 109.452 11.4272 109.406 11.3915C109.361 11.3559 109.306 11.3441 109.25 11.358C108.455 11.5534 107.407 11.6511 106.731 11.6511C105.393 11.6511 105.026 11.3418 104.925 10.8336C104.913 10.7712 104.931 10.7119 104.977 10.6676C105.022 10.6233 105.082 10.6064 105.144 10.6206C105.609 10.7259 106.122 10.768 106.719 10.768C109.664 10.768 109.947 9.94391 109.947 9.0019V8.88421C109.947 7.84803 109.393 7.00053 106.707 7.00053H106.378C103.739 7.00053 103.009 8.31902 103.009 9.94391V10.4148C103.009 12.0397 103.739 13.3582 106.378 13.3582H106.602V13.3582ZM112.84 13.0383L114.052 11.1348C114.086 11.0808 114.141 11.0504 114.205 11.0504H114.983C115.083 11.0504 115.165 11.1323 115.165 11.2326V12.9406C115.165 13.0409 115.247 13.1226 115.348 13.1226L116.868 13.1226C116.968 13.1226 117.05 13.0409 117.05 12.9406V11.2326C117.05 11.1323 117.132 11.0504 117.232 11.0504H118.01C118.074 11.0504 118.13 11.0808 118.164 11.1348L119.376 13.0383C119.41 13.0925 119.465 13.1226 119.53 13.1226H121.062C121.162 13.1226 121.244 13.0409 121.244 12.9406V12.7046C121.244 12.6686 121.235 12.6375 121.215 12.6071L119.739 10.2766C119.7 10.2158 119.7 10.1428 119.739 10.0818L121.215 7.75149C121.235 7.72098 121.244 7.69011 121.244 7.65393V7.41803C121.244 7.31769 121.162 7.23579 121.062 7.23579H119.53C119.465 7.23579 119.41 7.26624 119.376 7.32026L118.164 9.22368C118.13 9.27772 118.074 9.30805 118.01 9.30805H117.232C117.132 9.30805 117.05 9.22615 117.05 9.12591V7.42863C117.05 7.32868 116.969 7.24719 116.869 7.24659L115.349 7.23697C115.298 7.23676 115.255 7.25444 115.219 7.28994C115.183 7.32533 115.165 7.36887 115.165 7.41911V9.12591C115.165 9.22615 115.083 9.30805 114.983 9.30805H114.205C114.141 9.30805 114.086 9.2777 114.052 9.22368L112.84 7.32026C112.805 7.26622 112.75 7.23579 112.686 7.23579H111.154C111.054 7.23579 110.972 7.31769 110.972 7.41803V7.65393C110.972 7.69011 110.981 7.72098 111 7.75149L112.477 10.0818C112.515 10.1428 112.515 10.2158 112.477 10.2766L111 12.6071C110.981 12.6375 110.972 12.6686 110.972 12.7046V12.9406C110.972 13.0409 111.054 13.1226 111.154 13.1226H112.686C112.75 13.1226 112.805 13.0925 112.84 13.0383ZM122.304 7.41805V12.9406C122.304 13.0409 122.386 13.1226 122.486 13.1226H124.006C124.107 13.1226 124.189 13.0409 124.189 12.9406V11.1856C124.189 11.0853 124.271 11.0034 124.371 11.0034L127.328 11.0034C127.429 11.0034 127.511 11.0853 127.511 11.1856V12.9406C127.511 13.0409 127.592 13.1226 127.693 13.1226H129.213C129.313 13.1226 129.395 13.0409 129.395 12.9406V7.41805C129.395 7.31771 129.313 7.23581 129.213 7.23581H127.693C127.592 7.23581 127.511 7.31771 127.511 7.41805V9.17291C127.511 9.27336 127.429 9.35507 127.328 9.35507L124.371 9.35507C124.271 9.35507 124.189 9.27336 124.189 9.17291V7.41805C124.189 7.31771 124.107 7.23581 124.006 7.23581H122.486C122.386 7.23581 122.304 7.31771 122.304 7.41805ZM134.343 11.8865C132.847 11.8865 132.753 11.6745 132.753 11.3921C132.753 11.1565 132.823 10.874 134.225 10.874C134.892 10.874 135.441 10.9328 135.934 11.0505C136.018 11.0704 136.074 11.1424 136.074 11.2277V11.5032C136.074 11.5861 136.021 11.6561 135.942 11.6786C135.45 11.8172 134.926 11.8865 134.343 11.8865ZM137.959 9.59066C137.959 7.9069 137.017 7.00049 134.39 7.00049C133.547 7.00049 132.463 7.0944 131.66 7.26275C131.575 7.28071 131.516 7.35389 131.516 7.44103V8.82367C131.516 8.88158 131.54 8.93134 131.585 8.96695C131.631 9.00273 131.685 9.01435 131.741 9.00055C132.534 8.80512 133.569 8.70745 134.331 8.70745C135.644 8.70745 135.966 8.9593 136.048 9.41315C136.06 9.47503 136.041 9.53362 135.995 9.57705C135.95 9.62067 135.891 9.63725 135.829 9.62346C135.337 9.5127 134.782 9.46103 134.107 9.46103C131.657 9.46103 130.868 10.2735 130.868 11.2624V11.3801C130.868 12.4281 131.598 13.3582 134.143 13.3582C135.187 13.3582 136.001 13.1831 136.765 12.8018C136.822 12.7736 136.883 12.7754 136.938 12.8068L137.446 13.0986C137.475 13.1151 137.503 13.1226 137.537 13.1226H137.777C137.877 13.1226 137.959 13.0409 137.959 12.9405V9.59064L137.959 9.59066ZM142.518 9.73196C141.352 9.73196 141.293 9.44925 141.293 9.14325C141.293 8.83706 141.352 8.55445 142.518 8.55445C142.97 8.55445 143.57 8.57419 144.165 8.62258C144.259 8.63031 144.332 8.70895 144.332 8.80394V9.48225C144.332 9.57743 144.259 9.65609 144.165 9.66381C143.57 9.71219 142.97 9.73192 142.518 9.73192V9.73196ZM60.7603 17.1116L60.7603 22.7519C60.7603 22.8521 60.6785 22.934 60.5781 22.934H58.4099C58.3096 22.934 58.2278 22.8521 58.2278 22.7519L58.2278 17.1116C58.2278 17.0112 58.1458 16.9293 58.0455 16.9293H56.2896C56.1893 16.9293 56.1073 17.0112 56.1073 17.1116L56.1073 24.6356C56.1073 24.7358 56.1893 24.8178 56.2896 24.8178H67.3515C67.4518 24.8178 67.5336 24.7358 67.5336 24.6356V17.1116C67.5336 17.0112 67.4518 16.9293 67.3515 16.9293H65.5955C65.4952 16.9293 65.4134 17.0112 65.4134 17.1116V22.7519C65.4134 22.8521 65.3315 22.934 65.2311 22.934H63.0629C62.9626 22.934 62.8807 22.8521 62.8807 22.7519L62.8807 17.1116C62.8807 17.0112 62.7989 16.9293 62.6985 16.9293H60.9426C60.8422 16.9293 60.7604 17.0112 60.7604 17.1116H60.7603ZM75.968 24.6356V24.3997C75.968 24.3635 75.959 24.3326 75.9397 24.3021L74.463 21.9717C74.4244 21.9107 74.4244 21.8378 74.463 21.7769L75.9397 19.4465C75.959 19.416 75.968 19.385 75.968 19.3489V19.113C75.968 19.0127 75.8861 18.9309 75.7857 18.9309H74.2539C74.1898 18.9309 74.1346 18.9611 74.1002 19.0152L72.8883 20.9188C72.8538 20.9728 72.7987 21.003 72.7345 21.003H71.132C71.0316 21.003 70.9498 20.9212 70.9498 20.821V19.1236C70.9498 19.0238 70.8687 18.9422 70.7687 18.9416L69.2484 18.9321C69.1981 18.9317 69.1546 18.9495 69.1189 18.9849C69.0831 19.0204 69.065 19.0639 69.065 19.1142V24.6355C69.065 24.7358 69.1469 24.8178 69.2473 24.8178H70.7676C70.8679 24.8178 70.9498 24.7358 70.9498 24.6355V22.9277C70.9498 22.8274 71.0316 22.7455 71.132 22.7455H72.7345C72.7987 22.7455 72.8538 22.7759 72.8883 22.8299L74.1002 24.7333C74.1346 24.7873 74.1898 24.8178 74.2539 24.8178H75.7857C75.8861 24.8178 75.968 24.7358 75.968 24.6355V24.6356ZM78.7951 21.8742C78.7951 21.109 78.7951 20.4026 80.4443 20.4026C82.0934 20.4026 82.0934 21.109 82.0934 21.8742C82.0934 22.6396 82.0934 23.346 80.4443 23.346C78.7951 23.346 78.7951 22.6396 78.7951 21.8742ZM76.9103 22.1098C76.9103 23.7346 77.6407 25.0531 80.2793 25.0531H80.6092C83.2478 25.0531 83.9782 23.7346 83.9782 22.1098V21.6389C83.9782 20.014 83.2478 18.6954 80.6092 18.6954H80.2793C77.6407 18.6954 76.9103 20.014 76.9103 21.6389V22.1098ZM85.6273 23.2517C85.5178 23.2517 85.3717 23.2467 85.2342 23.2362C85.1818 23.2323 85.1352 23.2484 85.0966 23.2843C85.058 23.3199 85.0383 23.3652 85.0383 23.4177V24.7013C85.0383 24.7878 85.097 24.8607 85.1815 24.8791C85.4194 24.9311 85.7063 24.9473 85.9689 24.9473C87.5945 24.9473 88.101 24.1467 88.1834 22.6632L88.2914 20.7978C88.297 20.7015 88.3766 20.6262 88.4732 20.6262H90.4632C90.5636 20.6262 90.6455 20.7081 90.6455 20.8085V24.6355C90.6455 24.7358 90.7273 24.8178 90.8276 24.8178H92.348C92.4484 24.8178 92.5302 24.7358 92.5302 24.6355V19.113C92.5302 19.0127 92.4484 18.9309 92.348 18.9309H86.7412C86.6446 18.9309 86.5652 19.0058 86.5593 19.102L86.3576 22.4511C86.334 22.9691 86.1927 23.2517 85.6273 23.2517L85.6273 23.2517ZM97.4777 23.5814C95.9817 23.5814 95.8874 23.3696 95.8874 23.087C95.8874 22.8515 95.9581 22.569 97.3599 22.569C98.0266 22.569 98.5755 22.6278 99.0694 22.7455C99.1524 22.7653 99.2093 22.8372 99.2093 22.9227V23.1982C99.2093 23.281 99.1562 23.3511 99.0766 23.3736C98.5849 23.5122 98.061 23.5814 97.4777 23.5814ZM101.094 21.2856C101.094 19.602 100.152 18.6954 97.5249 18.6954C96.6814 18.6954 95.5977 18.7894 94.7954 18.9578C94.7101 18.9758 94.6505 19.0491 94.6505 19.136V20.5187C94.6505 20.5765 94.6749 20.6262 94.7204 20.662C94.7659 20.6976 94.8202 20.7093 94.8763 20.6955C95.6691 20.5002 96.7042 20.4025 97.466 20.4025C98.7785 20.4025 99.1007 20.6543 99.1833 21.1082C99.1946 21.1701 99.1757 21.2286 99.1302 21.272C99.0847 21.3158 99.0255 21.3323 98.9641 21.3183C98.4714 21.2078 97.917 21.1561 97.2421 21.1561C94.7919 21.1561 94.0027 21.9684 94.0027 22.9575V23.0752C94.0027 24.123 94.733 25.053 97.2775 25.053C98.3217 25.053 99.1363 24.8782 99.9003 24.4969C99.9566 24.4687 100.018 24.4705 100.072 24.5018L100.581 24.7936C100.61 24.81 100.638 24.8178 100.671 24.8178H100.912C101.012 24.8178 101.094 24.7358 101.094 24.6355V21.2856L101.094 21.2856ZM60.9189 32.5685C60.9189 31.3794 60.9189 30.2844 63.157 30.2844C65.3952 30.2844 65.3952 31.3794 65.3952 32.5685C65.3952 33.7695 65.3952 34.8645 63.157 34.8645C60.9189 34.8645 60.9189 33.7695 60.9189 32.5685ZM56.1073 28.8066V36.3307C56.1073 36.4309 56.1892 36.5128 56.2895 36.5128H58.0455C58.1458 36.5128 58.2278 36.4309 58.2278 36.3307V33.7515C58.2278 33.6512 58.3096 33.5693 58.4099 33.5693H58.6722C58.764 33.5693 58.8405 33.6363 58.8528 33.7271C59.0849 35.4505 60.1437 36.7482 62.945 36.7482H63.369C66.6085 36.7482 67.5154 35.0056 67.5154 32.8748V32.2625C67.5154 30.1314 66.6084 28.3889 63.369 28.3889H62.945C60.0856 28.3889 59.0474 29.7432 58.8386 31.5246C58.8278 31.6168 58.7506 31.6856 58.6577 31.6856H58.4099C58.3096 31.6856 58.2278 31.6037 58.2278 31.5034V28.8066C58.2278 28.7061 58.1458 28.6244 58.0455 28.6244H56.2895C56.1892 28.6244 56.1073 28.7061 56.1073 28.8066V28.8066ZM72.619 32.0977C74.2092 32.0977 74.2092 32.8041 74.2092 33.5692C74.2092 34.3345 74.2092 35.041 72.619 35.041C72.0256 35.041 71.5014 34.9718 71.0193 34.8337C70.94 34.811 70.8873 34.741 70.8873 34.6587V32.4916C70.8873 32.4093 70.9396 32.3395 71.0187 32.3166C71.5009 32.1767 72.0254 32.0976 72.619 32.0976V32.0977ZM82.7071 30.6853L79.768 33.9051C79.7163 33.9618 79.6391 33.98 79.5675 33.9522C79.496 33.9244 79.4512 33.859 79.4512 33.7823V30.8079C79.4512 30.7077 79.3693 30.626 79.269 30.626H77.7486C77.6483 30.626 77.5665 30.7077 77.5665 30.8079V36.3307C77.5665 36.4309 77.6483 36.5128 77.7486 36.5128H79.3708C79.424 36.5128 79.4696 36.4926 79.5054 36.4534L82.4445 33.2335C82.4962 33.177 82.5734 33.1588 82.645 33.1865C82.7166 33.2143 82.7613 33.2796 82.7613 33.3564V36.3307C82.7613 36.4309 82.8432 36.5128 82.9435 36.5128H84.4639C84.5642 36.5128 84.646 36.4309 84.646 36.3307V30.8079C84.646 30.7077 84.5642 30.626 84.4639 30.626H82.8417C82.7886 30.626 82.7429 30.646 82.7071 30.6853ZM86.1186 33.8048C86.1186 35.4295 86.8488 36.7482 89.4875 36.7482H89.8173C90.6136 36.7482 91.3786 36.6549 92.1028 36.4876C92.1864 36.4682 92.2439 36.396 92.2439 36.3101V34.9366C92.2439 34.8787 92.2196 34.8288 92.1739 34.7931C92.1281 34.7574 92.0738 34.7459 92.0174 34.7601C91.2104 34.9623 90.3624 35.0411 89.7703 35.0411C88.0032 35.0411 88.0032 34.417 88.0032 33.5693C88.0032 32.7216 88.0032 32.0977 89.7703 32.0977C90.3624 32.0977 91.2104 32.1764 92.0174 32.3787C92.0738 32.3927 92.1281 32.3813 92.1739 32.3455C92.2196 32.3099 92.2439 32.26 92.2439 32.202V30.8286C92.2439 30.7428 92.1864 30.6705 92.1028 30.6513C91.3786 30.484 90.6135 30.3904 89.8173 30.3904H89.4875C86.8488 30.3904 86.1186 31.7091 86.1186 33.3338V33.8049V33.8048ZM97.5567 36.3307V32.5151C97.5567 32.4149 97.6385 32.3332 97.7388 32.3332H99.6244C99.7246 32.3332 99.8066 32.2512 99.8066 32.151V30.8079C99.8066 30.7077 99.7246 30.626 99.6244 30.626L93.616 30.626C93.5155 30.626 93.4337 30.7077 93.4337 30.8079V32.151C93.4337 32.2512 93.5155 32.3332 93.616 32.3332H95.4896C95.59 32.3332 95.6718 32.4149 95.6718 32.5151V36.3307C95.6718 36.4309 95.7537 36.5128 95.8541 36.5128H97.3744C97.4747 36.5128 97.5567 36.4309 97.5567 36.3307H97.5567ZM62.9353 11.4429L65.09 8.80853C65.1396 8.74773 65.2184 8.72592 65.2923 8.7523C65.3662 8.77859 65.4132 8.84531 65.4132 8.92374V12.9406C65.4132 13.0409 65.4951 13.1226 65.5955 13.1226H67.3514C67.4517 13.1226 67.5336 13.0409 67.5336 12.9406V5.4165C67.5336 5.31624 67.4517 5.23436 67.3514 5.23436H65.5036C65.4448 5.23436 65.3942 5.25934 65.3586 5.30614L62.8806 8.56104V8.54567L61.9645 9.72691C61.9287 9.77292 61.8786 9.79752 61.8204 9.79752C61.7623 9.79752 61.7122 9.77292 61.6765 9.72691L60.7603 8.54567V8.56104L58.2824 5.30614C58.2468 5.25934 58.1962 5.23436 58.1373 5.23436L56.2895 5.23436C56.1892 5.23436 56.1072 5.31624 56.1072 5.4165V12.9406C56.1072 13.0409 56.1892 13.1226 56.2895 13.1226H58.0454C58.1458 13.1226 58.2277 13.0409 58.2277 12.9406V8.92374C58.2277 8.84531 58.2747 8.77859 58.3486 8.7523C58.4226 8.72592 58.5013 8.74773 58.5509 8.80853L60.7056 11.4429C60.7414 11.4867 60.7901 11.5096 60.8467 11.5096H62.7942C62.8507 11.5096 62.8994 11.4867 62.9352 11.4429H62.9353ZM146.028 12.9406V7.3995C146.028 7.30589 145.958 7.22806 145.865 7.21834C144.832 7.11116 143.662 7.0475 142.577 7.0475H142.318C140.056 7.0475 139.432 7.88337 139.432 8.95488V9.33156C139.432 9.96022 139.641 10.5091 140.281 10.8588C140.327 10.8837 140.357 10.9224 140.37 10.9729C140.383 11.0235 140.376 11.0719 140.348 11.1161L139.401 12.607C139.382 12.6375 139.373 12.6686 139.373 12.7047V12.9406C139.373 13.0409 139.455 13.1226 139.555 13.1226H141.087C141.151 13.1226 141.206 13.0926 141.241 13.0385L142.335 11.3231C142.369 11.2691 142.424 11.239 142.488 11.239H142.577C143.081 11.239 143.613 11.2296 144.14 11.2026C144.192 11.1998 144.238 11.2166 144.275 11.2524C144.313 11.288 144.332 11.3326 144.332 11.3843V12.9406C144.332 13.0409 144.414 13.1226 144.514 13.1226H145.846C145.946 13.1226 146.028 13.0409 146.028 12.9406L146.028 12.9406ZM69.1847 39.4562H70.7051C70.8055 39.4562 70.8873 39.3743 70.8873 39.274V36.7221C70.8873 36.6635 70.9123 36.6129 70.959 36.5772C71.0058 36.5417 71.061 36.5309 71.1178 36.5465C71.5987 36.6785 72.1269 36.7482 72.7249 36.7482C75.3635 36.7482 76.0939 35.4295 76.0939 33.8048V33.3337C76.0939 31.7091 75.3635 30.3904 72.7249 30.3904C71.7402 30.3904 70.9294 30.5752 70.1986 30.9553C70.1412 30.9852 70.0774 30.9834 70.0216 30.9505L69.5167 30.6513C69.4873 30.6339 69.4579 30.626 69.4238 30.626H69.1847C69.0844 30.626 69.0026 30.7077 69.0026 30.8079V39.274C69.0026 39.3743 69.0844 39.4562 69.1847 39.4562ZM68.9536 10.4147C68.9536 12.0396 69.6839 13.3582 72.3226 13.3582H72.6524C75.2911 13.3582 76.0214 12.0396 76.0214 10.4147V9.94387C76.0214 8.31897 75.2911 7.00049 72.6524 7.00049H72.3226C69.6839 7.00049 68.9536 8.31897 68.9536 9.94387V10.4147ZM104.453 35.269C102.957 35.269 102.863 35.0572 102.863 34.7746C102.863 34.5391 102.933 34.2566 104.335 34.2566C105.002 34.2566 105.551 34.3154 106.045 34.4331C106.128 34.4528 106.184 34.5248 106.184 34.6103V34.8857C106.184 34.9685 106.131 35.0386 106.052 35.0612C105.56 35.1998 105.036 35.269 104.453 35.269ZM108.069 32.9732C108.069 31.2895 107.127 30.3829 104.5 30.3829C103.657 30.3829 102.573 30.4769 101.771 30.6454C101.685 30.6634 101.626 30.7366 101.626 30.8236V32.2062C101.626 32.264 101.65 32.3138 101.696 32.3496C101.741 32.3852 101.795 32.3969 101.851 32.3831C102.644 32.1878 103.679 32.0901 104.441 32.0901C105.754 32.0901 106.076 32.3418 106.158 32.7958C106.17 32.8577 106.151 32.9162 106.105 32.9596C106.06 33.0033 106.001 33.0199 105.939 33.0059C105.447 32.8953 104.892 32.8437 104.217 32.8437C101.767 32.8437 100.978 33.656 100.978 34.6451V34.7627C100.978 35.8105 101.708 36.7406 104.253 36.7406C105.297 36.7406 106.111 36.5658 106.875 36.1845C106.932 36.1563 106.993 36.1581 107.048 36.1893L107.556 36.4812C107.585 36.4976 107.613 36.5053 107.647 36.5053H107.887C107.987 36.5053 108.069 36.4233 108.069 36.3231V32.9732L108.069 32.9732Z" fill="white"/>
<path fill-rule="evenodd" clip-rule="evenodd" d="M26.9208 21.1529L28.1834 19.6092C28.2126 19.5736 28.2587 19.5606 28.3019 19.5762C28.3453 19.5917 28.3729 19.6307 28.3729 19.6766V22.0307C28.3729 22.0894 28.4209 22.1374 28.4796 22.1374H29.5087C29.5675 22.1374 29.6154 22.0894 29.6154 22.0307V17.6213C29.6154 17.5626 29.5675 17.5146 29.5087 17.5146H28.4259C28.3913 17.5146 28.3617 17.5292 28.3408 17.5567L26.8887 19.4642V19.4552L26.3518 20.1474C26.3309 20.1743 26.3015 20.1887 26.2674 20.1887C26.2334 20.1887 26.204 20.1743 26.1831 20.1474L25.6462 19.4552V19.4642L24.1941 17.5567C24.1731 17.5292 24.1436 17.5146 24.109 17.5146H23.0262C22.9674 17.5146 22.9195 17.5626 22.9195 17.6213V22.0307C22.9195 22.0894 22.9674 22.1374 23.0262 22.1374H24.0552C24.114 22.1374 24.162 22.0894 24.162 22.0307V19.6766C24.162 19.6307 24.1896 19.5917 24.2329 19.5762C24.2762 19.5606 24.3223 19.5736 24.3514 19.6092L25.6141 21.1529C25.6351 21.1785 25.6636 21.1921 25.6967 21.1921H26.838C26.8712 21.1921 26.8997 21.1785 26.9207 21.1529H26.9208ZM22.9195 31.3284V35.7376C22.9195 35.7965 22.9674 35.8444 23.0262 35.8444H24.0552C24.114 35.8444 24.162 35.7965 24.162 35.7376V34.2261C24.162 34.1673 24.2099 34.1194 24.2688 34.1194H24.4224C24.4763 34.1194 24.521 34.1587 24.5283 34.212C24.6643 35.2219 25.2848 35.9823 26.9264 35.9823H27.1749C29.0733 35.9823 29.6048 34.9612 29.6048 33.7125V33.3535C29.6048 32.1048 29.0733 31.0836 27.1749 31.0836H26.9264C25.2507 31.0836 24.6423 31.8772 24.5199 32.9211C24.5137 32.9751 24.4683 33.0156 24.414 33.0156H24.2688C24.2099 33.0156 24.162 32.9676 24.162 32.9088V31.3284C24.162 31.2696 24.114 31.2216 24.0552 31.2216H23.0262C22.9674 31.2216 22.9194 31.2696 22.9194 31.3284L22.9195 31.3284ZM25.739 33.5329C25.739 32.8361 25.739 32.1944 27.0507 32.1944C28.3623 32.1944 28.3623 32.8361 28.3623 33.5329C28.3623 34.2367 28.3623 34.8784 27.0507 34.8784C25.739 34.8784 25.739 34.2367 25.739 33.5329ZM25.6462 24.4749V27.7802C25.6462 27.839 25.5982 27.8869 25.5394 27.8869H24.2688C24.21 27.8869 24.1621 27.839 24.1621 27.7802V24.4749C24.1621 24.4161 24.114 24.3681 24.0552 24.3681H23.0262C22.9674 24.3681 22.9195 24.4161 22.9195 24.4749L22.9195 28.8842C22.9195 28.9429 22.9674 28.9909 23.0262 28.9909H29.5087C29.5676 28.9909 29.6155 28.9429 29.6155 28.8842V24.4749C29.6155 24.4161 29.5676 24.3681 29.5087 24.3681H28.4797C28.4209 24.3681 28.3729 24.4161 28.3729 24.4749V27.7802C28.3729 27.839 28.325 27.8869 28.2662 27.8869H26.9955C26.9367 27.8869 26.8888 27.839 26.8888 27.7802V24.4749C26.8888 24.4161 26.8408 24.3681 26.782 24.3681H25.7529C25.6941 24.3681 25.6462 24.4161 25.6462 24.4749H25.6462Z" fill="white"/>
<path d="M18.8362 7.87766C19.1363 7.8742 19.3827 8.11466 19.3862 8.41461C19.3896 8.71455 19.1491 8.96075 18.8489 8.96424C18.6628 8.96702 18.4825 9.03118 18.319 9.12617L18.3195 9.12706C18.0855 9.2635 17.8928 9.45584 17.7574 9.63423C17.5183 9.94915 17.413 10.3162 17.4197 10.6855C17.4253 10.9963 17.5102 11.3107 17.6613 11.5995C17.815 11.8932 18.0361 12.159 18.3113 12.3678C18.6991 12.662 19.1976 12.8438 19.7709 12.8334C20.4837 12.8205 21.2327 12.4799 21.7827 11.8826C22.2708 11.3525 22.5974 10.617 22.5974 9.72398C22.5974 8.7085 22.1391 7.79063 21.4035 7.12044C20.6445 6.42901 19.5949 5.99868 18.445 5.98717V5.98916L-0.0439453 5.98916L-0.0439453 4.89844L18.445 4.89844V4.90051H18.4492C19.8795 4.91352 21.1881 5.45084 22.1367 6.31508C23.0929 7.18628 23.6887 8.38755 23.6887 9.72398C23.6887 10.913 23.246 11.9009 22.5841 12.6197C21.8324 13.436 20.7911 13.9018 19.788 13.9199C18.9561 13.935 18.2269 13.6667 17.6548 13.2326C17.2494 12.925 16.9241 12.534 16.698 12.1022C16.4698 11.6657 16.3413 11.1847 16.3326 10.7025C16.3217 10.1012 16.4961 9.49957 16.8921 8.97799C17.1041 8.69876 17.4051 8.39814 17.7697 8.18543H17.7718C18.0807 8.00547 18.4389 7.88352 18.8363 7.87764L18.8362 7.87766Z" fill="white"/>
<path d="M15.5803 16.3782C15.8782 16.3336 16.1559 16.5386 16.2006 16.8363C16.2452 17.1339 16.0401 17.4116 15.7422 17.4562C15.3499 17.5155 15.0303 17.6605 14.818 17.9209C14.5882 18.2029 14.4544 18.6374 14.4482 19.2643H14.4502L14.4502 40.9911H13.3589L13.3589 19.2643H13.361V19.26C13.3692 18.3639 13.591 17.7049 13.974 17.235C14.3751 16.7429 14.9272 16.4768 15.5803 16.3781V16.3782Z" fill="white"/>
<path d="M3.13528 40.9913L3.13528 17.7319C3.13528 17.4307 3.37963 17.1865 3.6809 17.1865C3.98219 17.1865 4.22654 17.4307 4.22654 17.7319L4.22654 40.9913H3.13525H3.13528Z" fill="white"/>
<path d="M-0.0439453 14.0537L16.2681 14.0537C16.5694 14.0537 16.8137 14.298 16.8137 14.5991C16.8137 14.9002 16.5694 15.1444 16.2681 15.1444L-0.0439453 15.1444L-0.0439453 14.0537V14.0537Z" fill="white"/>
<path d="M8.24709 40.9913L8.24709 17.7319C8.24709 17.4307 8.49144 17.1865 8.79274 17.1865C9.09401 17.1865 9.33836 17.4307 9.33836 17.7319L9.33836 40.9913H8.24707H8.24709Z" fill="white"/>
<path d="M-0.0439453 8.33693L15.0272 8.33693C15.3285 8.33693 15.5728 8.58114 15.5728 8.88228C15.5728 9.18341 15.3285 9.42764 15.0272 9.42764L-0.0439453 9.42764L-0.0439453 8.33691V8.33693Z" fill="white"/>
<path fill-rule="evenodd" clip-rule="evenodd" d="M26.9208 21.1529L28.1834 19.6092C28.2126 19.5736 28.2587 19.5606 28.3019 19.5762C28.3453 19.5917 28.3729 19.6307 28.3729 19.6766V22.0307C28.3729 22.0894 28.4209 22.1374 28.4796 22.1374H29.5087C29.5675 22.1374 29.6154 22.0894 29.6154 22.0307V17.6213C29.6154 17.5626 29.5675 17.5146 29.5087 17.5146H28.4259C28.3913 17.5146 28.3617 17.5292 28.3408 17.5567L26.8887 19.4642V19.4552L26.3518 20.1474C26.3309 20.1743 26.3015 20.1887 26.2674 20.1887C26.2334 20.1887 26.204 20.1743 26.1831 20.1474L25.6462 19.4552V19.4642L24.1941 17.5567C24.1731 17.5292 24.1436 17.5146 24.109 17.5146H23.0262C22.9674 17.5146 22.9195 17.5626 22.9195 17.6213V22.0307C22.9195 22.0894 22.9674 22.1374 23.0262 22.1374H24.0552C24.114 22.1374 24.162 22.0894 24.162 22.0307V19.6766C24.162 19.6307 24.1896 19.5917 24.2329 19.5762C24.2762 19.5606 24.3223 19.5736 24.3514 19.6092L25.6141 21.1529C25.6351 21.1785 25.6636 21.1921 25.6967 21.1921H26.838C26.8712 21.1921 26.8997 21.1785 26.9207 21.1529H26.9208ZM22.9195 31.3284V35.7376C22.9195 35.7965 22.9674 35.8444 23.0262 35.8444H24.0552C24.114 35.8444 24.162 35.7965 24.162 35.7376V34.2261C24.162 34.1673 24.2099 34.1194 24.2688 34.1194H24.4224C24.4763 34.1194 24.521 34.1587 24.5283 34.212C24.6643 35.2219 25.2848 35.9823 26.9264 35.9823H27.1749C29.0733 35.9823 29.6048 34.9612 29.6048 33.7125V33.3535C29.6048 32.1048 29.0733 31.0836 27.1749 31.0836H26.9264C25.2507 31.0836 24.6423 31.8772 24.5199 32.9211C24.5137 32.9751 24.4683 33.0156 24.414 33.0156H24.2688C24.2099 33.0156 24.162 32.9676 24.162 32.9088V31.3284C24.162 31.2696 24.114 31.2216 24.0552 31.2216H23.0262C22.9674 31.2216 22.9194 31.2696 22.9194 31.3284L22.9195 31.3284ZM25.739 33.5329C25.739 32.8361 25.739 32.1944 27.0507 32.1944C28.3623 32.1944 28.3623 32.8361 28.3623 33.5329C28.3623 34.2367 28.3623 34.8784 27.0507 34.8784C25.739 34.8784 25.739 34.2367 25.739 33.5329ZM25.6462 24.4749V27.7802C25.6462 27.839 25.5982 27.8869 25.5394 27.8869H24.2688C24.21 27.8869 24.1621 27.839 24.1621 27.7802V24.4749C24.1621 24.4161 24.114 24.3681 24.0552 24.3681H23.0262C22.9674 24.3681 22.9195 24.4161 22.9195 24.4749L22.9195 28.8842C22.9195 28.9429 22.9674 28.9909 23.0262 28.9909H29.5087C29.5676 28.9909 29.6155 28.9429 29.6155 28.8842V24.4749C29.6155 24.4161 29.5676 24.3681 29.5087 24.3681H28.4797C28.4209 24.3681 28.3729 24.4161 28.3729 24.4749V27.7802C28.3729 27.839 28.325 27.8869 28.2662 27.8869H26.9955C26.9367 27.8869 26.8888 27.839 26.8888 27.7802V24.4749C26.8888 24.4161 26.8408 24.3681 26.782 24.3681H25.7529C25.6941 24.3681 25.6462 24.4161 25.6462 24.4749H25.6462Z" fill="white"/>
<path fill-rule="evenodd" clip-rule="evenodd" d="M26.9208 21.1529L28.1834 19.6092C28.2126 19.5736 28.2587 19.5606 28.3019 19.5762C28.3453 19.5917 28.3729 19.6307 28.3729 19.6766V22.0307C28.3729 22.0894 28.4209 22.1374 28.4796 22.1374H29.5087C29.5675 22.1374 29.6154 22.0894 29.6154 22.0307V17.6213C29.6154 17.5626 29.5675 17.5146 29.5087 17.5146H28.4259C28.3913 17.5146 28.3617 17.5292 28.3408 17.5567L26.8887 19.4642V19.4552L26.3518 20.1474C26.3309 20.1743 26.3015 20.1887 26.2674 20.1887C26.2334 20.1887 26.204 20.1743 26.1831 20.1474L25.6462 19.4552V19.4642L24.1941 17.5567C24.1731 17.5292 24.1436 17.5146 24.109 17.5146H23.0262C22.9674 17.5146 22.9195 17.5626 22.9195 17.6213V22.0307C22.9195 22.0894 22.9674 22.1374 23.0262 22.1374H24.0552C24.114 22.1374 24.162 22.0894 24.162 22.0307V19.6766C24.162 19.6307 24.1896 19.5917 24.2329 19.5762C24.2762 19.5606 24.3223 19.5736 24.3514 19.6092L25.6141 21.1529C25.6351 21.1785 25.6636 21.1921 25.6967 21.1921H26.838C26.8712 21.1921 26.8997 21.1785 26.9207 21.1529H26.9208ZM22.9195 31.3284V35.7376C22.9195 35.7965 22.9674 35.8444 23.0262 35.8444H24.0552C24.114 35.8444 24.162 35.7965 24.162 35.7376V34.2261C24.162 34.1673 24.2099 34.1194 24.2688 34.1194H24.4224C24.4763 34.1194 24.521 34.1587 24.5283 34.212C24.6643 35.2219 25.2848 35.9823 26.9264 35.9823H27.1749C29.0733 35.9823 29.6048 34.9612 29.6048 33.7125V33.3535C29.6048 32.1048 29.0733 31.0836 27.1749 31.0836H26.9264C25.2507 31.0836 24.6423 31.8772 24.5199 32.9211C24.5137 32.9751 24.4683 33.0156 24.414 33.0156H24.2688C24.2099 33.0156 24.162 32.9676 24.162 32.9088V31.3284C24.162 31.2696 24.114 31.2216 24.0552 31.2216H23.0262C22.9674 31.2216 22.9194 31.2696 22.9194 31.3284L22.9195 31.3284ZM25.739 33.5329C25.739 32.8361 25.739 32.1944 27.0507 32.1944C28.3623 32.1944 28.3623 32.8361 28.3623 33.5329C28.3623 34.2367 28.3623 34.8784 27.0507 34.8784C25.739 34.8784 25.739 34.2367 25.739 33.5329ZM25.6462 24.4749V27.7802C25.6462 27.839 25.5982 27.8869 25.5394 27.8869H24.2688C24.21 27.8869 24.1621 27.839 24.1621 27.7802V24.4749C24.1621 24.4161 24.114 24.3681 24.0552 24.3681H23.0262C22.9674 24.3681 22.9195 24.4161 22.9195 24.4749L22.9195 28.8842C22.9195 28.9429 22.9674 28.9909 23.0262 28.9909H29.5087C29.5676 28.9909 29.6155 28.9429 29.6155 28.8842V24.4749C29.6155 24.4161 29.5676 24.3681 29.5087 24.3681H28.4797C28.4209 24.3681 28.3729 24.4161 28.3729 24.4749V27.7802C28.3729 27.839 28.325 27.8869 28.2662 27.8869H26.9955C26.9367 27.8869 26.8888 27.839 26.8888 27.7802V24.4749C26.8888 24.4161 26.8408 24.3681 26.782 24.3681H25.7529C25.6941 24.3681 25.6462 24.4161 25.6462 24.4749H25.6462Z" fill="black" fill-opacity="0.2"/>
<path fill-rule="evenodd" clip-rule="evenodd" d="M26.9208 21.1529L28.1834 19.6092C28.2126 19.5736 28.2587 19.5606 28.3019 19.5762C28.3453 19.5917 28.3729 19.6307 28.3729 19.6766V22.0307C28.3729 22.0894 28.4209 22.1374 28.4796 22.1374H29.5087C29.5675 22.1374 29.6154 22.0894 29.6154 22.0307V17.6213C29.6154 17.5626 29.5675 17.5146 29.5087 17.5146H28.4259C28.3913 17.5146 28.3617 17.5292 28.3408 17.5567L26.8887 19.4642V19.4552L26.3518 20.1474C26.3309 20.1743 26.3015 20.1887 26.2674 20.1887C26.2334 20.1887 26.204 20.1743 26.1831 20.1474L25.6462 19.4552V19.4642L24.1941 17.5567C24.1731 17.5292 24.1436 17.5146 24.109 17.5146H23.0262C22.9674 17.5146 22.9195 17.5626 22.9195 17.6213V22.0307C22.9195 22.0894 22.9674 22.1374 23.0262 22.1374H24.0552C24.114 22.1374 24.162 22.0894 24.162 22.0307V19.6766C24.162 19.6307 24.1896 19.5917 24.2329 19.5762C24.2762 19.5606 24.3223 19.5736 24.3514 19.6092L25.6141 21.1529C25.6351 21.1785 25.6636 21.1921 25.6967 21.1921H26.838C26.8712 21.1921 26.8997 21.1785 26.9207 21.1529H26.9208ZM22.9195 31.3284V35.7376C22.9195 35.7965 22.9674 35.8444 23.0262 35.8444H24.0552C24.114 35.8444 24.162 35.7965 24.162 35.7376V34.2261C24.162 34.1673 24.2099 34.1194 24.2688 34.1194H24.4224C24.4763 34.1194 24.521 34.1587 24.5283 34.212C24.6643 35.2219 25.2848 35.9823 26.9264 35.9823H27.1749C29.0733 35.9823 29.6048 34.9612 29.6048 33.7125V33.3535C29.6048 32.1048 29.0733 31.0836 27.1749 31.0836H26.9264C25.2507 31.0836 24.6423 31.8772 24.5199 32.9211C24.5137 32.9751 24.4683 33.0156 24.414 33.0156H24.2688C24.2099 33.0156 24.162 32.9676 24.162 32.9088V31.3284C24.162 31.2696 24.114 31.2216 24.0552 31.2216H23.0262C22.9674 31.2216 22.9194 31.2696 22.9194 31.3284L22.9195 31.3284ZM25.739 33.5329C25.739 32.8361 25.739 32.1944 27.0507 32.1944C28.3623 32.1944 28.3623 32.8361 28.3623 33.5329C28.3623 34.2367 28.3623 34.8784 27.0507 34.8784C25.739 34.8784 25.739 34.2367 25.739 33.5329ZM25.6462 24.4749V27.7802C25.6462 27.839 25.5982 27.8869 25.5394 27.8869H24.2688C24.21 27.8869 24.1621 27.839 24.1621 27.7802V24.4749C24.1621 24.4161 24.114 24.3681 24.0552 24.3681H23.0262C22.9674 24.3681 22.9195 24.4161 22.9195 24.4749L22.9195 28.8842C22.9195 28.9429 22.9674 28.9909 23.0262 28.9909H29.5087C29.5676 28.9909 29.6155 28.9429 29.6155 28.8842V24.4749C29.6155 24.4161 29.5676 24.3681 29.5087 24.3681H28.4797C28.4209 24.3681 28.3729 24.4161 28.3729 24.4749V27.7802C28.3729 27.839 28.325 27.8869 28.2662 27.8869H26.9955C26.9367 27.8869 26.8888 27.839 26.8888 27.7802V24.4749C26.8888 24.4161 26.8408 24.3681 26.782 24.3681H25.7529C25.6941 24.3681 25.6462 24.4161 25.6462 24.4749H25.6462Z" fill="url(#paint2_linear_961_3503)"/>
<path d="M18.8362 7.87766C19.1363 7.8742 19.3827 8.11466 19.3862 8.41461C19.3896 8.71455 19.1491 8.96075 18.8489 8.96424C18.6628 8.96702 18.4825 9.03118 18.319 9.12617L18.3195 9.12706C18.0855 9.2635 17.8928 9.45584 17.7574 9.63423C17.5183 9.94915 17.413 10.3162 17.4197 10.6855C17.4253 10.9963 17.5102 11.3107 17.6613 11.5995C17.815 11.8932 18.0361 12.159 18.3113 12.3678C18.6991 12.662 19.1976 12.8438 19.7709 12.8334C20.4837 12.8205 21.2327 12.4799 21.7827 11.8826C22.2708 11.3525 22.5974 10.617 22.5974 9.72398C22.5974 8.7085 22.1391 7.79063 21.4035 7.12044C20.6445 6.42901 19.5949 5.99868 18.445 5.98717V5.98916L-0.0439453 5.98916L-0.0439453 4.89844L18.445 4.89844V4.90051H18.4492C19.8795 4.91352 21.1881 5.45084 22.1367 6.31508C23.0929 7.18628 23.6887 8.38755 23.6887 9.72398C23.6887 10.913 23.246 11.9009 22.5841 12.6197C21.8324 13.436 20.7911 13.9018 19.788 13.9199C18.9561 13.935 18.2269 13.6667 17.6548 13.2326C17.2494 12.925 16.9241 12.534 16.698 12.1022C16.4698 11.6657 16.3413 11.1847 16.3326 10.7025C16.3217 10.1012 16.4961 9.49957 16.8921 8.97799C17.1041 8.69876 17.4051 8.39814 17.7697 8.18543H17.7718C18.0807 8.00547 18.4389 7.88352 18.8363 7.87764L18.8362 7.87766Z" fill="white"/>
<path d="M18.8362 7.87766C19.1363 7.8742 19.3827 8.11466 19.3862 8.41461C19.3896 8.71455 19.1491 8.96075 18.8489 8.96424C18.6628 8.96702 18.4825 9.03118 18.319 9.12617L18.3195 9.12706C18.0855 9.2635 17.8928 9.45584 17.7574 9.63423C17.5183 9.94915 17.413 10.3162 17.4197 10.6855C17.4253 10.9963 17.5102 11.3107 17.6613 11.5995C17.815 11.8932 18.0361 12.159 18.3113 12.3678C18.6991 12.662 19.1976 12.8438 19.7709 12.8334C20.4837 12.8205 21.2327 12.4799 21.7827 11.8826C22.2708 11.3525 22.5974 10.617 22.5974 9.72398C22.5974 8.7085 22.1391 7.79063 21.4035 7.12044C20.6445 6.42901 19.5949 5.99868 18.445 5.98717V5.98916L-0.0439453 5.98916L-0.0439453 4.89844L18.445 4.89844V4.90051H18.4492C19.8795 4.91352 21.1881 5.45084 22.1367 6.31508C23.0929 7.18628 23.6887 8.38755 23.6887 9.72398C23.6887 10.913 23.246 11.9009 22.5841 12.6197C21.8324 13.436 20.7911 13.9018 19.788 13.9199C18.9561 13.935 18.2269 13.6667 17.6548 13.2326C17.2494 12.925 16.9241 12.534 16.698 12.1022C16.4698 11.6657 16.3413 11.1847 16.3326 10.7025C16.3217 10.1012 16.4961 9.49957 16.8921 8.97799C17.1041 8.69876 17.4051 8.39814 17.7697 8.18543H17.7718C18.0807 8.00547 18.4389 7.88352 18.8363 7.87764L18.8362 7.87766Z" fill="black" fill-opacity="0.2"/>
<path d="M18.8362 7.87766C19.1363 7.8742 19.3827 8.11466 19.3862 8.41461C19.3896 8.71455 19.1491 8.96075 18.8489 8.96424C18.6628 8.96702 18.4825 9.03118 18.319 9.12617L18.3195 9.12706C18.0855 9.2635 17.8928 9.45584 17.7574 9.63423C17.5183 9.94915 17.413 10.3162 17.4197 10.6855C17.4253 10.9963 17.5102 11.3107 17.6613 11.5995C17.815 11.8932 18.0361 12.159 18.3113 12.3678C18.6991 12.662 19.1976 12.8438 19.7709 12.8334C20.4837 12.8205 21.2327 12.4799 21.7827 11.8826C22.2708 11.3525 22.5974 10.617 22.5974 9.72398C22.5974 8.7085 22.1391 7.79063 21.4035 7.12044C20.6445 6.42901 19.5949 5.99868 18.445 5.98717V5.98916L-0.0439453 5.98916L-0.0439453 4.89844L18.445 4.89844V4.90051H18.4492C19.8795 4.91352 21.1881 5.45084 22.1367 6.31508C23.0929 7.18628 23.6887 8.38755 23.6887 9.72398C23.6887 10.913 23.246 11.9009 22.5841 12.6197C21.8324 13.436 20.7911 13.9018 19.788 13.9199C18.9561 13.935 18.2269 13.6667 17.6548 13.2326C17.2494 12.925 16.9241 12.534 16.698 12.1022C16.4698 11.6657 16.3413 11.1847 16.3326 10.7025C16.3217 10.1012 16.4961 9.49957 16.8921 8.97799C17.1041 8.69876 17.4051 8.39814 17.7697 8.18543H17.7718C18.0807 8.00547 18.4389 7.88352 18.8363 7.87764L18.8362 7.87766Z" fill="url(#paint3_linear_961_3503)"/>
<path d="M15.5803 16.3782C15.8782 16.3336 16.1559 16.5386 16.2006 16.8363C16.2452 17.1339 16.0401 17.4116 15.7422 17.4562C15.3499 17.5155 15.0303 17.6605 14.818 17.9209C14.5882 18.2029 14.4544 18.6374 14.4482 19.2643H14.4502L14.4502 40.9911H13.3589L13.3589 19.2643H13.361V19.26C13.3692 18.3639 13.591 17.7049 13.974 17.235C14.3751 16.7429 14.9272 16.4768 15.5803 16.3781V16.3782Z" fill="white"/>
<path d="M15.5803 16.3782C15.8782 16.3336 16.1559 16.5386 16.2006 16.8363C16.2452 17.1339 16.0401 17.4116 15.7422 17.4562C15.3499 17.5155 15.0303 17.6605 14.818 17.9209C14.5882 18.2029 14.4544 18.6374 14.4482 19.2643H14.4502L14.4502 40.9911H13.3589L13.3589 19.2643H13.361V19.26C13.3692 18.3639 13.591 17.7049 13.974 17.235C14.3751 16.7429 14.9272 16.4768 15.5803 16.3781V16.3782Z" fill="black" fill-opacity="0.2"/>
<path d="M15.5803 16.3782C15.8782 16.3336 16.1559 16.5386 16.2006 16.8363C16.2452 17.1339 16.0401 17.4116 15.7422 17.4562C15.3499 17.5155 15.0303 17.6605 14.818 17.9209C14.5882 18.2029 14.4544 18.6374 14.4482 19.2643H14.4502L14.4502 40.9911H13.3589L13.3589 19.2643H13.361V19.26C13.3692 18.3639 13.591 17.7049 13.974 17.235C14.3751 16.7429 14.9272 16.4768 15.5803 16.3781V16.3782Z" fill="url(#paint4_linear_961_3503)"/>
<path d="M3.13528 40.9913L3.13528 17.7319C3.13528 17.4307 3.37963 17.1865 3.6809 17.1865C3.98219 17.1865 4.22654 17.4307 4.22654 17.7319L4.22654 40.9913H3.13525H3.13528Z" fill="white"/>
<path d="M3.13528 40.9913L3.13528 17.7319C3.13528 17.4307 3.37963 17.1865 3.6809 17.1865C3.98219 17.1865 4.22654 17.4307 4.22654 17.7319L4.22654 40.9913H3.13525H3.13528Z" fill="black" fill-opacity="0.2"/>
<path d="M3.13528 40.9913L3.13528 17.7319C3.13528 17.4307 3.37963 17.1865 3.6809 17.1865C3.98219 17.1865 4.22654 17.4307 4.22654 17.7319L4.22654 40.9913H3.13525H3.13528Z" fill="url(#paint5_linear_961_3503)"/>
<path d="M-0.0439453 14.0537L16.2681 14.0537C16.5694 14.0537 16.8137 14.298 16.8137 14.5991C16.8137 14.9002 16.5694 15.1444 16.2681 15.1444L-0.0439453 15.1444L-0.0439453 14.0537V14.0537Z" fill="white"/>
<path d="M-0.0439453 14.0537L16.2681 14.0537C16.5694 14.0537 16.8137 14.298 16.8137 14.5991C16.8137 14.9002 16.5694 15.1444 16.2681 15.1444L-0.0439453 15.1444L-0.0439453 14.0537V14.0537Z" fill="black" fill-opacity="0.2"/>
<path d="M-0.0439453 14.0537L16.2681 14.0537C16.5694 14.0537 16.8137 14.298 16.8137 14.5991C16.8137 14.9002 16.5694 15.1444 16.2681 15.1444L-0.0439453 15.1444L-0.0439453 14.0537V14.0537Z" fill="url(#paint6_linear_961_3503)"/>
<path d="M8.24709 40.9913L8.24709 17.7319C8.24709 17.4307 8.49144 17.1865 8.79274 17.1865C9.09401 17.1865 9.33836 17.4307 9.33836 17.7319L9.33836 40.9913H8.24707H8.24709Z" fill="white"/>
<path d="M8.24709 40.9913L8.24709 17.7319C8.24709 17.4307 8.49144 17.1865 8.79274 17.1865C9.09401 17.1865 9.33836 17.4307 9.33836 17.7319L9.33836 40.9913H8.24707H8.24709Z" fill="black" fill-opacity="0.2"/>
<path d="M8.24709 40.9913L8.24709 17.7319C8.24709 17.4307 8.49144 17.1865 8.79274 17.1865C9.09401 17.1865 9.33836 17.4307 9.33836 17.7319L9.33836 40.9913H8.24707H8.24709Z" fill="url(#paint7_linear_961_3503)"/>
<path d="M-0.0439453 8.33693L15.0272 8.33693C15.3285 8.33693 15.5728 8.58114 15.5728 8.88228C15.5728 9.18341 15.3285 9.42764 15.0272 9.42764L-0.0439453 9.42764L-0.0439453 8.33691V8.33693Z" fill="white"/>
<path d="M-0.0439453 8.33693L15.0272 8.33693C15.3285 8.33693 15.5728 8.58114 15.5728 8.88228C15.5728 9.18341 15.3285 9.42764 15.0272 9.42764L-0.0439453 9.42764L-0.0439453 8.33691V8.33693Z" fill="black" fill-opacity="0.2"/>
<path d="M-0.0439453 8.33693L15.0272 8.33693C15.3285 8.33693 15.5728 8.58114 15.5728 8.88228C15.5728 9.18341 15.3285 9.42764 15.0272 9.42764L-0.0439453 9.42764L-0.0439453 8.33691V8.33693Z" fill="url(#paint8_linear_961_3503)"/>
<defs>
<linearGradient id="paint0_linear_961_3503" x1="20.4611" y1="0.00195313" x2="20.4611" y2="40.9907" gradientUnits="userSpaceOnUse">
<stop stop-color="#A42E32"/>
<stop offset="1" stop-color="#E52A31"/>
</linearGradient>
<linearGradient id="paint1_linear_961_3503" x1="72.9922" y1="0.00195313" x2="72.9922" y2="40.9907" gradientUnits="userSpaceOnUse">
<stop stop-color="#A42E32"/>
<stop offset="1" stop-color="#E52A31"/>
</linearGradient>
<linearGradient id="paint2_linear_961_3503" x1="26.2675" y1="17.5146" x2="26.2675" y2="35.9823" gradientUnits="userSpaceOnUse">
<stop stop-color="#A42E32"/>
<stop offset="1" stop-color="#E52A31"/>
</linearGradient>
<linearGradient id="paint3_linear_961_3503" x1="11.8224" y1="4.89844" x2="11.8224" y2="13.9206" gradientUnits="userSpaceOnUse">
<stop stop-color="#A42E32"/>
<stop offset="1" stop-color="#E52A31"/>
</linearGradient>
<linearGradient id="paint4_linear_961_3503" x1="14.7828" y1="16.3721" x2="14.7828" y2="40.9911" gradientUnits="userSpaceOnUse">
<stop stop-color="#A42E32"/>
<stop offset="1" stop-color="#E52A31"/>
</linearGradient>
<linearGradient id="paint5_linear_961_3503" x1="3.6809" y1="17.1865" x2="3.6809" y2="40.9913" gradientUnits="userSpaceOnUse">
<stop stop-color="#A42E32"/>
<stop offset="1" stop-color="#E52A31"/>
</linearGradient>
<linearGradient id="paint6_linear_961_3503" x1="8.38488" y1="14.0537" x2="8.38488" y2="15.1444" gradientUnits="userSpaceOnUse">
<stop stop-color="#A42E32"/>
<stop offset="1" stop-color="#E52A31"/>
</linearGradient>
<linearGradient id="paint7_linear_961_3503" x1="8.79272" y1="17.1865" x2="8.79272" y2="40.9913" gradientUnits="userSpaceOnUse">
<stop stop-color="#A42E32"/>
<stop offset="1" stop-color="#E52A31"/>
</linearGradient>
<linearGradient id="paint8_linear_961_3503" x1="7.76444" y1="8.33691" x2="7.76444" y2="9.42764" gradientUnits="userSpaceOnUse">
<stop stop-color="#A42E32"/>
<stop offset="1" stop-color="#E52A31"/>
</linearGradient>
</defs>
</svg>
