<svg width="146" height="41" viewBox="0 0 146 41" fill="none" xmlns="http://www.w3.org/2000/svg">
<g clip-path="url(#clip0_981_4725)">
<path fill-rule="evenodd" clip-rule="evenodd" d="M40.9658 40.9907L40.9658 0.00195313L-0.0441895 0.00195312L-0.0441895 20.4963L-0.0441895 40.9907H20.4608L40.9658 40.9907Z" fill="url(#paint0_linear_981_4725)"/>
<path fill-rule="evenodd" clip-rule="evenodd" d="M40.9658 40.9907L40.9658 0.00195313L-0.0441895 0.00195312L-0.0441895 20.4963L-0.0441895 40.9907H20.4608L40.9658 40.9907ZM70.8381 10.1794C70.8381 9.41398 70.8381 8.70749 72.4873 8.70749C74.1364 8.70749 74.1364 9.41398 74.1364 10.1794C74.1364 10.9447 74.1364 11.651 72.4873 11.651C70.8381 11.651 70.8381 10.9447 70.8381 10.1794ZM77.6703 11.5568C77.5608 11.5568 77.4147 11.5515 77.2773 11.5413C77.2248 11.5372 77.1782 11.5535 77.1396 11.5893C77.1011 11.6251 77.0813 11.6703 77.0813 11.7228V13.0062C77.0813 13.0927 77.14 13.1657 77.2246 13.1842C77.4624 13.2362 77.7493 13.2522 78.012 13.2522C79.6376 13.2522 80.1441 12.4516 80.2266 10.968L80.3344 9.10289C80.34 9.00651 80.4196 8.93134 80.5162 8.93134H82.5062C82.6067 8.93134 82.6885 9.01316 82.6885 9.1133V12.9405C82.6885 13.0409 82.7703 13.1226 82.8707 13.1226H84.391C84.4914 13.1226 84.5732 13.0409 84.5732 12.9405V7.41803C84.5732 7.31769 84.4914 7.23579 84.391 7.23579L78.7842 7.23579C78.6877 7.23579 78.6082 7.31075 78.6023 7.40713L78.4007 10.7562C78.3771 11.2742 78.2358 11.5568 77.6703 11.5568L77.6703 11.5568ZM87.9304 10.1794C87.9304 9.41398 87.9304 8.70749 89.5797 8.70749C91.2288 8.70749 91.2288 9.41398 91.2288 10.1794C91.2288 10.9447 91.2288 11.651 89.5797 11.651C87.9304 11.651 87.9304 10.9447 87.9304 10.1794ZM86.0457 10.4148C86.0457 12.0396 86.7761 13.3582 89.4147 13.3582H89.7446C92.3832 13.3582 93.1135 12.0396 93.1135 10.4148V9.94389C93.1135 8.31899 92.3832 7.00051 89.7446 7.00051H89.4147C86.7761 7.00051 86.0457 8.31899 86.0457 9.94389V10.4148ZM99.3686 9.11334V11.2924C99.3686 11.3926 99.2867 11.4744 99.1863 11.4744H96.9294C96.8709 11.4744 96.8205 11.4496 96.7849 11.4034C96.7493 11.3571 96.7383 11.302 96.7534 11.2455C96.8391 10.9235 96.888 10.5423 96.9184 10.1087L96.989 9.10075C96.9956 9.00516 97.0748 8.93139 97.1707 8.93139H99.1863C99.2867 8.93139 99.3686 9.0132 99.3686 9.11334ZM93.9382 11.6565V15.0597C93.9382 15.1602 94.02 15.2419 94.1203 15.2419H94.3588C94.3933 15.2419 94.423 15.2337 94.4525 15.216L95.4988 14.5886C95.5552 14.5546 95.5873 14.4982 95.5873 14.4324V13.3049C95.5873 13.2044 95.6691 13.1226 95.7694 13.1226H100.353C100.453 13.1226 100.535 13.2044 100.535 13.3049V15.0597C100.535 15.1602 100.617 15.2419 100.717 15.2419H100.955C100.99 15.2419 101.02 15.2337 101.049 15.216L102.095 14.5886C102.152 14.5546 102.184 14.4982 102.184 14.4324V11.6565C102.184 11.5562 102.102 11.4743 102.002 11.4743H101.436C101.335 11.4743 101.253 11.3926 101.253 11.2924V7.41805C101.253 7.31771 101.171 7.23581 101.071 7.23581L95.4623 7.23581C95.3666 7.23581 95.2875 7.30957 95.2807 7.40497L95.0807 10.2029C95.0262 10.7798 94.9618 11.2056 94.7289 11.425C94.6938 11.458 94.6522 11.4744 94.6039 11.4744H94.1203C94.02 11.4744 93.9381 11.5562 93.9381 11.6565H93.9382ZM106.719 8.47218C107.991 8.47218 108.062 8.80169 108.062 9.02558C108.062 9.23749 107.98 9.47289 106.601 9.47289C106.013 9.47289 105.556 9.42925 105.147 9.34199C105.092 9.33019 105.049 9.29718 105.023 9.24642C104.997 9.19584 104.996 9.14151 105.019 9.08974C105.197 8.69055 105.644 8.4722 106.719 8.4722V8.47218ZM106.601 13.3582C107.445 13.3582 108.529 13.2641 109.331 13.0958C109.416 13.0778 109.476 13.0045 109.476 12.9176V11.5347C109.476 11.477 109.451 11.4272 109.406 11.3915C109.36 11.3559 109.306 11.3441 109.25 11.358C108.454 11.5534 107.407 11.6511 106.731 11.6511C105.393 11.6511 105.026 11.3418 104.925 10.8336C104.913 10.7712 104.931 10.7119 104.977 10.6676C105.022 10.6233 105.082 10.6064 105.144 10.6206C105.609 10.7259 106.122 10.768 106.719 10.768C109.664 10.768 109.947 9.94391 109.947 9.0019V8.88421C109.947 7.84803 109.393 7.00053 106.707 7.00053H106.377C103.739 7.00053 103.008 8.31902 103.008 9.94391V10.4148C103.008 12.0397 103.739 13.3582 106.377 13.3582H106.601V13.3582ZM112.839 13.0383L114.051 11.1348C114.086 11.0808 114.141 11.0504 114.205 11.0504H114.983C115.083 11.0504 115.165 11.1323 115.165 11.2326V12.9406C115.165 13.0409 115.247 13.1226 115.347 13.1226L116.868 13.1226C116.968 13.1226 117.05 13.0409 117.05 12.9406V11.2326C117.05 11.1323 117.132 11.0504 117.232 11.0504H118.01C118.074 11.0504 118.129 11.0808 118.164 11.1348L119.376 13.0383C119.41 13.0925 119.465 13.1226 119.529 13.1226H121.061C121.162 13.1226 121.243 13.0409 121.243 12.9406V12.7046C121.243 12.6686 121.234 12.6375 121.215 12.6071L119.738 10.2766C119.7 10.2158 119.7 10.1428 119.738 10.0818L121.215 7.75149C121.234 7.72098 121.243 7.69011 121.243 7.65393V7.41803C121.243 7.31769 121.162 7.23579 121.061 7.23579H119.529C119.465 7.23579 119.41 7.26624 119.376 7.32026L118.164 9.22368C118.129 9.27772 118.074 9.30805 118.01 9.30805H117.232C117.132 9.30805 117.05 9.22615 117.05 9.12591V7.42863C117.05 7.32868 116.969 7.24719 116.869 7.24659L115.348 7.23697C115.298 7.23676 115.255 7.25444 115.219 7.28994C115.183 7.32533 115.165 7.36887 115.165 7.41911V9.12591C115.165 9.22615 115.083 9.30805 114.983 9.30805H114.205C114.141 9.30805 114.086 9.2777 114.051 9.22368L112.839 7.32026C112.805 7.26622 112.75 7.23579 112.686 7.23579H111.154C111.053 7.23579 110.972 7.31769 110.972 7.41803V7.65393C110.972 7.69011 110.981 7.72098 111 7.75149L112.477 10.0818C112.515 10.1428 112.515 10.2158 112.477 10.2766L111 12.6071C110.981 12.6375 110.972 12.6686 110.972 12.7046V12.9406C110.972 13.0409 111.053 13.1226 111.154 13.1226H112.686C112.75 13.1226 112.805 13.0925 112.839 13.0383ZM122.304 7.41805V12.9406C122.304 13.0409 122.386 13.1226 122.486 13.1226H124.006C124.107 13.1226 124.188 13.0409 124.188 12.9406V11.1856C124.188 11.0853 124.27 11.0034 124.371 11.0034L127.328 11.0034C127.428 11.0034 127.51 11.0853 127.51 11.1856V12.9406C127.51 13.0409 127.592 13.1226 127.693 13.1226H129.213C129.313 13.1226 129.395 13.0409 129.395 12.9406V7.41805C129.395 7.31771 129.313 7.23581 129.213 7.23581H127.693C127.592 7.23581 127.51 7.31771 127.51 7.41805V9.17291C127.51 9.27336 127.428 9.35507 127.328 9.35507L124.371 9.35507C124.27 9.35507 124.188 9.27336 124.188 9.17291V7.41805C124.188 7.31771 124.107 7.23581 124.006 7.23581H122.486C122.386 7.23581 122.304 7.31771 122.304 7.41805ZM134.343 11.8865C132.847 11.8865 132.752 11.6745 132.752 11.3921C132.752 11.1565 132.823 10.874 134.225 10.874C134.891 10.874 135.44 10.9328 135.934 11.0505C136.017 11.0704 136.074 11.1424 136.074 11.2277V11.5032C136.074 11.5861 136.021 11.6561 135.941 11.6786C135.45 11.8172 134.926 11.8865 134.343 11.8865ZM137.959 9.59066C137.959 7.9069 137.017 7.00049 134.39 7.00049C133.546 7.00049 132.462 7.0944 131.66 7.26275C131.575 7.28071 131.515 7.35389 131.515 7.44103V8.82367C131.515 8.88158 131.54 8.93134 131.585 8.96695C131.631 9.00273 131.685 9.01435 131.741 9.00055C132.534 8.80512 133.569 8.70745 134.331 8.70745C135.643 8.70745 135.965 8.9593 136.048 9.41315C136.06 9.47503 136.041 9.53362 135.995 9.57705C135.95 9.62067 135.89 9.63725 135.829 9.62346C135.336 9.5127 134.782 9.46103 134.107 9.46103C131.657 9.46103 130.868 10.2735 130.868 11.2624V11.3801C130.868 12.4281 131.598 13.3582 134.142 13.3582C135.187 13.3582 136.001 13.1831 136.765 12.8018C136.821 12.7736 136.883 12.7754 136.937 12.8068L137.446 13.0986C137.475 13.1151 137.503 13.1226 137.536 13.1226H137.777C137.877 13.1226 137.959 13.0409 137.959 12.9405V9.59064L137.959 9.59066ZM142.518 9.73196C141.352 9.73196 141.293 9.44925 141.293 9.14325C141.293 8.83706 141.352 8.55445 142.518 8.55445C142.97 8.55445 143.57 8.57419 144.164 8.62258C144.259 8.63031 144.332 8.70895 144.332 8.80394V9.48225C144.332 9.57743 144.259 9.65609 144.164 9.66381C143.57 9.71219 142.97 9.73192 142.518 9.73192V9.73196ZM60.7601 17.1116L60.7601 22.7519C60.7601 22.8521 60.6783 22.934 60.5779 22.934H58.4097C58.3094 22.934 58.2275 22.8521 58.2275 22.7519L58.2275 17.1116C58.2275 17.0112 58.1456 16.9293 58.0453 16.9293H56.2893C56.189 16.9293 56.1071 17.0112 56.1071 17.1116L56.1071 24.6356C56.1071 24.7358 56.189 24.8178 56.2893 24.8178H67.3513C67.4515 24.8178 67.5334 24.7358 67.5334 24.6356V17.1116C67.5334 17.0112 67.4515 16.9293 67.3513 16.9293H65.5953C65.495 16.9293 65.4131 17.0112 65.4131 17.1116V22.7519C65.4131 22.8521 65.3313 22.934 65.2309 22.934H63.0626C62.9623 22.934 62.8805 22.8521 62.8805 22.7519L62.8805 17.1116C62.8805 17.0112 62.7986 16.9293 62.6982 16.9293H60.9424C60.842 16.9293 60.7601 17.0112 60.7601 17.1116H60.7601ZM75.9677 24.6356V24.3997C75.9677 24.3635 75.9588 24.3326 75.9394 24.3021L74.4627 21.9717C74.4241 21.9107 74.4241 21.8378 74.4627 21.7769L75.9394 19.4465C75.9588 19.416 75.9677 19.385 75.9677 19.3489V19.113C75.9677 19.0127 75.8859 18.9309 75.7855 18.9309H74.2536C74.1895 18.9309 74.1344 18.9611 74.1 19.0152L72.888 20.9188C72.8536 20.9728 72.7984 21.003 72.7343 21.003H71.1318C71.0314 21.003 70.9495 20.9212 70.9495 20.821V19.1236C70.9495 19.0238 70.8685 18.9422 70.7685 18.9416L69.2481 18.9321C69.1978 18.9317 69.1544 18.9495 69.1187 18.9849C69.0828 19.0204 69.0648 19.0639 69.0648 19.1142V24.6355C69.0648 24.7358 69.1466 24.8178 69.247 24.8178H70.7674C70.8677 24.8178 70.9495 24.7358 70.9495 24.6355V22.9277C70.9495 22.8274 71.0314 22.7455 71.1318 22.7455H72.7343C72.7985 22.7455 72.8536 22.7759 72.888 22.8299L74.1 24.7333C74.1344 24.7873 74.1895 24.8178 74.2536 24.8178H75.7855C75.8859 24.8178 75.9677 24.7358 75.9677 24.6355V24.6356ZM78.7948 21.8742C78.7948 21.109 78.7948 20.4026 80.4441 20.4026C82.0932 20.4026 82.0932 21.109 82.0932 21.8742C82.0932 22.6396 82.0932 23.346 80.4441 23.346C78.7948 23.346 78.7948 22.6396 78.7948 21.8742ZM76.9101 22.1098C76.9101 23.7346 77.6405 25.0531 80.2791 25.0531H80.6089C83.2476 25.0531 83.978 23.7346 83.978 22.1098V21.6389C83.978 20.014 83.2476 18.6954 80.6089 18.6954H80.2791C77.6405 18.6954 76.9101 20.014 76.9101 21.6389V22.1098ZM85.627 23.2517C85.5175 23.2517 85.3715 23.2467 85.234 23.2362C85.1816 23.2323 85.135 23.2484 85.0964 23.2843C85.0578 23.3199 85.038 23.3652 85.038 23.4177V24.7013C85.038 24.7878 85.0968 24.8607 85.1813 24.8791C85.4191 24.9311 85.706 24.9473 85.9687 24.9473C87.5942 24.9473 88.1008 24.1467 88.1832 22.6632L88.2911 20.7978C88.2967 20.7015 88.3764 20.6262 88.473 20.6262H90.463C90.5634 20.6262 90.6452 20.7081 90.6452 20.8085V24.6355C90.6452 24.7358 90.7271 24.8178 90.8274 24.8178H92.3477C92.4481 24.8178 92.53 24.7358 92.53 24.6355V19.113C92.53 19.0127 92.4481 18.9309 92.3477 18.9309H86.7409C86.6444 18.9309 86.5649 19.0058 86.5591 19.102L86.3574 22.4511C86.3338 22.9691 86.1924 23.2517 85.627 23.2517L85.627 23.2517ZM97.4775 23.5814C95.9815 23.5814 95.8872 23.3696 95.8872 23.087C95.8872 22.8515 95.9578 22.569 97.3596 22.569C98.0264 22.569 98.5753 22.6278 99.0692 22.7455C99.1522 22.7653 99.2091 22.8372 99.2091 22.9227V23.1982C99.2091 23.281 99.156 23.3511 99.0763 23.3736C98.5846 23.5122 98.0607 23.5814 97.4775 23.5814ZM101.094 21.2856C101.094 19.602 100.151 18.6954 97.5246 18.6954C96.6812 18.6954 95.5974 18.7894 94.7951 18.9578C94.7098 18.9758 94.6503 19.0491 94.6503 19.136V20.5187C94.6503 20.5765 94.6746 20.6262 94.7201 20.662C94.7657 20.6976 94.82 20.7093 94.8761 20.6955C95.6689 20.5002 96.704 20.4025 97.4657 20.4025C98.7783 20.4025 99.1005 20.6543 99.1831 21.1082C99.1944 21.1701 99.1755 21.2286 99.13 21.272C99.0845 21.3158 99.0252 21.3323 98.9638 21.3183C98.4712 21.2078 97.9168 21.1561 97.2419 21.1561C94.7917 21.1561 94.0025 21.9684 94.0025 22.9575V23.0752C94.0025 24.123 94.7327 25.053 97.2772 25.053C98.3215 25.053 99.1361 24.8782 99.9001 24.4969C99.9563 24.4687 100.018 24.4705 100.072 24.5018L100.581 24.7936C100.609 24.81 100.638 24.8178 100.671 24.8178H100.912C101.012 24.8178 101.094 24.7358 101.094 24.6355V21.2856L101.094 21.2856ZM60.9186 32.5685C60.9186 31.3794 60.9186 30.2844 63.1568 30.2844C65.395 30.2844 65.395 31.3794 65.395 32.5685C65.395 33.7695 65.395 34.8645 63.1568 34.8645C60.9186 34.8645 60.9186 33.7695 60.9186 32.5685ZM56.1071 28.8066V36.3307C56.1071 36.4309 56.189 36.5128 56.2893 36.5128H58.0453C58.1456 36.5128 58.2275 36.4309 58.2275 36.3307V33.7515C58.2275 33.6512 58.3094 33.5693 58.4097 33.5693H58.672C58.7637 33.5693 58.8402 33.6363 58.8525 33.7271C59.0847 35.4505 60.1435 36.7482 62.9447 36.7482H63.3687C66.6083 36.7482 67.5152 35.0056 67.5152 32.8748V32.2625C67.5152 30.1314 66.6081 28.3889 63.3687 28.3889H62.9447C60.0854 28.3889 59.0472 29.7432 58.8383 31.5246C58.8275 31.6168 58.7504 31.6856 58.6575 31.6856H58.4097C58.3094 31.6856 58.2275 31.6037 58.2275 31.5034V28.8066C58.2275 28.7061 58.1456 28.6244 58.0453 28.6244H56.2893C56.189 28.6244 56.1071 28.7061 56.1071 28.8066V28.8066ZM72.6188 32.0977C74.209 32.0977 74.209 32.8041 74.209 33.5692C74.209 34.3345 74.209 35.041 72.6188 35.041C72.0254 35.041 71.5012 34.9718 71.019 34.8337C70.9397 34.811 70.8871 34.741 70.8871 34.6587V32.4916C70.8871 32.4093 70.9394 32.3395 71.0184 32.3166C71.5007 32.1767 72.0252 32.0976 72.6188 32.0976V32.0977ZM82.7069 30.6853L79.7678 33.9051C79.7161 33.9618 79.6389 33.98 79.5672 33.9522C79.4957 33.9244 79.451 33.859 79.451 33.7823V30.8079C79.451 30.7077 79.369 30.626 79.2687 30.626H77.7484C77.6481 30.626 77.5662 30.7077 77.5662 30.8079V36.3307C77.5662 36.4309 77.6481 36.5128 77.7484 36.5128H79.3705C79.4237 36.5128 79.4694 36.4926 79.5052 36.4534L82.4443 33.2335C82.496 33.177 82.5731 33.1588 82.6448 33.1865C82.7163 33.2143 82.7611 33.2796 82.7611 33.3564V36.3307C82.7611 36.4309 82.843 36.5128 82.9433 36.5128H84.4636C84.5639 36.5128 84.6458 36.4309 84.6458 36.3307V30.8079C84.6458 30.7077 84.5639 30.626 84.4636 30.626H82.8415C82.7883 30.626 82.7427 30.646 82.7069 30.6853ZM86.1183 33.8048C86.1183 35.4295 86.8486 36.7482 89.4873 36.7482H89.8171C90.6133 36.7482 91.3784 36.6549 92.1025 36.4876C92.1861 36.4682 92.2437 36.396 92.2437 36.3101V34.9366C92.2437 34.8787 92.2194 34.8288 92.1737 34.7931C92.1278 34.7574 92.0735 34.7459 92.0172 34.7601C91.2102 34.9623 90.3621 35.0411 89.77 35.0411C88.003 35.0411 88.003 34.417 88.003 33.5693C88.003 32.7216 88.003 32.0977 89.77 32.0977C90.3621 32.0977 91.2102 32.1764 92.0172 32.3787C92.0735 32.3927 92.1278 32.3813 92.1737 32.3455C92.2194 32.3099 92.2437 32.26 92.2437 32.202V30.8286C92.2437 30.7428 92.1861 30.6705 92.1025 30.6513C91.3784 30.484 90.6132 30.3904 89.8171 30.3904H89.4873C86.8486 30.3904 86.1183 31.7091 86.1183 33.3338V33.8049V33.8048ZM97.5564 36.3307V32.5151C97.5564 32.4149 97.6383 32.3332 97.7386 32.3332H99.6241C99.7244 32.3332 99.8063 32.2512 99.8063 32.151V30.8079C99.8063 30.7077 99.7244 30.626 99.6241 30.626L93.6157 30.626C93.5153 30.626 93.4335 30.7077 93.4335 30.8079V32.151C93.4335 32.2512 93.5153 32.3332 93.6157 32.3332H95.4893C95.5897 32.3332 95.6716 32.4149 95.6716 32.5151V36.3307C95.6716 36.4309 95.7534 36.5128 95.8538 36.5128H97.3742C97.4745 36.5128 97.5564 36.4309 97.5564 36.3307H97.5564ZM62.9351 11.4429L65.0898 8.80853C65.1394 8.74773 65.2181 8.72592 65.292 8.7523C65.366 8.77859 65.413 8.84531 65.413 8.92374V12.9406C65.413 13.0409 65.4948 13.1226 65.5952 13.1226H67.3512C67.4515 13.1226 67.5333 13.0409 67.5333 12.9406V5.4165C67.5333 5.31624 67.4515 5.23436 67.3512 5.23436H65.5033C65.4445 5.23436 65.3939 5.25934 65.3583 5.30614L62.8804 8.56104V8.54567L61.9642 9.72691C61.9285 9.77292 61.8784 9.79752 61.8202 9.79752C61.762 9.79752 61.7119 9.77292 61.6762 9.72691L60.76 8.54567V8.56104L58.2821 5.30614C58.2465 5.25934 58.1959 5.23436 58.1371 5.23436L56.2892 5.23436C56.1889 5.23436 56.107 5.31624 56.107 5.4165V12.9406C56.107 13.0409 56.1889 13.1226 56.2892 13.1226H58.0452C58.1455 13.1226 58.2275 13.0409 58.2275 12.9406V8.92374C58.2275 8.84531 58.2745 8.77859 58.3484 8.7523C58.4223 8.72592 58.5011 8.74773 58.5507 8.80853L60.7054 11.4429C60.7412 11.4867 60.7899 11.5096 60.8464 11.5096H62.794C62.8505 11.5096 62.8992 11.4867 62.935 11.4429H62.9351ZM146.028 12.9406V7.3995C146.028 7.30589 145.958 7.22806 145.865 7.21834C144.832 7.11116 143.662 7.0475 142.577 7.0475H142.317C140.056 7.0475 139.431 7.88337 139.431 8.95488V9.33156C139.431 9.96022 139.641 10.5091 140.281 10.8588C140.327 10.8837 140.357 10.9224 140.37 10.9729C140.383 11.0235 140.375 11.0719 140.347 11.1161L139.401 12.607C139.382 12.6375 139.372 12.6686 139.372 12.7047V12.9406C139.372 13.0409 139.454 13.1226 139.555 13.1226H141.087C141.151 13.1226 141.206 13.0926 141.24 13.0385L142.334 11.3231C142.369 11.2691 142.424 11.239 142.488 11.239H142.577C143.081 11.239 143.613 11.2296 144.14 11.2026C144.192 11.1998 144.237 11.2166 144.275 11.2524C144.313 11.288 144.332 11.3326 144.332 11.3843V12.9406C144.332 13.0409 144.414 13.1226 144.514 13.1226H145.846C145.946 13.1226 146.028 13.0409 146.028 12.9406L146.028 12.9406ZM69.1845 39.4562H70.7048C70.8052 39.4562 70.8871 39.3743 70.8871 39.274V36.7221C70.8871 36.6635 70.9121 36.6129 70.9588 36.5772C71.0055 36.5417 71.0608 36.5309 71.1175 36.5465C71.5985 36.6785 72.1267 36.7482 72.7247 36.7482C75.3633 36.7482 76.0937 35.4295 76.0937 33.8048V33.3337C76.0937 31.7091 75.3633 30.3904 72.7247 30.3904C71.74 30.3904 70.9291 30.5752 70.1984 30.9553C70.1409 30.9852 70.0771 30.9834 70.0214 30.9505L69.5164 30.6513C69.487 30.6339 69.4577 30.626 69.4236 30.626H69.1845C69.0842 30.626 69.0023 30.7077 69.0023 30.8079V39.274C69.0023 39.3743 69.0842 39.4562 69.1845 39.4562ZM68.9533 10.4147C68.9533 12.0396 69.6837 13.3582 72.3223 13.3582H72.6522C75.2908 13.3582 76.0212 12.0396 76.0212 10.4147V9.94387C76.0212 8.31897 75.2908 7.00049 72.6522 7.00049H72.3223C69.6837 7.00049 68.9533 8.31897 68.9533 9.94387V10.4147ZM104.453 35.269C102.957 35.269 102.862 35.0572 102.862 34.7746C102.862 34.5391 102.933 34.2566 104.335 34.2566C105.002 34.2566 105.55 34.3154 106.044 34.4331C106.127 34.4528 106.184 34.5248 106.184 34.6103V34.8857C106.184 34.9685 106.131 35.0386 106.051 35.0612C105.56 35.1998 105.036 35.269 104.453 35.269ZM108.069 32.9732C108.069 31.2895 107.127 30.3829 104.5 30.3829C103.656 30.3829 102.573 30.4769 101.77 30.6454C101.685 30.6634 101.625 30.7366 101.625 30.8236V32.2062C101.625 32.264 101.65 32.3138 101.695 32.3496C101.741 32.3852 101.795 32.3969 101.851 32.3831C102.644 32.1878 103.679 32.0901 104.441 32.0901C105.753 32.0901 106.076 32.3418 106.158 32.7958C106.17 32.8577 106.151 32.9162 106.105 32.9596C106.06 33.0033 106 33.0199 105.939 33.0059C105.446 32.8953 104.892 32.8437 104.217 32.8437C101.767 32.8437 100.978 33.656 100.978 34.6451V34.7627C100.978 35.8105 101.708 36.7406 104.252 36.7406C105.297 36.7406 106.111 36.5658 106.875 36.1845C106.931 36.1563 106.993 36.1581 107.047 36.1893L107.556 36.4812C107.585 36.4976 107.613 36.5053 107.646 36.5053H107.887C107.987 36.5053 108.069 36.4233 108.069 36.3231V32.9732L108.069 32.9732Z" fill="url(#paint1_linear_981_4725)"/>
<path fill-rule="evenodd" clip-rule="evenodd" d="M26.9207 21.1529L28.1833 19.6092C28.2125 19.5736 28.2586 19.5606 28.3018 19.5762C28.3452 19.5917 28.3727 19.6307 28.3727 19.6766V22.0307C28.3727 22.0894 28.4208 22.1374 28.4795 22.1374H29.5086C29.5674 22.1374 29.6153 22.0894 29.6153 22.0307V17.6213C29.6153 17.5626 29.5674 17.5146 29.5086 17.5146H28.4257C28.3912 17.5146 28.3615 17.5292 28.3407 17.5567L26.8886 19.4642V19.4552L26.3517 20.1474C26.3308 20.1743 26.3014 20.1887 26.2673 20.1887C26.2332 20.1887 26.2039 20.1743 26.183 20.1474L25.646 19.4552V19.4642L24.1939 17.5567C24.173 17.5292 24.1434 17.5146 24.1089 17.5146H23.0261C22.9673 17.5146 22.9193 17.5626 22.9193 17.6213V22.0307C22.9193 22.0894 22.9673 22.1374 23.0261 22.1374H24.0551C24.1139 22.1374 24.1619 22.0894 24.1619 22.0307V19.6766C24.1619 19.6307 24.1895 19.5917 24.2327 19.5762C24.2761 19.5606 24.3222 19.5736 24.3513 19.6092L25.614 21.1529C25.635 21.1785 25.6635 21.1921 25.6966 21.1921H26.8379C26.8711 21.1921 26.8996 21.1785 26.9206 21.1529H26.9207ZM22.9193 31.3284V35.7376C22.9193 35.7965 22.9673 35.8444 23.0261 35.8444H24.0551C24.1139 35.8444 24.1619 35.7965 24.1619 35.7376V34.2261C24.1619 34.1673 24.2098 34.1194 24.2686 34.1194H24.4223C24.4762 34.1194 24.5209 34.1587 24.5281 34.212C24.6642 35.2219 25.2847 35.9823 26.9263 35.9823H27.1748C29.0732 35.9823 29.6047 34.9612 29.6047 33.7125V33.3535C29.6047 32.1048 29.0732 31.0836 27.1748 31.0836H26.9263C25.2506 31.0836 24.6421 31.8772 24.5198 32.9211C24.5136 32.9751 24.4682 33.0156 24.4139 33.0156H24.2686C24.2098 33.0156 24.1619 32.9676 24.1619 32.9088V31.3284C24.1619 31.2696 24.1139 31.2216 24.0551 31.2216H23.026C22.9672 31.2216 22.9193 31.2696 22.9193 31.3284L22.9193 31.3284ZM25.7389 33.5329C25.7389 32.8361 25.7389 32.1944 27.0505 32.1944C28.3621 32.1944 28.3621 32.8361 28.3621 33.5329C28.3621 34.2367 28.3621 34.8784 27.0505 34.8784C25.7389 34.8784 25.7389 34.2367 25.7389 33.5329ZM25.6461 24.4749V27.7802C25.6461 27.839 25.5981 27.8869 25.5393 27.8869H24.2687C24.2098 27.8869 24.1619 27.839 24.1619 27.7802V24.4749C24.1619 24.4161 24.1139 24.3681 24.0551 24.3681H23.0261C22.9673 24.3681 22.9194 24.4161 22.9194 24.4749L22.9194 28.8842C22.9194 28.9429 22.9673 28.9909 23.0261 28.9909H29.5086C29.5674 28.9909 29.6154 28.9429 29.6154 28.8842V24.4749C29.6154 24.4161 29.5674 24.3681 29.5086 24.3681H28.4796C28.4208 24.3681 28.3728 24.4161 28.3728 24.4749V27.7802C28.3728 27.839 28.3249 27.8869 28.2661 27.8869H26.9954C26.9366 27.8869 26.8887 27.839 26.8887 27.7802V24.4749C26.8887 24.4161 26.8406 24.3681 26.7819 24.3681H25.7528C25.694 24.3681 25.6461 24.4161 25.6461 24.4749H25.6461Z" fill="white"/>
<path d="M18.836 7.87766C19.1361 7.8742 19.3824 8.11466 19.3859 8.41461C19.3894 8.71455 19.1488 8.96075 18.8487 8.96424C18.6626 8.96702 18.4822 9.03118 18.3187 9.12617L18.3192 9.12706C18.0853 9.2635 17.8925 9.45584 17.7571 9.63423C17.518 9.94915 17.4128 10.3162 17.4194 10.6855C17.4251 10.9963 17.51 11.3107 17.6611 11.5995C17.8147 11.8932 18.0359 12.159 18.3111 12.3678C18.6989 12.662 19.1973 12.8438 19.7706 12.8334C20.4835 12.8205 21.2324 12.4799 21.7825 11.8826C22.2706 11.3525 22.5971 10.617 22.5971 9.72398C22.5971 8.7085 22.1388 7.79063 21.4033 7.12044C20.6442 6.42901 19.5946 5.99868 18.4447 5.98717V5.98916L-0.0441895 5.98916L-0.0441895 4.89844L18.4447 4.89844V4.90051H18.449C19.8793 4.91352 21.1878 5.45084 22.1365 6.31508C23.0926 7.18628 23.6885 8.38755 23.6885 9.72398C23.6885 10.913 23.2458 11.9009 22.5839 12.6197C21.8322 13.436 20.7908 13.9018 19.7877 13.9199C18.9559 13.935 18.2267 13.6667 17.6546 13.2326C17.2492 12.925 16.9238 12.534 16.6978 12.1022C16.4695 11.6657 16.3411 11.1847 16.3323 10.7025C16.3214 10.1012 16.4958 9.49957 16.8919 8.97799C17.1039 8.69876 17.4048 8.39814 17.7694 8.18543H17.7715C18.0805 8.00547 18.4387 7.88352 18.836 7.87764L18.836 7.87766Z" fill="white"/>
<path d="M15.58 16.3782C15.8778 16.3336 16.1556 16.5386 16.2002 16.8363C16.2449 17.1339 16.0397 17.4116 15.7419 17.4562C15.3495 17.5155 15.03 17.6605 14.8177 17.9209C14.5878 18.2029 14.4541 18.6374 14.4478 19.2643H14.4498L14.4498 40.9911H13.3585L13.3585 19.2643H13.3606V19.26C13.3688 18.3639 13.5907 17.7049 13.9736 17.235C14.3747 16.7429 14.9268 16.4768 15.58 16.3781V16.3782Z" fill="white"/>
<path d="M3.13503 40.9908L3.13503 17.7314C3.13503 17.4302 3.37938 17.186 3.68065 17.186C3.98195 17.186 4.2263 17.4302 4.2263 17.7314L4.2263 40.9908H3.13501H3.13503Z" fill="white"/>
<path d="M-0.0441895 14.0542L16.2678 14.0542C16.5691 14.0542 16.8135 14.2984 16.8135 14.5996C16.8135 14.9007 16.5691 15.1449 16.2678 15.1449L-0.0441895 15.1449L-0.0441895 14.0542V14.0542Z" fill="white"/>
<path d="M8.24673 40.9908L8.24673 17.7314C8.24673 17.4302 8.49108 17.186 8.79237 17.186C9.09364 17.186 9.33799 17.4302 9.33799 17.7314L9.33799 40.9908H8.2467H8.24673Z" fill="white"/>
<path d="M-0.0441895 8.33645L15.0269 8.33645C15.3282 8.33645 15.5726 8.58065 15.5726 8.88179C15.5726 9.18293 15.3282 9.42715 15.0269 9.42715L-0.0441895 9.42715L-0.0441895 8.33643V8.33645Z" fill="white"/>
<path fill-rule="evenodd" clip-rule="evenodd" d="M26.9207 21.1529L28.1833 19.6092C28.2125 19.5736 28.2586 19.5606 28.3018 19.5762C28.3452 19.5917 28.3727 19.6307 28.3727 19.6766V22.0307C28.3727 22.0894 28.4208 22.1374 28.4795 22.1374H29.5086C29.5674 22.1374 29.6153 22.0894 29.6153 22.0307V17.6213C29.6153 17.5626 29.5674 17.5146 29.5086 17.5146H28.4257C28.3912 17.5146 28.3615 17.5292 28.3407 17.5567L26.8886 19.4642V19.4552L26.3517 20.1474C26.3308 20.1743 26.3014 20.1887 26.2673 20.1887C26.2332 20.1887 26.2039 20.1743 26.183 20.1474L25.646 19.4552V19.4642L24.1939 17.5567C24.173 17.5292 24.1434 17.5146 24.1089 17.5146H23.0261C22.9673 17.5146 22.9193 17.5626 22.9193 17.6213V22.0307C22.9193 22.0894 22.9673 22.1374 23.0261 22.1374H24.0551C24.1139 22.1374 24.1619 22.0894 24.1619 22.0307V19.6766C24.1619 19.6307 24.1895 19.5917 24.2327 19.5762C24.2761 19.5606 24.3222 19.5736 24.3513 19.6092L25.614 21.1529C25.635 21.1785 25.6635 21.1921 25.6966 21.1921H26.8379C26.8711 21.1921 26.8996 21.1785 26.9206 21.1529H26.9207ZM22.9193 31.3284V35.7376C22.9193 35.7965 22.9673 35.8444 23.0261 35.8444H24.0551C24.1139 35.8444 24.1619 35.7965 24.1619 35.7376V34.2261C24.1619 34.1673 24.2098 34.1194 24.2686 34.1194H24.4223C24.4762 34.1194 24.5209 34.1587 24.5281 34.212C24.6642 35.2219 25.2847 35.9823 26.9263 35.9823H27.1748C29.0732 35.9823 29.6047 34.9612 29.6047 33.7125V33.3535C29.6047 32.1048 29.0732 31.0836 27.1748 31.0836H26.9263C25.2506 31.0836 24.6421 31.8772 24.5198 32.9211C24.5136 32.9751 24.4682 33.0156 24.4139 33.0156H24.2686C24.2098 33.0156 24.1619 32.9676 24.1619 32.9088V31.3284C24.1619 31.2696 24.1139 31.2216 24.0551 31.2216H23.026C22.9672 31.2216 22.9193 31.2696 22.9193 31.3284L22.9193 31.3284ZM25.7389 33.5329C25.7389 32.8361 25.7389 32.1944 27.0505 32.1944C28.3621 32.1944 28.3621 32.8361 28.3621 33.5329C28.3621 34.2367 28.3621 34.8784 27.0505 34.8784C25.7389 34.8784 25.7389 34.2367 25.7389 33.5329ZM25.6461 24.4749V27.7802C25.6461 27.839 25.5981 27.8869 25.5393 27.8869H24.2687C24.2098 27.8869 24.1619 27.839 24.1619 27.7802V24.4749C24.1619 24.4161 24.1139 24.3681 24.0551 24.3681H23.0261C22.9673 24.3681 22.9194 24.4161 22.9194 24.4749L22.9194 28.8842C22.9194 28.9429 22.9673 28.9909 23.0261 28.9909H29.5086C29.5674 28.9909 29.6154 28.9429 29.6154 28.8842V24.4749C29.6154 24.4161 29.5674 24.3681 29.5086 24.3681H28.4796C28.4208 24.3681 28.3728 24.4161 28.3728 24.4749V27.7802C28.3728 27.839 28.3249 27.8869 28.2661 27.8869H26.9954C26.9366 27.8869 26.8887 27.839 26.8887 27.7802V24.4749C26.8887 24.4161 26.8406 24.3681 26.7819 24.3681H25.7528C25.694 24.3681 25.6461 24.4161 25.6461 24.4749H25.6461Z" fill="white"/>
<path d="M18.836 7.87766C19.1361 7.8742 19.3824 8.11466 19.3859 8.41461C19.3894 8.71455 19.1488 8.96075 18.8487 8.96424C18.6626 8.96702 18.4822 9.03118 18.3187 9.12617L18.3192 9.12706C18.0853 9.2635 17.8925 9.45584 17.7571 9.63423C17.518 9.94915 17.4128 10.3162 17.4194 10.6855C17.4251 10.9963 17.51 11.3107 17.6611 11.5995C17.8147 11.8932 18.0359 12.159 18.3111 12.3678C18.6989 12.662 19.1973 12.8438 19.7706 12.8334C20.4835 12.8205 21.2324 12.4799 21.7825 11.8826C22.2706 11.3525 22.5971 10.617 22.5971 9.72398C22.5971 8.7085 22.1388 7.79063 21.4033 7.12044C20.6442 6.42901 19.5946 5.99868 18.4447 5.98717V5.98916L-0.0441895 5.98916L-0.0441895 4.89844L18.4447 4.89844V4.90051H18.449C19.8793 4.91352 21.1878 5.45084 22.1365 6.31508C23.0926 7.18628 23.6885 8.38755 23.6885 9.72398C23.6885 10.913 23.2458 11.9009 22.5839 12.6197C21.8322 13.436 20.7908 13.9018 19.7877 13.9199C18.9559 13.935 18.2267 13.6667 17.6546 13.2326C17.2492 12.925 16.9238 12.534 16.6978 12.1022C16.4695 11.6657 16.3411 11.1847 16.3323 10.7025C16.3214 10.1012 16.4958 9.49957 16.8919 8.97799C17.1039 8.69876 17.4048 8.39814 17.7694 8.18543H17.7715C18.0805 8.00547 18.4387 7.88352 18.836 7.87764L18.836 7.87766Z" fill="white"/>
<path d="M15.58 16.3782C15.8778 16.3336 16.1556 16.5386 16.2002 16.8363C16.2449 17.1339 16.0397 17.4116 15.7419 17.4562C15.3495 17.5155 15.03 17.6605 14.8177 17.9209C14.5878 18.2029 14.4541 18.6374 14.4478 19.2643H14.4498L14.4498 40.9911H13.3585L13.3585 19.2643H13.3606V19.26C13.3688 18.3639 13.5907 17.7049 13.9736 17.235C14.3747 16.7429 14.9268 16.4768 15.58 16.3781V16.3782Z" fill="white"/>
<path d="M3.13503 40.9908L3.13503 17.7314C3.13503 17.4302 3.37938 17.186 3.68065 17.186C3.98195 17.186 4.2263 17.4302 4.2263 17.7314L4.2263 40.9908H3.13501H3.13503Z" fill="white"/>
<path d="M-0.0441895 14.0542L16.2678 14.0542C16.5691 14.0542 16.8135 14.2984 16.8135 14.5996C16.8135 14.9007 16.5691 15.1449 16.2678 15.1449L-0.0441895 15.1449L-0.0441895 14.0542V14.0542Z" fill="white"/>
<path d="M8.24673 40.9908L8.24673 17.7314C8.24673 17.4302 8.49108 17.186 8.79237 17.186C9.09364 17.186 9.33799 17.4302 9.33799 17.7314L9.33799 40.9908H8.2467H8.24673Z" fill="white"/>
<path d="M-0.0441895 8.33645L15.0269 8.33645C15.3282 8.33645 15.5726 8.58065 15.5726 8.88179C15.5726 9.18293 15.3282 9.42715 15.0269 9.42715L-0.0441895 9.42715L-0.0441895 8.33643V8.33645Z" fill="white"/>
</g>
<defs>
<linearGradient id="paint0_linear_981_4725" x1="20.4608" y1="0.00195313" x2="20.4608" y2="40.9907" gradientUnits="userSpaceOnUse">
<stop stop-color="#A42E32"/>
<stop offset="1" stop-color="#E52A31"/>
</linearGradient>
<linearGradient id="paint1_linear_981_4725" x1="72.9919" y1="0.00195313" x2="72.9919" y2="40.9907" gradientUnits="userSpaceOnUse">
<stop stop-color="#A42E32"/>
<stop offset="1" stop-color="#E52A31"/>
</linearGradient>
<clipPath id="clip0_981_4725">
<rect width="146" height="41" fill="white"/>
</clipPath>
</defs>
</svg>
