<svg width="1920" height="1076" viewBox="0 0 1920 1076" fill="none" xmlns="http://www.w3.org/2000/svg">
<g clip-path="url(#clip0_819_7244)">
<g opacity="0.05" clip-path="url(#clip1_819_7244)">
<path d="M66.174 485.932L64.8275 475.83C72.458 474.857 79.2655 470.891 83.9785 464.755C88.6914 458.619 90.7112 451.061 89.7387 443.353C88.7662 435.721 84.8013 428.911 78.667 424.197C72.5327 419.483 64.9771 417.462 57.3466 418.435L56 408.333C66.3236 406.986 76.6472 409.755 84.8761 416.115C93.1799 422.476 98.4913 431.68 99.8379 442.081C101.184 452.408 98.4166 462.734 92.0578 470.966C85.6991 479.272 76.4976 484.585 66.0992 485.932H66.174Z" fill="black"/>
<path d="M405.223 410.564C414.126 410.564 422.055 416.55 424.524 425.081C427.591 435.707 421.457 446.931 410.834 449.999C408.964 450.523 407.094 450.822 405.223 450.822C396.321 450.822 388.392 444.836 385.923 436.305C382.856 425.679 388.99 414.455 399.613 411.387C401.483 410.863 403.353 410.564 405.223 410.564ZM405.223 401.584C402.53 401.584 399.837 401.958 397.069 402.781C381.659 407.271 372.757 423.435 377.245 438.85C380.911 451.571 392.581 459.802 405.149 459.802C407.842 459.802 410.535 459.428 413.303 458.605C428.713 454.115 437.616 437.952 433.127 422.537C429.462 409.815 417.791 401.584 405.223 401.584Z" fill="black"/>
<path d="M-26.4965 774.911C-25.2247 774.911 -23.953 774.986 -22.6813 775.21C-10.6371 777.305 -2.5577 788.754 -4.65235 800.802C-6.52256 811.428 -15.6493 819.135 -26.4217 819.135C-27.6934 819.135 -28.9651 818.986 -30.2369 818.836C-42.2811 816.741 -50.3605 805.292 -48.2658 793.244C-46.3956 782.618 -37.2689 774.911 -26.4965 774.911ZM-26.4965 765.033C-41.7574 765.033 -55.2978 776.033 -57.991 791.598C-60.9833 809.033 -49.3131 825.571 -31.9575 828.564C-30.0872 828.863 -28.2919 829.013 -26.4965 829.013C-11.2355 829.013 2.30481 818.013 4.99792 802.448C7.99026 785.013 -3.67986 768.475 -21.0355 765.482C-22.9057 765.183 -24.7011 765.033 -26.4965 765.033Z" fill="black"/>
<path d="M266.078 801.326L254.184 789.502L314.18 729.189L374.476 789.203L362.656 801.101L314.255 752.911L266.078 801.326Z" fill="black"/>
<path d="M230.772 259.088L171 247.789L182.296 188L194.041 190.17L184.989 238.211L233.016 247.265L230.772 259.088Z" fill="black"/>
</g>
<g opacity="0.05" clip-path="url(#clip2_819_7244)">
<path d="M1448.17 941.932L1446.83 931.83C1454.46 930.857 1461.27 926.891 1465.98 920.755C1470.69 914.619 1472.71 907.061 1471.74 899.353C1470.77 891.721 1466.8 884.911 1460.67 880.197C1454.53 875.483 1446.98 873.462 1439.35 874.435L1438 864.333C1448.32 862.986 1458.65 865.755 1466.88 872.115C1475.18 878.476 1480.49 887.68 1481.84 898.081C1483.18 908.408 1480.42 918.734 1474.06 926.966C1467.7 935.272 1458.5 940.585 1448.1 941.932H1448.17Z" fill="black"/>
<path d="M210.963 516.482L220.428 520.26C217.535 527.388 217.654 535.266 220.692 542.381C223.73 549.497 229.327 554.963 236.522 557.894C243.651 560.788 251.53 560.67 258.646 557.635C265.762 554.599 271.227 549.004 274.12 541.877L283.585 545.655C279.698 555.313 272.224 562.954 262.646 567.008C253.031 571.128 242.405 571.245 232.679 567.32C223.019 563.431 215.375 555.956 211.318 546.379C207.196 536.764 207.076 526.14 210.999 516.416L210.963 516.482Z" fill="black"/>
<path d="M460.416 354.577C453.085 354.577 446.053 351.958 440.517 347.019C434.532 341.706 430.942 334.298 430.493 326.291C430.044 318.284 432.662 310.577 438.048 304.515C443.36 298.529 450.766 294.937 458.77 294.488L459.219 302.345C453.309 302.72 447.848 305.339 443.883 309.754C439.919 314.169 437.974 319.93 438.348 325.842C438.722 331.754 441.34 337.216 445.754 341.182C450.167 345.148 455.928 347.094 461.838 346.72L462.286 354.577C461.688 354.577 461.089 354.577 460.416 354.577Z" fill="black"/>
<path d="M1852.61 644.17C1845.87 635.789 1842.88 625.238 1844.08 614.612C1845.28 603.911 1850.51 594.333 1858.97 587.673C1876.32 573.83 1901.68 576.673 1915.52 593.959L1907.29 600.544C1897.04 587.748 1878.34 585.653 1865.47 595.905C1859.26 600.843 1855.37 607.952 1854.48 615.809C1853.58 623.667 1855.82 631.449 1860.84 637.66L1852.61 644.245V644.17Z" fill="black"/>
<path d="M1631.55 340.359C1640.6 340.359 1648.83 345.372 1652.94 353.454C1655.86 359.141 1656.31 365.651 1654.36 371.713C1652.34 377.774 1648.15 382.713 1642.47 385.631C1639.1 387.352 1635.44 388.25 1631.7 388.25C1622.65 388.25 1614.42 383.236 1610.3 375.155C1604.32 363.407 1609.1 348.964 1620.85 342.978C1624.22 341.257 1627.88 340.359 1631.62 340.359M1631.62 329.658C1626.39 329.658 1621 330.855 1616.06 333.4C1599.01 342.005 1592.2 362.883 1600.8 379.869C1606.86 391.917 1619.05 398.876 1631.7 398.876C1636.93 398.876 1642.32 397.679 1647.33 395.134C1664.39 386.529 1671.2 365.726 1662.59 348.665C1656.53 336.617 1644.34 329.658 1631.7 329.658H1631.62Z" fill="black"/>
<path d="M267.186 1012.33C267.86 1012.33 268.533 1012.33 269.206 1012.41C274.293 1012.93 278.931 1015.47 282.148 1019.44C285.365 1023.41 286.861 1028.42 286.338 1033.51C285.29 1043.31 277.136 1050.72 267.261 1050.72C266.588 1050.72 265.915 1050.72 265.241 1050.64C254.693 1049.52 247.063 1040.02 248.11 1029.54C249.158 1019.74 257.312 1012.33 267.186 1012.33ZM267.186 1003.73C253.122 1003.73 241.078 1014.35 239.582 1028.64C238.011 1043.91 249.083 1057.6 264.344 1059.18C265.316 1059.25 266.289 1059.33 267.261 1059.33C281.325 1059.33 293.37 1048.7 294.866 1034.41C296.437 1019.14 285.44 1005.45 270.104 1003.88C269.132 1003.8 268.159 1003.73 267.186 1003.73Z" fill="black"/>
<path d="M1787.22 866.564C1796.13 866.564 1804.06 872.55 1806.52 881.081C1809.59 891.706 1803.46 902.931 1792.83 905.999C1790.96 906.523 1789.09 906.822 1787.22 906.822C1778.32 906.822 1770.39 900.836 1767.92 892.305C1764.86 881.679 1770.99 870.455 1781.61 867.387C1783.48 866.863 1785.35 866.564 1787.22 866.564ZM1787.22 857.584C1784.53 857.584 1781.84 857.958 1779.07 858.781C1763.66 863.271 1754.76 879.434 1759.25 894.849C1762.91 907.57 1774.58 915.802 1787.15 915.802C1789.84 915.802 1792.53 915.428 1795.3 914.604C1810.71 910.115 1819.62 893.951 1815.13 878.536C1811.46 865.815 1799.79 857.584 1787.22 857.584Z" fill="black"/>
<path d="M777.457 319.406C781.721 319.406 785.91 320.304 789.875 322.1C797.206 325.468 802.817 331.379 805.585 338.937C808.427 346.495 808.128 354.651 804.837 361.985C799.974 372.685 789.201 379.644 777.382 379.644C773.118 379.644 768.928 378.746 764.964 376.951C749.852 370.066 743.119 352.182 750.002 337.066C754.864 326.365 765.637 319.406 777.457 319.406ZM777.457 306.012C760.924 306.012 745.064 315.515 737.808 331.529C727.858 353.454 737.509 379.27 759.428 389.223C765.263 391.917 771.397 393.114 777.457 393.114C793.989 393.114 809.849 383.61 817.105 367.597C827.055 345.672 817.404 319.855 795.485 309.903C789.65 307.209 783.516 306.012 777.457 306.012Z" fill="black"/>
<path d="M-9.75433 745.189C-10.8765 745.189 -11.9238 744.965 -12.9711 744.441C-16.7863 742.645 -18.4321 738.08 -16.7115 734.264C-12.5223 725.359 -5.191 718.849 3.86084 716.006C12.9875 713.162 22.6378 714.359 31.0912 719.373C35.8041 722.142 41.1156 722.815 46.0529 721.318C50.9903 719.747 54.9552 716.23 57.2742 711.216C61.4635 702.312 68.7948 695.801 77.8466 692.958C86.8985 690.114 96.6236 691.312 105.077 696.325C108.743 698.495 109.94 703.21 107.77 706.801C105.601 710.468 100.888 711.665 97.2969 709.495C92.5839 706.727 87.2725 706.053 82.3351 707.55C77.3978 709.121 73.4329 712.638 71.1138 717.652C66.9246 726.557 59.6681 733.067 50.5415 735.836C41.4148 738.679 31.7645 737.482 23.3111 732.468C18.5982 729.699 13.2867 729.026 8.34937 730.523C3.41199 732.094 -0.552864 735.611 -2.87193 740.625C-4.14368 743.393 -6.9116 745.04 -9.82914 745.04L-9.75433 745.189Z" fill="black"/>
<path d="M-53.295 1004.92C-53.295 1004.92 -53.8934 1004.92 -54.1927 1004.92C-57.3346 1004.85 -59.8033 1002.16 -59.6537 999.088C-59.5789 995.945 -56.9606 993.55 -53.8186 993.55C-49.7041 993.7 -46.0385 992.278 -43.4202 989.51C-40.7271 986.741 -39.4554 982.999 -39.6798 978.958C-40.1286 971.625 -37.66 964.816 -32.7226 959.802C-27.7852 954.714 -21.0524 952.095 -13.796 952.319C-9.68151 952.394 -6.0159 951.047 -3.39759 948.278C-0.704479 945.51 0.567268 941.768 0.342842 937.727C0.118416 934.584 2.51229 931.89 5.65426 931.666C8.79622 931.441 11.4893 933.836 11.7138 936.979C12.1626 944.237 9.69392 951.122 4.75655 956.135C-0.180817 961.224 -6.91359 963.843 -14.17 963.618C-18.2097 963.394 -21.8753 964.89 -24.5684 967.659C-27.2616 970.428 -28.5333 974.169 -28.3089 978.21C-27.86 985.469 -30.3287 992.278 -35.1913 997.367C-39.9042 1002.23 -46.2629 1004.85 -53.2202 1004.85L-53.295 1004.92Z" fill="black"/>
<path d="M854.752 1022C850.264 1022 845.925 1020.88 841.96 1018.71C835.377 1015.04 830.739 1008.83 828.943 1001.27C827.971 997.081 825.427 993.639 821.836 991.618C818.246 989.673 814.056 989.299 809.942 990.72C802.536 993.19 794.83 992.591 788.172 988.925C781.589 985.258 776.951 979.047 775.156 971.489C774.408 968.197 776.427 964.904 779.644 964.156C782.936 963.408 786.227 965.428 786.975 968.646C787.948 972.836 790.492 976.278 794.082 978.299C797.673 980.244 801.862 980.618 806.052 979.197C813.458 976.727 821.163 977.326 827.746 980.993C834.329 984.659 838.968 990.87 840.763 998.428C841.735 1002.62 844.279 1006.06 847.87 1008.08C851.461 1010.1 855.725 1010.4 859.839 1008.98C863.056 1007.93 866.497 1009.65 867.544 1012.8C868.592 1015.94 866.946 1019.46 863.729 1020.5C860.737 1021.48 857.744 1022 854.752 1022Z" fill="black"/>
<path d="M1069.43 595.455C1065.69 595.455 1061.95 594.781 1058.29 593.434C1054.62 592.087 1052.75 588.047 1054.1 584.38C1055.45 580.713 1059.49 578.843 1063.15 580.19C1067.86 581.911 1072.73 581.686 1076.92 579.516C1081.1 577.346 1084.17 573.455 1085.44 568.591C1087.76 559.836 1093.3 552.802 1101.08 548.761C1108.86 544.72 1117.76 544.196 1126.29 547.339C1131 549.06 1135.94 548.836 1140.13 546.666C1144.32 544.496 1147.39 540.604 1148.66 535.741C1149.63 531.999 1153.52 529.754 1157.26 530.727C1161 531.7 1163.24 535.591 1162.27 539.332C1159.95 548.087 1154.42 555.121 1146.64 559.162C1138.86 563.203 1129.95 563.727 1121.5 560.584C1116.79 558.863 1111.85 559.087 1107.66 561.332C1103.47 563.502 1100.41 567.394 1099.13 572.258C1096.81 581.013 1091.28 588.047 1083.5 592.087C1079.09 594.407 1074.3 595.53 1069.43 595.53V595.455Z" fill="black"/>
<path d="M1322.66 414.815C1320.42 414.815 1318.4 413.318 1317.87 410.998C1317.2 408.304 1318.85 405.685 1321.54 405.012L1364.25 394.76C1366.95 394.087 1369.57 395.733 1370.24 398.427C1370.91 401.121 1369.27 403.74 1366.57 404.413L1323.86 414.665C1323.48 414.74 1323.11 414.815 1322.66 414.815Z" fill="black"/>
<path d="M1612.77 715.088L1553 703.789L1564.3 644L1576.04 646.17L1566.99 694.211L1615.02 703.265L1612.77 715.088Z" fill="black"/>
<path d="M1099.58 343.876L1041.23 294.937L1050.88 283.413L1097.79 322.699L1137.06 275.855L1148.58 285.434L1099.58 343.876Z" fill="black"/>
<path d="M1148.43 963.992L1140.95 921.19L1098.09 928.673L1096.29 918.122L1149.63 908.843L1158.91 962.197L1148.43 963.992Z" fill="black"/>
<path d="M1900.86 369.244L1854.18 332.203L1861.43 322.999L1898.99 352.707L1928.69 315.217L1937.89 322.475L1900.86 369.244Z" fill="black"/>
</g>
</g>
<defs>
<clipPath id="clip0_819_7244">
<rect width="1920" height="1076" fill="white"/>
</clipPath>
<clipPath id="clip1_819_7244">
<rect width="2626" height="1372" fill="white" transform="translate(-1666 -543)"/>
</clipPath>
<clipPath id="clip2_819_7244">
<rect width="1920" height="1076" fill="white"/>
</clipPath>
</defs>
</svg>
