<svg width="1920" height="378" viewBox="0 0 1920 378" fill="none" xmlns="http://www.w3.org/2000/svg">
<g opacity="0.1">
<path d="M0.228038 1149C0.228038 1149 0.228043 669 0.228049 189.076C0.228049 165.053 0.22805 141.106 0.22805 117.16C-0.0759991 20.3842 -0.075998 -72.4382 0.228053 -163.36C0.228053 -185.862 0.228054 -208.061 0.228054 -229.879C0.228058 -535.637 0.22806 -770.772 0.22806 -770.772" stroke="white" stroke-miterlimit="10"/>
<path d="M101.249 1149C101.249 1149 101.249 760.226 101.249 332.605C101.249 308.81 101.249 284.939 101.249 261.068C92.7352 79.5289 92.7352 -97.7533 101.173 -286.287C101.249 -304.836 101.249 -323.005 101.249 -340.87C101.249 -590.677 101.249 -770.772 101.249 -770.772" stroke="white" stroke-miterlimit="10"/>
<path d="M202.269 1149C202.269 1149 202.269 802.19 202.269 403.457C202.345 379.966 202.421 356.323 202.649 332.453C202.421 104.844 185.546 -131.507 202.041 -356.074C202.269 -376.296 202.269 -395.986 202.269 -415.143C202.269 -625.647 202.269 -770.848 202.269 -770.848" stroke="white" stroke-miterlimit="10"/>
<path d="M303.29 1149C303.29 1149 303.29 879.047 303.29 541.512C303.29 519.009 303.29 496.203 303.29 473.168C303.29 449.526 303.974 425.959 305.038 402.468C303.746 130.083 295.309 -148.46 302.986 -414.763C303.366 -450.113 303.366 -483.487 303.366 -514.655C303.366 -670.119 303.366 -770.924 303.366 -770.924" stroke="white" stroke-miterlimit="10"/>
<path d="M404.387 1149C404.387 1149 404.387 879.048 404.387 541.512C404.387 519.009 404.387 496.203 404.387 473.169C402.106 453.631 401.194 434.322 401.422 415.24C405.071 282.05 430.383 163.837 447.258 28.8226C472.57 -140.021 421.946 -300.351 404.387 -470.867C404.387 -506.901 404.387 -540.503 404.387 -571.215C404.387 -694.066 404.387 -770.848 404.387 -770.848" stroke="white" stroke-miterlimit="10"/>
<path d="M505.407 1149C505.407 1149 505.407 879.048 505.407 541.512C505.407 519.009 505.407 496.203 505.407 473.169C503.887 453.631 503.735 434.322 504.647 415.24C505.559 396.083 507.459 377.153 509.436 358.604C514.757 163.913 624.519 -4.93093 632.956 -190.652C632.956 -291.912 548.582 -367.934 514.225 -461.82C508.22 -478.849 503.963 -496.258 502.215 -514.427C500.542 -532.52 501.302 -551.374 505.407 -571.215C505.407 -601.928 505.407 -629.752 505.407 -654.231C505.407 -727.668 505.407 -770.848 505.407 -770.848" stroke="white" stroke-miterlimit="10"/>
<path d="M606.428 1149C606.428 1149 606.428 879.047 606.428 541.512C606.428 519.009 606.428 496.203 606.428 473.168C605.212 445.497 605.82 418.509 607.948 391.901C610.076 365.294 613.345 339.142 616.538 313.751C624.519 189.152 675.143 79.4529 725.768 -30.3222C801.704 -207.604 700.455 -359.495 620.11 -508.118C611.749 -530.696 605.592 -553.959 602.931 -578.209C600.271 -602.46 601.031 -627.7 606.428 -654.307C606.428 -691.025 606.428 -720.218 606.428 -740.135C606.428 -760.129 606.428 -770.924 606.428 -770.924" stroke="white" stroke-miterlimit="10"/>
<path d="M707.448 1149C707.448 1149 707.448 841.797 707.448 473.168C707.448 450.134 707.448 426.871 707.524 403.381C713.301 375.709 718.622 348.113 723.487 320.669C751.079 87.8153 860.841 -148.536 796.383 -383.138C789.314 -408.985 780.04 -434.757 768.41 -460.376C756.78 -485.995 742.642 -511.462 725.767 -536.854C700.455 -579.046 708.892 -612.799 707.6 -654.535C707.448 -691.101 707.448 -720.294 707.448 -740.211C707.448 -760.205 707.448 -771 707.448 -771" stroke="white" stroke-miterlimit="10"/>
<path d="M808.469 1149C808.469 1149 808.469 760.226 808.469 332.605C808.469 308.81 808.545 284.863 809.989 259.7C869.279 79.453 886.154 -106.192 874.296 -290.012C871.635 -320.42 868.139 -350.829 863.958 -381.237C851.34 -472.463 832.033 -563.537 808.849 -654.611C808.469 -690.949 808.469 -720.142 808.469 -740.059C808.469 -760.053 808.469 -770.848 808.469 -770.848" stroke="white" stroke-miterlimit="10"/>
<path d="M909.566 1149C909.566 1149 909.566 715.829 909.566 260.992C909.566 237.046 909.566 213.023 910.098 188.544C936.854 11.9459 979.041 -156.898 953.729 -342.543C936.854 -452.242 903.105 -545.14 909.718 -654.383C909.566 -678.71 909.566 -699.844 909.566 -717.101C909.566 -751.69 909.566 -770.848 909.566 -770.848" stroke="white" stroke-miterlimit="10"/>
<path d="M1010.59 1149C1010.59 1149 1010.59 1065.68 1010.59 933.707C1010.59 907.328 1010.59 879.048 1010.59 849.171C1010.97 829.177 1011.27 809.032 1011.5 788.734C1011.73 768.436 1011.88 748.062 1011.95 727.613C1012.71 628.024 1012.71 526.688 1010.59 427.099C1010.59 407.562 1010.59 387.872 1010.59 368.031C1010.59 308.962 1010.59 248.981 1010.59 189C1010.59 164.977 1010.59 141.03 1010.66 116.932C1038.03 -123.144 1029.59 -359.495 1011.12 -594.326C1010.59 -630.284 1010.59 -662.137 1010.59 -688.365C1010.59 -740.895 1010.59 -770.848 1010.59 -770.848" stroke="white" stroke-miterlimit="10"/>
<path d="M1111.61 1149C1111.61 1149 1111.61 1129.77 1111.61 1095.25C1111.61 1078 1111.61 1056.86 1111.61 1032.38C1111.91 1002.96 1112.06 973.618 1112.06 944.426C1097.16 687.245 1114.04 442.456 1111.61 189.076C1111.61 159.048 1111.61 129.095 1111.61 99.2186C1111.61 69.3421 1111.61 39.5417 1111.68 9.89331C1114.04 -165.336 1114.04 -350.981 1111.83 -528.795C1111.61 -565.438 1111.61 -598.963 1111.61 -628.612C1111.61 -717.481 1111.61 -770.848 1111.61 -770.848" stroke="white" stroke-miterlimit="10"/>
<path d="M1212.63 1149C1212.63 1149 1212.63 1118.97 1212.7 1067.05C1212.1 1040.9 1211.34 1014.82 1209.97 988.899C1156.15 695.608 1198.41 408.626 1212.63 117.084C1212.63 93.1368 1212.63 69.266 1212.63 45.4713C1212.63 2.67113 1212.63 -39.6728 1212.63 -81.3326C1212.63 -102.163 1212.63 -122.764 1212.63 -143.214C1215.29 -232.996 1215.29 -334.256 1212.63 -426.699C1212.63 -460.756 1212.63 -492.989 1212.63 -523.17C1212.63 -673.845 1212.63 -771 1212.63 -771" stroke="white" stroke-miterlimit="10"/>
<path d="M1313.65 1149C1313.65 1149 1313.65 1129.77 1313.72 1095.71C1311.44 1065.83 1308.71 1036.03 1304.37 1006.54C1206.85 720.923 1240.6 417.065 1313.19 118.3C1313.57 93.2129 1313.65 69.2661 1313.65 45.5474C1313.65 -382.074 1313.65 -770.848 1313.65 -770.848" stroke="white" stroke-miterlimit="10"/>
<path d="M1414.67 1149C1414.67 1149 1414.67 1129.77 1414.74 1095.86C1418.09 1069.94 1417.86 1044.93 1414.14 1020.68C1392.47 923.52 1324.97 847.575 1299.66 746.238C1249.04 526.764 1367.16 341.043 1397.49 129.247C1402.51 100.131 1408.21 72.5349 1414.67 45.4713C1414.67 21.6765 1414.67 -1.96612 1414.67 -25.3808C1414.67 -424.19 1414.67 -770.924 1414.67 -770.924" stroke="white" stroke-miterlimit="10"/>
<path d="M1515.77 1149C1515.77 1149 1515.77 1129.77 1515.77 1095.4C1516.6 1077.77 1517.74 1059.75 1518.2 1041.96C1535.98 923.52 1409.42 872.89 1375.67 771.553C1341.92 687.169 1358.8 594.271 1384.11 509.887C1426.3 383.235 1476.92 265.098 1494.63 128.715C1500.79 99.9788 1507.56 72.687 1514.7 45.6994C1515.69 21.7526 1515.69 -1.89007 1515.77 -25.3047C1515.77 -424.114 1515.77 -770.848 1515.77 -770.848" stroke="white" stroke-miterlimit="10"/>
<path d="M1616.79 1149C1616.79 1149 1616.79 1129.77 1616.79 1095.25C1616.79 1078 1616.79 1056.86 1616.71 1032.61C1603.48 982.665 1628.87 915.158 1586.61 881.404C1341.85 670.368 1561.3 374.949 1591.78 126.586C1598.85 99.5987 1606.75 72.687 1615.57 45.6994C1616.63 21.8286 1616.63 -1.81405 1616.71 -25.3047C1616.71 -424.114 1616.71 -770.848 1616.71 -770.848" stroke="white" stroke-miterlimit="10"/>
<path d="M1717.81 1149C1717.81 1149 1717.81 1105.82 1717.81 1032.38C1717.81 1007.9 1717.81 980.08 1717.5 949.367C1713.25 923.52 1721.76 898.205 1713.25 881.328C1544.42 670.292 1645.75 433.941 1683.22 208.614C1688.39 180.638 1693.71 153.498 1699.56 126.358C1705.04 99.5226 1710.97 72.5351 1717.27 45.5474C1717.65 21.7527 1717.73 -1.81405 1717.81 -25.3047C1717.81 -424.114 1717.81 -770.848 1717.81 -770.848" stroke="white" stroke-miterlimit="10"/>
<path d="M1818.83 1149C1818.83 1149 1818.83 1072.22 1818.83 949.367C1818.83 918.655 1818.83 885.053 1818.75 849.019C1811.91 822.487 1806.13 795.804 1801.12 769.12C1780.74 636.539 1772.31 501.525 1787.36 366.814C1789.11 339.675 1791.16 312.839 1793.36 286.079C1795.64 259.548 1798 233.092 1800.51 206.865C1802.79 180.105 1805.45 153.27 1808.49 126.434C1811.53 99.5987 1814.95 72.611 1818.75 45.6233C1818.75 21.8286 1818.83 -1.73814 1818.83 -25.2288C1818.83 -424.038 1818.83 -770.772 1818.83 -770.772" stroke="white" stroke-miterlimit="10"/>
<path d="M1919.85 1149C1919.85 1149 1919.85 1003.8 1919.85 793.295C1919.77 774.138 1919.77 754.448 1919.62 734.303C1918.63 682.456 1917.95 630.837 1917.42 579.447C1916.88 528.056 1916.73 476.818 1916.73 425.579C1916.73 374.341 1916.96 323.102 1917.49 271.787C1918.02 220.397 1918.71 168.93 1919.7 117.16C1919.7 93.2129 1919.77 69.3422 1919.77 45.5474C1919.77 -382.074 1919.77 -770.848 1919.77 -770.848" stroke="white" stroke-miterlimit="10"/>
<path d="M1913.23 340.815C1886.48 344.236 1859.72 347.429 1832.89 350.47C1806.21 354.803 1779.45 358.908 1752.77 364.002C1510.67 467.695 1265.91 417.065 1032.02 341.423C1000.55 340.587 969.007 340.587 937.538 340.587C906.069 340.587 874.6 340.587 843.283 340.587C822.455 340.587 801.628 340.587 780.952 340.587C755.032 339.599 729.112 338.839 703.115 338.306C677.119 337.774 651.047 337.47 624.671 337.394C464.056 341.043 312.107 341.043 155.901 340.587C131.653 340.587 109.762 340.587 90.6066 340.587C33.1411 340.587 0.0756846 340.587 0.0756846 340.587" stroke="white" stroke-miterlimit="10"/>
<path d="M1917.8 239.554C1890.58 240.391 1863.37 241.151 1836.23 241.683C1808.87 242.367 1781.58 242.899 1754.06 243.508C1544.42 298.927 1324.97 265.174 1103.55 240.163C1079.76 239.554 1055.89 239.554 1031.95 239.554C1010.97 239.554 989.987 239.554 969.007 239.554C948.028 239.554 927.048 239.554 906.069 239.554C887.294 236.818 868.823 234.461 850.504 232.484C832.261 230.584 814.17 228.987 796.155 227.695C540.068 206.029 295.308 239.783 41.7304 239.554C14.898 239.554 0.227539 239.554 0.227539 239.554" stroke="white" stroke-miterlimit="10"/>
<path d="M1919.85 138.522C1861.85 138.522 1804.69 138.522 1747.98 138.522C1719.63 138.522 1691.43 138.522 1663.31 138.522C1635.18 138.522 1607.13 138.75 1579.24 139.358C1443.25 146.96 1308.18 138.522 1174.47 138.446C1155.24 138.446 1135.78 138.446 1116.32 138.446C1096.86 138.446 1077.25 138.446 1057.64 138.446C1038.03 138.446 1018.34 138.446 998.652 138.446C972.96 127.879 947.116 119.212 921.043 112.142C616.081 62.5 303.822 146.884 0.227539 138.446" stroke="white" stroke-miterlimit="10"/>
<path d="M1919.85 37.4891C1919.85 37.4891 1876.67 37.4891 1803.24 37.4891C1778.77 37.4891 1750.95 37.4891 1720.16 37.4891C1628.8 37.261 1535.98 37.261 1443.33 37.4891C1422.27 37.4891 1400.83 37.4891 1378.94 37.4891C1312.43 37.4891 1242.5 37.4891 1171.05 37.4891C1147.18 37.4891 1123.16 37.4891 1099.06 37.4891C1060.07 37.4131 1021.61 35.2085 986.566 26.7701C951.524 18.3317 919.827 3.50746 894.439 -21.6557C852.328 -55.5613 801.704 -80.8764 742.642 -80.8764C489.444 -63.9996 261.559 71.0907 0.151856 37.5652" stroke="white" stroke-miterlimit="10"/>
</g>
</svg>
