<svg width="124" height="124" viewBox="0 0 124 124" fill="none" xmlns="http://www.w3.org/2000/svg">
<g clip-path="url(#clip0_456_3018)">
<path d="M120.125 100.75C120.125 101.778 119.717 102.763 118.99 103.49C118.263 104.217 117.278 104.625 116.25 104.625H7.75C6.72229 104.625 5.73666 104.217 5.00996 103.49C4.28326 102.763 3.875 101.778 3.875 100.75C3.875 99.7222 4.28326 98.7366 5.00996 98.0099C5.73666 97.2832 6.72229 96.8749 7.75 96.8749H116.25C117.278 96.8749 118.263 97.2832 118.99 98.0099C119.717 98.7366 120.125 99.7222 120.125 100.75ZM7.89531 47.5656C7.66439 46.7535 7.70502 45.8881 8.01104 45.1012C8.31705 44.3143 8.8717 43.6489 9.59062 43.2062L59.9656 12.2062C60.5752 11.8236 61.2803 11.6206 62 11.6206C62.7197 11.6206 63.4248 11.8236 64.0344 12.2062L114.409 43.2062C115.125 43.6498 115.677 44.3145 115.981 45.0996C116.286 45.8848 116.326 46.7478 116.096 47.5578C115.866 48.3679 115.378 49.0811 114.707 49.5894C114.036 50.0977 113.217 50.3734 112.375 50.3749H100.75V81.3749H108.5C109.528 81.3749 110.513 81.7832 111.24 82.5099C111.967 83.2366 112.375 84.2222 112.375 85.2499C112.375 86.2777 111.967 87.2633 111.24 87.99C110.513 88.7167 109.528 89.1249 108.5 89.1249H15.5C14.4723 89.1249 13.4867 88.7167 12.76 87.99C12.0333 87.2633 11.625 86.2777 11.625 85.2499C11.625 84.2222 12.0333 83.2366 12.76 82.5099C13.4867 81.7832 14.4723 81.3749 15.5 81.3749H23.25V50.3749H11.625C10.7824 50.3758 9.9625 50.1021 9.28948 49.5951C8.61647 49.0882 8.12702 48.3757 7.89531 47.5656ZM69.75 77.4999C69.75 78.5277 70.1583 79.5133 70.885 80.24C71.6117 80.9667 72.5973 81.3749 73.625 81.3749C74.6527 81.3749 75.6383 80.9667 76.365 80.24C77.0917 79.5133 77.5 78.5277 77.5 77.4999V54.2499C77.5 53.2222 77.0917 52.2366 76.365 51.5099C75.6383 50.7832 74.6527 50.3749 73.625 50.3749C72.5973 50.3749 71.6117 50.7832 70.885 51.5099C70.1583 52.2366 69.75 53.2222 69.75 54.2499V77.4999ZM46.5 77.4999C46.5 78.5277 46.9083 79.5133 47.635 80.24C48.3617 80.9667 49.3473 81.3749 50.375 81.3749C51.4027 81.3749 52.3883 80.9667 53.115 80.24C53.8417 79.5133 54.25 78.5277 54.25 77.4999V54.2499C54.25 53.2222 53.8417 52.2366 53.115 51.5099C52.3883 50.7832 51.4027 50.3749 50.375 50.3749C49.3473 50.3749 48.3617 50.7832 47.635 51.5099C46.9083 52.2366 46.5 53.2222 46.5 54.2499V77.4999Z" fill="black"/>
<path d="M120.125 100.75C120.125 101.778 119.717 102.763 118.99 103.49C118.263 104.217 117.278 104.625 116.25 104.625H7.75C6.72229 104.625 5.73666 104.217 5.00996 103.49C4.28326 102.763 3.875 101.778 3.875 100.75C3.875 99.7222 4.28326 98.7366 5.00996 98.0099C5.73666 97.2832 6.72229 96.8749 7.75 96.8749H116.25C117.278 96.8749 118.263 97.2832 118.99 98.0099C119.717 98.7366 120.125 99.7222 120.125 100.75ZM7.89531 47.5656C7.66439 46.7535 7.70502 45.8881 8.01104 45.1012C8.31705 44.3143 8.8717 43.6489 9.59062 43.2062L59.9656 12.2062C60.5752 11.8236 61.2803 11.6206 62 11.6206C62.7197 11.6206 63.4248 11.8236 64.0344 12.2062L114.409 43.2062C115.125 43.6498 115.677 44.3145 115.981 45.0996C116.286 45.8848 116.326 46.7478 116.096 47.5578C115.866 48.3679 115.378 49.0811 114.707 49.5894C114.036 50.0977 113.217 50.3734 112.375 50.3749H100.75V81.3749H108.5C109.528 81.3749 110.513 81.7832 111.24 82.5099C111.967 83.2366 112.375 84.2222 112.375 85.2499C112.375 86.2777 111.967 87.2633 111.24 87.99C110.513 88.7167 109.528 89.1249 108.5 89.1249H15.5C14.4723 89.1249 13.4867 88.7167 12.76 87.99C12.0333 87.2633 11.625 86.2777 11.625 85.2499C11.625 84.2222 12.0333 83.2366 12.76 82.5099C13.4867 81.7832 14.4723 81.3749 15.5 81.3749H23.25V50.3749H11.625C10.7824 50.3758 9.9625 50.1021 9.28948 49.5951C8.61647 49.0882 8.12702 48.3757 7.89531 47.5656ZM69.75 77.4999C69.75 78.5277 70.1583 79.5133 70.885 80.24C71.6117 80.9667 72.5973 81.3749 73.625 81.3749C74.6527 81.3749 75.6383 80.9667 76.365 80.24C77.0917 79.5133 77.5 78.5277 77.5 77.4999V54.2499C77.5 53.2222 77.0917 52.2366 76.365 51.5099C75.6383 50.7832 74.6527 50.3749 73.625 50.3749C72.5973 50.3749 71.6117 50.7832 70.885 51.5099C70.1583 52.2366 69.75 53.2222 69.75 54.2499V77.4999ZM46.5 77.4999C46.5 78.5277 46.9083 79.5133 47.635 80.24C48.3617 80.9667 49.3473 81.3749 50.375 81.3749C51.4027 81.3749 52.3883 80.9667 53.115 80.24C53.8417 79.5133 54.25 78.5277 54.25 77.4999V54.2499C54.25 53.2222 53.8417 52.2366 53.115 51.5099C52.3883 50.7832 51.4027 50.3749 50.375 50.3749C49.3473 50.3749 48.3617 50.7832 47.635 51.5099C46.9083 52.2366 46.5 53.2222 46.5 54.2499V77.4999Z" fill="url(#paint0_linear_456_3018)"/>
<path opacity="0.25" d="M208.417 -34.9699C208.417 -34.9699 177.378 -34.9699 137.017 -34.9699C134.137 -34.9699 131.207 -34.9699 128.236 -34.9699C116.234 -35.01 103.981 -35.01 91.2066 -34.9699C88.0456 -34.9699 84.8845 -34.9699 81.7134 -34.9699C18.3617 -34.9699 -45 -34.9699 -45 -34.9699L-45 218.427C-45 218.427 -25.8329 218.427 1.9543 218.427C4.48315 218.417 7.08225 218.417 9.74156 218.397C16.5855 218.266 23.3993 218.176 30.1831 218.106C36.9668 218.036 43.7305 218.015 50.4942 218.015C57.2578 218.015 64.0215 218.046 70.7952 218.116C77.5789 218.186 84.3727 218.276 91.2066 218.407C94.3677 218.407 97.5187 218.417 100.66 218.417C157.107 218.417 208.427 218.417 208.427 218.417M-45 -21.6348C-45 -21.6348 6.31958 -21.6348 62.7671 -21.6348C65.9081 -21.6348 69.0591 -21.6348 72.2102 -21.6348C96.174 -22.7586 119.576 -22.7586 144.463 -21.6448C146.912 -21.6348 149.31 -21.6348 151.668 -21.6348C184.644 -21.6348 208.417 -21.6348 208.417 -21.6348M-45 -8.29972C-45 -8.29972 0.780196 -8.29972 53.4144 -8.29972C56.5152 -8.28969 59.6362 -8.27965 62.7872 -8.24955C92.8323 -8.27965 124.031 -10.5072 153.675 -8.32982C156.345 -8.29972 158.944 -8.29972 161.473 -8.29972C189.26 -8.29972 208.427 -8.29972 208.427 -8.29972M-45 5.03537C-45 5.03537 -9.3653 5.03537 35.1906 5.03537C38.161 5.03537 41.1715 5.03537 44.2122 5.03537C47.3331 5.03537 50.444 5.12567 53.5448 5.26615C89.5007 5.09557 126.269 3.98181 161.422 4.99523C166.089 5.0454 170.494 5.0454 174.608 5.0454C195.13 5.0454 208.437 5.0454 208.437 5.0454M-45 18.3805C-45 18.3805 -9.3653 18.3805 35.1906 18.3805C38.161 18.3805 41.1715 18.3805 44.2122 18.3805C46.7912 18.0795 49.3401 17.9591 51.8589 17.9892C69.4405 18.4708 85.0451 21.8121 102.867 24.0396C125.155 27.3809 146.319 20.6983 168.828 18.3805C173.585 18.3805 178.02 18.3805 182.075 18.3805C198.291 18.3805 208.427 18.3805 208.427 18.3805M-45 31.7156C-45 31.7156 -9.3653 31.7156 35.1906 31.7156C38.161 31.7156 41.1715 31.7156 44.2122 31.7156C46.7912 31.5149 49.3401 31.4948 51.8589 31.6152C54.3878 31.7356 56.8865 31.9865 59.3351 32.2474C85.035 32.9498 107.323 47.4387 131.839 48.5525C145.206 48.5525 155.241 37.4148 167.634 32.8795C169.882 32.0868 172.18 31.5249 174.578 31.2942C176.967 31.0734 179.455 31.1737 182.075 31.7156C186.129 31.7156 189.802 31.7156 193.033 31.7156C202.727 31.7156 208.427 31.7156 208.427 31.7156M-45 45.0507C-45 45.0507 -9.3653 45.0507 35.1906 45.0507C38.161 45.0507 41.1715 45.0507 44.2122 45.0507C47.865 44.8901 51.4274 44.9704 54.9397 45.2513C58.452 45.5323 61.9041 45.9637 65.2558 46.3852C81.7034 47.4387 96.184 54.1213 110.675 60.8039C134.077 70.8278 154.127 57.4626 173.745 46.8568C176.726 45.753 179.797 44.9403 182.998 44.5891C186.199 44.2379 189.531 44.3383 193.043 45.0507C197.89 45.0507 201.743 45.0507 204.373 45.0507C207.012 45.0507 208.437 45.0507 208.437 45.0507M-45 58.3858C-45 58.3858 -4.4481 58.3858 44.2122 58.3858C47.2528 58.3858 50.3236 58.3857 53.4244 58.3958C57.0772 59.1584 60.7199 59.8607 64.3426 60.5029C95.0802 64.1452 126.279 78.6342 157.248 70.1254C160.66 69.1923 164.062 67.9681 167.443 66.433C170.825 64.8978 174.187 63.0315 177.539 60.8039C183.108 57.4626 187.564 58.5764 193.073 58.4058C197.9 58.3858 201.753 58.3858 204.383 58.3858C207.022 58.3858 208.447 58.3858 208.447 58.3858M-45 71.7208C-45 71.7208 6.31958 71.7208 62.7671 71.7208C65.9081 71.7208 69.0692 71.7309 72.3908 71.9215C96.184 79.748 120.69 81.9755 144.955 80.4102C148.969 80.059 152.983 79.5975 156.997 79.0456C169.039 77.38 181.061 74.8314 193.083 71.771C197.88 71.7208 201.733 71.7208 204.363 71.7208C207.002 71.7208 208.427 71.7208 208.427 71.7208M-45 85.066C-45 85.066 12.1801 85.066 72.2202 85.066C75.3812 85.066 78.5523 85.066 81.7836 85.1362C105.095 88.6681 127.383 94.237 151.889 90.8957C166.37 88.6681 178.633 84.2131 193.053 85.086C196.264 85.066 199.054 85.066 201.332 85.066C205.898 85.066 208.427 85.066 208.427 85.066M-45 98.401C-45 98.401 -34.0015 98.401 -16.5806 98.401C-13.0984 98.401 -9.36531 98.401 -5.4215 98.401C-2.78227 98.4512 -0.122965 98.4914 2.55641 98.5215C5.23579 98.5516 7.9252 98.5716 10.6246 98.5817C23.7706 98.682 37.1475 98.682 50.2935 98.401C52.8725 98.401 55.4716 98.401 58.0907 98.401C65.888 98.401 73.8057 98.401 81.7234 98.401C84.8945 98.401 88.0556 98.4011 91.2367 98.4111C122.928 102.023 154.127 100.91 185.125 98.4713C189.872 98.4011 194.077 98.401 197.539 98.401C204.473 98.401 208.427 98.401 208.427 98.401M-45 111.736C-45 111.736 -42.4611 111.736 -37.9052 111.736C-35.6272 111.736 -32.8374 111.736 -29.6061 111.736C-25.7225 111.776 -21.849 111.796 -17.9955 111.796C15.9533 109.83 48.2664 112.057 81.7134 111.736C85.6773 111.736 89.6311 111.736 93.5749 111.736C97.5187 111.736 101.452 111.736 105.366 111.746C128.497 112.057 153.003 112.057 176.475 111.766C181.312 111.736 185.737 111.736 189.651 111.736C201.382 111.736 208.427 111.736 208.427 111.736M-45 125.071C-45 125.071 -41.0361 125.071 -34.1821 125.081C-30.7301 125.001 -27.288 124.901 -23.866 124.72C14.8494 117.616 52.732 123.195 91.2167 125.071C94.3777 125.071 97.5288 125.071 100.67 125.071C106.32 125.071 111.909 125.071 117.408 125.071C120.158 125.071 122.877 125.071 125.577 125.071C137.428 125.422 150.795 125.422 162.998 125.071C167.494 125.071 171.748 125.071 175.732 125.071C195.622 125.071 208.447 125.071 208.447 125.071M-45 138.406C-45 138.406 -42.4611 138.406 -37.9654 138.416C-34.0216 138.115 -30.0878 137.754 -26.1942 137.182C11.5077 124.309 51.6181 128.764 91.0561 138.346C94.3677 138.396 97.5287 138.406 100.66 138.406C157.107 138.406 208.427 138.406 208.427 138.406M-45 151.741C-45 151.741 -42.4611 151.741 -37.9855 151.751C-34.5635 152.193 -31.2619 152.163 -28.0607 151.671C-15.2358 148.812 -5.21077 139.901 8.16604 136.56C37.1374 129.877 61.6532 145.47 89.611 149.474C93.4545 150.136 97.0972 150.889 100.67 151.741C103.811 151.741 106.932 151.741 110.022 151.741C162.667 151.741 208.437 151.741 208.437 151.741M-45 165.087C-45 165.087 -42.4611 165.087 -37.9252 165.087C-35.5971 165.197 -33.2188 165.347 -30.8706 165.408C-15.2358 167.756 -8.55246 151.049 4.82435 146.594C15.9633 142.139 28.2262 144.366 39.3652 147.708C56.0837 153.277 71.6783 159.959 89.6813 162.297C93.4746 163.11 97.0772 164.003 100.64 164.946C103.801 165.076 106.922 165.076 110.012 165.087C162.657 165.087 208.427 165.087 208.427 165.087M-45 178.422C-45 178.422 -42.4611 178.422 -37.9052 178.422C-35.6272 178.422 -32.8374 178.422 -29.6362 178.412C-23.0432 176.666 -14.132 180.017 -9.67639 174.438C18.1811 142.129 57.1776 171.097 89.9623 175.12C93.5247 176.054 97.0772 177.097 100.64 178.261C103.791 178.402 106.912 178.402 110.012 178.412C162.657 178.412 208.427 178.412 208.427 178.412M-45 191.757C-45 191.757 -39.3001 191.757 -29.6061 191.757C-26.3748 191.757 -22.702 191.757 -18.6478 191.717C-15.2358 191.155 -11.8942 192.278 -9.66636 191.155C18.1911 168.869 49.3903 182.245 79.1344 187.191C82.8273 187.874 86.4098 188.576 89.9924 189.349C93.5348 190.071 97.0972 190.854 100.66 191.686C103.801 191.737 106.912 191.747 110.012 191.757C162.657 191.757 208.427 191.757 208.427 191.757M-45 205.092C-45 205.092 -34.8645 205.092 -18.6478 205.092C-14.5936 205.092 -10.1581 205.092 -5.40143 205.082C-1.89918 204.179 1.62315 203.416 5.14547 202.754C22.6467 200.065 40.4691 198.951 58.2513 200.938C61.8338 201.169 65.3762 201.439 68.9086 201.73C72.4109 202.031 75.9031 202.342 79.3652 202.674C82.8976 202.975 86.4399 203.326 89.9823 203.727C93.5247 204.129 97.0872 204.58 100.65 205.082C103.791 205.082 106.902 205.092 110.002 205.092C162.647 205.092 208.417 205.092 208.417 205.092M-31.6633 218.427C-31.6633 218.427 -31.6633 208.293 -31.6633 192.078C-31.6633 188.024 -31.6633 183.589 -31.6734 178.843C-31.7637 172.181 -31.8339 165.628 -31.864 159.126C-31.8941 152.614 -31.8941 146.163 -31.864 139.671C-31.8339 133.179 -31.7737 126.657 -31.6834 120.034C-31.6633 116.934 -31.6533 113.813 -31.6533 110.683C-31.6533 41.6893 -31.6533 -34.9599 -31.6533 -34.9599M-18.3267 218.427C-18.3267 218.427 -18.3267 212.728 -18.3267 203.035C-18.3267 199.804 -18.3267 196.131 -18.3267 192.048C-19.6914 168.869 -19.6914 146.584 -19.3101 123.566C-18.999 116.191 -18.6679 108.656 -18.3267 101.221C-18.3267 98.0599 -18.3267 94.8892 -18.3267 91.7285C-18.3267 28.3743 -18.3267 -34.9699 -18.3267 -34.9699M-4.97996 218.427C-4.97996 218.427 -4.97996 217.002 -4.97996 214.363C-4.97996 211.724 -4.97996 207.881 -4.98999 202.995C-10.7803 172.211 -11.8942 138.788 -6.34473 107.853C-5.91322 104.361 -5.47168 100.769 -5.00003 97.1669C-4.96992 94.4477 -4.96992 91.7285 -4.96992 89.0193C-4.96992 26.5882 -4.96992 -34.9699 -4.96992 -34.9699M8.35671 218.427C7.78471 214.855 7.22274 211.303 6.69088 207.761C0.35872 173.324 -5.21077 137.674 5.74758 103.649C6.54035 100.307 7.3833 96.8257 8.3266 93.3139C8.34667 90.404 8.34667 87.5042 8.34667 84.6044C8.34667 23.7185 8.34667 -34.9699 8.34667 -34.9699M21.6934 218.156C21.8138 215.055 21.6934 212.015 21.3622 209.025C18.1911 185.586 1.47262 164.424 4.81431 138.798C7.04211 122.081 22.6467 110.943 21.6833 92.9225C21.6934 90.1532 21.6934 87.3738 21.6934 84.6144C21.6934 23.7286 21.6934 -34.9599 21.6934 -34.9599M34.9999 217.524C34.9799 213.681 34.5985 209.928 33.866 206.196C21.5328 173.324 2.59656 138.788 31.5679 106.478C34.9096 104.251 36.0235 98.682 35.0401 92.9125C35.0401 90.1431 35.0401 87.3738 35.0401 84.6044C35.03 23.7185 35.03 -34.9699 35.03 -34.9699M48.3165 217.213C47.5338 213.269 46.741 209.346 45.8379 205.443C32.6718 171.097 22.6367 133.219 48.1158 101.241C48.3165 98.0699 48.3667 94.8992 48.3667 91.7285C48.3667 78.5339 48.3667 65.3292 48.3667 52.7066C48.3667 50.178 48.3667 47.6796 48.3667 45.2012C48.2664 31.836 48.2664 18.4608 48.3667 4.61394C48.3667 0.650539 48.3667 -3.08208 48.3667 -6.56385C48.3667 -23.9827 48.3667 -34.9799 48.3667 -34.9799M61.6833 217.554C61.2317 214.022 60.8103 210.49 60.4089 206.948C59.8369 203.426 59.295 199.894 58.6226 196.372C44.9347 164.414 51.6181 132.105 61.603 101.231C61.7134 97.0766 61.7134 92.9125 61.7134 88.7584C61.7134 84.6044 61.7134 80.4504 61.7134 76.3164C61.7134 73.5671 61.7134 70.8178 61.7134 68.0886C61.8439 64.667 61.9442 61.2454 62.0145 57.8138C62.0847 54.3822 62.1249 50.9406 62.1349 47.4588C61.6532 26.2571 61.6532 6.1993 61.7134 -14.4204C61.7134 -17.6212 61.7134 -20.511 61.7134 -23.0396C61.7134 -30.6252 61.7134 -34.99 61.7134 -34.99M75.0501 218.156C74.9397 214.564 74.8394 210.972 74.7691 207.39C74.6788 203.777 74.6085 200.175 74.5283 196.543C67.2127 168.869 71.6682 139.901 74.9698 110.673C75.0501 107.532 75.0501 104.381 75.0501 101.221C75.0501 98.4512 75.0501 95.6819 75.0501 92.9125C75.0501 90.1431 75.0501 87.3738 75.0501 84.6044C75.4113 82.126 75.7224 79.6878 75.9833 77.2696C76.2342 74.8615 76.445 72.4734 76.6156 70.0953C79.4756 36.291 75.02 3.9818 75.0501 -29.4914C75.0501 -33.0334 75.0501 -34.9699 75.0501 -34.9699M88.3868 218.427C88.3868 210.771 88.3868 203.225 88.3868 195.74C88.3868 191.998 88.3868 188.275 88.3868 184.562C88.3868 180.85 88.3567 177.147 88.2764 173.465C87.2729 155.514 88.3868 137.684 88.3968 120.034C88.3968 117.496 88.3968 114.927 88.3968 112.358C88.3968 109.79 88.3968 107.201 88.3968 104.612C88.3968 102.023 88.3968 99.4245 88.3968 96.8257C89.7917 93.4343 90.9357 90.0227 91.869 86.5811C98.4219 46.325 87.2829 5.1056 88.3968 -34.9699M101.723 218.427C101.723 218.427 101.723 212.728 101.723 203.035C101.723 199.804 101.723 196.131 101.723 192.068C101.754 180.007 101.754 167.756 101.723 155.524C101.723 152.745 101.723 149.915 101.723 147.025C101.723 138.246 101.723 129.015 101.723 119.583C101.723 116.432 101.723 113.261 101.723 110.081C101.733 104.933 102.024 99.856 103.138 95.2303C104.252 90.6047 106.209 86.4205 109.531 83.0692C114.006 77.5104 117.348 70.8278 117.348 63.0315C115.12 29.6084 97.2879 -0.473262 101.713 -34.9799M115.06 218.427C115.06 218.427 115.06 177.117 115.06 127.861C115.06 125.272 115.06 122.653 115.06 120.024C113.424 111.586 115.662 104.02 119.014 96.896C120.128 94.5179 121.372 92.2001 122.627 89.9023C130.715 78.6342 134.057 65.259 131.829 50.78C125.145 20.6983 110.655 -4.92832 115.05 -34.9799M128.397 218.427C128.397 218.427 128.397 181.352 128.397 135.567C128.397 133.018 128.397 130.449 128.397 127.861C126.229 112.87 132.943 100.438 138.643 87.5443C140.068 84.3235 141.422 81.0725 142.546 77.7412C145.206 70.8278 146.319 63.0214 145.206 56.3388C136.294 25.1434 124.031 -2.71083 128.397 -34.9799M141.743 218.427C141.743 218.427 141.743 181.352 141.743 135.567C141.743 133.018 141.743 130.449 141.743 127.861C139.997 111.897 146.671 97.6385 150.875 82.3668C151.718 79.3165 152.461 76.216 153.013 73.0654C154.127 41.8699 138.532 11.7882 141.723 -19.6381C141.743 -24.4242 141.743 -28.2672 141.743 -30.9062C141.743 -33.5451 141.743 -34.9699 141.743 -34.9699M155.08 218.427C155.08 218.427 155.08 181.352 155.08 135.567C155.08 132.878 155.08 130.148 155.08 127.399C157.388 106.91 159.656 86.6413 160.218 66.2825C160.308 62.2187 160.339 58.1449 160.268 54.0511C159.706 32.9497 155.251 12.8919 155.07 -8.63084C155.08 -12.6745 155.08 -16.3469 155.08 -19.5879C155.08 -29.2807 155.08 -34.9799 155.08 -34.9799M168.417 218.427C168.417 218.427 168.417 177.117 168.417 127.861C168.417 124.961 168.417 122.041 168.427 119.101C170.113 95.4511 170.625 72.5236 169.942 49.4957C169.842 46.2046 169.721 42.9134 169.571 39.6223C168.607 30.7323 168.607 20.6983 168.417 11.9889C168.417 7.3532 168.417 2.96837 168.417 -1.1355C168.417 -21.6549 168.417 -34.9599 168.417 -34.9599M181.753 218.427C181.753 218.427 181.753 169.923 181.753 115.358C181.753 112.629 181.753 109.89 181.774 107.151C181.974 84.193 183.088 59.6801 181.774 36.4416C181.753 33.8929 181.753 31.4045 181.753 28.9663C181.753 -7.69769 181.753 -34.9799 181.753 -34.9799M195.09 218.427C195.09 218.427 195.09 161.254 195.09 101.221C195.09 98.0599 195.09 94.8892 195.09 91.7285C195.351 79.748 195.351 66.3728 195.09 54.2217C195.09 51.1814 195.09 48.1712 195.09 45.2012C195.09 0.660581 195.09 -34.9799 195.09 -34.9799M208.427 218.427V-34.9699" stroke="white" stroke-width="0.357143" stroke-miterlimit="10"/>
</g>
<defs>
<linearGradient id="paint0_linear_456_3018" x1="40.9489" y1="-58.3159" x2="-20.9273" y2="82.556" gradientUnits="userSpaceOnUse">
<stop stop-color="#A42E32"/>
<stop offset="1" stop-color="#E52A31"/>
</linearGradient>
<clipPath id="clip0_456_3018">
<rect width="124" height="124" fill="white"/>
</clipPath>
</defs>
</svg>
