<svg width="250" height="250" viewBox="0 0 250 250" fill="none" xmlns="http://www.w3.org/2000/svg">
<g opacity="0.2">
<g clip-path="url(#clip0_456_3011)">
<circle cx="125" cy="125" r="125" fill="url(#paint0_linear_456_3011)"/>
<circle cx="125" cy="125" r="125" fill="#C1C1C1"/>
<g filter="url(#filter0_d_456_3011)">
<g filter="url(#filter1_d_456_3011)">
<path fill-rule="evenodd" clip-rule="evenodd" d="M105.143 148.331L119.18 146.94C119.504 146.909 119.8 147.075 119.938 147.369C120.078 147.663 120.021 147.997 119.792 148.226L108.028 159.99C107.735 160.283 107.736 160.763 108.03 161.057L113.183 166.211C113.478 166.505 113.958 166.505 114.251 166.212L136.285 144.178C136.578 143.885 136.578 143.405 136.283 143.111L130.861 137.688C130.688 137.515 130.466 137.439 130.225 137.472L113.421 139.732L113.466 139.687L107.318 140.457C107.079 140.487 106.86 140.412 106.689 140.241C106.519 140.071 106.444 139.852 106.473 139.612L107.244 133.465L107.199 133.51L109.458 116.706C109.491 116.464 109.416 116.243 109.243 116.07L103.82 110.648C103.526 110.353 103.046 110.353 102.753 110.646L80.7188 132.68C80.4256 132.973 80.4257 133.453 80.7202 133.748L85.8733 138.901C86.1678 139.195 86.6482 139.196 86.9414 138.903L98.7048 127.139C98.9342 126.91 99.2675 126.853 99.5614 126.992C99.8563 127.131 100.022 127.427 99.9901 127.751L98.5998 141.788C98.5766 142.021 98.6514 142.232 98.8173 142.398L104.533 148.113C104.699 148.279 104.909 148.354 105.143 148.331L105.143 148.331ZM34.2582 179.141L12.2249 201.174C11.9311 201.468 11.9313 201.948 12.2258 202.242L17.3789 207.395C17.6734 207.69 18.1537 207.69 18.4475 207.397L26.0007 199.843C26.2945 199.55 26.7737 199.55 27.0683 199.845L27.8378 200.614C28.1077 200.884 28.1354 201.304 27.9051 201.607C23.5397 207.335 22.8478 214.242 31.0685 222.462L32.3131 223.707C41.8195 233.213 49.5839 230.773 55.8236 224.533L57.6174 222.739C63.857 216.5 66.2982 208.735 56.7917 199.228L55.5471 197.984C47.1554 189.592 40.1433 190.51 34.3142 195.114C34.0129 195.353 33.5836 195.328 33.3114 195.056L32.5841 194.329C32.2895 194.034 32.2895 193.554 32.5832 193.261L40.4807 185.363C40.7746 185.069 40.7739 184.589 40.4794 184.294L35.3264 179.141C35.0319 178.847 34.552 178.847 34.2582 179.141L34.2582 179.141ZM37.3619 204.277C40.8437 200.795 44.0504 197.588 50.6187 204.156C57.187 210.725 53.9803 213.931 50.4985 217.413C46.9815 220.93 43.7751 224.137 37.2069 217.568C30.6386 211 33.8449 207.794 37.3619 204.277ZM82.1601 158.548L65.6436 175.065C65.3497 175.359 64.8696 175.358 64.5755 175.064L58.2123 168.701C57.9177 168.406 57.9176 167.927 58.2114 167.633L74.7279 151.116C75.0217 150.822 75.021 150.342 74.7265 150.048L69.5735 144.895C69.2789 144.6 68.7992 144.6 68.5054 144.894L46.4721 166.927C46.1788 167.22 46.1789 167.7 46.4734 167.995L78.9365 200.458C79.2311 200.752 79.7109 200.752 80.0043 200.459L102.037 178.426C102.331 178.132 102.331 177.652 102.036 177.358L96.8835 172.205C96.589 171.91 96.1088 171.909 95.8149 172.203L79.2984 188.72C79.0046 189.014 78.5249 189.014 78.2303 188.719L71.8672 182.356C71.5725 182.061 71.5724 181.581 71.8662 181.288L88.3827 164.771C88.6766 164.477 88.6758 163.997 88.3817 163.703L83.2283 158.549C82.9338 158.255 82.454 158.255 82.1602 158.549L82.1601 158.548Z" fill="white"/>
</g>
<g filter="url(#filter2_d_456_3011)">
<path fill-rule="evenodd" clip-rule="evenodd" d="M202.969 50.5054L217.005 49.1146C217.329 49.0829 217.625 49.2489 217.764 49.5433C217.903 49.8377 217.846 50.1711 217.617 50.4004L205.853 62.1638C205.56 62.4571 205.561 62.9374 205.855 63.2315L211.008 68.3849C211.303 68.6795 211.783 68.6796 212.076 68.3864L234.11 46.3526C234.403 46.0592 234.403 45.5795 234.108 45.2849L228.686 39.8623C228.513 39.6894 228.291 39.6137 228.05 39.6467L211.246 41.9066L211.291 41.8615L205.144 42.6318C204.904 42.6617 204.685 42.5866 204.514 42.4157C204.344 42.2452 204.269 42.0263 204.299 41.7867L205.069 35.639L205.024 35.684L207.284 18.8806C207.316 18.6385 207.241 18.4175 207.068 18.2446L201.645 12.822C201.351 12.5274 200.871 12.5272 200.578 12.8205L178.544 34.8544C178.251 35.1476 178.251 35.6275 178.545 35.922L183.698 41.075C183.993 41.3695 184.473 41.3702 184.767 41.0769L196.53 29.3135C196.759 29.0841 197.093 29.027 197.387 29.1663C197.682 29.3055 197.848 29.6015 197.815 29.9248L196.425 43.9619C196.402 44.1955 196.477 44.4061 196.642 44.572L202.358 50.2872C202.524 50.4536 202.735 50.5283 202.968 50.5052L202.969 50.5054ZM132.083 81.315L110.05 103.348C109.756 103.642 109.757 104.122 110.051 104.416L115.204 109.569C115.499 109.864 115.979 109.865 116.273 109.571L123.826 102.018C124.12 101.724 124.599 101.724 124.894 102.019L125.663 102.789C125.933 103.058 125.961 103.479 125.73 103.781C121.365 109.509 120.673 116.416 128.894 124.637L130.138 125.881C139.645 135.388 147.409 132.947 153.649 126.707L155.443 124.914C161.682 118.674 164.123 110.909 154.617 101.403L153.372 100.158C144.981 91.7663 137.968 92.6848 132.139 97.2888C131.838 97.5276 131.409 97.5025 131.137 97.2304L130.409 96.503C130.115 96.2084 130.115 95.7287 130.408 95.4349L138.306 87.5374C138.6 87.2436 138.599 86.7632 138.305 86.4687L133.152 81.3156C132.857 81.0211 132.377 81.021 132.083 81.3148L132.083 81.315ZM135.187 106.451C138.669 102.969 141.876 99.7624 148.444 106.331C155.012 112.899 151.806 116.106 148.324 119.588C144.807 123.104 141.6 126.311 135.032 119.743C128.464 113.174 131.67 109.968 135.187 106.451ZM179.985 60.7228L163.469 77.2393C163.175 77.5331 162.695 77.5325 162.401 77.2384L156.038 70.8752C155.743 70.5806 155.743 70.101 156.037 69.8071L172.553 53.2906C172.847 52.9968 172.846 52.5165 172.552 52.222L167.399 47.069C167.104 46.7744 166.624 46.7742 166.331 47.0681L144.297 69.1013C144.004 69.3946 144.004 69.8745 144.299 70.169L176.762 102.632C177.056 102.927 177.536 102.927 177.829 102.633L199.863 80.6002C200.157 80.3063 200.156 79.8266 199.862 79.532L194.709 74.379C194.414 74.0845 193.934 74.0838 193.64 74.3776L177.124 90.8941C176.83 91.188 176.35 91.1878 176.056 90.8932L169.692 84.5301C169.398 84.2354 169.398 83.7558 169.691 83.4619L186.208 66.9454C186.502 66.6516 186.501 66.1713 186.207 65.8772L181.054 60.7238C180.759 60.4293 180.279 60.429 179.985 60.7229L179.985 60.7228Z" fill="white"/>
</g>
<g filter="url(#filter3_d_456_3011)">
<path fill-rule="evenodd" clip-rule="evenodd" d="M111.517 63.8074L125.553 62.4166C125.877 62.3849 126.173 62.5509 126.312 62.8453C126.452 63.1397 126.395 63.4731 126.165 63.7024L114.402 75.4658C114.109 75.7591 114.109 76.2394 114.403 76.5335L119.557 81.6869C119.851 81.9815 120.331 81.9816 120.624 81.6884L142.658 59.6546C142.952 59.3612 142.951 58.8815 142.657 58.5869L137.234 53.1643C137.061 52.9914 136.84 52.9157 136.598 52.9487L119.795 55.2086L119.84 55.1635L113.692 55.9338C113.453 55.9637 113.234 55.8886 113.063 55.7177C112.892 55.5472 112.817 55.3283 112.847 55.0887L113.617 48.941L113.572 48.986L115.832 32.1826C115.865 31.9405 115.789 31.7195 115.616 31.5466L110.194 26.124C109.899 25.8294 109.42 25.8292 109.126 26.1225L87.0924 48.1564C86.7991 48.4496 86.7993 48.9295 87.0938 49.224L92.2468 54.377C92.5413 54.6715 93.0217 54.6722 93.3149 54.3789L105.078 42.6155C105.308 42.3862 105.641 42.329 105.935 42.4683C106.23 42.6075 106.396 42.9035 106.364 43.2268L104.973 57.2639C104.95 57.4975 105.025 57.7081 105.191 57.874L110.906 63.5892C111.072 63.7556 111.283 63.8303 111.517 63.8072L111.517 63.8074ZM40.6317 94.617L18.5985 116.65C18.3046 116.944 18.3049 117.424 18.5994 117.718L23.7524 122.871C24.0469 123.166 24.5272 123.167 24.821 122.873L32.3743 115.32C32.668 115.026 33.1472 115.026 33.4419 115.321L34.2114 116.091C34.4812 116.36 34.5089 116.781 34.2787 117.083C29.9133 122.811 29.2214 129.718 37.4421 137.939L38.6866 139.183C48.193 148.69 55.9574 146.249 62.1972 140.009L63.9909 138.216C70.2305 131.976 72.6717 124.211 63.1652 114.705L61.9207 113.46C53.529 105.068 46.5168 105.987 40.6877 110.591C40.3864 110.83 39.9571 110.805 39.685 110.532L38.9576 109.805C38.663 109.51 38.663 109.031 38.9567 108.737L46.8543 100.839C47.1481 100.546 47.1475 100.065 46.8529 99.7707L41.6999 94.6176C41.4054 94.3231 40.9255 94.323 40.6317 94.6168L40.6317 94.617ZM43.7354 119.753C47.2173 116.271 50.424 113.064 56.9923 119.633C63.5605 126.201 60.3538 129.408 56.872 132.89C53.3551 136.406 50.1487 139.613 43.5804 133.045C37.0121 126.476 40.2184 123.27 43.7354 119.753ZM88.5336 74.0248L72.0171 90.5413C71.7233 90.8351 71.2431 90.8345 70.949 90.5404L64.5859 84.1772C64.2912 83.8826 64.2911 83.403 64.5849 83.1091L81.1014 66.5926C81.3953 66.2988 81.3946 65.8185 81.1 65.524L75.947 60.371C75.6525 60.0764 75.1727 60.0762 74.8789 60.3701L52.8457 82.4033C52.5524 82.6966 52.5525 83.1765 52.847 83.471L85.31 115.934C85.6046 116.229 86.0845 116.229 86.3778 115.935L108.411 93.9022C108.705 93.6083 108.705 93.1286 108.41 92.834L103.257 87.681C102.963 87.3865 102.482 87.3858 102.188 87.6796L85.6719 104.196C85.3781 104.49 84.8985 104.49 84.6038 104.195L78.2407 97.8321C77.9461 97.5375 77.9459 97.0578 78.2398 96.764L94.7563 80.2474C95.0501 79.9536 95.0494 79.4733 94.7553 79.1792L89.6018 74.0258C89.3073 73.7313 88.8276 73.731 88.5337 74.0249L88.5336 74.0248Z" fill="white"/>
</g>
<g filter="url(#filter4_d_456_3011)">
<path fill-rule="evenodd" clip-rule="evenodd" d="M13.6912 161.633L27.7277 160.242C28.0517 160.211 28.3476 160.377 28.4863 160.671C28.626 160.965 28.5689 161.299 28.3395 161.528L16.5761 173.292C16.2829 173.585 16.2836 174.065 16.5777 174.359L21.731 179.513C22.0256 179.807 22.5055 179.807 22.7987 179.514L44.8325 157.48C45.1259 157.187 45.1256 156.707 44.831 156.413L39.4084 150.99C39.2356 150.817 39.0141 150.741 38.7725 150.774L21.9691 153.034L22.0141 152.989L15.8663 153.759C15.6268 153.789 15.4078 153.714 15.237 153.543C15.0665 153.373 14.9914 153.154 15.0213 152.914L15.7916 146.767L15.7465 146.812L18.0063 130.008C18.0389 129.766 17.9636 129.545 17.7908 129.372L12.3681 123.95C12.0736 123.655 11.5939 123.655 11.3005 123.948L-10.7333 145.982C-11.0265 146.275 -11.0264 146.755 -10.7319 147.05L-5.57888 152.203C-5.28436 152.497 -4.80399 152.498 -4.51077 152.205L7.25264 140.441C7.48202 140.212 7.81535 140.155 8.10925 140.294C8.40418 140.433 8.57026 140.729 8.53795 141.053L7.14765 155.09C7.12447 155.323 7.19926 155.534 7.36515 155.7L13.0804 161.415C13.2468 161.581 13.4572 161.656 13.691 161.633L13.6912 161.633ZM-57.194 192.443L-79.2272 214.476C-79.521 214.77 -79.5208 215.25 -79.2263 215.544L-74.0733 220.697C-73.7788 220.992 -73.2985 220.992 -73.0047 220.699L-65.4514 213.145C-65.1577 212.852 -64.6784 212.852 -64.3838 213.147L-63.6143 213.916C-63.3445 214.186 -63.3168 214.606 -63.547 214.909C-67.9124 220.637 -68.6043 227.544 -60.3836 235.764L-59.139 237.009C-49.6326 246.515 -41.8683 244.075 -35.6285 237.835L-33.8348 236.041C-27.5951 229.802 -25.1539 222.037 -34.6604 212.53L-35.905 211.286C-44.2967 202.894 -51.3089 203.812 -57.138 208.416C-57.4393 208.655 -57.8686 208.63 -58.1407 208.358L-58.868 207.631C-59.1627 207.336 -59.1627 206.856 -58.869 206.563L-50.9714 198.665C-50.6776 198.371 -50.6782 197.891 -50.9727 197.596L-56.1258 192.443C-56.4203 192.149 -56.9001 192.149 -57.194 192.443L-57.194 192.443ZM-54.0903 217.579C-50.6084 214.097 -47.4017 210.89 -40.8334 217.458C-34.2651 224.027 -37.4718 227.233 -40.9537 230.715C-44.4706 234.232 -47.677 237.439 -54.2453 230.87C-60.8136 224.302 -57.6073 221.096 -54.0903 217.579ZM-9.29207 171.85L-25.8086 188.367C-26.1024 188.661 -26.5826 188.66 -26.8767 188.366L-33.2398 182.003C-33.5345 181.708 -33.5346 181.229 -33.2407 180.935L-16.7242 164.418C-16.4304 164.124 -16.4311 163.644 -16.7256 163.35L-21.8787 158.197C-22.1732 157.902 -22.6529 157.902 -22.9468 158.196L-44.98 180.229C-45.2733 180.522 -45.2732 181.002 -44.9787 181.297L-12.5157 213.76C-12.2211 214.054 -11.7412 214.054 -11.4479 213.761L10.5853 191.728C10.8792 191.434 10.879 190.954 10.5843 190.66L5.43139 185.507C5.13688 185.212 4.6566 185.211 4.36277 185.505L-12.1537 202.022C-12.4476 202.316 -12.9272 202.316 -13.2218 202.021L-19.585 195.658C-19.8796 195.363 -19.8797 194.883 -19.5859 194.59L-3.0694 178.073C-2.77557 177.779 -2.7763 177.299 -3.0704 177.005L-8.22384 171.851C-8.51836 171.557 -8.99812 171.557 -9.29196 171.851L-9.29207 171.85Z" fill="white"/>
</g>
<g filter="url(#filter5_d_456_3011)">
<path fill-rule="evenodd" clip-rule="evenodd" d="M209.343 -34.0183L223.379 -35.4091C223.703 -35.4408 223.999 -35.2748 224.138 -34.9804C224.277 -34.686 224.22 -34.3526 223.991 -34.1232L212.227 -22.3598C211.934 -22.0666 211.935 -21.5863 212.229 -21.2922L217.382 -16.1388C217.677 -15.8442 218.157 -15.8441 218.45 -16.1373L240.484 -38.1711C240.777 -38.4644 240.777 -38.9442 240.482 -39.2388L235.06 -44.6614C234.887 -44.8342 234.665 -44.91 234.424 -44.877L217.62 -42.6171L217.665 -42.6622L211.518 -41.8919C211.278 -41.862 211.059 -41.9371 210.888 -42.108C210.718 -42.2785 210.643 -42.4974 210.673 -42.737L211.443 -48.8847L211.398 -48.8397L213.658 -65.6431C213.69 -65.8852 213.615 -66.1062 213.442 -66.279L208.019 -71.7017C207.725 -71.9962 207.245 -71.9965 206.952 -71.7031L184.918 -49.6693C184.625 -49.3761 184.625 -48.8962 184.919 -48.6017L190.072 -43.4487C190.367 -43.1542 190.847 -43.1535 191.141 -43.4467L202.904 -55.2101C203.133 -55.4395 203.467 -55.4967 203.761 -55.3574C204.056 -55.2182 204.222 -54.9222 204.189 -54.5989L202.799 -40.5618C202.776 -40.3282 202.851 -40.1176 203.017 -39.9517L208.732 -34.2365C208.898 -34.0701 209.109 -33.9954 209.342 -34.0185L209.343 -34.0183ZM138.457 -3.20864L116.424 18.8246C116.13 19.1184 116.131 19.5982 116.425 19.8927L121.578 25.0457C121.873 25.3402 122.353 25.341 122.647 25.0472L130.2 17.4939C130.494 17.2002 130.973 17.2007 131.268 17.4953L132.037 18.2648C132.307 18.5347 132.335 18.9549 132.104 19.2576C127.739 24.9852 127.047 31.8922 135.268 40.1129L136.512 41.3575C146.019 50.8639 153.783 48.4233 160.023 42.1836L161.817 40.3898C168.056 34.1502 170.497 26.3854 160.991 16.8789L159.746 15.6343C151.355 7.24265 144.342 8.16111 138.513 12.7651C138.212 13.0039 137.783 12.9788 137.511 12.7067L136.783 11.9794C136.489 11.6847 136.489 11.205 136.782 10.9112L144.68 3.01371C144.974 2.71987 144.973 2.2395 144.679 1.94498L139.526 -3.20804C139.231 -3.50256 138.751 -3.50269 138.457 -3.20885L138.457 -3.20864ZM141.561 21.9273C145.043 18.4454 148.25 15.2387 154.818 21.807C161.386 28.3753 158.18 31.582 154.698 35.0638C151.181 38.5808 147.974 41.7871 141.406 35.2189C134.838 28.6506 138.044 25.4443 141.561 21.9273ZM186.359 -23.8009L169.843 -7.28439C169.549 -6.99056 169.069 -6.99118 168.775 -7.28529L162.412 -13.6484C162.117 -13.9431 162.117 -14.4227 162.411 -14.7166L178.927 -31.2331C179.221 -31.5269 179.22 -32.0072 178.926 -32.3017L173.773 -37.4547C173.478 -37.7492 172.998 -37.7495 172.705 -37.4556L150.671 -15.4224C150.378 -15.1291 150.378 -14.6492 150.673 -14.3547L183.136 18.1083C183.43 18.4029 183.91 18.403 184.203 18.1097L206.237 -3.92351C206.531 -4.21734 206.53 -4.69708 206.236 -4.99171L201.083 -10.1446C200.788 -10.4392 200.308 -10.4399 200.014 -10.1461L183.498 6.37044C183.204 6.66428 182.724 6.66417 182.43 6.36954L176.066 0.00639007C175.772 -0.288233 175.772 -0.767894 176.065 -1.06173L192.582 -17.5782C192.876 -17.8721 192.875 -18.3523 192.581 -18.6464L187.428 -23.7999C187.133 -24.0944 186.653 -24.0946 186.359 -23.8008L186.359 -23.8009Z" fill="white"/>
</g>
<g filter="url(#filter6_d_456_3011)">
<path fill-rule="evenodd" clip-rule="evenodd" d="M-13.7444 110.919L0.292201 109.528C0.616114 109.497 0.912007 109.662 1.05073 109.957C1.1905 110.251 1.13338 110.585 0.903995 110.814L-10.8594 122.577C-11.1526 122.871 -11.152 123.351 -10.8579 123.645L-5.70453 128.798C-5.40991 129.093 -4.93007 129.093 -4.63686 128.8L17.397 106.766C17.6903 106.473 17.6901 105.993 17.3955 105.698L11.9729 100.276C11.8 100.103 11.5786 100.027 11.337 100.06L-5.46647 102.32L-5.42143 102.275L-11.5692 103.045C-11.8087 103.075 -12.0277 103 -12.1986 102.829C-12.3691 102.659 -12.4442 102.44 -12.4143 102.2L-11.644 96.0525L-11.689 96.0976L-9.4292 79.2941C-9.39668 79.052 -9.47191 78.8311 -9.64477 78.6582L-15.0674 73.2355C-15.362 72.941 -15.8417 72.9408 -16.135 73.2341L-38.1689 95.268C-38.4621 95.5612 -38.462 96.041 -38.1674 96.3355L-33.0144 101.489C-32.7199 101.783 -32.2395 101.784 -31.9463 101.491L-20.1829 89.7271C-19.9535 89.4977 -19.6202 89.4406 -19.3263 89.5798C-19.0314 89.7191 -18.8653 90.0151 -18.8976 90.3384L-20.2879 104.375C-20.3111 104.609 -20.2363 104.82 -20.0704 104.986L-14.3552 110.701C-14.1888 110.867 -13.9783 110.942 -13.7446 110.919L-13.7444 110.919ZM-84.6295 141.729L-106.663 163.762C-106.957 164.056 -106.956 164.535 -106.662 164.83L-101.509 169.983C-101.214 170.278 -100.734 170.278 -100.44 169.984L-92.887 162.431C-92.5932 162.137 -92.114 162.138 -91.8194 162.433L-91.0499 163.202C-90.78 163.472 -90.7523 163.892 -90.9826 164.195C-95.348 169.922 -96.0399 176.829 -87.8192 185.05L-86.5746 186.295C-77.0682 195.801 -69.3038 193.361 -63.0641 187.121L-61.2703 185.327C-55.0307 179.087 -52.5895 171.323 -62.096 161.816L-63.3406 160.572C-71.7323 152.18 -78.7444 153.098 -84.5735 157.702C-84.8748 157.941 -85.3041 157.916 -85.5763 157.644L-86.3036 156.917C-86.5982 156.622 -86.5982 156.142 -86.3045 155.848L-78.407 147.951C-78.1131 147.657 -78.1138 147.177 -78.4083 146.882L-83.5613 141.729C-83.8558 141.435 -84.3357 141.435 -84.6295 141.728L-84.6295 141.729ZM-81.5258 166.865C-78.044 163.383 -74.8373 160.176 -68.269 166.744C-61.7007 173.313 -64.9074 176.519 -68.3892 180.001C-71.9062 183.518 -75.1125 186.724 -81.6808 180.156C-88.2491 173.588 -85.0428 170.382 -81.5258 166.865ZM-36.7276 121.136L-53.2441 137.653C-53.538 137.947 -54.0181 137.946 -54.3122 137.652L-60.6754 131.289C-60.97 130.994 -60.9701 130.515 -60.6763 130.221L-44.1598 113.704C-43.8659 113.41 -43.8667 112.93 -44.1612 112.636L-49.3142 107.483C-49.6088 107.188 -50.0885 107.188 -50.3823 107.482L-72.4156 129.515C-72.7089 129.808 -72.7088 130.288 -72.4142 130.583L-39.9512 163.046C-39.6566 163.34 -39.1768 163.34 -38.8834 163.047L-16.8502 141.014C-16.5564 140.72 -16.5566 140.24 -16.8512 139.946L-22.0042 134.793C-22.2987 134.498 -22.7789 134.497 -23.0728 134.791L-39.5893 151.308C-39.8831 151.602 -40.3628 151.601 -40.6574 151.307L-47.0205 144.944C-47.3152 144.649 -47.3153 144.169 -47.0215 143.876L-30.505 127.359C-30.2111 127.065 -30.2118 126.585 -30.5059 126.291L-35.6594 121.137C-35.9539 120.843 -36.4337 120.843 -36.7275 121.136L-36.7276 121.136Z" fill="white"/>
</g>
<g filter="url(#filter7_d_456_3011)">
<path fill-rule="evenodd" clip-rule="evenodd" d="M84.0818 13.0933L98.1184 11.7025C98.4423 11.6708 98.7382 11.8368 98.8769 12.1312C99.0167 12.4256 98.9595 12.7589 98.7302 12.9883L86.9668 24.7517C86.6735 25.045 86.6742 25.5253 86.9683 25.8194L92.1216 30.9728C92.4163 31.2674 92.8961 31.2675 93.1893 30.9743L115.223 8.94044C115.516 8.64712 115.516 8.16739 115.222 7.87277L109.799 2.45019C109.626 2.27733 109.405 2.20158 109.163 2.23461L92.3597 4.49445L92.4047 4.44941L86.257 5.21968C86.0174 5.24961 85.7985 5.17446 85.6276 5.00358C85.4571 4.83311 85.382 4.61414 85.4119 4.37462L86.1822 -1.77315L86.1371 -1.72811L88.397 -18.5315C88.4295 -18.7737 88.3543 -18.9946 88.1814 -19.1675L82.7587 -24.5901C82.4642 -24.8847 81.9845 -24.8849 81.6912 -24.5916L59.6573 -2.55771C59.3641 -2.2645 59.3642 -1.78466 59.6587 -1.49014L64.8117 3.66289C65.1063 3.9574 65.5866 3.95805 65.8799 3.66484L77.6433 -8.09858C77.8726 -8.32796 78.206 -8.38509 78.4999 -8.24584C78.7948 -8.1066 78.9609 -7.81058 78.9286 -7.48729L77.5383 6.54981C77.5151 6.78342 77.5899 6.99398 77.7558 7.15986L83.471 12.8751C83.6374 13.0415 83.8479 13.1162 84.0816 13.0931L84.0818 13.0933ZM13.1967 43.9029L-8.83659 65.9362C-9.13042 66.23 -9.13021 66.7098 -8.83569 67.0043L-3.68266 72.1573C-3.38815 72.4518 -2.90787 72.4526 -2.61404 72.1587L4.93921 64.6055C5.23295 64.3117 5.71218 64.3123 6.0068 64.6069L6.77629 65.3764C7.04615 65.6463 7.07383 66.0665 6.84361 66.3691C2.47822 72.0968 1.78631 79.0038 10.007 87.2245L11.2516 88.4691C20.758 97.9755 28.5224 95.5349 34.7621 89.2952L36.5558 87.5014C42.7955 81.2618 45.2367 73.497 35.7302 63.9905L34.4856 62.7459C26.0939 54.3542 19.0817 55.2727 13.2526 59.8767C12.9513 60.1155 12.5221 60.0904 12.2499 59.8183L11.5226 59.0909C11.228 58.7963 11.2279 58.3165 11.5217 58.0228L19.4192 50.1253C19.713 49.8314 19.7124 49.3511 19.4179 49.0566L14.2649 43.9035C13.9703 43.609 13.4905 43.6089 13.1966 43.9027L13.1967 43.9029ZM16.3004 69.0388C19.7822 65.557 22.9889 62.3503 29.5572 68.9186C36.1255 75.4869 32.9188 78.6936 29.4369 82.1754C25.92 85.6923 22.7136 88.8987 16.1453 82.3304C9.57706 75.7621 12.7833 72.5559 16.3004 69.0388ZM61.0986 23.3107L44.5821 39.8272C44.2882 40.121 43.8081 40.1204 43.514 39.8263L37.1508 33.4631C36.8562 33.1685 36.856 32.6888 37.1499 32.395L53.6664 15.8785C53.9602 15.5847 53.9595 15.1044 53.665 14.8099L48.5119 9.65685C48.2174 9.36233 47.7377 9.36212 47.4438 9.65595L25.4106 31.6892C25.1173 31.9825 25.1174 32.4623 25.4119 32.7569L57.8749 65.2199C58.1696 65.5145 58.6494 65.5146 58.9427 65.2213L80.976 43.1881C81.2698 42.8942 81.2696 42.4145 80.975 42.1199L75.822 36.9669C75.5275 36.6724 75.0472 36.6717 74.7534 36.9655L58.2369 53.482C57.943 53.7758 57.4634 53.7757 57.1688 53.4811L50.8056 47.118C50.511 46.8233 50.5109 46.3437 50.8047 46.0498L67.3212 29.5333C67.6151 29.2395 67.6143 28.7592 67.3202 28.4651L62.1668 23.3117C61.8723 23.0172 61.3925 23.0169 61.0987 23.3108L61.0986 23.3107Z" fill="white"/>
</g>
<g filter="url(#filter8_d_456_3011)">
<path fill-rule="evenodd" clip-rule="evenodd" d="M181.907 -84.7324L195.944 -86.1232C196.267 -86.1549 196.563 -85.9889 196.702 -85.6945C196.842 -85.4001 196.785 -85.0667 196.555 -84.8374L184.792 -73.0739C184.499 -72.7807 184.499 -72.3004 184.793 -72.0063L189.947 -66.8529C190.241 -66.5583 190.721 -66.5582 191.015 -66.8514L213.048 -88.8852C213.342 -89.1786 213.341 -89.6583 213.047 -89.9529L207.624 -95.3755C207.451 -95.5484 207.23 -95.6241 206.988 -95.5911L190.185 -93.3312L190.23 -93.3763L184.082 -92.606C183.843 -92.5761 183.624 -92.6512 183.453 -92.8221C183.282 -92.9926 183.207 -93.2115 183.237 -93.4511L184.007 -99.5988L183.962 -99.5538L186.222 -116.357C186.255 -116.599 186.179 -116.82 186.007 -116.993L180.584 -122.416C180.289 -122.71 179.81 -122.711 179.516 -122.417L157.482 -100.383C157.189 -100.09 157.189 -99.6103 157.484 -99.3158L162.637 -94.1628C162.931 -93.8683 163.412 -93.8676 163.705 -94.1608L175.468 -105.924C175.698 -106.154 176.031 -106.211 176.325 -106.072C176.62 -105.932 176.786 -105.636 176.754 -105.313L175.363 -91.2759C175.34 -91.0423 175.415 -90.8317 175.581 -90.6658L181.296 -84.9506C181.463 -84.7842 181.673 -84.7095 181.907 -84.7326L181.907 -84.7324ZM111.022 -53.9227L88.9886 -31.8895C88.6948 -31.5957 88.695 -31.1159 88.9895 -30.8214L94.1425 -25.6684C94.4371 -25.3739 94.9173 -25.3731 95.2112 -25.667L102.764 -33.2202C103.058 -33.5139 103.537 -33.5134 103.832 -33.2188L104.601 -32.4493C104.871 -32.1794 104.899 -31.7592 104.669 -31.4565C100.303 -25.7289 99.6115 -18.8219 107.832 -10.6012L109.077 -9.3566C118.583 0.149786 126.348 -2.29077 132.587 -8.53051L134.381 -10.3243C140.621 -16.5639 143.062 -24.3287 133.555 -33.8352L132.311 -35.0798C123.919 -43.4715 116.907 -42.553 111.078 -37.949C110.777 -37.7102 110.347 -37.7353 110.075 -38.0074L109.348 -38.7347C109.053 -39.0294 109.053 -39.5091 109.347 -39.8029L117.244 -47.7004C117.538 -47.9942 117.538 -48.4746 117.243 -48.7691L112.09 -53.9222C111.796 -54.2167 111.316 -54.2168 111.022 -53.923L111.022 -53.9227ZM114.126 -28.7868C117.607 -32.2687 120.814 -35.4754 127.382 -28.9071C133.951 -22.3388 130.744 -19.1321 127.262 -15.6503C123.745 -12.1333 120.539 -8.92697 113.971 -15.4953C107.402 -22.0635 110.609 -25.2698 114.126 -28.7868ZM158.924 -74.515L142.407 -57.9985C142.113 -57.7047 141.633 -57.7053 141.339 -57.9994L134.976 -64.3626C134.681 -64.6572 134.681 -65.1368 134.975 -65.4307L151.492 -81.9472C151.785 -82.241 151.785 -82.7213 151.49 -83.0158L146.337 -88.1688C146.043 -88.4634 145.563 -88.4636 145.269 -88.1697L123.236 -66.1365C122.942 -65.8432 122.943 -65.3633 123.237 -65.0688L155.7 -32.6058C155.995 -32.3112 156.475 -32.3111 156.768 -32.6044L178.801 -54.6376C179.095 -54.9315 179.095 -55.4112 178.8 -55.7058L173.647 -60.8588C173.353 -61.1533 172.872 -61.154 172.579 -60.8602L156.062 -44.3437C155.768 -44.0498 155.289 -44.0499 154.994 -44.3446L148.631 -50.7077C148.336 -51.0023 148.336 -51.482 148.63 -51.7758L165.146 -68.2923C165.44 -68.5862 165.44 -69.0664 165.145 -69.3605L159.992 -74.514C159.697 -74.8085 159.218 -74.8087 158.924 -74.5149L158.924 -74.515Z" fill="white"/>
</g>
<g filter="url(#filter9_d_456_3011)">
<path fill-rule="evenodd" clip-rule="evenodd" d="M161.677 169.947L175.713 168.556C176.037 168.525 176.333 168.691 176.472 168.985C176.611 169.279 176.554 169.613 176.325 169.842L164.561 181.605C164.268 181.899 164.269 182.379 164.563 182.673L169.716 187.827C170.011 188.121 170.491 188.121 170.784 187.828L192.818 165.794C193.111 165.501 193.111 165.021 192.816 164.727L187.394 159.304C187.221 159.131 186.999 159.055 186.758 159.088L169.954 161.348L169.999 161.303L163.852 162.073C163.612 162.103 163.393 162.028 163.222 161.857C163.052 161.687 162.977 161.468 163.007 161.228L163.777 155.081L163.732 155.126L165.992 138.322C166.024 138.08 165.949 137.859 165.776 137.686L160.353 132.264C160.059 131.969 159.579 131.969 159.286 132.262L137.252 154.296C136.959 154.589 136.959 155.069 137.253 155.364L142.406 160.517C142.701 160.811 143.181 160.812 143.475 160.519L155.238 148.755C155.467 148.526 155.801 148.469 156.095 148.608C156.39 148.747 156.556 149.043 156.523 149.366L155.133 163.404C155.11 163.637 155.185 163.848 155.351 164.014L161.066 169.729C161.232 169.895 161.443 169.97 161.676 169.947L161.677 169.947ZM90.7914 200.757L68.7581 222.79C68.4643 223.084 68.4645 223.564 68.759 223.858L73.9121 229.011C74.2066 229.306 74.6869 229.306 74.9807 229.012L82.5339 221.459C82.8277 221.166 83.3069 221.166 83.6015 221.461L84.371 222.23C84.6409 222.5 84.6686 222.92 84.4383 223.223C80.0729 228.951 79.381 235.858 87.6017 244.078L88.8463 245.323C98.3527 254.829 106.117 252.389 112.357 246.149L114.151 244.355C120.39 238.116 122.831 230.351 113.325 220.844L112.08 219.6C103.689 211.208 96.6765 212.126 90.8474 216.73C90.5461 216.969 90.1168 216.944 89.8446 216.672L89.1173 215.945C88.8227 215.65 88.8227 215.17 89.1164 214.877L97.0139 206.979C97.3078 206.685 97.3071 206.205 97.0126 205.91L91.8596 200.757C91.5651 200.463 91.0852 200.463 90.7914 200.756L90.7914 200.757ZM93.8951 225.893C97.3769 222.411 100.584 219.204 107.152 225.772C113.72 232.341 110.514 235.547 107.032 239.029C103.515 242.546 100.308 245.752 93.7401 239.184C87.1718 232.616 90.3781 229.41 93.8951 225.893ZM138.693 180.164L122.177 196.681C121.883 196.975 121.403 196.974 121.109 196.68L114.746 190.317C114.451 190.022 114.451 189.543 114.745 189.249L131.261 172.732C131.555 172.438 131.554 171.958 131.26 171.664L126.107 166.511C125.812 166.216 125.332 166.216 125.039 166.51L103.005 188.543C102.712 188.836 102.712 189.316 103.007 189.611L135.47 222.074C135.764 222.368 136.244 222.368 136.537 222.075L158.571 200.042C158.865 199.748 158.864 199.268 158.57 198.974L153.417 193.821C153.122 193.526 152.642 193.525 152.348 193.819L135.832 210.336C135.538 210.63 135.058 210.629 134.764 210.335L128.4 203.972C128.106 203.677 128.106 203.197 128.399 202.904L144.916 186.387C145.21 186.093 145.209 185.613 144.915 185.319L139.762 180.165C139.467 179.871 138.987 179.871 138.693 180.165L138.693 180.164Z" fill="white"/>
</g>
<g filter="url(#filter10_d_456_3011)">
<path fill-rule="evenodd" clip-rule="evenodd" d="M259.503 72.1211L273.539 70.7303C273.863 70.6987 274.159 70.8646 274.298 71.159C274.438 71.4534 274.38 71.7868 274.151 72.0162L262.388 83.7796C262.094 84.0728 262.095 84.5531 262.389 84.8472L267.543 90.0006C267.837 90.2952 268.317 90.2953 268.61 90.0021L290.644 67.9683C290.937 67.675 290.937 67.1952 290.643 66.9006L285.22 61.478C285.047 61.3052 284.826 61.2294 284.584 61.2624L267.781 63.5223L267.826 63.4772L261.678 64.2475C261.438 64.2774 261.219 64.2023 261.048 64.0314C260.878 63.8609 260.803 63.642 260.833 63.4025L261.603 57.2547L261.558 57.2997L263.818 40.4963C263.85 40.2542 263.775 40.0332 263.602 39.8604L258.18 34.4377C257.885 34.1432 257.405 34.1429 257.112 34.4363L235.078 56.4701C234.785 56.7633 234.785 57.2432 235.08 57.5377L240.233 62.6907C240.527 62.9852 241.008 62.9859 241.301 62.6927L253.064 50.9293C253.294 50.6999 253.627 50.6427 253.921 50.782C254.216 50.9212 254.382 51.2173 254.349 51.5405L252.959 65.5776C252.936 65.8112 253.011 66.0218 253.177 66.1877L258.892 71.9029C259.058 72.0693 259.269 72.144 259.502 72.1209L259.503 72.1211ZM188.618 102.931L166.584 124.964C166.29 125.258 166.291 125.738 166.585 126.032L171.738 131.185C172.033 131.48 172.513 131.48 172.807 131.187L180.36 123.633C180.654 123.34 181.133 123.34 181.428 123.635L182.197 124.404C182.467 124.674 182.495 125.094 182.265 125.397C177.899 131.125 177.207 138.032 185.428 146.252L186.672 147.497C196.179 157.003 203.943 154.563 210.183 148.323L211.977 146.529C218.216 140.29 220.658 132.525 211.151 123.018L209.907 121.774C201.515 113.382 194.503 114.301 188.674 118.904C188.372 119.143 187.943 119.118 187.671 118.846L186.943 118.119C186.649 117.824 186.649 117.344 186.943 117.051L194.84 109.153C195.134 108.859 195.133 108.379 194.839 108.084L189.686 102.931C189.391 102.637 188.911 102.637 188.618 102.931L188.618 102.931ZM191.721 128.067C195.203 124.585 198.41 121.378 204.978 127.946C211.546 134.515 208.34 137.721 204.858 141.203C201.341 144.72 198.135 147.927 191.566 141.358C184.998 134.79 188.204 131.584 191.721 128.067ZM236.519 82.3385L220.003 98.855C219.709 99.1488 219.229 99.1482 218.935 98.8541L212.572 92.491C212.277 92.1963 212.277 91.7167 212.571 91.4228L229.087 74.9063C229.381 74.6125 229.38 74.1322 229.086 73.8377L223.933 68.6847C223.638 68.3902 223.159 68.3899 222.865 68.6838L200.832 90.717C200.538 91.0103 200.538 91.4902 200.833 91.7847L233.296 124.248C233.59 124.542 234.07 124.542 234.364 124.249L256.397 102.216C256.691 101.922 256.69 101.442 256.396 101.148L251.243 95.9948C250.948 95.7002 250.468 95.6995 250.174 95.9933L233.658 112.51C233.364 112.804 232.884 112.804 232.59 112.509L226.227 106.146C225.932 105.851 225.932 105.372 226.226 105.078L242.742 88.5612C243.036 88.2673 243.035 87.7871 242.741 87.493L237.588 82.3395C237.293 82.045 236.813 82.0448 236.52 82.3386L236.519 82.3385Z" fill="white"/>
</g>
<g filter="url(#filter11_d_456_3011)">
<path fill-rule="evenodd" clip-rule="evenodd" d="M218.211 191.563L232.247 190.172C232.571 190.141 232.867 190.306 233.006 190.601C233.146 190.895 233.088 191.229 232.859 191.458L221.096 203.221C220.802 203.515 220.803 203.995 221.097 204.289L226.251 209.443C226.545 209.737 227.025 209.737 227.318 209.444L249.352 187.41C249.645 187.117 249.645 186.637 249.351 186.342L243.928 180.92C243.755 180.747 243.534 180.671 243.292 180.704L226.489 182.964L226.534 182.919L220.386 183.689C220.146 183.719 219.927 183.644 219.756 183.473C219.586 183.303 219.511 183.084 219.541 182.844L220.311 176.697L220.266 176.742L222.526 159.938C222.558 159.696 222.483 159.475 222.31 159.302L216.888 153.88C216.593 153.585 216.113 153.585 215.82 153.878L193.786 175.912C193.493 176.205 193.493 176.685 193.788 176.98L198.941 182.133C199.235 182.427 199.716 182.428 200.009 182.135L211.772 170.371C212.002 170.142 212.335 170.085 212.629 170.224C212.924 170.363 213.09 170.659 213.057 170.982L211.667 185.02C211.644 185.253 211.719 185.464 211.885 185.63L217.6 191.345C217.766 191.511 217.977 191.586 218.21 191.563L218.211 191.563ZM147.326 222.373L125.292 244.406C124.998 244.7 124.999 245.179 125.293 245.474L130.446 250.627C130.741 250.922 131.221 250.922 131.515 250.628L139.068 243.075C139.362 242.781 139.841 242.782 140.136 243.077L140.905 243.846C141.175 244.116 141.203 244.536 140.973 244.839C136.607 250.567 135.915 257.474 144.136 265.694L145.38 266.939C154.887 276.445 162.651 274.005 168.891 267.765L170.685 265.971C176.924 259.732 179.366 251.967 169.859 242.46L168.615 241.216C160.223 232.824 153.211 233.742 147.382 238.346C147.08 238.585 146.651 238.56 146.379 238.288L145.651 237.561C145.357 237.266 145.357 236.786 145.651 236.493L153.548 228.595C153.842 228.301 153.841 227.821 153.547 227.526L148.394 222.373C148.099 222.079 147.619 222.079 147.326 222.372L147.326 222.373ZM150.429 247.509C153.911 244.027 157.118 240.82 163.686 247.388C170.254 253.957 167.048 257.163 163.566 260.645C160.049 264.162 156.843 267.368 150.274 260.8C143.706 254.232 146.912 251.026 150.429 247.509ZM195.227 201.78L178.711 218.297C178.417 218.591 177.937 218.59 177.643 218.296L171.28 211.933C170.985 211.638 170.985 211.159 171.279 210.865L187.795 194.348C188.089 194.054 188.088 193.574 187.794 193.28L182.641 188.127C182.346 187.832 181.867 187.832 181.573 188.126L159.54 210.159C159.246 210.452 159.246 210.932 159.541 211.227L192.004 243.69C192.298 243.984 192.778 243.984 193.072 243.691L215.105 221.658C215.399 221.364 215.398 220.884 215.104 220.59L209.951 215.437C209.656 215.142 209.176 215.141 208.882 215.435L192.366 231.952C192.072 232.246 191.592 232.245 191.298 231.951L184.935 225.588C184.64 225.293 184.64 224.813 184.934 224.52L201.45 208.003C201.744 207.709 201.743 207.229 201.449 206.935L196.296 201.781C196.001 201.487 195.521 201.487 195.228 201.781L195.227 201.78Z" fill="white"/>
</g>
<g filter="url(#filter12_d_456_3011)">
<path fill-rule="evenodd" clip-rule="evenodd" d="M316.036 93.7371L330.073 92.3463C330.397 92.3146 330.693 92.4806 330.831 92.775C330.971 93.0694 330.914 93.4027 330.685 93.6321L318.921 105.396C318.628 105.689 318.629 106.169 318.923 106.463L324.076 111.617C324.371 111.911 324.851 111.911 325.144 111.618L347.178 89.5842C347.471 89.2909 347.471 88.8112 347.176 88.5166L341.754 83.094C341.581 82.9211 341.359 82.8454 341.118 82.8784L324.314 85.1383L324.359 85.0932L318.212 85.8635C317.972 85.8934 317.753 85.8183 317.582 85.6474C317.412 85.4769 317.337 85.2579 317.367 85.0184L318.137 78.8706L318.092 78.9157L320.352 62.1123C320.384 61.8701 320.309 61.6492 320.136 61.4763L314.713 56.0537C314.419 55.7591 313.939 55.7589 313.646 56.0522L291.612 78.0861C291.319 78.3793 291.319 78.8591 291.613 79.1537L296.766 84.3067C297.061 84.6012 297.541 84.6018 297.834 84.3086L309.598 72.5452C309.827 72.3158 310.161 72.2587 310.454 72.398C310.749 72.5372 310.915 72.8332 310.883 73.1565L309.493 87.1936C309.47 87.4272 309.544 87.6378 309.71 87.8037L315.426 93.5189C315.592 93.6853 315.802 93.76 316.036 93.7369L316.036 93.7371ZM245.151 124.547L223.118 146.58C222.824 146.874 222.824 147.354 223.119 147.648L228.272 152.801C228.566 153.096 229.047 153.096 229.341 152.803L236.894 145.249C237.188 144.956 237.667 144.956 237.961 145.251L238.731 146.02C239.001 146.29 239.028 146.71 238.798 147.013C234.433 152.741 233.741 159.648 241.962 167.868L243.206 169.113C252.713 178.619 260.477 176.179 266.717 169.939L268.51 168.145C274.75 161.906 277.191 154.141 267.685 144.634L266.44 143.39C258.049 134.998 251.036 135.916 245.207 140.52C244.906 140.759 244.477 140.734 244.205 140.462L243.477 139.735C243.183 139.44 243.183 138.96 243.476 138.667L251.374 130.769C251.668 130.475 251.667 129.995 251.372 129.7L246.219 124.547C245.925 124.253 245.445 124.253 245.151 124.547L245.151 124.547ZM248.255 149.683C251.737 146.201 254.944 142.994 261.512 149.562C268.08 156.131 264.873 159.337 261.392 162.819C257.875 166.336 254.668 169.543 248.1 162.974C241.532 156.406 244.738 153.2 248.255 149.683ZM293.053 103.954L276.537 120.471C276.243 120.765 275.763 120.764 275.469 120.47L269.105 114.107C268.811 113.812 268.811 113.333 269.104 113.039L285.621 96.5223C285.915 96.2285 285.914 95.7482 285.62 95.4537L280.467 90.3006C280.172 90.0061 279.692 90.0059 279.398 90.2998L257.365 112.333C257.072 112.626 257.072 113.106 257.367 113.401L289.83 145.864C290.124 146.158 290.604 146.158 290.897 145.865L312.931 123.832C313.224 123.538 313.224 123.058 312.93 122.764L307.777 117.611C307.482 117.316 307.002 117.315 306.708 117.609L290.191 134.126C289.898 134.42 289.418 134.42 289.123 134.125L282.76 127.762C282.466 127.467 282.465 126.987 282.759 126.694L299.276 110.177C299.57 109.883 299.569 109.403 299.275 109.109L294.121 103.955C293.827 103.661 293.347 103.661 293.053 103.955L293.053 103.954Z" fill="white"/>
</g>
</g>
<path opacity="0.25" d="M251.525 -2.57634C251.525 -2.57634 220.486 -2.57634 180.125 -2.57634C177.245 -2.57634 174.315 -2.57634 171.344 -2.57634C159.342 -2.61648 147.089 -2.61648 134.315 -2.57634C131.153 -2.57634 127.992 -2.57634 124.821 -2.57634C61.4696 -2.57634 -1.89209 -2.57634 -1.89209 -2.57634L-1.89209 250.82C-1.89209 250.82 17.275 250.82 45.0622 250.82C47.5911 250.81 50.1902 250.81 52.8495 250.79C59.6934 250.66 66.5073 250.57 73.291 250.499C80.0747 250.429 86.8384 250.409 93.6021 250.409C100.366 250.409 107.129 250.439 113.903 250.509C120.687 250.58 127.481 250.67 134.315 250.8C137.476 250.8 140.627 250.81 143.768 250.81C200.215 250.81 251.535 250.81 251.535 250.81M-1.89209 10.7587C-1.89209 10.7587 49.4275 10.7587 105.875 10.7587C109.016 10.7587 112.167 10.7587 115.318 10.7587C139.282 9.63494 162.684 9.63494 187.571 10.7487C190.019 10.7587 192.418 10.7587 194.776 10.7587C227.751 10.7587 251.525 10.7587 251.525 10.7587M-1.89209 24.0938C-1.89209 24.0938 43.8881 24.0938 96.5223 24.0938C99.6231 24.1039 102.744 24.1139 105.895 24.144C135.94 24.1139 167.139 21.8864 196.783 24.0637C199.452 24.0938 202.052 24.0938 204.58 24.0938C232.368 24.0938 251.535 24.0938 251.535 24.0938M-1.89209 37.4289C-1.89209 37.4289 33.7426 37.4289 78.2985 37.4289C81.2689 37.4289 84.2794 37.4289 87.3201 37.4289C90.441 37.4289 93.5519 37.5192 96.6527 37.6597C132.609 37.4891 169.377 36.3754 204.53 37.3888C209.197 37.439 213.602 37.439 217.716 37.439C238.238 37.439 251.545 37.439 251.545 37.439M-1.89209 50.774C-1.89209 50.774 33.7426 50.774 78.2985 50.774C81.2689 50.774 84.2794 50.774 87.3201 50.774C89.8991 50.473 92.448 50.3526 94.9668 50.3827C112.548 50.8643 128.153 54.2056 145.975 56.4332C168.263 59.7745 189.427 53.0919 211.936 50.774C216.693 50.774 221.128 50.774 225.183 50.774C241.399 50.774 251.535 50.774 251.535 50.774M-1.89209 64.1091C-1.89209 64.1091 33.7426 64.1091 78.2985 64.1091C81.2689 64.1091 84.2794 64.1091 87.3201 64.1091C89.8991 63.9085 92.448 63.8884 94.9668 64.0088C97.4957 64.1292 99.9944 64.38 102.443 64.6409C128.143 65.3433 150.431 79.8323 174.947 80.9461C188.313 80.9461 198.349 69.8084 210.742 65.2731C212.99 64.4804 215.288 63.9185 217.686 63.6877C220.075 63.467 222.563 63.5673 225.183 64.1091C229.237 64.1091 232.91 64.1091 236.141 64.1091C245.835 64.1091 251.535 64.1091 251.535 64.1091M-1.89209 77.4442C-1.89209 77.4442 33.7426 77.4442 78.2985 77.4442C81.2689 77.4442 84.2794 77.4442 87.3201 77.4442C90.9729 77.2837 94.5353 77.364 98.0476 77.6449C101.56 77.9259 105.012 78.3573 108.364 78.7787C124.811 79.8323 139.292 86.5149 153.783 93.1975C177.185 103.221 197.235 89.8562 216.853 79.2503C219.834 78.1466 222.905 77.3338 226.106 76.9827C229.307 76.6315 232.639 76.7318 236.151 77.4442C240.998 77.4442 244.851 77.4442 247.481 77.4442C250.12 77.4442 251.545 77.4442 251.545 77.4442M-1.89209 90.7793C-1.89209 90.7793 38.6598 90.7793 87.3201 90.7793C90.3607 90.7793 93.4315 90.7793 96.5323 90.7893C100.185 91.5519 103.828 92.2543 107.451 92.8965C138.188 96.5388 169.387 111.028 200.356 102.519C203.768 101.586 207.169 100.362 210.551 98.8265C213.933 97.2913 217.295 95.425 220.647 93.1975C226.216 89.8562 230.672 90.9699 236.181 90.7994C241.008 90.7793 244.861 90.7793 247.491 90.7793C250.13 90.7793 251.555 90.7793 251.555 90.7793M-1.89209 104.114C-1.89209 104.114 49.4275 104.114 105.875 104.114C109.016 104.114 112.177 104.124 115.499 104.315C139.292 112.142 163.798 114.369 188.063 112.804C192.077 112.453 196.091 111.991 200.105 111.439C212.147 109.774 224.169 107.225 236.191 104.165C240.988 104.114 244.841 104.114 247.471 104.114C250.11 104.114 251.535 104.114 251.535 104.114M-1.89209 117.46C-1.89209 117.46 55.288 117.46 115.328 117.46C118.489 117.46 121.66 117.46 124.892 117.53C148.203 121.062 170.491 126.631 194.997 123.289C209.478 121.062 221.74 116.607 236.161 117.48C239.372 117.46 242.162 117.46 244.44 117.46C249.006 117.46 251.535 117.46 251.535 117.46M-1.89209 130.795C-1.89209 130.795 9.1064 130.795 26.5274 130.795C30.0095 130.795 33.7426 130.795 37.6864 130.795C40.3256 130.845 42.9849 130.885 45.6643 130.915C48.3437 130.945 51.0331 130.965 53.7326 130.975C66.8786 131.076 80.2554 131.076 93.4014 130.795C95.9804 130.795 98.5795 130.795 101.199 130.795C108.996 130.795 116.914 130.795 124.831 130.795C128.002 130.795 131.164 130.795 134.345 130.805C166.036 134.417 197.235 133.303 228.233 130.865C232.98 130.795 237.185 130.795 240.647 130.795C247.581 130.795 251.535 130.795 251.535 130.795M-1.89209 144.13C-1.89209 144.13 0.646795 144.13 5.20274 144.13C7.48071 144.13 10.2705 144.13 13.5018 144.13C17.3854 144.17 21.2589 144.19 25.1124 144.19C59.0612 142.223 91.3743 144.451 124.821 144.13C128.785 144.13 132.739 144.13 136.683 144.13C140.627 144.13 144.56 144.13 148.474 144.14C171.605 144.451 196.111 144.451 219.583 144.16C224.42 144.13 228.845 144.13 232.759 144.13C244.49 144.13 251.535 144.13 251.535 144.13M-1.89209 157.465C-1.89209 157.465 2.07178 157.465 8.92576 157.475C12.3778 157.395 15.8199 157.294 19.2419 157.114C57.9573 150.01 95.8399 155.588 134.325 157.465C137.486 157.465 140.637 157.465 143.778 157.465C149.427 157.465 155.017 157.465 160.516 157.465C163.266 157.465 165.985 157.465 168.685 157.465C180.536 157.816 193.903 157.816 206.106 157.465C210.601 157.465 214.856 157.465 218.84 157.465C238.73 157.465 251.555 157.465 251.555 157.465M-1.89209 170.8C-1.89209 170.8 0.646794 170.8 5.14253 170.81C9.08633 170.509 13.0201 170.148 16.9137 169.576C54.6156 156.702 94.726 161.157 134.164 170.74C137.476 170.79 140.637 170.8 143.768 170.8C200.215 170.8 251.535 170.8 251.535 170.8M-1.89209 184.135C-1.89209 184.135 0.646794 184.135 5.12246 184.145C8.54443 184.586 11.846 184.556 15.0472 184.065C27.8721 181.205 37.8971 172.295 51.274 168.954C80.2453 162.271 104.761 177.864 132.719 181.867C136.562 182.53 140.205 183.282 143.778 184.135C146.919 184.135 150.04 184.135 153.13 184.135C205.775 184.135 251.545 184.135 251.545 184.135M-1.89209 197.48C-1.89209 197.48 0.646795 197.48 5.18267 197.48C7.51081 197.59 9.88914 197.741 12.2374 197.801C27.8721 200.149 34.5555 183.443 47.9323 178.988C59.0712 174.532 71.3341 176.76 82.4731 180.101C99.1916 185.67 114.786 192.353 132.789 194.691C136.582 195.503 140.185 196.396 143.748 197.34C146.909 197.47 150.03 197.47 153.12 197.48C205.765 197.48 251.535 197.48 251.535 197.48M-1.89209 210.815C-1.89209 210.815 0.646795 210.815 5.20274 210.815C7.48071 210.815 10.2705 210.815 13.4717 210.805C20.0647 209.059 28.9759 212.411 33.4315 206.832C61.289 174.522 100.285 203.49 133.07 207.514C136.633 208.447 140.185 209.491 143.748 210.655C146.899 210.795 150.019 210.795 153.12 210.805C205.765 210.805 251.535 210.805 251.535 210.805M-1.89209 224.15C-1.89209 224.15 3.80786 224.15 13.5018 224.15C16.7331 224.15 20.4059 224.15 24.4601 224.11C27.8721 223.548 31.2138 224.672 33.4416 223.548C61.299 201.263 92.4982 214.638 122.242 219.585C125.935 220.267 129.518 220.969 133.1 221.742C136.643 222.465 140.205 223.247 143.768 224.08C146.909 224.13 150.019 224.14 153.12 224.15C205.765 224.15 251.535 224.15 251.535 224.15M-1.89209 237.485C-1.89209 237.485 8.24338 237.485 24.4601 237.485C28.5143 237.485 32.9498 237.485 37.7065 237.475C41.2087 236.572 44.7311 235.81 48.2534 235.147C65.7546 232.458 83.577 231.345 101.359 233.331C104.942 233.562 108.484 233.833 112.017 234.124C115.519 234.425 119.011 234.736 122.473 235.067C126.005 235.368 129.548 235.719 133.09 236.121C136.633 236.522 140.195 236.974 143.758 237.475C146.899 237.475 150.009 237.485 153.11 237.485C205.755 237.485 251.525 237.485 251.525 237.485M11.4446 250.82C11.4446 250.82 11.4446 240.686 11.4446 224.471C11.4446 220.418 11.4446 215.983 11.4345 211.237C11.3442 204.574 11.274 198.022 11.2439 191.52C11.2138 185.008 11.2138 178.556 11.2439 172.064C11.274 165.572 11.3342 159.05 11.4245 152.428C11.4446 149.327 11.4546 146.207 11.4546 143.076C11.4546 74.0829 11.4546 -2.56631 11.4546 -2.56631M24.7812 250.82C24.7812 250.82 24.7812 245.121 24.7812 235.428C24.7812 232.197 24.7812 228.525 24.7812 224.441C23.4165 201.263 23.4165 178.978 23.7978 155.96C24.1089 148.585 24.4401 141.049 24.7812 133.614C24.7812 130.453 24.7812 127.283 24.7812 124.122C24.7812 60.7678 24.7812 -2.57634 24.7812 -2.57634M38.128 250.82C38.128 250.82 38.128 249.396 38.128 246.757C38.128 244.118 38.128 240.275 38.1179 235.388C32.3277 204.604 31.2138 171.181 36.7632 140.247C37.1947 136.755 37.6362 133.163 38.1079 129.56C38.138 126.841 38.138 124.122 38.138 121.413C38.138 58.9818 38.138 -2.57634 38.138 -2.57634M51.4646 250.82C50.8926 247.248 50.3306 243.696 49.7988 240.154C43.4666 205.718 37.8971 170.067 48.8555 136.042C49.6483 132.701 50.4912 129.219 51.4345 125.707C51.4546 122.798 51.4546 119.898 51.4546 116.998C51.4546 56.1121 51.4546 -2.57634 51.4546 -2.57634M64.8013 250.55C64.9217 247.449 64.8013 244.409 64.4701 241.419C61.299 217.979 44.5805 196.818 47.9222 171.191C50.15 154.475 65.7546 143.337 64.7913 125.316C64.8013 122.547 64.8013 119.767 64.8013 117.008C64.8013 56.1221 64.8013 -2.56631 64.8013 -2.56631M78.1079 249.917C78.0878 246.074 77.7064 242.322 76.9739 238.589C64.6407 205.718 45.7045 171.181 74.6758 138.872C78.0175 136.644 79.1314 131.076 78.148 125.306C78.148 122.537 78.148 119.767 78.148 116.998C78.138 56.1121 78.138 -2.57634 78.138 -2.57634M91.4244 249.606C90.6417 245.663 89.8489 241.74 88.9458 237.837C75.7797 203.49 65.7446 165.612 91.2237 133.634C91.4245 130.463 91.4746 127.293 91.4746 124.122C91.4746 110.927 91.4746 97.7228 91.4746 85.1001C91.4746 82.5716 91.4746 80.0731 91.4746 77.5947C91.3743 64.2295 91.3743 50.8543 91.4746 37.0075C91.4746 33.0441 91.4746 29.3115 91.4746 25.8297C91.4746 8.41081 91.4746 -2.58638 91.4746 -2.58638M104.791 249.947C104.34 246.416 103.918 242.884 103.517 239.342C102.945 235.82 102.403 232.288 101.731 228.766C88.0426 196.808 94.726 164.499 104.711 133.624C104.821 129.47 104.821 125.306 104.821 121.152C104.821 116.998 104.821 112.844 104.821 108.71C104.821 105.961 104.821 103.211 104.821 100.482C104.952 97.0605 105.052 93.639 105.122 90.2074C105.193 86.7758 105.233 83.3341 105.243 79.8524C104.761 58.6507 104.761 38.5929 104.821 17.9731C104.821 14.7723 104.821 11.8825 104.821 9.35399C104.821 1.76835 104.821 -2.59641 104.821 -2.59641M118.158 250.55C118.048 246.957 117.947 243.365 117.877 239.783C117.787 236.171 117.716 232.569 117.636 228.936C110.321 201.263 114.776 172.295 118.078 143.066C118.158 139.925 118.158 136.775 118.158 133.614C118.158 130.845 118.158 128.075 118.158 125.306C118.158 122.537 118.158 119.767 118.158 116.998C118.519 114.52 118.83 112.081 119.091 109.663C119.342 107.255 119.553 104.867 119.723 102.489C122.583 68.6846 118.128 36.3754 118.158 2.90218C118.158 -0.639796 118.158 -2.57634 118.158 -2.57634M131.495 250.82C131.495 243.165 131.495 235.619 131.495 228.134C131.495 224.391 131.495 220.668 131.495 216.956C131.495 213.243 131.465 209.541 131.384 205.858C130.381 187.908 131.495 170.077 131.505 152.428C131.505 149.889 131.505 147.32 131.505 144.752C131.505 142.183 131.505 139.594 131.505 137.006C131.505 134.417 131.505 131.818 131.505 129.219C132.9 125.828 134.044 122.416 134.977 118.975C141.53 78.7185 130.391 37.4992 131.505 -2.57634M144.831 250.82C144.831 250.82 144.831 245.121 144.831 235.428C144.831 232.197 144.831 228.525 144.831 224.461C144.861 212.401 144.861 200.149 144.831 187.918C144.831 185.138 144.831 182.309 144.831 179.419C144.831 170.639 144.831 161.408 144.831 151.976C144.831 148.826 144.831 145.655 144.831 142.474C144.841 137.327 145.132 132.25 146.246 127.624C147.36 122.998 149.317 118.814 152.639 115.463C157.114 109.904 160.456 103.221 160.456 95.425C158.228 62.002 140.396 31.9203 144.821 -2.58638M158.168 250.82C158.168 250.82 158.168 209.511 158.168 160.254C158.168 157.665 158.168 155.047 158.168 152.418C156.532 143.979 158.77 136.414 162.122 129.29C163.236 126.911 164.48 124.594 165.734 122.296C173.823 111.028 177.164 97.6525 174.937 83.1736C168.253 53.0919 153.763 27.4652 158.158 -2.58638M171.505 250.82C171.505 250.82 171.505 213.745 171.505 167.96C171.505 165.412 171.505 162.843 171.505 160.254C169.337 145.264 176.051 132.831 181.751 119.938C183.176 116.717 184.53 113.466 185.654 110.135C188.314 103.221 189.427 95.415 188.313 88.7324C179.402 57.5369 167.139 29.6827 171.505 -2.58638M184.851 250.82C184.851 250.82 184.851 213.745 184.851 167.96C184.851 165.412 184.851 162.843 184.851 160.254C183.105 144.29 189.779 130.032 193.983 114.76C194.826 111.71 195.569 108.61 196.121 105.459C197.235 74.2635 181.64 44.1818 184.831 12.7555C184.851 7.96931 184.851 4.12632 184.851 1.4874C184.851 -1.15153 184.851 -2.57634 184.851 -2.57634M198.188 250.82C198.188 250.82 198.188 213.745 198.188 167.96C198.188 165.271 198.188 162.542 198.188 159.793C200.496 139.303 202.764 119.035 203.326 98.676C203.416 94.6123 203.446 90.5385 203.376 86.4447C202.814 65.3433 198.359 45.2855 198.178 23.7627C198.188 19.719 198.188 16.0466 198.188 12.8057C198.188 3.11289 198.188 -2.58638 198.188 -2.58638M211.525 250.82C211.525 250.82 211.525 209.511 211.525 160.254C211.525 157.354 211.525 154.435 211.535 151.495C213.221 127.845 213.732 104.917 213.05 81.8892C212.95 78.5981 212.829 75.307 212.679 72.0159C211.715 63.1258 211.715 53.0919 211.525 44.3824C211.525 39.7468 211.525 35.3619 211.525 31.2581C211.525 10.7387 211.525 -2.56631 211.525 -2.56631M224.861 250.82C224.861 250.82 224.861 202.316 224.861 147.752C224.861 145.023 224.861 142.283 224.881 139.544C225.082 116.587 226.196 92.0737 224.881 68.8351C224.861 66.2865 224.861 63.7981 224.861 61.3598C224.861 24.6959 224.861 -2.58638 224.861 -2.58638M238.198 250.82C238.198 250.82 238.198 193.647 238.198 133.614C238.198 130.453 238.198 127.283 238.198 124.122C238.459 112.142 238.459 98.7663 238.198 86.6152C238.198 83.5749 238.198 80.5648 238.198 77.5947C238.198 33.0541 238.198 -2.58638 238.198 -2.58638M251.535 250.82V-2.57634" stroke="white" stroke-width="0.357143" stroke-miterlimit="10"/>
<g filter="url(#filter13_d_456_3011)">
<circle cx="125" cy="125" r="87.5" fill="url(#paint1_linear_456_3011)"/>
<circle cx="125" cy="125" r="87.5" fill="white"/>
</g>
</g>
</g>
<defs>
<filter id="filter0_d_456_3011" x="-108.311" y="-122.637" width="457.137" height="398.766" filterUnits="userSpaceOnUse" color-interpolation-filters="sRGB">
<feFlood flood-opacity="0" result="BackgroundImageFix"/>
<feColorMatrix in="SourceAlpha" type="matrix" values="0 0 0 0 0 0 0 0 0 0 0 0 0 0 0 0 0 0 127 0" result="hardAlpha"/>
<feOffset dy="1.42857"/>
<feGaussianBlur stdDeviation="0.714286"/>
<feComposite in2="hardAlpha" operator="out"/>
<feColorMatrix type="matrix" values="0 0 0 0 0 0 0 0 0 0 0 0 0 0 0 0 0 0 0.05 0"/>
<feBlend mode="normal" in2="BackgroundImageFix" result="effect1_dropShadow_456_3011"/>
<feBlend mode="normal" in="SourceGraphic" in2="effect1_dropShadow_456_3011" result="shape"/>
</filter>
<filter id="filter1_d_456_3011" x="8.43345" y="108.284" width="131.642" height="126.756" filterUnits="userSpaceOnUse" color-interpolation-filters="sRGB">
<feFlood flood-opacity="0" result="BackgroundImageFix"/>
<feColorMatrix in="SourceAlpha" type="matrix" values="0 0 0 0 0 0 0 0 0 0 0 0 0 0 0 0 0 0 127 0" result="hardAlpha"/>
<feOffset dy="1.42857"/>
<feGaussianBlur stdDeviation="1.78571"/>
<feComposite in2="hardAlpha" operator="out"/>
<feColorMatrix type="matrix" values="0 0 0 0 0 0 0 0 0 0 0 0 0 0 0 0 0 0 0.2 0"/>
<feBlend mode="normal" in2="BackgroundImageFix" result="effect1_dropShadow_456_3011"/>
<feBlend mode="normal" in="SourceGraphic" in2="effect1_dropShadow_456_3011" result="shape"/>
</filter>
<filter id="filter2_d_456_3011" x="106.259" y="10.458" width="131.642" height="126.756" filterUnits="userSpaceOnUse" color-interpolation-filters="sRGB">
<feFlood flood-opacity="0" result="BackgroundImageFix"/>
<feColorMatrix in="SourceAlpha" type="matrix" values="0 0 0 0 0 0 0 0 0 0 0 0 0 0 0 0 0 0 127 0" result="hardAlpha"/>
<feOffset dy="1.42857"/>
<feGaussianBlur stdDeviation="1.78571"/>
<feComposite in2="hardAlpha" operator="out"/>
<feColorMatrix type="matrix" values="0 0 0 0 0 0 0 0 0 0 0 0 0 0 0 0 0 0 0.2 0"/>
<feBlend mode="normal" in2="BackgroundImageFix" result="effect1_dropShadow_456_3011"/>
<feBlend mode="normal" in="SourceGraphic" in2="effect1_dropShadow_456_3011" result="shape"/>
</filter>
<filter id="filter3_d_456_3011" x="14.807" y="23.76" width="131.642" height="126.756" filterUnits="userSpaceOnUse" color-interpolation-filters="sRGB">
<feFlood flood-opacity="0" result="BackgroundImageFix"/>
<feColorMatrix in="SourceAlpha" type="matrix" values="0 0 0 0 0 0 0 0 0 0 0 0 0 0 0 0 0 0 127 0" result="hardAlpha"/>
<feOffset dy="1.42857"/>
<feGaussianBlur stdDeviation="1.78571"/>
<feComposite in2="hardAlpha" operator="out"/>
<feColorMatrix type="matrix" values="0 0 0 0 0 0 0 0 0 0 0 0 0 0 0 0 0 0 0.2 0"/>
<feBlend mode="normal" in2="BackgroundImageFix" result="effect1_dropShadow_456_3011"/>
<feBlend mode="normal" in="SourceGraphic" in2="effect1_dropShadow_456_3011" result="shape"/>
</filter>
<filter id="filter4_d_456_3011" x="-83.0187" y="121.586" width="131.642" height="126.756" filterUnits="userSpaceOnUse" color-interpolation-filters="sRGB">
<feFlood flood-opacity="0" result="BackgroundImageFix"/>
<feColorMatrix in="SourceAlpha" type="matrix" values="0 0 0 0 0 0 0 0 0 0 0 0 0 0 0 0 0 0 127 0" result="hardAlpha"/>
<feOffset dy="1.42857"/>
<feGaussianBlur stdDeviation="1.78571"/>
<feComposite in2="hardAlpha" operator="out"/>
<feColorMatrix type="matrix" values="0 0 0 0 0 0 0 0 0 0 0 0 0 0 0 0 0 0 0.2 0"/>
<feBlend mode="normal" in2="BackgroundImageFix" result="effect1_dropShadow_456_3011"/>
<feBlend mode="normal" in="SourceGraphic" in2="effect1_dropShadow_456_3011" result="shape"/>
</filter>
<filter id="filter5_d_456_3011" x="112.633" y="-74.0657" width="131.642" height="126.756" filterUnits="userSpaceOnUse" color-interpolation-filters="sRGB">
<feFlood flood-opacity="0" result="BackgroundImageFix"/>
<feColorMatrix in="SourceAlpha" type="matrix" values="0 0 0 0 0 0 0 0 0 0 0 0 0 0 0 0 0 0 127 0" result="hardAlpha"/>
<feOffset dy="1.42857"/>
<feGaussianBlur stdDeviation="1.78571"/>
<feComposite in2="hardAlpha" operator="out"/>
<feColorMatrix type="matrix" values="0 0 0 0 0 0 0 0 0 0 0 0 0 0 0 0 0 0 0.2 0"/>
<feBlend mode="normal" in2="BackgroundImageFix" result="effect1_dropShadow_456_3011"/>
<feBlend mode="normal" in="SourceGraphic" in2="effect1_dropShadow_456_3011" result="shape"/>
</filter>
<filter id="filter6_d_456_3011" x="-110.454" y="70.8715" width="131.642" height="126.756" filterUnits="userSpaceOnUse" color-interpolation-filters="sRGB">
<feFlood flood-opacity="0" result="BackgroundImageFix"/>
<feColorMatrix in="SourceAlpha" type="matrix" values="0 0 0 0 0 0 0 0 0 0 0 0 0 0 0 0 0 0 127 0" result="hardAlpha"/>
<feOffset dy="1.42857"/>
<feGaussianBlur stdDeviation="1.78571"/>
<feComposite in2="hardAlpha" operator="out"/>
<feColorMatrix type="matrix" values="0 0 0 0 0 0 0 0 0 0 0 0 0 0 0 0 0 0 0.2 0"/>
<feBlend mode="normal" in2="BackgroundImageFix" result="effect1_dropShadow_456_3011"/>
<feBlend mode="normal" in="SourceGraphic" in2="effect1_dropShadow_456_3011" result="shape"/>
</filter>
<filter id="filter7_d_456_3011" x="-12.6281" y="-26.9541" width="131.642" height="126.756" filterUnits="userSpaceOnUse" color-interpolation-filters="sRGB">
<feFlood flood-opacity="0" result="BackgroundImageFix"/>
<feColorMatrix in="SourceAlpha" type="matrix" values="0 0 0 0 0 0 0 0 0 0 0 0 0 0 0 0 0 0 127 0" result="hardAlpha"/>
<feOffset dy="1.42857"/>
<feGaussianBlur stdDeviation="1.78571"/>
<feComposite in2="hardAlpha" operator="out"/>
<feColorMatrix type="matrix" values="0 0 0 0 0 0 0 0 0 0 0 0 0 0 0 0 0 0 0.2 0"/>
<feBlend mode="normal" in2="BackgroundImageFix" result="effect1_dropShadow_456_3011"/>
<feBlend mode="normal" in="SourceGraphic" in2="effect1_dropShadow_456_3011" result="shape"/>
</filter>
<filter id="filter8_d_456_3011" x="85.1971" y="-124.78" width="131.642" height="126.756" filterUnits="userSpaceOnUse" color-interpolation-filters="sRGB">
<feFlood flood-opacity="0" result="BackgroundImageFix"/>
<feColorMatrix in="SourceAlpha" type="matrix" values="0 0 0 0 0 0 0 0 0 0 0 0 0 0 0 0 0 0 127 0" result="hardAlpha"/>
<feOffset dy="1.42857"/>
<feGaussianBlur stdDeviation="1.78571"/>
<feComposite in2="hardAlpha" operator="out"/>
<feColorMatrix type="matrix" values="0 0 0 0 0 0 0 0 0 0 0 0 0 0 0 0 0 0 0.2 0"/>
<feBlend mode="normal" in2="BackgroundImageFix" result="effect1_dropShadow_456_3011"/>
<feBlend mode="normal" in="SourceGraphic" in2="effect1_dropShadow_456_3011" result="shape"/>
</filter>
<filter id="filter9_d_456_3011" x="64.9667" y="129.9" width="131.642" height="126.756" filterUnits="userSpaceOnUse" color-interpolation-filters="sRGB">
<feFlood flood-opacity="0" result="BackgroundImageFix"/>
<feColorMatrix in="SourceAlpha" type="matrix" values="0 0 0 0 0 0 0 0 0 0 0 0 0 0 0 0 0 0 127 0" result="hardAlpha"/>
<feOffset dy="1.42857"/>
<feGaussianBlur stdDeviation="1.78571"/>
<feComposite in2="hardAlpha" operator="out"/>
<feColorMatrix type="matrix" values="0 0 0 0 0 0 0 0 0 0 0 0 0 0 0 0 0 0 0.2 0"/>
<feBlend mode="normal" in2="BackgroundImageFix" result="effect1_dropShadow_456_3011"/>
<feBlend mode="normal" in="SourceGraphic" in2="effect1_dropShadow_456_3011" result="shape"/>
</filter>
<filter id="filter10_d_456_3011" x="162.793" y="32.0737" width="131.642" height="126.756" filterUnits="userSpaceOnUse" color-interpolation-filters="sRGB">
<feFlood flood-opacity="0" result="BackgroundImageFix"/>
<feColorMatrix in="SourceAlpha" type="matrix" values="0 0 0 0 0 0 0 0 0 0 0 0 0 0 0 0 0 0 127 0" result="hardAlpha"/>
<feOffset dy="1.42857"/>
<feGaussianBlur stdDeviation="1.78571"/>
<feComposite in2="hardAlpha" operator="out"/>
<feColorMatrix type="matrix" values="0 0 0 0 0 0 0 0 0 0 0 0 0 0 0 0 0 0 0.2 0"/>
<feBlend mode="normal" in2="BackgroundImageFix" result="effect1_dropShadow_456_3011"/>
<feBlend mode="normal" in="SourceGraphic" in2="effect1_dropShadow_456_3011" result="shape"/>
</filter>
<filter id="filter11_d_456_3011" x="121.501" y="151.516" width="131.642" height="126.756" filterUnits="userSpaceOnUse" color-interpolation-filters="sRGB">
<feFlood flood-opacity="0" result="BackgroundImageFix"/>
<feColorMatrix in="SourceAlpha" type="matrix" values="0 0 0 0 0 0 0 0 0 0 0 0 0 0 0 0 0 0 127 0" result="hardAlpha"/>
<feOffset dy="1.42857"/>
<feGaussianBlur stdDeviation="1.78571"/>
<feComposite in2="hardAlpha" operator="out"/>
<feColorMatrix type="matrix" values="0 0 0 0 0 0 0 0 0 0 0 0 0 0 0 0 0 0 0.2 0"/>
<feBlend mode="normal" in2="BackgroundImageFix" result="effect1_dropShadow_456_3011"/>
<feBlend mode="normal" in="SourceGraphic" in2="effect1_dropShadow_456_3011" result="shape"/>
</filter>
<filter id="filter12_d_456_3011" x="219.327" y="53.6897" width="131.642" height="126.756" filterUnits="userSpaceOnUse" color-interpolation-filters="sRGB">
<feFlood flood-opacity="0" result="BackgroundImageFix"/>
<feColorMatrix in="SourceAlpha" type="matrix" values="0 0 0 0 0 0 0 0 0 0 0 0 0 0 0 0 0 0 127 0" result="hardAlpha"/>
<feOffset dy="1.42857"/>
<feGaussianBlur stdDeviation="1.78571"/>
<feComposite in2="hardAlpha" operator="out"/>
<feColorMatrix type="matrix" values="0 0 0 0 0 0 0 0 0 0 0 0 0 0 0 0 0 0 0.2 0"/>
<feBlend mode="normal" in2="BackgroundImageFix" result="effect1_dropShadow_456_3011"/>
<feBlend mode="normal" in="SourceGraphic" in2="effect1_dropShadow_456_3011" result="shape"/>
</filter>
<filter id="filter13_d_456_3011" x="30.3571" y="30.3571" width="189.286" height="189.286" filterUnits="userSpaceOnUse" color-interpolation-filters="sRGB">
<feFlood flood-opacity="0" result="BackgroundImageFix"/>
<feColorMatrix in="SourceAlpha" type="matrix" values="0 0 0 0 0 0 0 0 0 0 0 0 0 0 0 0 0 0 127 0" result="hardAlpha"/>
<feOffset/>
<feGaussianBlur stdDeviation="3.57143"/>
<feComposite in2="hardAlpha" operator="out"/>
<feColorMatrix type="matrix" values="0 0 0 0 0 0 0 0 0 0 0 0 0 0 0 0 0 0 0.15 0"/>
<feBlend mode="normal" in2="BackgroundImageFix" result="effect1_dropShadow_456_3011"/>
<feBlend mode="normal" in="SourceGraphic" in2="effect1_dropShadow_456_3011" result="shape"/>
</filter>
<linearGradient id="paint0_linear_456_3011" x1="79.7287" y1="-187.993" x2="-110.837" y2="159.109" gradientUnits="userSpaceOnUse">
<stop stop-color="#A42E32"/>
<stop offset="1" stop-color="#E52A31"/>
</linearGradient>
<linearGradient id="paint1_linear_456_3011" x1="93.3101" y1="-94.0949" x2="-40.0862" y2="148.877" gradientUnits="userSpaceOnUse">
<stop stop-color="#A42E32"/>
<stop offset="1" stop-color="#E52A31"/>
</linearGradient>
<clipPath id="clip0_456_3011">
<rect width="250" height="250" rx="125" fill="white"/>
</clipPath>
</defs>
</svg>
