<svg width="279" height="292" viewBox="0 0 279 292" fill="none" xmlns="http://www.w3.org/2000/svg">
<g opacity="0.1">
<path d="M5.54139 376.976C5.54139 376.976 5.54139 311.881 5.54139 230.49C5.54139 225.064 5.54139 219.565 5.54139 214.01C4.99152 209.299 4.77157 204.643 4.82656 200.042C5.70635 167.925 11.81 139.42 15.879 106.864C21.9826 66.1499 9.77542 27.4892 5.54139 -13.6279C5.54139 -22.3169 5.54139 -30.4194 5.54139 -37.8252C5.54139 -67.4486 5.54139 -85.9632 5.54139 -85.9632" stroke="white" stroke-miterlimit="10"/>
<path d="M29.9012 376.976C29.9012 376.976 29.9012 311.881 29.9012 230.49C29.9012 225.064 29.9012 219.565 29.9012 214.01C29.5346 209.299 29.498 204.643 29.7179 200.042C29.9379 195.422 30.3961 190.858 30.8727 186.385C32.1557 139.439 58.623 98.7247 60.6575 53.9413C60.6575 29.524 40.3122 11.1927 32.0274 -11.4465C30.5794 -15.5527 29.553 -19.7506 29.1314 -24.1317C28.7282 -28.4946 28.9114 -33.0408 29.9012 -37.8252C29.9012 -45.2311 29.9012 -51.9403 29.9012 -57.843C29.9012 -75.5511 29.9012 -85.9632 29.9012 -85.9632" stroke="white" stroke-miterlimit="10"/>
<path d="M54.2603 376.976C54.2603 376.976 54.2603 311.881 54.2603 230.49C54.2603 225.064 54.2603 219.565 54.2603 214.01C53.967 207.338 54.1137 200.83 54.6269 194.414C55.1401 187.998 55.9282 181.692 56.6981 175.57C58.6226 145.524 70.8298 119.072 83.037 92.602C101.348 49.8534 76.9334 13.2275 57.5595 -22.6102C55.5433 -28.0546 54.0587 -33.664 53.4171 -39.5117C52.7756 -45.3594 52.9589 -51.4454 54.2603 -57.8614C54.2603 -66.7154 54.2603 -73.7546 54.2603 -78.5574C54.2603 -83.3785 54.2603 -85.9816 54.2603 -85.9816" stroke="white" stroke-miterlimit="10"/>
<path d="M78.6199 376.976C78.6199 376.976 78.6199 302.899 78.6199 214.01C78.6199 208.456 78.6199 202.847 78.6382 197.182C80.0312 190.51 81.3142 183.855 82.4873 177.238C89.1408 121.089 115.608 64.0969 100.065 7.52646C98.3603 1.29381 96.1242 -4.92051 93.3198 -11.0982C90.5155 -17.2758 87.1063 -23.4168 83.0372 -29.5394C76.9336 -39.7133 78.9681 -47.8524 78.6565 -57.9163C78.6198 -66.7337 78.6199 -73.7729 78.6199 -78.5757C78.6199 -83.3968 78.6199 -85.9999 78.6199 -85.9999" stroke="white" stroke-miterlimit="10"/>
<path d="M102.979 376.976C102.979 376.976 102.979 283.229 102.979 180.116C102.979 174.378 102.997 168.604 103.346 162.536C117.642 119.072 121.711 74.3074 118.852 29.9823C118.211 22.6498 117.367 15.3172 116.359 7.98472C113.317 -14.0129 108.661 -35.9738 103.071 -57.9347C102.979 -66.697 102.979 -73.7363 102.979 -78.5391C102.979 -83.3602 102.979 -85.9632 102.979 -85.9632" stroke="white" stroke-miterlimit="10"/>
<path d="M127.357 376.976C127.357 376.976 127.357 272.524 127.357 162.848C127.357 157.073 127.357 151.281 127.485 145.378C133.937 102.794 144.109 62.0804 138.006 17.3153C133.937 -9.13673 125.799 -31.5376 127.393 -57.8797C127.357 -63.7457 127.357 -68.8418 127.357 -73.003C127.357 -81.3438 127.357 -85.9632 127.357 -85.9632" stroke="white" stroke-miterlimit="10"/>
<path d="M151.717 376.976C151.717 376.976 151.717 356.884 151.717 325.061C151.717 318.7 151.717 311.881 151.717 304.677C151.808 299.856 151.882 294.998 151.937 290.104C151.992 285.209 152.028 280.296 152.047 275.365C152.23 251.351 152.23 226.916 151.717 202.901C151.717 198.19 151.717 193.443 151.717 188.658C151.717 174.415 151.717 159.951 151.717 145.488C151.717 139.695 151.717 133.921 151.735 128.11C158.334 70.2195 156.299 13.2274 151.845 -43.398C151.717 -52.0687 151.717 -59.7495 151.717 -66.0738C151.717 -78.7407 151.717 -85.9632 151.717 -85.9632" stroke="white" stroke-miterlimit="10"/>
<path d="M176.076 376.976C176.076 376.976 176.076 372.338 176.076 364.015C176.076 359.854 176.076 354.758 176.076 348.855C176.149 341.761 176.186 334.685 176.186 327.646C172.593 265.631 176.662 206.604 176.076 145.506C176.076 138.265 176.076 131.043 176.076 123.839C176.076 116.634 176.076 109.448 176.094 102.299C176.662 60.0456 176.662 15.2806 176.131 -27.5964C176.076 -36.432 176.076 -44.5162 176.076 -51.6654C176.076 -73.0947 176.076 -85.9632 176.076 -85.9632" stroke="white" stroke-miterlimit="10"/>
<path d="M200.436 376.976C200.436 376.976 200.436 369.735 200.454 357.214C200.307 350.908 200.124 344.621 199.794 338.37C186.817 267.648 197.008 198.447 200.436 128.146C200.436 122.372 200.436 116.616 200.436 110.878C200.436 100.558 200.436 90.3473 200.436 80.3017C200.436 75.279 200.436 70.3112 200.436 65.3801C201.077 43.7308 201.077 19.3135 200.436 -2.9774C200.436 -11.1898 200.436 -18.9623 200.436 -26.2398C200.436 -62.5725 200.436 -85.9999 200.436 -85.9999" stroke="white" stroke-miterlimit="10"/>
<path d="M224.794 376.976C224.794 376.976 224.794 372.338 224.813 364.125C224.263 356.921 223.603 349.735 222.558 342.623C199.042 273.752 207.18 200.482 224.684 128.44C224.776 122.39 224.794 116.616 224.794 110.897C224.794 7.78307 224.794 -85.9632 224.794 -85.9632" stroke="white" stroke-miterlimit="10"/>
<path d="M249.154 376.976C249.154 376.976 249.154 372.338 249.172 364.162C249.979 357.911 249.924 351.88 249.025 346.032C243.802 322.605 227.525 304.292 221.422 279.856C209.215 226.934 237.698 182.15 245.011 131.079C246.221 124.059 247.596 117.404 249.154 110.878C249.154 105.141 249.154 99.4396 249.154 93.7936C249.154 -2.37247 249.154 -85.9816 249.154 -85.9816" stroke="white" stroke-miterlimit="10"/>
<path d="M273.532 376.976C273.532 376.976 273.532 372.338 273.532 364.052C273.733 359.799 274.008 355.455 274.118 351.165C278.407 322.605 247.889 310.396 239.751 285.961C231.613 265.613 235.682 243.212 241.786 222.864C251.958 192.324 264.166 163.837 268.436 130.951C269.921 124.022 271.552 117.441 273.275 110.933C273.513 105.159 273.513 99.4579 273.532 93.8119C273.532 -2.35415 273.532 -85.9632 273.532 -85.9632" stroke="white" stroke-miterlimit="10"/>
<path d="M297.891 376.976C297.891 376.976 297.891 372.338 297.891 364.015C297.891 359.854 297.891 354.758 297.873 348.91C294.684 336.867 300.806 320.588 290.615 312.449C231.595 261.562 284.511 190.326 291.861 130.438C293.566 123.93 295.472 117.441 297.598 110.933C297.855 105.177 297.855 99.4763 297.873 93.8119C297.873 -2.35415 297.873 -85.9632 297.873 -85.9632" stroke="white" stroke-miterlimit="10"/>
<path d="M370.969 279.509C364.444 280.554 357.955 281.58 351.485 282.552C288.579 294.119 223.456 304.293 161.302 284.275C155.198 282.827 148.838 281.287 142.423 279.564C137.107 279.527 131.81 279.527 126.513 279.527C15.2921 279.527 -91.915 279.527 -91.915 279.527" stroke="white" stroke-miterlimit="10"/>
<path d="M370.475 255.146C364.811 254.926 359.257 255.146 353.795 255.75C310.978 261.543 272.322 292.083 225.51 285.979C194.973 281.909 174.628 253.404 141.709 255.164C136.65 255.146 131.573 255.146 126.532 255.146C15.3111 255.146 -91.896 255.146 -91.896 255.146" stroke="white" stroke-miterlimit="10"/>
<path d="M369.319 230.838C362.299 230.874 355.444 231.571 348.626 232.909C288.579 255.438 225.491 290.029 166.471 237.107C162.402 231.003 152.229 228.968 141.69 230.764C136.631 230.764 131.572 230.764 126.513 230.764C15.2921 230.783 -91.915 230.783 -91.915 230.783" stroke="white" stroke-miterlimit="10"/>
<path d="M368.751 206.513C361.548 207.943 354.381 209.391 347.251 211.041C284.511 235.091 215.318 253.423 156.903 206.879C151.111 206.513 145.319 206.421 139.527 206.421C115.424 206.421 91.3032 206.421 68.2452 206.421C63.6263 206.421 59.0623 206.421 54.535 206.421C30.1206 206.604 5.68785 206.604 -19.6063 206.421C-26.8464 206.421 -33.6648 206.421 -40.025 206.421C-71.8444 206.421 -91.9331 206.421 -91.9331 206.421" stroke="white" stroke-miterlimit="10"/>
<path d="M369.375 182.095C362.923 182.92 356.471 183.69 350.001 184.423C343.567 185.468 337.115 186.458 330.682 187.686C272.304 212.69 213.284 200.482 156.885 182.242C149.297 182.04 141.69 182.04 134.102 182.04C126.514 182.04 118.925 182.04 111.374 182.04C106.352 182.04 101.33 182.04 96.344 182.04C90.0938 181.802 83.8435 181.619 77.575 181.49C71.3064 181.362 65.0195 181.289 58.6593 181.27C19.9298 182.15 -16.7101 182.15 -54.3765 182.04C-60.2234 182.04 -65.5022 182.04 -70.1212 182.04C-83.978 182.04 -91.9512 182.04 -91.9512 182.04" stroke="white" stroke-miterlimit="10"/>
<path d="M370.474 157.678C363.912 157.88 357.35 158.063 350.807 158.191C344.208 158.356 337.628 158.484 330.993 158.631C280.441 171.995 227.525 163.856 174.132 157.825C168.395 157.678 162.64 157.678 156.866 157.678C151.807 157.678 146.749 157.678 141.69 157.678C136.631 157.678 131.572 157.678 126.513 157.678C121.986 157.018 117.532 156.45 113.115 155.973C108.716 155.515 104.353 155.13 100.009 154.818C38.2585 149.594 -20.7613 157.733 -81.9073 157.678C-88.3775 157.678 -91.915 157.678 -91.915 157.678" stroke="white" stroke-miterlimit="10"/>
<path d="M370.969 133.316C356.984 133.316 343.2 133.316 329.527 133.316C322.69 133.316 315.89 133.316 309.108 133.316C302.326 133.316 295.563 133.371 288.836 133.517C256.045 135.35 223.474 133.316 191.233 133.297C186.596 133.297 181.904 133.297 177.212 133.297C172.519 133.297 167.79 133.297 163.062 133.297C158.333 133.297 153.585 133.297 148.838 133.297C142.643 130.749 136.411 128.659 130.124 126.955C56.5876 114.984 -18.7085 135.332 -91.915 133.297" stroke="white" stroke-miterlimit="10"/>
<path d="M370.969 108.954C370.969 108.954 360.558 108.954 342.852 108.954C336.95 108.954 330.242 108.954 322.819 108.954C300.787 108.899 278.407 108.899 256.064 108.954C250.987 108.954 245.818 108.954 240.539 108.954C224.501 108.954 207.638 108.954 190.409 108.954C184.653 108.954 178.861 108.954 173.051 108.954C163.648 108.935 154.374 108.404 145.924 106.369C137.474 104.334 129.831 100.76 123.709 94.6918C113.555 86.5161 101.348 80.4118 87.1059 80.4118C26.0515 84.4813 -28.8992 117.056 -91.9331 108.972" stroke="white" stroke-miterlimit="10"/>
<path d="M370.969 84.5916C370.969 84.5916 295.508 84.5916 205.53 84.5916C200.801 84.5916 196.018 84.5916 191.215 84.5916C175.801 87.5796 161.98 83.4917 148.967 77.369C144.623 75.3343 140.389 73.0612 136.191 70.7698C115.608 55.9947 91.1749 49.8904 64.726 53.9599C9.77526 66.1686 -37.0374 92.639 -91.9331 84.6099" stroke="white" stroke-miterlimit="10"/>
<path d="M370.969 60.2283C370.969 60.2283 303.243 60.2283 219.607 60.2283C214.952 60.2283 210.259 60.2283 205.53 60.2283C178.147 64.1879 155.437 51.9242 131.884 41.5121C126 38.909 120.062 36.4343 113.976 34.3812C101.348 29.5234 87.0875 27.4886 74.8803 29.5234C17.8951 45.8016 -32.9866 68.2025 -91.9331 60.2283" stroke="white" stroke-miterlimit="10"/>
<path d="M370.969 35.8481C370.969 35.8481 303.243 35.8481 219.607 35.8481C214.951 35.8481 210.259 35.8481 205.53 35.8481C176.368 39.0377 150.323 26.8474 122.426 19.1666C116.854 17.6267 111.19 16.2702 105.435 15.262C48.4495 13.2272 -6.50128 41.7141 -63.9081 35.8847C-72.6511 35.848 -79.6712 35.8481 -84.4917 35.8481C-89.3123 35.8481 -91.915 35.8481 -91.915 35.8481" stroke="white" stroke-miterlimit="10"/>
<path d="M370.969 11.4865C370.969 11.4865 303.243 11.4865 219.607 11.4865C214.695 11.4865 209.709 11.4865 204.687 11.4865C167.259 7.27034 130.234 3.12747 93.0445 2.10092C85.6212 1.93593 78.1796 1.88093 70.7013 2.00925C32.1551 3.03581 -4.48481 11.1749 -43.8008 11.5049C-51.1874 11.4866 -57.8959 11.4865 -63.8162 11.4865C-81.5222 11.4865 -91.9331 11.4865 -91.9331 11.4865" stroke="white" stroke-miterlimit="10"/>
</g>
</svg>
