<svg width="1920" height="800" viewBox="0 0 1920 800" fill="none" xmlns="http://www.w3.org/2000/svg">
<g opacity="0.1">
<path d="M0.228038 1920C0.228038 1920 0.228043 1440 0.228049 960.076C0.228049 936.053 0.22805 912.106 0.22805 888.16C-0.0759991 791.384 -0.075998 698.562 0.228053 607.64C0.228053 585.138 0.228054 562.939 0.228054 541.121C0.228058 235.363 0.22806 0.227995 0.22806 0.227995" stroke="white" stroke-miterlimit="10"/>
<path d="M101.249 1920C101.249 1920 101.249 1531.23 101.249 1103.6C101.249 1079.81 101.249 1055.94 101.249 1032.07C92.7352 850.529 92.7352 673.247 101.173 484.713C101.249 466.164 101.249 447.995 101.249 430.13C101.249 180.323 101.249 0.227995 101.249 0.227995" stroke="white" stroke-miterlimit="10"/>
<path d="M202.269 1920C202.269 1920 202.269 1573.19 202.269 1174.46C202.345 1150.97 202.421 1127.32 202.649 1103.45C202.421 875.844 185.546 639.493 202.041 414.926C202.269 394.704 202.269 375.014 202.269 355.857C202.269 145.353 202.269 0.152136 202.269 0.152136" stroke="white" stroke-miterlimit="10"/>
<path d="M303.29 1920C303.29 1920 303.29 1650.05 303.29 1312.51C303.29 1290.01 303.29 1267.2 303.29 1244.17C303.29 1220.53 303.974 1196.96 305.038 1173.47C303.746 901.083 295.309 622.54 302.986 356.237C303.366 320.887 303.366 287.513 303.366 256.345C303.366 100.881 303.366 0.0759198 303.366 0.0759198" stroke="white" stroke-miterlimit="10"/>
<path d="M404.387 1920C404.387 1920 404.387 1650.05 404.387 1312.51C404.387 1290.01 404.387 1267.2 404.387 1244.17C402.106 1224.63 401.194 1205.32 401.422 1186.24C405.071 1053.05 430.383 934.837 447.258 799.823C472.57 630.979 421.946 470.649 404.387 300.133C404.387 264.099 404.387 230.497 404.387 199.785C404.387 76.9338 404.387 0.152136 404.387 0.152136" stroke="white" stroke-miterlimit="10"/>
<path d="M505.407 1920C505.407 1920 505.407 1650.05 505.407 1312.51C505.407 1290.01 505.407 1267.2 505.407 1244.17C503.887 1224.63 503.735 1205.32 504.647 1186.24C505.559 1167.08 507.459 1148.15 509.436 1129.6C514.757 934.913 624.519 766.069 632.956 580.348C632.956 479.088 548.582 403.066 514.225 309.18C508.22 292.151 503.963 274.742 502.215 256.573C500.542 238.48 501.302 219.626 505.407 199.785C505.407 169.072 505.407 141.248 505.407 116.769C505.407 43.3323 505.407 0.152136 505.407 0.152136" stroke="white" stroke-miterlimit="10"/>
<path d="M606.428 1920C606.428 1920 606.428 1650.05 606.428 1312.51C606.428 1290.01 606.428 1267.2 606.428 1244.17C605.212 1216.5 605.82 1189.51 607.948 1162.9C610.076 1136.29 613.345 1110.14 616.538 1084.75C624.519 960.152 675.143 850.453 725.768 740.678C801.704 563.396 700.455 411.505 620.11 262.882C611.749 240.304 605.592 217.041 602.931 192.791C600.271 168.54 601.031 143.3 606.428 116.693C606.428 79.9745 606.428 50.7823 606.428 30.8647C606.428 10.871 606.428 0.0759198 606.428 0.0759198" stroke="white" stroke-miterlimit="10"/>
<path d="M707.448 1920C707.448 1920 707.448 1612.8 707.448 1244.17C707.448 1221.13 707.448 1197.87 707.524 1174.38C713.301 1146.71 718.622 1119.11 723.487 1091.67C751.079 858.815 860.841 622.464 796.383 387.862C789.314 362.015 780.04 336.243 768.41 310.624C756.78 285.005 742.642 259.538 725.767 234.146C700.455 191.954 708.892 158.201 707.6 116.465C707.448 79.8985 707.448 50.7063 707.448 30.7887C707.448 10.795 707.448 -6.00585e-05 707.448 -6.00585e-05" stroke="white" stroke-miterlimit="10"/>
<path d="M808.469 1920C808.469 1920 808.469 1531.23 808.469 1103.6C808.469 1079.81 808.545 1055.86 809.989 1030.7C869.279 850.453 886.154 664.808 874.296 480.988C871.635 450.58 868.139 420.171 863.958 389.763C851.34 298.537 832.033 207.463 808.849 116.389C808.469 80.0507 808.469 50.8584 808.469 30.9408C808.469 10.9471 808.469 0.152136 808.469 0.152136" stroke="white" stroke-miterlimit="10"/>
<path d="M909.566 1920C909.566 1920 909.566 1486.83 909.566 1031.99C909.566 1008.05 909.566 984.023 910.098 959.544C936.854 782.946 979.041 614.102 953.729 428.457C936.854 318.758 903.105 225.86 909.718 116.617C909.566 92.2902 909.566 71.1562 909.566 53.8993C909.566 19.3095 909.566 0.152136 909.566 0.152136" stroke="white" stroke-miterlimit="10"/>
<path d="M1010.59 1920C1010.59 1920 1010.59 1836.68 1010.59 1704.71C1010.59 1678.33 1010.59 1650.05 1010.59 1620.17C1010.97 1600.18 1011.27 1580.03 1011.5 1559.73C1011.73 1539.44 1011.88 1519.06 1011.95 1498.61C1012.71 1399.02 1012.71 1297.69 1010.59 1198.1C1010.59 1178.56 1010.59 1158.87 1010.59 1139.03C1010.59 1079.96 1010.59 1019.98 1010.59 960C1010.59 935.977 1010.59 912.03 1010.66 887.932C1038.03 647.856 1029.59 411.505 1011.12 176.674C1010.59 140.716 1010.59 108.863 1010.59 82.6354C1010.59 30.1046 1010.59 0.152136 1010.59 0.152136" stroke="white" stroke-miterlimit="10"/>
<path d="M1111.61 1920C1111.61 1920 1111.61 1900.77 1111.61 1866.25C1111.61 1849 1111.61 1827.86 1111.61 1803.38C1111.91 1773.96 1112.06 1744.62 1112.06 1715.43C1097.16 1458.25 1114.04 1213.46 1111.61 960.076C1111.61 930.048 1111.61 900.095 1111.61 870.219C1111.61 840.342 1111.61 810.542 1111.68 780.893C1114.04 605.664 1114.04 420.019 1111.83 242.205C1111.61 205.562 1111.61 172.037 1111.61 142.388C1111.61 53.5192 1111.61 0.152136 1111.61 0.152136" stroke="white" stroke-miterlimit="10"/>
<path d="M1212.63 1920C1212.63 1920 1212.63 1889.97 1212.7 1838.05C1212.1 1811.9 1211.34 1785.82 1209.97 1759.9C1156.15 1466.61 1198.41 1179.63 1212.63 888.084C1212.63 864.137 1212.63 840.266 1212.63 816.471C1212.63 773.671 1212.63 731.327 1212.63 689.667C1212.63 668.837 1212.63 648.236 1212.63 627.786C1215.29 538.004 1215.29 436.744 1212.63 344.301C1212.63 310.244 1212.63 278.011 1212.63 247.83C1212.63 97.1554 1212.63 -5.97124e-05 1212.63 -5.97124e-05" stroke="white" stroke-miterlimit="10"/>
<path d="M1313.65 1920C1313.65 1920 1313.65 1900.77 1313.72 1866.71C1311.44 1836.83 1308.71 1807.03 1304.37 1777.54C1206.85 1491.92 1240.6 1188.06 1313.19 889.3C1313.57 864.213 1313.65 840.266 1313.65 816.547C1313.65 388.926 1313.65 0.152137 1313.65 0.152137" stroke="white" stroke-miterlimit="10"/>
<path d="M1414.67 1920C1414.67 1920 1414.67 1900.77 1414.74 1866.86C1418.09 1840.94 1417.86 1815.93 1414.14 1791.68C1392.47 1694.52 1324.97 1618.57 1299.66 1517.24C1249.04 1297.76 1367.16 1112.04 1397.49 900.247C1402.51 871.131 1408.21 843.535 1414.67 816.471C1414.67 792.677 1414.67 769.034 1414.67 745.619C1414.67 346.81 1414.67 0.0759212 1414.67 0.0759212" stroke="white" stroke-miterlimit="10"/>
<path d="M1515.77 1920C1515.77 1920 1515.77 1900.77 1515.77 1866.4C1516.6 1848.77 1517.74 1830.75 1518.2 1812.96C1535.98 1694.52 1409.42 1643.89 1375.67 1542.55C1341.92 1458.17 1358.8 1365.27 1384.11 1280.89C1426.3 1154.24 1476.92 1036.1 1494.63 899.715C1500.79 870.979 1507.56 843.687 1514.7 816.699C1515.69 792.753 1515.69 769.11 1515.77 745.695C1515.77 346.886 1515.77 0.152138 1515.77 0.152138" stroke="white" stroke-miterlimit="10"/>
<path d="M1616.79 1920C1616.79 1920 1616.79 1900.77 1616.79 1866.25C1616.79 1849 1616.79 1827.86 1616.71 1803.61C1603.48 1753.66 1628.87 1686.16 1586.61 1652.4C1341.85 1441.37 1561.3 1145.95 1591.78 897.586C1598.85 870.599 1606.75 843.687 1615.57 816.699C1616.63 792.829 1616.63 769.186 1616.71 745.695C1616.71 346.886 1616.71 0.152138 1616.71 0.152138" stroke="white" stroke-miterlimit="10"/>
<path d="M1717.81 1920C1717.81 1920 1717.81 1876.82 1717.81 1803.38C1717.81 1778.9 1717.81 1751.08 1717.5 1720.37C1713.25 1694.52 1721.76 1669.2 1713.25 1652.33C1544.42 1441.29 1645.75 1204.94 1683.22 979.614C1688.39 951.638 1693.71 924.498 1699.56 897.358C1705.04 870.523 1710.97 843.535 1717.27 816.547C1717.65 792.753 1717.73 769.186 1717.81 745.695C1717.81 346.886 1717.81 0.152137 1717.81 0.152137" stroke="white" stroke-miterlimit="10"/>
<path d="M1818.83 1920C1818.83 1920 1818.83 1843.22 1818.83 1720.37C1818.83 1689.65 1818.83 1656.05 1818.75 1620.02C1811.91 1593.49 1806.13 1566.8 1801.12 1540.12C1780.74 1407.54 1772.31 1272.52 1787.36 1137.81C1789.11 1110.67 1791.16 1083.84 1793.36 1057.08C1795.64 1030.55 1798 1004.09 1800.51 977.865C1802.79 951.105 1805.45 924.27 1808.49 897.434C1811.53 870.599 1814.95 843.611 1818.75 816.623C1818.75 792.829 1818.83 769.262 1818.83 745.771C1818.83 346.962 1818.83 0.227996 1818.83 0.227996" stroke="white" stroke-miterlimit="10"/>
<path d="M1919.85 1920C1919.85 1920 1919.85 1774.8 1919.85 1564.3C1919.77 1545.14 1919.77 1525.45 1919.62 1505.3C1918.63 1453.46 1917.95 1401.84 1917.42 1350.45C1916.88 1299.06 1916.73 1247.82 1916.73 1196.58C1916.73 1145.34 1916.96 1094.1 1917.49 1042.79C1918.02 991.397 1918.71 939.93 1919.7 888.16C1919.7 864.213 1919.77 840.342 1919.77 816.547C1919.77 388.926 1919.77 0.152136 1919.77 0.152136" stroke="white" stroke-miterlimit="10"/>
<path d="M1919.85 808.489C1919.85 808.489 1876.67 808.489 1803.24 808.489C1778.77 808.489 1750.95 808.489 1720.16 808.489C1628.8 808.261 1535.98 808.261 1443.33 808.489C1422.27 808.489 1400.83 808.489 1378.94 808.489C1312.43 808.489 1242.5 808.489 1171.05 808.489C1147.18 808.489 1123.16 808.489 1099.06 808.489C1060.07 808.413 1021.61 806.209 986.566 797.77C951.524 789.332 919.827 774.507 894.439 749.344C852.328 715.439 801.704 690.124 742.642 690.124C489.444 707 261.559 842.091 0.151856 808.565" stroke="white" stroke-miterlimit="10"/>
<path d="M1919.85 707.456C1919.85 707.456 1606.9 707.456 1233.76 707.456C1214.15 707.456 1194.31 707.456 1174.39 707.456C1110.47 719.848 1053.15 702.895 999.184 677.504C981.169 669.066 963.611 659.639 946.204 650.136C860.842 588.863 759.517 563.548 649.831 580.424C421.945 631.055 227.809 740.83 0.151856 707.532" stroke="white" stroke-miterlimit="10"/>
<path d="M1919.85 606.424C1919.85 606.424 1638.98 606.424 1292.14 606.424C1272.83 606.424 1253.37 606.424 1233.76 606.424C1120.2 622.845 1026.02 571.986 928.341 528.806C903.941 518.011 879.313 507.748 854.077 499.234C801.704 479.088 742.566 470.649 691.942 479.088C455.619 546.595 244.608 639.493 0.151856 606.424" stroke="white" stroke-miterlimit="10"/>
<path d="M1919.85 505.315C1919.85 505.315 1638.98 505.315 1292.14 505.315C1272.83 505.315 1253.37 505.315 1233.76 505.315C1112.82 518.543 1004.81 467.989 889.118 436.136C866.01 429.75 842.522 424.124 818.654 419.943C582.331 411.505 354.446 529.642 116.375 505.467C80.1167 505.315 51.0039 505.315 31.0126 505.315C11.0213 505.315 0.227539 505.315 0.227539 505.315" stroke="white" stroke-miterlimit="10"/>
<path d="M1919.85 404.283C1919.85 404.283 1638.98 404.283 1292.14 404.283C1271.77 404.283 1251.09 404.283 1230.26 404.283C1075.04 386.798 921.5 369.617 767.27 365.36C736.485 364.676 705.624 364.448 674.611 364.98C514.757 369.237 362.808 402.991 199.761 404.359C169.128 404.283 141.307 404.283 116.755 404.283C43.327 404.283 0.151855 404.283 0.151855 404.283" stroke="white" stroke-miterlimit="10"/>
<path d="M1919.85 303.25C1919.85 303.25 1606.9 303.25 1233.76 303.25C1211.79 303.25 1189.67 303.25 1167.4 303.174C988.239 290.402 814.55 286.525 640.101 291.695C615.169 292.455 590.237 293.367 565.305 294.507C497.958 301.806 421.945 301.806 355.966 303.25C320.849 303.25 287.631 303.25 256.542 303.25C101.096 303.25 0.303711 303.25 0.303711 303.25" stroke="white" stroke-miterlimit="10"/>
<path d="M1919.85 202.217C1919.85 202.217 1552.4 202.217 1139.05 202.217C1118.37 202.217 1097.62 202.217 1076.87 202.065C902.953 200.545 717.254 192.107 541.209 202.065C521.902 202.217 503.051 202.217 484.58 202.217C206.83 202.217 0.151855 202.217 0.151855 202.217" stroke="white" stroke-miterlimit="10"/>
<path d="M1919.85 101.185C1919.85 101.185 1486.73 101.185 1031.95 101.185C1008 101.185 983.982 101.185 960.038 101.185C869.279 99.208 767.954 99.208 675.903 101.185C652.871 101.185 630.068 101.185 607.568 101.185C270.148 101.185 0.151855 101.185 0.151855 101.185" stroke="white" stroke-miterlimit="10"/>
</g>
</svg>
