<svg width="321" height="218" viewBox="0 0 321 218" fill="none" xmlns="http://www.w3.org/2000/svg">
<path d="M8.917 19.234C7.461 19.234 6.2 18.935 5.134 18.337C4.068 17.739 3.2425 16.907 2.6575 15.841C2.0855 14.762 1.7995 13.5205 1.7995 12.1165C1.7995 10.6995 2.0855 9.458 2.6575 8.392C3.2425 7.326 4.068 6.5005 5.134 5.9155C6.2 5.3175 7.461 5.0185 8.917 5.0185C10.386 5.0185 11.6535 5.3175 12.7195 5.9155C13.7855 6.5005 14.611 7.326 15.196 8.392C15.781 9.458 16.0735 10.6995 16.0735 12.1165C16.0735 13.5335 15.781 14.775 15.196 15.841C14.611 16.907 13.7855 17.739 12.7195 18.337C11.6535 18.935 10.386 19.234 8.917 19.234ZM8.917 15.7435C9.853 15.7435 10.542 15.425 10.984 14.788C11.439 14.138 11.6665 13.2475 11.6665 12.1165C11.6665 10.9855 11.439 10.1015 10.984 9.4645C10.542 8.8275 9.853 8.509 8.917 8.509C7.981 8.509 7.292 8.8275 6.85 9.4645C6.421 10.0885 6.2065 10.9725 6.2065 12.1165C6.2065 13.2605 6.421 14.151 6.85 14.788C7.292 15.425 7.981 15.7435 8.917 15.7435ZM18.0128 19V5.2525H28.8743V8.4115H22.0103V10.4005H25.3448C26.8918 10.4005 28.1138 10.7775 29.0108 11.5315C29.9078 12.2725 30.3563 13.3255 30.3563 14.6905C30.3563 16.0685 29.9078 17.1345 29.0108 17.8885C28.1138 18.6295 26.8918 19 25.3448 19H18.0128ZM22.0103 15.8995H24.7598C25.3578 15.8995 25.7803 15.802 26.0273 15.607C26.2873 15.399 26.4173 15.0935 26.4173 14.6905C26.4173 14.2875 26.2873 13.9885 26.0273 13.7935C25.7803 13.5985 25.3578 13.501 24.7598 13.501H22.0103V15.8995ZM34.8397 19V8.6065H30.9982V5.2525H39.0127V10.4005H42.1522C43.6992 10.4005 44.9212 10.7775 45.8182 11.5315C46.7282 12.2725 47.1832 13.3255 47.1832 14.6905C47.1832 16.0685 46.7282 17.1345 45.8182 17.8885C44.9212 18.6295 43.6992 19 42.1522 19H34.8397ZM39.0127 15.8995H41.5867C42.1847 15.8995 42.6072 15.802 42.8542 15.607C43.1012 15.399 43.2247 15.0935 43.2247 14.6905C43.2247 14.2875 43.1012 13.9885 42.8542 13.7935C42.6072 13.5855 42.1847 13.4815 41.5867 13.4815H39.0127V15.8995ZM48.7291 19V5.2525H58.9276V8.4505H52.7461V10.42H58.4596V13.618H52.7461V15.802H58.9276V19H48.7291ZM59.6374 22.51V15.841H61.0804C62.1464 14.515 62.6794 12.214 62.6794 8.938V5.2525H73.7554V15.841H75.7639V22.51H72.1759V19H63.2254V22.51H59.6374ZM65.1949 15.841H69.5824V8.4115H66.5014V9.406C66.5014 12.292 66.0659 14.437 65.1949 15.841ZM77.3317 19V5.2525H81.2317V12.3895L87.0427 5.2525H90.1042V19H86.2042V11.863L80.3932 19H77.3317ZM92.3756 19V5.2525H96.5876V10.3225H101.287V5.2525H105.499V19H101.287V13.7545H96.5876V19H92.3756ZM106.904 19L109.03 15.2755C109.485 14.5085 110.076 14.0145 110.804 13.7935C109.79 13.5205 109.017 13.0265 108.484 12.3115C107.951 11.5835 107.684 10.693 107.684 9.64C107.684 8.275 108.126 7.2025 109.01 6.4225C109.894 5.6425 111.142 5.2525 112.754 5.2525H119.891V19H115.718V14.086H115.094C114.561 14.086 114.178 14.281 113.944 14.671L111.487 19H106.904ZM113.495 11.1805H115.718V8.4115H113.495C112.26 8.4115 111.643 8.873 111.643 9.796C111.643 10.719 112.26 11.1805 113.495 11.1805ZM122.159 19V5.2525H132.357V8.4505H126.176V10.42H131.889V13.618H126.176V15.802H132.357V19H122.159ZM134.081 19V5.2525H137.747L141.589 13.852L145.43 5.2525H149.096V19H145.294V13.5595L142.72 19H140.399L137.884 13.6765V19H134.081ZM160.298 19V8.6455H156.32V5.2525H168.488V8.6455H164.51V19H160.298ZM166.316 19L172.848 5.2525H176.261L182.832 19H178.62L177.489 16.4455H171.639L170.508 19H166.316ZM174.545 9.5425L172.985 13.267H176.202L174.642 9.5425H174.545ZM184.437 19.39L182.331 16.465C183.072 16.023 183.663 15.503 184.105 14.905C184.56 14.307 184.885 13.5725 185.08 12.7015C185.275 11.8305 185.373 10.784 185.373 9.562V5.2525H196.468V19H192.295V8.6065H189.214V10.5955C189.214 12.7925 188.785 14.632 187.927 16.114C187.082 17.596 185.919 18.688 184.437 19.39ZM196.937 19L203.469 5.2525H206.882L213.453 19H209.241L208.11 16.4455H202.26L201.129 19H196.937ZM205.166 9.5425L203.606 13.267H206.823L205.263 9.5425H205.166ZM213.927 19V5.2525H218.139V10.3225H222.838V5.2525H227.05V19H222.838V13.7545H218.139V19H213.927ZM232.395 19V8.6455H228.417V5.2525H240.585V8.6455H236.607V19H232.395ZM242.899 19.39L240.793 16.465C241.534 16.023 242.125 15.503 242.567 14.905C243.022 14.307 243.347 13.5725 243.542 12.7015C243.737 11.8305 243.835 10.784 243.835 9.562V5.2525H254.93V19H250.757V8.6065H247.676V10.5955C247.676 12.7925 247.247 14.632 246.389 16.114C245.544 17.596 244.381 18.688 242.899 19.39ZM257.193 19V5.2525H261.093V12.3895L266.904 5.2525H269.965V19H266.065V11.863L260.254 19H257.193ZM272.236 19V5.2525H279.276C280.823 5.2525 282.012 5.5775 282.844 6.2275C283.689 6.8645 284.112 7.7225 284.112 8.8015C284.112 9.5035 283.93 10.121 283.566 10.654C283.215 11.174 282.721 11.564 282.084 11.824C282.877 12.071 283.481 12.474 283.897 13.033C284.313 13.579 284.521 14.255 284.521 15.061C284.521 16.257 284.066 17.2125 283.156 17.9275C282.246 18.6425 281.018 19 279.471 19H272.236ZM276.253 10.498H278.476C279.048 10.498 279.458 10.4135 279.705 10.2445C279.965 10.0625 280.095 9.7765 280.095 9.3865C280.095 8.9965 279.965 8.717 279.705 8.548C279.458 8.379 279.048 8.2945 278.476 8.2945H276.253V10.498ZM276.253 15.958H278.905C279.997 15.958 280.543 15.555 280.543 14.749C280.543 13.943 279.997 13.54 278.905 13.54H276.253V15.958ZM287.285 19L289.489 14.749L283.6 5.2525H288.007L291.478 11.0245L294.442 5.2525H298.751L291.614 19H287.285ZM312.284 19.234C311.062 19.234 309.963 19.0065 308.988 18.5515C308.013 18.0965 307.207 17.4595 306.57 16.6405C305.946 15.8085 305.524 14.8335 305.303 13.7155H303.47V19H299.297V5.2525H303.47V10.3615H305.322C305.556 9.2695 305.992 8.327 306.629 7.534C307.266 6.728 308.065 6.1105 309.027 5.6815C309.989 5.2395 311.075 5.0185 312.284 5.0185C313.727 5.0185 314.988 5.3175 316.067 5.9155C317.146 6.5005 317.984 7.326 318.582 8.392C319.18 9.458 319.479 10.6995 319.479 12.1165C319.479 13.5335 319.174 14.7815 318.563 15.8605C317.965 16.9265 317.126 17.7585 316.047 18.3565C314.968 18.9415 313.714 19.234 312.284 19.234ZM312.303 15.7825C313.187 15.7825 313.883 15.4575 314.39 14.8075C314.897 14.1575 315.15 13.2605 315.15 12.1165C315.15 10.9725 314.897 10.082 314.39 9.445C313.883 8.795 313.187 8.47 312.303 8.47C311.419 8.47 310.724 8.7885 310.217 9.4255C309.723 10.0625 309.476 10.9595 309.476 12.1165C309.476 13.2605 309.723 14.1575 310.217 14.8075C310.724 15.4575 311.419 15.7825 312.303 15.7825Z" fill="white"/>
<mask id="path-2-outside-1_3427_4491" maskUnits="userSpaceOnUse" x="1" y="40" width="319" height="36" fill="black">
<rect fill="white" x="1" y="40" width="319" height="36"/>
<path d="M2.8239 69V47.9205H8.4451L14.3354 61.1064L20.2257 47.9205H25.8469V69H20.0164V60.6579L16.0696 69H12.5115L8.6544 60.8373V69H2.8239ZM39.7983 69.3588C37.5658 69.3588 35.6322 68.9003 33.9977 67.9834C32.3632 67.0665 31.0974 65.7907 30.2004 64.1562C29.3233 62.5017 28.8848 60.5981 28.8848 58.4453C28.8848 56.2726 29.3233 54.3689 30.2004 52.7344C31.0974 51.0999 32.3632 49.8341 33.9977 48.9371C35.6322 48.0202 37.5658 47.5617 39.7983 47.5617C42.0508 47.5617 43.9943 48.0202 45.6288 48.9371C47.2633 49.8341 48.5291 51.0999 49.4261 52.7344C50.3231 54.3689 50.7716 56.2726 50.7716 58.4453C50.7716 60.618 50.3231 62.5217 49.4261 64.1562C48.5291 65.7907 47.2633 67.0665 45.6288 67.9834C43.9943 68.9003 42.0508 69.3588 39.7983 69.3588ZM39.7983 64.0067C41.2335 64.0067 42.29 63.5183 42.9677 62.5416C43.6654 61.5449 44.0142 60.1795 44.0142 58.4453C44.0142 56.7111 43.6654 55.3556 42.9677 54.3789C42.29 53.4022 41.2335 52.9138 39.7983 52.9138C38.3631 52.9138 37.3066 53.4022 36.6289 54.3789C35.9711 55.3357 35.6422 56.6912 35.6422 58.4453C35.6422 60.1994 35.9711 61.5649 36.6289 62.5416C37.3066 63.5183 38.3631 64.0067 39.7983 64.0067ZM55.3334 69.598L52.1042 65.113C53.2404 64.4353 54.1474 63.6379 54.8251 62.721C55.5228 61.8041 56.0211 60.6778 56.3201 59.3423C56.6191 58.0068 56.7686 56.4021 56.7686 54.5284V47.9205H73.7817V69H67.3831V53.0633H62.6589V56.1131C62.6589 59.4818 62.0011 62.3024 60.6855 64.5748C59.3899 66.8472 57.6058 68.5216 55.3334 69.598ZM87.6558 69.3588C85.4233 69.3588 83.4897 68.9003 81.8552 67.9834C80.2207 67.0665 78.9549 65.7907 78.0579 64.1562C77.1808 62.5017 76.7423 60.5981 76.7423 58.4453C76.7423 56.2726 77.1808 54.3689 78.0579 52.7344C78.9549 51.0999 80.2207 49.8341 81.8552 48.9371C83.4897 48.0202 85.4233 47.5617 87.6558 47.5617C89.9083 47.5617 91.8518 48.0202 93.4863 48.9371C95.1208 49.8341 96.3866 51.0999 97.2836 52.7344C98.1806 54.3689 98.6291 56.2726 98.6291 58.4453C98.6291 60.618 98.1806 62.5217 97.2836 64.1562C96.3866 65.7907 95.1208 67.0665 93.4863 67.9834C91.8518 68.9003 89.9083 69.3588 87.6558 69.3588ZM87.6558 64.0067C89.091 64.0067 90.1475 63.5183 90.8252 62.5416C91.5229 61.5449 91.8717 60.1795 91.8717 58.4453C91.8717 56.7111 91.5229 55.3556 90.8252 54.3789C90.1475 53.4022 89.091 52.9138 87.6558 52.9138C86.2206 52.9138 85.1641 53.4022 84.4864 54.3789C83.8286 55.3357 83.4997 56.6912 83.4997 58.4453C83.4997 60.1994 83.8286 61.5649 84.4864 62.5416C85.1641 63.5183 86.2206 64.0067 87.6558 64.0067ZM99.5537 74.382V64.1562H101.766C103.401 62.123 104.218 58.5948 104.218 53.5716V47.9205H121.201V64.1562H124.281V74.382H118.779V69H105.055V74.382H99.5537ZM108.075 64.1562H114.803V52.7643H110.078V54.2892C110.078 58.7144 109.411 62.0034 108.075 64.1562ZM126.685 69V47.9205H142.323V52.8241H132.844V55.844H141.605V60.7476H132.844V64.0964H142.323V69H126.685ZM135.984 46.276V41.2229H141.007V46.276H135.984ZM129.525 46.276V41.2229H134.549V46.276H129.525ZM142.873 69L146.79 61.1662C147.228 60.2891 147.707 59.5416 148.225 58.9237C148.763 58.3058 149.371 57.7975 150.049 57.3988L143.919 47.9205H150.886L155.819 56.0832H156.866V47.9205H162.995V56.0832H164.072L168.946 47.9205H175.912L169.783 57.3988C170.48 57.7975 171.088 58.3157 171.607 58.9536C172.145 59.5715 172.633 60.3091 173.072 61.1662L176.959 69H170.052L167.331 63.1695C167.012 62.4718 166.603 61.9735 166.105 61.6745C165.607 61.3755 164.919 61.226 164.042 61.226H162.995V69H156.866V61.226H155.819C154.962 61.226 154.285 61.3755 153.786 61.6745C153.288 61.9735 152.869 62.4718 152.53 63.1695L149.78 69H142.873ZM198.365 69.3588C196.013 69.3588 193.969 68.9103 192.235 68.0133C190.521 67.0964 189.185 65.8206 188.229 64.1861C187.292 62.5516 186.823 60.638 186.823 58.4453C186.823 56.2526 187.292 54.349 188.229 52.7344C189.185 51.0999 190.521 49.8341 192.235 48.9371C193.969 48.0202 196.013 47.5617 198.365 47.5617C199.8 47.5617 201.116 47.7511 202.312 48.1298C203.527 48.4886 204.534 49.0069 205.331 49.6846L203.448 54.7377C202.551 54.1397 201.743 53.7311 201.026 53.5118C200.308 53.2726 199.501 53.153 198.604 53.153C196.989 53.153 195.744 53.6115 194.866 54.5284C194.009 55.4254 193.581 56.731 193.581 58.4453C193.581 60.1795 194.009 61.5051 194.866 62.422C195.744 63.319 196.989 63.7675 198.604 63.7675C199.501 63.7675 200.308 63.6579 201.026 63.4386C201.743 63.1994 202.551 62.7808 203.448 62.1828L205.331 67.2359C204.534 67.9136 203.527 68.4419 202.312 68.8206C201.116 69.1794 199.8 69.3588 198.365 69.3588ZM212.233 69V53.1231H206.133V47.9205H224.791V53.1231H218.691V69H212.233ZM226.897 69V47.9205H237.78C240.272 47.9205 242.146 48.5384 243.401 49.7743C244.657 50.9902 245.285 52.6347 245.285 54.7078C245.285 56.7609 244.657 58.4054 243.401 59.6413C242.146 60.8772 240.272 61.4951 237.78 61.4951H233.355V69H226.897ZM233.355 56.5915H236.913C238.388 56.5915 239.126 55.9636 239.126 54.7078C239.126 53.452 238.388 52.8241 236.913 52.8241H233.355V56.5915ZM242.658 69L252.675 47.9205H257.907L267.983 69H261.525L259.791 65.0831H250.821L249.087 69H242.658ZM255.276 54.4985L252.884 60.2094H257.817L255.425 54.4985H255.276ZM268.71 69V47.9205H275.168V55.6945H282.374V47.9205H288.833V69H282.374V60.9569H275.168V69H268.71ZM292.303 69V47.9205H298.701V55.8141H302.618C304.99 55.8141 306.864 56.3922 308.24 57.5483C309.615 58.6845 310.303 60.2991 310.303 62.3921C310.303 64.505 309.615 66.1396 308.24 67.2957C306.864 68.4319 304.99 69 302.618 69H292.303ZM312.515 69V47.9205H318.914V69H312.515ZM298.701 64.2459H301.721C302.638 64.2459 303.286 64.0964 303.665 63.7974C304.064 63.4785 304.263 63.01 304.263 62.3921C304.263 61.7742 304.064 61.3157 303.665 61.0167C303.286 60.6978 302.638 60.5383 301.721 60.5383H298.701V64.2459Z"/>
</mask>
<path d="M2.8239 69H1.8239V70H2.8239V69ZM2.8239 47.9205V46.9205H1.8239V47.9205H2.8239ZM8.4451 47.9205L9.35814 47.5126L9.09363 46.9205H8.4451V47.9205ZM14.3354 61.1064L13.4224 61.5143L14.3354 63.5582L15.2484 61.5143L14.3354 61.1064ZM20.2257 47.9205V46.9205H19.5772L19.3127 47.5126L20.2257 47.9205ZM25.8469 47.9205H26.8469V46.9205H25.8469V47.9205ZM25.8469 69V70H26.8469V69H25.8469ZM20.0164 69H19.0164V70H20.0164V69ZM20.0164 60.6579H21.0164L19.1125 60.2302L20.0164 60.6579ZM16.0696 69V70H16.7028L16.9735 69.4277L16.0696 69ZM12.5115 69L11.6074 69.4272L11.878 70H12.5115V69ZM8.6544 60.8373L9.55854 60.4101L7.6544 60.8373H8.6544ZM8.6544 69V70H9.6544V69H8.6544ZM3.8239 69V47.9205H1.8239V69H3.8239ZM2.8239 48.9205H8.4451V46.9205H2.8239V48.9205ZM7.53206 48.3284L13.4224 61.5143L15.2484 60.6985L9.35814 47.5126L7.53206 48.3284ZM15.2484 61.5143L21.1387 48.3284L19.3127 47.5126L13.4224 60.6985L15.2484 61.5143ZM20.2257 48.9205H25.8469V46.9205H20.2257V48.9205ZM24.8469 47.9205V69H26.8469V47.9205H24.8469ZM25.8469 68H20.0164V70H25.8469V68ZM21.0164 69V60.6579H19.0164V69H21.0164ZM19.1125 60.2302L15.1657 68.5723L16.9735 69.4277L20.9203 61.0856L19.1125 60.2302ZM16.0696 68H12.5115V70H16.0696V68ZM13.4156 68.5728L9.55854 60.4101L7.75026 61.2645L11.6074 69.4272L13.4156 68.5728ZM7.6544 60.8373V69H9.6544V60.8373H7.6544ZM8.6544 68H2.8239V70H8.6544V68ZM33.9977 67.9834L34.4869 67.1113L33.9977 67.9834ZM30.2004 64.1562L29.3169 64.6246L29.3202 64.631L29.3237 64.6373L30.2004 64.1562ZM30.2004 52.7344L29.3237 52.2533L29.3192 52.2616L30.2004 52.7344ZM33.9977 48.9371L34.4788 49.8138L34.4869 49.8092L33.9977 48.9371ZM45.6288 48.9371L45.1395 49.8093L45.1477 49.8138L45.6288 48.9371ZM49.4261 52.7344L50.3028 52.2533L49.4261 52.7344ZM49.4261 64.1562L50.3028 64.6373L49.4261 64.1562ZM45.6288 67.9834L45.1395 67.1113L45.6288 67.9834ZM42.9677 62.5416L42.1484 61.9681L42.1461 61.9715L42.9677 62.5416ZM42.9677 54.3789L42.146 54.949L42.154 54.9601L42.9677 54.3789ZM36.6289 54.3789L35.8073 53.8088L35.8048 53.8124L36.6289 54.3789ZM36.6289 62.5416L35.7994 63.1003L35.8073 63.1117L36.6289 62.5416ZM39.7983 68.3588C37.7043 68.3588 35.9458 67.9297 34.4869 67.1113L33.5084 68.8555C35.3186 69.871 37.4272 70.3588 39.7983 70.3588V68.3588ZM34.4869 67.1113C33.0147 66.2854 31.8835 65.1447 31.0771 63.6751L29.3237 64.6373C30.3112 66.4368 31.7116 67.8476 33.5084 68.8555L34.4869 67.1113ZM31.0839 63.6878C30.2941 62.1979 29.8848 60.4594 29.8848 58.4453H27.8848C27.8848 60.7368 28.3526 62.8056 29.3169 64.6246L31.0839 63.6878ZM29.8848 58.4453C29.8848 56.4092 30.2949 54.6733 31.0815 53.2072L29.3192 52.2616C28.3518 54.0646 27.8848 56.1359 27.8848 58.4453H29.8848ZM31.0771 53.2155C31.8825 51.7478 33.0111 50.6192 34.4788 49.8138L33.5166 48.0604C31.7153 49.049 30.3123 50.452 29.3237 52.2533L31.0771 53.2155ZM34.4869 49.8092C35.9458 48.9908 37.7043 48.5617 39.7983 48.5617V46.5617C37.4272 46.5617 35.3186 47.0495 33.5084 48.065L34.4869 49.8092ZM39.7983 48.5617C41.9139 48.5617 43.6819 48.9915 45.1395 49.8092L46.118 48.065C44.3066 47.0488 42.1876 46.5617 39.7983 46.5617V48.5617ZM45.1477 49.8138C46.6154 50.6192 47.744 51.7478 48.5494 53.2155L50.3028 52.2533C49.3142 50.452 47.9112 49.049 46.1099 48.0604L45.1477 49.8138ZM48.5494 53.2155C49.353 54.6799 49.7716 56.4128 49.7716 58.4453H51.7716C51.7716 56.1323 51.2931 54.058 50.3028 52.2533L48.5494 53.2155ZM49.7716 58.4453C49.7716 60.4778 49.353 62.2107 48.5494 63.6751L50.3028 64.6373C51.2931 62.8326 51.7716 60.7583 51.7716 58.4453H49.7716ZM48.5494 63.6751C47.7429 65.1447 46.6118 66.2854 45.1395 67.1113L46.118 68.8555C47.9149 67.8476 49.3152 66.4368 50.3028 64.6373L48.5494 63.6751ZM45.1395 67.1113C43.6819 67.929 41.9139 68.3588 39.7983 68.3588V70.3588C42.1876 70.3588 44.3066 69.8717 46.118 68.8555L45.1395 67.1113ZM39.7983 65.0067C41.4839 65.0067 42.8846 64.4155 43.7893 63.1117L42.1461 61.9715C41.6953 62.6211 40.983 63.0067 39.7983 63.0067V65.0067ZM43.7869 63.1151C44.6426 61.8926 45.0142 60.3007 45.0142 58.4453H43.0142C43.0142 60.0583 42.6881 61.1972 42.1485 61.9681L43.7869 63.1151ZM45.0142 58.4453C45.0142 56.5916 44.6433 55.0043 43.7814 53.7977L42.154 54.9601C42.6874 55.707 43.0142 56.8306 43.0142 58.4453H45.0142ZM43.7893 53.8088C42.8846 52.505 41.4839 51.9138 39.7983 51.9138V53.9138C40.983 53.9138 41.6953 54.2994 42.1461 54.949L43.7893 53.8088ZM39.7983 51.9138C38.1126 51.9138 36.712 52.505 35.8073 53.8088L37.4505 54.949C37.9012 54.2994 38.6135 53.9138 39.7983 53.9138V51.9138ZM35.8048 53.8124C34.9876 55.001 34.6422 56.5859 34.6422 58.4453H36.6422C36.6422 56.7965 36.9545 55.6704 37.4529 54.9454L35.8048 53.8124ZM34.6422 58.4453C34.6422 60.3067 34.9884 61.8959 35.7994 63.1002L37.4583 61.983C36.9538 61.2338 36.6422 60.0922 36.6422 58.4453H34.6422ZM35.8073 63.1117C36.712 64.4155 38.1126 65.0067 39.7983 65.0067V63.0067C38.6135 63.0067 37.9012 62.6211 37.4505 61.9715L35.8073 63.1117ZM55.3334 69.598L54.5219 70.1823L55.0087 70.8584L55.7615 70.5017L55.3334 69.598ZM52.1042 65.113L51.592 64.2542L50.6557 64.8126L51.2927 65.6973L52.1042 65.113ZM54.8251 62.721L54.0292 62.1154L54.021 62.1266L54.8251 62.721ZM56.7686 47.9205V46.9205H55.7686V47.9205H56.7686ZM73.7817 47.9205H74.7817V46.9205H73.7817V47.9205ZM73.7817 69V70H74.7817V69H73.7817ZM67.3831 69H66.3831V70H67.3831V69ZM67.3831 53.0633H68.3831V52.0633H67.3831V53.0633ZM62.6589 53.0633V52.0633H61.6589V53.0633H62.6589ZM60.6855 64.5748L59.8201 64.0738L59.8168 64.0795L60.6855 64.5748ZM56.145 69.0137L52.9158 64.5287L51.2927 65.6973L54.5219 70.1823L56.145 69.0137ZM52.6165 65.9718C53.8485 65.2369 54.8612 64.3546 55.6293 63.3154L54.021 62.1266C53.4336 62.9212 52.6323 63.6336 51.592 64.2542L52.6165 65.9718ZM55.621 63.3265C56.4206 62.2755 56.9714 61.0107 57.296 59.5608L55.3443 59.1238C55.0709 60.3449 54.625 61.3326 54.0293 62.1155L55.621 63.3265ZM57.296 59.5608C57.6157 58.1327 57.7686 56.4507 57.7686 54.5284H55.7686C55.7686 56.3535 55.6226 57.8808 55.3443 59.1238L57.296 59.5608ZM57.7686 54.5284V47.9205H55.7686V54.5284H57.7686ZM56.7686 48.9205H73.7817V46.9205H56.7686V48.9205ZM72.7817 47.9205V69H74.7817V47.9205H72.7817ZM73.7817 68H67.3831V70H73.7817V68ZM68.3831 69V53.0633H66.3831V69H68.3831ZM67.3831 52.0633H62.6589V54.0633H67.3831V52.0633ZM61.6589 53.0633V56.1131H63.6589V53.0633H61.6589ZM61.6589 56.1131C61.6589 59.3547 61.026 61.9909 59.8201 64.0738L61.551 65.0758C62.9763 62.6139 63.6589 59.609 63.6589 56.1131H61.6589ZM59.8168 64.0795C58.6183 66.1814 56.9847 67.7093 54.9053 68.6943L55.7615 70.5017C58.227 69.3339 60.1614 67.513 61.5542 65.0701L59.8168 64.0795ZM81.8552 67.9834L82.3445 67.1113L81.8552 67.9834ZM78.0579 64.1562L77.1744 64.6246L77.1778 64.631L77.1812 64.6373L78.0579 64.1562ZM78.0579 52.7344L77.1812 52.2533L77.1767 52.2616L78.0579 52.7344ZM81.8552 48.9371L82.3363 49.8138L82.3445 49.8092L81.8552 48.9371ZM93.4863 48.9371L92.997 49.8093L93.0052 49.8138L93.4863 48.9371ZM97.2836 52.7344L98.1603 52.2533L97.2836 52.7344ZM97.2836 64.1562L98.1603 64.6373L97.2836 64.1562ZM93.4863 67.9834L92.9971 67.1113L93.4863 67.9834ZM90.8252 62.5416L90.006 61.9681L90.0036 61.9715L90.8252 62.5416ZM90.8252 54.3789L90.0035 54.949L90.0115 54.9601L90.8252 54.3789ZM84.4864 54.3789L83.6648 53.8088L83.6624 53.8124L84.4864 54.3789ZM84.4864 62.5416L83.6569 63.1003L83.6648 63.1117L84.4864 62.5416ZM87.6558 68.3588C85.5618 68.3588 83.8033 67.9297 82.3445 67.1113L81.366 68.8555C83.1761 69.871 85.2847 70.3588 87.6558 70.3588V68.3588ZM82.3445 67.1113C80.8722 66.2854 79.7411 65.1447 78.9346 63.6751L77.1812 64.6373C78.1687 66.4368 79.5691 67.8476 81.366 68.8555L82.3445 67.1113ZM78.9414 63.6878C78.1516 62.1979 77.7423 60.4594 77.7423 58.4453H75.7423C75.7423 60.7368 76.2101 62.8056 77.1744 64.6246L78.9414 63.6878ZM77.7423 58.4453C77.7423 56.4092 78.1524 54.6733 78.9391 53.2072L77.1767 52.2616C76.2093 54.0646 75.7423 56.1359 75.7423 58.4453H77.7423ZM78.9346 53.2155C79.74 51.7478 80.8686 50.6192 82.3363 49.8138L81.3741 48.0604C79.5728 49.049 78.1698 50.452 77.1812 52.2533L78.9346 53.2155ZM82.3445 49.8092C83.8033 48.9908 85.5618 48.5617 87.6558 48.5617V46.5617C85.2847 46.5617 83.1761 47.0495 81.366 48.065L82.3445 49.8092ZM87.6558 48.5617C89.7714 48.5617 91.5394 48.9915 92.9971 49.8092L93.9756 48.065C92.1641 47.0488 90.0451 46.5617 87.6558 46.5617V48.5617ZM93.0052 49.8138C94.4729 50.6192 95.6015 51.7478 96.4069 53.2155L98.1603 52.2533C97.1717 50.452 95.7687 49.049 93.9674 48.0604L93.0052 49.8138ZM96.4069 53.2155C97.2106 54.6799 97.6291 56.4128 97.6291 58.4453H99.6291C99.6291 56.1323 99.1507 54.058 98.1603 52.2533L96.4069 53.2155ZM97.6291 58.4453C97.6291 60.4778 97.2106 62.2107 96.4069 63.6751L98.1603 64.6373C99.1507 62.8326 99.6291 60.7583 99.6291 58.4453H97.6291ZM96.4069 63.6751C95.6004 65.1447 94.4693 66.2854 92.9971 67.1113L93.9756 68.8555C95.7724 67.8476 97.1728 66.4368 98.1603 64.6373L96.4069 63.6751ZM92.9971 67.1113C91.5394 67.929 89.7714 68.3588 87.6558 68.3588V70.3588C90.0451 70.3588 92.1641 69.8717 93.9756 68.8555L92.9971 67.1113ZM87.6558 65.0067C89.3415 65.0067 90.7421 64.4155 91.6468 63.1117L90.0036 61.9715C89.5529 62.6211 88.8405 63.0067 87.6558 63.0067V65.0067ZM91.6444 63.1151C92.5001 61.8926 92.8717 60.3007 92.8717 58.4453H90.8717C90.8717 60.0583 90.5456 61.1972 90.006 61.9681L91.6444 63.1151ZM92.8717 58.4453C92.8717 56.5916 92.5008 55.0043 91.6389 53.7977L90.0115 54.9601C90.5449 55.707 90.8717 56.8306 90.8717 58.4453H92.8717ZM91.6468 53.8088C90.7421 52.505 89.3415 51.9138 87.6558 51.9138V53.9138C88.8405 53.9138 89.5529 54.2994 90.0036 54.949L91.6468 53.8088ZM87.6558 51.9138C85.9701 51.9138 84.5695 52.505 83.6648 53.8088L85.308 54.949C85.7588 54.2994 86.4711 53.9138 87.6558 53.9138V51.9138ZM83.6624 53.8124C82.8451 55.001 82.4997 56.5859 82.4997 58.4453H84.4997C84.4997 56.7965 84.8121 55.6704 85.3104 54.9454L83.6624 53.8124ZM82.4997 58.4453C82.4997 60.3067 82.8459 61.8959 83.657 63.1002L85.3158 61.983C84.8113 61.2338 84.4997 60.0922 84.4997 58.4453H82.4997ZM83.6648 63.1117C84.5695 64.4155 85.9701 65.0067 87.6558 65.0067V63.0067C86.4711 63.0067 85.7588 62.6211 85.308 61.9715L83.6648 63.1117ZM99.5537 74.382H98.5537V75.382H99.5537V74.382ZM99.5537 64.1562V63.1562H98.5537V64.1562H99.5537ZM101.766 64.1562V65.1562H102.245L102.546 64.7828L101.766 64.1562ZM104.218 47.9205V46.9205H103.218V47.9205H104.218ZM121.201 47.9205H122.201V46.9205H121.201V47.9205ZM121.201 64.1562H120.201V65.1562H121.201V64.1562ZM124.281 64.1562H125.281V63.1562H124.281V64.1562ZM124.281 74.382V75.382H125.281V74.382H124.281ZM118.779 74.382H117.779V75.382H118.779V74.382ZM118.779 69H119.779V68H118.779V69ZM105.055 69V68H104.055V69H105.055ZM105.055 74.382V75.382H106.055V74.382H105.055ZM108.075 64.1562L107.225 63.629L106.278 65.1562H108.075V64.1562ZM114.803 64.1562V65.1562H115.803V64.1562H114.803ZM114.803 52.7643H115.803V51.7643H114.803V52.7643ZM110.078 52.7643V51.7643H109.078V52.7643H110.078ZM100.554 74.382V64.1562H98.5537V74.382H100.554ZM99.5537 65.1562H101.766V63.1562H99.5537V65.1562ZM102.546 64.7828C104.406 62.4692 105.218 58.6415 105.218 53.5716H103.218C103.218 58.5481 102.396 61.7768 100.987 63.5296L102.546 64.7828ZM105.218 53.5716V47.9205H103.218V53.5716H105.218ZM104.218 48.9205H121.201V46.9205H104.218V48.9205ZM120.201 47.9205V64.1562H122.201V47.9205H120.201ZM121.201 65.1562H124.281V63.1562H121.201V65.1562ZM123.281 64.1562V74.382H125.281V64.1562H123.281ZM124.281 73.382H118.779V75.382H124.281V73.382ZM119.779 74.382V69H117.779V74.382H119.779ZM118.779 68H105.055V70H118.779V68ZM104.055 69V74.382H106.055V69H104.055ZM105.055 73.382H99.5537V75.382H105.055V73.382ZM108.075 65.1562H114.803V63.1562H108.075V65.1562ZM115.803 64.1562V52.7643H113.803V64.1562H115.803ZM114.803 51.7643H110.078V53.7643H114.803V51.7643ZM109.078 52.7643V54.2892H111.078V52.7643H109.078ZM109.078 54.2892C109.078 58.6497 108.414 61.7132 107.225 63.629L108.925 64.6834C110.407 62.2936 111.078 58.7791 111.078 54.2892H109.078ZM126.685 69H125.685V70H126.685V69ZM126.685 47.9205V46.9205H125.685V47.9205H126.685ZM142.323 47.9205H143.323V46.9205H142.323V47.9205ZM142.323 52.8241V53.8241H143.323V52.8241H142.323ZM132.844 52.8241V51.8241H131.844V52.8241H132.844ZM132.844 55.844H131.844V56.844H132.844V55.844ZM141.605 55.844H142.605V54.844H141.605V55.844ZM141.605 60.7476V61.7476H142.605V60.7476H141.605ZM132.844 60.7476V59.7476H131.844V60.7476H132.844ZM132.844 64.0964H131.844V65.0964H132.844V64.0964ZM142.323 64.0964H143.323V63.0964H142.323V64.0964ZM142.323 69V70H143.323V69H142.323ZM135.984 46.276H134.984V47.276H135.984V46.276ZM135.984 41.2229V40.2229H134.984V41.2229H135.984ZM141.007 41.2229H142.007V40.2229H141.007V41.2229ZM141.007 46.276V47.276H142.007V46.276H141.007ZM129.525 46.276H128.525V47.276H129.525V46.276ZM129.525 41.2229V40.2229H128.525V41.2229H129.525ZM134.549 41.2229H135.549V40.2229H134.549V41.2229ZM134.549 46.276V47.276H135.549V46.276H134.549ZM127.685 69V47.9205H125.685V69H127.685ZM126.685 48.9205H142.323V46.9205H126.685V48.9205ZM141.323 47.9205V52.8241H143.323V47.9205H141.323ZM142.323 51.8241H132.844V53.8241H142.323V51.8241ZM131.844 52.8241V55.844H133.844V52.8241H131.844ZM132.844 56.844H141.605V54.844H132.844V56.844ZM140.605 55.844V60.7476H142.605V55.844H140.605ZM141.605 59.7476H132.844V61.7476H141.605V59.7476ZM131.844 60.7476V64.0964H133.844V60.7476H131.844ZM132.844 65.0964H142.323V63.0964H132.844V65.0964ZM141.323 64.0964V69H143.323V64.0964H141.323ZM142.323 68H126.685V70H142.323V68ZM136.984 46.276V41.2229H134.984V46.276H136.984ZM135.984 42.2229H141.007V40.2229H135.984V42.2229ZM140.007 41.2229V46.276H142.007V41.2229H140.007ZM141.007 45.276H135.984V47.276H141.007V45.276ZM130.525 46.276V41.2229H128.525V46.276H130.525ZM129.525 42.2229H134.549V40.2229H129.525V42.2229ZM133.549 41.2229V46.276H135.549V41.2229H133.549ZM134.549 45.276H129.525V47.276H134.549V45.276ZM142.873 69L141.978 68.5528L141.255 70H142.873V69ZM146.79 61.1662L145.895 60.719L146.79 61.1662ZM148.225 58.9237L147.471 58.2669L147.465 58.2739L147.459 58.2811L148.225 58.9237ZM150.049 57.3988L150.556 58.2607L151.455 57.7318L150.888 56.8558L150.049 57.3988ZM143.919 47.9205V46.9205H142.082L143.079 48.4635L143.919 47.9205ZM150.886 47.9205L151.742 47.4032L151.45 46.9205H150.886V47.9205ZM155.819 56.0832L154.964 56.6005L155.255 57.0832H155.819V56.0832ZM156.866 56.0832V57.0832H157.866V56.0832H156.866ZM156.866 47.9205V46.9205H155.866V47.9205H156.866ZM162.995 47.9205H163.995V46.9205H162.995V47.9205ZM162.995 56.0832H161.995V57.0832H162.995V56.0832ZM164.072 56.0832V57.0832H164.639L164.93 56.5958L164.072 56.0832ZM168.945 47.9205V46.9205H168.378L168.087 47.4079L168.945 47.9205ZM175.912 47.9205L176.752 48.4635L177.75 46.9205H175.912V47.9205ZM169.783 57.3988L168.943 56.8558L168.369 57.7429L169.287 58.267L169.783 57.3988ZM171.607 58.9536L170.83 59.5842L170.841 59.5975L170.853 59.6104L171.607 58.9536ZM173.072 61.1662L173.968 60.7217L173.962 60.7107L173.072 61.1662ZM176.959 69V70H178.571L177.854 68.5555L176.959 69ZM170.052 69L169.146 69.4229L169.415 70H170.052V69ZM167.331 63.1695L166.421 63.5853L166.425 63.5924L167.331 63.1695ZM166.105 61.6745L165.59 62.532V62.532L166.105 61.6745ZM162.995 61.226V60.226H161.995V61.226H162.995ZM162.995 69V70H163.995V69H162.995ZM156.866 69H155.866V70H156.866V69ZM156.866 61.226H157.866V60.226H156.866V61.226ZM153.786 61.6745L153.272 60.817L153.786 61.6745ZM152.53 63.1695L151.631 62.7326L151.626 62.7428L152.53 63.1695ZM149.78 69V70H150.414L150.684 69.4267L149.78 69ZM143.767 69.4472L147.684 61.6134L145.895 60.719L141.978 68.5528L143.767 69.4472ZM147.684 61.6134C148.095 60.7918 148.532 60.1131 148.991 59.5663L147.459 58.2811C146.881 58.9701 146.361 59.7864 145.895 60.719L147.684 61.6134ZM148.979 59.5805C149.449 59.0403 149.975 58.6025 150.556 58.2607L149.542 56.5369C148.767 56.9924 148.077 57.5712 147.471 58.2669L148.979 59.5805ZM150.888 56.8558L144.759 47.3775L143.079 48.4635L149.209 57.9418L150.888 56.8558ZM143.919 48.9205H150.886V46.9205H143.919V48.9205ZM150.03 48.4378L154.964 56.6005L156.675 55.5659L151.742 47.4032L150.03 48.4378ZM155.819 57.0832H156.866V55.0832H155.819V57.0832ZM157.866 56.0832V47.9205H155.866V56.0832H157.866ZM156.866 48.9205H162.995V46.9205H156.866V48.9205ZM161.995 47.9205V56.0832H163.995V47.9205H161.995ZM162.995 57.0832H164.072V55.0832H162.995V57.0832ZM164.93 56.5958L169.804 48.4331L168.087 47.4079L163.213 55.5706L164.93 56.5958ZM168.945 48.9205H175.912V46.9205H168.945V48.9205ZM175.072 47.3775L168.943 56.8558L170.622 57.9418L176.752 48.4635L175.072 47.3775ZM169.287 58.267C169.875 58.603 170.388 59.0399 170.83 59.5842L172.383 58.323C171.788 57.5915 171.086 56.9919 170.279 56.5306L169.287 58.267ZM170.853 59.6104C171.329 60.1574 171.774 60.8247 172.181 61.6217L173.962 60.7107C173.493 59.7935 172.961 58.9856 172.361 58.2968L170.853 59.6104ZM172.176 61.6107L176.063 69.4445L177.854 68.5555L173.967 60.7217L172.176 61.6107ZM176.959 68H170.052V70H176.959V68ZM170.958 68.5771L168.237 62.7466L166.425 63.5924L169.146 69.4229L170.958 68.5771ZM168.24 62.7537C167.864 61.9303 167.339 61.2486 166.619 60.817L165.59 62.532C165.868 62.6984 166.16 63.0133 166.421 63.5853L168.24 62.7537ZM166.619 60.817C165.906 60.3889 165.015 60.226 164.042 60.226V62.226C164.823 62.226 165.307 62.3621 165.59 62.532L166.619 60.817ZM164.042 60.226H162.995V62.226H164.042V60.226ZM161.995 61.226V69H163.995V61.226H161.995ZM162.995 68H156.866V70H162.995V68ZM157.866 69V61.226H155.866V69H157.866ZM156.866 60.226H155.819V62.226H156.866V60.226ZM155.819 60.226C154.861 60.226 153.982 60.3906 153.272 60.817L154.301 62.532C154.587 62.3604 155.063 62.226 155.819 62.226V60.226ZM153.272 60.817C152.56 61.2442 152.027 61.9175 151.631 62.7326L153.43 63.6064C153.712 63.0262 154.016 62.7028 154.301 62.532L153.272 60.817ZM151.626 62.7428L148.875 68.5733L150.684 69.4267L153.435 63.5962L151.626 62.7428ZM149.78 68H142.873V70H149.78V68ZM192.235 68.0133L191.764 68.8952L191.776 68.9015L192.235 68.0133ZM188.229 64.1861L187.361 64.6834L187.366 64.6913L188.229 64.1861ZM188.229 52.7344L187.366 52.2292L187.364 52.2325L188.229 52.7344ZM192.235 48.9371L192.699 49.8231L192.703 49.8211L192.235 48.9371ZM202.312 48.1298L202.01 49.0831L202.019 49.0861L202.029 49.0889L202.312 48.1298ZM205.331 49.6846L206.268 50.0339L206.513 49.3768L205.979 48.9227L205.331 49.6846ZM203.448 54.7377L202.893 55.5697L203.944 56.2702L204.385 55.087L203.448 54.7377ZM201.026 53.5118L200.71 54.4605L200.722 54.4645L200.734 54.4682L201.026 53.5118ZM194.866 54.5284L194.144 53.8372L194.143 53.8375L194.866 54.5284ZM194.866 62.422L194.136 63.1049L194.144 63.1131L194.151 63.1211L194.866 62.422ZM201.026 63.4386L201.318 64.395L201.33 64.3913L201.342 64.3873L201.026 63.4386ZM203.448 62.1828L204.385 61.8335L203.944 60.6503L202.893 61.3507L203.448 62.1828ZM205.331 67.2359L205.979 67.9978L206.513 67.5437L206.268 66.8866L205.331 67.2359ZM202.312 68.8206L202.599 69.7785L202.609 69.7754L202.312 68.8206ZM198.365 68.3588C196.14 68.3588 194.261 67.9351 192.695 67.1251L191.776 68.9015C193.678 69.8855 195.885 70.3588 198.365 70.3588V68.3588ZM192.707 67.1315C191.151 66.2992 189.953 65.1518 189.092 63.6809L187.366 64.6913C188.418 66.4894 189.891 67.8935 191.764 68.8951L192.707 67.1315ZM189.096 63.6888C188.259 62.2289 187.823 60.4924 187.823 58.4453H185.823C185.823 60.7836 186.324 62.8743 187.361 64.6834L189.096 63.6888ZM187.823 58.4453C187.823 56.3979 188.26 54.6736 189.094 53.2363L187.364 52.2325C186.324 54.0244 185.823 56.1074 185.823 58.4453H187.823ZM189.092 53.2396C189.952 51.7706 191.147 50.6351 192.699 49.8231L191.772 48.0511C189.895 49.0331 188.419 50.4291 187.366 52.2292L189.092 53.2396ZM192.703 49.8211C194.267 48.9941 196.143 48.5617 198.365 48.5617V46.5617C195.882 46.5617 193.672 47.0462 191.768 48.0531L192.703 49.8211ZM198.365 48.5617C199.712 48.5617 200.924 48.7394 202.01 49.0831L202.613 47.1765C201.307 46.7627 199.888 46.5617 198.365 46.5617V48.5617ZM202.029 49.0889C203.138 49.4164 204.013 49.8763 204.684 50.4465L205.979 48.9227C205.055 48.1374 203.917 47.5608 202.595 47.1707L202.029 49.0889ZM204.394 49.3353L202.511 54.3884L204.385 55.087L206.268 50.0339L204.394 49.3353ZM204.002 53.9056C203.057 53.2751 202.16 52.8126 201.318 52.5554L200.734 54.4682C201.327 54.6496 202.045 55.0043 202.893 55.5697L204.002 53.9056ZM201.342 52.5631C200.506 52.2843 199.589 52.153 198.604 52.153V54.153C199.413 54.153 200.111 54.2609 200.71 54.4605L201.342 52.5631ZM198.604 52.153C196.795 52.153 195.258 52.6726 194.144 53.8372L195.589 55.2196C196.229 54.5503 197.184 54.153 198.604 54.153V52.153ZM194.143 53.8375C193.05 54.9819 192.581 56.5732 192.581 58.4453H194.581C194.581 56.8889 194.969 55.8689 195.589 55.2193L194.143 53.8375ZM192.581 58.4453C192.581 60.3354 193.049 61.9419 194.136 63.1049L195.597 61.7391C194.97 61.0682 194.581 60.0236 194.581 58.4453H192.581ZM194.151 63.1211C195.267 64.2617 196.801 64.7675 198.604 64.7675V62.7675C197.177 62.7675 196.22 62.3763 195.581 61.7229L194.151 63.1211ZM198.604 64.7675C199.581 64.7675 200.489 64.6482 201.318 64.395L200.734 62.4822C200.127 62.6676 199.421 62.7675 198.604 62.7675V64.7675ZM201.342 64.3873C202.171 64.1109 203.06 63.6431 204.002 63.0149L202.893 61.3507C202.041 61.9185 201.316 62.2879 200.71 62.4899L201.342 64.3873ZM202.511 62.5321L204.394 67.5852L206.268 66.8866L204.385 61.8335L202.511 62.5321ZM204.684 66.474C204.009 67.0478 203.129 67.5187 202.014 67.8658L202.609 69.7754C203.926 69.3651 205.059 68.7795 205.979 67.9978L204.684 66.474ZM202.024 67.8628C200.934 68.1898 199.717 68.3588 198.365 68.3588V70.3588C199.883 70.3588 201.297 70.169 202.599 69.7784L202.024 67.8628ZM212.233 69H211.233V70H212.233V69ZM212.233 53.1231H213.233V52.1231H212.233V53.1231ZM206.133 53.1231H205.133V54.1231H206.133V53.1231ZM206.133 47.9205V46.9205H205.133V47.9205H206.133ZM224.791 47.9205H225.791V46.9205H224.791V47.9205ZM224.791 53.1231V54.1231H225.791V53.1231H224.791ZM218.691 53.1231V52.1231H217.691V53.1231H218.691ZM218.691 69V70H219.691V69H218.691ZM213.233 69V53.1231H211.233V69H213.233ZM212.233 52.1231H206.133V54.1231H212.233V52.1231ZM207.133 53.1231V47.9205H205.133V53.1231H207.133ZM206.133 48.9205H224.791V46.9205H206.133V48.9205ZM223.791 47.9205V53.1231H225.791V47.9205H223.791ZM224.791 52.1231H218.691V54.1231H224.791V52.1231ZM217.691 53.1231V69H219.691V53.1231H217.691ZM218.691 68H212.233V70H218.691V68ZM226.897 69H225.897V70H226.897V69ZM226.897 47.9205V46.9205H225.897V47.9205H226.897ZM243.401 49.7743L242.7 50.4871L242.706 50.4927L243.401 49.7743ZM243.401 59.6413L242.7 58.9286L243.401 59.6413ZM233.355 61.4951V60.4951H232.355V61.4951H233.355ZM233.355 69V70H234.355V69H233.355ZM233.355 56.5915H232.355V57.5915H233.355V56.5915ZM233.355 52.8241V51.8241H232.355V52.8241H233.355ZM227.897 69V47.9205H225.897V69H227.897ZM226.897 48.9205H237.78V46.9205H226.897V48.9205ZM237.78 48.9205C240.119 48.9205 241.697 49.5 242.7 50.487L244.103 49.0616C242.594 47.5768 240.425 46.9205 237.78 46.9205V48.9205ZM242.706 50.4927C243.731 51.4855 244.285 52.8512 244.285 54.7078H246.285C246.285 52.4183 245.583 50.4949 244.097 49.0559L242.706 50.4927ZM244.285 54.7078C244.285 56.5409 243.733 57.9118 242.7 58.9286L244.103 60.354C245.581 58.899 246.285 56.981 246.285 54.7078H244.285ZM242.7 58.9286C241.697 59.9156 240.119 60.4951 237.78 60.4951V62.4951C240.425 62.4951 242.594 61.8388 244.103 60.354L242.7 58.9286ZM237.78 60.4951H233.355V62.4951H237.78V60.4951ZM232.355 61.4951V69H234.355V61.4951H232.355ZM233.355 68H226.897V70H233.355V68ZM233.355 57.5915H236.913V55.5915H233.355V57.5915ZM236.913 57.5915C237.769 57.5915 238.597 57.4127 239.221 56.882C239.875 56.325 240.126 55.5357 240.126 54.7078H238.126C238.126 55.1357 238.008 55.2882 237.924 55.3591C237.81 55.4563 237.532 55.5915 236.913 55.5915V57.5915ZM240.126 54.7078C240.126 53.8799 239.875 53.0906 239.221 52.5336C238.597 52.0029 237.769 51.8241 236.913 51.8241V53.8241C237.532 53.8241 237.81 53.9593 237.924 54.0565C238.008 54.1274 238.126 54.2799 238.126 54.7078H240.126ZM236.913 51.8241H233.355V53.8241H236.913V51.8241ZM232.355 52.8241V56.5915H234.355V52.8241H232.355ZM242.658 69L241.755 68.5708L241.076 70H242.658V69ZM252.675 47.9205V46.9205H252.043L251.771 47.4913L252.675 47.9205ZM257.907 47.9205L258.809 47.4892L258.537 46.9205H257.907V47.9205ZM267.983 69V70H269.57L268.886 68.5687L267.983 69ZM261.525 69L260.611 69.4048L260.874 70H261.525V69ZM259.791 65.0831L260.705 64.6783L260.442 64.0831H259.791V65.0831ZM250.821 65.0831V64.0831H250.17L249.906 64.6783L250.821 65.0831ZM249.087 69V70H249.737L250.001 69.4048L249.087 69ZM255.276 54.4985V53.4985H254.611L254.354 54.1122L255.276 54.4985ZM252.884 60.2094L251.962 59.8231L251.381 61.2094H252.884V60.2094ZM257.817 60.2094V61.2094H259.32L258.74 59.8231L257.817 60.2094ZM255.425 54.4985L256.348 54.1122L256.091 53.4985H255.425V54.4985ZM243.561 69.4292L253.578 48.3497L251.771 47.4913L241.755 68.5708L243.561 69.4292ZM252.675 48.9205H257.907V46.9205H252.675V48.9205ZM257.005 48.3518L267.081 69.4313L268.886 68.5687L258.809 47.4892L257.005 48.3518ZM267.983 68H261.525V70H267.983V68ZM262.439 68.5952L260.705 64.6783L258.876 65.4879L260.611 69.4048L262.439 68.5952ZM259.791 64.0831H250.821V66.0831H259.791V64.0831ZM249.906 64.6783L248.172 68.5952L250.001 69.4048L251.735 65.4879L249.906 64.6783ZM249.087 68H242.658V70H249.087V68ZM254.354 54.1122L251.962 59.8231L253.806 60.5957L256.198 54.8848L254.354 54.1122ZM252.884 61.2094H257.817V59.2094H252.884V61.2094ZM258.74 59.8231L256.348 54.1122L254.503 54.8848L256.895 60.5957L258.74 59.8231ZM255.425 53.4985H255.276V55.4985H255.425V53.4985ZM268.71 69H267.71V70H268.71V69ZM268.71 47.9205V46.9205H267.71V47.9205H268.71ZM275.168 47.9205H276.168V46.9205H275.168V47.9205ZM275.168 55.6945H274.168V56.6945H275.168V55.6945ZM282.374 55.6945V56.6945H283.374V55.6945H282.374ZM282.374 47.9205V46.9205H281.374V47.9205H282.374ZM288.833 47.9205H289.833V46.9205H288.833V47.9205ZM288.833 69V70H289.833V69H288.833ZM282.374 69H281.374V70H282.374V69ZM282.374 60.9569H283.374V59.9569H282.374V60.9569ZM275.168 60.9569V59.9569H274.168V60.9569H275.168ZM275.168 69V70H276.168V69H275.168ZM269.71 69V47.9205H267.71V69H269.71ZM268.71 48.9205H275.168V46.9205H268.71V48.9205ZM274.168 47.9205V55.6945H276.168V47.9205H274.168ZM275.168 56.6945H282.374V54.6945H275.168V56.6945ZM283.374 55.6945V47.9205H281.374V55.6945H283.374ZM282.374 48.9205H288.833V46.9205H282.374V48.9205ZM287.833 47.9205V69H289.833V47.9205H287.833ZM288.833 68H282.374V70H288.833V68ZM283.374 69V60.9569H281.374V69H283.374ZM282.374 59.9569H275.168V61.9569H282.374V59.9569ZM274.168 60.9569V69H276.168V60.9569H274.168ZM275.168 68H268.71V70H275.168V68ZM292.303 69H291.303V70H292.303V69ZM292.303 47.9205V46.9205H291.303V47.9205H292.303ZM298.701 47.9205H299.701V46.9205H298.701V47.9205ZM298.701 55.8141H297.701V56.8141H298.701V55.8141ZM308.24 57.5483L307.596 58.3138L307.603 58.3193L308.24 57.5483ZM308.24 67.2957L308.876 68.0667L308.883 68.0612L308.24 67.2957ZM312.515 69H311.515V70H312.515V69ZM312.515 47.9205V46.9205H311.515V47.9205H312.515ZM318.914 47.9205H319.914V46.9205H318.914V47.9205ZM318.914 69V70H319.914V69H318.914ZM298.701 64.2459H297.701V65.2459H298.701V64.2459ZM303.665 63.7974L304.284 64.5823L304.29 64.5783L303.665 63.7974ZM303.665 61.0167L303.021 61.7816L303.042 61.7998L303.065 61.8167L303.665 61.0167ZM298.701 60.5383V59.5383H297.701V60.5383H298.701ZM293.303 69V47.9205H291.303V69H293.303ZM292.303 48.9205H298.701V46.9205H292.303V48.9205ZM297.701 47.9205V55.8141H299.701V47.9205H297.701ZM298.701 56.8141H302.618V54.8141H298.701V56.8141ZM302.618 56.8141C304.831 56.8141 306.452 57.3518 307.596 58.3138L308.883 56.7828C307.277 55.4325 305.15 54.8141 302.618 54.8141V56.8141ZM307.603 58.3193C308.707 59.2317 309.303 60.5399 309.303 62.3921H311.303C311.303 60.0583 310.523 58.1373 308.876 56.7773L307.603 58.3193ZM309.303 62.3921C309.303 64.2673 308.705 65.5983 307.596 66.5302L308.883 68.0612C310.525 66.6809 311.303 64.7427 311.303 62.3921H309.303ZM307.603 66.5247C306.458 67.4703 304.835 68 302.618 68V70C305.146 70 307.27 69.3935 308.876 68.0667L307.603 66.5247ZM302.618 68H292.303V70H302.618V68ZM313.515 69V47.9205H311.515V69H313.515ZM312.515 48.9205H318.914V46.9205H312.515V48.9205ZM317.914 47.9205V69H319.914V47.9205H317.914ZM318.914 68H312.515V70H318.914V68ZM298.701 65.2459H301.721V63.2459H298.701V65.2459ZM301.721 65.2459C302.689 65.2459 303.629 65.0998 304.284 64.5823L303.045 63.0125C302.943 63.093 302.588 63.2459 301.721 63.2459V65.2459ZM304.29 64.5783C304.976 64.0293 305.263 63.243 305.263 62.3921H303.263C303.263 62.7771 303.151 62.9276 303.04 63.0165L304.29 64.5783ZM305.263 62.3921C305.263 61.5434 304.976 60.7498 304.265 60.2167L303.065 61.8167C303.151 61.8816 303.263 62.0049 303.263 62.3921H305.263ZM304.309 60.2518C303.65 59.6967 302.697 59.5383 301.721 59.5383V61.5383C302.579 61.5383 302.922 61.6988 303.021 61.7816L304.309 60.2518ZM301.721 59.5383H298.701V61.5383H301.721V59.5383ZM297.701 60.5383V64.2459H299.701V60.5383H297.701Z" fill="white" mask="url(#path-2-outside-1_3427_4491)"/>
<path d="M3.9868 112L6.20725 107.716L0.27295 98.1467H4.71385L8.21155 103.963L11.1984 98.1467H15.541L8.3491 112H3.9868ZM16.0904 112V98.1467H20.3348V103.256H25.0705V98.1467H29.3149V112H25.0705V106.714H20.3348V112H16.0904ZM31.5955 112V98.1467H35.5255V105.339L41.3812 98.1467H44.4663V112H40.5363V104.808L34.6806 112H31.5955ZM46.7552 112V98.1467H50.9603V103.511H52.1L55.3226 98.1467H59.901L55.8728 104.376C56.3313 104.638 56.7308 104.972 57.0714 105.378C57.4251 105.784 57.7461 106.275 58.0343 106.852L60.5888 112H56.03L54.2615 108.168C54.0519 107.71 53.7768 107.382 53.4362 107.186C53.1087 106.989 52.6567 106.891 52.0803 106.891H50.9603V112H46.7552ZM59.5506 112L66.1333 98.1467H69.5721L76.1941 112H71.9497L70.81 109.426H64.915L63.7753 112H59.5506ZM67.8429 102.47L66.2709 106.223H69.5131L67.9411 102.47H67.8429ZM77.8112 112.393L75.689 109.445C76.4357 109 77.0318 108.476 77.4772 107.873C77.9357 107.271 78.2632 106.531 78.4597 105.653C78.6562 104.775 78.7544 103.721 78.7544 102.489V98.1467H89.9353V112H85.7302V101.527H82.6255V103.531C82.6255 105.745 82.1932 107.598 81.3286 109.092C80.4771 110.585 79.3046 111.686 77.8112 112.393ZM92.215 112V98.1467H96.4201V103.334H99.6034C101.162 103.334 102.394 103.714 103.298 104.474C104.201 105.221 104.653 106.282 104.653 107.657C104.653 109.046 104.201 110.12 103.298 110.88C102.394 111.627 101.162 112 99.6034 112H92.215ZM96.4201 108.876H99.0139C99.6165 108.876 100.042 108.777 100.291 108.581C100.553 108.371 100.684 108.063 100.684 107.657C100.684 107.251 100.553 106.95 100.291 106.753C100.042 106.557 99.6165 106.459 99.0139 106.459H96.4201V108.876ZM106.204 112V98.1467H110.448V103.256H115.184V98.1467H119.429V112H115.184V106.714H110.448V112H106.204ZM121.709 112V98.1467H125.914V103.334H128.488C130.047 103.334 131.279 103.714 132.183 104.474C133.087 105.221 133.538 106.282 133.538 107.657C133.538 109.046 133.087 110.12 132.183 110.88C131.279 111.627 130.047 112 128.488 112H121.709ZM134.993 112V98.1467H139.198V112H134.993ZM125.914 108.876H127.899C128.502 108.876 128.927 108.777 129.176 108.581C129.438 108.371 129.569 108.063 129.569 107.657C129.569 107.251 129.438 106.95 129.176 106.753C128.927 106.544 128.502 106.439 127.899 106.439H125.914V108.876ZM141.474 112V98.1467H151.751V101.369H145.522V103.354H151.28V106.577H145.522V108.777H151.751V112H141.474ZM159.282 112V98.1467H163.487V103.511H164.627L167.85 98.1467H172.428L168.4 104.376C168.858 104.638 169.258 104.972 169.598 105.378C169.952 105.784 170.273 106.275 170.561 106.852L173.116 112H168.557L166.788 108.168C166.579 107.71 166.304 107.382 165.963 107.186C165.636 106.989 165.184 106.891 164.607 106.891H163.487V112H159.282ZM180.416 112.236C178.949 112.236 177.679 111.934 176.604 111.332C175.53 110.729 174.698 109.891 174.109 108.817C173.532 107.729 173.244 106.478 173.244 105.064C173.244 103.636 173.532 102.385 174.109 101.31C174.698 100.236 175.53 99.4043 176.604 98.8149C177.679 98.2123 178.949 97.911 180.416 97.911C181.897 97.911 183.174 98.2123 184.248 98.8149C185.322 99.4043 186.154 100.236 186.744 101.31C187.333 102.385 187.628 103.636 187.628 105.064C187.628 106.491 187.333 107.742 186.744 108.817C186.154 109.891 185.322 110.729 184.248 111.332C183.174 111.934 181.897 112.236 180.416 112.236ZM180.416 108.718C181.36 108.718 182.054 108.397 182.499 107.756C182.958 107.101 183.187 106.203 183.187 105.064C183.187 103.924 182.958 103.033 182.499 102.391C182.054 101.749 181.36 101.428 180.416 101.428C179.473 101.428 178.779 101.749 178.334 102.391C177.901 103.02 177.685 103.911 177.685 105.064C177.685 106.216 177.901 107.114 178.334 107.756C178.779 108.397 179.473 108.718 180.416 108.718ZM189.641 112V98.1467H193.335L197.206 106.812L201.078 98.1467H204.772V112H200.94V106.518L198.346 112H196.008L193.473 106.636V112H189.641ZM207.102 112V98.1467H220.248V112H216.043V101.527H211.307V112H207.102ZM222.531 112V98.1467H232.808V101.369H226.578V103.354H232.336V106.577H226.578V108.777H232.808V112H222.531ZM237.782 112V101.566H233.774V98.1467H246.035V101.566H242.027V112H237.782ZM247.419 112V98.1467H257.696V101.369H251.467V103.354H257.225V106.577H251.467V108.777H257.696V112H247.419ZM259.374 112V98.1467H263.619V103.256H268.354V98.1467H272.599V112H268.354V106.714H263.619V112H259.374ZM286.414 115.537V112H274.879V98.1467H279.084V108.62H283.82V98.1467H288.025V108.62H290.049V115.537H286.414ZM291.613 112V98.1467H295.543V105.339L301.398 98.1467H304.483V112H300.553V104.808L294.698 112H291.613ZM306.772 112V98.1467H310.702V105.339L316.558 98.1467H319.643V112H315.713V104.808L309.857 112H306.772Z" fill="white"/>
<mask id="path-5-outside-2_3427_4491" maskUnits="userSpaceOnUse" x="1" y="131" width="322" height="24" fill="black">
<rect fill="white" x="1" y="131" width="322" height="24"/>
<path d="M2.0353 150V137.416H13.977V150H10.1571V140.486H5.8552V150H2.0353ZM16.0503 150V137.416H22.5477C24.0352 137.416 25.1538 137.785 25.9035 138.522C26.6532 139.248 27.0281 140.23 27.0281 141.468C27.0281 142.693 26.6532 143.675 25.9035 144.413C25.1538 145.151 24.0352 145.52 22.5477 145.52H19.9059V150H16.0503ZM19.9059 142.592H22.0301C22.9107 142.592 23.351 142.217 23.351 141.468C23.351 140.718 22.9107 140.343 22.0301 140.343H19.9059V142.592ZM28.4442 150V137.416H37.7798V140.343H32.1213V142.146H37.3514V145.073H32.1213V147.073H37.7798V150H28.4442ZM38.4295 153.213V147.108H39.7504C40.7262 145.894 41.2141 143.788 41.2141 140.789V137.416H51.3529V147.108H53.1914V153.213H49.907V150H41.7139V153.213H38.4295ZM43.5167 147.108H47.533V140.307H44.7127V141.218C44.7127 143.86 44.314 145.823 43.5167 147.108ZM61.2132 150.214C59.809 150.214 58.5893 149.946 57.554 149.411C56.5306 148.864 55.7333 148.102 55.1621 147.126C54.6028 146.15 54.3231 145.008 54.3231 143.699C54.3231 142.39 54.6028 141.253 55.1621 140.29C55.7333 139.314 56.5306 138.558 57.554 138.023C58.5893 137.475 59.809 137.202 61.2132 137.202C62.07 137.202 62.8554 137.315 63.5694 137.541C64.2953 137.755 64.8963 138.064 65.3723 138.469L64.2477 141.486C63.7122 141.129 63.2303 140.885 62.8019 140.754C62.3735 140.611 61.8915 140.539 61.356 140.539C60.3921 140.539 59.6484 140.813 59.1248 141.361C58.6131 141.896 58.3572 142.676 58.3572 143.699C58.3572 144.734 58.6131 145.526 59.1248 146.073C59.6484 146.608 60.3921 146.876 61.356 146.876C61.8915 146.876 62.3735 146.811 62.8019 146.68C63.2303 146.537 63.7122 146.287 64.2477 145.93L65.3723 148.947C64.8963 149.351 64.2953 149.667 63.5694 149.893C62.8554 150.107 62.07 150.214 61.2132 150.214ZM69.4921 150V140.522H65.8507V137.416H76.9891V140.522H73.3477V150H69.4921ZM75.0005 150L80.9803 137.416H84.104L90.1195 150H86.2639L85.2286 147.662H79.8736L78.8383 150H75.0005ZM82.5332 141.343L81.1052 144.752H84.0505L82.6225 141.343H82.5332ZM90.5532 150V137.416H96.997C98.4131 137.416 99.502 137.713 100.264 138.308C101.037 138.891 101.424 139.677 101.424 140.664C101.424 141.307 101.257 141.872 100.924 142.36C100.603 142.836 100.151 143.193 99.5674 143.431C100.293 143.657 100.847 144.026 101.227 144.538C101.608 145.038 101.799 145.656 101.799 146.394C101.799 147.489 101.382 148.364 100.549 149.018C99.7162 149.673 98.5916 150 97.1755 150H90.5532ZM94.2303 142.217H96.2652C96.7888 142.217 97.1636 142.14 97.3897 141.985C97.6277 141.819 97.7467 141.557 97.7467 141.2C97.7467 140.843 97.6277 140.587 97.3897 140.432C97.1636 140.278 96.7888 140.2 96.2652 140.2H94.2303V142.217ZM94.2303 147.215H96.6579C97.6575 147.215 98.1573 146.846 98.1573 146.109C98.1573 145.371 97.6575 145.002 96.6579 145.002H94.2303V147.215ZM103.191 150V137.416H106.761V143.949L112.08 137.416H114.883V150H111.313V143.467L105.994 150H103.191ZM119.782 150V140.522H116.141V137.416H127.279V140.522H123.638V150H119.782ZM128.537 150V137.416H137.872V140.343H132.214V142.146H137.444V145.073H132.214V147.073H137.872V150H128.537ZM140.432 150.357L138.504 147.679C139.182 147.275 139.724 146.799 140.128 146.251C140.545 145.704 140.842 145.032 141.021 144.234C141.199 143.437 141.289 142.479 141.289 141.361V137.416H151.445V150H147.625V140.486H144.805V142.307C144.805 144.318 144.412 146.002 143.627 147.358C142.854 148.715 141.789 149.714 140.432 150.357ZM153.516 150V137.416H162.852V140.343H157.193V142.146H162.423V145.073H157.193V147.073H162.852V150H153.516ZM164.376 150V137.416H167.946V143.949L173.265 137.416H176.068V150H172.498V143.467L167.179 150H164.376ZM170.195 136.434C169.35 136.434 168.648 136.309 168.089 136.059C167.53 135.797 167.101 135.458 166.804 135.042C166.518 134.613 166.34 134.155 166.268 133.667L167.964 133.132C168.166 133.667 168.44 134.048 168.785 134.274C169.142 134.5 169.624 134.613 170.231 134.613C170.85 134.613 171.332 134.482 171.677 134.221C172.034 133.959 172.278 133.602 172.409 133.15L174.051 133.667C173.908 134.465 173.503 135.125 172.837 135.649C172.183 136.172 171.302 136.434 170.195 136.434ZM183.464 150V137.416H187.284V142.289H188.319L191.246 137.416H195.405L191.746 143.074C192.163 143.312 192.526 143.616 192.835 143.985C193.156 144.353 193.448 144.8 193.71 145.323L196.03 150H191.889L190.283 146.519C190.092 146.103 189.842 145.805 189.533 145.627C189.235 145.448 188.825 145.359 188.301 145.359H187.284V150H183.464ZM196.904 150V137.416H203.401C204.889 137.416 206.007 137.785 206.757 138.522C207.507 139.248 207.881 140.23 207.881 141.468C207.881 142.693 207.507 143.675 206.757 144.413C206.007 145.151 204.889 145.52 203.401 145.52H200.759V150H196.904ZM200.759 142.592H202.883C203.764 142.592 204.204 142.217 204.204 141.468C204.204 140.718 203.764 140.343 202.883 140.343H200.759V142.592ZM210.975 150L212.992 146.109L207.602 137.416H211.636L214.813 142.699L217.526 137.416H221.471L214.938 150H210.975ZM221.97 150V137.416H233.912V150H230.092V140.486H225.79V150H221.97ZM235.985 150V137.416H239.841V142.057H244.143V137.416H247.998V150H244.143V145.198H239.841V150H235.985ZM250.07 150V137.416H259.406V140.343H253.747V142.146H258.977V145.073H253.747V147.073H259.406V150H250.07ZM260.93 150V137.416H264.5V143.949L269.819 137.416H272.622V150H269.052V143.467L263.732 150H260.93ZM266.749 136.434C265.904 136.434 265.202 136.309 264.643 136.059C264.084 135.797 263.655 135.458 263.358 135.042C263.072 134.613 262.894 134.155 262.822 133.667L264.518 133.132C264.72 133.667 264.994 134.048 265.339 134.274C265.696 134.5 266.178 134.613 266.785 134.613C267.404 134.613 267.886 134.482 268.231 134.221C268.588 133.959 268.832 133.602 268.963 133.15L270.605 133.667C270.462 134.465 270.057 135.125 269.391 135.649C268.736 136.172 267.856 136.434 266.749 136.434ZM274.701 150V137.416H278.467V146.93H281.859V137.416H285.607V146.93H288.999V137.416H292.747V150H274.701ZM294.817 150V137.416H298.387V143.949L303.706 137.416H306.509V150H302.939V143.467L297.62 150H294.817ZM306.839 150L311.64 143.663L306.91 137.416H311.408L313.818 140.879L316.264 137.416H320.762L316.032 143.663L320.851 150H316.335L313.836 146.466L311.319 150H306.839Z"/>
</mask>
<path d="M2.0353 150H1.0353V151H2.0353V150ZM2.0353 137.416V136.416H1.0353V137.416H2.0353ZM13.977 137.416H14.977V136.416H13.977V137.416ZM13.977 150V151H14.977V150H13.977ZM10.1571 150H9.15705V151H10.1571V150ZM10.1571 140.486H11.1571V139.486H10.1571V140.486ZM5.8552 140.486V139.486H4.8552V140.486H5.8552ZM5.8552 150V151H6.8552V150H5.8552ZM3.0353 150V137.416H1.0353V150H3.0353ZM2.0353 138.416H13.977V136.416H2.0353V138.416ZM12.977 137.416V150H14.977V137.416H12.977ZM13.977 149H10.1571V151H13.977V149ZM11.1571 150V140.486H9.15705V150H11.1571ZM10.1571 139.486H5.8552V141.486H10.1571V139.486ZM4.8552 140.486V150H6.8552V140.486H4.8552ZM5.8552 149H2.0353V151H5.8552V149ZM16.0503 150H15.0503V151H16.0503V150ZM16.0503 137.416V136.416H15.0503V137.416H16.0503ZM25.9035 138.522L25.2021 139.235L25.2079 139.241L25.9035 138.522ZM25.9035 144.413L25.2021 143.7L25.9035 144.413ZM19.9059 145.52V144.52H18.9059V145.52H19.9059ZM19.9059 150V151H20.9059V150H19.9059ZM19.9059 142.592H18.9059V143.592H19.9059V142.592ZM19.9059 140.343V139.343H18.9059V140.343H19.9059ZM17.0503 150V137.416H15.0503V150H17.0503ZM16.0503 138.416H22.5477V136.416H16.0503V138.416ZM22.5477 138.416C23.8824 138.416 24.7053 138.746 25.2021 139.235L26.605 137.81C25.6024 136.823 24.1881 136.416 22.5477 136.416V138.416ZM25.2079 139.241C25.7272 139.744 26.0281 140.447 26.0281 141.468H28.0281C28.0281 140.014 27.5793 138.753 26.5992 137.804L25.2079 139.241ZM26.0281 141.468C26.0281 142.473 25.7291 143.182 25.2021 143.7L26.605 145.126C27.5773 144.169 28.0281 142.913 28.0281 141.468H26.0281ZM25.2021 143.7C24.7053 144.189 23.8824 144.52 22.5477 144.52V146.52C24.1881 146.52 25.6024 146.112 26.605 145.126L25.2021 143.7ZM22.5477 144.52H19.9059V146.52H22.5477V144.52ZM18.9059 145.52V150H20.9059V145.52H18.9059ZM19.9059 149H16.0503V151H19.9059V149ZM19.9059 143.592H22.0301V141.592H19.9059V143.592ZM22.0301 143.592C22.5887 143.592 23.1942 143.477 23.669 143.073C24.1746 142.642 24.351 142.043 24.351 141.468H22.351C22.351 141.559 22.3373 141.595 22.3373 141.595C22.3373 141.595 22.3375 141.595 22.3379 141.594C22.3383 141.593 22.339 141.591 22.3399 141.59C22.3417 141.586 22.3443 141.582 22.3478 141.577C22.3554 141.566 22.3642 141.557 22.3725 141.55C22.3902 141.535 22.3876 141.545 22.335 141.56C22.2796 141.576 22.1826 141.592 22.0301 141.592V143.592ZM24.351 141.468C24.351 140.893 24.1746 140.293 23.669 139.863C23.1942 139.459 22.5887 139.343 22.0301 139.343V141.343C22.1826 141.343 22.2796 141.36 22.335 141.375C22.3876 141.39 22.3902 141.401 22.3725 141.386C22.3642 141.379 22.3554 141.369 22.3478 141.358C22.3443 141.353 22.3417 141.349 22.3399 141.346C22.339 141.344 22.3383 141.343 22.3379 141.342C22.3375 141.341 22.3373 141.34 22.3373 141.34C22.3373 141.34 22.351 141.376 22.351 141.468H24.351ZM22.0301 139.343H19.9059V141.343H22.0301V139.343ZM18.9059 140.343V142.592H20.9059V140.343H18.9059ZM28.4442 150H27.4442V151H28.4442V150ZM28.4442 137.416V136.416H27.4442V137.416H28.4442ZM37.7798 137.416H38.7798V136.416H37.7798V137.416ZM37.7798 140.343V141.343H38.7798V140.343H37.7798ZM32.1213 140.343V139.343H31.1213V140.343H32.1213ZM32.1213 142.146H31.1213V143.146H32.1213V142.146ZM37.3514 142.146H38.3514V141.146H37.3514V142.146ZM37.3514 145.073V146.073H38.3514V145.073H37.3514ZM32.1213 145.073V144.073H31.1213V145.073H32.1213ZM32.1213 147.073H31.1213V148.073H32.1213V147.073ZM37.7798 147.073H38.7798V146.073H37.7798V147.073ZM37.7798 150V151H38.7798V150H37.7798ZM29.4442 150V137.416H27.4442V150H29.4442ZM28.4442 138.416H37.7798V136.416H28.4442V138.416ZM36.7798 137.416V140.343H38.7798V137.416H36.7798ZM37.7798 139.343H32.1213V141.343H37.7798V139.343ZM31.1213 140.343V142.146H33.1213V140.343H31.1213ZM32.1213 143.146H37.3514V141.146H32.1213V143.146ZM36.3514 142.146V145.073H38.3514V142.146H36.3514ZM37.3514 144.073H32.1213V146.073H37.3514V144.073ZM31.1213 145.073V147.073H33.1213V145.073H31.1213ZM32.1213 148.073H37.7798V146.073H32.1213V148.073ZM36.7798 147.073V150H38.7798V147.073H36.7798ZM37.7798 149H28.4442V151H37.7798V149ZM38.4295 153.213H37.4295V154.213H38.4295V153.213ZM38.4295 147.108V146.108H37.4295V147.108H38.4295ZM39.7504 147.108V148.108H40.2296L40.5298 147.735L39.7504 147.108ZM41.2141 137.416V136.416H40.2141V137.416H41.2141ZM51.3529 137.416H52.3529V136.416H51.3529V137.416ZM51.3529 147.108H50.3529V148.108H51.3529V147.108ZM53.1914 147.108H54.1914V146.108H53.1914V147.108ZM53.1914 153.213V154.213H54.1914V153.213H53.1914ZM49.907 153.213H48.907V154.213H49.907V153.213ZM49.907 150H50.907V149H49.907V150ZM41.7139 150V149H40.7139V150H41.7139ZM41.7139 153.213V154.213H42.7139V153.213H41.7139ZM43.5168 147.108L42.667 146.581L41.7196 148.108H43.5168V147.108ZM47.533 147.108V148.108H48.533V147.108H47.533ZM47.533 140.307H48.533V139.307H47.533V140.307ZM44.7127 140.307V139.307H43.7127V140.307H44.7127ZM39.4295 153.213V147.108H37.4295V153.213H39.4295ZM38.4295 148.108H39.7504V146.108H38.4295V148.108ZM40.5298 147.735C41.731 146.241 42.2141 143.835 42.2141 140.789H40.2141C40.2141 143.741 39.7214 145.548 38.971 146.482L40.5298 147.735ZM42.2141 140.789V137.416H40.2141V140.789H42.2141ZM41.2141 138.416H51.3529V136.416H41.2141V138.416ZM50.3529 137.416V147.108H52.3529V137.416H50.3529ZM51.3529 148.108H53.1914V146.108H51.3529V148.108ZM52.1914 147.108V153.213H54.1914V147.108H52.1914ZM53.1914 152.213H49.907V154.213H53.1914V152.213ZM50.907 153.213V150H48.907V153.213H50.907ZM49.907 149H41.7139V151H49.907V149ZM40.7139 150V153.213H42.7139V150H40.7139ZM41.7139 152.213H38.4295V154.213H41.7139V152.213ZM43.5168 148.108H47.533V146.108H43.5168V148.108ZM48.533 147.108V140.307H46.533V147.108H48.533ZM47.533 139.307H44.7127V141.307H47.533V139.307ZM43.7127 140.307V141.218H45.7127V140.307H43.7127ZM43.7127 141.218C43.7127 143.795 43.3173 145.533 42.667 146.581L44.3665 147.635C45.3108 146.113 45.7127 143.924 45.7127 141.218H43.7127ZM57.554 149.411L57.0823 150.293L57.0945 150.299L57.554 149.411ZM55.1621 147.126L54.2944 147.623L54.299 147.631L55.1621 147.126ZM55.1621 140.29L54.299 139.784L54.2971 139.788L55.1621 140.29ZM57.554 138.023L58.0176 138.909L58.0214 138.907L57.554 138.023ZM63.5694 137.541L63.2675 138.494L63.2769 138.497L63.2864 138.5L63.5694 137.541ZM65.3723 138.469L66.3093 138.818L66.5542 138.161L66.0199 137.707L65.3723 138.469ZM64.2477 141.486L63.693 142.318L64.7437 143.018L65.1847 141.835L64.2477 141.486ZM62.8019 140.754L62.4856 141.702L62.4976 141.706L62.5096 141.71L62.8019 140.754ZM59.1248 141.361L58.4021 140.669L58.4018 140.67L59.1248 141.361ZM59.1248 146.073L58.3942 146.756L58.4019 146.764L58.4098 146.772L59.1248 146.073ZM62.8019 146.68L63.0941 147.636L63.1061 147.633L63.1181 147.629L62.8019 146.68ZM64.2477 145.93L65.1847 145.581L64.7437 144.398L63.693 145.098L64.2477 145.93ZM65.3723 148.947L66.0199 149.709L66.5542 149.255L66.3093 148.598L65.3723 148.947ZM63.5694 149.893L63.8568 150.851L63.8668 150.848L63.5694 149.893ZM61.2132 149.214C59.9365 149.214 58.8804 148.971 58.0134 148.523L57.0945 150.299C58.2981 150.922 59.6816 151.214 61.2132 151.214V149.214ZM58.0256 148.529C57.1604 148.066 56.5005 147.433 56.0251 146.621L54.299 147.631C54.966 148.771 55.9007 149.661 57.0823 150.293L58.0256 148.529ZM56.0297 146.629C55.5704 145.828 55.3231 144.862 55.3231 143.699H53.3231C53.3231 145.154 53.6351 146.473 54.2945 147.623L56.0297 146.629ZM55.3231 143.699C55.3231 142.535 55.5705 141.578 56.027 140.791L54.2971 139.788C53.635 140.929 53.3231 142.245 53.3231 143.699H55.3231ZM56.0251 140.795C56.4994 139.985 57.1566 139.359 58.0176 138.909L57.0903 137.137C55.9045 137.757 54.9672 138.643 54.299 139.784L56.0251 140.795ZM58.0214 138.907C58.8866 138.449 59.9397 138.202 61.2132 138.202V136.202C59.6783 136.202 58.2919 136.501 57.0865 137.139L58.0214 138.907ZM61.2132 138.202C61.9821 138.202 62.6641 138.303 63.2675 138.494L63.8713 136.587C63.0468 136.326 62.158 136.202 61.2132 136.202V138.202ZM63.2864 138.5C63.9061 138.683 64.3751 138.934 64.7246 139.231L66.0199 137.707C65.4174 137.195 64.6846 136.827 63.8524 136.582L63.2864 138.5ZM64.4353 138.12L63.3107 141.136L65.1847 141.835L66.3093 138.818L64.4353 138.12ZM64.8024 140.653C64.2181 140.264 63.6464 139.966 63.0941 139.797L62.5096 141.71C62.8141 141.803 63.2064 141.993 63.693 142.318L64.8024 140.653ZM63.1181 139.805C62.5708 139.623 61.9796 139.539 61.356 139.539V141.539C61.8035 141.539 62.1761 141.599 62.4856 141.702L63.1181 139.805ZM61.356 139.539C60.1978 139.539 59.1626 139.874 58.4021 140.669L59.8474 142.052C60.1341 141.752 60.5864 141.539 61.356 141.539V139.539ZM58.4018 140.67C57.6537 141.453 57.3572 142.518 57.3572 143.699H59.3572C59.3572 142.833 59.5724 142.34 59.8478 142.051L58.4018 140.67ZM57.3572 143.699C57.3572 144.89 57.6526 145.962 58.3942 146.756L59.8553 145.39C59.5736 145.089 59.3572 144.578 59.3572 143.699H57.3572ZM58.4098 146.772C59.1715 147.551 60.2041 147.876 61.356 147.876V145.876C60.5802 145.876 60.1252 145.666 59.8398 145.374L58.4098 146.772ZM61.356 147.876C61.9718 147.876 62.5546 147.801 63.0941 147.636L62.5096 145.724C62.1923 145.821 61.8112 145.876 61.356 145.876V147.876ZM63.1181 147.629C63.6581 147.449 64.2215 147.15 64.8024 146.762L63.693 145.098C63.2029 145.425 62.8024 145.626 62.4856 145.731L63.1181 147.629ZM63.3107 146.28L64.4353 149.296L66.3093 148.598L65.1847 145.581L63.3107 146.28ZM64.7246 148.185C64.3709 148.486 63.8966 148.744 63.272 148.938L63.8668 150.848C64.694 150.59 65.4216 150.217 66.0199 149.709L64.7246 148.185ZM63.2821 148.935C62.674 149.117 61.9869 149.214 61.2132 149.214V151.214C62.1531 151.214 63.0368 151.097 63.8568 150.851L63.2821 148.935ZM69.4921 150H68.4921V151H69.4921V150ZM69.4921 140.522H70.4921V139.522H69.4921V140.522ZM65.8507 140.522H64.8507V141.522H65.8507V140.522ZM65.8507 137.416V136.416H64.8507V137.416H65.8507ZM76.9891 137.416H77.9891V136.416H76.9891V137.416ZM76.9891 140.522V141.522H77.9891V140.522H76.9891ZM73.3477 140.522V139.522H72.3477V140.522H73.3477ZM73.3477 150V151H74.3477V150H73.3477ZM70.4921 150V140.522H68.4921V150H70.4921ZM69.4921 139.522H65.8507V141.522H69.4921V139.522ZM66.8507 140.522V137.416H64.8507V140.522H66.8507ZM65.8507 138.416H76.9891V136.416H65.8507V138.416ZM75.9891 137.416V140.522H77.9891V137.416H75.9891ZM76.9891 139.522H73.3477V141.522H76.9891V139.522ZM72.3477 140.522V150H74.3477V140.522H72.3477ZM73.3477 149H69.4921V151H73.3477V149ZM75.0005 150L74.0973 149.571L73.4182 151H75.0005V150ZM80.9803 137.416V136.416H80.3483L80.0771 136.987L80.9803 137.416ZM84.104 137.416L85.0062 136.984L84.7344 136.416H84.104V137.416ZM90.1195 150V151H91.7059L91.0217 149.569L90.1195 150ZM86.2639 150L85.3495 150.405L85.613 151H86.2639V150ZM85.2286 147.662L86.143 147.257L85.8795 146.662H85.2286V147.662ZM79.8736 147.662V146.662H79.2227L78.9592 147.257L79.8736 147.662ZM78.8383 150V151H79.4892L79.7527 150.405L78.8383 150ZM82.5332 141.343V140.343H81.8679L81.6109 140.956L82.5332 141.343ZM81.1052 144.752L80.1829 144.366L79.6022 145.752H81.1052V144.752ZM84.0505 144.752V145.752H85.5535L84.9728 144.366L84.0505 144.752ZM82.6225 141.343L83.5448 140.956L83.2878 140.343H82.6225V141.343ZM75.9037 150.429L81.8835 137.845L80.0771 136.987L74.0973 149.571L75.9037 150.429ZM80.9803 138.416H84.104V136.416H80.9803V138.416ZM83.2018 137.847L89.2173 150.431L91.0217 149.569L85.0062 136.984L83.2018 137.847ZM90.1195 149H86.2639V151H90.1195V149ZM87.1783 149.595L86.143 147.257L84.3142 148.066L85.3495 150.405L87.1783 149.595ZM85.2286 146.662H79.8736V148.662H85.2286V146.662ZM78.9592 147.257L77.9239 149.595L79.7527 150.405L80.788 148.066L78.9592 147.257ZM78.8383 149H75.0005V151H78.8383V149ZM81.6109 140.956L80.1829 144.366L82.0276 145.138L83.4556 141.729L81.6109 140.956ZM81.1052 145.752H84.0505V143.752H81.1052V145.752ZM84.9728 144.366L83.5448 140.956L81.7001 141.729L83.1281 145.138L84.9728 144.366ZM82.6225 140.343H82.5332V142.343H82.6225V140.343ZM90.5532 150H89.5532V151H90.5532V150ZM90.5532 137.416V136.416H89.5532V137.416H90.5532ZM100.264 138.308L99.6479 139.096L99.6547 139.102L99.6616 139.107L100.264 138.308ZM100.924 142.36L100.098 141.796L100.095 141.801L100.924 142.36ZM99.5674 143.431L99.1895 142.505L96.6111 143.558L99.27 144.386L99.5674 143.431ZM101.227 144.538L100.425 145.135L100.432 145.144L101.227 144.538ZM94.2303 142.217H93.2303V143.217H94.2303V142.217ZM97.3897 141.985L97.9544 142.811L97.9632 142.805L97.3897 141.985ZM97.3897 140.432L96.825 141.258L96.8348 141.264L96.8447 141.271L97.3897 140.432ZM94.2303 140.2V139.2H93.2303V140.2H94.2303ZM94.2303 147.215H93.2303V148.215H94.2303V147.215ZM94.2303 145.002V144.002H93.2303V145.002H94.2303ZM91.5532 150V137.416H89.5532V150H91.5532ZM90.5532 138.416H96.997V136.416H90.5532V138.416ZM96.997 138.416C98.2901 138.416 99.1274 138.69 99.6479 139.096L100.879 137.52C99.8765 136.737 98.5362 136.416 96.997 136.416V138.416ZM99.6616 139.107C100.179 139.497 100.424 139.983 100.424 140.664H102.424C102.424 139.37 101.895 138.286 100.866 137.51L99.6616 139.107ZM100.424 140.664C100.424 141.124 100.308 141.489 100.098 141.796L101.75 142.924C102.207 142.255 102.424 141.49 102.424 140.664H100.424ZM100.095 141.801C99.8953 142.097 99.6078 142.335 99.1895 142.505L99.9453 144.357C100.693 144.052 101.31 143.576 101.753 142.92L100.095 141.801ZM99.27 144.386C99.8339 144.562 100.193 144.823 100.425 145.135L102.03 143.941C101.5 143.229 100.753 142.753 99.8648 142.476L99.27 144.386ZM100.432 145.144C100.658 145.441 100.799 145.836 100.799 146.394H102.799C102.799 145.477 102.559 144.635 102.023 143.932L100.432 145.144ZM100.799 146.394C100.799 147.194 100.514 147.774 99.9314 148.232L101.167 149.805C102.251 148.953 102.799 147.784 102.799 146.394H100.799ZM99.9314 148.232C99.3258 148.708 98.4428 149 97.1755 149V151C98.7404 151 100.107 150.638 101.167 149.805L99.9314 148.232ZM97.1755 149H90.5532V151H97.1755V149ZM94.2303 143.217H96.2652V141.217H94.2303V143.217ZM96.2652 143.217C96.8348 143.217 97.4683 143.143 97.9544 142.811L96.825 141.16C96.8557 141.139 96.8424 141.158 96.7369 141.18C96.6352 141.201 96.482 141.217 96.2652 141.217V143.217ZM97.9632 142.805C98.5309 142.407 98.7467 141.799 98.7467 141.2H96.7467C96.7467 141.269 96.7351 141.277 96.7471 141.25C96.7532 141.237 96.7632 141.22 96.7777 141.202C96.7921 141.185 96.8063 141.173 96.8163 141.166L97.9632 142.805ZM98.7467 141.2C98.7467 140.604 98.5307 139.981 97.9347 139.594L96.8447 141.271C96.8296 141.261 96.8103 141.245 96.7913 141.224C96.7722 141.202 96.759 141.18 96.7508 141.162C96.7348 141.128 96.7467 141.13 96.7467 141.2H98.7467ZM97.9544 139.607C97.4683 139.274 96.8348 139.2 96.2652 139.2V141.2C96.482 141.2 96.6352 141.217 96.7369 141.238C96.8424 141.26 96.8557 141.279 96.825 141.258L97.9544 139.607ZM96.2652 139.2H94.2303V141.2H96.2652V139.2ZM93.2303 140.2V142.217H95.2303V140.2H93.2303ZM94.2303 148.215H96.6579V146.215H94.2303V148.215ZM96.6579 148.215C97.2514 148.215 97.878 148.111 98.3763 147.743C98.9314 147.334 99.1573 146.728 99.1573 146.109H97.1573C97.1573 146.181 97.1451 146.197 97.1522 146.181C97.1619 146.16 97.1791 146.141 97.1886 146.134C97.1922 146.131 97.1644 146.153 97.075 146.175C96.9847 146.197 96.8495 146.215 96.6579 146.215V148.215ZM99.1573 146.109C99.1573 145.49 98.9314 144.884 98.3763 144.474C97.878 144.106 97.2514 144.002 96.6579 144.002V146.002C96.8495 146.002 96.9847 146.02 97.075 146.042C97.1644 146.064 97.1922 146.086 97.1886 146.083C97.1791 146.076 97.1619 146.058 97.1522 146.036C97.1451 146.02 97.1573 146.036 97.1573 146.109H99.1573ZM96.6579 144.002H94.2303V146.002H96.6579V144.002ZM93.2303 145.002V147.215H95.2303V145.002H93.2303ZM103.191 150H102.191V151H103.191V150ZM103.191 137.416V136.416H102.191V137.416H103.191ZM106.761 137.416H107.761V136.416H106.761V137.416ZM106.761 143.949H105.761V146.761L107.537 144.58L106.761 143.949ZM112.08 137.416V136.416H111.605L111.305 136.784L112.08 137.416ZM114.883 137.416H115.883V136.416H114.883V137.416ZM114.883 150V151H115.883V150H114.883ZM111.313 150H110.313V151H111.313V150ZM111.313 143.467H112.313V140.655L110.537 142.836L111.313 143.467ZM105.994 150V151H106.469L106.769 150.631L105.994 150ZM104.191 150V137.416H102.191V150H104.191ZM103.191 138.416H106.761V136.416H103.191V138.416ZM105.761 137.416V143.949H107.761V137.416H105.761ZM107.537 144.58L112.856 138.047L111.305 136.784L105.986 143.317L107.537 144.58ZM112.08 138.416H114.883V136.416H112.08V138.416ZM113.883 137.416V150H115.883V137.416H113.883ZM114.883 149H111.313V151H114.883V149ZM112.313 150V143.467H110.313V150H112.313ZM110.537 142.836L105.218 149.369L106.769 150.631L112.088 144.098L110.537 142.836ZM105.994 149H103.191V151H105.994V149ZM119.782 150H118.782V151H119.782V150ZM119.782 140.522H120.782V139.522H119.782V140.522ZM116.141 140.522H115.141V141.522H116.141V140.522ZM116.141 137.416V136.416H115.141V137.416H116.141ZM127.279 137.416H128.279V136.416H127.279V137.416ZM127.279 140.522V141.522H128.279V140.522H127.279ZM123.638 140.522V139.522H122.638V140.522H123.638ZM123.638 150V151H124.638V150H123.638ZM120.782 150V140.522H118.782V150H120.782ZM119.782 139.522H116.141V141.522H119.782V139.522ZM117.141 140.522V137.416H115.141V140.522H117.141ZM116.141 138.416H127.279V136.416H116.141V138.416ZM126.279 137.416V140.522H128.279V137.416H126.279ZM127.279 139.522H123.638V141.522H127.279V139.522ZM122.638 140.522V150H124.638V140.522H122.638ZM123.638 149H119.782V151H123.638V149ZM128.537 150H127.537V151H128.537V150ZM128.537 137.416V136.416H127.537V137.416H128.537ZM137.872 137.416H138.872V136.416H137.872V137.416ZM137.872 140.343V141.343H138.872V140.343H137.872ZM132.214 140.343V139.343H131.214V140.343H132.214ZM132.214 142.146H131.214V143.146H132.214V142.146ZM137.444 142.146H138.444V141.146H137.444V142.146ZM137.444 145.073V146.073H138.444V145.073H137.444ZM132.214 145.073V144.073H131.214V145.073H132.214ZM132.214 147.073H131.214V148.073H132.214V147.073ZM137.872 147.073H138.872V146.073H137.872V147.073ZM137.872 150V151H138.872V150H137.872ZM129.537 150V137.416H127.537V150H129.537ZM128.537 138.416H137.872V136.416H128.537V138.416ZM136.872 137.416V140.343H138.872V137.416H136.872ZM137.872 139.343H132.214V141.343H137.872V139.343ZM131.214 140.343V142.146H133.214V140.343H131.214ZM132.214 143.146H137.444V141.146H132.214V143.146ZM136.444 142.146V145.073H138.444V142.146H136.444ZM137.444 144.073H132.214V146.073H137.444V144.073ZM131.214 145.073V147.073H133.214V145.073H131.214ZM132.214 148.073H137.872V146.073H132.214V148.073ZM136.872 147.073V150H138.872V147.073H136.872ZM137.872 149H128.537V151H137.872V149ZM140.432 150.357L139.62 150.941L140.107 151.617L140.86 151.261L140.432 150.357ZM138.504 147.679L137.992 146.821L137.056 147.379L137.693 148.264L138.504 147.679ZM140.128 146.252L139.333 145.646L139.324 145.657L140.128 146.252ZM141.289 137.416V136.416H140.289V137.416H141.289ZM151.445 137.416H152.445V136.416H151.445V137.416ZM151.445 150V151H152.445V150H151.445ZM147.625 150H146.625V151H147.625V150ZM147.625 140.486H148.625V139.486H147.625V140.486ZM144.805 140.486V139.486H143.805V140.486H144.805ZM143.627 147.358L142.762 146.857L142.758 146.863L143.627 147.358ZM141.243 149.773L139.316 147.095L137.693 148.264L139.62 150.941L141.243 149.773ZM139.016 148.538C139.791 148.077 140.438 147.516 140.933 146.846L139.324 145.657C139.01 146.082 138.574 146.473 137.992 146.821L139.016 148.538ZM140.924 146.857C141.443 146.176 141.793 145.365 141.997 144.453L140.045 144.016C139.892 144.699 139.647 145.233 139.333 145.646L140.924 146.857ZM141.997 144.453C142.196 143.563 142.289 142.528 142.289 141.361H140.289C140.289 142.431 140.203 143.311 140.045 144.016L141.997 144.453ZM142.289 141.361V137.416H140.289V141.361H142.289ZM141.289 138.416H151.445V136.416H141.289V138.416ZM150.445 137.416V150H152.445V137.416H150.445ZM151.445 149H147.625V151H151.445V149ZM148.625 150V140.486H146.625V150H148.625ZM147.625 139.486H144.805V141.486H147.625V139.486ZM143.805 140.486V142.307H145.805V140.486H143.805ZM143.805 142.307C143.805 144.191 143.437 145.69 142.762 146.857L144.493 147.859C145.388 146.313 145.805 144.445 145.805 142.307H143.805ZM142.758 146.863C142.082 148.049 141.167 148.902 140.004 149.453L140.86 151.261C142.41 150.527 143.625 149.381 144.496 147.854L142.758 146.863ZM153.516 150H152.516V151H153.516V150ZM153.516 137.416V136.416H152.516V137.416H153.516ZM162.852 137.416H163.852V136.416H162.852V137.416ZM162.852 140.343V141.343H163.852V140.343H162.852ZM157.193 140.343V139.343H156.193V140.343H157.193ZM157.193 142.146H156.193V143.146H157.193V142.146ZM162.423 142.146H163.423V141.146H162.423V142.146ZM162.423 145.073V146.073H163.423V145.073H162.423ZM157.193 145.073V144.073H156.193V145.073H157.193ZM157.193 147.073H156.193V148.073H157.193V147.073ZM162.852 147.073H163.852V146.073H162.852V147.073ZM162.852 150V151H163.852V150H162.852ZM154.516 150V137.416H152.516V150H154.516ZM153.516 138.416H162.852V136.416H153.516V138.416ZM161.852 137.416V140.343H163.852V137.416H161.852ZM162.852 139.343H157.193V141.343H162.852V139.343ZM156.193 140.343V142.146H158.193V140.343H156.193ZM157.193 143.146H162.423V141.146H157.193V143.146ZM161.423 142.146V145.073H163.423V142.146H161.423ZM162.423 144.073H157.193V146.073H162.423V144.073ZM156.193 145.073V147.073H158.193V145.073H156.193ZM157.193 148.073H162.852V146.073H157.193V148.073ZM161.852 147.073V150H163.852V147.073H161.852ZM162.852 149H153.516V151H162.852V149ZM164.376 150H163.376V151H164.376V150ZM164.376 137.416V136.416H163.376V137.416H164.376ZM167.946 137.416H168.946V136.416H167.946V137.416ZM167.946 143.949H166.946V146.761L168.722 144.58L167.946 143.949ZM173.265 137.416V136.416H172.79L172.49 136.784L173.265 137.416ZM176.068 137.416H177.068V136.416H176.068V137.416ZM176.068 150V151H177.068V150H176.068ZM172.498 150H171.498V151H172.498V150ZM172.498 143.467H173.498V140.655L171.722 142.836L172.498 143.467ZM167.179 150V151H167.654L167.954 150.631L167.179 150ZM168.089 136.059L167.665 136.965L167.673 136.969L167.681 136.972L168.089 136.059ZM166.804 135.042L165.972 135.596L165.981 135.61L165.99 135.623L166.804 135.042ZM166.268 133.667L165.967 132.714L165.156 132.97L165.279 133.812L166.268 133.667ZM167.964 133.132L168.899 132.778L168.565 131.893L167.663 132.178L167.964 133.132ZM168.785 134.274L168.237 135.111L168.244 135.115L168.25 135.119L168.785 134.274ZM171.677 134.221L171.085 133.414L171.079 133.419L171.072 133.424L171.677 134.221ZM172.409 133.15L172.709 132.196L171.733 131.888L171.448 132.872L172.409 133.15ZM174.051 133.667L175.035 133.844L175.19 132.978L174.352 132.714L174.051 133.667ZM172.837 135.649L172.219 134.862L172.212 134.868L172.837 135.649ZM165.376 150V137.416H163.376V150H165.376ZM164.376 138.416H167.946V136.416H164.376V138.416ZM166.946 137.416V143.949H168.946V137.416H166.946ZM168.722 144.58L174.041 138.047L172.49 136.784L167.171 143.317L168.722 144.58ZM173.265 138.416H176.068V136.416H173.265V138.416ZM175.068 137.416V150H177.068V137.416H175.068ZM176.068 149H172.498V151H176.068V149ZM173.498 150V143.467H171.498V150H173.498ZM171.722 142.836L166.403 149.369L167.954 150.631L173.273 144.098L171.722 142.836ZM167.179 149H164.376V151H167.179V149ZM170.195 135.434C169.441 135.434 168.889 135.321 168.497 135.146L167.681 136.972C168.408 137.297 169.26 137.434 170.195 137.434V135.434ZM168.513 135.153C168.077 134.95 167.796 134.711 167.617 134.46L165.99 135.623C166.406 136.206 166.982 136.645 167.665 136.965L168.513 135.153ZM167.636 134.487C167.429 134.176 167.307 133.857 167.258 133.522L165.279 133.812C165.373 134.453 165.608 135.05 165.972 135.596L167.636 134.487ZM166.569 134.621L168.265 134.085L167.663 132.178L165.967 132.714L166.569 134.621ZM167.029 133.485C167.277 134.144 167.658 134.731 168.237 135.111L169.333 133.438C169.222 133.365 169.055 133.191 168.899 132.778L167.029 133.485ZM168.25 135.119C168.822 135.482 169.513 135.613 170.231 135.613V133.613C169.735 133.613 169.462 133.519 169.32 133.429L168.25 135.119ZM170.231 135.613C170.977 135.613 171.702 135.457 172.281 135.017L171.072 133.424C170.962 133.508 170.722 133.613 170.231 133.613V135.613ZM172.268 135.027C172.815 134.626 173.181 134.078 173.369 133.428L171.448 132.872C171.374 133.126 171.253 133.292 171.085 133.414L172.268 135.027ZM172.108 134.103L173.75 134.621L174.352 132.714L172.709 132.196L172.108 134.103ZM173.067 133.491C172.969 134.035 172.703 134.483 172.219 134.862L173.455 136.435C174.304 135.767 174.847 134.894 175.035 133.844L173.067 133.491ZM172.212 134.868C171.785 135.21 171.148 135.434 170.195 135.434V137.434C171.456 137.434 172.58 137.135 173.462 136.429L172.212 134.868ZM183.464 150H182.464V151H183.464V150ZM183.464 137.416V136.416H182.464V137.416H183.464ZM187.284 137.416H188.284V136.416H187.284V137.416ZM187.284 142.289H186.284V143.289H187.284V142.289ZM188.319 142.289V143.289H188.885L189.176 142.804L188.319 142.289ZM191.246 137.416V136.416H190.681L190.389 136.901L191.246 137.416ZM195.405 137.416L196.245 137.959L197.243 136.416H195.405V137.416ZM191.746 143.074L190.906 142.531L190.333 143.418L191.25 143.942L191.746 143.074ZM192.835 143.985L192.069 144.627L192.075 144.634L192.081 144.641L192.835 143.985ZM193.71 145.323L194.606 144.879L194.604 144.876L193.71 145.323ZM196.03 150V151H197.643L196.926 149.556L196.03 150ZM191.889 150L190.981 150.419L191.249 151H191.889V150ZM190.283 146.519L189.373 146.935L189.375 146.938L190.283 146.519ZM189.533 145.627L189.018 146.484L189.026 146.489L189.033 146.493L189.533 145.627ZM187.284 145.359V144.359H186.284V145.359H187.284ZM187.284 150V151H188.284V150H187.284ZM184.464 150V137.416H182.464V150H184.464ZM183.464 138.416H187.284V136.416H183.464V138.416ZM186.284 137.416V142.289H188.284V137.416H186.284ZM187.284 143.289H188.319V141.289H187.284V143.289ZM189.176 142.804L192.104 137.931L190.389 136.901L187.462 141.774L189.176 142.804ZM191.246 138.416H195.405V136.416H191.246V138.416ZM194.566 136.873L190.906 142.531L192.586 143.617L196.245 137.959L194.566 136.873ZM191.25 143.942C191.564 144.122 191.835 144.349 192.069 144.627L193.601 143.342C193.216 142.883 192.762 142.503 192.242 142.206L191.25 143.942ZM192.081 144.641C192.337 144.936 192.584 145.308 192.815 145.771L194.604 144.876C194.312 144.291 193.975 143.771 193.589 143.328L192.081 144.641ZM192.814 145.768L195.134 150.444L196.926 149.556L194.605 144.879L192.814 145.768ZM196.03 149H191.889V151H196.03V149ZM192.797 149.581L191.19 146.1L189.375 146.938L190.981 150.419L192.797 149.581ZM191.192 146.103C190.94 145.551 190.567 145.069 190.033 144.761L189.033 146.493C189.117 146.542 189.245 146.654 189.373 146.935L191.192 146.103ZM190.047 144.769C189.535 144.462 188.92 144.359 188.301 144.359V146.359C188.729 146.359 188.936 146.435 189.018 146.484L190.047 144.769ZM188.301 144.359H187.284V146.359H188.301V144.359ZM186.284 145.359V150H188.284V145.359H186.284ZM187.284 149H183.464V151H187.284V149ZM196.904 150H195.904V151H196.904V150ZM196.904 137.416V136.416H195.904V137.416H196.904ZM206.757 138.522L206.055 139.235L206.061 139.241L206.757 138.522ZM206.757 144.413L206.055 143.7L206.757 144.413ZM200.759 145.52V144.52H199.759V145.52H200.759ZM200.759 150V151H201.759V150H200.759ZM200.759 142.592H199.759V143.592H200.759V142.592ZM200.759 140.343V139.343H199.759V140.343H200.759ZM197.904 150V137.416H195.904V150H197.904ZM196.904 138.416H203.401V136.416H196.904V138.416ZM203.401 138.416C204.736 138.416 205.559 138.746 206.055 139.235L207.458 137.81C206.456 136.823 205.041 136.416 203.401 136.416V138.416ZM206.061 139.241C206.58 139.744 206.881 140.447 206.881 141.468H208.881C208.881 140.014 208.433 138.753 207.452 137.804L206.061 139.241ZM206.881 141.468C206.881 142.473 206.582 143.182 206.055 143.7L207.458 145.126C208.431 144.169 208.881 142.913 208.881 141.468H206.881ZM206.055 143.7C205.559 144.189 204.736 144.52 203.401 144.52V146.52C205.041 146.52 206.456 146.112 207.458 145.126L206.055 143.7ZM203.401 144.52H200.759V146.52H203.401V144.52ZM199.759 145.52V150H201.759V145.52H199.759ZM200.759 149H196.904V151H200.759V149ZM200.759 143.592H202.883V141.592H200.759V143.592ZM202.883 143.592C203.442 143.592 204.047 143.477 204.522 143.073C205.028 142.642 205.204 142.043 205.204 141.468H203.204C203.204 141.559 203.191 141.595 203.191 141.595C203.191 141.595 203.191 141.595 203.191 141.594C203.192 141.593 203.192 141.591 203.193 141.59C203.195 141.586 203.198 141.582 203.201 141.577C203.209 141.566 203.217 141.557 203.226 141.55C203.243 141.535 203.241 141.545 203.188 141.56C203.133 141.576 203.036 141.592 202.883 141.592V143.592ZM205.204 141.468C205.204 140.893 205.028 140.293 204.522 139.863C204.047 139.459 203.442 139.343 202.883 139.343V141.343C203.036 141.343 203.133 141.36 203.188 141.375C203.241 141.39 203.243 141.401 203.226 141.386C203.217 141.379 203.209 141.369 203.201 141.358C203.198 141.353 203.195 141.349 203.193 141.346C203.192 141.344 203.192 141.343 203.191 141.342C203.191 141.341 203.191 141.34 203.191 141.34C203.191 141.34 203.204 141.376 203.204 141.468H205.204ZM202.883 139.343H200.759V141.343H202.883V139.343ZM199.759 140.343V142.592H201.759V140.343H199.759ZM210.975 150L210.088 149.54L209.331 151H210.975V150ZM212.992 146.109L213.88 146.569L214.142 146.065L213.842 145.582L212.992 146.109ZM207.602 137.416V136.416H205.805L206.752 137.943L207.602 137.416ZM211.636 137.416L212.493 136.9L212.201 136.416H211.636V137.416ZM214.813 142.699L213.956 143.215L214.882 144.754L215.703 143.156L214.813 142.699ZM217.526 137.416V136.416H216.916L216.637 136.959L217.526 137.416ZM221.471 137.416L222.359 137.877L223.117 136.416H221.471V137.416ZM214.938 150V151H215.546L215.826 150.461L214.938 150ZM211.863 150.46L213.88 146.569L212.105 145.649L210.088 149.54L211.863 150.46ZM213.842 145.582L208.452 136.889L206.752 137.943L212.143 146.636L213.842 145.582ZM207.602 138.416H211.636V136.416H207.602V138.416ZM210.779 137.931L213.956 143.215L215.67 142.184L212.493 136.9L210.779 137.931ZM215.703 143.156L218.416 137.873L216.637 136.959L213.924 142.243L215.703 143.156ZM217.526 138.416H221.471V136.416H217.526V138.416ZM220.584 136.955L214.051 149.539L215.826 150.461L222.359 137.877L220.584 136.955ZM214.938 149H210.975V151H214.938V149ZM221.97 150H220.97V151H221.97V150ZM221.97 137.416V136.416H220.97V137.416H221.97ZM233.912 137.416H234.912V136.416H233.912V137.416ZM233.912 150V151H234.912V150H233.912ZM230.092 150H229.092V151H230.092V150ZM230.092 140.486H231.092V139.486H230.092V140.486ZM225.79 140.486V139.486H224.79V140.486H225.79ZM225.79 150V151H226.79V150H225.79ZM222.97 150V137.416H220.97V150H222.97ZM221.97 138.416H233.912V136.416H221.97V138.416ZM232.912 137.416V150H234.912V137.416H232.912ZM233.912 149H230.092V151H233.912V149ZM231.092 150V140.486H229.092V150H231.092ZM230.092 139.486H225.79V141.486H230.092V139.486ZM224.79 140.486V150H226.79V140.486H224.79ZM225.79 149H221.97V151H225.79V149ZM235.985 150H234.985V151H235.985V150ZM235.985 137.416V136.416H234.985V137.416H235.985ZM239.841 137.416H240.841V136.416H239.841V137.416ZM239.841 142.057H238.841V143.057H239.841V142.057ZM244.143 142.057V143.057H245.143V142.057H244.143ZM244.143 137.416V136.416H243.143V137.416H244.143ZM247.998 137.416H248.998V136.416H247.998V137.416ZM247.998 150V151H248.998V150H247.998ZM244.143 150H243.143V151H244.143V150ZM244.143 145.198H245.143V144.198H244.143V145.198ZM239.841 145.198V144.198H238.841V145.198H239.841ZM239.841 150V151H240.841V150H239.841ZM236.985 150V137.416H234.985V150H236.985ZM235.985 138.416H239.841V136.416H235.985V138.416ZM238.841 137.416V142.057H240.841V137.416H238.841ZM239.841 143.057H244.143V141.057H239.841V143.057ZM245.143 142.057V137.416H243.143V142.057H245.143ZM244.143 138.416H247.998V136.416H244.143V138.416ZM246.998 137.416V150H248.998V137.416H246.998ZM247.998 149H244.143V151H247.998V149ZM245.143 150V145.198H243.143V150H245.143ZM244.143 144.198H239.841V146.198H244.143V144.198ZM238.841 145.198V150H240.841V145.198H238.841ZM239.841 149H235.985V151H239.841V149ZM250.07 150H249.07V151H250.07V150ZM250.07 137.416V136.416H249.07V137.416H250.07ZM259.406 137.416H260.406V136.416H259.406V137.416ZM259.406 140.343V141.343H260.406V140.343H259.406ZM253.747 140.343V139.343H252.747V140.343H253.747ZM253.747 142.146H252.747V143.146H253.747V142.146ZM258.977 142.146H259.977V141.146H258.977V142.146ZM258.977 145.073V146.073H259.977V145.073H258.977ZM253.747 145.073V144.073H252.747V145.073H253.747ZM253.747 147.073H252.747V148.073H253.747V147.073ZM259.406 147.073H260.406V146.073H259.406V147.073ZM259.406 150V151H260.406V150H259.406ZM251.07 150V137.416H249.07V150H251.07ZM250.07 138.416H259.406V136.416H250.07V138.416ZM258.406 137.416V140.343H260.406V137.416H258.406ZM259.406 139.343H253.747V141.343H259.406V139.343ZM252.747 140.343V142.146H254.747V140.343H252.747ZM253.747 143.146H258.977V141.146H253.747V143.146ZM257.977 142.146V145.073H259.977V142.146H257.977ZM258.977 144.073H253.747V146.073H258.977V144.073ZM252.747 145.073V147.073H254.747V145.073H252.747ZM253.747 148.073H259.406V146.073H253.747V148.073ZM258.406 147.073V150H260.406V147.073H258.406ZM259.406 149H250.07V151H259.406V149ZM260.93 150H259.93V151H260.93V150ZM260.93 137.416V136.416H259.93V137.416H260.93ZM264.5 137.416H265.5V136.416H264.5V137.416ZM264.5 143.949H263.5V146.761L265.276 144.58L264.5 143.949ZM269.819 137.416V136.416H269.344L269.044 136.784L269.819 137.416ZM272.622 137.416H273.622V136.416H272.622V137.416ZM272.622 150V151H273.622V150H272.622ZM269.052 150H268.052V151H269.052V150ZM269.052 143.467H270.052V140.655L268.276 142.836L269.052 143.467ZM263.732 150V151H264.208L264.508 150.631L263.732 150ZM264.643 136.059L264.219 136.965L264.227 136.969L264.235 136.972L264.643 136.059ZM263.358 135.042L262.526 135.596L262.535 135.61L262.544 135.623L263.358 135.042ZM262.822 133.667L262.521 132.714L261.709 132.97L261.833 133.812L262.822 133.667ZM264.518 133.132L265.453 132.778L265.119 131.893L264.217 132.178L264.518 133.132ZM265.339 134.274L264.791 135.111L264.797 135.115L264.804 135.119L265.339 134.274ZM268.231 134.221L267.639 133.414L267.633 133.419L267.626 133.424L268.231 134.221ZM268.963 133.15L269.263 132.196L268.287 131.888L268.002 132.872L268.963 133.15ZM270.605 133.667L271.589 133.844L271.744 132.978L270.905 132.714L270.605 133.667ZM269.391 135.649L268.773 134.862L268.766 134.868L269.391 135.649ZM261.93 150V137.416H259.93V150H261.93ZM260.93 138.416H264.5V136.416H260.93V138.416ZM263.5 137.416V143.949H265.5V137.416H263.5ZM265.276 144.58L270.595 138.047L269.044 136.784L263.725 143.317L265.276 144.58ZM269.819 138.416H272.622V136.416H269.819V138.416ZM271.622 137.416V150H273.622V137.416H271.622ZM272.622 149H269.052V151H272.622V149ZM270.052 150V143.467H268.052V150H270.052ZM268.276 142.836L262.957 149.369L264.508 150.631L269.827 144.098L268.276 142.836ZM263.732 149H260.93V151H263.732V149ZM266.749 135.434C265.995 135.434 265.443 135.321 265.051 135.146L264.235 136.972C264.961 137.297 265.814 137.434 266.749 137.434V135.434ZM265.067 135.153C264.631 134.95 264.35 134.711 264.171 134.46L262.544 135.623C262.96 136.206 263.536 136.645 264.219 136.965L265.067 135.153ZM264.19 134.487C263.983 134.176 263.861 133.857 263.812 133.522L261.833 133.812C261.926 134.453 262.162 135.05 262.526 135.596L264.19 134.487ZM263.123 134.621L264.819 134.085L264.217 132.178L262.521 132.714L263.123 134.621ZM263.582 133.485C263.831 134.144 264.212 134.731 264.791 135.111L265.887 133.438C265.776 133.365 265.609 133.191 265.453 132.778L263.582 133.485ZM264.804 135.119C265.376 135.482 266.067 135.613 266.785 135.613V133.613C266.289 133.613 266.016 133.519 265.874 133.429L264.804 135.119ZM266.785 135.613C267.531 135.613 268.256 135.457 268.835 135.017L267.626 133.424C267.516 133.508 267.276 133.613 266.785 133.613V135.613ZM268.822 135.027C269.369 134.626 269.735 134.078 269.923 133.428L268.002 132.872C267.928 133.126 267.807 133.292 267.639 133.414L268.822 135.027ZM268.662 134.103L270.304 134.621L270.905 132.714L269.263 132.196L268.662 134.103ZM269.62 133.491C269.523 134.035 269.256 134.483 268.773 134.862L270.009 136.435C270.858 135.767 271.401 134.894 271.589 133.844L269.62 133.491ZM268.766 134.868C268.339 135.21 267.702 135.434 266.749 135.434V137.434C268.01 137.434 269.134 137.135 270.016 136.429L268.766 134.868ZM274.701 150H273.701V151H274.701V150ZM274.701 137.416V136.416H273.701V137.416H274.701ZM278.467 137.416H279.467V136.416H278.467V137.416ZM278.467 146.93H277.467V147.93H278.467V146.93ZM281.859 146.93V147.93H282.859V146.93H281.859ZM281.859 137.416V136.416H280.859V137.416H281.859ZM285.607 137.416H286.607V136.416H285.607V137.416ZM285.607 146.93H284.607V147.93H285.607V146.93ZM288.999 146.93V147.93H289.999V146.93H288.999ZM288.999 137.416V136.416H287.999V137.416H288.999ZM292.747 137.416H293.747V136.416H292.747V137.416ZM292.747 150V151H293.747V150H292.747ZM275.701 150V137.416H273.701V150H275.701ZM274.701 138.416H278.467V136.416H274.701V138.416ZM277.467 137.416V146.93H279.467V137.416H277.467ZM278.467 147.93H281.859V145.93H278.467V147.93ZM282.859 146.93V137.416H280.859V146.93H282.859ZM281.859 138.416H285.607V136.416H281.859V138.416ZM284.607 137.416V146.93H286.607V137.416H284.607ZM285.607 147.93H288.999V145.93H285.607V147.93ZM289.999 146.93V137.416H287.999V146.93H289.999ZM288.999 138.416H292.747V136.416H288.999V138.416ZM291.747 137.416V150H293.747V137.416H291.747ZM292.747 149H274.701V151H292.747V149ZM294.817 150H293.817V151H294.817V150ZM294.817 137.416V136.416H293.817V137.416H294.817ZM298.387 137.416H299.387V136.416H298.387V137.416ZM298.387 143.949H297.387V146.761L299.163 144.58L298.387 143.949ZM303.706 137.416V136.416H303.231L302.931 136.784L303.706 137.416ZM306.509 137.416H307.509V136.416H306.509V137.416ZM306.509 150V151H307.509V150H306.509ZM302.939 150H301.939V151H302.939V150ZM302.939 143.467H303.939V140.655L302.163 142.836L302.939 143.467ZM297.62 150V151H298.095L298.395 150.631L297.62 150ZM295.817 150V137.416H293.817V150H295.817ZM294.817 138.416H298.387V136.416H294.817V138.416ZM297.387 137.416V143.949H299.387V137.416H297.387ZM299.163 144.58L304.482 138.047L302.931 136.784L297.612 143.317L299.163 144.58ZM303.706 138.416H306.509V136.416H303.706V138.416ZM305.509 137.416V150H307.509V137.416H305.509ZM306.509 149H302.939V151H306.509V149ZM303.939 150V143.467H301.939V150H303.939ZM302.163 142.836L296.844 149.369L298.395 150.631L303.714 144.098L302.163 142.836ZM297.62 149H294.817V151H297.62V149ZM306.839 150L306.042 149.396L304.826 151H306.839V150ZM311.64 143.663L312.438 144.267L312.895 143.663L312.438 143.06L311.64 143.663ZM306.91 137.416V136.416H304.899L306.113 138.019L306.91 137.416ZM311.408 137.416L312.229 136.845L311.931 136.416H311.408V137.416ZM313.818 140.879L312.997 141.45L313.812 142.621L314.635 141.455L313.818 140.879ZM316.264 137.416V136.416H315.746L315.447 136.839L316.264 137.416ZM320.762 137.416L321.559 138.019L322.773 136.416H320.762V137.416ZM316.032 143.663L315.234 143.06L314.776 143.665L315.236 144.269L316.032 143.663ZM320.851 150V151H322.868L321.647 149.395L320.851 150ZM316.335 150L315.519 150.577L315.817 151H316.335V150ZM313.836 146.466L314.653 145.888L313.839 144.738L313.021 145.886L313.836 146.466ZM311.319 150V151H311.835L312.134 150.58L311.319 150ZM307.636 150.604L312.438 144.267L310.843 143.059L306.042 149.396L307.636 150.604ZM312.438 143.06L307.707 136.812L306.113 138.019L310.843 144.267L312.438 143.06ZM306.91 138.416H311.408V136.416H306.91V138.416ZM310.588 137.987L312.997 141.45L314.639 140.307L312.229 136.845L310.588 137.987ZM314.635 141.455L317.08 137.993L315.447 136.839L313.001 140.302L314.635 141.455ZM316.264 138.416H320.762V136.416H316.264V138.416ZM319.965 136.812L315.234 143.06L316.829 144.267L321.559 138.019L319.965 136.812ZM315.236 144.269L320.055 150.605L321.647 149.395L316.828 143.058L315.236 144.269ZM320.851 149H316.335V151H320.851V149ZM317.152 149.423L314.653 145.888L313.02 147.043L315.519 150.577L317.152 149.423ZM313.021 145.886L310.505 149.42L312.134 150.58L314.651 147.046L313.021 145.886ZM311.319 149H306.839V151H311.319V149Z" fill="white" mask="url(#path-5-outside-2_3427_4491)"/>
<path d="M3.2504 208V180.646H17.2572C20.3353 180.646 22.7021 181.293 24.3576 182.586C26.0389 183.853 26.8796 185.561 26.8796 187.708C26.8796 189.104 26.5175 190.333 25.7932 191.394C25.0948 192.428 24.1119 193.204 22.8444 193.722C24.4223 194.213 25.6251 195.015 26.4528 196.127C27.2805 197.214 27.6944 198.559 27.6944 200.162C27.6944 202.542 26.7891 204.443 24.9784 205.866C23.1677 207.289 20.7233 208 17.6452 208H3.2504ZM11.2432 191.083H15.6664C16.8045 191.083 17.6193 190.915 18.1108 190.579C18.6281 190.217 18.8868 189.648 18.8868 188.872C18.8868 188.096 18.6281 187.539 18.1108 187.203C17.6193 186.867 16.8045 186.699 15.6664 186.699H11.2432V191.083ZM11.2432 201.947H16.52C18.6928 201.947 19.7792 201.145 19.7792 199.542C19.7792 197.938 18.6928 197.136 16.52 197.136H11.2432V201.947ZM33.1937 208L37.5781 199.542L25.8605 180.646H34.6293L41.5357 192.131L47.4333 180.646H56.0081L41.8073 208H33.1937ZM66.3274 208.466C64.0252 208.466 61.9688 208.22 60.1582 207.728C58.3734 207.211 56.7567 206.513 55.3082 205.633L57.6362 199.658C58.6191 200.305 59.796 200.822 61.167 201.21C62.5638 201.572 64.0511 201.753 65.629 201.753C67.2327 201.753 68.4096 201.559 69.1598 201.171C69.9358 200.757 70.3238 200.111 70.3238 199.231C70.3238 198.585 70.0522 198.093 69.509 197.757C68.9916 197.421 68.151 197.252 66.987 197.252H60.197V190.967H66.211C67.375 190.967 68.2156 190.825 68.733 190.54C69.2503 190.23 69.509 189.725 69.509 189.027C69.509 188.432 69.2115 187.927 68.6166 187.514C68.0475 187.1 67.0775 186.893 65.7066 186.893C64.3356 186.893 62.9776 187.087 61.6326 187.475C60.2875 187.837 59.1364 188.341 58.1794 188.988L55.8514 183.013C57.093 182.159 58.645 181.474 60.5074 180.956C62.3956 180.439 64.452 180.18 66.6766 180.18C70.3238 180.18 73.0398 180.892 74.8246 182.314C76.6352 183.737 77.5406 185.535 77.5406 187.708C77.5406 189.13 77.1784 190.359 76.4542 191.394C75.7558 192.428 74.7728 193.217 73.5054 193.76C75.0574 194.252 76.2472 195.041 77.075 196.127C77.9027 197.214 78.3166 198.572 78.3166 200.201C78.3166 201.805 77.8768 203.228 76.9974 204.469C76.1179 205.711 74.7858 206.694 73.001 207.418C71.242 208.116 69.0175 208.466 66.3274 208.466ZM94.8454 208.466C91.9483 208.466 89.4392 207.871 87.3182 206.681C85.1971 205.491 83.5546 203.835 82.3906 201.714C81.2524 199.567 80.6834 197.097 80.6834 194.304C80.6834 191.484 81.2524 189.014 82.3906 186.893C83.5546 184.772 85.1971 183.129 87.3182 181.965C89.4392 180.775 91.9483 180.18 94.8454 180.18C97.7683 180.18 100.29 180.775 102.411 181.965C104.532 183.129 106.175 184.772 107.339 186.893C108.503 189.014 109.085 191.484 109.085 194.304C109.085 197.123 108.503 199.593 107.339 201.714C106.175 203.835 104.532 205.491 102.411 206.681C100.29 207.871 97.7683 208.466 94.8454 208.466ZM94.8454 201.52C96.7078 201.52 98.0787 200.887 98.9582 199.619C99.8635 198.326 100.316 196.554 100.316 194.304C100.316 192.053 99.8635 190.294 98.9582 189.027C98.0787 187.759 96.7078 187.126 94.8454 187.126C92.983 187.126 91.612 187.759 90.7326 189.027C89.879 190.268 89.4522 192.027 89.4522 194.304C89.4522 196.58 89.879 198.352 90.7326 199.619C91.612 200.887 92.983 201.52 94.8454 201.52ZM112.944 208V180.646H126.951C130.029 180.646 132.395 181.293 134.051 182.586C135.732 183.853 136.573 185.561 136.573 187.708C136.573 189.104 136.211 190.333 135.487 191.394C134.788 192.428 133.805 193.204 132.538 193.722C134.116 194.213 135.318 195.015 136.146 196.127C136.974 197.214 137.388 198.559 137.388 200.162C137.388 202.542 136.482 204.443 134.672 205.866C132.861 207.289 130.417 208 127.339 208H112.944ZM120.937 191.083H125.36C126.498 191.083 127.313 190.915 127.804 190.579C128.321 190.217 128.58 189.648 128.58 188.872C128.58 188.096 128.321 187.539 127.804 187.203C127.313 186.867 126.498 186.699 125.36 186.699H120.937V191.083ZM120.937 201.947H126.213C128.386 201.947 129.473 201.145 129.473 199.542C129.473 197.938 128.386 197.136 126.213 197.136H120.937V201.947ZM151.971 208V180.646H166.094C169.328 180.646 171.759 181.448 173.389 183.052C175.018 184.629 175.833 186.763 175.833 189.454C175.833 192.118 175.018 194.252 173.389 195.856C171.759 197.459 169.328 198.261 166.094 198.261H160.352V208H151.971ZM160.352 191.898H164.969C166.883 191.898 167.84 191.083 167.84 189.454C167.84 187.824 166.883 187.009 164.969 187.009H160.352V191.898ZM192.035 208.466C189.138 208.466 186.629 207.871 184.508 206.681C182.387 205.491 180.744 203.835 179.58 201.714C178.442 199.567 177.873 197.097 177.873 194.304C177.873 191.484 178.442 189.014 179.58 186.893C180.744 184.772 182.387 183.129 184.508 181.965C186.629 180.775 189.138 180.18 192.035 180.18C194.958 180.18 197.48 180.775 199.601 181.965C201.722 183.129 203.364 184.772 204.528 186.893C205.692 189.014 206.274 191.484 206.274 194.304C206.274 197.123 205.692 199.593 204.528 201.714C203.364 203.835 201.722 205.491 199.601 206.681C197.48 207.871 194.958 208.466 192.035 208.466ZM192.035 201.52C193.897 201.52 195.268 200.887 196.148 199.619C197.053 198.326 197.506 196.554 197.506 194.304C197.506 192.053 197.053 190.294 196.148 189.027C195.268 187.759 193.897 187.126 192.035 187.126C190.172 187.126 188.801 187.759 187.922 189.027C187.068 190.268 186.642 192.027 186.642 194.304C186.642 196.58 187.068 198.352 187.922 199.619C188.801 200.887 190.172 201.52 192.035 201.52ZM224.45 208.466C221.398 208.466 218.747 207.884 216.496 206.72C214.272 205.53 212.539 203.874 211.297 201.753C210.081 199.632 209.474 197.149 209.474 194.304C209.474 191.458 210.081 188.988 211.297 186.893C212.539 184.772 214.272 183.129 216.496 181.965C218.747 180.775 221.398 180.18 224.45 180.18C226.313 180.18 228.02 180.426 229.572 180.918C231.15 181.383 232.456 182.056 233.491 182.935L231.046 189.492C229.882 188.716 228.835 188.186 227.904 187.902C226.972 187.591 225.925 187.436 224.761 187.436C222.666 187.436 221.049 188.031 219.911 189.221C218.799 190.385 218.242 192.079 218.242 194.304C218.242 196.554 218.799 198.274 219.911 199.464C221.049 200.628 222.666 201.21 224.761 201.21C225.925 201.21 226.972 201.068 227.904 200.783C228.835 200.473 229.882 199.93 231.046 199.154L233.491 205.711C232.456 206.59 231.15 207.276 229.572 207.767C228.02 208.233 226.313 208.466 224.45 208.466ZM250.443 208.466C247.391 208.466 244.74 207.884 242.489 206.72C240.265 205.53 238.532 203.874 237.29 201.753C236.074 199.632 235.467 197.149 235.467 194.304C235.467 191.458 236.074 188.988 237.29 186.893C238.532 184.772 240.265 183.129 242.489 181.965C244.74 180.775 247.391 180.18 250.443 180.18C252.306 180.18 254.013 180.426 255.565 180.918C257.143 181.383 258.449 182.056 259.484 182.935L257.039 189.492C255.875 188.716 254.828 188.186 253.897 187.902C252.965 187.591 251.918 187.436 250.754 187.436C248.659 187.436 247.042 188.031 245.904 189.221C244.792 190.385 244.235 192.079 244.235 194.304C244.235 196.554 244.792 198.274 245.904 199.464C247.042 200.628 248.659 201.21 250.754 201.21C251.918 201.21 252.965 201.068 253.897 200.783C254.828 200.473 255.875 199.93 257.039 199.154L259.484 205.711C258.449 206.59 257.143 207.276 255.565 207.767C254.013 208.233 252.306 208.466 250.443 208.466ZM262.688 208V180.646H270.448V194.847L282.01 180.646H288.102V208H280.342V193.799L268.779 208H262.688ZM292.621 208V180.646H300.381V194.847L311.943 180.646H318.035V208H310.275V193.799L298.713 208H292.621Z" fill="white"/>
</svg>
