<svg width="321" height="218" viewBox="0 0 321 218" fill="none" xmlns="http://www.w3.org/2000/svg">
<path d="M8.917 19.234C7.461 19.234 6.2 18.935 5.134 18.337C4.068 17.739 3.2425 16.907 2.6575 15.841C2.0855 14.762 1.7995 13.5205 1.7995 12.1165C1.7995 10.6995 2.0855 9.458 2.6575 8.392C3.2425 7.326 4.068 6.5005 5.134 5.9155C6.2 5.3175 7.461 5.0185 8.917 5.0185C10.386 5.0185 11.6535 5.3175 12.7195 5.9155C13.7855 6.5005 14.611 7.326 15.196 8.392C15.781 9.458 16.0735 10.6995 16.0735 12.1165C16.0735 13.5335 15.781 14.775 15.196 15.841C14.611 16.907 13.7855 17.739 12.7195 18.337C11.6535 18.935 10.386 19.234 8.917 19.234ZM8.917 15.7435C9.853 15.7435 10.542 15.425 10.984 14.788C11.439 14.138 11.6665 13.2475 11.6665 12.1165C11.6665 10.9855 11.439 10.1015 10.984 9.4645C10.542 8.8275 9.853 8.509 8.917 8.509C7.981 8.509 7.292 8.8275 6.85 9.4645C6.421 10.0885 6.2065 10.9725 6.2065 12.1165C6.2065 13.2605 6.421 14.151 6.85 14.788C7.292 15.425 7.981 15.7435 8.917 15.7435ZM18.0128 19V5.2525H28.8743V8.4115H22.0103V10.4005H25.3448C26.8918 10.4005 28.1138 10.7775 29.0108 11.5315C29.9078 12.2725 30.3563 13.3255 30.3563 14.6905C30.3563 16.0685 29.9078 17.1345 29.0108 17.8885C28.1138 18.6295 26.8918 19 25.3448 19H18.0128ZM22.0103 15.8995H24.7598C25.3578 15.8995 25.7803 15.802 26.0273 15.607C26.2873 15.399 26.4173 15.0935 26.4173 14.6905C26.4173 14.2875 26.2873 13.9885 26.0273 13.7935C25.7803 13.5985 25.3578 13.501 24.7598 13.501H22.0103V15.8995ZM34.8397 19V8.6065H30.9982V5.2525H39.0127V10.4005H42.1522C43.6992 10.4005 44.9212 10.7775 45.8182 11.5315C46.7282 12.2725 47.1832 13.3255 47.1832 14.6905C47.1832 16.0685 46.7282 17.1345 45.8182 17.8885C44.9212 18.6295 43.6992 19 42.1522 19H34.8397ZM39.0127 15.8995H41.5867C42.1847 15.8995 42.6072 15.802 42.8542 15.607C43.1012 15.399 43.2247 15.0935 43.2247 14.6905C43.2247 14.2875 43.1012 13.9885 42.8542 13.7935C42.6072 13.5855 42.1847 13.4815 41.5867 13.4815H39.0127V15.8995ZM48.7291 19V5.2525H58.9276V8.4505H52.7461V10.42H58.4596V13.618H52.7461V15.802H58.9276V19H48.7291ZM59.6374 22.51V15.841H61.0804C62.1464 14.515 62.6794 12.214 62.6794 8.938V5.2525H73.7554V15.841H75.7639V22.51H72.1759V19H63.2254V22.51H59.6374ZM65.1949 15.841H69.5824V8.4115H66.5014V9.406C66.5014 12.292 66.0659 14.437 65.1949 15.841ZM77.3317 19V5.2525H81.2317V12.3895L87.0427 5.2525H90.1042V19H86.2042V11.863L80.3932 19H77.3317ZM92.3756 19V5.2525H96.5876V10.3225H101.287V5.2525H105.499V19H101.287V13.7545H96.5876V19H92.3756ZM106.904 19L109.03 15.2755C109.485 14.5085 110.076 14.0145 110.804 13.7935C109.79 13.5205 109.017 13.0265 108.484 12.3115C107.951 11.5835 107.684 10.693 107.684 9.64C107.684 8.275 108.126 7.2025 109.01 6.4225C109.894 5.6425 111.142 5.2525 112.754 5.2525H119.891V19H115.718V14.086H115.094C114.561 14.086 114.178 14.281 113.944 14.671L111.487 19H106.904ZM113.495 11.1805H115.718V8.4115H113.495C112.26 8.4115 111.643 8.873 111.643 9.796C111.643 10.719 112.26 11.1805 113.495 11.1805ZM122.159 19V5.2525H132.357V8.4505H126.176V10.42H131.889V13.618H126.176V15.802H132.357V19H122.159ZM134.081 19V5.2525H137.747L141.589 13.852L145.43 5.2525H149.096V19H145.294V13.5595L142.72 19H140.399L137.884 13.6765V19H134.081ZM160.298 19V8.6455H156.32V5.2525H168.488V8.6455H164.51V19H160.298ZM166.316 19L172.848 5.2525H176.261L182.832 19H178.62L177.489 16.4455H171.639L170.508 19H166.316ZM174.545 9.5425L172.985 13.267H176.202L174.642 9.5425H174.545ZM184.437 19.39L182.331 16.465C183.072 16.023 183.663 15.503 184.105 14.905C184.56 14.307 184.885 13.5725 185.08 12.7015C185.275 11.8305 185.373 10.784 185.373 9.562V5.2525H196.468V19H192.295V8.6065H189.214V10.5955C189.214 12.7925 188.785 14.632 187.927 16.114C187.082 17.596 185.919 18.688 184.437 19.39ZM196.937 19L203.469 5.2525H206.882L213.453 19H209.241L208.11 16.4455H202.26L201.129 19H196.937ZM205.166 9.5425L203.606 13.267H206.823L205.263 9.5425H205.166ZM213.927 19V5.2525H218.139V10.3225H222.838V5.2525H227.05V19H222.838V13.7545H218.139V19H213.927ZM232.395 19V8.6455H228.417V5.2525H240.585V8.6455H236.607V19H232.395ZM242.899 19.39L240.793 16.465C241.534 16.023 242.125 15.503 242.567 14.905C243.022 14.307 243.347 13.5725 243.542 12.7015C243.737 11.8305 243.835 10.784 243.835 9.562V5.2525H254.93V19H250.757V8.6065H247.676V10.5955C247.676 12.7925 247.247 14.632 246.389 16.114C245.544 17.596 244.381 18.688 242.899 19.39ZM257.193 19V5.2525H261.093V12.3895L266.904 5.2525H269.965V19H266.065V11.863L260.254 19H257.193ZM272.236 19V5.2525H279.276C280.823 5.2525 282.012 5.5775 282.844 6.2275C283.689 6.8645 284.112 7.7225 284.112 8.8015C284.112 9.5035 283.93 10.121 283.566 10.654C283.215 11.174 282.721 11.564 282.084 11.824C282.877 12.071 283.481 12.474 283.897 13.033C284.313 13.579 284.521 14.255 284.521 15.061C284.521 16.257 284.066 17.2125 283.156 17.9275C282.246 18.6425 281.018 19 279.471 19H272.236ZM276.253 10.498H278.476C279.048 10.498 279.458 10.4135 279.705 10.2445C279.965 10.0625 280.095 9.7765 280.095 9.3865C280.095 8.9965 279.965 8.717 279.705 8.548C279.458 8.379 279.048 8.2945 278.476 8.2945H276.253V10.498ZM276.253 15.958H278.905C279.997 15.958 280.543 15.555 280.543 14.749C280.543 13.943 279.997 13.54 278.905 13.54H276.253V15.958ZM287.285 19L289.489 14.749L283.6 5.2525H288.007L291.478 11.0245L294.442 5.2525H298.751L291.614 19H287.285ZM312.284 19.234C311.062 19.234 309.963 19.0065 308.988 18.5515C308.013 18.0965 307.207 17.4595 306.57 16.6405C305.946 15.8085 305.524 14.8335 305.303 13.7155H303.47V19H299.297V5.2525H303.47V10.3615H305.322C305.556 9.2695 305.992 8.327 306.629 7.534C307.266 6.728 308.065 6.1105 309.027 5.6815C309.989 5.2395 311.075 5.0185 312.284 5.0185C313.727 5.0185 314.988 5.3175 316.067 5.9155C317.146 6.5005 317.984 7.326 318.582 8.392C319.18 9.458 319.479 10.6995 319.479 12.1165C319.479 13.5335 319.174 14.7815 318.563 15.8605C317.965 16.9265 317.126 17.7585 316.047 18.3565C314.968 18.9415 313.714 19.234 312.284 19.234ZM312.303 15.7825C313.187 15.7825 313.883 15.4575 314.39 14.8075C314.897 14.1575 315.15 13.2605 315.15 12.1165C315.15 10.9725 314.897 10.082 314.39 9.445C313.883 8.795 313.187 8.47 312.303 8.47C311.419 8.47 310.724 8.7885 310.217 9.4255C309.723 10.0625 309.476 10.9595 309.476 12.1165C309.476 13.2605 309.723 14.1575 310.217 14.8075C310.724 15.4575 311.419 15.7825 312.303 15.7825Z" fill="white"/>
<mask id="path-2-outside-1_3427_4491" maskUnits="userSpaceOnUse" x="1" y="39" width="319" height="35" fill="black">
<rect fill="white" x="1" y="39" width="319" height="35"/>
<path d="M2.708 67V47.26H7.972L13.488 59.608L19.004 47.26H24.268V67H18.808V59.188L15.112 67H11.78L8.168 59.356V67H2.708ZM37.3328 67.336C35.2422 67.336 33.4315 66.9067 31.9008 66.048C30.3702 65.1893 29.1848 63.9947 28.3448 62.464C27.5235 60.9147 27.1128 59.132 27.1128 57.116C27.1128 55.0813 27.5235 53.2987 28.3448 51.768C29.1848 50.2373 30.3702 49.052 31.9008 48.212C33.4315 47.3533 35.2422 46.924 37.3328 46.924C39.4422 46.924 41.2622 47.3533 42.7928 48.212C44.3235 49.052 45.5088 50.2373 46.3488 51.768C47.1888 53.2987 47.6088 55.0813 47.6088 57.116C47.6088 59.1507 47.1888 60.9333 46.3488 62.464C45.5088 63.9947 44.3235 65.1893 42.7928 66.048C41.2622 66.9067 39.4422 67.336 37.3328 67.336ZM37.3328 62.324C38.6768 62.324 39.6662 61.8667 40.3008 60.952C40.9542 60.0187 41.2808 58.74 41.2808 57.116C41.2808 55.492 40.9542 54.2227 40.3008 53.308C39.6662 52.3933 38.6768 51.936 37.3328 51.936C35.9888 51.936 34.9995 52.3933 34.3648 53.308C33.7488 54.204 33.4408 55.4733 33.4408 57.116C33.4408 58.7587 33.7488 60.0373 34.3648 60.952C34.9995 61.8667 35.9888 62.324 37.3328 62.324ZM51.8808 67.56L48.8568 63.36C49.9208 62.7253 50.7701 61.9787 51.4048 61.12C52.0581 60.2613 52.5248 59.2067 52.8048 57.956C53.0848 56.7053 53.2248 55.2027 53.2248 53.448V47.26H69.1568V67H63.1648V52.076H58.7408V54.932C58.7408 58.0867 58.1248 60.728 56.8928 62.856C55.6795 64.984 54.0088 66.552 51.8808 67.56ZM82.1493 67.336C80.0586 67.336 78.2479 66.9067 76.7173 66.048C75.1866 65.1893 74.0013 63.9947 73.1613 62.464C72.3399 60.9147 71.9293 59.132 71.9293 57.116C71.9293 55.0813 72.3399 53.2987 73.1613 51.768C74.0013 50.2373 75.1866 49.052 76.7173 48.212C78.2479 47.3533 80.0586 46.924 82.1493 46.924C84.2586 46.924 86.0786 47.3533 87.6093 48.212C89.1399 49.052 90.3253 50.2373 91.1653 51.768C92.0053 53.2987 92.4253 55.0813 92.4253 57.116C92.4253 59.1507 92.0053 60.9333 91.1653 62.464C90.3253 63.9947 89.1399 65.1893 87.6093 66.048C86.0786 66.9067 84.2586 67.336 82.1493 67.336ZM82.1493 62.324C83.4933 62.324 84.4826 61.8667 85.1173 60.952C85.7706 60.0187 86.0973 58.74 86.0973 57.116C86.0973 55.492 85.7706 54.2227 85.1173 53.308C84.4826 52.3933 83.4933 51.936 82.1493 51.936C80.8053 51.936 79.8159 52.3933 79.1813 53.308C78.5653 54.204 78.2573 55.4733 78.2573 57.116C78.2573 58.7587 78.5653 60.0373 79.1813 60.952C79.8159 61.8667 80.8053 62.324 82.1493 62.324ZM93.2911 72.04V62.464H95.3631C96.8937 60.56 97.6591 57.256 97.6591 52.552V47.26H113.563V62.464H116.447V72.04H111.295V67H98.4431V72.04H93.2911ZM101.271 62.464H107.571V51.796H103.147V53.224C103.147 57.368 102.522 60.448 101.271 62.464ZM118.698 67V47.26H133.342V51.852H124.466V54.68H132.67V59.272H124.466V62.408H133.342V67H118.698ZM127.406 45.72V40.988H132.11V45.72H127.406ZM121.358 45.72V40.988H126.062V45.72H121.358ZM133.857 67L137.525 59.664C137.936 58.8427 138.384 58.1427 138.869 57.564C139.373 56.9853 139.943 56.5093 140.577 56.136L134.837 47.26H141.361L145.981 54.904H146.961V47.26H152.701V54.904H153.709L158.273 47.26H164.797L159.057 56.136C159.711 56.5093 160.28 56.9947 160.765 57.592C161.269 58.1707 161.727 58.8613 162.137 59.664L165.777 67H159.309L156.761 61.54C156.463 60.8867 156.08 60.42 155.613 60.14C155.147 59.86 154.503 59.72 153.681 59.72H152.701V67H146.961V59.72H145.981C145.179 59.72 144.544 59.86 144.077 60.14C143.611 60.42 143.219 60.8867 142.901 61.54L140.325 67H133.857ZM167.151 67V47.26H173.143V54.652H177.679C179.901 54.652 181.655 55.1933 182.943 56.276C184.231 57.34 184.875 58.852 184.875 60.812C184.875 62.7907 184.231 64.3213 182.943 65.404C181.655 66.468 179.901 67 177.679 67H167.151ZM173.143 62.548H176.839C177.698 62.548 178.305 62.408 178.659 62.128C179.033 61.8293 179.219 61.3907 179.219 60.812C179.219 60.2333 179.033 59.804 178.659 59.524C178.305 59.244 177.698 59.104 176.839 59.104H173.143V62.548ZM205.757 67.336C203.554 67.336 201.641 66.916 200.017 66.076C198.411 65.2173 197.161 64.0227 196.265 62.492C195.387 60.9613 194.949 59.1693 194.949 57.116C194.949 55.0627 195.387 53.28 196.265 51.768C197.161 50.2373 198.411 49.052 200.017 48.212C201.641 47.3533 203.554 46.924 205.757 46.924C207.101 46.924 208.333 47.1013 209.453 47.456C210.591 47.792 211.534 48.2773 212.281 48.912L210.517 53.644C209.677 53.084 208.921 52.7013 208.249 52.496C207.577 52.272 206.821 52.16 205.981 52.16C204.469 52.16 203.302 52.5893 202.481 53.448C201.678 54.288 201.277 55.5107 201.277 57.116C201.277 58.74 201.678 59.9813 202.481 60.84C203.302 61.68 204.469 62.1 205.981 62.1C206.821 62.1 207.577 61.9973 208.249 61.792C208.921 61.568 209.677 61.176 210.517 60.616L212.281 65.348C211.534 65.9827 210.591 66.4773 209.453 66.832C208.333 67.168 207.101 67.336 205.757 67.336ZM218.743 67V52.132H213.031V47.26H230.503V52.132H224.791V67H218.743ZM232.476 67V47.26H242.668C245.001 47.26 246.756 47.8387 247.932 48.996C249.108 50.1347 249.696 51.6747 249.696 53.616C249.696 55.5387 249.108 57.0787 247.932 58.236C246.756 59.3933 245.001 59.972 242.668 59.972H238.524V67H232.476ZM238.524 55.38H241.856C243.237 55.38 243.928 54.792 243.928 53.616C243.928 52.44 243.237 51.852 241.856 51.852H238.524V55.38ZM247.235 67L256.616 47.26H261.516L270.952 67H264.904L263.28 63.332H254.88L253.256 67H247.235ZM259.052 53.42L256.812 58.768H261.432L259.192 53.42H259.052ZM271.632 67V47.26H277.68V54.54H284.428V47.26H290.476V67H284.428V59.468H277.68V67H271.632ZM293.726 67V47.26H299.718V54.652H303.386C305.607 54.652 307.362 55.1933 308.65 56.276C309.938 57.34 310.582 58.852 310.582 60.812C310.582 62.7907 309.938 64.3213 308.65 65.404C307.362 66.468 305.607 67 303.386 67H293.726ZM312.654 67V47.26H318.646V67H312.654ZM299.718 62.548H302.546C303.404 62.548 304.011 62.408 304.366 62.128C304.739 61.8293 304.926 61.3907 304.926 60.812C304.926 60.2333 304.739 59.804 304.366 59.524C304.011 59.2253 303.404 59.076 302.546 59.076H299.718V62.548Z"/>
</mask>
<path d="M2.708 67H1.708V68H2.708V67ZM2.708 47.26V46.26H1.708V47.26H2.708ZM7.972 47.26L8.88504 46.8521L8.62053 46.26H7.972V47.26ZM13.488 59.608L12.575 60.0159L13.488 62.0598L14.401 60.0159L13.488 59.608ZM19.004 47.26V46.26H18.3555L18.091 46.8521L19.004 47.26ZM24.268 47.26H25.268V46.26H24.268V47.26ZM24.268 67V68H25.268V67H24.268ZM18.808 67H17.808V68H18.808V67ZM18.808 59.188H19.808L17.9041 58.7603L18.808 59.188ZM15.112 67V68H15.7452L16.0159 67.4277L15.112 67ZM11.78 67L10.8759 67.4272L11.1465 68H11.78V67ZM8.168 59.356L9.07214 58.9288L7.168 59.356H8.168ZM8.168 67V68H9.168V67H8.168ZM3.708 67V47.26H1.708V67H3.708ZM2.708 48.26H7.972V46.26H2.708V48.26ZM7.05896 47.6679L12.575 60.0159L14.401 59.2001L8.88504 46.8521L7.05896 47.6679ZM14.401 60.0159L19.917 47.6679L18.091 46.8521L12.575 59.2001L14.401 60.0159ZM19.004 48.26H24.268V46.26H19.004V48.26ZM23.268 47.26V67H25.268V47.26H23.268ZM24.268 66H18.808V68H24.268V66ZM19.808 67V59.188H17.808V67H19.808ZM17.9041 58.7603L14.2081 66.5723L16.0159 67.4277L19.7119 59.6157L17.9041 58.7603ZM15.112 66H11.78V68H15.112V66ZM12.6841 66.5728L9.07214 58.9288L7.26386 59.7832L10.8759 67.4272L12.6841 66.5728ZM7.168 59.356V67H9.168V59.356H7.168ZM8.168 66H2.708V68H8.168V66ZM31.9008 66.048L32.3901 65.1759L31.9008 66.048ZM28.3448 62.464L27.4613 62.9324L27.4647 62.9388L27.4682 62.9451L28.3448 62.464ZM28.3448 51.768L27.4681 51.2869L27.4637 51.2952L28.3448 51.768ZM31.9008 48.212L32.382 49.0887L32.3901 49.0841L31.9008 48.212ZM42.7928 48.212L42.3036 49.0842L42.3117 49.0887L42.7928 48.212ZM46.3488 51.768L47.2255 51.2869L46.3488 51.768ZM46.3488 62.464L47.2255 62.9451L46.3488 62.464ZM42.7928 66.048L42.3036 65.1759L42.7928 66.048ZM40.3008 60.952L39.4816 60.3785L39.4793 60.3819L40.3008 60.952ZM40.3008 53.308L39.4792 53.8781L39.4871 53.8892L40.3008 53.308ZM34.3648 53.308L33.5432 52.7379L33.5408 52.7415L34.3648 53.308ZM34.3648 60.952L33.5353 61.5107L33.5433 61.5221L34.3648 60.952ZM37.3328 66.336C35.3807 66.336 33.7451 65.936 32.3901 65.1759L31.4116 66.9201C33.1179 67.8773 35.1036 68.336 37.3328 68.336V66.336ZM32.3901 65.1759C31.0217 64.4082 29.971 63.3486 29.2215 61.9829L27.4682 62.9451C28.3987 64.6407 29.7186 65.9704 31.4116 66.9201L32.3901 65.1759ZM29.2284 61.9956C28.4943 60.6108 28.1128 58.9933 28.1128 57.116H26.1128C26.1128 59.2707 26.5527 61.2185 27.4613 62.9324L29.2284 61.9956ZM28.1128 57.116C28.1128 55.218 28.4951 53.603 29.226 52.2408L27.4637 51.2952C26.552 52.9943 26.1128 54.9447 26.1128 57.116H28.1128ZM29.2215 52.2491C29.97 50.8852 31.0181 49.8371 32.3819 49.0887L31.4197 47.3353C29.7223 48.2669 28.3997 49.5894 27.4682 51.2869L29.2215 52.2491ZM32.3901 49.0841C33.7451 48.324 35.3807 47.924 37.3328 47.924V45.924C35.1036 45.924 33.1179 46.3827 31.4116 47.3399L32.3901 49.0841ZM37.3328 47.924C39.3054 47.924 40.9498 48.3247 42.3036 49.0841L43.2821 47.3399C41.5745 46.382 39.579 45.924 37.3328 45.924V47.924ZM42.3117 49.0887C43.6756 49.8371 44.7237 50.8852 45.4722 52.2491L47.2255 51.2869C46.294 49.5894 44.9714 48.2669 43.2739 47.3353L42.3117 49.0887ZM45.4722 52.2491C46.2188 53.6096 46.6088 55.2216 46.6088 57.116H48.6088C48.6088 54.9411 48.1589 52.9877 47.2255 51.2869L45.4722 52.2491ZM46.6088 57.116C46.6088 59.0104 46.2188 60.6224 45.4722 61.9829L47.2255 62.9451C48.1589 61.2443 48.6088 59.2909 48.6088 57.116H46.6088ZM45.4722 61.9829C44.7227 63.3486 43.672 64.4082 42.3036 65.1759L43.2821 66.9201C44.975 65.9704 46.295 64.6407 47.2255 62.9451L45.4722 61.9829ZM42.3036 65.1759C40.9498 65.9353 39.3054 66.336 37.3328 66.336V68.336C39.579 68.336 41.5745 67.878 43.2821 66.9201L42.3036 65.1759ZM37.3328 63.324C38.9273 63.324 40.2608 62.7639 41.1224 61.5221L39.4793 60.3819C39.0716 60.9695 38.4264 61.324 37.3328 61.324V63.324ZM41.1201 61.5255C41.9315 60.3664 42.2808 58.8612 42.2808 57.116H40.2808C40.2808 58.6188 39.9769 59.671 39.4816 60.3785L41.1201 61.5255ZM42.2808 57.116C42.2808 55.3725 41.9321 53.8713 41.1146 52.7268L39.4871 53.8892C39.9762 54.574 40.2808 55.6115 40.2808 57.116H42.2808ZM41.1224 52.7379C40.2608 51.4961 38.9273 50.936 37.3328 50.936V52.936C38.4264 52.936 39.0716 53.2905 39.4793 53.8781L41.1224 52.7379ZM37.3328 50.936C35.7384 50.936 34.4049 51.4961 33.5433 52.7379L35.1864 53.8781C35.5941 53.2905 36.2393 52.936 37.3328 52.936V50.936ZM33.5408 52.7415C32.7654 53.8693 32.4408 55.368 32.4408 57.116H34.4408C34.4408 55.5786 34.7323 54.5387 35.1889 53.8745L33.5408 52.7415ZM32.4408 57.116C32.4408 58.8659 32.7661 60.3684 33.5354 61.5106L35.1943 60.3934C34.7315 59.7063 34.4408 58.6514 34.4408 57.116H32.4408ZM33.5433 61.5221C34.4049 62.7639 35.7384 63.324 37.3328 63.324V61.324C36.2393 61.324 35.5941 60.9695 35.1864 60.3819L33.5433 61.5221ZM51.8808 67.56L51.0693 68.1443L51.556 68.8204L52.3089 68.4637L51.8808 67.56ZM48.8568 63.36L48.3445 62.5012L47.4083 63.0596L48.0453 63.9443L48.8568 63.36ZM51.4048 61.12L50.6089 60.5144L50.6006 60.5256L51.4048 61.12ZM53.2248 47.26V46.26H52.2248V47.26H53.2248ZM69.1568 47.26H70.1568V46.26H69.1568V47.26ZM69.1568 67V68H70.1568V67H69.1568ZM63.1648 67H62.1648V68H63.1648V67ZM63.1648 52.076H64.1648V51.076H63.1648V52.076ZM58.7408 52.076V51.076H57.7408V52.076H58.7408ZM56.8928 62.856L56.0274 62.355L56.0241 62.3607L56.8928 62.856ZM52.6923 66.9757L49.6683 62.7757L48.0453 63.9443L51.0693 68.1443L52.6923 66.9757ZM49.3691 64.2188C50.5289 63.527 51.4839 62.6954 52.209 61.7144L50.6006 60.5256C50.0564 61.262 49.3127 61.9237 48.3445 62.5012L49.3691 64.2188ZM52.2006 61.7255C52.956 60.7328 53.475 59.5396 53.7807 58.1745L51.829 57.7375C51.5746 58.8738 51.1603 59.7899 50.609 60.5145L52.2006 61.7255ZM53.7807 58.1745C54.0814 56.8313 54.2248 55.2513 54.2248 53.448H52.2248C52.2248 55.1541 52.0883 56.5794 51.829 57.7375L53.7807 58.1745ZM54.2248 53.448V47.26H52.2248V53.448H54.2248ZM53.2248 48.26H69.1568V46.26H53.2248V48.26ZM68.1568 47.26V67H70.1568V47.26H68.1568ZM69.1568 66H63.1648V68H69.1568V66ZM64.1648 67V52.076H62.1648V67H64.1648ZM63.1648 51.076H58.7408V53.076H63.1648V51.076ZM57.7408 52.076V54.932H59.7408V52.076H57.7408ZM57.7408 54.932C57.7408 57.9595 57.1496 60.4165 56.0274 62.355L57.7582 63.357C59.1 61.0395 59.7408 58.2138 59.7408 54.932H57.7408ZM56.0241 62.3607C54.908 64.3182 53.3877 65.7397 51.4527 66.6563L52.3089 68.4637C54.63 67.3643 56.451 65.6498 57.7615 63.3513L56.0241 62.3607ZM76.7172 66.048L77.2065 65.1759L76.7172 66.048ZM73.1612 62.464L72.2777 62.9324L72.2811 62.9388L72.2846 62.9451L73.1612 62.464ZM73.1612 51.768L72.2845 51.2869L72.2801 51.2952L73.1612 51.768ZM76.7172 48.212L77.1984 49.0887L77.2065 49.0841L76.7172 48.212ZM87.6093 48.212L87.12 49.0842L87.1282 49.0887L87.6093 48.212ZM91.1653 51.768L92.0419 51.2869L91.1653 51.768ZM91.1653 62.464L92.0419 62.9451L91.1653 62.464ZM87.6093 66.048L87.12 65.1759L87.6093 66.048ZM85.1172 60.952L84.298 60.3785L84.2957 60.3819L85.1172 60.952ZM85.1172 53.308L84.2956 53.8781L84.3035 53.8892L85.1172 53.308ZM79.1813 53.308L78.3597 52.7379L78.3572 52.7415L79.1813 53.308ZM79.1813 60.952L78.3517 61.5107L78.3597 61.5221L79.1813 60.952ZM82.1493 66.336C80.1971 66.336 78.5615 65.936 77.2065 65.1759L76.228 66.9201C77.9343 67.8773 79.92 68.336 82.1493 68.336V66.336ZM77.2065 65.1759C75.8381 64.4082 74.7874 63.3486 74.0379 61.9829L72.2846 62.9451C73.2151 64.6407 74.535 65.9704 76.228 66.9201L77.2065 65.1759ZM74.0448 61.9956C73.3107 60.6108 72.9293 58.9933 72.9293 57.116H70.9293C70.9293 59.2707 71.3692 61.2185 72.2777 62.9324L74.0448 61.9956ZM72.9293 57.116C72.9293 55.218 73.3115 53.603 74.0424 52.2408L72.2801 51.2952C71.3684 52.9943 70.9293 54.9447 70.9293 57.116H72.9293ZM74.0379 52.2491C74.7864 50.8852 75.8345 49.8371 77.1983 49.0887L76.2362 47.3353C74.5387 48.2669 73.2161 49.5894 72.2846 51.2869L74.0379 52.2491ZM77.2065 49.0841C78.5615 48.324 80.1971 47.924 82.1493 47.924V45.924C79.92 45.924 77.9343 46.3827 76.228 47.3399L77.2065 49.0841ZM82.1493 47.924C84.1218 47.924 85.7662 48.3247 87.12 49.0841L88.0985 47.3399C86.3909 46.382 84.3954 45.924 82.1493 45.924V47.924ZM87.1282 49.0887C88.492 49.8371 89.5401 50.8852 90.2886 52.2491L92.0419 51.2869C91.1104 49.5894 89.7878 48.2669 88.0903 47.3353L87.1282 49.0887ZM90.2886 52.2491C91.0352 53.6096 91.4253 55.2216 91.4253 57.116H93.4253C93.4253 54.9411 92.9753 52.9877 92.0419 51.2869L90.2886 52.2491ZM91.4253 57.116C91.4253 59.0104 91.0352 60.6224 90.2886 61.9829L92.0419 62.9451C92.9753 61.2443 93.4253 59.2909 93.4253 57.116H91.4253ZM90.2886 61.9829C89.5391 63.3486 88.4884 64.4082 87.12 65.1759L88.0985 66.9201C89.7915 65.9704 91.1114 64.6407 92.0419 62.9451L90.2886 61.9829ZM87.12 65.1759C85.7662 65.9353 84.1218 66.336 82.1493 66.336V68.336C84.3954 68.336 86.3909 67.878 88.0985 66.9201L87.12 65.1759ZM82.1493 63.324C83.7437 63.324 85.0772 62.7639 85.9388 61.5221L84.2957 60.3819C83.888 60.9695 83.2428 61.324 82.1493 61.324V63.324ZM85.9365 61.5255C86.7479 60.3664 87.0973 58.8612 87.0973 57.116H85.0973C85.0973 58.6188 84.7933 59.671 84.298 60.3785L85.9365 61.5255ZM87.0973 57.116C87.0973 55.3725 86.7485 53.8713 85.931 52.7268L84.3035 53.8892C84.7926 54.574 85.0973 55.6115 85.0973 57.116H87.0973ZM85.9388 52.7379C85.0772 51.4961 83.7437 50.936 82.1493 50.936V52.936C83.2428 52.936 83.888 53.2905 84.2957 53.8781L85.9388 52.7379ZM82.1493 50.936C80.5548 50.936 79.2213 51.4961 78.3597 52.7379L80.0028 53.8781C80.4105 53.2905 81.0557 52.936 82.1493 52.936V50.936ZM78.3572 52.7415C77.5818 53.8693 77.2572 55.368 77.2572 57.116H79.2572C79.2572 55.5786 79.5487 54.5387 80.0053 53.8745L78.3572 52.7415ZM77.2572 57.116C77.2572 58.8659 77.5825 60.3684 78.3518 61.5106L80.0107 60.3934C79.548 59.7063 79.2572 58.6514 79.2572 57.116H77.2572ZM78.3597 61.5221C79.2213 62.7639 80.5548 63.324 82.1493 63.324V61.324C81.0557 61.324 80.4105 60.9695 80.0028 60.3819L78.3597 61.5221ZM93.2911 72.04H92.2911V73.04H93.2911V72.04ZM93.2911 62.464V61.464H92.2911V62.464H93.2911ZM95.3631 62.464V63.464H95.8422L96.1424 63.0906L95.3631 62.464ZM97.6591 47.26V46.26H96.6591V47.26H97.6591ZM113.563 47.26H114.563V46.26H113.563V47.26ZM113.563 62.464H112.563V63.464H113.563V62.464ZM116.447 62.464H117.447V61.464H116.447V62.464ZM116.447 72.04V73.04H117.447V72.04H116.447ZM111.295 72.04H110.295V73.04H111.295V72.04ZM111.295 67H112.295V66H111.295V67ZM98.4431 67V66H97.4431V67H98.4431ZM98.4431 72.04V73.04H99.4431V72.04H98.4431ZM101.271 62.464L100.421 61.9368L99.4739 63.464H101.271V62.464ZM107.571 62.464V63.464H108.571V62.464H107.571ZM107.571 51.796H108.571V50.796H107.571V51.796ZM103.147 51.796V50.796H102.147V51.796H103.147ZM94.2911 72.04V62.464H92.2911V72.04H94.2911ZM93.2911 63.464H95.3631V61.464H93.2911V63.464ZM96.1424 63.0906C97.8985 60.9062 98.6591 57.3027 98.6591 52.552H96.6591C96.6591 57.2093 95.889 60.2138 94.5837 61.8374L96.1424 63.0906ZM98.6591 52.552V47.26H96.6591V52.552H98.6591ZM97.6591 48.26H113.563V46.26H97.6591V48.26ZM112.563 47.26V62.464H114.563V47.26H112.563ZM113.563 63.464H116.447V61.464H113.563V63.464ZM115.447 62.464V72.04H117.447V62.464H115.447ZM116.447 71.04H111.295V73.04H116.447V71.04ZM112.295 72.04V67H110.295V72.04H112.295ZM111.295 66H98.4431V68H111.295V66ZM97.4431 67V72.04H99.4431V67H97.4431ZM98.4431 71.04H93.2911V73.04H98.4431V71.04ZM101.271 63.464H107.571V61.464H101.271V63.464ZM108.571 62.464V51.796H106.571V62.464H108.571ZM107.571 50.796H103.147V52.796H107.571V50.796ZM102.147 51.796V53.224H104.147V51.796H102.147ZM102.147 53.224C102.147 57.3033 101.525 60.1578 100.421 61.9368L102.121 62.9912C103.518 60.7382 104.147 57.4327 104.147 53.224H102.147ZM118.698 67H117.698V68H118.698V67ZM118.698 47.26V46.26H117.698V47.26H118.698ZM133.342 47.26H134.342V46.26H133.342V47.26ZM133.342 51.852V52.852H134.342V51.852H133.342ZM124.466 51.852V50.852H123.466V51.852H124.466ZM124.466 54.68H123.466V55.68H124.466V54.68ZM132.67 54.68H133.67V53.68H132.67V54.68ZM132.67 59.272V60.272H133.67V59.272H132.67ZM124.466 59.272V58.272H123.466V59.272H124.466ZM124.466 62.408H123.466V63.408H124.466V62.408ZM133.342 62.408H134.342V61.408H133.342V62.408ZM133.342 67V68H134.342V67H133.342ZM127.406 45.72H126.406V46.72H127.406V45.72ZM127.406 40.988V39.988H126.406V40.988H127.406ZM132.11 40.988H133.11V39.988H132.11V40.988ZM132.11 45.72V46.72H133.11V45.72H132.11ZM121.358 45.72H120.358V46.72H121.358V45.72ZM121.358 40.988V39.988H120.358V40.988H121.358ZM126.062 40.988H127.062V39.988H126.062V40.988ZM126.062 45.72V46.72H127.062V45.72H126.062ZM119.698 67V47.26H117.698V67H119.698ZM118.698 48.26H133.342V46.26H118.698V48.26ZM132.342 47.26V51.852H134.342V47.26H132.342ZM133.342 50.852H124.466V52.852H133.342V50.852ZM123.466 51.852V54.68H125.466V51.852H123.466ZM124.466 55.68H132.67V53.68H124.466V55.68ZM131.67 54.68V59.272H133.67V54.68H131.67ZM132.67 58.272H124.466V60.272H132.67V58.272ZM123.466 59.272V62.408H125.466V59.272H123.466ZM124.466 63.408H133.342V61.408H124.466V63.408ZM132.342 62.408V67H134.342V62.408H132.342ZM133.342 66H118.698V68H133.342V66ZM128.406 45.72V40.988H126.406V45.72H128.406ZM127.406 41.988H132.11V39.988H127.406V41.988ZM131.11 40.988V45.72H133.11V40.988H131.11ZM132.11 44.72H127.406V46.72H132.11V44.72ZM122.358 45.72V40.988H120.358V45.72H122.358ZM121.358 41.988H126.062V39.988H121.358V41.988ZM125.062 40.988V45.72H127.062V40.988H125.062ZM126.062 44.72H121.358V46.72H126.062V44.72ZM133.857 67L132.963 66.5528L132.239 68H133.857V67ZM137.525 59.664L136.631 59.2168L137.525 59.664ZM138.869 57.564L138.115 56.9072L138.109 56.9142L138.103 56.9214L138.869 57.564ZM140.577 56.136L141.084 56.9979L141.984 56.469L141.417 55.593L140.577 56.136ZM134.837 47.26V46.26H133L133.998 47.803L134.837 47.26ZM141.361 47.26L142.217 46.7427L141.925 46.26H141.361V47.26ZM145.981 54.904L145.126 55.4213L145.417 55.904H145.981V54.904ZM146.961 54.904V55.904H147.961V54.904H146.961ZM146.961 47.26V46.26H145.961V47.26H146.961ZM152.701 47.26H153.701V46.26H152.701V47.26ZM152.701 54.904H151.701V55.904H152.701V54.904ZM153.709 54.904V55.904H154.277L154.568 55.4166L153.709 54.904ZM158.273 47.26V46.26H157.706L157.415 46.7474L158.273 47.26ZM164.797 47.26L165.637 47.803L166.635 46.26H164.797V47.26ZM159.057 56.136L158.218 55.593L157.644 56.4801L158.561 57.0042L159.057 56.136ZM160.765 57.592L159.989 58.2226L160 58.2359L160.011 58.2488L160.765 57.592ZM162.137 59.664L163.033 59.2195L163.028 59.2085L162.137 59.664ZM165.777 67V68H167.39L166.673 66.5555L165.777 67ZM159.309 67L158.403 67.4229L158.673 68H159.309V67ZM156.761 61.54L155.852 61.9558L155.855 61.9629L156.761 61.54ZM155.613 60.14L155.099 60.9975V60.9975L155.613 60.14ZM152.701 59.72V58.72H151.701V59.72H152.701ZM152.701 67V68H153.701V67H152.701ZM146.961 67H145.961V68H146.961V67ZM146.961 59.72H147.961V58.72H146.961V59.72ZM144.077 60.14L143.563 59.2825L144.077 60.14ZM142.901 61.54L142.002 61.1031L141.997 61.1133L142.901 61.54ZM140.325 67V68H140.959L141.23 67.4267L140.325 67ZM134.752 67.4472L138.42 60.1112L136.631 59.2168L132.963 66.5528L134.752 67.4472ZM138.42 60.1112C138.803 59.3454 139.21 58.7142 139.636 58.2066L138.103 56.9214C137.558 57.5712 137.069 58.34 136.631 59.2168L138.42 60.1112ZM139.623 58.2208C140.06 57.7199 140.546 57.3144 141.084 56.9979L140.07 55.2741C139.339 55.7043 138.687 56.2508 138.115 56.9072L139.623 58.2208ZM141.417 55.593L135.677 46.717L133.998 47.803L139.738 56.679L141.417 55.593ZM134.837 48.26H141.361V46.26H134.837V48.26ZM140.506 47.7773L145.126 55.4213L146.837 54.3867L142.217 46.7427L140.506 47.7773ZM145.981 55.904H146.961V53.904H145.981V55.904ZM147.961 54.904V47.26H145.961V54.904H147.961ZM146.961 48.26H152.701V46.26H146.961V48.26ZM151.701 47.26V54.904H153.701V47.26H151.701ZM152.701 55.904H153.709V53.904H152.701V55.904ZM154.568 55.4166L159.132 47.7726L157.415 46.7474L152.851 54.3914L154.568 55.4166ZM158.273 48.26H164.797V46.26H158.273V48.26ZM163.958 46.717L158.218 55.593L159.897 56.679L165.637 47.803L163.958 46.717ZM158.561 57.0042C159.105 57.3149 159.58 57.7188 159.989 58.2226L161.541 56.9614C160.98 56.2705 160.317 55.7038 159.554 55.2678L158.561 57.0042ZM160.011 58.2488C160.454 58.7566 160.867 59.3769 161.247 60.1195L163.028 59.2085C162.586 58.3457 162.085 57.5848 161.519 56.9352L160.011 58.2488ZM161.242 60.1085L164.882 67.4445L166.673 66.5555L163.033 59.2195L161.242 60.1085ZM165.777 66H159.309V68H165.777V66ZM160.216 66.5771L157.668 61.1171L155.855 61.9629L158.403 67.4229L160.216 66.5771ZM157.671 61.1242C157.315 60.3452 156.815 59.6951 156.128 59.2825L155.099 60.9975C155.345 61.1449 155.611 61.4282 155.852 61.9558L157.671 61.1242ZM156.128 59.2825C155.446 58.8734 154.598 58.72 153.681 58.72V60.72C154.407 60.72 154.847 60.8466 155.099 60.9975L156.128 59.2825ZM153.681 58.72H152.701V60.72H153.681V58.72ZM151.701 59.72V67H153.701V59.72H151.701ZM152.701 66H146.961V68H152.701V66ZM147.961 67V59.72H145.961V67H147.961ZM146.961 58.72H145.981V60.72H146.961V58.72ZM145.981 58.72C145.078 58.72 144.242 58.8751 143.563 59.2825L144.592 60.9975C144.846 60.8449 145.279 60.72 145.981 60.72V58.72ZM143.563 59.2825C142.883 59.6907 142.376 60.3323 142.002 61.1031L143.801 61.9769C144.061 61.441 144.339 61.1493 144.592 60.9975L143.563 59.2825ZM141.997 61.1133L139.421 66.5733L141.23 67.4267L143.806 61.9667L141.997 61.1133ZM140.325 66H133.857V68H140.325V66ZM167.151 67H166.151V68H167.151V67ZM167.151 47.26V46.26H166.151V47.26H167.151ZM173.143 47.26H174.143V46.26H173.143V47.26ZM173.143 54.652H172.143V55.652H173.143V54.652ZM182.943 56.276L182.3 57.0415L182.306 57.047L182.943 56.276ZM182.943 65.404L183.58 66.175L183.587 66.1695L182.943 65.404ZM173.143 62.548H172.143V63.548H173.143V62.548ZM178.659 62.128L179.279 62.9129L179.284 62.9089L178.659 62.128ZM178.659 59.524L178.04 60.3089L178.049 60.3166L178.059 60.324L178.659 59.524ZM173.143 59.104V58.104H172.143V59.104H173.143ZM168.151 67V47.26H166.151V67H168.151ZM167.151 48.26H173.143V46.26H167.151V48.26ZM172.143 47.26V54.652H174.143V47.26H172.143ZM173.143 55.652H177.679V53.652H173.143V55.652ZM177.679 55.652C179.741 55.652 181.243 56.153 182.3 57.0415L183.587 55.5105C182.068 54.2337 180.06 53.652 177.679 53.652V55.652ZM182.306 57.047C183.324 57.8872 183.875 59.0928 183.875 60.812H185.875C185.875 58.6112 185.139 56.7928 183.58 55.505L182.306 57.047ZM183.875 60.812C183.875 62.553 183.321 63.78 182.3 64.6385L183.587 66.1695C185.142 64.8626 185.875 63.0284 185.875 60.812H183.875ZM182.306 64.633C181.249 65.5064 179.745 66 177.679 66V68C180.056 68 182.061 67.4296 183.58 66.175L182.306 64.633ZM177.679 66H167.151V68H177.679V66ZM173.143 63.548H176.839V61.548H173.143V63.548ZM176.839 63.548C177.748 63.548 178.648 63.4114 179.279 62.9129L178.04 61.3431C177.962 61.4046 177.648 61.548 176.839 61.548V63.548ZM179.284 62.9089C179.945 62.3802 180.219 61.6236 180.219 60.812H178.219C178.219 61.1577 178.12 61.2785 178.035 61.3471L179.284 62.9089ZM180.219 60.812C180.219 60.0026 179.945 59.2381 179.259 58.724L178.059 60.324C178.12 60.3699 178.219 60.4641 178.219 60.812H180.219ZM179.279 58.7391C178.648 58.2406 177.748 58.104 176.839 58.104V60.104C177.648 60.104 177.962 60.2474 178.04 60.3089L179.279 58.7391ZM176.839 58.104H173.143V60.104H176.839V58.104ZM172.143 59.104V62.548H174.143V59.104H172.143ZM200.017 66.076L199.545 66.9579L199.557 66.9642L200.017 66.076ZM196.265 62.492L195.397 62.9893L195.402 62.9972L196.265 62.492ZM196.265 51.768L195.402 51.2628L195.4 51.2661L196.265 51.768ZM200.017 48.212L200.48 49.098L200.484 49.096L200.017 48.212ZM209.453 47.456L209.151 48.4093L209.16 48.4123L209.17 48.4151L209.453 47.456ZM212.281 48.912L213.218 49.2613L213.463 48.6042L212.928 48.1501L212.281 48.912ZM210.517 53.644L209.962 54.476L211.013 55.1765L211.454 53.9933L210.517 53.644ZM208.249 52.496L207.933 53.4447L207.945 53.4487L207.957 53.4524L208.249 52.496ZM202.481 53.448L201.758 52.7568L201.758 52.7571L202.481 53.448ZM202.481 60.84L201.75 61.5229L201.758 61.5311L201.766 61.5391L202.481 60.84ZM208.249 61.792L208.541 62.7484L208.553 62.7447L208.565 62.7407L208.249 61.792ZM210.517 60.616L211.454 60.2667L211.013 59.0835L209.962 59.7839L210.517 60.616ZM212.281 65.348L212.928 66.1099L213.463 65.6558L213.218 64.9987L212.281 65.348ZM209.453 66.832L209.74 67.7899L209.75 67.7868L209.453 66.832ZM205.757 66.336C203.682 66.336 201.932 65.9408 200.476 65.1878L199.557 66.9642C201.35 67.8912 203.427 68.336 205.757 68.336V66.336ZM200.488 65.1942C199.041 64.4202 197.928 63.3539 197.128 61.9868L195.402 62.9972C196.394 64.6915 197.782 66.0145 199.545 66.9578L200.488 65.1942ZM197.132 61.9947C196.355 60.6386 195.949 59.0237 195.949 57.116H193.949C193.949 59.3149 194.42 61.284 195.397 62.9893L197.132 61.9947ZM195.949 57.116C195.949 55.2079 196.355 53.6046 197.13 52.2699L195.4 51.2661C194.42 52.9554 193.949 54.9174 193.949 57.116H195.949ZM197.128 52.2732C197.927 50.9081 199.038 49.853 200.48 49.098L199.553 47.326C197.785 48.251 196.395 49.5666 195.402 51.2628L197.128 52.2732ZM200.484 49.096C201.938 48.3273 203.685 47.924 205.757 47.924V45.924C203.423 45.924 201.343 46.3794 199.549 47.328L200.484 49.096ZM205.757 47.924C207.013 47.924 208.141 48.0897 209.151 48.4093L209.755 46.5027C208.524 46.113 207.189 45.924 205.757 45.924V47.924ZM209.17 48.4151C210.202 48.7198 211.013 49.1468 211.633 49.6739L212.928 48.1501C212.055 47.4079 210.981 46.8642 209.736 46.4969L209.17 48.4151ZM211.344 48.5627L209.58 53.2947L211.454 53.9933L213.218 49.2613L211.344 48.5627ZM211.071 52.8119C210.183 52.2194 209.337 51.7828 208.541 51.5396L207.957 53.4524C208.505 53.6198 209.171 53.9486 209.962 54.476L211.071 52.8119ZM208.565 51.5473C207.774 51.2837 206.909 51.16 205.981 51.16V53.16C206.733 53.16 207.379 53.2603 207.933 53.4447L208.565 51.5473ZM205.981 51.16C204.274 51.16 202.816 51.6505 201.758 52.7568L203.203 54.1392C203.788 53.5282 204.663 53.16 205.981 53.16V51.16ZM201.758 52.7571C200.719 53.8445 200.277 55.3528 200.277 57.116H202.277C202.277 55.6685 202.637 54.7315 203.204 54.1389L201.758 52.7571ZM200.277 57.116C200.277 58.8959 200.718 60.4182 201.75 61.5229L203.211 60.1571C202.639 59.5445 202.277 58.5841 202.277 57.116H200.277ZM201.766 61.5391C202.825 62.6227 204.281 63.1 205.981 63.1V61.1C204.657 61.1 203.779 60.7373 203.196 60.1409L201.766 61.5391ZM205.981 63.1C206.901 63.1 207.758 62.9876 208.541 62.7484L207.957 60.8356C207.396 61.007 206.74 61.1 205.981 61.1V63.1ZM208.565 62.7407C209.349 62.4795 210.186 62.0383 211.071 61.448L209.962 59.7839C209.167 60.3137 208.493 60.6565 207.933 60.8433L208.565 62.7407ZM209.58 60.9653L211.344 65.6973L213.218 64.9987L211.454 60.2667L209.58 60.9653ZM211.633 64.5861C211.009 65.1168 210.193 65.5541 209.155 65.8772L209.75 67.7868C210.99 67.4005 212.059 66.8485 212.928 66.1099L211.633 64.5861ZM209.165 65.8742C208.151 66.1784 207.018 66.336 205.757 66.336V68.336C207.184 68.336 208.514 68.1576 209.74 67.7898L209.165 65.8742ZM218.743 67H217.743V68H218.743V67ZM218.743 52.132H219.743V51.132H218.743V52.132ZM213.031 52.132H212.031V53.132H213.031V52.132ZM213.031 47.26V46.26H212.031V47.26H213.031ZM230.503 47.26H231.503V46.26H230.503V47.26ZM230.503 52.132V53.132H231.503V52.132H230.503ZM224.791 52.132V51.132H223.791V52.132H224.791ZM224.791 67V68H225.791V67H224.791ZM219.743 67V52.132H217.743V67H219.743ZM218.743 51.132H213.031V53.132H218.743V51.132ZM214.031 52.132V47.26H212.031V52.132H214.031ZM213.031 48.26H230.503V46.26H213.031V48.26ZM229.503 47.26V52.132H231.503V47.26H229.503ZM230.503 51.132H224.791V53.132H230.503V51.132ZM223.791 52.132V67H225.791V52.132H223.791ZM224.791 66H218.743V68H224.791V66ZM232.476 67H231.476V68H232.476V67ZM232.476 47.26V46.26H231.476V47.26H232.476ZM247.932 48.996L247.23 49.7088L247.236 49.7144L247.932 48.996ZM247.932 58.236L247.23 57.5233L247.932 58.236ZM238.524 59.972V58.972H237.524V59.972H238.524ZM238.524 67V68H239.524V67H238.524ZM238.524 55.38H237.524V56.38H238.524V55.38ZM238.524 51.852V50.852H237.524V51.852H238.524ZM233.476 67V47.26H231.476V67H233.476ZM232.476 48.26H242.668V46.26H232.476V48.26ZM242.668 48.26C244.848 48.26 246.307 48.8003 247.23 49.7087L248.633 48.2833C247.204 46.8771 245.154 46.26 242.668 46.26V48.26ZM247.236 49.7144C248.182 50.63 248.696 51.8911 248.696 53.616H250.696C250.696 51.4582 250.034 49.6394 248.627 48.2776L247.236 49.7144ZM248.696 53.616C248.696 55.3186 248.183 56.5851 247.23 57.5233L248.633 58.9487C250.032 57.5723 250.696 55.7587 250.696 53.616H248.696ZM247.23 57.5233C246.307 58.4317 244.848 58.972 242.668 58.972V60.972C245.154 60.972 247.204 60.3549 248.633 58.9487L247.23 57.5233ZM242.668 58.972H238.524V60.972H242.668V58.972ZM237.524 59.972V67H239.524V59.972H237.524ZM238.524 66H232.476V68H238.524V66ZM238.524 56.38H241.856V54.38H238.524V56.38ZM241.856 56.38C242.665 56.38 243.458 56.2112 244.058 55.7004C244.689 55.1634 244.928 54.404 244.928 53.616H242.928C242.928 54.004 242.821 54.1266 242.761 54.1776C242.671 54.2548 242.428 54.38 241.856 54.38V56.38ZM244.928 53.616C244.928 52.828 244.689 52.0686 244.058 51.5316C243.458 51.0208 242.665 50.852 241.856 50.852V52.852C242.428 52.852 242.671 52.9772 242.761 53.0544C242.821 53.1054 242.928 53.228 242.928 53.616H244.928ZM241.856 50.852H238.524V52.852H241.856V50.852ZM237.524 51.852V55.38H239.524V51.852H237.524ZM247.236 67L246.332 66.5708L245.653 68H247.236V67ZM256.615 47.26V46.26H255.984L255.712 46.8308L256.615 47.26ZM261.516 47.26L262.418 46.8287L262.146 46.26H261.516V47.26ZM270.952 67V68H272.538L271.854 66.5687L270.952 67ZM264.904 67L263.989 67.4048L264.253 68H264.904V67ZM263.28 63.332L264.194 62.9272L263.93 62.332H263.28V63.332ZM254.88 63.332V62.332H254.229L253.965 62.9272L254.88 63.332ZM253.255 67V68H253.906L254.17 67.4048L253.255 67ZM259.052 53.42V52.42H258.386L258.129 53.0337L259.052 53.42ZM256.812 58.768L255.889 58.3817L255.308 59.768H256.812V58.768ZM261.431 58.768V59.768H262.935L262.354 58.3817L261.431 58.768ZM259.191 53.42L260.114 53.0337L259.857 52.42H259.191V53.42ZM248.139 67.4292L257.519 47.6892L255.712 46.8308L246.332 66.5708L248.139 67.4292ZM256.615 48.26H261.516V46.26H256.615V48.26ZM260.613 47.6913L270.049 67.4313L271.854 66.5687L262.418 46.8287L260.613 47.6913ZM270.952 66H264.904V68H270.952V66ZM265.818 66.5952L264.194 62.9272L262.365 63.7368L263.989 67.4048L265.818 66.5952ZM263.28 62.332H254.88V64.332H263.28V62.332ZM253.965 62.9272L252.341 66.5952L254.17 67.4048L255.794 63.7368L253.965 62.9272ZM253.255 66H247.236V68H253.255V66ZM258.129 53.0337L255.889 58.3817L257.734 59.1543L259.974 53.8063L258.129 53.0337ZM256.812 59.768H261.431V57.768H256.812V59.768ZM262.354 58.3817L260.114 53.0337L258.269 53.8063L260.509 59.1543L262.354 58.3817ZM259.191 52.42H259.052V54.42H259.191V52.42ZM271.632 67H270.632V68H271.632V67ZM271.632 47.26V46.26H270.632V47.26H271.632ZM277.68 47.26H278.68V46.26H277.68V47.26ZM277.68 54.54H276.68V55.54H277.68V54.54ZM284.428 54.54V55.54H285.428V54.54H284.428ZM284.428 47.26V46.26H283.428V47.26H284.428ZM290.476 47.26H291.476V46.26H290.476V47.26ZM290.476 67V68H291.476V67H290.476ZM284.428 67H283.428V68H284.428V67ZM284.428 59.468H285.428V58.468H284.428V59.468ZM277.68 59.468V58.468H276.68V59.468H277.68ZM277.68 67V68H278.68V67H277.68ZM272.632 67V47.26H270.632V67H272.632ZM271.632 48.26H277.68V46.26H271.632V48.26ZM276.68 47.26V54.54H278.68V47.26H276.68ZM277.68 55.54H284.428V53.54H277.68V55.54ZM285.428 54.54V47.26H283.428V54.54H285.428ZM284.428 48.26H290.476V46.26H284.428V48.26ZM289.476 47.26V67H291.476V47.26H289.476ZM290.476 66H284.428V68H290.476V66ZM285.428 67V59.468H283.428V67H285.428ZM284.428 58.468H277.68V60.468H284.428V58.468ZM276.68 59.468V67H278.68V59.468H276.68ZM277.68 66H271.632V68H277.68V66ZM293.726 67H292.726V68H293.726V67ZM293.726 47.26V46.26H292.726V47.26H293.726ZM299.718 47.26H300.718V46.26H299.718V47.26ZM299.718 54.652H298.718V55.652H299.718V54.652ZM308.65 56.276L308.006 57.0415L308.013 57.047L308.65 56.276ZM308.65 65.404L309.286 66.175L309.293 66.1695L308.65 65.404ZM312.654 67H311.654V68H312.654V67ZM312.654 47.26V46.26H311.654V47.26H312.654ZM318.646 47.26H319.646V46.26H318.646V47.26ZM318.646 67V68H319.646V67H318.646ZM299.718 62.548H298.718V63.548H299.718V62.548ZM304.366 62.128L304.985 62.9129L304.99 62.9089L304.366 62.128ZM304.366 59.524L303.721 60.2889L303.743 60.3071L303.766 60.324L304.366 59.524ZM299.718 59.076V58.076H298.718V59.076H299.718ZM294.726 67V47.26H292.726V67H294.726ZM293.726 48.26H299.718V46.26H293.726V48.26ZM298.718 47.26V54.652H300.718V47.26H298.718ZM299.718 55.652H303.386V53.652H299.718V55.652ZM303.386 55.652C305.448 55.652 306.949 56.153 308.006 57.0415L309.293 55.5105C307.774 54.2337 305.766 53.652 303.386 53.652V55.652ZM308.013 57.047C309.03 57.8872 309.582 59.0928 309.582 60.812H311.582C311.582 58.6112 310.845 56.7928 309.286 55.505L308.013 57.047ZM309.582 60.812C309.582 62.553 309.027 63.78 308.006 64.6385L309.293 66.1695C310.848 64.8626 311.582 63.0284 311.582 60.812H309.582ZM308.013 64.633C306.956 65.5064 305.452 66 303.386 66V68C305.762 68 307.768 67.4296 309.286 66.175L308.013 64.633ZM303.386 66H293.726V68H303.386V66ZM313.654 67V47.26H311.654V67H313.654ZM312.654 48.26H318.646V46.26H312.654V48.26ZM317.646 47.26V67H319.646V47.26H317.646ZM318.646 66H312.654V68H318.646V66ZM299.718 63.548H302.546V61.548H299.718V63.548ZM302.546 63.548C303.454 63.548 304.354 63.4114 304.985 62.9129L303.746 61.3431C303.668 61.4046 303.354 61.548 302.546 61.548V63.548ZM304.99 62.9089C305.651 62.3802 305.926 61.6236 305.926 60.812H303.926C303.926 61.1577 303.827 61.2785 303.741 61.3471L304.99 62.9089ZM305.926 60.812C305.926 60.0026 305.651 59.2381 304.966 58.724L303.766 60.324C303.827 60.3699 303.926 60.4641 303.926 60.812H305.926ZM305.01 58.7591C304.375 58.2243 303.463 58.076 302.546 58.076V60.076C303.345 60.076 303.647 60.2264 303.721 60.2889L305.01 58.7591ZM302.546 58.076H299.718V60.076H302.546V58.076ZM298.718 59.076V62.548H300.718V59.076H298.718Z" fill="white" mask="url(#path-2-outside-1_3427_4491)"/>
<path d="M3.9868 112L6.20725 107.716L0.27295 98.1467H4.71385L8.21155 103.963L11.1984 98.1467H15.541L8.3491 112H3.9868ZM16.0904 112V98.1467H20.3348V103.256H25.0705V98.1467H29.3149V112H25.0705V106.714H20.3348V112H16.0904ZM31.5955 112V98.1467H35.5255V105.339L41.3812 98.1467H44.4663V112H40.5363V104.808L34.6806 112H31.5955ZM46.7552 112V98.1467H50.9603V103.511H52.1L55.3226 98.1467H59.901L55.8728 104.376C56.3313 104.638 56.7308 104.972 57.0714 105.378C57.4251 105.784 57.7461 106.275 58.0343 106.852L60.5888 112H56.03L54.2615 108.168C54.0519 107.71 53.7768 107.382 53.4362 107.186C53.1087 106.989 52.6567 106.891 52.0803 106.891H50.9603V112H46.7552ZM59.5506 112L66.1333 98.1467H69.5721L76.1941 112H71.9497L70.81 109.426H64.915L63.7753 112H59.5506ZM67.8429 102.47L66.2709 106.223H69.5131L67.9411 102.47H67.8429ZM77.8112 112.393L75.689 109.445C76.4357 109 77.0318 108.476 77.4772 107.873C77.9357 107.271 78.2632 106.531 78.4597 105.653C78.6562 104.775 78.7544 103.721 78.7544 102.489V98.1467H89.9353V112H85.7302V101.527H82.6255V103.531C82.6255 105.745 82.1932 107.598 81.3286 109.092C80.4771 110.585 79.3046 111.686 77.8112 112.393ZM92.215 112V98.1467H96.4201V103.334H99.6034C101.162 103.334 102.394 103.714 103.298 104.474C104.201 105.221 104.653 106.282 104.653 107.657C104.653 109.046 104.201 110.12 103.298 110.88C102.394 111.627 101.162 112 99.6034 112H92.215ZM96.4201 108.876H99.0139C99.6165 108.876 100.042 108.777 100.291 108.581C100.553 108.371 100.684 108.063 100.684 107.657C100.684 107.251 100.553 106.95 100.291 106.753C100.042 106.557 99.6165 106.459 99.0139 106.459H96.4201V108.876ZM106.204 112V98.1467H110.448V103.256H115.184V98.1467H119.429V112H115.184V106.714H110.448V112H106.204ZM121.709 112V98.1467H125.914V103.334H128.488C130.047 103.334 131.279 103.714 132.183 104.474C133.087 105.221 133.538 106.282 133.538 107.657C133.538 109.046 133.087 110.12 132.183 110.88C131.279 111.627 130.047 112 128.488 112H121.709ZM134.993 112V98.1467H139.198V112H134.993ZM125.914 108.876H127.899C128.502 108.876 128.927 108.777 129.176 108.581C129.438 108.371 129.569 108.063 129.569 107.657C129.569 107.251 129.438 106.95 129.176 106.753C128.927 106.544 128.502 106.439 127.899 106.439H125.914V108.876ZM141.474 112V98.1467H151.751V101.369H145.522V103.354H151.28V106.577H145.522V108.777H151.751V112H141.474ZM159.282 112V98.1467H163.487V103.511H164.627L167.85 98.1467H172.428L168.4 104.376C168.858 104.638 169.258 104.972 169.598 105.378C169.952 105.784 170.273 106.275 170.561 106.852L173.116 112H168.557L166.788 108.168C166.579 107.71 166.304 107.382 165.963 107.186C165.636 106.989 165.184 106.891 164.607 106.891H163.487V112H159.282ZM180.416 112.236C178.949 112.236 177.679 111.934 176.604 111.332C175.53 110.729 174.698 109.891 174.109 108.817C173.532 107.729 173.244 106.478 173.244 105.064C173.244 103.636 173.532 102.385 174.109 101.31C174.698 100.236 175.53 99.4043 176.604 98.8149C177.679 98.2123 178.949 97.911 180.416 97.911C181.897 97.911 183.174 98.2123 184.248 98.8149C185.322 99.4043 186.154 100.236 186.744 101.31C187.333 102.385 187.628 103.636 187.628 105.064C187.628 106.491 187.333 107.742 186.744 108.817C186.154 109.891 185.322 110.729 184.248 111.332C183.174 111.934 181.897 112.236 180.416 112.236ZM180.416 108.718C181.36 108.718 182.054 108.397 182.499 107.756C182.958 107.101 183.187 106.203 183.187 105.064C183.187 103.924 182.958 103.033 182.499 102.391C182.054 101.749 181.36 101.428 180.416 101.428C179.473 101.428 178.779 101.749 178.334 102.391C177.901 103.02 177.685 103.911 177.685 105.064C177.685 106.216 177.901 107.114 178.334 107.756C178.779 108.397 179.473 108.718 180.416 108.718ZM189.641 112V98.1467H193.335L197.206 106.812L201.078 98.1467H204.772V112H200.94V106.518L198.346 112H196.008L193.473 106.636V112H189.641ZM207.102 112V98.1467H220.248V112H216.043V101.527H211.307V112H207.102ZM222.531 112V98.1467H232.808V101.369H226.578V103.354H232.336V106.577H226.578V108.777H232.808V112H222.531ZM237.782 112V101.566H233.774V98.1467H246.035V101.566H242.027V112H237.782ZM247.419 112V98.1467H257.696V101.369H251.467V103.354H257.225V106.577H251.467V108.777H257.696V112H247.419ZM259.374 112V98.1467H263.619V103.256H268.354V98.1467H272.599V112H268.354V106.714H263.619V112H259.374ZM286.414 115.537V112H274.879V98.1467H279.084V108.62H283.82V98.1467H288.025V108.62H290.049V115.537H286.414ZM291.613 112V98.1467H295.543V105.339L301.398 98.1467H304.483V112H300.553V104.808L294.698 112H291.613ZM306.772 112V98.1467H310.702V105.339L316.558 98.1467H319.643V112H315.713V104.808L309.857 112H306.772Z" fill="white"/>
<mask id="path-5-outside-2_3427_4491" maskUnits="userSpaceOnUse" x="1" y="131" width="322" height="24" fill="black">
<rect fill="white" x="1" y="131" width="322" height="24"/>
<path d="M2.0353 150V137.416H13.977V150H10.1571V140.486H5.8552V150H2.0353ZM16.0503 150V137.416H22.5477C24.0352 137.416 25.1538 137.785 25.9035 138.522C26.6532 139.248 27.0281 140.23 27.0281 141.468C27.0281 142.693 26.6532 143.675 25.9035 144.413C25.1538 145.151 24.0352 145.52 22.5477 145.52H19.9059V150H16.0503ZM19.9059 142.592H22.0301C22.9107 142.592 23.351 142.217 23.351 141.468C23.351 140.718 22.9107 140.343 22.0301 140.343H19.9059V142.592ZM28.4442 150V137.416H37.7798V140.343H32.1213V142.146H37.3514V145.073H32.1213V147.073H37.7798V150H28.4442ZM38.4295 153.213V147.108H39.7504C40.7262 145.894 41.2141 143.788 41.2141 140.789V137.416H51.3529V147.108H53.1914V153.213H49.907V150H41.7139V153.213H38.4295ZM43.5167 147.108H47.533V140.307H44.7127V141.218C44.7127 143.86 44.314 145.823 43.5167 147.108ZM61.2132 150.214C59.809 150.214 58.5893 149.946 57.554 149.411C56.5306 148.864 55.7333 148.102 55.1621 147.126C54.6028 146.15 54.3231 145.008 54.3231 143.699C54.3231 142.39 54.6028 141.253 55.1621 140.29C55.7333 139.314 56.5306 138.558 57.554 138.023C58.5893 137.475 59.809 137.202 61.2132 137.202C62.07 137.202 62.8554 137.315 63.5694 137.541C64.2953 137.755 64.8963 138.064 65.3723 138.469L64.2477 141.486C63.7122 141.129 63.2303 140.885 62.8019 140.754C62.3735 140.611 61.8915 140.539 61.356 140.539C60.3921 140.539 59.6484 140.813 59.1248 141.361C58.6131 141.896 58.3572 142.676 58.3572 143.699C58.3572 144.734 58.6131 145.526 59.1248 146.073C59.6484 146.608 60.3921 146.876 61.356 146.876C61.8915 146.876 62.3735 146.811 62.8019 146.68C63.2303 146.537 63.7122 146.287 64.2477 145.93L65.3723 148.947C64.8963 149.351 64.2953 149.667 63.5694 149.893C62.8554 150.107 62.07 150.214 61.2132 150.214ZM69.4921 150V140.522H65.8507V137.416H76.9891V140.522H73.3477V150H69.4921ZM75.0005 150L80.9803 137.416H84.104L90.1195 150H86.2639L85.2286 147.662H79.8736L78.8383 150H75.0005ZM82.5332 141.343L81.1052 144.752H84.0505L82.6225 141.343H82.5332ZM90.5532 150V137.416H96.997C98.4131 137.416 99.502 137.713 100.264 138.308C101.037 138.891 101.424 139.677 101.424 140.664C101.424 141.307 101.257 141.872 100.924 142.36C100.603 142.836 100.151 143.193 99.5674 143.431C100.293 143.657 100.847 144.026 101.227 144.538C101.608 145.038 101.799 145.656 101.799 146.394C101.799 147.489 101.382 148.364 100.549 149.018C99.7162 149.673 98.5916 150 97.1755 150H90.5532ZM94.2303 142.217H96.2652C96.7888 142.217 97.1636 142.14 97.3897 141.985C97.6277 141.819 97.7467 141.557 97.7467 141.2C97.7467 140.843 97.6277 140.587 97.3897 140.432C97.1636 140.278 96.7888 140.2 96.2652 140.2H94.2303V142.217ZM94.2303 147.215H96.6579C97.6575 147.215 98.1573 146.846 98.1573 146.109C98.1573 145.371 97.6575 145.002 96.6579 145.002H94.2303V147.215ZM103.191 150V137.416H106.761V143.949L112.08 137.416H114.883V150H111.313V143.467L105.994 150H103.191ZM119.782 150V140.522H116.141V137.416H127.279V140.522H123.638V150H119.782ZM128.537 150V137.416H137.872V140.343H132.214V142.146H137.444V145.073H132.214V147.073H137.872V150H128.537ZM140.432 150.357L138.504 147.679C139.182 147.275 139.724 146.799 140.128 146.251C140.545 145.704 140.842 145.032 141.021 144.234C141.199 143.437 141.289 142.479 141.289 141.361V137.416H151.445V150H147.625V140.486H144.805V142.307C144.805 144.318 144.412 146.002 143.627 147.358C142.854 148.715 141.789 149.714 140.432 150.357ZM153.516 150V137.416H162.852V140.343H157.193V142.146H162.423V145.073H157.193V147.073H162.852V150H153.516ZM164.376 150V137.416H167.946V143.949L173.265 137.416H176.068V150H172.498V143.467L167.179 150H164.376ZM170.195 136.434C169.35 136.434 168.648 136.309 168.089 136.059C167.53 135.797 167.101 135.458 166.804 135.042C166.518 134.613 166.34 134.155 166.268 133.667L167.964 133.132C168.166 133.667 168.44 134.048 168.785 134.274C169.142 134.5 169.624 134.613 170.231 134.613C170.85 134.613 171.332 134.482 171.677 134.221C172.034 133.959 172.278 133.602 172.409 133.15L174.051 133.667C173.908 134.465 173.503 135.125 172.837 135.649C172.183 136.172 171.302 136.434 170.195 136.434ZM183.464 150V137.416H187.284V142.289H188.319L191.246 137.416H195.405L191.746 143.074C192.163 143.312 192.526 143.616 192.835 143.985C193.156 144.353 193.448 144.8 193.71 145.323L196.03 150H191.889L190.283 146.519C190.092 146.103 189.842 145.805 189.533 145.627C189.235 145.448 188.825 145.359 188.301 145.359H187.284V150H183.464ZM196.904 150V137.416H203.401C204.889 137.416 206.007 137.785 206.757 138.522C207.507 139.248 207.881 140.23 207.881 141.468C207.881 142.693 207.507 143.675 206.757 144.413C206.007 145.151 204.889 145.52 203.401 145.52H200.759V150H196.904ZM200.759 142.592H202.883C203.764 142.592 204.204 142.217 204.204 141.468C204.204 140.718 203.764 140.343 202.883 140.343H200.759V142.592ZM210.975 150L212.992 146.109L207.602 137.416H211.636L214.813 142.699L217.526 137.416H221.471L214.938 150H210.975ZM221.97 150V137.416H233.912V150H230.092V140.486H225.79V150H221.97ZM235.985 150V137.416H239.841V142.057H244.143V137.416H247.998V150H244.143V145.198H239.841V150H235.985ZM250.07 150V137.416H259.406V140.343H253.747V142.146H258.977V145.073H253.747V147.073H259.406V150H250.07ZM260.93 150V137.416H264.5V143.949L269.819 137.416H272.622V150H269.052V143.467L263.732 150H260.93ZM266.749 136.434C265.904 136.434 265.202 136.309 264.643 136.059C264.084 135.797 263.655 135.458 263.358 135.042C263.072 134.613 262.894 134.155 262.822 133.667L264.518 133.132C264.72 133.667 264.994 134.048 265.339 134.274C265.696 134.5 266.178 134.613 266.785 134.613C267.404 134.613 267.886 134.482 268.231 134.221C268.588 133.959 268.832 133.602 268.963 133.15L270.605 133.667C270.462 134.465 270.057 135.125 269.391 135.649C268.736 136.172 267.856 136.434 266.749 136.434ZM274.701 150V137.416H278.467V146.93H281.859V137.416H285.607V146.93H288.999V137.416H292.747V150H274.701ZM294.817 150V137.416H298.387V143.949L303.706 137.416H306.509V150H302.939V143.467L297.62 150H294.817ZM306.839 150L311.64 143.663L306.91 137.416H311.408L313.818 140.879L316.264 137.416H320.762L316.032 143.663L320.851 150H316.335L313.836 146.466L311.319 150H306.839Z"/>
</mask>
<path d="M2.0353 150H1.0353V151H2.0353V150ZM2.0353 137.416V136.416H1.0353V137.416H2.0353ZM13.977 137.416H14.977V136.416H13.977V137.416ZM13.977 150V151H14.977V150H13.977ZM10.1571 150H9.15705V151H10.1571V150ZM10.1571 140.486H11.1571V139.486H10.1571V140.486ZM5.8552 140.486V139.486H4.8552V140.486H5.8552ZM5.8552 150V151H6.8552V150H5.8552ZM3.0353 150V137.416H1.0353V150H3.0353ZM2.0353 138.416H13.977V136.416H2.0353V138.416ZM12.977 137.416V150H14.977V137.416H12.977ZM13.977 149H10.1571V151H13.977V149ZM11.1571 150V140.486H9.15705V150H11.1571ZM10.1571 139.486H5.8552V141.486H10.1571V139.486ZM4.8552 140.486V150H6.8552V140.486H4.8552ZM5.8552 149H2.0353V151H5.8552V149ZM16.0503 150H15.0503V151H16.0503V150ZM16.0503 137.416V136.416H15.0503V137.416H16.0503ZM25.9035 138.522L25.2021 139.235L25.2079 139.241L25.9035 138.522ZM25.9035 144.413L25.2021 143.7L25.9035 144.413ZM19.9059 145.52V144.52H18.9059V145.52H19.9059ZM19.9059 150V151H20.9059V150H19.9059ZM19.9059 142.592H18.9059V143.592H19.9059V142.592ZM19.9059 140.343V139.343H18.9059V140.343H19.9059ZM17.0503 150V137.416H15.0503V150H17.0503ZM16.0503 138.416H22.5477V136.416H16.0503V138.416ZM22.5477 138.416C23.8824 138.416 24.7053 138.746 25.2021 139.235L26.605 137.81C25.6024 136.823 24.1881 136.416 22.5477 136.416V138.416ZM25.2079 139.241C25.7272 139.744 26.0281 140.447 26.0281 141.468H28.0281C28.0281 140.014 27.5793 138.753 26.5992 137.804L25.2079 139.241ZM26.0281 141.468C26.0281 142.473 25.7291 143.182 25.2021 143.7L26.605 145.126C27.5773 144.169 28.0281 142.913 28.0281 141.468H26.0281ZM25.2021 143.7C24.7053 144.189 23.8824 144.52 22.5477 144.52V146.52C24.1881 146.52 25.6024 146.112 26.605 145.126L25.2021 143.7ZM22.5477 144.52H19.9059V146.52H22.5477V144.52ZM18.9059 145.52V150H20.9059V145.52H18.9059ZM19.9059 149H16.0503V151H19.9059V149ZM19.9059 143.592H22.0301V141.592H19.9059V143.592ZM22.0301 143.592C22.5887 143.592 23.1942 143.477 23.669 143.073C24.1746 142.642 24.351 142.043 24.351 141.468H22.351C22.351 141.559 22.3373 141.595 22.3373 141.595C22.3373 141.595 22.3375 141.595 22.3379 141.594C22.3383 141.593 22.339 141.591 22.3399 141.59C22.3417 141.586 22.3443 141.582 22.3478 141.577C22.3554 141.566 22.3642 141.557 22.3725 141.55C22.3902 141.535 22.3876 141.545 22.335 141.56C22.2796 141.576 22.1826 141.592 22.0301 141.592V143.592ZM24.351 141.468C24.351 140.893 24.1746 140.293 23.669 139.863C23.1942 139.459 22.5887 139.343 22.0301 139.343V141.343C22.1826 141.343 22.2796 141.36 22.335 141.375C22.3876 141.39 22.3902 141.401 22.3725 141.386C22.3642 141.379 22.3554 141.369 22.3478 141.358C22.3443 141.353 22.3417 141.349 22.3399 141.346C22.339 141.344 22.3383 141.343 22.3379 141.342C22.3375 141.341 22.3373 141.34 22.3373 141.34C22.3373 141.34 22.351 141.376 22.351 141.468H24.351ZM22.0301 139.343H19.9059V141.343H22.0301V139.343ZM18.9059 140.343V142.592H20.9059V140.343H18.9059ZM28.4442 150H27.4442V151H28.4442V150ZM28.4442 137.416V136.416H27.4442V137.416H28.4442ZM37.7798 137.416H38.7798V136.416H37.7798V137.416ZM37.7798 140.343V141.343H38.7798V140.343H37.7798ZM32.1213 140.343V139.343H31.1213V140.343H32.1213ZM32.1213 142.146H31.1213V143.146H32.1213V142.146ZM37.3514 142.146H38.3514V141.146H37.3514V142.146ZM37.3514 145.073V146.073H38.3514V145.073H37.3514ZM32.1213 145.073V144.073H31.1213V145.073H32.1213ZM32.1213 147.073H31.1213V148.073H32.1213V147.073ZM37.7798 147.073H38.7798V146.073H37.7798V147.073ZM37.7798 150V151H38.7798V150H37.7798ZM29.4442 150V137.416H27.4442V150H29.4442ZM28.4442 138.416H37.7798V136.416H28.4442V138.416ZM36.7798 137.416V140.343H38.7798V137.416H36.7798ZM37.7798 139.343H32.1213V141.343H37.7798V139.343ZM31.1213 140.343V142.146H33.1213V140.343H31.1213ZM32.1213 143.146H37.3514V141.146H32.1213V143.146ZM36.3514 142.146V145.073H38.3514V142.146H36.3514ZM37.3514 144.073H32.1213V146.073H37.3514V144.073ZM31.1213 145.073V147.073H33.1213V145.073H31.1213ZM32.1213 148.073H37.7798V146.073H32.1213V148.073ZM36.7798 147.073V150H38.7798V147.073H36.7798ZM37.7798 149H28.4442V151H37.7798V149ZM38.4295 153.213H37.4295V154.213H38.4295V153.213ZM38.4295 147.108V146.108H37.4295V147.108H38.4295ZM39.7504 147.108V148.108H40.2296L40.5298 147.735L39.7504 147.108ZM41.2141 137.416V136.416H40.2141V137.416H41.2141ZM51.3529 137.416H52.3529V136.416H51.3529V137.416ZM51.3529 147.108H50.3529V148.108H51.3529V147.108ZM53.1914 147.108H54.1914V146.108H53.1914V147.108ZM53.1914 153.213V154.213H54.1914V153.213H53.1914ZM49.907 153.213H48.907V154.213H49.907V153.213ZM49.907 150H50.907V149H49.907V150ZM41.7139 150V149H40.7139V150H41.7139ZM41.7139 153.213V154.213H42.7139V153.213H41.7139ZM43.5168 147.108L42.667 146.581L41.7196 148.108H43.5168V147.108ZM47.533 147.108V148.108H48.533V147.108H47.533ZM47.533 140.307H48.533V139.307H47.533V140.307ZM44.7127 140.307V139.307H43.7127V140.307H44.7127ZM39.4295 153.213V147.108H37.4295V153.213H39.4295ZM38.4295 148.108H39.7504V146.108H38.4295V148.108ZM40.5298 147.735C41.731 146.241 42.2141 143.835 42.2141 140.789H40.2141C40.2141 143.741 39.7214 145.548 38.971 146.482L40.5298 147.735ZM42.2141 140.789V137.416H40.2141V140.789H42.2141ZM41.2141 138.416H51.3529V136.416H41.2141V138.416ZM50.3529 137.416V147.108H52.3529V137.416H50.3529ZM51.3529 148.108H53.1914V146.108H51.3529V148.108ZM52.1914 147.108V153.213H54.1914V147.108H52.1914ZM53.1914 152.213H49.907V154.213H53.1914V152.213ZM50.907 153.213V150H48.907V153.213H50.907ZM49.907 149H41.7139V151H49.907V149ZM40.7139 150V153.213H42.7139V150H40.7139ZM41.7139 152.213H38.4295V154.213H41.7139V152.213ZM43.5168 148.108H47.533V146.108H43.5168V148.108ZM48.533 147.108V140.307H46.533V147.108H48.533ZM47.533 139.307H44.7127V141.307H47.533V139.307ZM43.7127 140.307V141.218H45.7127V140.307H43.7127ZM43.7127 141.218C43.7127 143.795 43.3173 145.533 42.667 146.581L44.3665 147.635C45.3108 146.113 45.7127 143.924 45.7127 141.218H43.7127ZM57.554 149.411L57.0823 150.293L57.0945 150.299L57.554 149.411ZM55.1621 147.126L54.2944 147.623L54.299 147.631L55.1621 147.126ZM55.1621 140.29L54.299 139.784L54.2971 139.788L55.1621 140.29ZM57.554 138.023L58.0176 138.909L58.0214 138.907L57.554 138.023ZM63.5694 137.541L63.2675 138.494L63.2769 138.497L63.2864 138.5L63.5694 137.541ZM65.3723 138.469L66.3093 138.818L66.5542 138.161L66.0199 137.707L65.3723 138.469ZM64.2477 141.486L63.693 142.318L64.7437 143.018L65.1847 141.835L64.2477 141.486ZM62.8019 140.754L62.4856 141.702L62.4976 141.706L62.5096 141.71L62.8019 140.754ZM59.1248 141.361L58.4021 140.669L58.4018 140.67L59.1248 141.361ZM59.1248 146.073L58.3942 146.756L58.4019 146.764L58.4098 146.772L59.1248 146.073ZM62.8019 146.68L63.0941 147.636L63.1061 147.633L63.1181 147.629L62.8019 146.68ZM64.2477 145.93L65.1847 145.581L64.7437 144.398L63.693 145.098L64.2477 145.93ZM65.3723 148.947L66.0199 149.709L66.5542 149.255L66.3093 148.598L65.3723 148.947ZM63.5694 149.893L63.8568 150.851L63.8668 150.848L63.5694 149.893ZM61.2132 149.214C59.9365 149.214 58.8804 148.971 58.0134 148.523L57.0945 150.299C58.2981 150.922 59.6816 151.214 61.2132 151.214V149.214ZM58.0256 148.529C57.1604 148.066 56.5005 147.433 56.0251 146.621L54.299 147.631C54.966 148.771 55.9007 149.661 57.0823 150.293L58.0256 148.529ZM56.0297 146.629C55.5704 145.828 55.3231 144.862 55.3231 143.699H53.3231C53.3231 145.154 53.6351 146.473 54.2945 147.623L56.0297 146.629ZM55.3231 143.699C55.3231 142.535 55.5705 141.578 56.027 140.791L54.2971 139.788C53.635 140.929 53.3231 142.245 53.3231 143.699H55.3231ZM56.0251 140.795C56.4994 139.985 57.1566 139.359 58.0176 138.909L57.0903 137.137C55.9045 137.757 54.9672 138.643 54.299 139.784L56.0251 140.795ZM58.0214 138.907C58.8866 138.449 59.9397 138.202 61.2132 138.202V136.202C59.6783 136.202 58.2919 136.501 57.0865 137.139L58.0214 138.907ZM61.2132 138.202C61.9821 138.202 62.6641 138.303 63.2675 138.494L63.8713 136.587C63.0468 136.326 62.158 136.202 61.2132 136.202V138.202ZM63.2864 138.5C63.9061 138.683 64.3751 138.934 64.7246 139.231L66.0199 137.707C65.4174 137.195 64.6846 136.827 63.8524 136.582L63.2864 138.5ZM64.4353 138.12L63.3107 141.136L65.1847 141.835L66.3093 138.818L64.4353 138.12ZM64.8024 140.653C64.2181 140.264 63.6464 139.966 63.0941 139.797L62.5096 141.71C62.8141 141.803 63.2064 141.993 63.693 142.318L64.8024 140.653ZM63.1181 139.805C62.5708 139.623 61.9796 139.539 61.356 139.539V141.539C61.8035 141.539 62.1761 141.599 62.4856 141.702L63.1181 139.805ZM61.356 139.539C60.1978 139.539 59.1626 139.874 58.4021 140.669L59.8474 142.052C60.1341 141.752 60.5864 141.539 61.356 141.539V139.539ZM58.4018 140.67C57.6537 141.453 57.3572 142.518 57.3572 143.699H59.3572C59.3572 142.833 59.5724 142.34 59.8478 142.051L58.4018 140.67ZM57.3572 143.699C57.3572 144.89 57.6526 145.962 58.3942 146.756L59.8553 145.39C59.5736 145.089 59.3572 144.578 59.3572 143.699H57.3572ZM58.4098 146.772C59.1715 147.551 60.2041 147.876 61.356 147.876V145.876C60.5802 145.876 60.1252 145.666 59.8398 145.374L58.4098 146.772ZM61.356 147.876C61.9718 147.876 62.5546 147.801 63.0941 147.636L62.5096 145.724C62.1923 145.821 61.8112 145.876 61.356 145.876V147.876ZM63.1181 147.629C63.6581 147.449 64.2215 147.15 64.8024 146.762L63.693 145.098C63.2029 145.425 62.8024 145.626 62.4856 145.731L63.1181 147.629ZM63.3107 146.28L64.4353 149.296L66.3093 148.598L65.1847 145.581L63.3107 146.28ZM64.7246 148.185C64.3709 148.486 63.8966 148.744 63.272 148.938L63.8668 150.848C64.694 150.59 65.4216 150.217 66.0199 149.709L64.7246 148.185ZM63.2821 148.935C62.674 149.117 61.9869 149.214 61.2132 149.214V151.214C62.1531 151.214 63.0368 151.097 63.8568 150.851L63.2821 148.935ZM69.4921 150H68.4921V151H69.4921V150ZM69.4921 140.522H70.4921V139.522H69.4921V140.522ZM65.8507 140.522H64.8507V141.522H65.8507V140.522ZM65.8507 137.416V136.416H64.8507V137.416H65.8507ZM76.9891 137.416H77.9891V136.416H76.9891V137.416ZM76.9891 140.522V141.522H77.9891V140.522H76.9891ZM73.3477 140.522V139.522H72.3477V140.522H73.3477ZM73.3477 150V151H74.3477V150H73.3477ZM70.4921 150V140.522H68.4921V150H70.4921ZM69.4921 139.522H65.8507V141.522H69.4921V139.522ZM66.8507 140.522V137.416H64.8507V140.522H66.8507ZM65.8507 138.416H76.9891V136.416H65.8507V138.416ZM75.9891 137.416V140.522H77.9891V137.416H75.9891ZM76.9891 139.522H73.3477V141.522H76.9891V139.522ZM72.3477 140.522V150H74.3477V140.522H72.3477ZM73.3477 149H69.4921V151H73.3477V149ZM75.0005 150L74.0973 149.571L73.4182 151H75.0005V150ZM80.9803 137.416V136.416H80.3483L80.0771 136.987L80.9803 137.416ZM84.104 137.416L85.0062 136.984L84.7344 136.416H84.104V137.416ZM90.1195 150V151H91.7059L91.0217 149.569L90.1195 150ZM86.2639 150L85.3495 150.405L85.613 151H86.2639V150ZM85.2286 147.662L86.143 147.257L85.8795 146.662H85.2286V147.662ZM79.8736 147.662V146.662H79.2227L78.9592 147.257L79.8736 147.662ZM78.8383 150V151H79.4892L79.7527 150.405L78.8383 150ZM82.5332 141.343V140.343H81.8679L81.6109 140.956L82.5332 141.343ZM81.1052 144.752L80.1829 144.366L79.6022 145.752H81.1052V144.752ZM84.0505 144.752V145.752H85.5535L84.9728 144.366L84.0505 144.752ZM82.6225 141.343L83.5448 140.956L83.2878 140.343H82.6225V141.343ZM75.9037 150.429L81.8835 137.845L80.0771 136.987L74.0973 149.571L75.9037 150.429ZM80.9803 138.416H84.104V136.416H80.9803V138.416ZM83.2018 137.847L89.2173 150.431L91.0217 149.569L85.0062 136.984L83.2018 137.847ZM90.1195 149H86.2639V151H90.1195V149ZM87.1783 149.595L86.143 147.257L84.3142 148.066L85.3495 150.405L87.1783 149.595ZM85.2286 146.662H79.8736V148.662H85.2286V146.662ZM78.9592 147.257L77.9239 149.595L79.7527 150.405L80.788 148.066L78.9592 147.257ZM78.8383 149H75.0005V151H78.8383V149ZM81.6109 140.956L80.1829 144.366L82.0276 145.138L83.4556 141.729L81.6109 140.956ZM81.1052 145.752H84.0505V143.752H81.1052V145.752ZM84.9728 144.366L83.5448 140.956L81.7001 141.729L83.1281 145.138L84.9728 144.366ZM82.6225 140.343H82.5332V142.343H82.6225V140.343ZM90.5532 150H89.5532V151H90.5532V150ZM90.5532 137.416V136.416H89.5532V137.416H90.5532ZM100.264 138.308L99.6479 139.096L99.6547 139.102L99.6616 139.107L100.264 138.308ZM100.924 142.36L100.098 141.796L100.095 141.801L100.924 142.36ZM99.5674 143.431L99.1895 142.505L96.6111 143.558L99.27 144.386L99.5674 143.431ZM101.227 144.538L100.425 145.135L100.432 145.144L101.227 144.538ZM94.2303 142.217H93.2303V143.217H94.2303V142.217ZM97.3897 141.985L97.9544 142.811L97.9632 142.805L97.3897 141.985ZM97.3897 140.432L96.825 141.258L96.8348 141.264L96.8447 141.271L97.3897 140.432ZM94.2303 140.2V139.2H93.2303V140.2H94.2303ZM94.2303 147.215H93.2303V148.215H94.2303V147.215ZM94.2303 145.002V144.002H93.2303V145.002H94.2303ZM91.5532 150V137.416H89.5532V150H91.5532ZM90.5532 138.416H96.997V136.416H90.5532V138.416ZM96.997 138.416C98.2901 138.416 99.1274 138.69 99.6479 139.096L100.879 137.52C99.8765 136.737 98.5362 136.416 96.997 136.416V138.416ZM99.6616 139.107C100.179 139.497 100.424 139.983 100.424 140.664H102.424C102.424 139.37 101.895 138.286 100.866 137.51L99.6616 139.107ZM100.424 140.664C100.424 141.124 100.308 141.489 100.098 141.796L101.75 142.924C102.207 142.255 102.424 141.49 102.424 140.664H100.424ZM100.095 141.801C99.8953 142.097 99.6078 142.335 99.1895 142.505L99.9453 144.357C100.693 144.052 101.31 143.576 101.753 142.92L100.095 141.801ZM99.27 144.386C99.8339 144.562 100.193 144.823 100.425 145.135L102.03 143.941C101.5 143.229 100.753 142.753 99.8648 142.476L99.27 144.386ZM100.432 145.144C100.658 145.441 100.799 145.836 100.799 146.394H102.799C102.799 145.477 102.559 144.635 102.023 143.932L100.432 145.144ZM100.799 146.394C100.799 147.194 100.514 147.774 99.9314 148.232L101.167 149.805C102.251 148.953 102.799 147.784 102.799 146.394H100.799ZM99.9314 148.232C99.3258 148.708 98.4428 149 97.1755 149V151C98.7404 151 100.107 150.638 101.167 149.805L99.9314 148.232ZM97.1755 149H90.5532V151H97.1755V149ZM94.2303 143.217H96.2652V141.217H94.2303V143.217ZM96.2652 143.217C96.8348 143.217 97.4683 143.143 97.9544 142.811L96.825 141.16C96.8557 141.139 96.8424 141.158 96.7369 141.18C96.6352 141.201 96.482 141.217 96.2652 141.217V143.217ZM97.9632 142.805C98.5309 142.407 98.7467 141.799 98.7467 141.2H96.7467C96.7467 141.269 96.7351 141.277 96.7471 141.25C96.7532 141.237 96.7632 141.22 96.7777 141.202C96.7921 141.185 96.8063 141.173 96.8163 141.166L97.9632 142.805ZM98.7467 141.2C98.7467 140.604 98.5307 139.981 97.9347 139.594L96.8447 141.271C96.8296 141.261 96.8103 141.245 96.7913 141.224C96.7722 141.202 96.759 141.18 96.7508 141.162C96.7348 141.128 96.7467 141.13 96.7467 141.2H98.7467ZM97.9544 139.607C97.4683 139.274 96.8348 139.2 96.2652 139.2V141.2C96.482 141.2 96.6352 141.217 96.7369 141.238C96.8424 141.26 96.8557 141.279 96.825 141.258L97.9544 139.607ZM96.2652 139.2H94.2303V141.2H96.2652V139.2ZM93.2303 140.2V142.217H95.2303V140.2H93.2303ZM94.2303 148.215H96.6579V146.215H94.2303V148.215ZM96.6579 148.215C97.2514 148.215 97.878 148.111 98.3763 147.743C98.9314 147.334 99.1573 146.728 99.1573 146.109H97.1573C97.1573 146.181 97.1451 146.197 97.1522 146.181C97.1619 146.16 97.1791 146.141 97.1886 146.134C97.1922 146.131 97.1644 146.153 97.075 146.175C96.9847 146.197 96.8495 146.215 96.6579 146.215V148.215ZM99.1573 146.109C99.1573 145.49 98.9314 144.884 98.3763 144.474C97.878 144.106 97.2514 144.002 96.6579 144.002V146.002C96.8495 146.002 96.9847 146.02 97.075 146.042C97.1644 146.064 97.1922 146.086 97.1886 146.083C97.1791 146.076 97.1619 146.058 97.1522 146.036C97.1451 146.02 97.1573 146.036 97.1573 146.109H99.1573ZM96.6579 144.002H94.2303V146.002H96.6579V144.002ZM93.2303 145.002V147.215H95.2303V145.002H93.2303ZM103.191 150H102.191V151H103.191V150ZM103.191 137.416V136.416H102.191V137.416H103.191ZM106.761 137.416H107.761V136.416H106.761V137.416ZM106.761 143.949H105.761V146.761L107.537 144.58L106.761 143.949ZM112.08 137.416V136.416H111.605L111.305 136.784L112.08 137.416ZM114.883 137.416H115.883V136.416H114.883V137.416ZM114.883 150V151H115.883V150H114.883ZM111.313 150H110.313V151H111.313V150ZM111.313 143.467H112.313V140.655L110.537 142.836L111.313 143.467ZM105.994 150V151H106.469L106.769 150.631L105.994 150ZM104.191 150V137.416H102.191V150H104.191ZM103.191 138.416H106.761V136.416H103.191V138.416ZM105.761 137.416V143.949H107.761V137.416H105.761ZM107.537 144.58L112.856 138.047L111.305 136.784L105.986 143.317L107.537 144.58ZM112.08 138.416H114.883V136.416H112.08V138.416ZM113.883 137.416V150H115.883V137.416H113.883ZM114.883 149H111.313V151H114.883V149ZM112.313 150V143.467H110.313V150H112.313ZM110.537 142.836L105.218 149.369L106.769 150.631L112.088 144.098L110.537 142.836ZM105.994 149H103.191V151H105.994V149ZM119.782 150H118.782V151H119.782V150ZM119.782 140.522H120.782V139.522H119.782V140.522ZM116.141 140.522H115.141V141.522H116.141V140.522ZM116.141 137.416V136.416H115.141V137.416H116.141ZM127.279 137.416H128.279V136.416H127.279V137.416ZM127.279 140.522V141.522H128.279V140.522H127.279ZM123.638 140.522V139.522H122.638V140.522H123.638ZM123.638 150V151H124.638V150H123.638ZM120.782 150V140.522H118.782V150H120.782ZM119.782 139.522H116.141V141.522H119.782V139.522ZM117.141 140.522V137.416H115.141V140.522H117.141ZM116.141 138.416H127.279V136.416H116.141V138.416ZM126.279 137.416V140.522H128.279V137.416H126.279ZM127.279 139.522H123.638V141.522H127.279V139.522ZM122.638 140.522V150H124.638V140.522H122.638ZM123.638 149H119.782V151H123.638V149ZM128.537 150H127.537V151H128.537V150ZM128.537 137.416V136.416H127.537V137.416H128.537ZM137.872 137.416H138.872V136.416H137.872V137.416ZM137.872 140.343V141.343H138.872V140.343H137.872ZM132.214 140.343V139.343H131.214V140.343H132.214ZM132.214 142.146H131.214V143.146H132.214V142.146ZM137.444 142.146H138.444V141.146H137.444V142.146ZM137.444 145.073V146.073H138.444V145.073H137.444ZM132.214 145.073V144.073H131.214V145.073H132.214ZM132.214 147.073H131.214V148.073H132.214V147.073ZM137.872 147.073H138.872V146.073H137.872V147.073ZM137.872 150V151H138.872V150H137.872ZM129.537 150V137.416H127.537V150H129.537ZM128.537 138.416H137.872V136.416H128.537V138.416ZM136.872 137.416V140.343H138.872V137.416H136.872ZM137.872 139.343H132.214V141.343H137.872V139.343ZM131.214 140.343V142.146H133.214V140.343H131.214ZM132.214 143.146H137.444V141.146H132.214V143.146ZM136.444 142.146V145.073H138.444V142.146H136.444ZM137.444 144.073H132.214V146.073H137.444V144.073ZM131.214 145.073V147.073H133.214V145.073H131.214ZM132.214 148.073H137.872V146.073H132.214V148.073ZM136.872 147.073V150H138.872V147.073H136.872ZM137.872 149H128.537V151H137.872V149ZM140.432 150.357L139.62 150.941L140.107 151.617L140.86 151.261L140.432 150.357ZM138.504 147.679L137.992 146.821L137.056 147.379L137.693 148.264L138.504 147.679ZM140.128 146.252L139.333 145.646L139.324 145.657L140.128 146.252ZM141.289 137.416V136.416H140.289V137.416H141.289ZM151.445 137.416H152.445V136.416H151.445V137.416ZM151.445 150V151H152.445V150H151.445ZM147.625 150H146.625V151H147.625V150ZM147.625 140.486H148.625V139.486H147.625V140.486ZM144.805 140.486V139.486H143.805V140.486H144.805ZM143.627 147.358L142.762 146.857L142.758 146.863L143.627 147.358ZM141.243 149.773L139.316 147.095L137.693 148.264L139.62 150.941L141.243 149.773ZM139.016 148.538C139.791 148.077 140.438 147.516 140.933 146.846L139.324 145.657C139.01 146.082 138.574 146.473 137.992 146.821L139.016 148.538ZM140.924 146.857C141.443 146.176 141.793 145.365 141.997 144.453L140.045 144.016C139.892 144.699 139.647 145.233 139.333 145.646L140.924 146.857ZM141.997 144.453C142.196 143.563 142.289 142.528 142.289 141.361H140.289C140.289 142.431 140.203 143.311 140.045 144.016L141.997 144.453ZM142.289 141.361V137.416H140.289V141.361H142.289ZM141.289 138.416H151.445V136.416H141.289V138.416ZM150.445 137.416V150H152.445V137.416H150.445ZM151.445 149H147.625V151H151.445V149ZM148.625 150V140.486H146.625V150H148.625ZM147.625 139.486H144.805V141.486H147.625V139.486ZM143.805 140.486V142.307H145.805V140.486H143.805ZM143.805 142.307C143.805 144.191 143.437 145.69 142.762 146.857L144.493 147.859C145.388 146.313 145.805 144.445 145.805 142.307H143.805ZM142.758 146.863C142.082 148.049 141.167 148.902 140.004 149.453L140.86 151.261C142.41 150.527 143.625 149.381 144.496 147.854L142.758 146.863ZM153.516 150H152.516V151H153.516V150ZM153.516 137.416V136.416H152.516V137.416H153.516ZM162.852 137.416H163.852V136.416H162.852V137.416ZM162.852 140.343V141.343H163.852V140.343H162.852ZM157.193 140.343V139.343H156.193V140.343H157.193ZM157.193 142.146H156.193V143.146H157.193V142.146ZM162.423 142.146H163.423V141.146H162.423V142.146ZM162.423 145.073V146.073H163.423V145.073H162.423ZM157.193 145.073V144.073H156.193V145.073H157.193ZM157.193 147.073H156.193V148.073H157.193V147.073ZM162.852 147.073H163.852V146.073H162.852V147.073ZM162.852 150V151H163.852V150H162.852ZM154.516 150V137.416H152.516V150H154.516ZM153.516 138.416H162.852V136.416H153.516V138.416ZM161.852 137.416V140.343H163.852V137.416H161.852ZM162.852 139.343H157.193V141.343H162.852V139.343ZM156.193 140.343V142.146H158.193V140.343H156.193ZM157.193 143.146H162.423V141.146H157.193V143.146ZM161.423 142.146V145.073H163.423V142.146H161.423ZM162.423 144.073H157.193V146.073H162.423V144.073ZM156.193 145.073V147.073H158.193V145.073H156.193ZM157.193 148.073H162.852V146.073H157.193V148.073ZM161.852 147.073V150H163.852V147.073H161.852ZM162.852 149H153.516V151H162.852V149ZM164.376 150H163.376V151H164.376V150ZM164.376 137.416V136.416H163.376V137.416H164.376ZM167.946 137.416H168.946V136.416H167.946V137.416ZM167.946 143.949H166.946V146.761L168.722 144.58L167.946 143.949ZM173.265 137.416V136.416H172.79L172.49 136.784L173.265 137.416ZM176.068 137.416H177.068V136.416H176.068V137.416ZM176.068 150V151H177.068V150H176.068ZM172.498 150H171.498V151H172.498V150ZM172.498 143.467H173.498V140.655L171.722 142.836L172.498 143.467ZM167.179 150V151H167.654L167.954 150.631L167.179 150ZM168.089 136.059L167.665 136.965L167.673 136.969L167.681 136.972L168.089 136.059ZM166.804 135.042L165.972 135.596L165.981 135.61L165.99 135.623L166.804 135.042ZM166.268 133.667L165.967 132.714L165.156 132.97L165.279 133.812L166.268 133.667ZM167.964 133.132L168.899 132.778L168.565 131.893L167.663 132.178L167.964 133.132ZM168.785 134.274L168.237 135.111L168.244 135.115L168.25 135.119L168.785 134.274ZM171.677 134.221L171.085 133.414L171.079 133.419L171.072 133.424L171.677 134.221ZM172.409 133.15L172.709 132.196L171.733 131.888L171.448 132.872L172.409 133.15ZM174.051 133.667L175.035 133.844L175.19 132.978L174.352 132.714L174.051 133.667ZM172.837 135.649L172.219 134.862L172.212 134.868L172.837 135.649ZM165.376 150V137.416H163.376V150H165.376ZM164.376 138.416H167.946V136.416H164.376V138.416ZM166.946 137.416V143.949H168.946V137.416H166.946ZM168.722 144.58L174.041 138.047L172.49 136.784L167.171 143.317L168.722 144.58ZM173.265 138.416H176.068V136.416H173.265V138.416ZM175.068 137.416V150H177.068V137.416H175.068ZM176.068 149H172.498V151H176.068V149ZM173.498 150V143.467H171.498V150H173.498ZM171.722 142.836L166.403 149.369L167.954 150.631L173.273 144.098L171.722 142.836ZM167.179 149H164.376V151H167.179V149ZM170.195 135.434C169.441 135.434 168.889 135.321 168.497 135.146L167.681 136.972C168.408 137.297 169.26 137.434 170.195 137.434V135.434ZM168.513 135.153C168.077 134.95 167.796 134.711 167.617 134.46L165.99 135.623C166.406 136.206 166.982 136.645 167.665 136.965L168.513 135.153ZM167.636 134.487C167.429 134.176 167.307 133.857 167.258 133.522L165.279 133.812C165.373 134.453 165.608 135.05 165.972 135.596L167.636 134.487ZM166.569 134.621L168.265 134.085L167.663 132.178L165.967 132.714L166.569 134.621ZM167.029 133.485C167.277 134.144 167.658 134.731 168.237 135.111L169.333 133.438C169.222 133.365 169.055 133.191 168.899 132.778L167.029 133.485ZM168.25 135.119C168.822 135.482 169.513 135.613 170.231 135.613V133.613C169.735 133.613 169.462 133.519 169.32 133.429L168.25 135.119ZM170.231 135.613C170.977 135.613 171.702 135.457 172.281 135.017L171.072 133.424C170.962 133.508 170.722 133.613 170.231 133.613V135.613ZM172.268 135.027C172.815 134.626 173.181 134.078 173.369 133.428L171.448 132.872C171.374 133.126 171.253 133.292 171.085 133.414L172.268 135.027ZM172.108 134.103L173.75 134.621L174.352 132.714L172.709 132.196L172.108 134.103ZM173.067 133.491C172.969 134.035 172.703 134.483 172.219 134.862L173.455 136.435C174.304 135.767 174.847 134.894 175.035 133.844L173.067 133.491ZM172.212 134.868C171.785 135.21 171.148 135.434 170.195 135.434V137.434C171.456 137.434 172.58 137.135 173.462 136.429L172.212 134.868ZM183.464 150H182.464V151H183.464V150ZM183.464 137.416V136.416H182.464V137.416H183.464ZM187.284 137.416H188.284V136.416H187.284V137.416ZM187.284 142.289H186.284V143.289H187.284V142.289ZM188.319 142.289V143.289H188.885L189.176 142.804L188.319 142.289ZM191.246 137.416V136.416H190.681L190.389 136.901L191.246 137.416ZM195.405 137.416L196.245 137.959L197.243 136.416H195.405V137.416ZM191.746 143.074L190.906 142.531L190.333 143.418L191.25 143.942L191.746 143.074ZM192.835 143.985L192.069 144.627L192.075 144.634L192.081 144.641L192.835 143.985ZM193.71 145.323L194.606 144.879L194.604 144.876L193.71 145.323ZM196.03 150V151H197.643L196.926 149.556L196.03 150ZM191.889 150L190.981 150.419L191.249 151H191.889V150ZM190.283 146.519L189.373 146.935L189.375 146.938L190.283 146.519ZM189.533 145.627L189.018 146.484L189.026 146.489L189.033 146.493L189.533 145.627ZM187.284 145.359V144.359H186.284V145.359H187.284ZM187.284 150V151H188.284V150H187.284ZM184.464 150V137.416H182.464V150H184.464ZM183.464 138.416H187.284V136.416H183.464V138.416ZM186.284 137.416V142.289H188.284V137.416H186.284ZM187.284 143.289H188.319V141.289H187.284V143.289ZM189.176 142.804L192.104 137.931L190.389 136.901L187.462 141.774L189.176 142.804ZM191.246 138.416H195.405V136.416H191.246V138.416ZM194.566 136.873L190.906 142.531L192.586 143.617L196.245 137.959L194.566 136.873ZM191.25 143.942C191.564 144.122 191.835 144.349 192.069 144.627L193.601 143.342C193.216 142.883 192.762 142.503 192.242 142.206L191.25 143.942ZM192.081 144.641C192.337 144.936 192.584 145.308 192.815 145.771L194.604 144.876C194.312 144.291 193.975 143.771 193.589 143.328L192.081 144.641ZM192.814 145.768L195.134 150.444L196.926 149.556L194.605 144.879L192.814 145.768ZM196.03 149H191.889V151H196.03V149ZM192.797 149.581L191.19 146.1L189.375 146.938L190.981 150.419L192.797 149.581ZM191.192 146.103C190.94 145.551 190.567 145.069 190.033 144.761L189.033 146.493C189.117 146.542 189.245 146.654 189.373 146.935L191.192 146.103ZM190.047 144.769C189.535 144.462 188.92 144.359 188.301 144.359V146.359C188.729 146.359 188.936 146.435 189.018 146.484L190.047 144.769ZM188.301 144.359H187.284V146.359H188.301V144.359ZM186.284 145.359V150H188.284V145.359H186.284ZM187.284 149H183.464V151H187.284V149ZM196.904 150H195.904V151H196.904V150ZM196.904 137.416V136.416H195.904V137.416H196.904ZM206.757 138.522L206.055 139.235L206.061 139.241L206.757 138.522ZM206.757 144.413L206.055 143.7L206.757 144.413ZM200.759 145.52V144.52H199.759V145.52H200.759ZM200.759 150V151H201.759V150H200.759ZM200.759 142.592H199.759V143.592H200.759V142.592ZM200.759 140.343V139.343H199.759V140.343H200.759ZM197.904 150V137.416H195.904V150H197.904ZM196.904 138.416H203.401V136.416H196.904V138.416ZM203.401 138.416C204.736 138.416 205.559 138.746 206.055 139.235L207.458 137.81C206.456 136.823 205.041 136.416 203.401 136.416V138.416ZM206.061 139.241C206.58 139.744 206.881 140.447 206.881 141.468H208.881C208.881 140.014 208.433 138.753 207.452 137.804L206.061 139.241ZM206.881 141.468C206.881 142.473 206.582 143.182 206.055 143.7L207.458 145.126C208.431 144.169 208.881 142.913 208.881 141.468H206.881ZM206.055 143.7C205.559 144.189 204.736 144.52 203.401 144.52V146.52C205.041 146.52 206.456 146.112 207.458 145.126L206.055 143.7ZM203.401 144.52H200.759V146.52H203.401V144.52ZM199.759 145.52V150H201.759V145.52H199.759ZM200.759 149H196.904V151H200.759V149ZM200.759 143.592H202.883V141.592H200.759V143.592ZM202.883 143.592C203.442 143.592 204.047 143.477 204.522 143.073C205.028 142.642 205.204 142.043 205.204 141.468H203.204C203.204 141.559 203.191 141.595 203.191 141.595C203.191 141.595 203.191 141.595 203.191 141.594C203.192 141.593 203.192 141.591 203.193 141.59C203.195 141.586 203.198 141.582 203.201 141.577C203.209 141.566 203.217 141.557 203.226 141.55C203.243 141.535 203.241 141.545 203.188 141.56C203.133 141.576 203.036 141.592 202.883 141.592V143.592ZM205.204 141.468C205.204 140.893 205.028 140.293 204.522 139.863C204.047 139.459 203.442 139.343 202.883 139.343V141.343C203.036 141.343 203.133 141.36 203.188 141.375C203.241 141.39 203.243 141.401 203.226 141.386C203.217 141.379 203.209 141.369 203.201 141.358C203.198 141.353 203.195 141.349 203.193 141.346C203.192 141.344 203.192 141.343 203.191 141.342C203.191 141.341 203.191 141.34 203.191 141.34C203.191 141.34 203.204 141.376 203.204 141.468H205.204ZM202.883 139.343H200.759V141.343H202.883V139.343ZM199.759 140.343V142.592H201.759V140.343H199.759ZM210.975 150L210.088 149.54L209.331 151H210.975V150ZM212.992 146.109L213.88 146.569L214.142 146.065L213.842 145.582L212.992 146.109ZM207.602 137.416V136.416H205.805L206.752 137.943L207.602 137.416ZM211.636 137.416L212.493 136.9L212.201 136.416H211.636V137.416ZM214.813 142.699L213.956 143.215L214.882 144.754L215.703 143.156L214.813 142.699ZM217.526 137.416V136.416H216.916L216.637 136.959L217.526 137.416ZM221.471 137.416L222.359 137.877L223.117 136.416H221.471V137.416ZM214.938 150V151H215.546L215.826 150.461L214.938 150ZM211.863 150.46L213.88 146.569L212.105 145.649L210.088 149.54L211.863 150.46ZM213.842 145.582L208.452 136.889L206.752 137.943L212.143 146.636L213.842 145.582ZM207.602 138.416H211.636V136.416H207.602V138.416ZM210.779 137.931L213.956 143.215L215.67 142.184L212.493 136.9L210.779 137.931ZM215.703 143.156L218.416 137.873L216.637 136.959L213.924 142.243L215.703 143.156ZM217.526 138.416H221.471V136.416H217.526V138.416ZM220.584 136.955L214.051 149.539L215.826 150.461L222.359 137.877L220.584 136.955ZM214.938 149H210.975V151H214.938V149ZM221.97 150H220.97V151H221.97V150ZM221.97 137.416V136.416H220.97V137.416H221.97ZM233.912 137.416H234.912V136.416H233.912V137.416ZM233.912 150V151H234.912V150H233.912ZM230.092 150H229.092V151H230.092V150ZM230.092 140.486H231.092V139.486H230.092V140.486ZM225.79 140.486V139.486H224.79V140.486H225.79ZM225.79 150V151H226.79V150H225.79ZM222.97 150V137.416H220.97V150H222.97ZM221.97 138.416H233.912V136.416H221.97V138.416ZM232.912 137.416V150H234.912V137.416H232.912ZM233.912 149H230.092V151H233.912V149ZM231.092 150V140.486H229.092V150H231.092ZM230.092 139.486H225.79V141.486H230.092V139.486ZM224.79 140.486V150H226.79V140.486H224.79ZM225.79 149H221.97V151H225.79V149ZM235.985 150H234.985V151H235.985V150ZM235.985 137.416V136.416H234.985V137.416H235.985ZM239.841 137.416H240.841V136.416H239.841V137.416ZM239.841 142.057H238.841V143.057H239.841V142.057ZM244.143 142.057V143.057H245.143V142.057H244.143ZM244.143 137.416V136.416H243.143V137.416H244.143ZM247.998 137.416H248.998V136.416H247.998V137.416ZM247.998 150V151H248.998V150H247.998ZM244.143 150H243.143V151H244.143V150ZM244.143 145.198H245.143V144.198H244.143V145.198ZM239.841 145.198V144.198H238.841V145.198H239.841ZM239.841 150V151H240.841V150H239.841ZM236.985 150V137.416H234.985V150H236.985ZM235.985 138.416H239.841V136.416H235.985V138.416ZM238.841 137.416V142.057H240.841V137.416H238.841ZM239.841 143.057H244.143V141.057H239.841V143.057ZM245.143 142.057V137.416H243.143V142.057H245.143ZM244.143 138.416H247.998V136.416H244.143V138.416ZM246.998 137.416V150H248.998V137.416H246.998ZM247.998 149H244.143V151H247.998V149ZM245.143 150V145.198H243.143V150H245.143ZM244.143 144.198H239.841V146.198H244.143V144.198ZM238.841 145.198V150H240.841V145.198H238.841ZM239.841 149H235.985V151H239.841V149ZM250.07 150H249.07V151H250.07V150ZM250.07 137.416V136.416H249.07V137.416H250.07ZM259.406 137.416H260.406V136.416H259.406V137.416ZM259.406 140.343V141.343H260.406V140.343H259.406ZM253.747 140.343V139.343H252.747V140.343H253.747ZM253.747 142.146H252.747V143.146H253.747V142.146ZM258.977 142.146H259.977V141.146H258.977V142.146ZM258.977 145.073V146.073H259.977V145.073H258.977ZM253.747 145.073V144.073H252.747V145.073H253.747ZM253.747 147.073H252.747V148.073H253.747V147.073ZM259.406 147.073H260.406V146.073H259.406V147.073ZM259.406 150V151H260.406V150H259.406ZM251.07 150V137.416H249.07V150H251.07ZM250.07 138.416H259.406V136.416H250.07V138.416ZM258.406 137.416V140.343H260.406V137.416H258.406ZM259.406 139.343H253.747V141.343H259.406V139.343ZM252.747 140.343V142.146H254.747V140.343H252.747ZM253.747 143.146H258.977V141.146H253.747V143.146ZM257.977 142.146V145.073H259.977V142.146H257.977ZM258.977 144.073H253.747V146.073H258.977V144.073ZM252.747 145.073V147.073H254.747V145.073H252.747ZM253.747 148.073H259.406V146.073H253.747V148.073ZM258.406 147.073V150H260.406V147.073H258.406ZM259.406 149H250.07V151H259.406V149ZM260.93 150H259.93V151H260.93V150ZM260.93 137.416V136.416H259.93V137.416H260.93ZM264.5 137.416H265.5V136.416H264.5V137.416ZM264.5 143.949H263.5V146.761L265.276 144.58L264.5 143.949ZM269.819 137.416V136.416H269.344L269.044 136.784L269.819 137.416ZM272.622 137.416H273.622V136.416H272.622V137.416ZM272.622 150V151H273.622V150H272.622ZM269.052 150H268.052V151H269.052V150ZM269.052 143.467H270.052V140.655L268.276 142.836L269.052 143.467ZM263.732 150V151H264.208L264.508 150.631L263.732 150ZM264.643 136.059L264.219 136.965L264.227 136.969L264.235 136.972L264.643 136.059ZM263.358 135.042L262.526 135.596L262.535 135.61L262.544 135.623L263.358 135.042ZM262.822 133.667L262.521 132.714L261.709 132.97L261.833 133.812L262.822 133.667ZM264.518 133.132L265.453 132.778L265.119 131.893L264.217 132.178L264.518 133.132ZM265.339 134.274L264.791 135.111L264.797 135.115L264.804 135.119L265.339 134.274ZM268.231 134.221L267.639 133.414L267.633 133.419L267.626 133.424L268.231 134.221ZM268.963 133.15L269.263 132.196L268.287 131.888L268.002 132.872L268.963 133.15ZM270.605 133.667L271.589 133.844L271.744 132.978L270.905 132.714L270.605 133.667ZM269.391 135.649L268.773 134.862L268.766 134.868L269.391 135.649ZM261.93 150V137.416H259.93V150H261.93ZM260.93 138.416H264.5V136.416H260.93V138.416ZM263.5 137.416V143.949H265.5V137.416H263.5ZM265.276 144.58L270.595 138.047L269.044 136.784L263.725 143.317L265.276 144.58ZM269.819 138.416H272.622V136.416H269.819V138.416ZM271.622 137.416V150H273.622V137.416H271.622ZM272.622 149H269.052V151H272.622V149ZM270.052 150V143.467H268.052V150H270.052ZM268.276 142.836L262.957 149.369L264.508 150.631L269.827 144.098L268.276 142.836ZM263.732 149H260.93V151H263.732V149ZM266.749 135.434C265.995 135.434 265.443 135.321 265.051 135.146L264.235 136.972C264.961 137.297 265.814 137.434 266.749 137.434V135.434ZM265.067 135.153C264.631 134.95 264.35 134.711 264.171 134.46L262.544 135.623C262.96 136.206 263.536 136.645 264.219 136.965L265.067 135.153ZM264.19 134.487C263.983 134.176 263.861 133.857 263.812 133.522L261.833 133.812C261.926 134.453 262.162 135.05 262.526 135.596L264.19 134.487ZM263.123 134.621L264.819 134.085L264.217 132.178L262.521 132.714L263.123 134.621ZM263.582 133.485C263.831 134.144 264.212 134.731 264.791 135.111L265.887 133.438C265.776 133.365 265.609 133.191 265.453 132.778L263.582 133.485ZM264.804 135.119C265.376 135.482 266.067 135.613 266.785 135.613V133.613C266.289 133.613 266.016 133.519 265.874 133.429L264.804 135.119ZM266.785 135.613C267.531 135.613 268.256 135.457 268.835 135.017L267.626 133.424C267.516 133.508 267.276 133.613 266.785 133.613V135.613ZM268.822 135.027C269.369 134.626 269.735 134.078 269.923 133.428L268.002 132.872C267.928 133.126 267.807 133.292 267.639 133.414L268.822 135.027ZM268.662 134.103L270.304 134.621L270.905 132.714L269.263 132.196L268.662 134.103ZM269.62 133.491C269.523 134.035 269.256 134.483 268.773 134.862L270.009 136.435C270.858 135.767 271.401 134.894 271.589 133.844L269.62 133.491ZM268.766 134.868C268.339 135.21 267.702 135.434 266.749 135.434V137.434C268.01 137.434 269.134 137.135 270.016 136.429L268.766 134.868ZM274.701 150H273.701V151H274.701V150ZM274.701 137.416V136.416H273.701V137.416H274.701ZM278.467 137.416H279.467V136.416H278.467V137.416ZM278.467 146.93H277.467V147.93H278.467V146.93ZM281.859 146.93V147.93H282.859V146.93H281.859ZM281.859 137.416V136.416H280.859V137.416H281.859ZM285.607 137.416H286.607V136.416H285.607V137.416ZM285.607 146.93H284.607V147.93H285.607V146.93ZM288.999 146.93V147.93H289.999V146.93H288.999ZM288.999 137.416V136.416H287.999V137.416H288.999ZM292.747 137.416H293.747V136.416H292.747V137.416ZM292.747 150V151H293.747V150H292.747ZM275.701 150V137.416H273.701V150H275.701ZM274.701 138.416H278.467V136.416H274.701V138.416ZM277.467 137.416V146.93H279.467V137.416H277.467ZM278.467 147.93H281.859V145.93H278.467V147.93ZM282.859 146.93V137.416H280.859V146.93H282.859ZM281.859 138.416H285.607V136.416H281.859V138.416ZM284.607 137.416V146.93H286.607V137.416H284.607ZM285.607 147.93H288.999V145.93H285.607V147.93ZM289.999 146.93V137.416H287.999V146.93H289.999ZM288.999 138.416H292.747V136.416H288.999V138.416ZM291.747 137.416V150H293.747V137.416H291.747ZM292.747 149H274.701V151H292.747V149ZM294.817 150H293.817V151H294.817V150ZM294.817 137.416V136.416H293.817V137.416H294.817ZM298.387 137.416H299.387V136.416H298.387V137.416ZM298.387 143.949H297.387V146.761L299.163 144.58L298.387 143.949ZM303.706 137.416V136.416H303.231L302.931 136.784L303.706 137.416ZM306.509 137.416H307.509V136.416H306.509V137.416ZM306.509 150V151H307.509V150H306.509ZM302.939 150H301.939V151H302.939V150ZM302.939 143.467H303.939V140.655L302.163 142.836L302.939 143.467ZM297.62 150V151H298.095L298.395 150.631L297.62 150ZM295.817 150V137.416H293.817V150H295.817ZM294.817 138.416H298.387V136.416H294.817V138.416ZM297.387 137.416V143.949H299.387V137.416H297.387ZM299.163 144.58L304.482 138.047L302.931 136.784L297.612 143.317L299.163 144.58ZM303.706 138.416H306.509V136.416H303.706V138.416ZM305.509 137.416V150H307.509V137.416H305.509ZM306.509 149H302.939V151H306.509V149ZM303.939 150V143.467H301.939V150H303.939ZM302.163 142.836L296.844 149.369L298.395 150.631L303.714 144.098L302.163 142.836ZM297.62 149H294.817V151H297.62V149ZM306.839 150L306.042 149.396L304.826 151H306.839V150ZM311.64 143.663L312.438 144.267L312.895 143.663L312.438 143.06L311.64 143.663ZM306.91 137.416V136.416H304.899L306.113 138.019L306.91 137.416ZM311.408 137.416L312.229 136.845L311.931 136.416H311.408V137.416ZM313.818 140.879L312.997 141.45L313.812 142.621L314.635 141.455L313.818 140.879ZM316.264 137.416V136.416H315.746L315.447 136.839L316.264 137.416ZM320.762 137.416L321.559 138.019L322.773 136.416H320.762V137.416ZM316.032 143.663L315.234 143.06L314.776 143.665L315.236 144.269L316.032 143.663ZM320.851 150V151H322.868L321.647 149.395L320.851 150ZM316.335 150L315.519 150.577L315.817 151H316.335V150ZM313.836 146.466L314.653 145.888L313.839 144.738L313.021 145.886L313.836 146.466ZM311.319 150V151H311.835L312.134 150.58L311.319 150ZM307.636 150.604L312.438 144.267L310.843 143.059L306.042 149.396L307.636 150.604ZM312.438 143.06L307.707 136.812L306.113 138.019L310.843 144.267L312.438 143.06ZM306.91 138.416H311.408V136.416H306.91V138.416ZM310.588 137.987L312.997 141.45L314.639 140.307L312.229 136.845L310.588 137.987ZM314.635 141.455L317.08 137.993L315.447 136.839L313.001 140.302L314.635 141.455ZM316.264 138.416H320.762V136.416H316.264V138.416ZM319.965 136.812L315.234 143.06L316.829 144.267L321.559 138.019L319.965 136.812ZM315.236 144.269L320.055 150.605L321.647 149.395L316.828 143.058L315.236 144.269ZM320.851 149H316.335V151H320.851V149ZM317.152 149.423L314.653 145.888L313.02 147.043L315.519 150.577L317.152 149.423ZM313.021 145.886L310.505 149.42L312.134 150.58L314.651 147.046L313.021 145.886ZM311.319 149H306.839V151H311.319V149Z" fill="white" mask="url(#path-5-outside-2_3427_4491)"/>
<path d="M3.2504 208V180.646H17.2572C20.3353 180.646 22.7021 181.293 24.3576 182.586C26.0389 183.853 26.8796 185.561 26.8796 187.708C26.8796 189.104 26.5175 190.333 25.7932 191.394C25.0948 192.428 24.1119 193.204 22.8444 193.722C24.4223 194.213 25.6251 195.015 26.4528 196.127C27.2805 197.214 27.6944 198.559 27.6944 200.162C27.6944 202.542 26.7891 204.443 24.9784 205.866C23.1677 207.289 20.7233 208 17.6452 208H3.2504ZM11.2432 191.083H15.6664C16.8045 191.083 17.6193 190.915 18.1108 190.579C18.6281 190.217 18.8868 189.648 18.8868 188.872C18.8868 188.096 18.6281 187.539 18.1108 187.203C17.6193 186.867 16.8045 186.699 15.6664 186.699H11.2432V191.083ZM11.2432 201.947H16.52C18.6928 201.947 19.7792 201.145 19.7792 199.542C19.7792 197.938 18.6928 197.136 16.52 197.136H11.2432V201.947ZM33.1937 208L37.5781 199.542L25.8605 180.646H34.6293L41.5357 192.131L47.4333 180.646H56.0081L41.8073 208H33.1937ZM66.3274 208.466C64.0252 208.466 61.9688 208.22 60.1582 207.728C58.3734 207.211 56.7567 206.513 55.3082 205.633L57.6362 199.658C58.6191 200.305 59.796 200.822 61.167 201.21C62.5638 201.572 64.0511 201.753 65.629 201.753C67.2327 201.753 68.4096 201.559 69.1598 201.171C69.9358 200.757 70.3238 200.111 70.3238 199.231C70.3238 198.585 70.0522 198.093 69.509 197.757C68.9916 197.421 68.151 197.252 66.987 197.252H60.197V190.967H66.211C67.375 190.967 68.2156 190.825 68.733 190.54C69.2503 190.23 69.509 189.725 69.509 189.027C69.509 188.432 69.2115 187.927 68.6166 187.514C68.0475 187.1 67.0775 186.893 65.7066 186.893C64.3356 186.893 62.9776 187.087 61.6326 187.475C60.2875 187.837 59.1364 188.341 58.1794 188.988L55.8514 183.013C57.093 182.159 58.645 181.474 60.5074 180.956C62.3956 180.439 64.452 180.18 66.6766 180.18C70.3238 180.18 73.0398 180.892 74.8246 182.314C76.6352 183.737 77.5406 185.535 77.5406 187.708C77.5406 189.13 77.1784 190.359 76.4542 191.394C75.7558 192.428 74.7728 193.217 73.5054 193.76C75.0574 194.252 76.2472 195.041 77.075 196.127C77.9027 197.214 78.3166 198.572 78.3166 200.201C78.3166 201.805 77.8768 203.228 76.9974 204.469C76.1179 205.711 74.7858 206.694 73.001 207.418C71.242 208.116 69.0175 208.466 66.3274 208.466ZM94.8454 208.466C91.9483 208.466 89.4392 207.871 87.3182 206.681C85.1971 205.491 83.5546 203.835 82.3906 201.714C81.2524 199.567 80.6834 197.097 80.6834 194.304C80.6834 191.484 81.2524 189.014 82.3906 186.893C83.5546 184.772 85.1971 183.129 87.3182 181.965C89.4392 180.775 91.9483 180.18 94.8454 180.18C97.7683 180.18 100.29 180.775 102.411 181.965C104.532 183.129 106.175 184.772 107.339 186.893C108.503 189.014 109.085 191.484 109.085 194.304C109.085 197.123 108.503 199.593 107.339 201.714C106.175 203.835 104.532 205.491 102.411 206.681C100.29 207.871 97.7683 208.466 94.8454 208.466ZM94.8454 201.52C96.7078 201.52 98.0787 200.887 98.9582 199.619C99.8635 198.326 100.316 196.554 100.316 194.304C100.316 192.053 99.8635 190.294 98.9582 189.027C98.0787 187.759 96.7078 187.126 94.8454 187.126C92.983 187.126 91.612 187.759 90.7326 189.027C89.879 190.268 89.4522 192.027 89.4522 194.304C89.4522 196.58 89.879 198.352 90.7326 199.619C91.612 200.887 92.983 201.52 94.8454 201.52ZM112.944 208V180.646H126.951C130.029 180.646 132.395 181.293 134.051 182.586C135.732 183.853 136.573 185.561 136.573 187.708C136.573 189.104 136.211 190.333 135.487 191.394C134.788 192.428 133.805 193.204 132.538 193.722C134.116 194.213 135.318 195.015 136.146 196.127C136.974 197.214 137.388 198.559 137.388 200.162C137.388 202.542 136.482 204.443 134.672 205.866C132.861 207.289 130.417 208 127.339 208H112.944ZM120.937 191.083H125.36C126.498 191.083 127.313 190.915 127.804 190.579C128.321 190.217 128.58 189.648 128.58 188.872C128.58 188.096 128.321 187.539 127.804 187.203C127.313 186.867 126.498 186.699 125.36 186.699H120.937V191.083ZM120.937 201.947H126.213C128.386 201.947 129.473 201.145 129.473 199.542C129.473 197.938 128.386 197.136 126.213 197.136H120.937V201.947ZM151.971 208V180.646H166.094C169.328 180.646 171.759 181.448 173.389 183.052C175.018 184.629 175.833 186.763 175.833 189.454C175.833 192.118 175.018 194.252 173.389 195.856C171.759 197.459 169.328 198.261 166.094 198.261H160.352V208H151.971ZM160.352 191.898H164.969C166.883 191.898 167.84 191.083 167.84 189.454C167.84 187.824 166.883 187.009 164.969 187.009H160.352V191.898ZM192.035 208.466C189.138 208.466 186.629 207.871 184.508 206.681C182.387 205.491 180.744 203.835 179.58 201.714C178.442 199.567 177.873 197.097 177.873 194.304C177.873 191.484 178.442 189.014 179.58 186.893C180.744 184.772 182.387 183.129 184.508 181.965C186.629 180.775 189.138 180.18 192.035 180.18C194.958 180.18 197.48 180.775 199.601 181.965C201.722 183.129 203.364 184.772 204.528 186.893C205.692 189.014 206.274 191.484 206.274 194.304C206.274 197.123 205.692 199.593 204.528 201.714C203.364 203.835 201.722 205.491 199.601 206.681C197.48 207.871 194.958 208.466 192.035 208.466ZM192.035 201.52C193.897 201.52 195.268 200.887 196.148 199.619C197.053 198.326 197.506 196.554 197.506 194.304C197.506 192.053 197.053 190.294 196.148 189.027C195.268 187.759 193.897 187.126 192.035 187.126C190.172 187.126 188.801 187.759 187.922 189.027C187.068 190.268 186.642 192.027 186.642 194.304C186.642 196.58 187.068 198.352 187.922 199.619C188.801 200.887 190.172 201.52 192.035 201.52ZM224.45 208.466C221.398 208.466 218.747 207.884 216.496 206.72C214.272 205.53 212.539 203.874 211.297 201.753C210.081 199.632 209.474 197.149 209.474 194.304C209.474 191.458 210.081 188.988 211.297 186.893C212.539 184.772 214.272 183.129 216.496 181.965C218.747 180.775 221.398 180.18 224.45 180.18C226.313 180.18 228.02 180.426 229.572 180.918C231.15 181.383 232.456 182.056 233.491 182.935L231.046 189.492C229.882 188.716 228.835 188.186 227.904 187.902C226.972 187.591 225.925 187.436 224.761 187.436C222.666 187.436 221.049 188.031 219.911 189.221C218.799 190.385 218.242 192.079 218.242 194.304C218.242 196.554 218.799 198.274 219.911 199.464C221.049 200.628 222.666 201.21 224.761 201.21C225.925 201.21 226.972 201.068 227.904 200.783C228.835 200.473 229.882 199.93 231.046 199.154L233.491 205.711C232.456 206.59 231.15 207.276 229.572 207.767C228.02 208.233 226.313 208.466 224.45 208.466ZM250.443 208.466C247.391 208.466 244.74 207.884 242.489 206.72C240.265 205.53 238.532 203.874 237.29 201.753C236.074 199.632 235.467 197.149 235.467 194.304C235.467 191.458 236.074 188.988 237.29 186.893C238.532 184.772 240.265 183.129 242.489 181.965C244.74 180.775 247.391 180.18 250.443 180.18C252.306 180.18 254.013 180.426 255.565 180.918C257.143 181.383 258.449 182.056 259.484 182.935L257.039 189.492C255.875 188.716 254.828 188.186 253.897 187.902C252.965 187.591 251.918 187.436 250.754 187.436C248.659 187.436 247.042 188.031 245.904 189.221C244.792 190.385 244.235 192.079 244.235 194.304C244.235 196.554 244.792 198.274 245.904 199.464C247.042 200.628 248.659 201.21 250.754 201.21C251.918 201.21 252.965 201.068 253.897 200.783C254.828 200.473 255.875 199.93 257.039 199.154L259.484 205.711C258.449 206.59 257.143 207.276 255.565 207.767C254.013 208.233 252.306 208.466 250.443 208.466ZM262.688 208V180.646H270.448V194.847L282.01 180.646H288.102V208H280.342V193.799L268.779 208H262.688ZM292.621 208V180.646H300.381V194.847L311.943 180.646H318.035V208H310.275V193.799L298.713 208H292.621Z" fill="white"/>
</svg>
