<svg width="360" height="278" viewBox="0 0 360 278" fill="none" xmlns="http://www.w3.org/2000/svg">
<g opacity="0.1">
<path d="M-498 48.1022C-498 48.1022 -473.68 48.1021 -431.628 48.1637C-410.448 47.6712 -389.33 47.0556 -368.335 45.9474C-130.799 2.36138 101.626 36.59 337.745 48.1022C357.139 48.1022 376.472 48.1022 395.743 48.1022C430.407 48.1022 464.701 48.1022 498.441 48.1022C515.311 48.1022 531.997 48.1022 548.559 48.1022C621.272 50.2568 703.283 50.2568 778.152 48.1022C805.735 48.1022 831.84 48.1022 856.283 48.1022C978.314 48.1022 1057 48.1022 1057 48.1022" stroke="white" stroke-miterlimit="10"/>
<path d="M-498 129.919C-498 129.919 -482.423 129.918 -454.84 129.98C-430.643 128.133 -406.508 125.917 -382.619 122.408C-151.302 43.4236 94.7914 70.7571 336.76 129.549C357.078 129.857 376.472 129.919 395.682 129.919C742.01 129.919 1056.88 129.919 1056.88 129.919" stroke="white" stroke-miterlimit="10"/>
<path d="M-498 211.735C-498 211.735 -482.423 211.735 -454.963 211.796C-433.968 214.505 -413.711 214.32 -394.071 211.304C-315.385 193.758 -253.877 139.091 -171.805 118.591C5.94655 77.5904 156.361 173.258 327.894 197.822C351.475 201.885 373.824 206.502 395.743 211.735C415.014 211.735 434.163 211.735 453.126 211.735C776.12 211.735 1056.94 211.735 1056.94 211.735" stroke="white" stroke-miterlimit="10"/>
<path d="M-498 293.612C-498 293.612 -482.423 293.612 -454.593 293.612C-440.309 294.29 -425.717 295.213 -411.31 295.582C-315.385 309.988 -274.379 207.487 -192.307 180.153C-123.965 152.82 -48.7272 166.486 19.615 186.987C122.19 221.154 217.869 262.154 328.325 276.498C351.598 281.485 373.701 286.964 395.559 292.751C414.953 293.551 434.101 293.551 453.065 293.612C776.058 293.612 1056.88 293.612 1056.88 293.612" stroke="white" stroke-miterlimit="10"/>
<path d="M-498 375.429C-498 375.429 -482.423 375.429 -454.47 375.429C-440.494 375.429 -423.378 375.429 -403.737 375.367C-363.286 364.655 -308.612 385.217 -281.275 350.988C-110.358 152.758 128.901 330.488 330.049 355.175C351.906 360.9 373.701 367.302 395.559 374.444C414.891 375.305 434.04 375.305 453.065 375.367C776.058 375.367 1056.88 375.367 1056.88 375.367" stroke="white" stroke-miterlimit="10"/>
<path d="M74.5368 613.428C69.7344 589.234 64.8704 565.163 59.3292 541.216C-21.4501 330.488 -83.0196 98.0907 73.3055 -98.1081C74.5369 -117.562 74.8447 -137.015 74.8447 -156.469C74.8447 -237.423 74.8447 -318.439 74.8447 -395.885C74.8447 -411.398 74.8447 -426.727 74.8447 -441.933C74.229 -523.934 74.229 -605.996 74.8447 -690.952C74.8447 -715.269 74.8447 -738.171 74.8447 -759.533C74.8447 -866.405 74.8447 -933.877 74.8447 -933.877" stroke="white" stroke-miterlimit="10"/>
<path d="M156.547 615.521C153.777 593.851 151.191 572.181 148.728 550.45C145.219 528.842 141.894 507.172 137.769 485.563C53.7879 289.488 94.7932 91.2574 156.055 -98.1696C156.732 -123.656 156.732 -149.205 156.732 -174.692C156.732 -200.178 156.732 -225.665 156.732 -251.029C156.732 -267.897 156.732 -284.765 156.732 -301.51C157.533 -322.502 158.148 -343.495 158.579 -364.549C159.01 -385.604 159.257 -406.72 159.318 -428.082C156.363 -558.163 156.363 -681.225 156.732 -807.736C156.732 -827.374 156.732 -845.104 156.732 -860.618C156.732 -907.159 156.732 -933.938 156.732 -933.938" stroke="white" stroke-miterlimit="10"/>
<path d="M238.559 619.215C237.881 597.176 237.266 575.136 236.835 553.159C236.28 530.996 235.849 508.895 235.357 486.61C190.473 316.821 217.81 139.091 238.066 -40.2398C238.559 -59.5087 238.559 -78.8393 238.559 -98.2314C238.559 -115.223 238.559 -132.214 238.559 -149.205C238.559 -166.196 238.559 -183.187 238.559 -200.178C240.775 -215.384 242.684 -230.344 244.284 -245.18C245.824 -259.955 247.117 -274.607 248.163 -289.197C265.711 -496.6 238.374 -694.831 238.559 -900.202C238.559 -921.934 238.559 -933.815 238.559 -933.815" stroke="white" stroke-miterlimit="10"/>
<path d="M320.379 620.877C320.379 573.905 320.379 527.61 320.379 481.685C320.379 458.722 320.379 435.883 320.379 413.105C320.379 390.327 320.195 367.61 319.702 345.017C313.545 234.882 320.379 125.486 320.441 17.198C320.441 1.62271 320.441 -14.1372 320.441 -29.8971C320.441 -45.657 320.441 -61.5401 320.441 -77.4232C320.441 -93.3062 320.441 -109.251 320.441 -125.195C328.999 -146.003 336.018 -166.935 341.744 -188.05C381.949 -435.038 313.607 -687.936 320.441 -933.815" stroke="white" stroke-miterlimit="10"/>
</g>
</svg>
