<svg width="1339" height="327" viewBox="0 0 1339 327" fill="none" xmlns="http://www.w3.org/2000/svg">
<g opacity="0.1">
<path d="M-8 15.286C-8 15.286 7.57709 15.286 35.5297 15.286C49.5059 15.286 66.6223 15.286 86.4477 15.286C110.275 15.5322 134.041 15.6553 157.684 15.6553C365.973 3.58912 564.227 17.2559 769.438 15.286C793.758 15.286 818.017 15.286 842.214 15.286C866.41 15.286 890.546 15.2859 914.558 15.3475C1056.48 17.2559 1206.83 17.2559 1350.84 15.4706C1380.52 15.2859 1407.67 15.286 1431.68 15.286C1503.66 15.286 1546.88 15.286 1546.88 15.286" stroke="white" stroke-miterlimit="10"/>
<path d="M-8 97.1022C-8 97.1022 16.32 97.1021 58.372 97.1637C79.5519 96.6712 100.67 96.0556 121.665 94.9474C359.201 51.3614 591.626 85.59 827.745 97.1022C847.139 97.1022 866.472 97.1022 885.743 97.1022C920.407 97.1022 954.701 97.1022 988.441 97.1022C1005.31 97.1022 1022 97.1022 1038.56 97.1022C1111.27 99.2568 1193.28 99.2568 1268.15 97.1022C1295.73 97.1022 1321.84 97.1022 1346.28 97.1022C1468.31 97.1022 1547 97.1022 1547 97.1022" stroke="white" stroke-miterlimit="10"/>
<path d="M-8 178.919C-8 178.919 7.57709 178.918 35.1602 178.98C59.3571 177.133 83.4923 174.917 107.381 171.408C338.698 92.4236 584.791 119.757 826.76 178.549C847.078 178.857 866.472 178.919 885.682 178.919C1232.01 178.919 1546.88 178.919 1546.88 178.919" stroke="white" stroke-miterlimit="10"/>
<path d="M-8 260.735C-8 260.735 7.57709 260.735 35.0371 260.796C56.0323 263.505 76.2887 263.32 95.9294 260.304C174.615 242.758 236.123 188.091 318.195 167.591C495.947 126.59 646.361 222.258 817.894 246.822C841.475 250.885 863.824 255.502 885.743 260.735C905.014 260.735 924.163 260.735 943.126 260.735C1266.12 260.735 1546.94 260.735 1546.94 260.735" stroke="white" stroke-miterlimit="10"/>
<path d="M-8 342.612C-8 342.612 7.57709 342.612 35.4065 342.612C49.6906 343.29 64.2826 344.213 78.6899 344.582C174.615 358.988 215.621 256.487 297.693 229.153C366.035 201.82 441.273 215.486 509.615 235.987C612.19 270.154 707.869 311.154 818.325 325.498C841.598 330.485 863.701 335.964 885.559 341.751C904.953 342.551 924.101 342.551 943.065 342.612C1266.06 342.612 1546.88 342.612 1546.88 342.612" stroke="white" stroke-miterlimit="10"/>
<path d="M-8 424.429C-8 424.429 7.57709 424.429 35.5297 424.429C49.5059 424.429 66.6223 424.429 86.263 424.367C126.714 413.655 181.388 434.217 208.725 399.988C379.642 201.758 618.901 379.488 820.049 404.175C841.906 409.9 863.701 416.302 885.559 423.444C904.891 424.305 924.04 424.305 943.065 424.367C1266.06 424.367 1546.88 424.367 1546.88 424.367" stroke="white" stroke-miterlimit="10"/>
<path d="M73.827 669.877C73.827 669.877 73.827 607.699 73.827 508.215C73.827 483.344 73.827 456.133 73.7654 427.014C73.2113 386.137 72.7803 345.937 72.5956 306.044C72.4109 266.091 72.4109 226.506 72.5956 186.675C72.7803 146.845 73.1497 106.829 73.7038 66.198C73.827 47.1753 73.8885 28.0295 73.8885 8.82206C73.8885 -414.48 73.8885 -884.754 73.8885 -884.754" stroke="white" stroke-miterlimit="10"/>
<path d="M155.653 669.877C155.653 669.877 155.653 634.91 155.653 575.441C155.653 555.618 155.653 533.086 155.653 508.03C147.28 365.821 147.28 229.092 149.62 87.8679C151.528 42.6196 153.56 -3.61361 155.653 -49.2312C155.653 -68.6233 155.653 -88.0769 155.653 -107.469C155.653 -496.173 155.653 -884.815 155.653 -884.815" stroke="white" stroke-miterlimit="10"/>
<path d="M237.537 669.877C237.537 669.877 237.537 661.135 237.537 644.945C237.537 628.754 237.537 605.175 237.475 575.195C201.949 386.322 195.115 181.258 229.163 -8.53859C231.811 -29.9622 234.52 -52.0015 237.414 -74.1023C237.598 -90.7857 237.598 -107.469 237.598 -124.091C237.598 -507.131 237.598 -884.815 237.598 -884.815" stroke="white" stroke-miterlimit="10"/>
<path d="M319.368 669.877C315.858 647.961 312.411 626.168 309.147 604.437C270.297 393.155 236.126 174.424 303.36 -34.3332C308.224 -54.8334 313.396 -76.1954 319.183 -97.7422C319.306 -115.595 319.306 -133.387 319.306 -151.178C319.306 -524.738 319.306 -884.815 319.306 -884.815" stroke="white" stroke-miterlimit="10"/>
<path d="M401.193 668.215C401.932 649.192 401.193 630.539 399.161 612.193C379.705 468.384 277.13 338.549 297.633 181.319C311.301 78.7567 407.042 10.4225 401.131 -100.143C401.193 -117.134 401.193 -134.187 401.193 -151.117C401.193 -524.676 401.193 -884.754 401.193 -884.754" stroke="white" stroke-miterlimit="10"/>
<path d="M482.831 664.337C482.708 640.758 480.368 617.734 475.874 594.833C400.205 393.155 284.023 181.258 461.774 -16.9726C482.277 -30.6394 489.111 -64.8064 483.077 -100.205C483.077 -117.196 483.077 -134.187 483.077 -151.178C483.016 -524.738 483.016 -884.815 483.016 -884.815" stroke="white" stroke-miterlimit="10"/>
<path d="M564.537 662.428C559.734 638.234 554.87 614.163 549.329 590.216C468.55 379.488 406.98 147.091 563.305 -49.1081C564.537 -68.5618 564.845 -88.0154 564.845 -107.469C564.845 -188.423 564.845 -269.439 564.845 -346.885C564.845 -362.398 564.845 -377.727 564.845 -392.933C564.229 -474.934 564.229 -556.996 564.845 -641.952C564.845 -666.269 564.845 -689.171 564.845 -710.533C564.845 -817.405 564.845 -884.877 564.845 -884.877" stroke="white" stroke-miterlimit="10"/>
<path d="M646.547 664.521C643.777 642.851 641.191 621.181 638.728 599.45C635.219 577.842 631.894 556.172 627.769 534.563C543.788 338.488 584.793 140.257 646.055 -49.1696C646.732 -74.6564 646.732 -100.205 646.732 -125.692C646.732 -151.178 646.732 -176.665 646.732 -202.029C646.732 -218.897 646.732 -235.765 646.732 -252.51C647.533 -273.502 648.148 -294.495 648.579 -315.549C649.01 -336.604 649.257 -357.72 649.318 -379.082C646.363 -509.163 646.363 -632.225 646.732 -758.736C646.732 -778.374 646.732 -796.104 646.732 -811.618C646.732 -858.159 646.732 -884.938 646.732 -884.938" stroke="white" stroke-miterlimit="10"/>
<path d="M728.559 668.215C727.881 646.176 727.266 624.136 726.835 602.159C726.28 579.996 725.849 557.895 725.357 535.61C680.473 365.821 707.81 188.091 728.066 8.76024C728.559 -10.5087 728.559 -29.8393 728.559 -49.2314C728.559 -66.2225 728.559 -83.2136 728.559 -100.205C728.559 -117.196 728.559 -134.187 728.559 -151.178C730.775 -166.384 732.684 -181.344 734.284 -196.18C735.824 -210.955 737.117 -225.607 738.163 -240.197C755.711 -447.6 728.374 -645.831 728.559 -851.202C728.559 -872.934 728.559 -884.815 728.559 -884.815" stroke="white" stroke-miterlimit="10"/>
<path d="M810.379 669.877C810.379 622.905 810.379 576.61 810.379 530.685C810.379 507.722 810.379 484.883 810.379 462.105C810.379 439.327 810.195 416.61 809.702 394.017C803.545 283.882 810.379 174.486 810.441 66.198C810.441 50.6227 810.441 34.8628 810.441 19.1029C810.441 3.34296 810.441 -12.5401 810.441 -28.4232C810.441 -44.3062 810.441 -60.2508 810.441 -76.1954C818.999 -97.0035 826.018 -117.935 831.744 -139.05C871.949 -386.038 803.607 -638.936 810.441 -884.815" stroke="white" stroke-miterlimit="10"/>
<path d="M892.21 669.877C892.21 669.877 892.21 634.91 892.21 575.441C892.21 555.618 892.21 533.086 892.21 508.153C892.395 434.155 892.395 358.988 892.21 283.944C892.21 266.891 892.21 249.53 892.21 231.8C892.21 177.933 892.21 121.296 892.21 63.4276C892.21 44.0971 892.21 24.6434 892.21 5.12819C892.271 -26.4532 894.057 -57.6037 900.891 -85.9839C907.725 -114.364 919.731 -140.035 940.111 -160.597C967.571 -194.703 988.074 -235.703 988.074 -283.537C974.405 -488.601 864.996 -673.164 892.148 -884.877" stroke="white" stroke-miterlimit="10"/>
<path d="M974.034 669.877C974.034 669.877 974.034 416.425 974.034 114.216C974.034 98.3334 974.034 82.2657 974.034 66.1364C963.998 14.3625 977.728 -32.0554 998.292 -75.7646C1005.13 -90.3548 1012.76 -104.576 1020.46 -118.673C1070.08 -187.808 1090.58 -269.87 1076.92 -358.704C1035.91 -543.268 947.005 -700.498 973.972 -884.877" stroke="white" stroke-miterlimit="10"/>
<path d="M1055.86 669.877C1055.86 669.877 1055.86 442.405 1055.86 161.496C1055.86 145.859 1055.86 130.1 1055.86 114.216C1042.56 22.2425 1083.75 -54.0331 1118.72 -133.141C1127.46 -152.902 1135.78 -172.848 1142.67 -193.287C1158.99 -235.703 1165.82 -283.599 1158.99 -324.599C1104.31 -515.996 1029.08 -686.893 1055.86 -884.877" stroke="white" stroke-miterlimit="10"/>
<path d="M1137.75 669.877C1137.75 669.877 1137.75 442.405 1137.75 161.496C1137.75 145.86 1137.75 130.1 1137.75 114.217C1127.03 16.271 1167.98 -71.2089 1193.78 -164.907C1198.95 -183.622 1203.5 -202.644 1206.89 -221.975C1213.72 -413.372 1118.04 -597.935 1137.62 -790.748C1137.75 -820.113 1137.75 -843.692 1137.75 -859.883C1137.75 -876.073 1137.75 -884.815 1137.75 -884.815" stroke="white" stroke-miterlimit="10"/>
<path d="M1219.57 669.877C1219.57 669.877 1219.57 442.405 1219.57 161.496C1219.57 144.998 1219.57 128.253 1219.57 111.385C1233.73 -14.3254 1247.65 -138.681 1251.1 -263.591C1251.65 -288.524 1251.84 -313.518 1251.4 -338.635C1247.96 -468.101 1220.62 -591.163 1219.51 -723.214C1219.57 -748.024 1219.57 -770.556 1219.57 -790.44C1219.57 -849.909 1219.57 -884.877 1219.57 -884.877" stroke="white" stroke-miterlimit="10"/>
<path d="M1301.4 669.877C1301.4 669.877 1301.4 416.426 1301.4 114.217C1301.4 96.4251 1301.4 78.5105 1301.46 60.4728C1311.8 -84.6294 1314.94 -225.299 1310.76 -366.584C1310.14 -386.777 1309.4 -406.969 1308.48 -427.162C1302.57 -481.706 1302.57 -543.268 1301.4 -596.704C1301.4 -625.146 1301.4 -652.049 1301.4 -677.227C1301.4 -803.122 1301.4 -884.754 1301.4 -884.754" stroke="white" stroke-miterlimit="10"/>
</g>
</svg>
