<svg width="154" height="379" viewBox="0 0 154 379" fill="none" xmlns="http://www.w3.org/2000/svg">
<g filter="url(#filter0_d_456_2972)">
<path fill-rule="evenodd" clip-rule="evenodd" d="M89.578 82.9213L113.584 53.5195C114.139 52.8418 115.016 52.5942 115.838 52.8909C116.662 53.1856 117.186 53.9298 117.186 54.8041V99.6419C117.186 100.76 118.1 101.674 119.216 101.674H138.782C139.901 101.674 140.812 100.76 140.812 99.6419V15.6569C140.812 14.5389 139.901 13.625 138.782 13.625H118.194C117.538 13.625 116.974 13.9027 116.578 14.4261L88.9687 50.7573V50.5856L78.7603 63.7701C78.3624 64.2836 77.804 64.5578 77.1552 64.5578C76.508 64.5578 75.9497 64.2836 75.5518 63.7701L65.3434 50.5856V50.7573L37.7345 14.4261C37.3366 13.9027 36.7744 13.625 36.1181 13.625H15.5298C14.4116 13.625 13.5004 14.5389 13.5004 15.6569V99.6419C13.5004 100.76 14.4116 101.674 15.5298 101.674H35.0943C36.2125 101.674 37.1256 100.76 37.1256 99.6419V54.8041C37.1256 53.9298 37.65 53.1856 38.4722 52.8909C39.2965 52.5942 40.1737 52.8418 40.726 53.5195L64.7342 82.9213C65.1336 83.4107 65.6753 83.6695 66.3052 83.6695H88.0042C88.636 83.6695 89.1773 83.4107 89.5772 82.9213H89.578ZM13.5004 276.733V360.716C13.5004 361.836 14.4116 362.75 15.5298 362.75H35.0943C36.2125 362.75 37.1256 361.836 37.1256 360.716V331.926C37.1256 330.806 38.0364 329.894 39.155 329.894H42.0766C43.1011 329.894 43.9514 330.642 44.0889 331.657C46.675 350.893 58.4734 365.375 89.6851 365.375H94.4104C130.503 365.375 140.61 345.926 140.61 322.143V315.305C140.61 291.522 130.504 272.071 94.4104 272.071H89.6851C57.8243 272.071 46.2562 287.186 43.9305 307.069C43.812 308.099 42.9494 308.869 41.9161 308.869H39.1547C38.0361 308.869 37.1253 307.955 37.1253 306.835V276.733C37.1253 275.613 36.2121 274.698 35.0939 274.698H15.5294C14.4112 274.698 13.5 275.613 13.5 276.733L13.5004 276.733ZM67.1092 318.722C67.1092 305.451 67.1092 293.228 92.0471 293.228C116.985 293.228 116.985 305.451 116.985 318.722C116.985 332.128 116.985 344.349 92.0471 344.349C67.1092 344.349 67.1092 332.128 67.1092 318.722ZM65.3438 146.196V209.151C65.3438 210.271 64.4311 211.184 63.3145 211.184H39.1554C38.0368 211.184 37.126 210.271 37.126 209.151V146.196C37.126 145.076 36.213 144.162 35.0948 144.162H15.5301C14.4119 144.162 13.5008 145.076 13.5008 146.196V230.178C13.5008 231.296 14.4119 232.211 15.5301 232.211H138.783C139.901 232.211 140.812 231.296 140.812 230.178V146.196C140.812 145.076 139.901 144.162 138.783 144.162H119.219C118.1 144.162 117.187 145.076 117.187 146.196V209.151C117.187 210.271 116.277 211.184 115.158 211.184H90.9989C89.8803 211.184 88.9695 210.271 88.9695 209.151V146.196C88.9695 145.076 88.0564 144.162 86.9397 144.162H67.3736C66.2554 144.162 65.3442 145.076 65.3442 146.196H65.3438Z" fill="#FEFEFE"/>
</g>
<defs>
<filter id="filter0_d_456_2972" x="0.375" y="0.5" width="153.562" height="378" filterUnits="userSpaceOnUse" color-interpolation-filters="sRGB">
<feFlood flood-opacity="0" result="BackgroundImageFix"/>
<feColorMatrix in="SourceAlpha" type="matrix" values="0 0 0 0 0 0 0 0 0 0 0 0 0 0 0 0 0 0 127 0" result="hardAlpha"/>
<feOffset/>
<feGaussianBlur stdDeviation="6.5625"/>
<feComposite in2="hardAlpha" operator="out"/>
<feColorMatrix type="matrix" values="0 0 0 0 0 0 0 0 0 0 0 0 0 0 0 0 0 0 0.1 0"/>
<feBlend mode="normal" in2="BackgroundImageFix" result="effect1_dropShadow_456_2972"/>
<feBlend mode="normal" in="SourceGraphic" in2="effect1_dropShadow_456_2972" result="shape"/>
</filter>
</defs>
</svg>
