<svg width="441" height="441" viewBox="0 0 441 441" fill="none" xmlns="http://www.w3.org/2000/svg">
<path opacity="0.25" d="M443.689 -4.54425C443.689 -4.54425 388.937 -4.54425 317.74 -4.54425C312.66 -4.54425 307.491 -4.54425 302.251 -4.54425C281.079 -4.61505 259.465 -4.61505 236.931 -4.54425C231.354 -4.54425 225.778 -4.54425 220.185 -4.54425C108.432 -4.54425 -3.33789 -4.54425 -3.33789 -4.54425L-3.33789 442.448C-3.33789 442.448 30.4728 442.448 79.4895 442.448C83.9504 442.43 88.5352 442.43 93.2262 442.395C105.299 442.164 117.319 442.005 129.285 441.881C141.252 441.757 153.183 441.722 165.114 441.722C177.045 441.722 188.976 441.775 200.925 441.899C212.891 442.023 224.876 442.182 236.931 442.412C242.507 442.412 248.065 442.43 253.606 442.43C353.179 442.43 443.707 442.43 443.707 442.43M-3.33789 18.9788C-3.33789 18.9788 87.1899 18.9788 186.763 18.9788C192.304 18.9788 197.862 18.9788 203.421 18.9788C245.693 16.9965 286.974 16.9965 330.875 18.9611C335.194 18.9788 339.425 18.9788 343.585 18.9788C401.753 18.9788 443.689 18.9788 443.689 18.9788M-3.33789 42.5019C-3.33789 42.5019 77.4184 42.5019 170.265 42.5019C175.735 42.5196 181.24 42.5373 186.799 42.5904C239.798 42.5373 294.834 38.608 347.125 42.4488C351.834 42.5019 356.419 42.5019 360.88 42.5019C409.896 42.5019 443.707 42.5019 443.707 42.5019M-3.33789 66.025C-3.33789 66.025 59.5217 66.025 138.118 66.025C143.358 66.025 148.669 66.025 154.032 66.025C159.538 66.025 165.025 66.1843 170.495 66.4321C233.921 66.1312 298.781 64.1666 360.791 65.9542C369.023 66.0427 376.794 66.0427 384.051 66.0427C420.252 66.0427 443.725 66.0427 443.725 66.0427M-3.33789 89.5658C-3.33789 89.5658 59.5217 89.5658 138.118 89.5658C143.358 89.5658 148.669 89.5658 154.032 89.5658C158.582 89.0348 163.078 88.8224 167.521 88.8755C198.535 89.7251 226.062 95.6192 257.5 99.5485C296.816 105.443 334.15 93.6545 373.855 89.5658C382.246 89.5658 390.07 89.5658 397.222 89.5658C425.828 89.5658 443.707 89.5658 443.707 89.5658M-3.33789 113.089C-3.33789 113.089 59.5217 113.089 138.118 113.089C143.358 113.089 148.669 113.089 154.032 113.089C158.582 112.735 163.078 112.7 167.521 112.912C171.982 113.124 176.39 113.567 180.709 114.027C226.044 115.266 265.36 140.825 308.606 142.789C332.185 142.789 349.887 123.142 371.749 115.142C375.714 113.744 379.768 112.753 383.998 112.346C388.211 111.956 392.602 112.133 397.222 113.089C404.373 113.089 410.852 113.089 416.552 113.089C433.652 113.089 443.707 113.089 443.707 113.089M-3.33789 136.612C-3.33789 136.612 59.5217 136.612 138.118 136.612C143.358 136.612 148.669 136.612 154.032 136.612C160.476 136.329 166.76 136.47 172.956 136.966C179.151 137.462 185.241 138.223 191.153 138.966C220.167 140.825 245.711 152.613 271.272 164.401C312.553 182.083 347.922 158.507 382.529 139.798C387.787 137.851 393.203 136.417 398.85 135.798C404.497 135.178 410.374 135.355 416.57 136.612C425.12 136.612 431.918 136.612 436.555 136.612C441.211 136.612 443.725 136.612 443.725 136.612M-3.33789 160.135C-3.33789 160.135 68.1957 160.135 154.032 160.135C159.396 160.135 164.813 160.135 170.283 160.153C176.726 161.498 183.152 162.737 189.543 163.87C243.764 170.295 298.799 195.853 353.427 180.844C359.446 179.198 365.447 177.038 371.412 174.33C377.378 171.622 383.308 168.33 389.22 164.401C399.045 158.507 406.905 160.471 416.623 160.171C425.138 160.135 431.935 160.135 436.573 160.135C441.229 160.135 443.742 160.135 443.742 160.135M-3.33789 183.658C-3.33789 183.658 87.1899 183.658 186.763 183.658C192.304 183.658 197.88 183.676 203.739 184.012C245.711 197.818 288.939 201.747 331.742 198.986C338.823 198.367 345.904 197.553 352.985 196.579C374.227 193.641 395.434 189.145 416.641 183.747C425.102 183.658 431.9 183.658 436.538 183.658C441.193 183.658 443.707 183.658 443.707 183.658M-3.33789 207.199C-3.33789 207.199 97.5278 207.199 203.439 207.199C209.015 207.199 214.608 207.199 220.308 207.323C261.43 213.553 300.746 223.377 343.974 217.483C369.518 213.553 391.15 205.695 416.588 207.234C422.252 207.199 427.173 207.199 431.192 207.199C439.246 207.199 443.707 207.199 443.707 207.199M-3.33789 230.722C-3.33789 230.722 16.0634 230.722 46.794 230.722C52.9366 230.722 59.5217 230.722 66.4786 230.722C71.1342 230.811 75.8252 230.881 80.5516 230.934C85.278 230.988 90.0222 231.023 94.784 231.041C117.974 231.218 141.57 231.218 164.76 230.722C169.309 230.722 173.894 230.722 178.514 230.722C192.269 230.722 206.235 230.722 220.202 230.722C225.796 230.722 231.372 230.722 236.984 230.74C292.886 237.112 347.922 235.147 402.603 230.846C410.976 230.722 418.393 230.722 424.5 230.722C436.732 230.722 443.707 230.722 443.707 230.722M-3.33789 254.245C-3.33789 254.245 1.1407 254.245 9.17738 254.245C13.1957 254.245 18.1169 254.245 23.8169 254.245C30.6675 254.316 37.5005 254.351 44.298 254.351C104.184 250.882 161.184 254.812 220.185 254.245C227.177 254.245 234.151 254.245 241.108 254.245C248.065 254.245 255.004 254.245 261.908 254.263C302.711 254.812 345.939 254.812 387.344 254.298C395.876 254.245 403.683 254.245 410.587 254.245C431.28 254.245 443.707 254.245 443.707 254.245M-3.33789 277.768C-3.33789 277.768 3.65438 277.768 15.7448 277.786C21.8343 277.644 27.906 277.467 33.9424 277.149C102.237 264.617 169.061 274.458 236.948 277.768C242.524 277.768 248.083 277.768 253.624 277.768C263.59 277.768 273.45 277.768 283.15 277.768C288.001 277.768 292.798 277.768 297.56 277.768C318.466 278.388 342.045 278.388 363.57 277.768C371.501 277.768 379.006 277.768 386.034 277.768C421.119 277.768 443.742 277.768 443.742 277.768M-3.33789 301.291C-3.33789 301.291 1.1407 301.291 9.07117 301.309C16.028 300.778 22.9672 300.141 29.8356 299.132C96.3418 276.423 167.096 284.282 236.665 301.185C242.507 301.274 248.083 301.291 253.606 301.291C353.179 301.291 443.707 301.291 443.707 301.291M-3.33789 324.814C-3.33789 324.814 1.1407 324.814 9.03577 324.832C15.0721 325.611 20.8961 325.558 26.543 324.691C49.1661 319.646 66.8503 303.929 90.447 298.035C141.553 286.247 184.798 313.752 234.116 320.814C240.896 321.983 247.322 323.31 253.624 324.814C259.164 324.814 264.67 324.814 270.122 324.814C362.986 324.814 443.725 324.814 443.725 324.814M-3.33789 348.355C-3.33789 348.355 1.1407 348.355 9.14198 348.355C13.2488 348.55 17.4442 348.815 21.5864 348.922C49.1661 353.063 60.9556 323.593 84.5523 315.734C104.201 307.876 125.833 311.805 145.482 317.699C174.974 327.523 202.483 339.311 234.24 343.435C240.931 344.868 247.286 346.444 253.57 348.107C259.147 348.338 264.652 348.338 270.104 348.355C362.968 348.355 443.707 348.355 443.707 348.355M-3.33789 371.878C-3.33789 371.878 1.1407 371.878 9.17738 371.878C13.1957 371.878 18.1169 371.878 23.7638 371.861C35.394 368.781 51.1133 374.693 58.973 364.852C108.114 307.858 176.903 358.957 234.736 366.055C241.02 367.701 247.286 369.542 253.57 371.595C259.129 371.843 264.634 371.843 270.104 371.861C362.968 371.861 443.707 371.861 443.707 371.861M-3.33789 395.401C-3.33789 395.401 6.71681 395.401 23.8169 395.401C29.5169 395.401 35.9958 395.401 43.1474 395.331C49.1661 394.339 55.0608 396.322 58.9907 394.339C108.131 355.028 163.167 378.622 215.635 387.348C222.149 388.552 228.469 389.791 234.789 391.153C241.037 392.428 247.322 393.808 253.606 395.278C259.147 395.366 264.634 395.384 270.104 395.401C362.968 395.401 443.707 395.401 443.707 395.401M-3.33789 418.925C-3.33789 418.925 14.5411 418.925 43.1474 418.925C50.299 418.925 58.1233 418.925 66.514 418.907C72.692 417.314 78.9053 415.969 85.1187 414.8C115.991 410.057 147.43 408.092 178.797 411.597C185.117 412.004 191.366 412.482 197.597 412.995C203.775 413.526 209.935 414.075 216.042 414.659C222.273 415.19 228.522 415.809 234.771 416.517C241.02 417.225 247.304 418.022 253.588 418.907C259.129 418.907 264.616 418.925 270.086 418.925C362.951 418.925 443.689 418.925 443.689 418.925M20.188 442.448C20.188 442.448 20.188 424.571 20.188 395.968C20.188 388.817 20.188 380.994 20.1703 372.622C20.011 360.869 19.8871 349.311 19.834 337.842C19.7808 326.354 19.7808 314.973 19.834 303.522C19.8871 292.07 19.9933 280.565 20.1526 268.883C20.188 263.414 20.2057 257.909 20.2057 252.387C20.2057 130.683 20.2057 -4.52655 20.2057 -4.52655M43.7139 442.448C43.7139 442.448 43.7139 432.394 43.7139 415.296C43.7139 409.597 43.7139 403.119 43.7139 395.915C41.3064 355.028 41.3064 315.717 41.9791 275.113C42.5279 262.104 43.112 248.811 43.7139 235.696C43.7139 230.12 43.7139 224.527 43.7139 218.952C43.7139 107.195 43.7139 -4.54425 43.7139 -4.54425M67.2575 442.448C67.2575 442.448 67.2575 439.934 67.2575 435.279C67.2575 430.624 67.2575 423.845 67.2398 415.225C57.0257 360.922 55.0608 301.964 64.85 247.395C65.6112 241.236 66.3901 234.899 67.2221 228.545C67.2752 223.748 67.2752 218.952 67.2752 214.173C67.2752 104.044 67.2752 -4.54425 67.2752 -4.54425M90.7833 442.448C89.7743 436.147 88.783 429.881 87.8448 423.633C76.6749 362.887 66.8503 299.999 86.1808 239.979C87.5793 234.085 89.0663 227.943 90.7302 221.748C90.7656 216.615 90.7656 211.5 90.7656 206.385C90.7656 98.9821 90.7656 -4.54425 90.7656 -4.54425M114.309 441.97C114.522 436.5 114.309 431.137 113.725 425.863C108.131 384.516 78.6398 347.187 84.5346 301.982C88.4644 272.494 115.991 252.847 114.292 221.058C114.309 216.173 114.309 211.27 114.309 206.403C114.309 98.9998 114.309 -4.52655 114.309 -4.52655M137.782 440.855C137.747 434.076 137.074 427.456 135.782 420.872C114.026 362.887 80.6224 301.964 131.728 244.97C137.623 241.041 139.588 231.218 137.853 221.04C137.853 216.155 137.853 211.27 137.853 206.385C137.835 98.9821 137.835 -4.54425 137.835 -4.54425M161.272 440.306C159.892 433.35 158.493 426.429 156.9 419.544C133.675 358.957 115.973 292.141 160.918 235.731C161.272 230.138 161.361 224.545 161.361 218.952C161.361 195.676 161.361 172.383 161.361 150.117C161.361 145.657 161.361 141.249 161.361 136.878C161.184 113.301 161.184 89.7074 161.361 65.2816C161.361 58.2902 161.361 51.7059 161.361 45.564C161.361 14.8371 161.361 -4.56195 161.361 -4.56195M184.851 440.908C184.055 434.677 183.311 428.447 182.603 422.199C181.594 415.986 180.638 409.756 179.452 403.543C155.307 347.169 167.096 290.176 184.71 235.713C184.905 228.386 184.905 221.04 184.905 213.713C184.905 206.385 184.905 199.057 184.905 191.765C184.905 186.915 184.905 182.065 184.905 177.251C185.135 171.215 185.312 165.18 185.436 159.126C185.56 153.073 185.63 147.002 185.648 140.86C184.798 103.46 184.798 68.0782 184.905 31.705C184.905 26.0588 184.905 20.9612 184.905 16.5009C184.905 3.11978 184.905 -4.57965 184.905 -4.57965M208.43 441.97C208.236 435.633 208.059 429.297 207.935 422.978C207.776 416.606 207.652 410.252 207.51 403.844C194.605 355.028 202.465 303.929 208.289 252.369C208.43 246.829 208.43 241.271 208.43 235.696C208.43 230.811 208.43 225.925 208.43 221.04C208.43 216.155 208.43 211.27 208.43 206.385C209.068 202.013 209.616 197.712 210.077 193.446C210.519 189.198 210.891 184.986 211.192 180.791C216.237 121.16 208.377 64.1665 208.43 5.11986C208.43 -1.12818 208.43 -4.54425 208.43 -4.54425M231.956 442.448C231.956 428.943 231.956 415.632 231.956 402.428C231.956 395.826 231.956 389.26 231.956 382.711C231.956 376.162 231.903 369.63 231.762 363.135C229.991 331.47 231.956 300.017 231.974 268.883C231.974 264.405 231.974 259.874 231.974 255.343C231.974 250.811 231.974 246.245 231.974 241.678C231.974 237.112 231.974 232.527 231.974 227.943C234.435 221.961 236.453 215.943 238.099 209.872C249.658 138.86 230.009 66.1489 231.974 -4.54425M255.482 442.448C255.482 442.448 255.482 432.394 255.482 415.296C255.482 409.597 255.482 403.119 255.482 395.95C255.535 374.675 255.535 353.063 255.482 331.487C255.482 326.584 255.482 321.593 255.482 316.496C255.482 301.008 255.482 284.724 255.482 268.086C255.482 262.529 255.482 256.936 255.482 251.325C255.5 242.245 256.013 233.289 257.978 225.129C259.943 216.969 263.395 209.588 269.254 203.677C277.149 193.871 283.044 182.083 283.044 168.33C279.114 109.372 247.658 56.3078 255.465 -4.56195M279.008 442.448C279.008 442.448 279.008 369.577 279.008 282.689C279.008 278.122 279.008 273.503 279.008 268.865C276.123 253.98 280.07 240.634 285.983 228.067C287.948 223.872 290.143 219.784 292.355 215.73C306.623 195.853 312.518 172.26 308.588 146.719C296.799 93.6545 271.237 48.4491 278.99 -4.56195M302.534 442.448C302.534 442.448 302.534 377.047 302.534 296.282C302.534 291.787 302.534 287.255 302.534 282.689C298.71 256.245 310.553 234.315 320.608 211.571C323.121 205.889 325.511 200.154 327.494 194.278C332.185 182.083 334.15 168.312 332.185 156.524C316.465 101.496 294.834 52.3607 302.534 -4.56195M326.078 442.448C326.078 442.448 326.078 377.047 326.078 296.282C326.078 291.787 326.078 287.255 326.078 282.689C322.997 254.528 334.769 229.377 342.186 202.438C343.673 197.057 344.983 191.588 345.957 186.03C347.922 131.001 320.413 77.937 326.042 22.5011C326.078 14.0583 326.078 7.27924 326.078 2.62419C326.078 -2.03087 326.078 -4.54425 326.078 -4.54425M349.603 442.448C349.603 442.448 349.603 377.047 349.603 296.282C349.603 291.539 349.603 286.724 349.603 281.875C353.675 245.732 357.676 209.978 358.667 174.065C358.826 166.896 358.879 159.71 358.755 152.489C357.764 115.266 349.904 79.884 349.586 41.9178C349.603 34.7848 349.603 28.3067 349.603 22.5896C349.603 5.49156 349.603 -4.56195 349.603 -4.56195M373.129 442.448C373.129 442.448 373.129 369.577 373.129 282.689C373.129 277.574 373.129 272.423 373.147 267.237C376.121 225.518 377.024 185.074 375.82 144.453C375.643 138.647 375.431 132.842 375.165 127.036C373.466 111.354 373.466 93.6545 373.129 78.291C373.129 70.1137 373.129 62.3789 373.129 55.1396C373.129 18.9434 373.129 -4.52655 373.129 -4.52655M396.655 442.448C396.655 442.448 396.655 356.887 396.655 260.635C396.655 255.82 396.655 250.988 396.691 246.156C397.045 205.659 399.01 162.418 396.691 121.426C396.655 116.93 396.655 112.54 396.655 108.239C396.655 43.5639 396.655 -4.56195 396.655 -4.56195M420.181 442.448C420.181 442.448 420.181 341.594 420.181 235.696C420.181 230.12 420.181 224.527 420.181 218.952C420.641 197.818 420.641 174.224 420.181 152.79C420.181 147.427 420.181 142.117 420.181 136.878C420.181 58.3079 420.181 -4.56195 420.181 -4.56195M443.707 442.448V-4.54425" stroke="white" stroke-width="0.63" stroke-miterlimit="10"/>
</svg>
