<svg width="310" height="310" viewBox="0 0 310 310" fill="none" xmlns="http://www.w3.org/2000/svg">
<path d="M154.834 102.27V0.191406" stroke="white" stroke-width="0.63" stroke-miterlimit="10"/>
<path d="M161.04 102.655L173.088 1.26367" stroke="white" stroke-width="0.63" stroke-miterlimit="10"/>
<path d="M167.165 103.747L191.079 4.49902" stroke="white" stroke-width="0.63" stroke-miterlimit="10"/>
<path d="M173.13 105.566L208.567 9.83728" stroke="white" stroke-width="0.63" stroke-miterlimit="10"/>
<path d="M178.809 108.053L225.323 17.1774" stroke="white" stroke-width="0.63" stroke-miterlimit="10"/>
<path d="M184.167 111.208L241.072 26.4592" stroke="white" stroke-width="0.63" stroke-miterlimit="10"/>
<path d="M189.119 114.989L255.626 37.5408" stroke="white" stroke-width="0.63" stroke-miterlimit="10"/>
<path d="M193.586 119.316L268.766 50.2598" stroke="white" stroke-width="0.63" stroke-miterlimit="10"/>
<path d="M197.529 124.13L280.309 64.4357" stroke="white" stroke-width="0.63" stroke-miterlimit="10"/>
<path d="M200.863 129.387L290.112 79.8848" stroke="white" stroke-width="0.63" stroke-miterlimit="10"/>
<path d="M203.552 135.008L298.017 96.3651" stroke="white" stroke-width="0.63" stroke-miterlimit="10"/>
<path d="M205.553 140.893L303.919 113.675" stroke="white" stroke-width="0.63" stroke-miterlimit="10"/>
<path d="M206.869 146.98L307.741 131.571" stroke="white" stroke-width="0.63" stroke-miterlimit="10"/>
<path d="M207.434 153.168L309.439 149.771" stroke="white" stroke-width="0.63" stroke-miterlimit="10"/>
<path d="M207.272 159.396L308.953 168.051" stroke="white" stroke-width="0.63" stroke-miterlimit="10"/>
<path d="M206.383 165.543L306.326 186.149" stroke="white" stroke-width="0.63" stroke-miterlimit="10"/>
<path d="M204.766 171.549L301.596 203.823" stroke="white" stroke-width="0.63" stroke-miterlimit="10"/>
<path d="M202.46 177.333L294.782 220.809" stroke="white" stroke-width="0.63" stroke-miterlimit="10"/>
<path d="M199.469 182.792L286.049 236.864" stroke="white" stroke-width="0.63" stroke-miterlimit="10"/>
<path d="M195.871 187.868L275.457 251.768" stroke="white" stroke-width="0.63" stroke-miterlimit="10"/>
<path d="M191.705 192.479L263.185 265.337" stroke="white" stroke-width="0.63" stroke-miterlimit="10"/>
<path d="M187.017 196.563L249.421 277.349" stroke="white" stroke-width="0.63" stroke-miterlimit="10"/>
<path d="M181.882 200.081L234.3 287.661" stroke="white" stroke-width="0.63" stroke-miterlimit="10"/>
<path d="M176.364 202.953L218.087 296.114" stroke="white" stroke-width="0.63" stroke-miterlimit="10"/>
<path d="M170.542 205.158L201.006 302.585" stroke="white" stroke-width="0.63" stroke-miterlimit="10"/>
<path d="M164.497 206.653L183.257 307.013" stroke="white" stroke-width="0.63" stroke-miterlimit="10"/>
<path d="M158.333 207.442L165.125 309.298" stroke="white" stroke-width="0.63" stroke-miterlimit="10"/>
<path d="M152.106 207.482L146.83 309.44" stroke="white" stroke-width="0.63" stroke-miterlimit="10"/>
<path d="M145.94 206.795L128.656 307.418" stroke="white" stroke-width="0.63" stroke-miterlimit="10"/>
<path d="M139.876 205.38L110.868 303.252" stroke="white" stroke-width="0.63" stroke-miterlimit="10"/>
<path d="M134.032 203.276L93.6626 297.024" stroke="white" stroke-width="0.63" stroke-miterlimit="10"/>
<path d="M128.474 200.466L77.3306 288.814" stroke="white" stroke-width="0.63" stroke-miterlimit="10"/>
<path d="M123.28 197.049L62.0889 278.744" stroke="white" stroke-width="0.63" stroke-miterlimit="10"/>
<path d="M118.529 193.025L48.1201 266.915" stroke="white" stroke-width="0.63" stroke-miterlimit="10"/>
<path d="M114.285 188.475L35.6484 253.548" stroke="white" stroke-width="0.63" stroke-miterlimit="10"/>
<path d="M110.625 183.46L24.8525 238.786" stroke="white" stroke-width="0.63" stroke-miterlimit="10"/>
<path d="M107.552 178.04L15.877 222.852" stroke="white" stroke-width="0.63" stroke-miterlimit="10"/>
<path d="M105.166 172.297L8.82178 205.986" stroke="white" stroke-width="0.63" stroke-miterlimit="10"/>
<path d="M103.468 166.312L3.82812 188.394" stroke="white" stroke-width="0.63" stroke-miterlimit="10"/>
<path d="M102.478 160.164L0.938477 170.336" stroke="white" stroke-width="0.63" stroke-miterlimit="10"/>
<path d="M102.214 153.936L0.188965 152.055" stroke="white" stroke-width="0.63" stroke-miterlimit="10"/>
<path d="M102.7 147.748L1.60449 133.816" stroke="white" stroke-width="0.63" stroke-miterlimit="10"/>
<path d="M103.913 141.642L5.16309 115.88" stroke="white" stroke-width="0.63" stroke-miterlimit="10"/>
<path d="M105.833 135.717L10.8223 98.4888" stroke="white" stroke-width="0.63" stroke-miterlimit="10"/>
<path d="M108.441 130.075L18.4844 81.8867" stroke="white" stroke-width="0.63" stroke-miterlimit="10"/>
<path d="M111.696 124.776L28.0469 66.2957" stroke="white" stroke-width="0.63" stroke-miterlimit="10"/>
<path d="M115.557 119.883L39.3872 51.9589" stroke="white" stroke-width="0.63" stroke-miterlimit="10"/>
<path d="M119.963 115.495L52.3442 39.0373" stroke="white" stroke-width="0.63" stroke-miterlimit="10"/>
<path d="M124.855 111.653L66.7168 27.7539" stroke="white" stroke-width="0.63" stroke-miterlimit="10"/>
<path d="M130.173 108.418L82.3442 18.2497" stroke="white" stroke-width="0.63" stroke-miterlimit="10"/>
<path d="M135.832 105.829L98.96 10.6458" stroke="white" stroke-width="0.63" stroke-miterlimit="10"/>
<path d="M141.756 103.928L116.386 5.04443" stroke="white" stroke-width="0.63" stroke-miterlimit="10"/>
<path d="M147.859 102.735L134.315 1.56683" stroke="white" stroke-width="0.63" stroke-miterlimit="10"/>
</svg>
