<svg width="279" height="292" fill="none" xmlns="http://www.w3.org/2000/svg"><g opacity=".1" stroke="#fff" stroke-miterlimit="10"><path d="M5.541 376.976V214.01c-.55-4.711-.77-9.367-.714-13.968.88-32.117 6.983-60.622 11.052-93.178C21.983 66.15 9.775 27.489 5.541-13.628v-72.335m24.36 462.939V214.01a111.294 111.294 0 01-.183-13.968c.22-4.62.678-9.184 1.155-13.657 1.283-46.946 27.75-87.66 29.784-132.444 0-24.417-20.345-42.748-28.63-65.388-1.448-4.106-2.474-8.304-2.896-12.685a46.082 46.082 0 01.77-13.693v-48.138"/><path d="M54.26 376.976V214.01c-.293-6.672-.146-13.18.367-19.596s1.301-12.722 2.071-18.844c1.925-30.046 14.132-56.498 26.339-82.968 18.311-42.749-6.104-79.375-25.478-115.212-2.016-5.445-3.5-11.054-4.142-16.902a59.058 59.058 0 01.843-18.35v-28.12"/><path d="M78.62 376.976V214.01c0-5.554 0-11.163.018-16.828a669.28 669.28 0 003.85-19.944c6.653-56.149 33.12-113.141 17.577-169.712a124.424 124.424 0 00-6.745-18.624c-2.804-6.178-6.214-12.319-10.283-18.441-6.103-10.174-4.069-18.313-4.38-28.377-.037-8.818-.037-15.857-.037-20.66V-86"/><path d="M102.979 376.976v-196.86c0-5.738.018-11.512.367-17.58 14.296-43.464 18.365-88.229 15.506-132.554a448.063 448.063 0 00-2.493-21.997c-3.042-21.998-7.698-43.959-13.288-65.92-.092-8.762-.092-15.801-.092-20.604v-7.424m24.378 462.939V162.848c0-5.775 0-11.567.128-17.47 6.452-42.584 16.624-83.298 10.521-128.063-4.069-26.452-12.207-48.853-10.613-75.195-.036-5.866-.036-10.962-.036-15.123v-12.96m24.36 462.939v-72.299a1908.635 1908.635 0 00.33-29.312c.183-24.014.183-48.449-.33-72.464v-57.413c0-5.793 0-11.567.018-17.378 6.599-57.89 4.564-114.883.11-171.508-.128-8.67-.128-16.351-.128-22.676v-19.89m24.359 462.94v-28.121c.073-7.094.11-14.17.11-21.209-3.593-62.015.476-121.042-.11-182.14v-21.667c0-7.205 0-14.391.018-21.54.568-42.253.568-87.018.037-129.895-.055-8.836-.055-16.92-.055-24.07v-34.297m24.36 462.939s0-7.241.018-19.762c-.147-6.306-.33-12.593-.66-18.844-12.977-70.722-2.786-139.923.642-210.224V65.38c.641-21.65.641-46.066 0-68.357V-86m24.358 462.976s0-4.638.019-12.851c-.55-7.204-1.21-14.39-2.255-21.502-23.516-68.871-15.378-142.141 2.126-214.183.092-6.05.11-11.824.11-17.543v-196.86"/><path d="M249.154 376.976s0-4.638.018-12.814c.807-6.251.752-12.282-.147-18.13-5.223-23.427-21.5-41.74-27.603-66.176-12.207-52.922 16.276-97.706 23.589-148.777a322.053 322.053 0 014.143-20.201v-196.86"/><path d="M273.532 376.976v-12.924c.201-4.253.476-8.597.586-12.887 4.289-28.56-26.229-40.769-34.367-65.204-8.138-20.348-4.069-42.749 2.035-63.097 10.172-30.54 22.38-59.027 26.65-91.913 1.485-6.929 3.116-13.51 4.839-20.018.238-5.774.238-11.475.257-17.121V-85.963"/><path d="M297.891 376.976v-12.961c0-4.161 0-9.257-.018-15.105-3.189-12.043 2.933-28.322-7.258-36.461-59.02-50.887-6.104-122.123 1.246-182.011a341.215 341.215 0 015.737-19.505c.257-5.756.257-11.457.275-17.121V-85.963"/><path d="M370.969 279.509a2036.948 2036.948 0 01-19.484 3.043c-62.906 11.567-128.029 21.741-190.183 1.723-6.104-1.448-12.464-2.988-18.879-4.711-5.316-.037-10.613-.037-15.91-.037H-91.915"/><path d="M370.475 255.146c-5.664-.22-11.218 0-16.68.604-42.817 5.793-81.473 36.333-128.285 30.229-30.537-4.07-50.882-32.575-83.801-30.815-5.059-.018-10.136-.018-15.177-.018H-91.896"/><path d="M369.319 230.838c-7.02.036-13.875.733-20.693 2.071-60.047 22.529-123.135 57.12-182.155 4.198-4.069-6.104-14.242-8.139-24.781-6.343h-15.177c-111.22.019-218.428.019-218.428.019"/><path d="M368.751 206.513c-7.203 1.43-14.37 2.878-21.5 4.528-62.74 24.05-131.933 42.382-190.348-4.162-5.792-.366-11.584-.458-17.376-.458H54.535c-24.414.183-48.847.183-74.141 0h-72.327"/><path d="M369.375 182.095c-6.452.825-12.904 1.595-19.374 2.328-6.434 1.045-12.886 2.035-19.319 3.263-58.378 25.004-117.398 12.796-173.797-5.444-7.588-.202-15.195-.202-22.783-.202H96.344a1073.422 1073.422 0 00-37.685-.77c-38.73.88-75.37.88-113.035.77h-37.575m462.425-24.362c-6.562.202-13.124.385-19.667.513-6.599.165-13.179.293-19.814.44-50.552 13.364-103.468 5.225-156.861-.806-5.737-.147-11.492-.147-17.266-.147h-30.353a362.7 362.7 0 00-13.398-1.705 410.384 410.384 0 00-13.106-1.155c-61.75-5.224-120.77 2.915-181.916 2.86h-10.008m462.884-24.362h-61.861c-6.782 0-13.545.055-20.272.201-32.791 1.833-65.362-.201-97.603-.22h-42.395a157.162 157.162 0 00-18.714-6.342c-73.536-11.971-148.832 8.377-222.039 6.342m462.884-24.343h-48.15c-22.032-.055-44.412-.055-66.755 0h-83.013c-9.403-.019-18.677-.55-27.127-2.585s-16.093-5.609-22.215-11.677c-10.154-8.176-22.361-14.28-36.603-14.28-61.054 4.07-116.005 36.644-179.04 28.56"/><path d="M370.969 84.592H191.215c-15.414 2.988-29.235-1.1-42.248-7.223-4.344-2.035-8.578-4.308-12.776-6.6-20.583-14.774-45.016-20.879-71.465-16.81C9.776 66.17-37.037 92.64-91.934 84.61"/><path d="M370.969 60.228H205.53c-27.383 3.96-50.093-8.304-73.646-18.716-5.884-2.603-11.822-5.078-17.908-7.13-12.628-4.859-26.888-6.893-39.096-4.859C17.895 45.802-32.987 68.203-91.933 60.228"/><path d="M370.969 35.848H205.53c-29.162 3.19-55.207-9-83.104-16.681-5.572-1.54-11.236-2.897-16.991-3.905C48.449 13.227-6.501 41.714-63.908 35.885c-8.743-.037-15.763-.037-20.584-.037h-7.423m462.884-24.362H204.687C167.259 7.27 130.234 3.127 93.044 2.101c-7.423-.165-14.864-.22-22.343-.092C32.155 3.036-4.485 11.175-43.8 11.505a8015.89 8015.89 0 00-20.015-.019h-28.117"/></g></svg>