<svg width="1920" height="800" fill="none" xmlns="http://www.w3.org/2000/svg"><g opacity=".1" stroke="#fff" stroke-miterlimit="10"><path d="M.228 1920V888.16c-.304-96.776-.304-189.598 0-280.52V.228M101.249 1920v-887.93c-8.514-181.541-8.514-358.823-.076-547.357.076-18.549.076-36.718.076-54.583V.228M202.269 1920v-745.54c.076-23.49.152-47.14.38-71.01-.228-227.606-17.103-463.957-.608-688.524.228-20.222.228-39.912.228-59.069V.152M303.29 1920v-675.83c0-23.64.684-47.21 1.748-70.7-1.292-272.387-9.729-550.93-2.052-817.233.38-35.35.38-68.724.38-99.892V.075M404.387 1920v-675.83c-2.281-19.54-3.193-38.85-2.965-57.93 3.649-133.19 28.961-251.403 45.836-386.417 25.312-168.844-25.312-329.174-42.871-499.69V.152M505.407 1920v-675.83c-1.52-19.54-1.672-38.85-.76-57.93.912-19.16 2.812-38.09 4.789-56.64 5.321-194.687 115.083-363.531 123.52-549.252 0-101.26-84.374-177.282-118.731-271.168-6.005-17.029-10.262-34.438-12.01-52.607-1.673-18.093-.913-36.947 3.192-56.788V.152"/><path d="M606.428 1920v-675.83c-1.216-27.67-.608-54.66 1.52-81.27s5.397-52.76 8.59-78.15c7.981-124.598 58.605-234.297 109.23-344.072 75.936-177.282-25.313-329.173-105.658-477.796-8.361-22.578-14.518-45.841-17.179-70.091-2.66-24.251-1.9-49.491 3.497-76.098V.075"/><path d="M707.448 1920v-675.83c0-23.04 0-46.3.076-69.79a2776.605 2776.605 0 0015.963-82.71c27.592-232.855 137.354-469.206 72.896-703.808-7.069-25.847-16.343-51.619-27.973-77.238-11.63-25.619-25.768-51.086-42.643-76.478-25.312-42.192-16.875-75.945-18.167-117.681-.152-36.567-.152-65.759-.152-85.676V-.001"/><path d="M808.469 1920v-816.4c0-23.79.076-47.74 1.52-72.9 59.29-180.247 76.165-365.892 64.307-549.712-2.661-30.408-6.157-60.817-10.338-91.225-12.618-91.226-31.925-182.3-55.109-273.374-.38-36.338-.38-65.53-.38-85.448V.152M909.566 1920v-888.01c0-23.94 0-47.967.532-72.446 26.756-176.598 68.943-345.442 43.631-531.087-16.875-109.699-50.624-202.597-44.011-311.84-.152-24.327-.152-45.46-.152-62.718V.152M1010.59 1920v-299.83a7875.383 7875.383 0 001.36-121.56c.76-99.59.76-200.92-1.36-300.51V960c0-24.023 0-47.97.07-72.068 27.37-240.076 18.93-476.427.46-711.258-.53-35.958-.53-67.811-.53-94.039V.152M1111.61 1920v-116.62c.3-29.42.45-58.76.45-87.95-14.9-257.18 1.98-501.97-.45-755.354v-89.857c0-29.877 0-59.677.07-89.326 2.36-175.229 2.36-360.874.15-538.688-.22-36.643-.22-70.168-.22-99.817V.152M1212.63 1920s0-30.03.07-81.95c-.6-26.15-1.36-52.23-2.73-78.15-53.82-293.29-11.56-580.27 2.66-871.816V627.786c2.66-89.782 2.66-191.042 0-283.485V0m101.02 1920s0-19.23.07-53.29c-2.28-29.88-5.01-59.68-9.35-89.17-97.52-285.62-63.77-589.48 8.82-888.24.38-25.087.46-49.034.46-72.753V.152"/><path d="M1414.67 1920s0-19.23.07-53.14c3.35-25.92 3.12-50.93-.6-75.18-21.67-97.16-89.17-173.11-114.48-274.44-50.62-219.48 67.5-405.2 97.83-616.993 5.02-29.116 10.72-56.712 17.18-83.776V.076"/><path d="M1515.77 1920v-53.6c.83-17.63 1.97-35.65 2.43-53.44 17.78-118.44-108.78-169.07-142.53-270.41-33.75-84.38-16.87-177.28 8.44-261.66 42.19-126.65 92.81-244.79 110.52-381.175 6.16-28.736 12.93-56.028 20.07-83.016.99-23.946.99-47.589 1.07-71.004V.152"/><path d="M1616.79 1920v-53.75c0-17.25 0-38.39-.08-62.64-13.23-49.95 12.16-117.45-30.1-151.21-244.76-211.03-25.31-506.45 5.17-754.814a1411.907 1411.907 0 0123.79-80.887c1.06-23.87 1.06-47.513 1.14-71.004V.152"/><path d="M1717.81 1920v-116.62c0-24.48 0-52.3-.31-83.01-4.25-25.85 4.26-51.17-4.25-68.04-168.83-211.04-67.5-447.39-30.03-672.716 5.17-27.976 10.49-55.116 16.34-82.256 5.48-26.835 11.41-53.823 17.71-80.811.38-23.794.46-47.361.54-70.852V.152M1818.83 1920v-199.63c0-30.72 0-64.32-.08-100.35-6.84-26.53-12.62-53.22-17.63-79.9-20.38-132.58-28.81-267.6-13.76-402.31 1.75-27.14 3.8-53.97 6-80.73 2.28-26.53 4.64-52.99 7.15-79.215 2.28-26.76 4.94-53.595 7.98-80.431 3.04-26.835 6.46-53.823 10.26-80.811 0-23.794.08-47.361.08-70.852V.228M1919.85 1920v-355.7c-.08-19.16-.08-38.85-.23-59-.99-51.84-1.67-103.46-2.2-154.85-.54-51.39-.69-102.63-.69-153.87 0-51.24.23-102.48.76-153.79.53-51.393 1.22-102.86 2.21-154.63 0-23.947.07-47.818.07-71.613V.152"/><path d="M1919.85 808.489h-199.69c-91.36-.228-184.18-.228-276.83 0h-344.27c-38.99-.076-77.45-2.28-112.494-10.719-35.042-8.438-66.739-23.263-92.127-48.426-42.111-33.905-92.735-59.22-151.797-59.22C489.444 707 261.559 842.091.152 808.565"/><path d="M1919.85 707.456h-745.46c-63.92 12.392-121.24-4.561-175.206-29.952-18.015-8.438-35.573-17.865-52.98-27.368-85.362-61.273-186.687-86.588-296.373-69.712C421.945 631.055 227.809 740.83.151 707.532"/><path d="M1919.85 606.424h-686.09c-113.56 16.421-207.74-34.438-305.419-77.618-24.4-10.795-49.028-21.058-74.264-29.572-52.373-20.146-111.511-28.585-162.135-20.146C455.619 546.595 244.608 639.493.152 606.424"/><path d="M1919.85 505.315h-686.09c-120.94 13.228-228.95-37.326-344.642-69.179-23.108-6.386-46.596-12.012-70.464-16.193-236.323-8.438-464.208 109.699-702.279 85.524-36.258-.152-65.371-.152-85.362-.152H.228M1919.85 404.283h-689.59c-155.22-17.485-308.76-34.666-462.99-38.923-30.785-.684-61.646-.912-92.659-.38-159.854 4.257-311.803 38.011-474.85 39.379-30.633-.076-58.454-.076-83.006-.076H.152M1919.85 303.25h-686.09c-21.97 0-44.09 0-66.36-.076-179.161-12.772-352.85-16.649-527.299-11.479-24.932.76-49.864 1.672-74.796 2.812-67.347 7.299-143.36 7.299-209.339 8.743H.304M1919.85 202.217h-780.8c-20.68 0-41.43 0-62.18-.152-173.917-1.52-359.616-9.958-535.661 0-19.307.152-38.158.152-56.629.152H.152M1919.85 101.185H960.038c-90.759-1.977-192.084-1.977-284.135 0H.152"/></g></svg>