<svg width="125" height="33" viewBox="0 0 125 33" fill="none" xmlns="http://www.w3.org/2000/svg">
<g clip-path="url(#clip0_2962_3552)">
<path d="M36.1991 11.1867L35.4875 11.2671V8.11746L32.4199 11.4402V6.62976L33.1314 6.54933V9.73249L36.1991 6.41308V11.1867Z" fill="#727272"/>
<path d="M40.7637 11.1867L40.0521 11.2671V9.21648H37.8102V11.1867L37.0986 11.2671V6.62976L37.8102 6.54933V8.55975H40.0521V6.62976L40.7637 6.54933V11.1867Z" fill="#727272"/>
<path d="M44.8582 7.52775C44.7284 7.43393 44.5852 7.35575 44.4286 7.2932C44.2272 7.21277 44.0258 7.17258 43.8245 7.17258C43.3322 7.17258 42.9227 7.34457 42.5961 7.6897C42.2694 8.03369 42.1061 8.4503 42.1061 8.93838C42.1061 9.39518 42.2683 9.79951 42.5927 10.1502C42.9171 10.502 43.3232 10.6774 43.811 10.6774C43.9676 10.6774 44.1265 10.6528 44.2876 10.6037C44.489 10.5411 44.6769 10.4428 44.8514 10.3088L44.7441 11.1398C44.6009 11.2023 44.4454 11.2503 44.2775 11.2838C44.1097 11.3174 43.9363 11.3341 43.7573 11.3341C43.095 11.3341 42.5356 11.1018 42.0792 10.6361C41.6227 10.1714 41.3945 9.59845 41.3945 8.91826C41.3945 8.25148 41.6239 7.68412 42.0826 7.21724C42.5412 6.74926 43.1174 6.51583 43.811 6.51583C44.0258 6.51583 44.2205 6.53816 44.395 6.58284C44.4845 6.60518 44.6009 6.64763 44.7441 6.71017L44.8582 7.52773V7.52775Z" fill="#727272"/>
<path d="M47.953 7.2932H46.9327V11.1867L46.2212 11.2671V7.2932H45.0264L45.2345 6.63645H47.953V7.2932Z" fill="#727272"/>
<path d="M52.3162 11.1867L51.6047 11.2671V8.11746L48.5371 11.4402V6.62976L49.2486 6.54933V9.73249L52.3162 6.41308V11.1867Z" fill="#727272"/>
<path d="M55.6581 7.2932H54.6378V11.1867L53.9263 11.2671V7.2932H52.7314L52.9395 6.63645H55.6581V7.2932Z" fill="#727272"/>
<path d="M59.4913 6.72133L57.2158 11.3062L56.4908 11.1118L57.3366 9.52586L55.7256 6.70123L56.417 6.5002L57.6923 8.81886L58.8133 6.5002L59.4913 6.72133Z" fill="#727272"/>
<path d="M62.3173 7.2932H61.297V11.1867L60.5854 11.2671V7.2932H59.3906L59.5987 6.63645H62.3173V7.2932Z" fill="#727272"/>
<path d="M68.0704 11.1867L67.3589 11.2671V7.2932H65.1773V11.1867L64.4658 11.2671V6.63645H68.0704V11.1867Z" fill="#727272"/>
<path d="M71.742 8.15433C71.742 8.56869 71.5988 8.91606 71.3124 9.19751C70.9902 9.51359 70.5494 9.67218 69.9901 9.67218H69.8759C69.8401 9.67218 69.8066 9.67218 69.7752 9.67218C69.7305 9.67218 69.6992 9.67218 69.6813 9.67218V11.1878L68.9697 11.2671V6.63647H70.0437C70.5986 6.63647 71.0305 6.79954 71.3392 7.12457C71.6077 7.40938 71.742 7.75337 71.742 8.15433ZM71.0305 8.14763C71.0305 7.92092 70.9566 7.7288 70.8089 7.57354C70.63 7.38702 70.3749 7.29322 70.0437 7.29322H69.6813V9.00205L69.9162 9.01546C70.3055 9.01546 70.5964 8.92164 70.7888 8.73513C70.9499 8.57878 71.0305 8.3833 71.0305 8.14765V8.14763Z" fill="#727272"/>
<path d="M76.031 11.1844L75.3195 11.333L74.5677 9.77269H72.7352L71.9767 11.333L71.292 11.1844L73.6682 6.43989L76.031 11.1844ZM74.2858 9.15617L73.6548 7.84939L73.0171 9.15617H74.2858Z" fill="#727272"/>
<path d="M79.2996 9.92013C79.2996 10.3088 79.1631 10.6193 78.8901 10.8516C78.5992 11.1018 78.201 11.2269 77.6953 11.2269H76.3662V6.63647H77.4805C78.0712 6.63647 78.5097 6.77943 78.7961 7.06424C79.0109 7.27757 79.1183 7.54116 79.1183 7.85277C79.1183 8.06162 79.068 8.25708 78.9673 8.43689C78.8666 8.61784 78.7156 8.75857 78.5142 8.86131C78.7469 8.9328 78.936 9.06013 79.0814 9.24328C79.2268 9.42646 79.2996 9.65206 79.2996 9.92013H79.2996ZM78.4202 7.93316C78.4202 7.74664 78.3509 7.59364 78.2122 7.47301C78.0734 7.35349 77.8721 7.29318 77.608 7.29318H77.0778V8.57983H77.6819C77.9056 8.57983 78.0846 8.51728 78.2189 8.39331C78.3531 8.26821 78.4202 8.11521 78.4202 7.93314V7.93316ZM78.5881 9.8799C78.5881 9.69227 78.5232 9.53367 78.3934 9.4041C78.2457 9.25667 78.0399 9.18295 77.7759 9.18295H77.0778V10.5701H77.7087C77.9907 10.5701 78.2122 10.4987 78.3733 10.3557C78.5165 10.2306 78.5881 10.072 78.5881 9.87988L78.5881 9.8799Z" fill="#727272"/>
<path d="M84.7776 8.92499C84.7776 9.60963 84.527 10.1871 84.0258 10.6562C83.5425 11.1085 82.9719 11.3341 82.3141 11.3341C81.6518 11.3341 81.0812 11.1108 80.6024 10.6629C80.1012 10.1938 79.8506 9.61412 79.8506 8.92501C79.8506 8.21354 80.1124 7.62495 80.636 7.16031C81.1193 6.73031 81.6786 6.51584 82.3141 6.51584C82.945 6.51584 83.5022 6.73031 83.9855 7.16031C84.5135 7.62493 84.7776 8.21354 84.7776 8.92501V8.92499ZM84.066 8.93167C84.066 8.45699 83.9072 8.04934 83.5894 7.70979C83.2538 7.35126 82.8287 7.17256 82.3141 7.17256C81.7994 7.17256 81.3743 7.35124 81.0387 7.70979C80.7209 8.04934 80.5621 8.45699 80.5621 8.93167C80.5621 9.41081 80.731 9.82184 81.0689 10.1636C81.4068 10.5065 81.8218 10.6774 82.3141 10.6774C82.8018 10.6774 83.2158 10.5076 83.5559 10.1669C83.896 9.82742 84.066 9.41528 84.066 8.93167Z" fill="#727272"/>
<path d="M88.3416 9.92013C88.3416 10.3088 88.2051 10.6193 87.9321 10.8516C87.6412 11.1018 87.243 11.2269 86.7373 11.2269H85.4082V6.63647H86.5225C87.1132 6.63647 87.5517 6.77943 87.8381 7.06424C88.0529 7.27757 88.1603 7.54116 88.1603 7.85277C88.1603 8.06162 88.11 8.25708 88.0093 8.43689C87.9086 8.61784 87.7576 8.75857 87.5562 8.86131C87.7889 8.9328 87.978 9.06013 88.1234 9.24328C88.2688 9.42646 88.3416 9.65206 88.3416 9.92013H88.3416ZM87.4622 7.93316C87.4622 7.74664 87.3929 7.59364 87.2542 7.47301C87.1154 7.35349 86.914 7.29318 86.65 7.29318H86.1197V8.57983H86.7239C86.9476 8.57983 87.1266 8.51728 87.2609 8.39331C87.3951 8.26821 87.4622 8.11521 87.4622 7.93314V7.93316ZM87.6301 9.8799C87.6301 9.69227 87.5652 9.53367 87.4354 9.4041C87.2877 9.25667 87.0819 9.18295 86.8179 9.18295H86.1197V10.5701H86.7507C87.0327 10.5701 87.2542 10.4987 87.4153 10.3557C87.5585 10.2306 87.6301 10.072 87.6301 9.87988L87.6301 9.8799Z" fill="#727272"/>
<path d="M93.8196 8.92499C93.8196 9.60963 93.5689 10.1871 93.0678 10.6562C92.5844 11.1085 92.0139 11.3341 91.3561 11.3341C90.6938 11.3341 90.1232 11.1108 89.6444 10.6629C89.1432 10.1938 88.8926 9.61412 88.8926 8.92501C88.8926 8.21354 89.1544 7.62495 89.6779 7.16031C90.1613 6.73031 90.7206 6.51584 91.3561 6.51584C91.987 6.51584 92.5442 6.73031 93.0275 7.16031C93.5555 7.62493 93.8196 8.21354 93.8196 8.92501V8.92499ZM93.108 8.93167C93.108 8.45699 92.9492 8.04934 92.6314 7.70979C92.2958 7.35126 91.8707 7.17256 91.3561 7.17256C90.8414 7.17256 90.4163 7.35124 90.0807 7.70979C89.7629 8.04934 89.6041 8.45699 89.6041 8.93167C89.6041 9.41081 89.773 9.82184 90.1109 10.1636C90.4488 10.5065 90.8638 10.6774 91.3561 10.6774C91.8438 10.6774 92.2578 10.5076 92.5979 10.1669C92.938 9.82742 93.108 9.41528 93.108 8.93167Z" fill="#727272"/>
<path d="M97.4305 5.74519C97.3545 5.9775 97.2191 6.15955 97.0244 6.29135C96.8298 6.42313 96.6004 6.48904 96.3364 6.48904C96.0858 6.48904 95.871 6.43543 95.692 6.32822C95.4727 6.19865 95.3228 6.00432 95.2423 5.74521L95.6584 5.62459C95.7077 5.77202 95.7927 5.88257 95.9135 5.9563C96.0344 6.03 96.1753 6.06685 96.3364 6.06685C96.5288 6.06685 96.6855 6.0177 96.8063 5.9194C96.8913 5.84794 96.9585 5.74964 97.0077 5.62457L97.4306 5.74519H97.4305ZM98.2294 11.1867L97.5178 11.2671V8.09066L94.4502 11.4402V6.62976L95.1416 6.54933L95.1617 9.766L98.2293 6.41532V11.1867H98.2294Z" fill="#727272"/>
<path d="M34.8297 14.5508H33.1314V18.4442L32.4199 18.5246V13.894H34.6887L34.8297 14.5508Z" fill="#727272"/>
<path d="M38.1863 15.4119C38.1863 15.8262 38.0431 16.1736 37.7567 16.455C37.4345 16.7711 36.9937 16.9297 36.4344 16.9297H36.3203C36.2845 16.9297 36.2509 16.9297 36.2196 16.9297C36.1748 16.9297 36.1435 16.9297 36.1256 16.9297V18.4453L35.4141 18.5246V13.894H36.4881C37.043 13.894 37.4748 14.0571 37.7836 14.3821C38.0521 14.6669 38.1863 15.0109 38.1863 15.4119ZM37.4748 15.4052C37.4748 15.1784 37.401 14.9863 37.2533 14.8311C37.0743 14.6446 36.8192 14.5508 36.4881 14.5508H36.1256V16.2596L36.3605 16.273C36.7499 16.273 37.0407 16.1792 37.2331 15.9927C37.3942 15.8363 37.4748 15.6408 37.4748 15.4052V15.4052Z" fill="#727272"/>
<path d="M42.4754 18.442L41.7638 18.5906L41.012 17.0302H39.1795L38.421 18.5906L37.7363 18.442L40.1125 13.6974L42.4754 18.442ZM40.7301 16.4137L40.0991 15.1069L39.4614 16.4137H40.7301Z" fill="#727272"/>
<path d="M47.7129 18.4844L47.0283 18.5983L46.5047 15.7235L45.1421 18.6508L43.7593 15.7235L43.2558 18.5983L42.5645 18.4844L43.4975 13.7108L45.1555 17.2112L46.7732 13.7108L47.7129 18.4844Z" fill="#727272"/>
<path d="M52.8547 16.1825C52.8547 16.8672 52.6041 17.4446 52.1029 17.9137C51.6196 18.3661 51.049 18.5917 50.3912 18.5917C49.7289 18.5917 49.1584 18.3683 48.6795 17.9204C48.1783 17.4513 47.9277 16.8717 47.9277 16.1825C47.9277 15.4711 48.1895 14.8825 48.7131 14.4178C49.1964 13.9878 49.7558 13.7734 50.3912 13.7734C51.0222 13.7734 51.5793 13.9878 52.0626 14.4178C52.5907 14.8825 52.8547 15.4711 52.8547 16.1825V16.1825ZM52.1432 16.1892C52.1432 15.7145 51.9843 15.3069 51.6666 14.9673C51.331 14.6088 50.9058 14.4301 50.3912 14.4301C49.8766 14.4301 49.4515 14.6088 49.1158 14.9673C48.7981 15.3069 48.6392 15.7145 48.6392 16.1892C48.6392 16.6683 48.8082 17.0794 49.146 17.4211C49.4839 17.764 49.899 17.9349 50.3912 17.9349C50.879 17.9349 51.2929 17.7651 51.633 17.4245C51.9731 17.085 52.1432 16.6728 52.1432 16.1892Z" fill="#727272"/>
<path d="M55.9286 14.5508H54.9083V18.4442L54.1968 18.5246V14.5508H53.002L53.21 13.894H55.9286V14.5508Z" fill="#727272"/>
<path d="M60.1777 18.4442L59.4662 18.5246V16.474H57.2242V18.4442L56.5127 18.5246V13.8873L57.2242 13.8069V15.8173H59.4662V13.8873L60.1777 13.8069V18.4442Z" fill="#727272"/>
<path d="M65.7356 16.1825C65.7356 16.8672 65.485 17.4446 64.9838 17.9137C64.5005 18.3661 63.9299 18.5917 63.2721 18.5917C62.6098 18.5917 62.0392 18.3683 61.5604 17.9204C61.0592 17.4513 60.8086 16.8717 60.8086 16.1825C60.8086 15.4711 61.0704 14.8825 61.594 14.4178C62.0773 13.9878 62.6366 13.7734 63.2721 13.7734C63.9031 13.7734 64.4602 13.9878 64.9435 14.4178C65.4715 14.8825 65.7356 15.4711 65.7356 16.1825V16.1825ZM65.024 16.1892C65.024 15.7145 64.8652 15.3069 64.5474 14.9673C64.2118 14.6088 63.7867 14.4301 63.2721 14.4301C62.7574 14.4301 62.3323 14.6088 61.9967 14.9673C61.6789 15.3069 61.5201 15.7145 61.5201 16.1892C61.5201 16.6683 61.689 17.0794 62.0269 17.4211C62.3648 17.764 62.7798 17.9349 63.2721 17.9349C63.7599 17.9349 64.1738 17.7651 64.5139 17.4245C64.854 17.085 65.024 16.6728 65.024 16.1892Z" fill="#727272"/>
<path d="M69.5623 14.7853C69.4325 14.6915 69.2893 14.6133 69.1327 14.5507C68.9313 14.4703 68.7299 14.4301 68.5286 14.4301C68.0363 14.4301 67.6268 14.6021 67.3002 14.9472C66.9735 15.2912 66.8102 15.7078 66.8102 16.1959C66.8102 16.6527 66.9724 17.057 67.2968 17.4077C67.6212 17.7595 68.0274 17.9349 68.5151 17.9349C68.6717 17.9349 68.8306 17.9103 68.9917 17.8612C69.1931 17.7986 69.381 17.7004 69.5555 17.5663L69.4482 18.3973C69.305 18.4599 69.1495 18.5079 68.9816 18.5414C68.8138 18.5749 68.6404 18.5916 68.4614 18.5916C67.7991 18.5916 67.2397 18.3593 66.7833 17.8936C66.3268 17.429 66.0986 16.856 66.0986 16.1758C66.0986 15.509 66.328 14.9416 66.7867 14.4748C67.2454 14.0068 67.8215 13.7734 68.5151 13.7734C68.7299 13.7734 68.9246 13.7957 69.0991 13.8404C69.1886 13.8627 69.305 13.9052 69.4482 13.9677L69.5623 14.7853V14.7853Z" fill="#727272"/>
<path d="M72.6561 14.5508H71.6358V18.4442L70.9243 18.5246V14.5508H69.7295L69.9376 13.894H72.6561V14.5508Z" fill="#727272"/>
<path d="M77.0194 18.4442L76.3078 18.5246V15.375L73.2402 18.6978V13.8873L73.9518 13.8069V16.99L77.0194 13.6706V18.4442Z" fill="#727272"/>
<path d="M83.2625 18.4442L82.551 18.5246V15.375L79.4834 18.6978V13.8873L80.1949 13.8069V16.99L83.2625 13.6706V18.4442Z" fill="#727272"/>
<path d="M89.3302 18.4442L88.6187 18.5246V14.5508H86.4371V18.4442L85.7256 18.5246V13.894H89.3302V18.4442Z" fill="#727272"/>
<path d="M94.8879 16.1825C94.8879 16.8672 94.6373 17.4446 94.1361 17.9137C93.6528 18.3661 93.0822 18.5917 92.4244 18.5917C91.7621 18.5917 91.1916 18.3683 90.7127 17.9204C90.2115 17.4513 89.9609 16.8717 89.9609 16.1825C89.9609 15.4711 90.2227 14.8825 90.7463 14.4178C91.2296 13.9878 91.789 13.7734 92.4244 13.7734C93.0554 13.7734 93.6125 13.9878 94.0958 14.4178C94.6239 14.8825 94.8879 15.4711 94.8879 16.1825V16.1825ZM94.1764 16.1892C94.1764 15.7145 94.0175 15.3069 93.6998 14.9673C93.3642 14.6088 92.939 14.4301 92.4244 14.4301C91.9098 14.4301 91.4847 14.6088 91.149 14.9673C90.8313 15.3069 90.6724 15.7145 90.6724 16.1892C90.6724 16.6683 90.8414 17.0794 91.1792 17.4211C91.5171 17.764 91.9322 17.9349 92.4244 17.9349C92.9122 17.9349 93.3261 17.7651 93.6662 17.4245C94.0063 17.085 94.1764 16.6728 94.1764 16.1892Z" fill="#727272"/>
<path d="M99.627 19.3422L98.9423 19.4226V18.4844H95.8546V19.3422L95.1699 19.4226V17.8277H95.5794L97.3985 13.6974L99.2243 17.8277H99.627V19.3422H99.627ZM98.4859 17.8612L97.3851 15.2745L96.2842 17.8612H98.4859H98.4859Z" fill="#727272"/>
<path d="M104.285 19.3422L103.601 19.4226V18.4844H100.513V19.3422L99.8281 19.4226V17.8277H100.238L102.057 13.6974L103.882 17.8277H104.285V19.3422H104.285ZM103.144 17.8612L102.043 15.2745L100.942 17.8612H103.144H103.144Z" fill="#727272"/>
<path d="M107.675 17.8277L107.487 18.4844H104.836V13.894H107.367L107.501 14.5508H105.547V15.8173H107.165V16.474H105.547V17.8277H107.675Z" fill="#727272"/>
<path d="M111.233 15.4119C111.233 15.8262 111.09 16.1736 110.804 16.455C110.481 16.7711 110.041 16.9297 109.481 16.9297H109.367C109.331 16.9297 109.298 16.9297 109.266 16.9297C109.222 16.9297 109.19 16.9297 109.172 16.9297V18.4453L108.461 18.5246V13.894H109.535C110.09 13.894 110.522 14.0571 110.83 14.3821C111.099 14.6669 111.233 15.0109 111.233 15.4119ZM110.522 15.4052C110.522 15.1784 110.448 14.9863 110.3 14.8311C110.121 14.6446 109.866 14.5508 109.535 14.5508H109.172V16.2596L109.407 16.273C109.797 16.273 110.088 16.1792 110.28 15.9927C110.441 15.8363 110.522 15.6408 110.522 15.4052V15.4052Z" fill="#727272"/>
<path d="M117.146 18.3616L116.421 18.5503L114.669 16.1122H114.629V18.4442L113.918 18.5246V16.1122H113.877L112.125 18.5503L111.4 18.3683L113.119 16.0183L111.548 13.9141L112.273 13.7734L113.877 15.9714H113.918V13.8873L114.629 13.8069V15.9714H114.669L116.274 13.7734L116.999 13.9208L115.428 16.0206L117.146 18.3616Z" fill="#727272"/>
<path d="M120.872 18.2957L120.187 18.5637L118.314 16.1122H118.274V18.4442L117.562 18.5246V13.8873L118.274 13.8069V15.9915H118.314L120.127 13.7712L120.791 14.0135L119.106 16.0385L120.872 18.2957Z" fill="#727272"/>
<path d="M125.001 18.4442L124.289 18.5246V15.375L121.222 18.6978V13.8873L121.933 13.8069V16.99L125.001 13.6706V18.4442Z" fill="#727272"/>
<path d="M36.0245 25.7018L35.313 25.7822V21.8083H33.1314V25.7018L32.4199 25.7822V21.1516H36.0245V25.7018Z" fill="#727272"/>
<path d="M39.6961 22.6694C39.6961 23.0838 39.5529 23.4311 39.2665 23.7126C38.9443 24.0287 38.5035 24.1873 37.9442 24.1873H37.83C37.7942 24.1873 37.7607 24.1873 37.7293 24.1873C37.6846 24.1873 37.6533 24.1873 37.6354 24.1873V25.7029L36.9238 25.7822V21.1516H37.9978C38.5527 21.1516 38.9846 21.3146 39.2933 21.6396C39.5619 21.9245 39.6961 22.2685 39.6961 22.6694ZM38.9846 22.6627C38.9846 22.436 38.9107 22.2439 38.763 22.0886C38.5841 21.9021 38.329 21.8083 37.9978 21.8083H37.6354V23.5171L37.8703 23.5305C38.2596 23.5305 38.5505 23.4367 38.7429 23.2502C38.904 23.0939 38.9846 22.8984 38.9846 22.6627V22.6627Z" fill="#727272"/>
<path d="M43.187 25.0853L42.9991 25.742H40.3477V21.1516H42.8783L43.0125 21.8083H41.0592V23.0748H42.6769V23.7316H41.0592V25.0853H43.187Z" fill="#727272"/>
<path d="M48.0801 26.5998L47.3955 26.6802V25.742H44.3077V26.5998L43.623 26.6802V25.0853H44.0325L45.8516 20.955L47.6774 25.0853H48.0802V26.5998H48.0801ZM46.939 25.1188L45.8382 22.532L44.7373 25.1188H46.939H46.939Z" fill="#727272"/>
<path d="M52.2355 25.7018L51.5239 25.7822V21.8083H49.3424V25.7018L48.6309 25.7822V21.1516H52.2355V25.7018Z" fill="#727272"/>
<path d="M55.907 22.6694C55.907 23.0838 55.7638 23.4311 55.4774 23.7126C55.1552 24.0287 54.7144 24.1873 54.1551 24.1873H54.041C54.0052 24.1873 53.9716 24.1873 53.9403 24.1873C53.8955 24.1873 53.8642 24.1873 53.8463 24.1873V25.7029L53.1348 25.7822V21.1516H54.2088C54.7637 21.1516 55.1955 21.3146 55.5043 21.6396C55.7728 21.9245 55.907 22.2685 55.907 22.6694ZM55.1955 22.6627C55.1955 22.436 55.1217 22.2439 54.974 22.0886C54.795 21.9021 54.5399 21.8083 54.2088 21.8083H53.8463V23.5171L54.0812 23.5305C54.4706 23.5305 54.7614 23.4367 54.9539 23.2502C55.1149 23.0939 55.1955 22.8984 55.1955 22.6627V22.6627Z" fill="#727272"/>
<path d="M60.3368 25.7018L59.6252 25.7822V22.6326L56.5576 25.9553V21.1449L57.2691 21.0644V24.2476L60.3368 20.9282V25.7018Z" fill="#727272"/>
<path d="M64.9014 25.7018L64.1898 25.7822V23.7316H61.9479V25.7018L61.2363 25.7822V21.1449L61.9479 21.0644V23.0749H64.1898V21.1449L64.9014 21.0644V25.7018Z" fill="#727272"/>
<path d="M69.5799 25.7018L68.8684 25.7822V22.6326L65.8008 25.9553V21.1449L66.5123 21.0644V24.2476L69.5799 20.9282V25.7018Z" fill="#727272"/>
<path d="M75.212 25.742L74.5273 25.8559L74.0037 22.981L72.6411 25.9084L71.2583 22.981L70.7549 25.8559L70.0635 25.742L70.9965 20.9684L72.6545 24.4687L74.2722 20.9684L75.212 25.742Z" fill="#727272"/>
<path d="M80.0095 25.6995L79.298 25.8481L78.5462 24.2878H76.7137L75.9552 25.8481L75.2705 25.6995L77.6467 20.955L80.0095 25.6995ZM78.2643 23.6713L77.6333 22.3645L76.9956 23.6713H78.2643Z" fill="#727272"/>
<path d="M82.622 21.8083H81.6017V25.7018L80.8901 25.7822V21.8083H79.6953L79.9034 21.1516H82.622V21.8083Z" fill="#727272"/>
<path d="M86.0454 25.0853L85.8575 25.742H83.2061V21.1516H85.7367L85.8709 21.8083H83.9176V23.0748H85.5353V23.7316H83.9176V25.0853H86.0454Z" fill="#727272"/>
<path d="M90.5964 25.742L89.8782 25.8492L88.4081 22.532L86.9851 25.8492L86.2803 25.742L88.435 20.955L90.5964 25.742Z" fill="#727272"/>
<path d="M93.9256 24.3381C93.9256 24.7256 93.8004 25.0462 93.5498 25.3008C93.2589 25.5946 92.8427 25.742 92.3012 25.742H90.9453V21.1449L91.6568 21.0644V22.9274H92.167C92.7622 22.9274 93.2141 23.0726 93.5229 23.3619C93.7914 23.612 93.9257 23.9371 93.9257 24.338L93.9256 24.3381ZM93.2141 24.3314C93.2141 24.1091 93.1302 23.9293 92.9624 23.7908C92.7946 23.6534 92.5697 23.5842 92.2878 23.5842H91.6568V25.0853H92.3012C92.61 25.0853 92.8449 25.0071 93.006 24.8518C93.1447 24.7133 93.2141 24.5402 93.2141 24.3313L93.2141 24.3314Z" fill="#727272"/>
<path d="M97.7713 22.0428C97.6415 21.949 97.4983 21.8708 97.3417 21.8083C97.1403 21.7279 96.9389 21.6877 96.7376 21.6877C96.2453 21.6877 95.8358 21.8597 95.5092 22.2048C95.1825 22.5488 95.0191 22.9654 95.0191 23.4535C95.0191 23.9103 95.1814 24.3146 95.5058 24.6653C95.8302 25.0171 96.2363 25.1925 96.7241 25.1925C96.8807 25.1925 97.0396 25.1679 97.2007 25.1187C97.4021 25.0562 97.59 24.9579 97.7645 24.8239L97.6571 25.6549C97.5139 25.7174 97.3584 25.7654 97.1906 25.7989C97.0228 25.8324 96.8494 25.8492 96.6704 25.8492C96.0081 25.8492 95.4487 25.6169 94.9923 25.1511C94.5358 24.6865 94.3076 24.1135 94.3076 23.4333C94.3076 22.7666 94.537 22.1992 94.9956 21.7323C95.4543 21.2643 96.0305 21.0309 96.7241 21.0309C96.9389 21.0309 97.1336 21.0532 97.3081 21.0979C97.3976 21.1203 97.5139 21.1627 97.6571 21.2253L97.7713 22.0428V22.0428Z" fill="#727272"/>
<path d="M100.866 21.8083H99.8458V25.7018L99.1343 25.7822V21.8083H97.9395L98.1475 21.1516H100.866V21.8083Z" fill="#727272"/>
<path d="M104.384 24.4352C104.384 24.8239 104.247 25.1344 103.974 25.3667C103.683 25.6169 103.285 25.742 102.779 25.742H101.45V21.1516H102.564C103.155 21.1516 103.594 21.2945 103.88 21.5793C104.095 21.7927 104.202 22.0563 104.202 22.3679C104.202 22.5767 104.152 22.7722 104.051 22.952C103.951 23.1329 103.8 23.2737 103.598 23.3764C103.831 23.4479 104.02 23.5752 104.165 23.7584C104.311 23.9416 104.384 24.1672 104.384 24.4352H104.384ZM103.504 22.4483C103.504 22.2617 103.435 22.1087 103.296 21.9881C103.157 21.8686 102.956 21.8083 102.692 21.8083H102.162V23.0949H102.766C102.99 23.0949 103.169 23.0324 103.303 22.9084C103.437 22.7833 103.504 22.6303 103.504 22.4482V22.4483ZM103.672 24.395C103.672 24.2074 103.607 24.0488 103.477 23.9192C103.33 23.7718 103.124 23.6981 102.86 23.6981H102.162V25.0852H102.793C103.075 25.0852 103.296 25.0138 103.457 24.8708C103.6 24.7457 103.672 24.5871 103.672 24.395L103.672 24.395Z" fill="#727272"/>
<path d="M109.385 25.6995L108.673 25.8481L107.921 24.2878H106.089L105.33 25.8481L104.646 25.6995L107.022 20.955L109.385 25.6995ZM107.639 23.6713L107.008 22.3645L106.371 23.6713H107.639Z" fill="#727272"/>
<path d="M4.30725 11.3725C4.63602 11.3725 4.90256 11.6386 4.90256 11.9669C4.90256 12.2951 4.63602 12.5612 4.30725 12.5612V11.3726V11.3725ZM1.07717 9.33646H2.26777L2.27042 9.44185L2.2783 9.54545L2.29131 9.64736L2.30922 9.74752L2.33196 9.84583L2.35937 9.9422L2.39138 10.0366L2.42784 10.1289L2.46863 10.2189L2.51359 10.3066L2.56267 10.3918L2.61576 10.4744L2.67267 10.5543L2.73328 10.6313L2.79753 10.7054L2.86514 10.7762L2.93609 10.8437L3.01023 10.9078L3.08736 10.9683L3.1674 11.0252L3.25021 11.0782L3.33552 11.1272L3.42335 11.1721L3.51355 11.2128L3.60599 11.2492L3.70053 11.2811L3.79706 11.3085L3.89551 11.3312L3.99586 11.3491L4.09793 11.3621L4.20172 11.3699L4.30727 11.3726V12.5612L4.14166 12.557L3.97783 12.5446L3.81619 12.5241L3.65701 12.4957L3.50056 12.4596L3.34703 12.4161L3.1967 12.3653L3.04987 12.3075L2.90667 12.2429L2.76727 12.1716L2.63192 12.0939L2.50093 12.0101L2.37434 11.9202L2.25243 11.8245L2.13534 11.7233L2.02326 11.6166L1.91643 11.5047L1.81503 11.3879L1.7192 11.2662L1.6292 11.1398L1.54521 11.009L1.46739 10.8739L1.39598 10.7347L1.33126 10.5918L1.27336 10.4452L1.22249 10.2951L1.17888 10.1418L1.14276 9.9856L1.11433 9.8267L1.09379 9.66534L1.08135 9.50176L1.07715 9.33645L1.07717 9.33646ZM1.07717 9.33646C1.07717 9.00823 1.3437 8.74214 1.67248 8.74214C2.00125 8.74214 2.26779 9.00823 2.26779 9.33646H1.07719H1.07717ZM4.30725 6.11177V7.30039L4.2017 7.30304L4.09791 7.31091L3.99584 7.32389L3.89549 7.34178L3.79704 7.36448L3.70051 7.39184L3.60597 7.4238L3.51353 7.4602L3.42333 7.5009L3.3355 7.5458L3.25019 7.5948L3.16738 7.64781L3.08735 7.70462L3.01019 7.76515L2.93603 7.82927L2.86514 7.89674L2.79751 7.96758L2.73326 8.0416L2.67265 8.11863L2.61574 8.19851L2.56267 8.28118L2.51357 8.36639L2.46861 8.45403L2.42783 8.5441L2.39136 8.63641L2.35935 8.73077L2.33194 8.82712L2.3092 8.92543L2.29129 9.02559L2.27828 9.1275L2.2704 9.2311L2.26775 9.33648H1.07715L1.08135 9.17117L1.09379 9.00759L1.11433 8.84623L1.14276 8.68733L1.17888 8.53112L1.22249 8.37784L1.27336 8.22779L1.33126 8.08121L1.39598 7.93823L1.46739 7.79907L1.54519 7.66398L1.6292 7.53319L1.7192 7.40683L1.81503 7.2851L1.91643 7.16824L2.02324 7.05636L2.13538 6.94964L2.25245 6.84843L2.37434 6.75278L2.50093 6.66292L2.63192 6.57907L2.76727 6.50138L2.90667 6.43011L3.04987 6.36548L3.1967 6.30768L3.34703 6.25689L3.50056 6.21335L3.65701 6.17729L3.81619 6.14892L3.97783 6.12841L4.14166 6.11599L4.30727 6.11179L4.30725 6.11177ZM4.30725 6.11177C4.63602 6.11177 4.90256 6.37786 4.90256 6.70609C4.90256 7.03432 4.63602 7.30041 4.30725 7.30041V6.11179V6.11177ZM7.53731 9.33646H6.34671L6.34406 9.23108L6.33617 9.12748L6.32317 9.02557L6.30526 8.92541L6.28252 8.8271L6.2551 8.73075L6.2231 8.63639L6.18663 8.54408L6.14584 8.45401L6.10089 8.36637L6.05179 8.28116L5.99871 8.19849L5.94181 8.11861L5.88118 8.04156L5.81697 7.96756L5.74933 7.89676L5.67841 7.82923L5.60429 7.76513L5.52711 7.7046L5.44709 7.64779L5.36429 7.5948L5.27894 7.54578L5.19115 7.50089L5.10093 7.46018L5.00847 7.42378L4.91395 7.39182L4.81744 7.36446L4.71896 7.34176L4.61864 7.32387L4.51656 7.31089L4.41277 7.30302L4.30723 7.30037V6.11175L4.47283 6.11595L4.63667 6.12837L4.7983 6.14888L4.95746 6.17725L5.11393 6.21331L5.26747 6.25685L5.41777 6.30764L5.56459 6.36544L5.7078 6.43007L5.8472 6.50134L5.98252 6.57901L6.11352 6.66288L6.24009 6.75274L6.36201 6.84839L6.47908 6.94962L6.59118 7.05629L6.69803 7.1682L6.79942 7.28508L6.89523 7.40679L6.98524 7.53315L7.06925 7.66394L7.14705 7.79903L7.21846 7.9382L7.28318 8.08117L7.34108 8.22775L7.39195 8.3778L7.43556 8.53108L7.47168 8.68729L7.5001 8.84619L7.52064 9.00755L7.53308 9.17113L7.53729 9.33645L7.53731 9.33646ZM7.53731 9.33646C7.53731 9.66469 7.27077 9.93079 6.942 9.93079C6.61322 9.93079 6.34669 9.66469 6.34669 9.33646H7.53729H7.53731ZM6.34671 28.5025V9.33646H7.53731V28.5025H6.34671ZM7.53731 28.5025C7.53731 28.8308 7.27077 29.0969 6.942 29.0969C6.61322 29.0969 6.34669 28.8308 6.34669 28.5025H7.53729H7.53731Z" fill="#0865A2"/>
<path d="M21.6667 12.5612C21.3379 12.5612 21.0714 12.2951 21.0714 11.9669C21.0714 11.6386 21.3379 11.3725 21.6667 11.3725V12.5612V12.5612ZM23.7062 9.33646H24.8968L24.8926 9.50179L24.8802 9.66537L24.8596 9.82674L24.8312 9.98569L24.795 10.1419L24.7515 10.2951L24.7006 10.4452L24.6427 10.5918L24.5779 10.7348L24.5065 10.874L24.4287 11.009L24.3447 11.1398L24.2547 11.2662L24.1589 11.3879L24.0574 11.5048L23.9506 11.6167L23.8386 11.7234L23.7215 11.8246L23.5995 11.9203L23.4729 12.0101L23.3419 12.094L23.2066 12.1716L23.0672 12.2429L22.924 12.3075L22.7772 12.3653L22.6268 12.4161L22.4733 12.4596L22.3169 12.4957L22.1577 12.5241L21.9961 12.5446L21.8322 12.557L21.6666 12.5612V11.3726L21.7722 11.3699L21.876 11.362L21.9781 11.3491L22.0784 11.3312L22.1769 11.3085L22.2734 11.2811L22.368 11.2491L22.4604 11.2128L22.5506 11.1721L22.6384 11.1271L22.7238 11.0781L22.8066 11.0251L22.8866 10.9684L22.9637 10.9079L23.0378 10.8437L23.1088 10.7762L23.1765 10.7054L23.2407 10.6314L23.3013 10.5544L23.3582 10.4745L23.4113 10.3918L23.4604 10.3066L23.5053 10.2189L23.5461 10.1289L23.5826 10.0367L23.6146 9.94227L23.642 9.84583L23.6647 9.74751L23.6827 9.64738L23.6957 9.54547L23.7035 9.44187L23.7062 9.33646ZM23.7062 9.33646C23.7062 9.00823 23.9727 8.74214 24.3015 8.74214C24.6303 8.74214 24.8968 9.00823 24.8968 9.33646H23.7062H23.7062ZM21.6667 7.30041V6.11179L21.8323 6.11599L21.9961 6.12841L22.1578 6.14891L22.3169 6.17729L22.4734 6.21335L22.6269 6.25689L22.7772 6.30767L22.9241 6.36548L23.0673 6.43011L23.2067 6.50138L23.342 6.57905L23.473 6.66292L23.5996 6.75278L23.7215 6.84843L23.8386 6.94964L23.9507 7.05632L24.0575 7.1682L24.1589 7.2851L24.2548 7.40683L24.3448 7.53319L24.4288 7.66398L24.5066 7.79907L24.578 7.9382L24.6427 8.08119L24.7006 8.22782L24.7515 8.37788L24.7951 8.5311L24.8312 8.68731L24.8597 8.84625L24.8802 9.00761L24.8926 9.17119L24.8968 9.3365H23.7062L23.7036 9.23112L23.6957 9.12752L23.6827 9.02561L23.6648 8.92549L23.642 8.82718L23.6146 8.73075L23.5826 8.63639L23.5462 8.54414L23.5054 8.45409L23.4604 8.36641L23.4113 8.2812L23.3582 8.19853L23.3013 8.11865L23.2407 8.04162L23.1765 7.96764L23.1088 7.89679L23.0379 7.82929L22.9638 7.76517L22.8866 7.70464L22.8066 7.64783L22.7238 7.59484L22.6384 7.54582L22.5506 7.50092L22.4604 7.46022L22.368 7.42382L22.2734 7.39186L22.1769 7.3645L22.0784 7.34179L21.9781 7.32391L21.876 7.31093L21.7722 7.30306L21.6667 7.30041ZM21.6667 7.30041C21.3379 7.30041 21.0714 7.03432 21.0714 6.70609C21.0714 6.37786 21.3379 6.11177 21.6667 6.11177V7.30039V7.30041ZM19.6271 9.33646H18.4365L18.4407 9.17115L18.4532 9.00757L18.4737 8.84621L18.5022 8.68731L18.5383 8.5311L18.5819 8.37782L18.6328 8.22777L18.6907 8.08119L18.7554 7.93818L18.8268 7.79905L18.9046 7.664L18.9886 7.53317L19.0786 7.40681L19.1744 7.28508L19.2759 7.16818L19.3827 7.05634L19.4948 6.94964L19.6119 6.84839L19.7338 6.75274L19.8604 6.6629L19.9914 6.57905L20.1267 6.50136L20.2661 6.43007L20.4093 6.36546L20.5562 6.30766L20.7065 6.25687L20.86 6.21333L21.0165 6.17727L21.1757 6.1489L21.3373 6.12839L21.5011 6.11597L21.6667 6.11177V7.30039L21.5612 7.30304L21.4574 7.31091L21.3553 7.32389L21.255 7.34177L21.1565 7.36448L21.06 7.39184L20.9655 7.4238L20.873 7.4602L20.7828 7.50092L20.695 7.5458L20.6097 7.5948L20.5269 7.64781L20.4468 7.70464L20.3696 7.76517L20.2955 7.82925L20.2246 7.89674L20.1569 7.96762L20.0927 8.0416L20.0321 8.11863L19.9752 8.19851L19.9221 8.28114L19.873 8.36639L19.828 8.45407L19.7873 8.5441L19.7508 8.63641L19.7188 8.73077L19.6914 8.82712L19.6687 8.92543L19.6507 9.02559L19.6377 9.1275L19.6298 9.2311L19.6272 9.33648L19.6271 9.33646ZM19.6271 9.33646C19.6271 9.66469 19.3606 9.93078 19.0318 9.93078C18.7031 9.93078 18.4365 9.66469 18.4365 9.33646H19.6271H19.6271ZM18.4365 28.7064V9.33646H19.6271V28.7064H18.4365ZM19.6271 28.7064C19.6271 29.0346 19.3606 29.3007 19.0318 29.3007C18.7031 29.3007 18.4365 29.0346 18.4365 28.7064H19.6271H19.6271Z" fill="#0865A2"/>
<path d="M4.43808 4.42605C4.10931 4.42605 3.84277 4.15996 3.84277 3.83173C3.84277 3.5035 4.10931 3.23741 4.43808 3.23741V4.42603V4.42605ZM21.4884 4.42605H4.43808V3.23743H21.4884V4.42605ZM21.4884 3.23743C21.8172 3.23743 22.0837 3.50352 22.0837 3.83175C22.0837 4.15998 21.8172 4.42607 21.4884 4.42607V3.23745V3.23743Z" fill="#0865A2"/>
<path d="M9.36916 6.70609C9.36916 6.37786 9.63569 6.11177 9.96447 6.11177C10.2932 6.11177 10.5598 6.37786 10.5598 6.70609H9.36918H9.36916ZM9.36916 30.4839V6.70609H10.5598V30.4839H9.36916ZM10.5598 30.4839C10.5598 30.8121 10.2932 31.0782 9.96445 31.0782C9.63567 31.0782 9.36914 30.8121 9.36914 30.4839H10.5597H10.5598Z" fill="#0865A2"/>
<path d="M0.59531 1.18856C0.266534 1.18856 0 0.922473 0 0.594243C0 0.266013 0.266534 -7.82013e-05 0.59531 -7.82013e-05V1.18854V1.18856ZM25.3957 1.18856H0.59531V-5.87644e-05H25.3957V1.18856ZM25.3957 -5.87644e-05C25.7245 -5.87644e-05 25.9911 0.266032 25.9911 0.594262C25.9911 0.922493 25.7245 1.18858 25.3957 1.18858V-3.93276e-05V-5.87644e-05Z" fill="#0865A2"/>
<path d="M12.3916 6.70609C12.3916 6.37903 12.6582 6.11385 12.9869 6.11385C13.3157 6.11385 13.5822 6.37903 13.5822 6.70609H12.3916H12.3916ZM12.3916 32.4078V6.70609H13.5822V32.4078H12.3916ZM13.5822 32.4078C13.5822 32.7348 13.3157 33 12.9869 33C12.6581 33 12.3916 32.7348 12.3916 32.4078H13.5822H13.5822Z" fill="#0865A2"/>
<path d="M15.4141 6.70609C15.4141 6.37786 15.6806 6.11177 16.0094 6.11177C16.3382 6.11177 16.6047 6.37786 16.6047 6.70609H15.4141H15.4141ZM15.4141 30.6227V6.70609H16.6047V30.6227H15.4141ZM16.6047 30.6227C16.6047 30.9509 16.3381 31.217 16.0094 31.217C15.6806 31.217 15.4141 30.9509 15.4141 30.6227H16.6047H16.6047Z" fill="#0865A2"/>
</g>
<defs>
<clipPath id="clip0_2962_3552">
<rect width="125" height="33" fill="white"/>
</clipPath>
</defs>
</svg>
