<svg width="1160" height="387" viewBox="0 0 1160 387" fill="none" xmlns="http://www.w3.org/2000/svg">
<g opacity="0.1">
<path d="M-7 -16.6973C-7 -16.6973 257.933 -16.6973 536.117 -16.6973C550.764 -16.6973 565.456 -16.6973 580.428 -16.3719C688.438 -0.00729106 791.705 25.7948 905.247 10.3135C972.341 -0.00730069 1029.16 -20.649 1095.97 -16.6043C1110.85 -16.6973 1123.78 -16.6973 1134.33 -16.6973C1155.49 -16.6973 1167.2 -16.6973 1167.2 -16.6973" stroke="white" stroke-miterlimit="10"/>
<path d="M-7 45.0883C-7 45.0883 43.9594 45.0883 124.676 45.0883C140.81 45.0883 158.107 45.0883 176.379 45.0883C188.608 45.3208 200.929 45.5068 213.344 45.6462C225.758 45.7857 238.219 45.8787 250.726 45.9252C311.636 46.3901 373.615 46.39 434.524 45.0883C446.473 45.0883 458.516 45.0883 470.651 45.0883C506.779 45.0883 543.464 45.0883 580.149 45.0883C594.842 45.0883 609.488 45.0884 624.227 45.1349C771.061 61.8714 915.616 56.7109 1059.24 45.4138C1081.23 45.0884 1100.72 45.0883 1116.76 45.0883C1148.89 45.0883 1167.2 45.0883 1167.2 45.0883" stroke="white" stroke-miterlimit="10"/>
<path d="M-7 106.874C-7 106.874 4.76344 106.874 25.8725 106.874C36.4271 106.874 49.3529 106.874 64.3246 106.874C82.3184 107.06 100.266 107.153 118.12 107.153C275.415 98.0407 425.132 108.362 580.102 106.874C598.468 106.874 616.788 106.874 635.06 106.874C653.333 106.874 671.56 106.874 689.693 106.92C796.866 108.362 910.409 108.362 1019.16 107.013C1041.57 106.874 1062.08 106.874 1080.21 106.874C1134.56 106.874 1167.2 106.874 1167.2 106.874" stroke="white" stroke-miterlimit="10"/>
<path d="M-7 168.659C-7 168.659 11.3658 168.659 43.1225 168.706C59.117 168.334 75.0651 167.869 90.9201 167.032C270.301 134.117 445.823 159.966 624.134 168.659C638.78 168.659 653.38 168.659 667.933 168.659C694.11 168.659 720.008 168.659 745.488 168.659C758.228 168.659 770.828 168.659 783.336 168.659C838.247 170.287 900.179 170.287 956.718 168.659C977.548 168.659 997.263 168.659 1015.72 168.659C1107.88 168.659 1167.3 168.659 1167.3 168.659" stroke="white" stroke-miterlimit="10"/>
<path d="M-7 230.445C-7 230.445 4.76344 230.445 25.5936 230.492C43.8664 229.097 62.0928 227.423 80.1331 224.773C254.818 165.126 440.662 185.768 623.39 230.166C638.734 230.399 653.38 230.445 667.886 230.445C929.425 230.445 1167.2 230.445 1167.2 230.445" stroke="white" stroke-miterlimit="10"/>
<path d="M-7 292.231C-7 292.231 4.76343 292.231 25.5006 292.277C41.3556 294.323 56.6527 294.183 71.4849 291.905C130.907 278.655 177.356 237.372 239.335 221.891C373.568 190.928 487.157 263.174 616.695 281.724C634.502 284.792 651.38 288.279 667.933 292.231C682.486 292.231 696.946 292.231 711.267 292.231C955.184 292.231 1167.25 292.231 1167.25 292.231" stroke="white" stroke-miterlimit="10"/>
<path d="M-7 354.063C-7 354.063 4.76344 354.063 25.7795 354.063C36.5666 354.574 47.5861 355.271 58.4661 355.55C130.907 366.429 161.873 289.023 223.852 268.381C275.462 247.739 332.28 258.06 383.89 273.541C461.352 299.344 533.607 330.306 617.02 341.138C634.596 344.904 651.287 349.042 667.793 353.412C682.44 354.016 696.9 354.016 711.221 354.063C955.137 354.063 1167.2 354.063 1167.2 354.063" stroke="white" stroke-miterlimit="10"/>
<path d="M-7 415.848C-7 415.848 4.76344 415.848 25.8725 415.848C36.4271 415.848 49.3529 415.848 64.1851 415.802C94.7328 407.712 136.021 423.24 156.665 397.392C285.738 247.693 466.42 381.91 618.322 400.553C634.828 404.877 651.287 409.711 667.793 415.104C682.393 415.755 696.853 415.755 711.221 415.802C955.137 415.802 1167.2 415.802 1167.2 415.802" stroke="white" stroke-miterlimit="10"/>
<path d="M54.7923 601.205C54.7923 601.205 54.7923 554.25 54.7923 479.122C54.7923 460.34 54.7923 439.791 54.7458 417.801C54.3274 386.931 54.0019 356.573 53.8624 326.448C53.7229 296.275 53.7229 266.382 53.8624 236.303C54.0019 206.224 54.2809 176.005 54.6994 145.321C54.7923 130.956 54.8388 116.497 54.8388 101.992C54.8388 -217.675 54.8388 -572.814 54.8388 -572.814" stroke="white" stroke-miterlimit="10"/>
<path d="M116.587 601.205C116.587 601.205 116.587 574.799 116.587 529.889C116.587 514.919 116.587 497.904 116.587 478.982C110.263 371.59 110.263 268.335 112.03 161.686C113.472 127.516 115.006 92.6014 116.587 58.1521C116.587 43.5076 116.587 28.8167 116.587 14.1723C116.587 -279.367 116.587 -572.861 116.587 -572.861" stroke="white" stroke-miterlimit="10"/>
<path d="M178.424 601.205C178.424 601.205 178.424 594.603 178.424 582.377C178.424 570.15 178.424 552.344 178.378 529.703C151.55 387.071 146.389 232.212 172.101 88.8821C174.1 72.7035 176.146 56.06 178.331 39.37C178.471 26.7711 178.471 14.1723 178.471 1.61989C178.471 -287.643 178.471 -572.861 178.471 -572.861" stroke="white" stroke-miterlimit="10"/>
<path d="M240.219 601.205C237.568 584.655 234.965 568.197 232.5 551.786C203.162 392.231 177.356 227.051 228.13 69.4027C231.803 53.9214 235.709 37.7894 240.079 21.5178C240.172 8.03558 240.172 -5.40015 240.172 -18.8358C240.172 -300.939 240.172 -572.861 240.172 -572.861" stroke="white" stroke-miterlimit="10"/>
<path d="M302.011 599.95C302.569 585.584 302.011 571.498 300.476 557.644C285.784 449.042 208.322 350.994 223.805 232.258C234.127 154.805 306.428 103.201 301.964 19.7046C302.011 6.8733 302.011 -6.0045 302.011 -18.7893C302.011 -300.892 302.011 -572.814 302.011 -572.814" stroke="white" stroke-miterlimit="10"/>
<path d="M363.664 597.021C363.571 579.215 361.804 561.828 358.41 544.533C301.267 392.231 213.529 232.212 347.763 82.513C363.246 72.1921 368.407 46.3901 363.85 19.6581C363.85 6.82683 363.85 -6.00452 363.85 -18.8358C363.804 -300.939 363.804 -572.861 363.804 -572.861" stroke="white" stroke-miterlimit="10"/>
<path d="M425.363 595.58C421.736 577.309 418.063 559.131 413.879 541.047C352.876 381.91 306.38 206.41 424.433 58.245C425.363 43.5541 425.595 28.8632 425.595 14.1723C425.595 -46.9624 425.595 -108.144 425.595 -166.628C425.595 -178.344 425.595 -189.92 425.595 -201.403C425.131 -263.328 425.131 -325.3 425.595 -389.456C425.595 -407.82 425.595 -425.114 425.595 -441.247C425.595 -521.954 425.595 -572.907 425.595 -572.907" stroke="white" stroke-miterlimit="10"/>
<path d="M487.296 597.16C485.203 580.796 483.25 564.431 481.391 548.02C478.74 531.702 476.23 515.338 473.114 499.019C409.694 350.948 440.66 201.249 486.924 58.1986C487.435 38.9517 487.435 19.6581 487.435 0.411142C487.435 -18.8358 487.435 -38.0828 487.435 -57.2368C487.435 -69.9751 487.435 -82.7135 487.435 -95.3588C488.039 -111.212 488.504 -127.065 488.83 -142.965C489.155 -158.865 489.341 -174.811 489.388 -190.943C487.156 -289.177 487.156 -382.111 487.435 -477.648C487.435 -492.479 487.435 -505.868 487.435 -517.584C487.435 -552.73 487.435 -572.953 487.435 -572.953" stroke="white" stroke-miterlimit="10"/>
<path d="M549.231 599.95C548.72 583.306 548.255 566.663 547.929 550.066C547.511 533.329 547.185 516.639 546.813 499.81C512.918 371.589 533.562 237.372 548.859 101.946C549.231 87.3944 549.231 72.7964 549.231 58.152C549.231 45.3207 549.231 32.4894 549.231 19.6581C549.231 6.82677 549.231 -6.00458 549.231 -18.8359C550.905 -30.319 552.346 -41.6161 553.555 -52.8203C554.717 -63.9779 555.694 -75.0426 556.484 -86.0608C569.736 -242.687 549.092 -392.385 549.231 -547.477C549.231 -563.888 549.231 -572.861 549.231 -572.861" stroke="white" stroke-miterlimit="10"/>
<path d="M611.022 601.205C611.022 565.733 611.022 530.772 611.022 496.091C611.022 478.75 611.022 461.502 611.022 444.3C611.022 427.099 610.883 409.944 610.511 392.882C605.861 309.711 611.022 227.098 611.069 145.321C611.069 133.559 611.069 121.658 611.069 109.756C611.069 97.8548 611.069 85.8603 611.069 73.8658C611.069 61.8713 611.069 49.8303 611.069 37.7894C617.532 22.0756 622.832 6.26892 627.156 -9.67725C657.518 -196.196 605.908 -387.178 611.069 -572.861" stroke="white" stroke-miterlimit="10"/>
<path d="M672.815 601.205C672.815 601.205 672.815 574.799 672.815 529.889C672.815 514.919 672.815 497.904 672.815 479.075C672.954 423.194 672.954 366.429 672.815 309.758C672.815 296.88 672.815 283.769 672.815 270.38C672.815 229.701 672.815 186.93 672.815 143.229C672.815 128.631 672.815 113.94 672.815 99.203C672.861 75.3535 674.21 51.8294 679.371 30.3974C684.532 8.96535 693.598 -10.421 708.989 -25.9488C729.726 -51.7044 745.209 -82.6669 745.209 -118.79C734.887 -273.649 652.264 -413.027 672.768 -572.907" stroke="white" stroke-miterlimit="10"/>
<path d="M734.606 601.205C734.606 601.205 734.606 409.805 734.606 181.584C734.606 169.589 734.606 157.455 734.606 145.275C727.027 106.177 737.396 71.1229 752.926 38.1148C758.087 27.0966 763.852 16.3574 769.664 5.71111C807.14 -46.4975 822.623 -108.469 812.301 -175.555C781.335 -314.932 714.195 -433.669 734.56 -572.907" stroke="white" stroke-miterlimit="10"/>
<path d="M796.401 601.205C796.401 601.205 796.401 429.424 796.401 217.288C796.401 205.48 796.401 193.578 796.401 181.584C786.358 112.127 817.464 54.5259 843.873 -5.21413C850.476 -20.1375 856.752 -35.2004 861.96 -50.6351C874.281 -82.6669 879.442 -118.836 874.281 -149.799C832.993 -294.337 776.175 -423.394 796.401 -572.907" stroke="white" stroke-miterlimit="10"/>
<path d="M858.24 601.205C858.24 601.205 858.24 429.424 858.24 217.288C858.24 205.48 858.24 193.578 858.24 181.584C850.15 107.618 881.07 41.5551 900.552 -29.2032C904.457 -43.3362 907.898 -57.7017 910.455 -72.2997C915.616 -216.838 843.362 -356.216 858.147 -501.823C858.24 -523.999 858.24 -541.805 858.24 -554.032C858.24 -566.259 858.24 -572.861 858.24 -572.861" stroke="white" stroke-miterlimit="10"/>
<path d="M920.035 601.205C920.035 601.205 920.035 429.424 920.035 217.288C920.035 204.829 920.035 192.184 920.035 179.445C930.729 84.5121 941.237 -9.39823 943.841 -103.727C944.259 -122.556 944.399 -141.431 944.073 -160.399C941.469 -258.168 920.825 -351.102 919.988 -450.823C920.035 -469.559 920.035 -486.575 920.035 -501.591C920.035 -546.501 920.035 -572.907 920.035 -572.907" stroke="white" stroke-miterlimit="10"/>
<path d="M981.824 601.205C981.824 601.205 981.824 409.805 981.824 181.584C981.824 168.148 981.824 154.619 981.871 140.998C989.682 31.4202 992.053 -74.8101 988.892 -181.505C988.427 -196.754 987.869 -212.003 987.171 -227.252C982.708 -268.442 982.708 -314.932 981.824 -355.286C981.824 -376.764 981.824 -397.081 981.824 -416.095C981.824 -511.168 981.824 -572.814 981.824 -572.814" stroke="white" stroke-miterlimit="10"/>
<path d="M1043.62 601.205C1043.62 601.205 1043.62 376.471 1043.62 123.657C1043.62 111.012 1043.62 98.3197 1043.71 85.6278C1044.64 -20.7419 1049.8 -134.318 1043.71 -241.989C1043.62 -253.798 1043.62 -265.327 1043.62 -276.624C1043.62 -446.5 1043.62 -572.907 1043.62 -572.907" stroke="white" stroke-miterlimit="10"/>
<path d="M1105.41 601.205C1105.41 601.205 1105.41 336.303 1105.41 58.1521C1105.41 43.5076 1105.41 28.8168 1105.41 14.1723C1106.62 -41.3371 1106.62 -103.309 1105.41 -159.608C1105.41 -173.695 1105.41 -187.642 1105.41 -201.403C1105.41 -407.773 1105.41 -572.907 1105.41 -572.907" stroke="white" stroke-miterlimit="10"/>
</g>
</svg>
