<svg width="636" height="314" viewBox="0 0 636 314" fill="none" xmlns="http://www.w3.org/2000/svg">
<g opacity="0.25">
<path d="M0 -17.1204C0 -17.1204 89.3727 -17.1204 201.12 -17.1204C208.57 -17.1204 216.12 -17.1204 223.746 -17.1204C230.215 -17.8753 236.607 -18.1773 242.925 -18.1018C287.02 -16.8939 326.156 -8.51383 370.855 -2.92712C426.754 5.45294 479.834 -11.3072 536.287 -17.1204C548.217 -17.1204 559.341 -17.1204 569.509 -17.1204C610.181 -17.1204 635.601 -17.1204 635.601 -17.1204" stroke="url(#paint0_radial_456_2370)" stroke-miterlimit="10"/>
<path d="M0 16.3244C0 16.3244 89.3727 16.3244 201.12 16.3244C208.57 16.3244 216.12 16.3244 223.746 16.3244C230.215 15.8211 236.607 15.7707 242.925 16.0727C249.267 16.3747 255.534 17.0038 261.675 17.6581C326.131 19.4197 382.03 55.7585 443.516 58.5518C477.04 58.5518 502.209 30.6183 533.292 19.2436C538.929 17.2555 544.693 15.8462 550.708 15.2674C556.698 14.7138 562.94 14.9654 569.509 16.3244C579.677 16.3244 588.889 16.3244 596.993 16.3244C621.305 16.3244 635.601 16.3244 635.601 16.3244" stroke="url(#paint1_radial_456_2370)" stroke-miterlimit="10"/>
<path d="M0 49.7691C0 49.7691 89.3727 49.7691 201.12 49.7691C208.57 49.7691 216.12 49.7691 223.746 49.7691C232.908 49.3664 241.842 49.5678 250.651 50.2724C259.46 50.977 268.118 52.0591 276.524 53.1161C317.775 55.7584 354.093 72.5186 390.436 89.2787C449.129 114.419 499.415 80.8986 548.619 54.2988C556.094 51.5307 563.796 49.4923 571.824 48.6115C579.853 47.7307 588.209 47.9823 597.018 49.7691C609.174 49.7691 618.839 49.7691 625.433 49.7691C632.052 49.7691 635.626 49.7691 635.626 49.7691" stroke="url(#paint2_radial_456_2370)" stroke-miterlimit="10"/>
<path d="M0 83.2138C0 83.2138 101.705 83.2138 223.746 83.2138C231.372 83.2138 239.074 83.2138 246.851 83.239C256.012 85.1516 265.148 86.9131 274.234 88.5237C351.325 97.6587 429.573 133.997 507.242 112.657C515.8 110.317 524.332 107.247 532.814 103.396C541.295 99.5461 549.727 94.8654 558.133 89.2787C572.101 80.8986 583.276 83.692 597.093 83.2641C609.199 83.2138 618.864 83.2138 625.458 83.2138C632.077 83.2138 635.651 83.2138 635.651 83.2138" stroke="url(#paint3_radial_456_2370)" stroke-miterlimit="10"/>
<path d="M0 116.659C0 116.659 128.711 116.659 270.283 116.659C278.16 116.659 286.088 116.684 294.419 117.162C354.093 136.791 415.554 142.378 476.411 138.452C486.479 137.571 496.546 136.413 506.613 135.029C536.815 130.852 566.967 124.46 597.119 116.784C609.149 116.659 618.814 116.659 625.408 116.659C632.027 116.659 635.601 116.659 635.601 116.659" stroke="url(#paint4_radial_456_2370)" stroke-miterlimit="10"/>
<path d="M0 150.129C0 150.129 143.409 150.129 293.991 150.129C301.919 150.129 309.872 150.129 317.977 150.305C376.443 159.163 432.342 173.13 493.803 164.75C530.12 159.163 560.876 147.989 597.043 150.179C605.097 150.128 612.094 150.129 617.807 150.129C629.259 150.129 635.601 150.129 635.601 150.129" stroke="url(#paint5_radial_456_2370)" stroke-miterlimit="10"/>
<path d="M0 183.573C0 183.573 27.5845 183.573 71.2767 183.573C80.0101 183.573 89.3727 183.573 99.2639 183.573C105.883 183.699 112.553 183.8 119.273 183.875C125.993 183.951 132.738 184.001 139.508 184.026C172.479 184.278 206.028 184.278 238.998 183.573C245.467 183.573 251.985 183.573 258.554 183.573C278.11 183.573 297.968 183.573 317.826 183.573C325.779 183.573 333.707 183.573 341.685 183.598C421.167 192.658 499.415 189.865 577.16 183.749C589.065 183.573 599.61 183.573 608.293 183.573C625.685 183.573 635.601 183.573 635.601 183.573" stroke="url(#paint6_radial_456_2370)" stroke-miterlimit="10"/>
<path d="M0 217.018C0 217.018 6.36759 217.018 17.794 217.018C23.5072 217.018 30.504 217.018 38.6082 217.018C48.3484 217.119 58.0633 217.169 67.728 217.169C152.872 212.237 233.914 217.823 317.8 217.018C327.742 217.018 337.658 217.018 347.549 217.018C357.441 217.018 367.307 217.018 377.122 217.043C435.135 217.823 496.596 217.823 555.465 217.093C567.596 217.018 578.695 217.018 588.511 217.018C617.933 217.018 635.601 217.018 635.601 217.018" stroke="url(#paint7_radial_456_2370)" stroke-miterlimit="10"/>
<path d="M0 250.463C0 250.463 9.94149 250.463 27.1315 250.488C35.7894 250.287 44.4221 250.035 53.0045 249.582C150.104 231.765 245.114 245.757 341.635 250.463C349.563 250.463 357.466 250.463 365.343 250.463C379.513 250.463 393.532 250.463 407.324 250.463C414.22 250.463 421.041 250.463 427.811 250.463C457.535 251.343 491.059 251.343 521.664 250.463C532.939 250.463 543.611 250.463 553.603 250.463C603.486 250.463 635.651 250.463 635.651 250.463" stroke="url(#paint8_radial_456_2370)" stroke-miterlimit="10"/>
<path d="M0 283.907C0 283.907 6.36759 283.907 17.643 283.933C27.5342 283.178 37.4001 282.272 47.1654 280.837C141.723 248.55 242.321 259.724 341.232 283.756C349.538 283.882 357.466 283.907 365.318 283.907C506.89 283.907 635.601 283.907 635.601 283.907" stroke="url(#paint9_radial_456_2370)" stroke-miterlimit="10"/>
<path d="M0 317.352C0 317.352 6.36759 317.352 17.5927 317.377C26.1751 318.485 34.4554 318.409 42.4841 317.176C74.6493 310.004 99.7924 287.657 133.342 279.277C206.003 262.517 267.489 301.624 337.608 311.665C347.247 313.326 356.384 315.213 365.343 317.352C373.221 317.352 381.048 317.352 388.8 317.352C520.833 317.352 635.626 317.352 635.626 317.352" stroke="url(#paint10_radial_456_2370)" stroke-miterlimit="10"/>
<path d="M0 350.822C0 350.822 6.36759 350.822 17.7437 350.822C23.5827 351.099 29.5476 351.476 35.437 351.627C74.6493 357.516 91.4114 315.616 124.961 304.442C152.898 293.269 183.653 298.856 211.59 307.236C253.521 321.202 292.632 337.963 337.784 343.826C347.298 345.865 356.333 348.104 365.268 350.47C373.196 350.797 381.023 350.797 388.775 350.822C520.808 350.822 635.601 350.822 635.601 350.822" stroke="url(#paint11_radial_456_2370)" stroke-miterlimit="10"/>
<path d="M0 484.601V-150.924" stroke="url(#paint12_radial_456_2370)" stroke-miterlimit="10"/>
<path d="M33.4487 484.601C33.4487 484.601 33.4487 459.184 33.4487 418.517C33.4487 408.35 33.4487 397.227 33.4235 385.324C33.197 368.614 33.0208 352.181 32.9453 335.874C32.8698 319.542 32.8698 303.36 32.9453 287.078C33.0208 270.796 33.1718 254.439 33.3983 237.83C33.4487 230.054 33.4738 222.227 33.4738 214.376C33.4738 41.3387 33.4738 -150.899 33.4738 -150.899" stroke="url(#paint13_radial_456_2370)" stroke-miterlimit="10"/>
<path d="M66.8974 484.601C66.8974 484.601 66.8974 470.307 66.8974 445.997C66.8974 437.894 66.8974 428.684 66.8974 418.441C63.4745 360.309 63.4745 304.417 64.4309 246.688C65.2111 228.191 66.0416 209.292 66.8974 190.645C66.8974 182.718 66.8974 174.765 66.8974 166.838C66.8974 7.94434 66.8974 -150.924 66.8974 -150.924" stroke="url(#paint14_radial_456_2370)" stroke-miterlimit="10"/>
<path d="M100.371 484.601C100.371 484.601 100.371 481.028 100.371 474.409C100.371 467.791 100.371 458.152 100.346 445.897C85.8238 368.69 83.0301 284.864 96.9482 207.279C98.0305 198.521 99.1379 189.512 100.321 180.478C100.396 173.658 100.396 166.838 100.396 160.044C100.396 3.46489 100.396 -150.924 100.396 -150.924" stroke="url(#paint15_radial_456_2370)" stroke-miterlimit="10"/>
<path d="M133.82 484.601C132.385 475.642 130.976 466.734 129.642 457.85C113.761 371.483 99.7925 282.07 127.276 196.735C129.265 188.355 131.379 179.622 133.745 170.814C133.795 163.517 133.795 156.244 133.795 148.971C133.795 -3.7324 133.795 -150.924 133.795 -150.924" stroke="url(#paint16_radial_456_2370)" stroke-miterlimit="10"/>
<path d="M167.269 483.922C167.571 476.146 167.269 468.52 166.438 461.021C158.485 402.235 116.555 349.161 124.936 284.889C130.523 242.963 169.66 215.03 167.244 169.833C167.269 162.887 167.269 155.917 167.269 148.996C167.269 -3.70727 167.269 -150.899 167.269 -150.899" stroke="url(#paint17_radial_456_2370)" stroke-miterlimit="10"/>
<path d="M200.642 482.336C200.591 472.698 199.635 463.286 197.798 453.925C166.866 371.483 119.373 284.864 192.034 203.831C200.415 198.245 203.209 184.278 200.742 169.808C200.742 162.862 200.742 155.916 200.742 148.971C200.717 -3.73246 200.717 -150.925 200.717 -150.925" stroke="url(#paint18_radial_456_2370)" stroke-miterlimit="10"/>
<path d="M234.04 481.556C232.077 471.666 230.089 461.826 227.824 452.037C194.803 365.896 169.634 270.897 233.537 190.695C234.04 182.743 234.166 174.791 234.166 166.838C234.166 133.746 234.166 100.628 234.166 68.9703C234.166 62.6286 234.166 56.3625 234.166 50.1466C233.914 16.6264 233.914 -16.919 234.166 -51.6472C234.166 -61.5875 234.166 -70.949 234.166 -79.6814C234.166 -123.368 234.166 -150.95 234.166 -150.95" stroke="url(#paint19_radial_456_2370)" stroke-miterlimit="10"/>
<path d="M267.564 482.412C266.432 473.553 265.375 464.695 264.368 455.812C262.933 446.979 261.574 438.121 259.888 429.288C225.559 349.136 242.321 268.104 267.363 190.67C267.64 180.251 267.64 169.808 267.64 159.389C267.64 148.971 267.64 138.552 267.64 128.184C267.64 121.289 267.64 114.394 267.64 107.549C267.967 98.9673 268.219 90.3859 268.395 81.7794C268.571 73.1729 268.672 64.5411 268.697 55.8088C267.489 2.6344 267.489 -47.6711 267.64 -99.3859C267.64 -107.414 267.64 -114.661 267.64 -121.003C267.64 -140.028 267.64 -150.975 267.64 -150.975" stroke="url(#paint20_radial_456_2370)" stroke-miterlimit="10"/>
<path d="M301.089 483.922C300.812 474.912 300.56 465.903 300.384 456.919C300.157 447.86 299.981 438.825 299.78 429.715C281.432 360.309 292.607 287.657 300.887 214.35C301.089 206.474 301.089 198.572 301.089 190.645C301.089 183.699 301.089 176.753 301.089 169.808C301.089 162.862 301.089 155.917 301.089 148.971C301.995 142.755 302.775 136.64 303.429 130.575C304.058 124.535 304.587 118.546 305.015 112.582C312.188 27.7998 301.013 -53.2326 301.089 -137.184C301.089 -146.068 301.089 -150.924 301.089 -150.924" stroke="url(#paint21_radial_456_2370)" stroke-miterlimit="10"/>
<path d="M334.538 484.601C334.538 465.4 334.538 446.476 334.538 427.702C334.538 418.316 334.538 408.979 334.538 399.668C334.538 390.357 334.462 381.071 334.261 371.835C331.744 326.814 334.538 282.096 334.563 237.83C334.563 231.463 334.563 225.021 334.563 218.578C334.563 212.136 334.563 205.643 334.563 199.151C334.563 192.658 334.563 186.14 334.563 179.622C338.061 171.116 340.93 162.56 343.271 153.928C359.706 52.9651 331.769 -50.4141 334.563 -150.924" stroke="url(#paint22_radial_456_2370)" stroke-miterlimit="10"/>
<path d="M367.986 484.601C367.986 484.601 367.986 470.307 367.986 445.997C367.986 437.894 367.986 428.684 367.986 418.492C368.062 388.243 368.062 357.516 367.986 326.84C367.986 319.869 367.986 312.772 367.986 305.525C367.986 283.505 367.986 260.353 367.986 236.697C367.986 228.795 367.986 220.843 367.986 212.866C368.011 199.956 368.741 187.222 371.535 175.621C374.329 164.02 379.236 153.526 387.567 145.121C398.792 131.179 407.173 114.419 407.173 94.8654C401.586 11.0397 356.862 -64.406 367.961 -150.95" stroke="url(#paint23_radial_456_2370)" stroke-miterlimit="10"/>
<path d="M401.435 484.601C401.435 484.601 401.435 380.995 401.435 257.459C401.435 250.966 401.435 244.398 401.435 237.805C397.332 216.641 402.945 197.666 411.351 179.798C414.145 173.834 417.266 168.021 420.412 162.258C440.697 133.998 449.078 100.452 443.491 64.1385C426.729 -11.3072 390.386 -75.5794 401.41 -150.95" stroke="url(#paint24_radial_456_2370)" stroke-miterlimit="10"/>
<path d="M434.884 484.601C434.884 484.601 434.884 391.615 434.884 276.786C434.884 270.394 434.884 263.951 434.884 257.459C429.447 219.862 446.285 188.682 460.58 156.344C464.154 148.266 467.552 140.113 470.371 131.758C477.041 114.419 479.834 94.8403 477.041 78.0801C454.691 -0.158904 423.935 -70.0179 434.884 -150.95" stroke="url(#paint25_radial_456_2370)" stroke-miterlimit="10"/>
<path d="M468.358 484.601C468.358 484.601 468.358 391.615 468.358 276.786C468.358 270.394 468.358 263.951 468.358 257.459C463.978 217.421 480.715 181.661 491.261 143.359C493.375 135.709 495.237 127.933 496.622 120.031C499.415 41.7917 460.304 -33.654 468.307 -112.472C468.358 -124.476 468.358 -134.114 468.358 -140.733C468.358 -147.351 468.358 -150.924 468.358 -150.924" stroke="url(#paint26_radial_456_2370)" stroke-miterlimit="10"/>
<path d="M501.806 484.601C501.806 484.601 501.806 391.615 501.806 276.786C501.806 270.041 501.806 263.196 501.806 256.301C507.595 204.913 513.283 154.079 514.692 103.019C514.919 92.827 514.994 82.6099 514.818 72.3425C513.409 19.4197 502.234 -30.8858 501.781 -84.8655C501.806 -95.0071 501.806 -104.218 501.806 -112.346C501.806 -136.656 501.806 -150.95 501.806 -150.95" stroke="url(#paint27_radial_456_2370)" stroke-miterlimit="10"/>
<path d="M535.255 484.601C535.255 484.601 535.255 380.995 535.255 257.459C535.255 250.186 535.255 242.863 535.28 235.489C539.508 176.175 540.792 118.672 539.08 60.9174C538.829 52.6631 538.527 44.4089 538.149 36.1547C535.733 13.8582 535.733 -11.3072 535.255 -33.1507C535.255 -44.7771 535.255 -55.7743 535.255 -66.067C535.255 -117.53 535.255 -150.899 535.255 -150.899" stroke="url(#paint28_radial_456_2370)" stroke-miterlimit="10"/>
</g>
<defs>
<radialGradient id="paint0_radial_456_2370" cx="0" cy="0" r="1" gradientUnits="userSpaceOnUse" gradientTransform="translate(317.8 -9.36901) rotate(90) scale(8.74406 317.8)">
<stop offset="0.104167" stop-color="white"/>
<stop offset="1" stop-color="white" stop-opacity="0"/>
</radialGradient>
<radialGradient id="paint1_radial_456_2370" cx="0" cy="0" r="1" gradientUnits="userSpaceOnUse" gradientTransform="translate(317.8 36.7725) rotate(90) scale(21.7793 317.8)">
<stop offset="0.104167" stop-color="white"/>
<stop offset="1" stop-color="white" stop-opacity="0"/>
</radialGradient>
<radialGradient id="paint2_radial_456_2370" cx="0" cy="0" r="1" gradientUnits="userSpaceOnUse" gradientTransform="translate(317.813 73.1395) rotate(90) scale(25.0203 317.813)">
<stop offset="0.104167" stop-color="white"/>
<stop offset="1" stop-color="white" stop-opacity="0"/>
</radialGradient>
<radialGradient id="paint3_radial_456_2370" cx="0" cy="0" r="1" gradientUnits="userSpaceOnUse" gradientTransform="translate(317.826 101.208) rotate(90) scale(18.0628 317.826)">
<stop offset="0.104167" stop-color="white"/>
<stop offset="1" stop-color="white" stop-opacity="0"/>
</radialGradient>
<radialGradient id="paint4_radial_456_2370" cx="0" cy="0" r="1" gradientUnits="userSpaceOnUse" gradientTransform="translate(317.8 128.144) rotate(90) scale(11.4856 317.8)">
<stop offset="0.104167" stop-color="white"/>
<stop offset="1" stop-color="white" stop-opacity="0"/>
</radialGradient>
<radialGradient id="paint5_radial_456_2370" cx="0" cy="0" r="1" gradientUnits="userSpaceOnUse" gradientTransform="translate(317.8 158.614) rotate(90) scale(8.71517 317.8)">
<stop offset="0.104167" stop-color="white"/>
<stop offset="1" stop-color="white" stop-opacity="0"/>
</radialGradient>
<radialGradient id="paint6_radial_456_2370" cx="0" cy="0" r="1" gradientUnits="userSpaceOnUse" gradientTransform="translate(317.8 186.49) rotate(90) scale(2.91683 317.8)">
<stop offset="0.104167" stop-color="white"/>
<stop offset="1" stop-color="white" stop-opacity="0"/>
</radialGradient>
<radialGradient id="paint7_radial_456_2370" cx="0" cy="0" r="1" gradientUnits="userSpaceOnUse" gradientTransform="translate(317.8 216.373) rotate(90) scale(1.26209 317.8)">
<stop offset="0.104167" stop-color="white"/>
<stop offset="1" stop-color="white" stop-opacity="0"/>
</radialGradient>
<radialGradient id="paint8_radial_456_2370" cx="0" cy="0" r="1" gradientUnits="userSpaceOnUse" gradientTransform="translate(317.826 245.955) rotate(90) scale(5.16819 317.826)">
<stop offset="0.104167" stop-color="white"/>
<stop offset="1" stop-color="white" stop-opacity="0"/>
</radialGradient>
<radialGradient id="paint9_radial_456_2370" cx="0" cy="0" r="1" gradientUnits="userSpaceOnUse" gradientTransform="translate(317.8 272.393) rotate(90) scale(11.5396 317.8)">
<stop offset="0.104167" stop-color="white"/>
<stop offset="1" stop-color="white" stop-opacity="0"/>
</radialGradient>
<radialGradient id="paint10_radial_456_2370" cx="0" cy="0" r="1" gradientUnits="userSpaceOnUse" gradientTransform="translate(317.813 296.656) rotate(90) scale(21.5013 317.813)">
<stop offset="0.104167" stop-color="white"/>
<stop offset="1" stop-color="white" stop-opacity="0"/>
</radialGradient>
<radialGradient id="paint11_radial_456_2370" cx="0" cy="0" r="1" gradientUnits="userSpaceOnUse" gradientTransform="translate(317.8 325.188) rotate(90) scale(27.0031 317.8)">
<stop offset="0.104167" stop-color="white"/>
<stop offset="1" stop-color="white" stop-opacity="0"/>
</radialGradient>
<radialGradient id="paint12_radial_456_2370" cx="0" cy="0" r="1" gradientUnits="userSpaceOnUse" gradientTransform="translate(0.5 166.838) rotate(90) scale(317.763 0.5)">
<stop offset="0.104167" stop-color="white"/>
<stop offset="1" stop-color="white" stop-opacity="0"/>
</radialGradient>
<radialGradient id="paint13_radial_456_2370" cx="0" cy="0" r="1" gradientUnits="userSpaceOnUse" gradientTransform="translate(33.1813 166.851) rotate(90) scale(317.75 0.292582)">
<stop offset="0.104167" stop-color="white"/>
<stop offset="1" stop-color="white" stop-opacity="0"/>
</radialGradient>
<radialGradient id="paint14_radial_456_2370" cx="0" cy="0" r="1" gradientUnits="userSpaceOnUse" gradientTransform="translate(65.3906 166.838) rotate(90) scale(317.763 1.50679)">
<stop offset="0.104167" stop-color="white"/>
<stop offset="1" stop-color="white" stop-opacity="0"/>
</radialGradient>
<radialGradient id="paint15_radial_456_2370" cx="0" cy="0" r="1" gradientUnits="userSpaceOnUse" gradientTransform="translate(94.1264 166.838) rotate(90) scale(317.763 6.26992)">
<stop offset="0.104167" stop-color="white"/>
<stop offset="1" stop-color="white" stop-opacity="0"/>
</radialGradient>
<radialGradient id="paint16_radial_456_2370" cx="0" cy="0" r="1" gradientUnits="userSpaceOnUse" gradientTransform="translate(122.735 166.838) rotate(90) scale(317.763 11.0851)">
<stop offset="0.104167" stop-color="white"/>
<stop offset="1" stop-color="white" stop-opacity="0"/>
</radialGradient>
<radialGradient id="paint17_radial_456_2370" cx="0" cy="0" r="1" gradientUnits="userSpaceOnUse" gradientTransform="translate(145.609 166.511) rotate(90) scale(317.41 21.7747)">
<stop offset="0.104167" stop-color="white"/>
<stop offset="1" stop-color="white" stop-opacity="0"/>
</radialGradient>
<radialGradient id="paint18_radial_456_2370" cx="0" cy="0" r="1" gradientUnits="userSpaceOnUse" gradientTransform="translate(177.671 165.706) rotate(90) scale(316.63 23.9346)">
<stop offset="0.104167" stop-color="white"/>
<stop offset="1" stop-color="white" stop-opacity="0"/>
</radialGradient>
<radialGradient id="paint19_radial_456_2370" cx="0" cy="0" r="1" gradientUnits="userSpaceOnUse" gradientTransform="translate(214.072 165.303) rotate(90) scale(316.253 20.0942)">
<stop offset="0.104167" stop-color="white"/>
<stop offset="1" stop-color="white" stop-opacity="0"/>
</radialGradient>
<radialGradient id="paint20_radial_456_2370" cx="0" cy="0" r="1" gradientUnits="userSpaceOnUse" gradientTransform="translate(254.586 165.718) rotate(90) scale(316.693 14.1112)">
<stop offset="0.104167" stop-color="white"/>
<stop offset="1" stop-color="white" stop-opacity="0"/>
</radialGradient>
<radialGradient id="paint21_radial_456_2370" cx="0" cy="0" r="1" gradientUnits="userSpaceOnUse" gradientTransform="translate(298.638 166.499) rotate(90) scale(317.423 8.78002)">
<stop offset="0.104167" stop-color="white"/>
<stop offset="1" stop-color="white" stop-opacity="0"/>
</radialGradient>
<radialGradient id="paint22_radial_456_2370" cx="0" cy="0" r="1" gradientUnits="userSpaceOnUse" gradientTransform="translate(340.847 166.838) rotate(90) scale(317.763 7.63632)">
<stop offset="0.104167" stop-color="white"/>
<stop offset="1" stop-color="white" stop-opacity="0"/>
</radialGradient>
<radialGradient id="paint23_radial_456_2370" cx="0" cy="0" r="1" gradientUnits="userSpaceOnUse" gradientTransform="translate(386.686 166.826) rotate(90) scale(317.775 20.4875)">
<stop offset="0.104167" stop-color="white"/>
<stop offset="1" stop-color="white" stop-opacity="0"/>
</radialGradient>
<radialGradient id="paint24_radial_456_2370" cx="0" cy="0" r="1" gradientUnits="userSpaceOnUse" gradientTransform="translate(422.274 166.826) rotate(90) scale(317.775 22.9099)">
<stop offset="0.104167" stop-color="white"/>
<stop offset="1" stop-color="white" stop-opacity="0"/>
</radialGradient>
<radialGradient id="paint25_radial_456_2370" cx="0" cy="0" r="1" gradientUnits="userSpaceOnUse" gradientTransform="translate(455.358 166.826) rotate(90) scale(317.775 22.759)">
<stop offset="0.104167" stop-color="white"/>
<stop offset="1" stop-color="white" stop-opacity="0"/>
</radialGradient>
<radialGradient id="paint26_radial_456_2370" cx="0" cy="0" r="1" gradientUnits="userSpaceOnUse" gradientTransform="translate(481.995 166.838) rotate(90) scale(317.763 14.7698)">
<stop offset="0.104167" stop-color="white"/>
<stop offset="1" stop-color="white" stop-opacity="0"/>
</radialGradient>
<radialGradient id="paint27_radial_456_2370" cx="0" cy="0" r="1" gradientUnits="userSpaceOnUse" gradientTransform="translate(508.348 166.826) rotate(90) scale(317.775 6.56728)">
<stop offset="0.104167" stop-color="white"/>
<stop offset="1" stop-color="white" stop-opacity="0"/>
</radialGradient>
<radialGradient id="paint28_radial_456_2370" cx="0" cy="0" r="1" gradientUnits="userSpaceOnUse" gradientTransform="translate(537.535 166.851) rotate(90) scale(317.75 2.28012)">
<stop offset="0.104167" stop-color="white"/>
<stop offset="1" stop-color="white" stop-opacity="0"/>
</radialGradient>
</defs>
</svg>
