<svg width="35" height="35" viewBox="0 0 35 35" fill="none" xmlns="http://www.w3.org/2000/svg">
<path d="M24.0625 8.75H10.9375V15.3125H24.0625V8.75Z" stroke="#080708" stroke-width="2" stroke-linecap="round" stroke-linejoin="round"/>
<path d="M28.4375 29.5312V5.46875C28.4375 4.86469 27.9478 4.375 27.3438 4.375L7.65625 4.375C7.05219 4.375 6.5625 4.86469 6.5625 5.46875V29.5312C6.5625 30.1353 7.05219 30.625 7.65625 30.625H27.3438C27.9478 30.625 28.4375 30.1353 28.4375 29.5312Z" stroke="#080708" stroke-width="2" stroke-linecap="round" stroke-linejoin="round"/>
<path d="M12.0312 21.875C12.9373 21.875 13.6719 21.1405 13.6719 20.2344C13.6719 19.3283 12.9373 18.5938 12.0312 18.5938C11.1252 18.5938 10.3906 19.3283 10.3906 20.2344C10.3906 21.1405 11.1252 21.875 12.0312 21.875Z" fill="#080708"/>
<path d="M17.5 21.875C18.4061 21.875 19.1406 21.1405 19.1406 20.2344C19.1406 19.3283 18.4061 18.5938 17.5 18.5938C16.5939 18.5938 15.8594 19.3283 15.8594 20.2344C15.8594 21.1405 16.5939 21.875 17.5 21.875Z" fill="#080708"/>
<path d="M22.9688 21.875C23.8748 21.875 24.6094 21.1405 24.6094 20.2344C24.6094 19.3283 23.8748 18.5938 22.9688 18.5938C22.0627 18.5938 21.3281 19.3283 21.3281 20.2344C21.3281 21.1405 22.0627 21.875 22.9688 21.875Z" fill="#080708"/>
<path d="M12.0312 27.3438C12.9373 27.3438 13.6719 26.6092 13.6719 25.7031C13.6719 24.797 12.9373 24.0625 12.0312 24.0625C11.1252 24.0625 10.3906 24.797 10.3906 25.7031C10.3906 26.6092 11.1252 27.3438 12.0312 27.3438Z" fill="#080708"/>
<path d="M17.5 27.3438C18.4061 27.3438 19.1406 26.6092 19.1406 25.7031C19.1406 24.797 18.4061 24.0625 17.5 24.0625C16.5939 24.0625 15.8594 24.797 15.8594 25.7031C15.8594 26.6092 16.5939 27.3438 17.5 27.3438Z" fill="#080708"/>
<path d="M22.9688 27.3438C23.8748 27.3438 24.6094 26.6092 24.6094 25.7031C24.6094 24.797 23.8748 24.0625 22.9688 24.0625C22.0627 24.0625 21.3281 24.797 21.3281 25.7031C21.3281 26.6092 22.0627 27.3438 22.9688 27.3438Z" fill="#080708"/>
</svg>
