<svg width="35" height="35" viewBox="0 0 35 35" fill="none" xmlns="http://www.w3.org/2000/svg">
<path d="M6.16607 26.7967C6.20106 26.9404 6.2645 27.0758 6.35266 27.1946C6.44082 27.3135 6.55191 27.4134 6.67936 27.4886C6.80681 27.5638 6.94804 27.6127 7.0947 27.6324C7.24136 27.6521 7.39048 27.6422 7.53326 27.6033C14.0506 25.7987 20.9358 25.7987 27.4532 27.6033C27.596 27.6422 27.7451 27.6521 27.8917 27.6324C28.0384 27.6127 28.1796 27.5638 28.3071 27.4886C28.4345 27.4134 28.5456 27.3135 28.6338 27.1946C28.7219 27.0758 28.7854 26.9404 28.8204 26.7967L32.3067 11.99C32.3546 11.7918 32.3461 11.5842 32.2822 11.3906C32.2183 11.197 32.1016 11.025 31.9452 10.8942C31.7888 10.7634 31.599 10.679 31.3971 10.6503C31.1952 10.6217 30.9894 10.6501 30.8028 10.7322L23.8848 13.8084C23.6342 13.9187 23.3515 13.9323 23.0914 13.8465C22.8313 13.7606 22.6123 13.5814 22.4766 13.3435L18.4571 6.09744C18.3625 5.92649 18.2238 5.78399 18.0555 5.68476C17.8872 5.58554 17.6954 5.5332 17.5001 5.5332C17.3047 5.5332 17.1129 5.58554 16.9446 5.68476C16.7763 5.78399 16.6376 5.92649 16.543 6.09744L12.5235 13.3435C12.3878 13.5814 12.1688 13.7606 11.9087 13.8465C11.6486 13.9323 11.3659 13.9187 11.1153 13.8084L4.19732 10.7322C4.01072 10.6501 3.80487 10.6217 3.603 10.6503C3.40113 10.679 3.21129 10.7634 3.05489 10.8942C2.89849 11.025 2.78177 11.197 2.7179 11.3906C2.65403 11.5842 2.64555 11.7918 2.69341 11.99L6.16607 26.7967Z" stroke="#080708" stroke-width="2" stroke-linecap="round" stroke-linejoin="round"/>
<path d="M13.125 22.1074C16.0332 21.793 18.9668 21.793 21.875 22.1074" stroke="#080708" stroke-width="2" stroke-linecap="round" stroke-linejoin="round"/>
</svg>
