<svg width="35" height="35" viewBox="0 0 35 35" fill="none" xmlns="http://www.w3.org/2000/svg">
<path d="M14.2188 24.0625C16.635 24.0625 18.5938 22.1037 18.5938 19.6875C18.5938 17.2713 16.635 15.3125 14.2188 15.3125C11.8025 15.3125 9.84375 17.2713 9.84375 19.6875C9.84375 22.1037 11.8025 24.0625 14.2188 24.0625Z" stroke="#080708" stroke-width="2" stroke-linecap="round" stroke-linejoin="round"/>
<path d="M7.30078 28.4375C7.9216 27.1282 8.90123 26.0219 10.1258 25.2473C11.3504 24.4727 12.7697 24.0615 14.2188 24.0615C15.6678 24.0615 17.0871 24.4727 18.3117 25.2473C19.5363 26.0219 20.5159 27.1282 21.1367 28.4375H29.5312C29.8213 28.4375 30.0995 28.3223 30.3046 28.1171C30.5098 27.912 30.625 27.6338 30.625 27.3438V7.65625C30.625 7.36617 30.5098 7.08797 30.3046 6.88285C30.0995 6.67773 29.8213 6.5625 29.5312 6.5625H5.46875C5.17867 6.5625 4.90047 6.67773 4.69535 6.88285C4.49023 7.08797 4.375 7.36617 4.375 7.65625V27.3438C4.375 27.6338 4.49023 27.912 4.69535 28.1171C4.90047 28.3223 5.17867 28.4375 5.46875 28.4375H7.30078Z" stroke="#080708" stroke-width="2" stroke-linecap="round" stroke-linejoin="round"/>
<path d="M24.0625 24.0625H26.25V10.9375H8.75V13.125" stroke="#080708" stroke-width="2" stroke-linecap="round" stroke-linejoin="round"/>
</svg>
