<svg width="88" height="88" viewBox="0 0 88 88" fill="none" xmlns="http://www.w3.org/2000/svg">
<path d="M82.2422 34.1563C80.7578 32.6328 79.2344 31.0313 78.6484 29.6641C78.0625 28.2969 78.1016 26.2656 78.0625 24.1953C78.0234 20.4063 77.9453 16.0703 74.9375 13.0625C71.9297 10.0547 67.5937 9.97656 63.8047 9.9375C61.7344 9.89844 59.625 9.85937 58.3359 9.35156C57.0469 8.84375 55.3672 7.24219 53.8437 5.75781C51.1484 3.17969 48.0625 0.25 44 0.25C39.9375 0.25 36.8516 3.17969 34.1563 5.75781C32.6328 7.24219 31.0313 8.76562 29.6641 9.35156C28.2969 9.9375 26.2656 9.89844 24.1953 9.9375C20.4063 9.97656 16.0703 10.0547 13.0625 13.0625C10.0547 16.0703 9.97656 20.4063 9.9375 24.1953C9.89844 26.2656 9.85937 28.375 9.35156 29.6641C8.84375 30.9531 7.24219 32.6328 5.75781 34.1563C3.17969 36.8516 0.25 39.9375 0.25 44C0.25 48.0625 3.17969 51.1484 5.75781 53.8437C7.24219 55.3672 8.76562 56.9687 9.35156 58.3359C9.9375 59.7031 9.89844 61.7344 9.9375 63.8047C9.97656 67.5937 10.0547 71.9297 13.0625 74.9375C16.0703 77.9453 20.4063 78.0234 24.1953 78.0625C26.2656 78.1016 28.375 78.1406 29.6641 78.6484C30.9531 79.1562 32.6328 80.7578 34.1563 82.2422C36.8516 84.8203 39.9375 87.75 44 87.75C48.0625 87.75 51.1484 84.8203 53.8437 82.2422C55.3672 80.7578 56.9687 79.2344 58.3359 78.6484C59.7031 78.0625 61.7344 78.1016 63.8047 78.0625C67.5937 78.0234 71.9297 77.9453 74.9375 74.9375C77.9453 71.9297 78.0234 67.5937 78.0625 63.8047C78.1016 61.7344 78.1406 59.625 78.6484 58.3359C79.1562 57.0469 80.7578 55.3672 82.2422 53.8437C84.8203 51.1484 87.75 48.0625 87.75 44C87.75 39.9375 84.8203 36.8516 82.2422 34.1563ZM63.3359 36.8906L40.4453 58.7656C39.8535 59.3223 39.0703 59.63 38.2578 59.625C37.4573 59.628 36.687 59.3199 36.1094 58.7656L24.6641 47.8281C24.3466 47.5512 24.0884 47.2129 23.9051 46.8336C23.7217 46.4543 23.6169 46.0419 23.597 45.621C23.5771 45.2002 23.6425 44.7797 23.7892 44.3848C23.936 43.9899 24.161 43.6288 24.4509 43.3231C24.7408 43.0174 25.0895 42.7734 25.4761 42.606C25.8626 42.4385 26.2791 42.3509 26.7003 42.3484C27.1216 42.346 27.5391 42.4287 27.9275 42.5917C28.316 42.7547 28.6675 42.9946 28.9609 43.2969L38.2578 52.1641L59.0391 32.3594C59.6467 31.8293 60.4357 31.5545 61.2412 31.5926C62.0467 31.6307 62.8062 31.9787 63.3611 32.5639C63.9159 33.149 64.2231 33.9259 64.2184 34.7323C64.2138 35.5387 63.8976 36.312 63.3359 36.8906Z" fill="black"/>
<path d="M82.2422 34.1563C80.7578 32.6328 79.2344 31.0313 78.6484 29.6641C78.0625 28.2969 78.1016 26.2656 78.0625 24.1953C78.0234 20.4063 77.9453 16.0703 74.9375 13.0625C71.9297 10.0547 67.5937 9.97656 63.8047 9.9375C61.7344 9.89844 59.625 9.85937 58.3359 9.35156C57.0469 8.84375 55.3672 7.24219 53.8437 5.75781C51.1484 3.17969 48.0625 0.25 44 0.25C39.9375 0.25 36.8516 3.17969 34.1563 5.75781C32.6328 7.24219 31.0313 8.76562 29.6641 9.35156C28.2969 9.9375 26.2656 9.89844 24.1953 9.9375C20.4063 9.97656 16.0703 10.0547 13.0625 13.0625C10.0547 16.0703 9.97656 20.4063 9.9375 24.1953C9.89844 26.2656 9.85937 28.375 9.35156 29.6641C8.84375 30.9531 7.24219 32.6328 5.75781 34.1563C3.17969 36.8516 0.25 39.9375 0.25 44C0.25 48.0625 3.17969 51.1484 5.75781 53.8437C7.24219 55.3672 8.76562 56.9687 9.35156 58.3359C9.9375 59.7031 9.89844 61.7344 9.9375 63.8047C9.97656 67.5937 10.0547 71.9297 13.0625 74.9375C16.0703 77.9453 20.4063 78.0234 24.1953 78.0625C26.2656 78.1016 28.375 78.1406 29.6641 78.6484C30.9531 79.1562 32.6328 80.7578 34.1563 82.2422C36.8516 84.8203 39.9375 87.75 44 87.75C48.0625 87.75 51.1484 84.8203 53.8437 82.2422C55.3672 80.7578 56.9687 79.2344 58.3359 78.6484C59.7031 78.0625 61.7344 78.1016 63.8047 78.0625C67.5937 78.0234 71.9297 77.9453 74.9375 74.9375C77.9453 71.9297 78.0234 67.5937 78.0625 63.8047C78.1016 61.7344 78.1406 59.625 78.6484 58.3359C79.1562 57.0469 80.7578 55.3672 82.2422 53.8437C84.8203 51.1484 87.75 48.0625 87.75 44C87.75 39.9375 84.8203 36.8516 82.2422 34.1563ZM63.3359 36.8906L40.4453 58.7656C39.8535 59.3223 39.0703 59.63 38.2578 59.625C37.4573 59.628 36.687 59.3199 36.1094 58.7656L24.6641 47.8281C24.3466 47.5512 24.0884 47.2129 23.9051 46.8336C23.7217 46.4543 23.6169 46.0419 23.597 45.621C23.5771 45.2002 23.6425 44.7797 23.7892 44.3848C23.936 43.9899 24.161 43.6288 24.4509 43.3231C24.7408 43.0174 25.0895 42.7734 25.4761 42.606C25.8626 42.4385 26.2791 42.3509 26.7003 42.3484C27.1216 42.346 27.5391 42.4287 27.9275 42.5917C28.316 42.7547 28.6675 42.9946 28.9609 43.2969L38.2578 52.1641L59.0391 32.3594C59.6467 31.8293 60.4357 31.5545 61.2412 31.5926C62.0467 31.6307 62.8062 31.9787 63.3611 32.5639C63.9159 33.149 64.2231 33.9259 64.2184 34.7323C64.2138 35.5387 63.8976 36.312 63.3359 36.8906Z" fill="url(#paint0_linear_3049_3466)"/>
<defs>
<linearGradient id="paint0_linear_3049_3466" x1="28.1551" y1="-65.5474" x2="-38.5431" y2="55.9383" gradientUnits="userSpaceOnUse">
<stop stop-color="#A42E32"/>
<stop offset="1" stop-color="#E52A31"/>
</linearGradient>
</defs>
</svg>
