<svg width="88" height="76" viewBox="0 0 88 76" fill="none" xmlns="http://www.w3.org/2000/svg">
<path d="M84.4219 54.6797C84.1359 54.3488 83.7821 54.0833 83.3844 53.9013C82.9867 53.7193 82.5545 53.6251 82.1172 53.625H78.25V13C78.2397 9.68796 76.9194 6.51452 74.5775 4.17255C72.2355 1.83057 69.062 0.510302 65.75 0.5H12.625C9.31297 0.510302 6.13952 1.83057 3.79755 4.17255C1.45557 6.51452 0.135305 9.68796 0.125003 13C0.11507 16.0763 1.25786 19.0448 3.32813 21.3203C3.59642 21.6271 3.92282 21.8777 4.2885 22.0577C4.65417 22.2377 5.05187 22.3434 5.45864 22.3688C5.86541 22.3942 6.27318 22.3388 6.65842 22.2058C7.04366 22.0728 7.39873 21.8648 7.70313 21.5938C8.01117 21.322 8.26262 20.9923 8.44309 20.6233C8.62357 20.2543 8.72954 19.8534 8.75494 19.4434C8.78033 19.0334 8.72466 18.6225 8.5911 18.2341C8.45754 17.8456 8.24871 17.4873 7.97657 17.1797C7.29898 16.4258 6.81492 15.5184 6.56615 14.5357C6.31738 13.553 6.31134 12.5246 6.54858 11.5391C6.78581 10.5536 7.25918 9.64058 7.92788 8.87877C8.59659 8.11697 9.44055 7.52924 10.387 7.16626C11.3334 6.80329 12.354 6.67596 13.3606 6.79526C14.3672 6.91456 15.3297 7.27691 16.1651 7.85106C17.0005 8.42521 17.6837 9.19394 18.1558 10.0909C18.6279 10.988 18.8747 11.9863 18.875 13V63C18.8853 66.312 20.2056 69.4855 22.5475 71.8275C24.8895 74.1694 28.063 75.4897 31.375 75.5H75.125C78.437 75.4897 81.6105 74.1694 83.9525 71.8275C86.2944 69.4855 87.6147 66.312 87.625 63C87.6349 59.9237 86.4921 56.9552 84.4219 54.6797V54.6797ZM37.625 25.5H62.625C63.4538 25.5 64.2487 25.8292 64.8347 26.4153C65.4208 27.0013 65.75 27.7962 65.75 28.625C65.75 29.4538 65.4208 30.2487 64.8347 30.8347C64.2487 31.4208 63.4538 31.75 62.625 31.75H37.625C36.7962 31.75 36.0013 31.4208 35.4153 30.8347C34.8292 30.2487 34.5 29.4538 34.5 28.625C34.5 27.7962 34.8292 27.0013 35.4153 26.4153C36.0013 25.8292 36.7962 25.5 37.625 25.5V25.5ZM34.5 41.125C34.5 40.2962 34.8292 39.5013 35.4153 38.9153C36.0013 38.3292 36.7962 38 37.625 38H62.625C63.4538 38 64.2487 38.3292 64.8347 38.9153C65.4208 39.5013 65.75 40.2962 65.75 41.125C65.75 41.9538 65.4208 42.7487 64.8347 43.3347C64.2487 43.9208 63.4538 44.25 62.625 44.25H37.625C36.7962 44.25 36.0013 43.9208 35.4153 43.3347C34.8292 42.7487 34.5 41.9538 34.5 41.125ZM75.125 69.25H42.1953C43.2908 67.3488 43.8698 65.1942 43.875 63C43.8823 61.9457 43.7509 60.8951 43.4844 59.875H80.5547C81.0915 60.8282 81.3704 61.905 81.3639 62.999C81.3573 64.093 81.0654 65.1664 80.5171 66.1131C79.9688 67.0598 79.183 67.8471 78.2374 68.3972C77.2918 68.9473 76.219 69.2413 75.125 69.25V69.25Z" fill="black"/>
<path d="M84.4219 54.6797C84.1359 54.3488 83.7821 54.0833 83.3844 53.9013C82.9867 53.7193 82.5545 53.6251 82.1172 53.625H78.25V13C78.2397 9.68796 76.9194 6.51452 74.5775 4.17255C72.2355 1.83057 69.062 0.510302 65.75 0.5H12.625C9.31297 0.510302 6.13952 1.83057 3.79755 4.17255C1.45557 6.51452 0.135305 9.68796 0.125003 13C0.11507 16.0763 1.25786 19.0448 3.32813 21.3203C3.59642 21.6271 3.92282 21.8777 4.2885 22.0577C4.65417 22.2377 5.05187 22.3434 5.45864 22.3688C5.86541 22.3942 6.27318 22.3388 6.65842 22.2058C7.04366 22.0728 7.39873 21.8648 7.70313 21.5938C8.01117 21.322 8.26262 20.9923 8.44309 20.6233C8.62357 20.2543 8.72954 19.8534 8.75494 19.4434C8.78033 19.0334 8.72466 18.6225 8.5911 18.2341C8.45754 17.8456 8.24871 17.4873 7.97657 17.1797C7.29898 16.4258 6.81492 15.5184 6.56615 14.5357C6.31738 13.553 6.31134 12.5246 6.54858 11.5391C6.78581 10.5536 7.25918 9.64058 7.92788 8.87877C8.59659 8.11697 9.44055 7.52924 10.387 7.16626C11.3334 6.80329 12.354 6.67596 13.3606 6.79526C14.3672 6.91456 15.3297 7.27691 16.1651 7.85106C17.0005 8.42521 17.6837 9.19394 18.1558 10.0909C18.6279 10.988 18.8747 11.9863 18.875 13V63C18.8853 66.312 20.2056 69.4855 22.5475 71.8275C24.8895 74.1694 28.063 75.4897 31.375 75.5H75.125C78.437 75.4897 81.6105 74.1694 83.9525 71.8275C86.2944 69.4855 87.6147 66.312 87.625 63C87.6349 59.9237 86.4921 56.9552 84.4219 54.6797V54.6797ZM37.625 25.5H62.625C63.4538 25.5 64.2487 25.8292 64.8347 26.4153C65.4208 27.0013 65.75 27.7962 65.75 28.625C65.75 29.4538 65.4208 30.2487 64.8347 30.8347C64.2487 31.4208 63.4538 31.75 62.625 31.75H37.625C36.7962 31.75 36.0013 31.4208 35.4153 30.8347C34.8292 30.2487 34.5 29.4538 34.5 28.625C34.5 27.7962 34.8292 27.0013 35.4153 26.4153C36.0013 25.8292 36.7962 25.5 37.625 25.5V25.5ZM34.5 41.125C34.5 40.2962 34.8292 39.5013 35.4153 38.9153C36.0013 38.3292 36.7962 38 37.625 38H62.625C63.4538 38 64.2487 38.3292 64.8347 38.9153C65.4208 39.5013 65.75 40.2962 65.75 41.125C65.75 41.9538 65.4208 42.7487 64.8347 43.3347C64.2487 43.9208 63.4538 44.25 62.625 44.25H37.625C36.7962 44.25 36.0013 43.9208 35.4153 43.3347C34.8292 42.7487 34.5 41.9538 34.5 41.125ZM75.125 69.25H42.1953C43.2908 67.3488 43.8698 65.1942 43.875 63C43.8823 61.9457 43.7509 60.8951 43.4844 59.875H80.5547C81.0915 60.8282 81.3704 61.905 81.3639 62.999C81.3573 64.093 81.0654 65.1664 80.5171 66.1131C79.9688 67.0598 79.183 67.8471 78.2374 68.3972C77.2918 68.9473 76.219 69.2413 75.125 69.25V69.25Z" fill="url(#paint0_linear_3049_3469)"/>
<defs>
<linearGradient id="paint0_linear_3049_3469" x1="28.03" y1="-55.8978" x2="-24.1809" y2="55.0504" gradientUnits="userSpaceOnUse">
<stop stop-color="#A42E32"/>
<stop offset="1" stop-color="#E52A31"/>
</linearGradient>
</defs>
</svg>
