<svg width="76" height="79" viewBox="0 0 76 79" fill="none" xmlns="http://www.w3.org/2000/svg">
<path d="M69.25 0.625H6.75C5.0924 0.625 3.50268 1.28348 2.33058 2.45558C1.15848 3.62768 0.5 5.2174 0.5 6.875V29.8047C0.5 64.7266 30.1094 76.3281 36.0469 78.2812C37.3155 78.6986 38.6845 78.6986 39.9531 78.2812C45.8906 76.3281 75.5 64.7266 75.5 29.8047V6.875C75.5 5.2174 74.8415 3.62768 73.6694 2.45558C72.4973 1.28348 70.9076 0.625 69.25 0.625V0.625Z" fill="black"/>
<path d="M69.25 0.625H6.75C5.0924 0.625 3.50268 1.28348 2.33058 2.45558C1.15848 3.62768 0.5 5.2174 0.5 6.875V29.8047C0.5 64.7266 30.1094 76.3281 36.0469 78.2812C37.3155 78.6986 38.6845 78.6986 39.9531 78.2812C45.8906 76.3281 75.5 64.7266 75.5 29.8047V6.875C75.5 5.2174 74.8415 3.62768 73.6694 2.45558C72.4973 1.28348 70.9076 0.625 69.25 0.625V0.625Z" fill="url(#paint0_linear_3049_3472)"/>
<defs>
<linearGradient id="paint0_linear_3049_3472" x1="24.4186" y1="-58.0056" x2="-36.2333" y2="48.2602" gradientUnits="userSpaceOnUse">
<stop stop-color="#A42E32"/>
<stop offset="1" stop-color="#E52A31"/>
</linearGradient>
</defs>
</svg>
