<svg width="88" height="76" viewBox="0 0 88 76" fill="none" xmlns="http://www.w3.org/2000/svg">
<path d="M31.5 63.25C33.9832 63.2603 36.3618 64.2513 38.1178 66.0072C39.8737 67.7632 40.8647 70.1418 40.875 72.625C40.875 73.4538 41.2042 74.2487 41.7903 74.8347C42.3763 75.4208 43.1712 75.75 44 75.75C44.8288 75.75 45.6237 75.4208 46.2097 74.8347C46.7958 74.2487 47.125 73.4538 47.125 72.625C47.1353 70.1418 48.1263 67.7632 49.8822 66.0072C51.6382 64.2513 54.0168 63.2603 56.5 63.25H81.5C83.1576 63.25 84.7473 62.5915 85.9194 61.4194C87.0915 60.2473 87.75 58.6576 87.75 57V7C87.75 5.3424 87.0915 3.75268 85.9194 2.58058C84.7473 1.40848 83.1576 0.75 81.5 0.75H62.75C58.606 0.75 54.6317 2.3962 51.7015 5.32646C48.7712 8.25671 47.125 12.231 47.125 16.375V47.625C47.125 48.4538 46.7958 49.2487 46.2097 49.8347C45.6237 50.4208 44.8288 50.75 44 50.75C43.1712 50.75 42.3763 50.4208 41.7903 49.8347C41.2042 49.2487 40.875 48.4538 40.875 47.625V16.375C40.875 12.231 39.2288 8.25671 36.2985 5.32646C33.3683 2.3962 29.394 0.75 25.25 0.75H6.5C4.8424 0.75 3.25268 1.40848 2.08058 2.58058C0.90848 3.75268 0.25 5.3424 0.25 7V57C0.25 58.6576 0.90848 60.2473 2.08058 61.4194C3.25268 62.5915 4.8424 63.25 6.5 63.25H31.5Z" fill="black"/>
<path d="M31.5 63.25C33.9832 63.2603 36.3618 64.2513 38.1178 66.0072C39.8737 67.7632 40.8647 70.1418 40.875 72.625C40.875 73.4538 41.2042 74.2487 41.7903 74.8347C42.3763 75.4208 43.1712 75.75 44 75.75C44.8288 75.75 45.6237 75.4208 46.2097 74.8347C46.7958 74.2487 47.125 73.4538 47.125 72.625C47.1353 70.1418 48.1263 67.7632 49.8822 66.0072C51.6382 64.2513 54.0168 63.2603 56.5 63.25H81.5C83.1576 63.25 84.7473 62.5915 85.9194 61.4194C87.0915 60.2473 87.75 58.6576 87.75 57V7C87.75 5.3424 87.0915 3.75268 85.9194 2.58058C84.7473 1.40848 83.1576 0.75 81.5 0.75H62.75C58.606 0.75 54.6317 2.3962 51.7015 5.32646C48.7712 8.25671 47.125 12.231 47.125 16.375V47.625C47.125 48.4538 46.7958 49.2487 46.2097 49.8347C45.6237 50.4208 44.8288 50.75 44 50.75C43.1712 50.75 42.3763 50.4208 41.7903 49.8347C41.2042 49.2487 40.875 48.4538 40.875 47.625V16.375C40.875 12.231 39.2288 8.25671 36.2985 5.32646C33.3683 2.3962 29.394 0.75 25.25 0.75H6.5C4.8424 0.75 3.25268 1.40848 2.08058 2.58058C0.90848 3.75268 0.25 5.3424 0.25 7V57C0.25 58.6576 0.90848 60.2473 2.08058 61.4194C3.25268 62.5915 4.8424 63.25 6.5 63.25H31.5Z" fill="url(#paint0_linear_3049_3463)"/>
<defs>
<linearGradient id="paint0_linear_3049_3463" x1="28.1551" y1="-55.6478" x2="-24.0559" y2="55.3003" gradientUnits="userSpaceOnUse">
<stop stop-color="#A42E32"/>
<stop offset="1" stop-color="#E52A31"/>
</linearGradient>
</defs>
</svg>
