<svg width="1920" height="338" fill="none" xmlns="http://www.w3.org/2000/svg"><g opacity=".1" stroke="#fff" stroke-miterlimit="10"><path d="M1 34.944h53.72c17.247 0 38.37 0 62.608-.076C167.249 21.65 234.72 47.024 268.456 4.783 479.382-239.85 774.648-20.516 1022.88 9.95a1414.957 1414.957 0 0180.85 23.78c23.85 1.063 47.48 1.063 70.96 1.14h745.16"/><path d="M1 135.912h116.556c24.466 0 52.276 0 82.973-.304 25.833-4.254 51.135 4.255 68.003-4.254C479.458-37.382 715.686 63.89 940.897 101.345c27.961 5.166 55.087 10.484 82.213 16.334 26.82 5.47 53.79 11.396 80.77 17.701 23.78.38 47.33.456 70.81.532h745.16M1 236.88h199.529c30.696 0 64.28 0 100.296-.076 26.517-6.837 53.187-12.611 79.857-17.626 132.512-20.36 267.456-28.793 402.096-13.751 27.126 1.748 53.947 3.799 80.693 6.002 26.518 2.279 52.959 4.634 79.173 7.142a2903.95 2903.95 0 0180.386 7.977c26.82 3.039 53.8 6.457 80.77 10.256 23.78 0 47.34.076 70.82.076h745.15M1 337.848h355.52c19.147-.076 38.826-.076 58.962-.228 51.819-.987 103.411-1.671 154.775-2.203 51.364-.532 102.575-.684 153.787-.684s102.424.228 153.712.76c51.363.532 102.803 1.216 154.544 2.203 23.94 0 47.8.076 71.58.076h815.97M1 337.849V-1580.77"/><path d="M101.98 337.849V138.344c0-30.693 0-64.273-.076-100.208-.684-50.447-1.216-100.057-1.444-149.287-.228-49.307-.228-98.157 0-147.312.228-49.154.684-98.537 1.368-148.679.152-23.476.228-47.103.228-70.807V-1580.7M202.96 337.849V138.116c-10.334-175.498-10.334-344.234-7.446-518.516 2.355-55.84 4.863-112.895 7.446-169.191V-1580.77M304.016 337.849V307.08c0-19.981 0-49.079-.076-86.078-43.842-233.085-52.276-486.151-10.258-720.375 3.268-26.439 6.611-53.637 10.182-80.911.228-20.589.228-41.178.228-61.69v-938.796M404.996 337.849c-4.331-27.047-8.586-53.941-12.613-80.76-47.945-260.739-90.115-530.671-7.142-788.295 6.002-25.299 12.385-51.661 19.527-78.252.152-22.032.152-43.988.152-65.945v-905.367"/><path d="M505.976 335.798c.912-23.476 0-46.496-2.507-69.136-24.011-177.473-150.597-337.7-125.295-531.734 16.868-126.571 135.02-210.901 127.726-347.349.076-20.968.076-42.013.076-62.905V-1580.7"/><path d="M606.728 331.011c-.152-29.098-3.039-57.512-8.586-85.773-93.382-248.888-236.76-510.387-17.4-755.02 25.302-16.866 33.736-59.03 26.29-102.715v-62.906c-.076-461.007-.076-905.367-.076-905.367"/><path d="M707.556 328.656c-5.927-29.857-11.929-59.563-18.768-89.116-99.688-260.055-175.67-546.853 17.248-788.979 1.52-24.008 1.9-48.015 1.9-72.022v-352.287c-.76-101.192-.76-202.472 0-307.312v-299.79"/><path d="M808.764 331.239c-3.419-26.743-6.61-53.485-9.65-80.303-4.331-26.667-8.434-53.41-13.524-80.076-103.64-241.974-53.036-486.607 22.566-720.375.836-31.453.836-62.982.836-94.435v-156.504a4398.794 4398.794 0 002.279-77.796c.532-25.983.836-52.042.912-78.404-3.647-160.536-3.647-312.396-3.191-468.526v-155.74m100.98 1916.717c-.836-27.198-1.596-54.396-2.127-81.519-.684-27.35-1.216-54.624-1.824-82.127-55.391-209.533-21.655-428.867 3.343-650.176.608-23.779.608-47.635.608-71.566v-125.812c2.735-18.765 5.091-37.226 7.066-55.536 1.9-18.233 3.496-36.315 4.787-54.32 21.655-255.951-12.081-500.591-11.853-754.031v-41.48M1010.95 337.849V81.44c0-28.11-.23-56.144-.83-84.026-7.6-135.916.83-270.92.91-404.556v-175.725c10.56-25.679 19.22-51.51 26.29-77.569 49.61-304.803-34.73-616.904-26.29-920.334m100.9 1918.619V138.268c.23-91.32.23-184.083 0-276.694v-344.081c.08-38.974 2.28-77.416 10.72-112.44 8.43-35.024 23.25-66.704 48.4-92.079 33.88-42.089 59.19-92.687 59.19-151.718-16.87-253.066-151.89-480.836-118.38-742.106"/><path d="M1212.91 337.849v-745.067c-12.38-63.893 4.56-121.177 29.94-175.117 8.43-18.006 17.85-35.556 27.35-52.953 61.24-85.318 86.55-186.59 69.68-296.219-50.61-227.763-160.32-421.803-127.04-649.343"/><path d="M1313.89 337.849v-685.732c-16.41-113.504 34.42-207.634 77.58-305.259 10.79-24.387 21.05-49.003 29.56-74.226 20.13-52.345 28.57-111.452 20.13-162.05-67.47-236.202-160.32-447.102-127.27-691.432"/><path d="M1414.95 337.849v-685.732c-13.22-120.873 37.31-228.831 69.14-344.461 6.38-23.096 12.01-46.572 16.19-70.427 8.43-236.2-109.65-463.969-85.48-701.919.15-36.23.15-65.33.15-85.31v-30.77m100.98 1918.619v-689.227c17.47-155.136 34.65-308.602 38.9-462.751.68-30.769.91-61.614.38-92.611-4.25-159.77-37.99-311.64-39.36-474.6.08-30.62.08-58.43.08-82.97v-116.54m100.98 1918.699v-685.732c0-21.956 0-44.064.07-66.324 12.77-179.069 16.64-352.667 11.48-527.025-.76-24.919-1.67-49.838-2.81-74.758-7.3-67.31-7.3-143.28-8.74-209.23v-355.48m100.98 1918.549v-780.394c0-20.665 0-41.405.15-62.146 1.52-173.826 9.95-359.428 0-535.379-.15-19.3-.15-38.14-.15-56.6v-484.18m100.98 1918.699v-959.31c1.97-90.712 1.97-191.984 0-283.987v-675.402m100.98 1918.699V-1580.77"/></g></svg>