<svg width="1920" height="338" fill="none" xmlns="http://www.w3.org/2000/svg"><g filter="url(#filter0_d_3451_5163)" fill-rule="evenodd" clip-rule="evenodd" fill="#fff" fill-opacity=".01"><path d="M839.327 333.117l84.609-8.384c1.953-.191 3.737.809 4.573 2.584.842 1.775.498 3.784-.885 5.167l-70.907 70.907c-1.767 1.767-1.763 4.663.009 6.435l31.064 31.064c1.776 1.775 4.668 1.776 6.435.009l132.815-132.815c1.77-1.768 1.77-4.66-.01-6.436l-32.685-32.686c-1.042-1.042-2.377-1.498-3.833-1.299l-101.287 13.622.271-.272-37.057 4.643c-1.444.181-2.764-.272-3.794-1.302-1.027-1.028-1.48-2.348-1.3-3.792l4.643-37.057-.271.272 13.621-101.287c.196-1.46-.257-2.791-1.299-3.833l-32.687-32.687c-1.775-1.775-4.667-1.777-6.435-.009L692.103 238.776c-1.768 1.768-1.767 4.66.008 6.435l31.061 31.061c1.776 1.776 4.671 1.779 6.439.012l70.907-70.907c1.382-1.383 3.392-1.727 5.163-.888 1.778.84 2.779 2.624 2.584 4.573l-8.38 84.612c-.14 1.408.311 2.677 1.311 3.677l34.45 34.45c1.003 1.003 2.271 1.453 3.68 1.314l.001.002zM412.049 518.829L279.239 651.64c-1.772 1.771-1.77 4.663.005 6.438l31.061 31.062c1.775 1.775 4.67 1.779 6.442.008l45.529-45.529c1.77-1.77 4.659-1.767 6.435.009l4.638 4.638a4.535 4.535 0 01.406 5.984c-26.314 34.525-30.484 76.159 19.068 125.711l7.502 7.502c57.302 57.302 104.104 42.591 141.716 4.979l10.812-10.812c37.611-37.611 52.326-84.415-4.977-141.718l-7.502-7.502c-50.583-50.583-92.851-45.047-127.987-17.295a4.539 4.539 0 01-6.044-.352l-4.384-4.384c-1.776-1.776-1.777-4.668-.006-6.439l47.604-47.604c1.772-1.771 1.768-4.667-.008-6.442l-31.061-31.061a4.562 4.562 0 00-6.439-.005v.001zm18.709 151.513c20.988-20.987 40.317-40.317 79.909-.725 39.592 39.592 20.263 58.922-.725 79.909-21.199 21.2-40.527 40.527-80.119.935s-20.265-58.919.935-80.119zM700.79 394.704l-99.557 99.558c-1.771 1.771-4.666 1.767-6.438-.006l-38.356-38.355a4.56 4.56 0 01-.005-6.439l99.557-99.557c1.771-1.771 1.767-4.666-.009-6.441l-31.061-31.062a4.561 4.561 0 00-6.438-.005L485.672 445.208c-1.768 1.768-1.767 4.66.008 6.436l195.679 195.679c1.776 1.775 4.668 1.776 6.436.008L820.606 514.52c1.771-1.771 1.77-4.663-.006-6.439l-31.06-31.06c-1.776-1.775-4.671-1.78-6.442-.009l-99.557 99.558a4.56 4.56 0 01-6.438-.006l-38.356-38.355a4.561 4.561 0 01-.006-6.439l99.558-99.557c1.771-1.771 1.767-4.666-.006-6.439l-31.064-31.064a4.561 4.561 0 00-6.438-.005l-.001-.001zm728.2-651.257l84.61-8.383c1.96-.191 3.74.809 4.58 2.584.84 1.774.49 3.784-.89 5.166l-70.91 70.907c-1.76 1.768-1.76 4.663.01 6.436l31.07 31.063c1.77 1.776 4.67 1.777 6.43.009l132.82-132.814c1.77-1.768 1.76-4.66-.01-6.436l-32.69-32.686c-1.04-1.042-2.37-1.499-3.83-1.299l-101.29 13.621.27-.271-37.05 4.643c-1.45.18-2.77-.273-3.8-1.303-1.03-1.027-1.48-2.347-1.3-3.791l4.65-37.057-.28.271 13.63-101.287c.19-1.459-.26-2.791-1.3-3.833l-32.69-32.686c-1.78-1.776-4.67-1.777-6.44-.009l-132.81 132.815c-1.77 1.767-1.77 4.659.01 6.435l31.06 31.061c1.77 1.775 4.67 1.779 6.44.012l70.9-70.907c1.39-1.383 3.4-1.727 5.17-.888 1.78.839 2.78 2.624 2.58 4.572l-8.38 84.613c-.14 1.408.31 2.677 1.31 3.677l34.45 34.45c1.01 1.003 2.27 1.453 3.68 1.314v.001zM1001.72-70.84L868.906 61.97a4.561 4.561 0 00.005 6.44l31.061 31.06c1.776 1.775 4.671 1.78 6.442.009l45.529-45.53c1.77-1.77 4.659-1.767 6.435.01l4.638 4.638a4.535 4.535 0 01.406 5.984c-26.313 34.525-30.484 76.158 19.068 125.711l7.502 7.502c57.298 57.302 104.108 42.591 141.718 4.979l10.81-10.812c37.61-37.611 52.33-84.416-4.98-141.718l-7.5-7.502c-50.58-50.583-92.85-45.047-127.99-17.295a4.534 4.534 0 01-6.04-.352l-4.384-4.385a4.562 4.562 0 01-.006-6.438l47.6-47.604c1.78-1.772 1.77-4.667 0-6.442l-31.06-31.062c-1.78-1.775-4.67-1.776-6.44-.004zm18.71 151.513c20.98-20.988 40.31-40.317 79.9-.725 39.6 39.592 20.27 58.921-.72 79.909-21.2 21.199-40.53 40.526-80.12.934-39.591-39.592-20.265-58.918.94-80.118zm270.03-275.638l-99.56 99.557c-1.77 1.771-4.67 1.768-6.44-.005l-38.35-38.356a4.557 4.557 0 01-.01-6.438l99.56-99.557a4.562 4.562 0 00-.01-6.442l-31.06-31.061c-1.78-1.775-4.67-1.777-6.44-.005l-132.81 132.81c-1.77 1.768-1.77 4.661.01 6.436l195.68 195.68a4.553 4.553 0 006.43.008L1410.27-75.15a4.568 4.568 0 000-6.439l-31.06-31.061c-1.78-1.775-4.67-1.779-6.44-.008L1273.21-13.1c-1.77 1.771-4.66 1.77-6.44-.005l-38.36-38.356a4.567 4.567 0 010-6.438l99.56-99.557c1.77-1.772 1.76-4.667-.01-6.439l-31.06-31.064c-1.78-1.775-4.67-1.777-6.44-.006zm-412.714 18.594l84.609-8.384c1.953-.191 3.736.81 4.573 2.584.842 1.775.498 3.784-.885 5.167l-70.907 70.907c-1.767 1.767-1.763 4.663.009 6.436l31.064 31.063c1.776 1.776 4.668 1.776 6.435.009l132.816-132.815c1.77-1.768 1.77-4.659-.01-6.435l-32.69-32.686c-1.04-1.042-2.37-1.499-3.83-1.3l-101.286 13.622.271-.272-37.057 4.643c-1.444.181-2.764-.272-3.794-1.302-1.027-1.028-1.48-2.348-1.3-3.791l4.643-37.058-.271.272 13.621-101.287c.196-1.459-.257-2.791-1.299-3.833l-32.687-32.687c-1.775-1.775-4.667-1.776-6.435-.008L730.522-270.712c-1.768 1.768-1.767 4.66.008 6.435l31.061 31.062c1.776 1.775 4.671 1.779 6.439.011l70.907-70.907c1.382-1.382 3.391-1.727 5.163-.887 1.778.839 2.779 2.623 2.584 4.572l-8.38 84.612c-.14 1.408.311 2.677 1.311 3.677l34.45 34.45c1.003 1.003 2.271 1.454 3.68 1.315l.001.001zM450.468 9.342l-132.811 132.81a4.562 4.562 0 00.006 6.439l31.061 31.061c1.775 1.775 4.67 1.78 6.441.008l45.53-45.529c1.77-1.77 4.659-1.767 6.435.009l4.638 4.638a4.535 4.535 0 01.406 5.984c-26.314 34.525-30.484 76.159 19.068 125.711l7.502 7.502c57.302 57.302 104.104 42.591 141.716 4.98l10.812-10.813c37.611-37.611 52.326-84.415-4.977-141.718l-7.502-7.502c-50.583-50.583-92.851-45.046-127.987-17.295a4.538 4.538 0 01-6.044-.352l-4.384-4.384c-1.776-1.776-1.777-4.668-.006-6.438l47.604-47.605c1.772-1.77 1.768-4.666-.008-6.442l-31.061-31.06a4.562 4.562 0 00-6.439-.006v.002zm18.709 151.512c20.988-20.987 40.317-40.316 79.909-.724 39.592 39.592 20.263 58.921-.725 79.908-21.199 21.2-40.527 40.527-80.119.935s-20.265-58.919.935-80.119zm270.032-275.637l-99.557 99.557c-1.771 1.771-4.666 1.767-6.438-.005l-38.356-38.356a4.56 4.56 0 01-.005-6.438l99.557-99.558c1.771-1.771 1.767-4.666-.009-6.441l-31.061-31.061a4.56 4.56 0 00-6.438-.006L524.091-64.28c-1.768 1.768-1.767 4.66.008 6.436l195.679 195.679c1.776 1.776 4.668 1.776 6.436.008L859.025 5.033a4.561 4.561 0 00-.006-6.44l-31.06-31.06c-1.776-1.775-4.671-1.78-6.442-.008L721.96 67.082a4.561 4.561 0 01-6.439-.006l-38.355-38.355a4.56 4.56 0 01-.006-6.438l99.558-99.558c1.771-1.771 1.767-4.666-.006-6.439l-31.064-31.063a4.56 4.56 0 00-6.438-.006h-.001zM288.077 413.298l84.609-8.383c1.953-.191 3.736.809 4.573 2.584.842 1.774.498 3.784-.885 5.166l-70.907 70.907c-1.767 1.768-1.763 4.663.009 6.436l31.064 31.063c1.775 1.776 4.668 1.777 6.435.009L475.79 388.266c1.768-1.768 1.767-4.66-.009-6.436l-32.686-32.686c-1.042-1.042-2.377-1.498-3.834-1.299l-101.287 13.621.272-.271-37.057 4.643c-1.444.18-2.764-.273-3.794-1.303-1.028-1.027-1.48-2.347-1.3-3.791l4.643-37.057-.272.271 13.622-101.287c.196-1.459-.257-2.791-1.299-3.833l-32.687-32.686c-1.775-1.776-4.667-1.777-6.435-.009L140.853 318.958c-1.768 1.767-1.767 4.66.008 6.435l31.061 31.061c1.776 1.775 4.671 1.779 6.439.012l70.906-70.907c1.383-1.383 3.392-1.727 5.164-.888 1.778.839 2.779 2.624 2.584 4.572l-8.38 84.613c-.14 1.408.311 2.677 1.311 3.677l34.45 34.45c1.003 1.003 2.271 1.453 3.68 1.314l.001.001zm-427.278 185.713l-132.811 132.811c-1.771 1.771-1.769 4.663.006 6.438l31.061 31.061c1.775 1.776 4.67 1.78 6.441.009l45.53-45.529c1.77-1.771 4.659-1.767 6.435.008l4.638 4.639a4.536 4.536 0 01.406 5.984c-26.314 34.525-30.484 76.158 19.068 125.711l7.502 7.502c57.302 57.302 104.104 42.591 141.715 4.979l10.813-10.812c37.61-37.611 52.326-84.415-4.977-141.718l-7.502-7.502c-50.583-50.583-92.851-45.047-127.987-17.295a4.54 4.54 0 01-6.044-.352l-4.385-4.385a4.561 4.561 0 01-.005-6.438l47.604-47.604c1.772-1.771 1.768-4.667-.008-6.442l-31.061-31.061a4.561 4.561 0 00-6.439-.005v.001zm18.709 151.513c20.987-20.988 40.317-40.317 79.909-.725 39.592 39.592 20.262 58.921-.725 79.909-21.2 21.199-40.527 40.526-80.119.934-39.592-39.592-20.265-58.918.935-80.118zM149.54 474.886l-99.557 99.557c-1.771 1.772-4.666 1.768-6.438-.005L5.188 536.082a4.56 4.56 0 01-.006-6.438l99.558-99.557c1.771-1.772 1.767-4.666-.009-6.442l-31.06-31.061c-1.776-1.775-4.668-1.777-6.44-.005l-132.81 132.81c-1.768 1.768-1.767 4.661.008 6.436l195.679 195.679c1.776 1.776 4.668 1.777 6.436.009l132.811-132.811c1.771-1.771 1.77-4.663-.006-6.439l-31.061-31.061c-1.775-1.775-4.67-1.779-6.441-.008l-99.557 99.557a4.561 4.561 0 01-6.439-.005L87.497 618.39a4.56 4.56 0 01-.006-6.438l99.558-99.557c1.771-1.772 1.767-4.666-.006-6.439l-31.064-31.064c-1.775-1.775-4.667-1.777-6.438-.005l-.001-.001zm-26.838-367.28l84.609-8.384c1.953-.19 3.736.81 4.572 2.584.843 1.775.499 3.784-.884 5.167l-70.907 70.907c-1.768 1.767-1.764 4.663.009 6.436l31.063 31.063c1.776 1.776 4.669 1.776 6.436.009L310.415 82.573c1.768-1.768 1.766-4.66-.01-6.435l-32.686-32.686c-1.042-1.042-2.377-1.499-3.833-1.3L172.599 55.774l.272-.272-37.057 4.643c-1.444.18-2.764-.272-3.794-1.302-1.028-1.028-1.481-2.348-1.3-3.791l4.643-37.057-.272.271 13.622-101.287c.196-1.46-.258-2.791-1.299-3.833l-32.687-32.687c-1.775-1.775-4.667-1.776-6.435-.008L-24.523 13.265c-1.767 1.768-1.766 4.66.009 6.435L6.547 50.762c1.775 1.775 4.67 1.779 6.438.011l70.907-70.907c1.383-1.382 3.392-1.727 5.164-.887 1.778.839 2.779 2.623 2.584 4.572l-8.38 84.612c-.14 1.408.31 2.678 1.31 3.678l34.45 34.449c1.003 1.003 2.272 1.454 3.681 1.315l.001.001zm-427.278 185.713L-437.387 426.13a4.56 4.56 0 00.006 6.438l31.061 31.061c1.775 1.775 4.67 1.78 6.441.008l45.529-45.529c1.771-1.77 4.66-1.767 6.435.009l4.639 4.638a4.537 4.537 0 01.406 5.984c-26.314 34.525-30.485 76.159 19.068 125.711l7.502 7.502c57.302 57.302 104.104 42.591 141.715 4.98l10.812-10.813c37.611-37.611 52.326-84.415-4.976-141.718l-7.502-7.502c-50.583-50.583-92.851-45.046-127.988-17.295a4.538 4.538 0 01-6.044-.352l-4.384-4.384a4.56 4.56 0 01-.005-6.438l47.604-47.605c1.771-1.771 1.767-4.666-.008-6.442l-31.061-31.061a4.562 4.562 0 00-6.439-.005v.002zm18.708 151.513c20.988-20.988 40.317-40.317 79.909-.725 39.592 39.592 20.263 58.921-.724 79.909-21.2 21.199-40.527 40.526-80.119.934-39.592-39.592-20.265-58.919.934-80.118zm270.033-275.638l-99.558 99.557c-1.771 1.771-4.665 1.767-6.438-.005l-38.355-38.356a4.56 4.56 0 01-.006-6.438l99.558-99.558c1.77-1.771 1.766-4.666-.009-6.441l-31.061-31.061a4.56 4.56 0 00-6.438-.006l-132.811 132.811c-1.768 1.768-1.768 4.661.008 6.436l195.679 195.679c1.776 1.776 4.668 1.776 6.436.008l132.811-132.81a4.561 4.561 0 00-.006-6.439l-31.06-31.061c-1.776-1.775-4.671-1.78-6.442-.008l-99.558 99.557a4.56 4.56 0 01-6.438-.006l-38.355-38.355a4.56 4.56 0 01-.006-6.438l99.558-99.558c1.77-1.771 1.766-4.666-.006-6.439L-9.396 169.2a4.56 4.56 0 00-6.438-.006h-.001zm728.208-651.258l84.609-8.383c1.953-.191 3.736.809 4.572 2.584.843 1.775.499 3.784-.884 5.167l-70.907 70.906c-1.767 1.768-1.764 4.663.009 6.436l31.063 31.063c1.776 1.776 4.669 1.777 6.436.01l132.815-132.815c1.768-1.768 1.766-4.66-.01-6.436l-32.686-32.686c-1.042-1.042-2.377-1.498-3.833-1.299L762.27-533.895l.272-.272-37.057 4.643c-1.444.18-2.764-.272-3.794-1.302-1.028-1.028-1.481-2.348-1.3-3.792l4.643-37.057-.272.272 13.622-101.287c.196-1.46-.257-2.792-1.299-3.834l-32.687-32.686c-1.775-1.775-4.667-1.777-6.435-.009L565.148-576.404c-1.767 1.767-1.766 4.66.009 6.435l31.061 31.061c1.775 1.775 4.671 1.779 6.438.012l70.907-70.907c1.383-1.383 3.392-1.727 5.164-.888 1.777.84 2.779 2.624 2.584 4.573l-8.381 84.612c-.139 1.408.312 2.677 1.311 3.677l34.45 34.45c1.003 1.003 2.272 1.453 3.681 1.314l.001.001zM285.095-296.351L152.284-163.54a4.56 4.56 0 00.006 6.438l31.061 31.061c1.775 1.776 4.67 1.78 6.441.009l45.529-45.529c1.771-1.771 4.66-1.767 6.435.009l4.639 4.638a4.537 4.537 0 01.406 5.984c-26.314 34.525-30.485 76.159 19.068 125.71l7.502 7.503c57.302 57.302 104.104 42.59 141.715 4.98l10.813-10.813c37.61-37.611 52.325-84.415-4.977-141.718l-7.502-7.502c-50.583-50.583-92.851-45.047-127.988-17.295a4.539 4.539 0 01-6.044-.352l-4.384-4.384a4.561 4.561 0 01-.005-6.439l47.604-47.604c1.771-1.771 1.767-4.667-.008-6.442l-31.061-31.061a4.561 4.561 0 00-6.439-.005v.001zm18.709 151.513c20.987-20.988 40.316-40.317 79.908-.725s20.263 58.921-.724 79.91c-21.2 21.198-40.527 40.526-80.119.934-39.592-39.592-20.265-58.919.935-80.119zm270.032-275.638l-99.558 99.558c-1.771 1.771-4.665 1.767-6.438-.006l-38.355-38.355c-1.776-1.776-1.777-4.668-.006-6.439l99.558-99.557c1.771-1.771 1.766-4.666-.009-6.441l-31.061-31.062a4.561 4.561 0 00-6.438-.005L358.718-369.972c-1.768 1.768-1.768 4.66.008 6.435l195.679 195.679c1.776 1.776 4.668 1.777 6.436.009L693.652-300.66c1.771-1.771 1.77-4.663-.006-6.439l-31.061-31.06c-1.775-1.776-4.67-1.78-6.441-.009l-99.558 99.557a4.56 4.56 0 01-6.438-.005l-38.355-38.355c-1.776-1.776-1.777-4.668-.006-6.439l99.558-99.557c1.771-1.771 1.766-4.666-.006-6.439l-31.064-31.064a4.562 4.562 0 00-6.439-.005v-.001zM1180.1 463.412l84.61-8.383c1.95-.191 3.73.809 4.57 2.584.84 1.774.5 3.783-.89 5.166l-70.9 70.907c-1.77 1.768-1.77 4.663.01 6.436l31.06 31.063c1.77 1.776 4.67 1.777 6.43.009l132.82-132.814c1.77-1.769 1.77-4.66-.01-6.436l-32.69-32.686c-1.04-1.042-2.37-1.499-3.83-1.3l-101.29 13.622.27-.271-37.05 4.643c-1.45.18-2.77-.273-3.8-1.303-1.02-1.027-1.48-2.347-1.3-3.791l4.65-37.057-.27.271 13.62-101.287c.19-1.459-.26-2.791-1.3-3.833l-32.69-32.687c-1.77-1.775-4.67-1.776-6.43-.008l-132.82 132.814c-1.77 1.768-1.77 4.66.01 6.436l31.06 31.061c1.78 1.775 4.67 1.779 6.44.011l70.91-70.906c1.38-1.383 3.39-1.727 5.16-.888 1.78.839 2.78 2.624 2.58 4.572l-8.38 84.612c-.14 1.408.31 2.678 1.31 3.678l34.45 34.45c1.01 1.003 2.28 1.453 3.68 1.314l.01.001zM752.818 649.125L620.007 781.936a4.56 4.56 0 00.006 6.438l31.061 31.061c1.775 1.775 4.67 1.78 6.441.009l45.529-45.529c1.771-1.771 4.66-1.768 6.436.008l4.638 4.638a4.536 4.536 0 01.406 5.984c-26.314 34.525-30.484 76.159 19.068 125.711l7.502 7.502c57.302 57.303 104.104 42.591 141.715 4.98l10.813-10.812c37.611-37.611 52.326-84.416-4.977-141.718l-7.502-7.502c-50.583-50.584-92.851-45.047-127.987-17.296a4.538 4.538 0 01-6.044-.352l-4.385-4.384a4.56 4.56 0 01-.005-6.438l47.604-47.604c1.771-1.772 1.768-4.667-.008-6.443l-31.061-31.061a4.562 4.562 0 00-6.439-.005v.002zm18.709 151.513c20.987-20.988 40.317-40.317 79.909-.725 39.591 39.592 20.262 58.921-.725 79.909-21.2 21.199-40.527 40.526-80.119.934-39.592-39.592-20.265-58.918.935-80.118zM1041.56 525l-99.558 99.557c-1.772 1.771-4.666 1.767-6.439-.005l-38.355-38.356a4.56 4.56 0 01-.006-6.438L996.76 480.2c1.771-1.771 1.767-4.666-.009-6.441l-31.061-31.061c-1.775-1.775-4.667-1.777-6.438-.006L826.441 575.503c-1.768 1.768-1.767 4.661.008 6.436l195.681 195.679c1.77 1.776 4.67 1.777 6.43.008l132.82-132.81c1.77-1.771 1.76-4.663-.01-6.439l-31.06-31.061c-1.78-1.775-4.67-1.78-6.44-.008l-99.56 99.557c-1.77 1.771-4.66 1.771-6.44-.005l-38.354-38.356a4.56 4.56 0 01-.006-6.438l99.56-99.558c1.77-1.771 1.76-4.666-.01-6.438L1048 525.006c-1.78-1.775-4.67-1.777-6.44-.006zm728.21-651.257l84.61-8.383c1.95-.191 3.73.809 4.57 2.584.84 1.774.5 3.784-.89 5.166l-70.9 70.907c-1.77 1.768-1.77 4.663.01 6.436l31.06 31.063c1.78 1.776 4.67 1.777 6.44.01l132.81-132.815c1.77-1.768 1.77-4.66-.01-6.436l-32.69-32.686c-1.04-1.042-2.37-1.499-3.83-1.299l-101.29 13.621.28-.271-37.06 4.643c-1.45.18-2.77-.273-3.8-1.303-1.02-1.027-1.48-2.347-1.3-3.791l4.65-37.057-.27.271 13.62-101.287c.19-1.459-.26-2.791-1.3-3.833l-32.69-32.686a4.553 4.553 0 00-6.43-.009l-132.82 132.815c-1.77 1.767-1.76 4.659.01 6.435l31.06 31.061c1.78 1.775 4.67 1.779 6.44.012l70.91-70.907c1.38-1.383 3.39-1.727 5.16-.888 1.78.839 2.78 2.624 2.58 4.572l-8.38 84.612c-.14 1.409.32 2.678 1.32 3.678l34.45 34.45c1 1.003 2.27 1.453 3.68 1.314v.001zM1342.49 59.456l-132.81 132.811a4.567 4.567 0 000 6.438l31.06 31.061c1.78 1.775 4.68 1.78 6.45.009l45.53-45.529c1.77-1.771 4.65-1.768 6.43.008l4.64 4.639a4.529 4.529 0 01.4 5.984c-26.31 34.524-30.48 76.158 19.07 125.711l7.5 7.501c57.31 57.303 104.11 42.592 141.72 4.98l10.81-10.812c37.61-37.611 52.33-84.416-4.97-141.718l-7.51-7.502c-50.58-50.583-92.85-45.047-127.98-17.296a4.545 4.545 0 01-6.05-.352l-4.38-4.384a4.557 4.557 0 01-.01-6.438L1380 96.963c1.77-1.772 1.76-4.667-.01-6.442l-31.06-31.062c-1.78-1.775-4.67-1.776-6.44-.005v.002zm18.71 151.513c20.99-20.988 40.31-40.317 79.91-.725 39.59 39.592 20.26 58.921-.73 79.909-21.2 21.199-40.52 40.526-80.12.934-39.59-39.592-20.26-58.918.94-80.118zm270.03-275.638l-99.56 99.557c-1.77 1.771-4.66 1.768-6.44-.005l-38.35-38.356a4.558 4.558 0 01-.01-6.438l99.56-99.558a4.561 4.561 0 00-.01-6.441l-31.06-31.061c-1.77-1.775-4.67-1.777-6.44-.005l-132.81 132.81c-1.77 1.768-1.77 4.66.01 6.436l195.68 195.68a4.565 4.565 0 006.44.009l132.81-132.811a4.559 4.559 0 00-.01-6.44l-31.06-31.06c-1.78-1.775-4.67-1.78-6.44-.008l-99.56 99.557c-1.77 1.771-4.66 1.771-6.44-.005l-38.35-38.356a4.558 4.558 0 01-.01-6.438l99.56-99.558a4.558 4.558 0 00-.01-6.438l-31.06-31.064c-1.78-1.775-4.67-1.777-6.44-.006zm479.31 68.707l84.61-8.383c1.95-.191 3.73.809 4.57 2.584.84 1.774.5 3.783-.89 5.166l-70.9 70.907c-1.77 1.767-1.77 4.663.01 6.436L2159 111.81c1.78 1.776 4.67 1.777 6.44.009l132.81-132.814c1.77-1.769 1.77-4.66-.01-6.436l-32.68-32.686c-1.05-1.042-2.38-1.499-3.84-1.3l-101.28 13.622.27-.271-37.06 4.643c-1.44.18-2.76-.273-3.79-1.303-1.03-1.027-1.48-2.347-1.3-3.791l4.64-37.057-.27.271 13.62-101.287c.19-1.459-.26-2.791-1.3-3.833l-32.69-32.687a4.554 4.554 0 00-6.43-.008L1963.31-90.302c-1.76 1.767-1.76 4.66.01 6.434l31.06 31.062c1.78 1.775 4.67 1.779 6.44.011l70.91-70.906c1.38-1.383 3.39-1.727 5.16-.888 1.78.839 2.78 2.623 2.59 4.572l-8.38 84.612c-.14 1.409.31 2.678 1.31 3.678l34.45 34.45c1 1.003 2.27 1.453 3.68 1.314v.001zm-427.28 185.713l-132.81 132.811a4.567 4.567 0 000 6.438l31.07 31.061c1.77 1.775 4.67 1.78 6.44.009l45.53-45.529a4.55 4.55 0 016.43.008l4.64 4.638a4.541 4.541 0 01.41 5.984c-26.32 34.525-30.49 76.159 19.06 125.711l7.51 7.502c57.3 57.303 104.1 42.591 141.71 4.98l10.81-10.812c37.61-37.611 52.33-84.416-4.97-141.719l-7.51-7.501c-50.58-50.584-92.85-45.047-127.98-17.296a4.545 4.545 0 01-6.05-.352l-4.38-4.384a4.557 4.557 0 01-.01-6.438l47.61-47.605a4.562 4.562 0 00-.01-6.442l-31.06-31.061c-1.78-1.775-4.67-1.776-6.44-.005v.002zm18.71 151.513c20.99-20.988 40.32-40.317 79.91-.725 39.59 39.592 20.26 58.921-.73 79.909-21.2 21.199-40.52 40.526-80.12.934-39.59-39.592-20.26-58.919.94-80.118zM1972 65.626l-99.56 99.557a4.554 4.554 0 01-6.43-.005l-38.36-38.356a4.557 4.557 0 01-.01-6.438l99.56-99.558a4.561 4.561 0 00-.01-6.44l-31.06-31.062a4.563 4.563 0 00-6.44-.006L1756.88 116.13c-1.77 1.768-1.76 4.661.01 6.436l195.68 195.679c1.78 1.776 4.67 1.776 6.44.008l132.81-132.81a4.559 4.559 0 00-.01-6.439l-31.06-31.061c-1.78-1.775-4.67-1.78-6.44-.008l-99.56 99.557c-1.77 1.771-4.66 1.771-6.44-.005l-38.35-38.356a4.557 4.557 0 01-.01-6.438l99.56-99.558a4.558 4.558 0 00-.01-6.439l-31.06-31.063c-1.78-1.776-4.67-1.777-6.44-.006z"/></g><defs><filter id="filter0_d_3451_5163" x="-452.714" y="-1310.21" width="2766.29" height="2414.44" filterUnits="userSpaceOnUse" color-interpolation-filters="sRGB"><feFlood flood-opacity="0" result="BackgroundImageFix"/><feColorMatrix in="SourceAlpha" values="0 0 0 0 0 0 0 0 0 0 0 0 0 0 0 0 0 0 127 0" result="hardAlpha"/><feOffset dy="4"/><feGaussianBlur stdDeviation="7"/><feComposite in2="hardAlpha" operator="out"/><feColorMatrix values="0 0 0 0 0 0 0 0 0 0 0 0 0 0 0 0 0 0 0.1 0"/><feBlend in2="BackgroundImageFix" result="effect1_dropShadow_3451_5163"/><feBlend in="SourceGraphic" in2="effect1_dropShadow_3451_5163" result="shape"/></filter></defs></svg>